<?xml version="1.0" encoding="UTF-8"?><svg xmlns="http://www.w3.org/2000/svg" viewBox="0 0 133.3 119.26"><defs><style>.cls-1{fill:#8ab9d3;opacity:.25;}.cls-2{fill:#fff;}.cls-3{fill:#004991;}.cls-4{fill:#045aa0;}.cls-5{isolation:isolate;}.cls-6{fill:#3a7ec1;mix-blend-mode:multiply;opacity:.2;}</style></defs><g class="cls-5"><g id="Layer_2"><g id="Camada_1"><g><circle class="cls-6" cx="66.99" cy="74.22" r="45.03" transform="translate(-13.36 133.72) rotate(-84.45)"/><circle class="cls-3" cx="64.86" cy="67.92" r="45.03"/><g><path class="cls-4" d="m19.97,94.15c1.23-.67,1.26-1.59.77-2.48-.32-.6-.72-1.01-1.34-1.3l1.01-.55c.49.32.92.78,1.26,1.41.95,1.74.49,3.11-1.12,3.99l-.49.27c-1.62.88-3.01.52-3.96-1.22-.34-.63-.5-1.24-.5-1.82l1.01-.55c-.09.67.04,1.23.37,1.83.48.88,1.27,1.37,2.5.69l.49-.27Z"/><path class="cls-4" d="m11.87,90.84l6.65-2.88c.3-.13.36-.29.24-.56-.09-.2-.21-.42-.36-.61l.93-.4c.15.23.32.54.46.85.36.83.17,1.43-.75,1.83l-6.68,2.89-.48-1.12Z"/><path class="cls-4" d="m11.68,88.29l-.18.06c-.38.13-.63-.05-.78-.47-.15-.41-.07-.72.3-.86l.18-.06c.39-.14.63.06.78.47.15.42.08.72-.3.86Zm1.59-.67l-.41-1.15,5.71-2.05.41,1.15-5.71,2.05Z"/><path class="cls-4" d="m19.17,77.41l.3,1.18-2.7.7c.36.32.67.81.83,1.42.45,1.74-.35,2.73-2.17,3.2l-.56.14c-1.82.47-2.99-.04-3.5-2.02-.25-.96-.19-1.8.11-2.64l7.69-1.98Zm-4.03,5.31c1.15-.3,1.7-.83,1.41-1.94-.14-.54-.43-.97-.79-1.24l-3.41.88c-.11.43-.1.87.01,1.32.31,1.21,1.06,1.42,2.2,1.13l.57-.15Z"/><path class="cls-4" d="m10.08,73.88l-.15-1.21,5.41-.67c.54.66.97,1.59,1.08,2.53.23,1.84-.51,2.63-2.21,2.84l-3.64.45-.15-1.21,3.54-.44c1.13-.14,1.55-.61,1.42-1.67-.06-.44-.2-.85-.47-1.23l-4.83.6Z"/><path class="cls-4" d="m13.44,69.75c1.17-.09,1.59-.83,1.59-1.88,0-.62-.15-1.22-.55-1.87h1.13c.29.6.43,1.23.43,1.88,0,2.09-1.06,3.09-2.89,3.09h-.59c-1.83,0-2.88-1.02-2.88-2.87,0-1.79,1.04-2.52,2.14-2.52,1.16,0,1.63.65,1.63,1.75v2.42Zm-.98,0v-2.13c0-.52-.15-.8-.65-.8-.65,0-1.13.43-1.13,1.3,0,.97.56,1.62,1.78,1.63Z"/><path class="cls-4" d="m14.37,61.79c-1.26-.23-1.77-1.02-1.48-2.58.12-.66.39-1.28.69-1.7l-.33-.05c-1-.15-1.48.15-1.69,1.31-.12.66-.04,1.38.23,1.97l-1.12-.21c-.19-.61-.25-1.3-.09-2.16.33-1.78,1.28-2.42,2.83-2.14l3.16.58c.34.85.41,1.84.23,2.82-.35,1.9-1.18,2.38-2.44,2.15Zm1.41-3.88l-1.35-.25c-.29.39-.46.9-.55,1.4-.19,1.03.05,1.42.71,1.54.66.12,1.07-.2,1.25-1.18.1-.53.08-1.08-.06-1.51Z"/><path class="cls-4" d="m21.37,51.69l-.37,1.16-2.66-.84c.14.46.14,1.04-.05,1.64-.54,1.71-1.75,2.13-3.53,1.56l-.55-.17c-1.79-.57-2.51-1.62-1.9-3.56.3-.95.8-1.63,1.49-2.19l7.57,2.4Zm-6.24,2.37c1.13.36,1.88.2,2.23-.89.17-.54.15-1.05-.01-1.47l-3.35-1.06c-.32.31-.55.69-.69,1.12-.38,1.2.14,1.77,1.27,2.12l.56.18Z"/><path class="cls-4" d="m15.52,43.89l.51-1.11,4.95,2.29c.11.85-.02,1.86-.42,2.72-.78,1.68-1.83,1.96-3.38,1.24l-3.33-1.54.51-1.11,3.23,1.5c1.03.48,1.64.31,2.09-.66.19-.4.28-.83.25-1.29l-4.41-2.05Z"/><path class="cls-4" d="m15.53,40.25l-.16-.09c-.34-.2-.37-.51-.14-.9.22-.37.51-.52.85-.32l.16.1c.35.21.36.52.14.9-.22.38-.5.52-.85.32Zm1.53.79l.62-1.05,5.23,3.07-.62,1.05-5.23-3.07Z"/><path class="cls-4" d="m20.98,36.04c.08-.88.38-1.67,1-2.45,1.29-1.59,2.56-1.56,4.02-.38l.45.36c1.46,1.18,1.77,2.42.64,3.81-.4.49-.88.81-1.34.95l2.17,1.76-.77.95-6.16-5Zm4.25-1.88c-.92-.75-1.67-.88-2.47.11-.29.35-.48.76-.56,1.19l2.73,2.22c.44-.1.89-.37,1.23-.79.72-.89.44-1.6-.48-2.35l-.46-.37Z"/><path class="cls-4" d="m27.74,33.52c-.89-.91-.86-1.85.28-2.97.48-.47,1.05-.82,1.55-.99l-.24-.23c-.73-.7-1.29-.74-2.14.09-.48.47-.83,1.1-.95,1.75l-.79-.81c.2-.6.54-1.2,1.17-1.82,1.29-1.26,2.44-1.24,3.55-.11l2.25,2.3c-.21.89-.73,1.74-1.44,2.44-1.38,1.35-2.34,1.27-3.24.34Zm3.39-2.35l-.96-.98c-.46.15-.9.47-1.26.82-.75.73-.78,1.18-.31,1.66.47.48.99.46,1.7-.24.39-.38.69-.84.83-1.27Z"/><path class="cls-4" d="m34.47,24.13c-.74.08-1.35.29-1.92.73-.34.26-.64.62-.82,1.03l2.95,3.87-.97.74-3.31-4.34c.32-.8.88-1.63,1.64-2.21.57-.43,1.13-.67,1.73-.75l.7.92Z"/><path class="cls-4" d="m36.38,26.11c-.66-1.09-.41-2,.95-2.82.57-.35,1.21-.55,1.73-.61l-.18-.27c-.55-.84-1.09-1.01-2.1-.4-.57.35-1.05.88-1.32,1.48l-.59-.97c.33-.54.81-1.05,1.56-1.5,1.55-.93,2.66-.65,3.48.71l1.66,2.75c-.41.82-1.1,1.53-1.96,2.04-1.66,1-2.56.7-3.23-.41Zm3.84-1.51l-.71-1.17c-.48.04-.98.25-1.42.51-.89.54-1.03.98-.68,1.55.35.57.86.67,1.71.16.46-.28.86-.66,1.1-1.04Z"/><path class="cls-4" d="m42.58,16.08l-.07-.17c-.15-.37.02-.63.43-.8.4-.17.72-.11.87.26l.07.17c.16.38-.03.63-.43.8-.41.17-.71.12-.87-.26Zm.74,1.56l1.13-.47,2.32,5.61-1.13.46-2.32-5.61Z"/><path class="cls-4" d="m50.96,16.51c-.72-.18-1.37-.18-2.05.04-.41.13-.82.37-1.12.69l1.49,4.63-1.16.37-1.66-5.19c.57-.65,1.38-1.24,2.28-1.53.68-.22,1.29-.25,1.88-.12l.35,1.1Z"/><path class="cls-4" d="m55.2,18.3c-.18-1.27.41-2,1.98-2.22.66-.09,1.33-.03,1.83.12l-.06-.32c-.17-.99-.6-1.36-1.78-1.19-.66.09-1.32.4-1.8.84l-.16-1.13c.52-.37,1.15-.65,2.02-.77,1.79-.25,2.7.45,2.92,2.02l.45,3.18c-.7.59-1.62.97-2.6,1.11-1.92.27-2.63-.37-2.81-1.64Zm1.23-7.45l1.92,1.64-.43.53c-.59-.23-1.25-.65-1.75-1.07l-.39-.32.65-.78Zm2.89,7.57l-.19-1.36c-.46-.15-1-.16-1.5-.09-1.03.14-1.33.49-1.24,1.15.09.66.52.96,1.51.82.53-.07,1.05-.27,1.42-.53Z"/><path class="cls-4" d="m67.97,16.11c1.13.45,1.41.9,1.38,1.71-.04,1.14-1.02,1.73-2.54,1.68-.69-.03-1.66-.2-2.32-.57l.04-1.16c.71.45,1.56.67,2.26.7.8.03,1.32-.21,1.34-.7.01-.32-.11-.52-.65-.74l-1.59-.65c-1.12-.45-1.41-.87-1.38-1.66.04-1.12,1.01-1.63,2.46-1.57.68.03,1.48.15,2.08.43l-.04,1.15c-.6-.34-1.4-.52-2.02-.55-.81-.03-1.25.13-1.27.61-.01.27.11.47.65.69l1.59.64Z"/><path class="cls-4" d="m70.27,17.65c.2-1.26.97-1.79,2.54-1.54.66.1,1.29.36,1.71.65l.04-.33c.12-1-.18-1.48-1.35-1.66-.66-.1-1.38,0-1.97.28l.18-1.12c.6-.2,1.29-.28,2.16-.15,1.78.28,2.45,1.22,2.21,2.78l-.5,3.17c-.84.37-1.83.46-2.81.3-1.91-.3-2.41-1.12-2.21-2.39Zm3.91,1.32l.21-1.35c-.4-.28-.92-.44-1.41-.52-1.03-.16-1.41.09-1.52.75-.1.66.22,1.07,1.21,1.22.53.08,1.08.05,1.51-.09Z"/><path class="cls-4" d="m79.78,12.69l-1.8,7.02c-.08.32.01.46.3.54.21.06.46.09.7.1l-.25.98c-.27-.02-.62-.08-.95-.16-.88-.22-1.24-.74-.99-1.72l1.81-7.05,1.18.3Z"/><path class="cls-4" d="m79.77,19.56c.44-1.2,1.29-1.58,2.79-1.03.63.23,1.19.59,1.56.96l.1-.31c.31-.96.1-1.48-1.01-1.89-.63-.23-1.35-.26-1.99-.1l.39-1.07c.63-.08,1.32-.03,2.15.27,1.7.61,2.18,1.66,1.64,3.15l-1.09,3.02c-.89.2-1.88.1-2.82-.24-1.82-.66-2.16-1.55-1.72-2.77Zm3.59,2.04l.47-1.29c-.34-.35-.82-.61-1.29-.78-.98-.36-1.4-.18-1.63.44-.23.63.02,1.09.95,1.43.51.18,1.05.26,1.5.19Z"/><path class="cls-4" d="m92.32,26.82c-.89.05-1.71-.12-2.57-.63-1.76-1.03-1.92-2.3-.97-3.92l.29-.5c.95-1.62,2.12-2.11,3.67-1.2.55.32.93.75,1.14,1.19l1.41-2.4,1.05.62-4.02,6.84Zm-2.49-3.92c-.6,1.02-.6,1.79.48,2.43.39.23.82.36,1.26.37l1.78-3.03c-.16-.42-.49-.82-.97-1.1-.99-.58-1.65-.2-2.25.82l-.3.5Z"/><path class="cls-4" d="m95.24,26.68c-.64.98-.31,1.76.53,2.41.49.38,1.06.62,1.81.7l-.69.89c-.65-.13-1.24-.41-1.75-.8-1.65-1.28-1.8-2.73-.69-4.18l.36-.46c1.12-1.45,2.56-1.67,4.03-.53,1.42,1.1,1.36,2.36.69,3.23-.71.92-1.51.9-2.38.22l-1.91-1.48Zm.6-.77l1.69,1.3c.41.32.72.37,1.03-.03.39-.51.34-1.16-.34-1.69-.77-.6-1.62-.54-2.38.41Z"/><path class="cls-4" d="m106.16,33.93c-.14-.73-.41-1.32-.9-1.85-.29-.32-.68-.59-1.1-.73l-3.59,3.29-.82-.9,4.02-3.68c.83.24,1.7.73,2.34,1.43.48.53.77,1.06.9,1.66l-.86.78Z"/><path class="cls-4" d="m105.72,36.85c-.89.77-.79,1.61-.16,2.46.37.5.84.89,1.54,1.18l-.91.66c-.59-.31-1.08-.74-1.46-1.26-1.23-1.68-.97-3.12.5-4.2l.47-.35c1.48-1.08,2.92-.89,4.01.61,1.06,1.45.66,2.64-.23,3.29-.94.68-1.7.44-2.35-.45l-1.42-1.95Zm.79-.57l1.26,1.72c.3.42.59.55,1,.26.52-.38.65-1.01.14-1.71-.57-.79-1.41-.97-2.4-.26Z"/><path class="cls-4" d="m113.92,42.98l.59,1.07-4.77,2.63c-.75-.42-1.49-1.12-1.95-1.95-.89-1.62-.5-2.63,1-3.45l3.21-1.77.59,1.07-3.12,1.72c-1,.55-1.22,1.14-.7,2.07.22.39.5.71.89.97l4.26-2.35Z"/><path class="cls-4" d="m110.13,49.17l-.44-1.13,5.07-1.99c.69.51,1.33,1.3,1.67,2.19.68,1.72.16,2.69-1.43,3.32l-3.42,1.34-.44-1.14,3.32-1.3c1.06-.41,1.35-.99.96-1.99-.16-.41-.4-.77-.76-1.07l-4.53,1.77Z"/><path class="cls-4" d="m117.79,52.59l.33,1.17-5.84,1.67-.33-1.17,5.84-1.67Zm1.63-.56l.18-.05c.38-.11.62.09.75.52.12.42.02.72-.36.83l-.18.05c-.39.11-.63-.1-.75-.52-.12-.43-.04-.72.36-.83Z"/><path class="cls-4" d="m115.93,55.98c1.8-.33,3.02.43,3.37,2.27.34,1.84-.53,2.99-2.33,3.33l-.55.1c-1.8.33-3.02-.43-3.37-2.27-.34-1.84.53-2.99,2.33-3.33l.55-.1Zm.83,4.4c1.27-.23,1.7-.98,1.52-1.95-.18-.96-.86-1.49-2.12-1.25l-.58.11c-1.27.23-1.7.98-1.52,1.95.18.96.86,1.49,2.11,1.25l.58-.11Zm3.63-2.42c.17-.44.22-.59.19-.77-.03-.17-.18-.22-.53-.15l-.12.02-.17-.91c.13-.06.3-.1.43-.13.67-.12,1.11.14,1.22.72.09.51.03.8-.12,1.19-.17.44-.22.59-.19.77.03.16.18.22.52.15l.12-.02.17.91c-.12.06-.3.1-.42.12-.68.13-1.11-.13-1.22-.72-.09-.5-.03-.81.12-1.19Z"/><path class="cls-4" d="m116.29,63.95c-1.16.16-1.53.92-1.47,1.97.04.62.22,1.21.66,1.83l-1.12.06c-.33-.58-.5-1.2-.54-1.85-.12-2.08.88-3.15,2.7-3.25l.58-.03c1.82-.1,2.93.84,3.04,2.69.1,1.79-.89,2.57-1.99,2.63-1.16.07-1.66-.55-1.72-1.65l-.14-2.41Zm.97-.05l.12,2.13c.03.51.2.79.7.76.64-.04,1.1-.5,1.05-1.36-.05-.97-.65-1.58-1.87-1.52Z"/><path class="cls-4" d="m117.13,72.65c-.48,1.12-.93,1.39-1.74,1.34-1.13-.07-1.71-1.06-1.61-2.58.04-.69.24-1.65.62-2.31l1.16.07c-.47.7-.71,1.54-.75,2.24-.05.79.18,1.33.67,1.36.32.02.52-.1.76-.63l.68-1.58c.48-1.11.91-1.39,1.69-1.34,1.12.07,1.6,1.05,1.51,2.5-.04.68-.18,1.48-.48,2.07l-1.15-.07c.35-.59.55-1.39.59-2.01.05-.81-.1-1.25-.58-1.28-.27-.02-.48.1-.71.64l-.67,1.58Z"/></g><circle class="cls-2" cx="64.49" cy="67.5" r="39.26"/><path class="cls-1" d="m86.81,67.54c-.15-1.81-1.61-3.3-3.43-3.36-2.15-.07-3.84,1.76-3.66,3.85l-.23-2.75c-.15-1.81-1.6-3.3-3.42-3.36-2.15-.07-3.83,1.76-3.66,3.84l-.17-2.08c-.16-1.88-1.72-3.4-3.61-3.36-2.01.04-3.56,1.74-3.48,3.69l-.87-10.29c-.15-1.81-1.61-3.3-3.43-3.36-2.15-.07-3.84,1.76-3.66,3.85l2.18,25.85-8.3-8.07c-1.31-1.27-3.38-1.44-4.79-.29-1.67,1.36-1.74,3.85-.24,5.31l7.22,7.01,8.18,7.94.26,3.14.22,2.67c.03.34.17.64.39.86.06.06.13.12.21.17.07.05.15.1.24.13.12.05.26.09.4.11.09.01.19.01.28,0l20.06-1.69c.39-.03.72-.22.95-.49.05-.05.09-.11.12-.17l.05-.09c.03-.06.05-.11.08-.18l.04-.14c.03-.14.05-.29.03-.44l-.24-2.88s.46-.47,1.03-1.55l.05-.1c.07-.13.14-.28.21-.43.04-.08.07-.15.11-.24l.03-.08c.05-.12.11-.25.16-.38v-.02c.19-.45.38-.96.55-1.53.3-.97.5-1.97.63-2.97.01-.1.03-.2.04-.31.12-1.03.15-2.06.1-3.1l-.14-3.28-.43-9.69-.08-1.78Z"/><path class="cls-4" d="m84.24,65.1c-.15-1.81-1.61-3.3-3.43-3.36-2.15-.07-3.84,1.76-3.66,3.85l-.23-2.75c-.15-1.81-1.6-3.3-3.42-3.36-2.15-.07-3.83,1.76-3.66,3.84l-.18-2.08c-.16-1.88-1.72-3.4-3.61-3.36-2.01.04-3.56,1.74-3.48,3.69l-.87-10.29c-.15-1.81-1.61-3.3-3.43-3.36-2.15-.07-3.84,1.76-3.66,3.85l2.18,25.85-8.3-8.07c-1.31-1.27-3.38-1.44-4.79-.29-1.67,1.36-1.74,3.85-.24,5.31l7.22,7.01,8.18,7.94.26,3.14.22,2.67c.03.34.17.64.39.86.06.06.13.12.21.17.07.05.15.1.24.13.12.05.26.09.4.11.09.01.19.01.28,0l20.06-1.69c.39-.03.72-.22.95-.49.05-.05.09-.11.12-.17l.05-.09c.03-.06.05-.11.08-.18l.04-.14c.03-.14.05-.29.03-.44l-.24-2.88s.46-.47,1.03-1.55l.05-.1c.07-.13.14-.28.21-.43.04-.08.07-.15.11-.24l.04-.08c.05-.12.11-.25.16-.38v-.02c.19-.45.38-.96.55-1.53.3-.97.5-1.97.63-2.97.01-.1.03-.2.04-.31.12-1.03.15-2.06.1-3.1l-.14-3.28-.43-9.69-.08-1.78Z"/><path class="cls-3" d="m57.19,41.65c.4-.03.7-.39.67-.79l-.37-4.41c-.03-.4-.39-.7-.79-.67s-.7.39-.67.79l.37,4.41c.03.4.39.7.79.67Z"/><path class="cls-3" d="m66,49.09c.03.4.39.7.79.67l4.41-.37c.4-.03.7-.39.67-.79s-.39-.7-.79-.67l-4.41.37c-.4.03-.7.39-.67.79Z"/><path class="cls-3" d="m44.66,51.63l4.41-.37c.4-.03.7-.39.67-.79s-.39-.7-.79-.67l-4.41.37c-.4.03-.7.39-.67.79s.39.7.79.67Z"/><path class="cls-3" d="m63.14,43.55c.15.13.35.19.53.17s.37-.1.5-.26l2.86-3.38c.26-.31.22-.77-.09-1.03-.31-.26-.77-.22-1.03.09l-2.86,3.38c-.26.31-.22.77.09,1.03Z"/><path class="cls-3" d="m49.34,60.69c.19-.02.37-.1.5-.26l2.86-3.38c.26-.31.22-.77-.09-1.03-.31-.26-.77-.22-1.03.09l-2.86,3.38c-.26.31-.22.77.09,1.03.15.13.35.19.53.17Z"/><path class="cls-3" d="m50.61,44.6c.15.13.35.19.53.17s.37-.1.5-.26c.26-.31.22-.77-.09-1.03l-3.38-2.86c-.31-.26-.77-.22-1.03.09-.26.31-.22.77.09,1.03l3.38,2.86Z"/><path class="cls-3" d="m60.43,42.03c.1.03.2.04.29.03.28-.02.54-.21.64-.5l1.39-4.21c.13-.38-.08-.8-.47-.93-.39-.13-.8.08-.93.47l-1.39,4.21c-.13.38.08.8.47.93Z"/><path class="cls-3" d="m66.55,51.87c-.38-.13-.8.08-.93.47-.13.38.08.8.47.93l4.21,1.39c.1.03.2.04.29.03.28-.02.54-.21.64-.5.13-.38-.08-.8-.47-.93l-4.21-1.39Z"/><path class="cls-3" d="m44.99,46.29l4.21,1.39c.1.03.2.04.29.03.28-.02.54-.21.64-.5.13-.38-.08-.8-.47-.93l-4.21-1.39c-.38-.13-.8.08-.93.47-.13.38.08.8.47.93Z"/><path class="cls-3" d="m65.16,46.11c.14.28.43.43.72.4.09,0,.18-.03.27-.08l3.96-1.99c.36-.18.51-.62.33-.98-.18-.36-.62-.51-.98-.33l-3.96,1.99c-.36.18-.51.62-.33.98Z"/><path class="cls-3" d="m50.58,53.45c-.18-.36-.62-.51-.98-.33l-3.96,1.99c-.36.18-.51.62-.33.98.14.28.43.43.72.4.09,0,.18-.03.27-.08l3.96-1.99c.36-.18.51-.62.33-.98Z"/><path class="cls-3" d="m53.22,42.16c.14.28.43.43.72.4.09,0,.18-.03.27-.08.36-.18.51-.62.33-.98l-1.99-3.96c-.18-.36-.62-.51-.98-.33-.36.18-.51.62-.33.98l1.99,3.96Z"/><path class="cls-3" d="m75.26,82.76c-4.02,2.14-8.92,3.35-13.75,2.96-4.18-.29-7.7-1.87-10.82-4.13l8.18,7.94.26,3.14.22,2.67c.03.34.17.64.39.86.06.06.13.12.21.17.07.05.15.1.24.13.12.05.26.09.4.11.09.01.19.01.28,0l20.06-1.69c.39-.03.72-.22.95-.49.05-.05.09-.11.12-.17l.05-.09c.03-.06.05-.11.08-.18.06-.18.09-.38.07-.58l-.24-2.88s.46-.47,1.03-1.55l.05-.1c.07-.13.14-.28.21-.43.04-.08.07-.15.11-.24l.04-.08c.05-.12.11-.25.16-.38v-.02c.19-.45.38-.96.55-1.53.3-.97.5-1.97.63-2.97.01-.1.03-.2.04-.31.12-1.03.15-2.06.1-3.1l-.14-3.28-.43-9.69c-1.25,6.33-3.26,12.75-9.06,15.88Z"/></g></g></g></g></svg>