<?xml version="1.0" encoding="UTF-8"?><svg xmlns="http://www.w3.org/2000/svg" viewBox="0 0 92.68 89.18"><defs><style>.cls-1{fill:#fff;}.cls-2{fill:#ffca00;}.cls-3{mix-blend-mode:overlay;opacity:.5;}.cls-3,.cls-4{fill:#ffc22f;}.cls-5{isolation:isolate;}.cls-6{fill:#8d8b39;}.cls-7{fill:#7c4109;}.cls-8{mix-blend-mode:color-dodge;}.cls-9{fill:#c26f13;}.cls-10{fill:#ff952f;}</style></defs><g class="cls-5"><g id="Layer_2"><g id="Camada_1"><g><path class="cls-7" d="m77.07,89.1c-.42.02-.87-.02-1.34-.12-4.45-.85-8.87-2.86-13.16-4.82-4.3-1.96-8.34-3.8-12.39-4.57-.03,0-.06,0-.09-.01-1.85-.24-3.6-.33-5.21-.26-.04,0-.11,0-.15.01-2.78.32-5.3,1.39-7.71,3.27-.78.52-1.51,1.04-2.24,1.54-1.03.72-2.06,1.44-3.07,2.09-3.02,1.95-5.26,2.86-7.27,2.94-1.68.07-3.1-.44-4.34-1.58-.12-.11-.26-.19-.4-.26-.07-.03-.14-.08-.2-.13-.34-.31-.59-.69-.85-1.33-.03-.07-.06-.14-.1-.2-.33-.53-.64-1.12-.92-1.76-.12-.27-.05-.6.17-.8.24-.22.4-.52.44-.85.02-.12.03-.23.06-.35,1.87-9.13.5-18.77-3.85-27.1-.07-.13-.16-.25-.26-.35-.68-.67-5.9-8.73-11.95-13.53-.17-.14-.25-.35-.43-.48,0,0-.06-.04-.07-.05,0,0-.03-.02-.05-.04-1.62-1.48-2.09-3.59-1.28-5.79.88-2.39,2.99-4.06,5.26-4.15.7.01,1.36,0,2.02-.02,11.3-.47,25.34-7.01,29.49-20.28.47-1.19.9-2.34,1.34-3.49l.04-.1c.46-1.21.92-2.42,1.39-3.62C40.75,1.11,42.25.08,44.17,0c3.29-.14,6.78,2.53,7.46,5.72,2.07,10.05,11.33,22,30.63,22.59.03,0,.06,0,.09,0,.76.12,1.52.24,2.28.38.1.02.2.02.31.02.11,0,.22.01.32.06.09.04.19.07.29.09,1.9.36,3.5.72,5.02,1.15.07.02.15.03.22.04.32.04.62.18.87.42.54.51.88,1.53.93,2.79,0,.06,0,.13.02.19.31,1.77-.26,3.61-1.53,4.93-3.61,4.04-7.77,8.92-11.59,14.74-.07.11-.13.23-.17.35-2.66,8.66-1.77,19.18,2.45,28.86.03.08.05.16.06.25.03.68-.07,1.36-.31,2.02-.01.03-.02.07-.03.11-.94,3.51-2.92,4.32-4.42,4.38Z"/><g><path class="cls-9" d="m76.56,87.31c-13.88-5.66-33.99-15.75-45.95-2-1.87,2.03-4.98,2.94-7.46,2.45-2.48-.48-4.33-2.36-3.71-5.89,3.22-15.73-3.04-32.63-16.84-42.2-3.28-2.99-.38-8.56,3.54-8.73,13.38.23,27.97-7.39,32.16-20.8.93-2.36,1.81-4.78,2.75-7.16,2.14-4.77,9.35-1.95,10.34,2.69,3.02,14.69,16.75,22.71,31.31,23.15,2.75.43,5.55.94,8.34,1.74,1.57-.06,1.78,4.61.28,6.23-15.28,9.99-16.75,29.55-9.74,45.64.07,1.56-.65,3.15-2.1,4.04-.88.54-1.91.83-2.93.84Z"/><path class="cls-6" d="m13.13,45.21c-3.35-3.43-6.79-3.75-9.45-7.74,1.53,5.09,4.54,4.84,8.43,8.66,6.2,6.09,7.9,12.73,8.41,13.38,0,0-4.35-11.2-7.38-14.3Zm79.22-11.89c-5.52,8.34-14.7,14.18-16.56,25.17,4.36-7.98,9.57-14.43,15.21-20.75,1.16-1.2,1.65-2.86,1.35-4.43Zm-10.86,49.79c-.52,3.25-3.65,3.38-5.26,2.66-11.26-2.79-24.45-11.99-35.61-8.07-2.23.78-4.38,2.09-6.42,4.08-2.11,1.48-5.47,4.15-7.76,5.03-3.84,1.48-5.14.12-4.4.8-.82-.75,1.88,2.39,9.75-2.15,1.78-1.02,3.48-2.41,5.26-3.6,12.61-9.81,25.8,3.68,39.28,6.25,3.17.65,4.64-1.75,5.17-4.87l-.02-.13Z"/><path class="cls-10" d="m74.95,84.73c-7.03-3.84-15.33-7.32-23.37-8.22-2.68-.3-5.33-.31-7.9.05-5.54,1.43-10.14,3.96-13.93,7.23-1.89,1.64-4.43,1.94-6.33,1.24-1.9-.7-3.15-2.41-2.49-4.78,3.27-14.95-1.42-31.91-15.97-40.67-2.42-1.46-1.03-5.42.54-5.48,13.99-3.7,30.29-8.27,34.73-22.91,1.26-2.47,2.54-5.01,4-7.54,1.46-2.4,4.74.58,4.81,2.14,6.3,17.68,22.38,25.6,38.9,25.69.47-.02,2.71.68,3.06,1.73.24.71-1.33,1.79-1.32,2.1-14.46,10.74-19.15,28.87-9.78,44.86.07,1.56,1.32,4.04-1.66,4.78-.93.23-2.29.45-3.3-.21Z"/><path class="cls-2" d="m74.99,84.04c-6.24-3.14-13.38-6.5-20.58-8-2.4-.5-4.81-.8-7.19-.81-4.51-.56-9.12,1.97-13.79,3.93-2.27,1.52-4.53,3.36-6.79,5.53-.75.81-3.14.13-3.17-.65-1.55-17.1-3.56-32.72-19.07-45.34-1.61-.71,1.85-5.42,3.42-5.49,16.44-1.46,32.57-9.92,34.16-27.15.72-1.59,3.04-2.47,3.04-2.47.73-.31,2.91-.81,3.53.72,6.39,15.75,11.65,19.06,20.22,23.33,1.98.99,4.05,1.84,6.2,2.57,5.1.79,14.19-1.59,13.83,2.77-.19,2.32-9.13,7.47-12.99,17.37-3.37,8.65-2.18,21.68,3.32,29.82.04.78,1.46,1.48-.92,3.78-.65.41-2.18.97-3.22.07Z"/><path class="cls-3" d="m66.73,27.6l-6.67-3.95c-6.77-6.93-10.27-22.09-15.01-20.24-2.41.94-5.23,10.6-6.7,12.68-6.87,11.02-16.5,14.2-30.52,17.12-10.1,2.76,2.23,14.73,6.98,15.31,15.8,1.69,29.26-13.69,45.06-18.69,2.22-.86,4.51-1.61,6.87-2.24Z"/><path class="cls-3" d="m65.41,78.64c1.53.9,4.44,1.89,6.48,2.95,3.08,1.6,5.37,4.01,6.98,1.3,1.07-1.98-4.63-10.28-4.66-15.23-5.74,2.82-11.49,5.61-17.26,7.92,3.01.46,5.99,1.6,8.47,3.07Z"/><g class="cls-8"><path class="cls-4" d="m4.06,34.94c.22-.84-.36-.97,2.04-2.46,15.91-3,33.65-8.21,35.1-26.99.68-1.98,2.35-3.02,4.06-3.09s3.47.83,4.32,2.75c4.55,16.19,18.73,25.75,34.71,24.31,1.52-.06,6.63,2.03,4.45,4.46-1.56-.72-3.39-2.06-4.92-2-5.34.22-9.34.28-14.7-1.95-2.38-.91-4.64-2.16-6.75-3.7-6.32-4.61-11.23-11.82-13.52-20.31-.47-1.93-2.02-2.45-3.62-2-1.6.46-3.26,1.89-3.93,3.87-1.38,20.34-34.94,28.33-35.89,28.46-.95.13-1.36-1.35-1.36-1.35Z"/></g><path class="cls-1" d="m41.51,5.67c-.83,1.84-.58,2.24-1.31,4.12-1.59,6.45-5.91,10.87-9.46,14.8,5.38-2.68,9.44-8.41,10.62-15.38.63-2.75.15-3.55.15-3.55Z"/></g></g></g></g></g></svg>