<?xml version="1.0" encoding="UTF-8"?>
<svg xmlns="http://www.w3.org/2000/svg" viewBox="0 0 186.91 843.9">
  <defs>
    <style>
      .cls-1 {
        fill: #8ab9d3;
        opacity: .25;
      }

      .cls-2 {
        fill: #e6ae7a;
      }

      .cls-3 {
        fill: #fff;
      }

      .cls-4 {
        fill: #004991;
      }

      .cls-5 {
        fill: #001b2e;
      }

      .cls-6 {
        fill: #1d81ad;
      }

      .cls-7 {
        fill: #045aa0;
      }

      .cls-8 {
        fill: #b59a93;
      }

      .cls-8, .cls-9 {
        mix-blend-mode: multiply;
      }

      .cls-10 {
        fill: #001829;
      }

      .cls-11 {
        fill: #bd8353;
      }

      .cls-12 {
        opacity: .5;
      }

      .cls-13 {
        fill: #f09565;
      }

      .cls-14 {
        fill: #e8a271;
      }

      .cls-15 {
        opacity: .46;
      }

      .cls-15, .cls-16, .cls-17 {
        fill: #bee4eb;
      }

      .cls-18 {
        isolation: isolate;
      }

      .cls-19 {
        fill: #de8d62;
      }

      .cls-20 {
        fill: #f9ae7a;
      }

      .cls-21 {
        fill: #1c1004;
      }

      .cls-22 {
        fill: #f2996a;
      }

      .cls-23 {
        fill: #a8e3fd;
      }

      .cls-24 {
        fill: #90c3d9;
      }

      .cls-25 {
        fill: #170703;
      }

      .cls-26 {
        fill: #001626;
      }

      .cls-27 {
        fill: #000f1c;
      }

      .cls-28 {
        fill: #a3dcf5;
      }

      .cls-29 {
        fill: #290700;
      }

      .cls-30 {
        fill: #d9875b;
      }

      .cls-31 {
        fill: #1b70a1;
      }

      .cls-9 {
        fill: #3a7ec1;
        opacity: .2;
      }

      .cls-32 {
        fill: #752b1c;
      }

      .cls-33 {
        fill: #0a0601;
      }

      .cls-34 {
        fill: #001321;
      }

      .cls-35 {
        fill: #de8d37;
      }

      .cls-36 {
        fill: #eda26e;
      }

      .cls-37 {
        fill: #fabf41;
      }

      .cls-38 {
        fill: #470d00;
      }

      .cls-39 {
        fill: #f9a375;
      }

      .cls-40 {
        fill: #170803;
      }

      .cls-17 {
        opacity: .55;
      }

      .cls-41 {
        fill: #2b1706;
      }

      .cls-42 {
        fill: #45190a;
      }

      .cls-43 {
        fill: #421f15;
      }

      .cls-44 {
        fill: #c97c53;
      }

      .cls-45 {
        fill: #63340f;
      }

      .cls-46 {
        fill: #fff7d1;
      }

      .cls-47 {
        fill: #542819;
      }
    </style>
  </defs>
  <g class="cls-18">
    <g id="Layer_2" data-name="Layer 2">
      <g id="Camada_1" data-name="Camada 1">
        <g>
          <g>
            <path class="cls-24" d="m72.22,308.19l4.77-.54s-1.39,4.74-1.52,4.54c-.13-.2-3.25-4-3.25-4Z"/>
            <path class="cls-27" d="m164.32,406.17c0,.58,3.03,40.79,3.72,42.52.69,1.73,5.6,4.95,5.66,9.96.04,3.26-2.87,3.81-2.68,5.34.57,4.59-5.55,15.16-10.92,10.75l-6.13-3.45,9.88-64.16.46-.96Z"/>
            <path class="cls-36" d="m120.5,291.37c-.09.22.26,2.35,0,3.19-1.86,6.1-.36,23.68,1.52,28.71-.36.36,6.07,18.94,6.07,18.94,0,0-32.52,19.66-33.95,19.3-1.43-.36-22.87-39.31-22.87-39.31,0,0,7.51-22.16,4.65-31.81-.36.36,23.77,13.94,23.77,13.94l20.81-12.96Z"/>
            <g>
              <path class="cls-13" d="m76.52,295.09c.01.56-.03,1.16-.05,1.75-.03,1.25-.09,2.51-.24,3.85-.03.24-.01.45-.04.68,1.22,1.61,2.59,3.11,3.98,4.58,3.59,3.76,7.42,7.46,12.14,9.63,7.98,3.66,17.43,2.42,25.64-.7.78-.3,1.53-.69,2.29-1.04-.76-6.96-.93-15.41.25-19.27.24-.78-.01-2.54,0-2.99-.1-.02-.18-.03-.28-.04l-20.55,12.79s-24.13-13.58-23.77-13.94c.4,1.34.56,2.96.61,4.7Z"/>
              <polygon class="cls-13" points="120.92 316.82 111.5 326.77 74.61 311.11 110.83 336.67 120.92 316.82"/>
            </g>
            <g>
              <g>
                <path class="cls-21" d="m67.69,818.48c.58.58,13.3,15.49,21.19,16.22,7.89.73,17.25,2.34,17.83,3.65s.44,3.36,0,3.51c-.44.15-18.12,2.92-23.38,1.75-5.26-1.17-17.98-9.5-19.59-9.35v3.07l-9.79-.73s-1.46-8.62,1.32-13.15c2.78-4.53,12.42-4.97,12.42-4.97Z"/>
                <path class="cls-33" d="m62.78,831.19s17.71,9.84,21.01,10.53c2.66.55,17.45-.59,23.3-1.05-.03.63-.17,1.13-.37,1.2-.44.15-18.12,2.92-23.38,1.75-5.26-1.17-17.98-9.5-19.59-9.35v3.07l-9.79-.73s-.36-2.14-.38-4.85l9.21-.56Z"/>
                <path class="cls-33" d="m55.27,823.45c2.78-4.53,12.42-4.97,12.42-4.97.26.26,3.03,3.47,6.69,6.97-4.56-.37-12.44-.64-20.39,1.45.26-1.25.66-2.45,1.27-3.45Z"/>
              </g>
              <g>
                <path d="m80.01,834.14l-.62-.36c.55-.96,1.4-1.71,2.37-2.22.22.15.45.31.67.45-1,.43-1.89,1.18-2.43,2.13Z"/>
                <path d="m78.08,832.54l-.6-.39c.57-.89,1.45-1.56,2.44-1.93.23.18.47.36.7.53-1.03.26-1.97.89-2.54,1.79Z"/>
                <path d="m75.48,831.81l-.49-.52c.99-.92,2.08-1.72,3.23-2.41.19.16.39.32.58.48-1.2.69-2.31,1.51-3.33,2.45Z"/>
                <path d="m73.42,830.15l-.52-.49c.96-1.05,2.15-1.84,3.45-2.41.2.17.4.35.59.52-1.33.52-2.54,1.31-3.52,2.37Z"/>
                <path d="m75.49,826.48c-1.39.52-2.68,1.29-3.75,2.32l-.49-.51c1.05-1.02,2.31-1.79,3.66-2.35.19.18.39.36.58.54Z"/>
                <g>
                  <path d="m72.68,824.79c-.03-.31-.08-.61-.13-.91-.12-.78-.24-1.59-.18-2.41.08-1.08.58-2.44,1.75-3.02.72-.36,1.65-.29,2.19.19.44.39.58.94.63,1.33.13,1.04-.29,2.18-1.15,3.13-.74.82-1.67,1.4-2.57,1.95l-.48.29-.07-.56Zm1.76-5.7c-.9.45-1.29,1.55-1.35,2.43-.05.74.06,1.48.17,2.26.02.13.04.25.06.38.7-.44,1.39-.92,1.94-1.53.72-.79,1.07-1.73.97-2.57-.05-.38-.19-.69-.4-.88-.23-.2-.52-.25-.72-.25-.23,0-.47.06-.68.16Z"/>
                  <path d="m66.65,826.61c-.93-.39-1.56-1.24-1.56-2.12,0-.83.54-1.62,1.38-2.03.65-.32,1.51-.4,2.35-.28,1.73.23,3.37,1.13,4.5,2.47l.28.33-.37.21c-1.49.84-2.77,1.34-4.04,1.58-.41.07-.78.11-1.12.11-.52,0-1-.09-1.41-.26Zm2.08-3.73c-.7-.09-1.42-.04-1.94.22-.59.29-.98.85-.98,1.4,0,.59.46,1.19,1.12,1.46.56.23,1.24.27,2.13.1,1.08-.2,2.18-.61,3.43-1.28-.99-1.02-2.34-1.7-3.75-1.89Z"/>
                </g>
              </g>
            </g>
            <path class="cls-11" d="m101.34,837.71s-.28-.02-.76-.03c-.48,0-1.16-.02-1.98-.04-1.63-.01-3.8-.03-5.97-.05-2.17-.03-4.34-.06-5.97-.09-.82,0-1.5,0-1.98,0s-.76.01-.76.01c0,0,1.06.31,2.68.61,1.62.29,3.82.52,6.02.55,2.2.02,4.4-.15,6.03-.41,1.63-.26,2.7-.55,2.7-.55Z"/>
            <g>
              <g>
                <path class="cls-21" d="m96.19,811.02c0,.44-.44,10.67-.15,12.42.29-.15,11.06,2.19,11.06,2.19l1.22-3.36,20.46,8.04s26.68,0,26.6-3.95c-.02-1.03-6.11-4.78-14.3-3.76-2.63.44-9.92.02-9.92.02,0,0-17.43-9.27-17.43-12.92,0-.29-17.54,1.31-17.54,1.31Z"/>
                <path class="cls-33" d="m96.19,811.02s17.54-1.61,17.54-1.31c0,1.51,2.97,3.97,6.46,6.35-2.75.01-5.52.47-8.24.96-3.78.68-7.61,1.41-11.43,1.02-1.54-.16-3.08-.53-4.52-1.12.07-2.9.19-5.67.19-5.89Z"/>
                <path class="cls-33" d="m108.32,822.28l-1.22,3.36s-10.76-2.34-11.06-2.19c-.1-.61-.11-2.28-.09-4.19l11.83.74s18.02,7.44,21.72,8.4c3,.78,19.16-1.51,25.41-2.69.28.27.45.5.46.66.08,3.95-26.6,3.95-26.6,3.95l-20.46-8.04Z"/>
              </g>
              <path d="m128.45,824.46l-.55-.45c.59-.72,1.02-1.57,1.28-2.46.23.13.44.25.63.35-.29.93-.75,1.81-1.36,2.56Z"/>
              <path d="m125.81,823.44l-.6-.39c.6-.93,1.08-1.92,1.42-2.96.21.13.42.25.63.37-.36,1.05-.84,2.05-1.45,2.98Z"/>
              <path d="m123.22,822.01l-.49-.52c.79-.73,1.46-1.59,2.03-2.51.21.13.41.25.61.37-.6.98-1.32,1.89-2.15,2.67Z"/>
              <path d="m120.65,820.15l-.43-.57c.81-.6,1.55-1.29,2.26-2.01.21.13.41.26.62.39-.76.79-1.57,1.54-2.45,2.2Z"/>
              <path d="m118.38,819.04l-.46-.55,2.61-2.2c.2.14.41.28.62.41l-2.77,2.34Z"/>
              <path d="m118.79,815.84c-.04-.42-.1-.84-.17-1.26-.06-.35-.11-.69-.15-1.04-.11-1-.05-1.79.2-2.47.33-.91,1.02-1.59,1.83-1.81.94-.26,2.04.23,2.38,1.07.22.53.17,1.19-.13,1.81-.25.52-.63.93-1.01,1.35l-2.89,3.18-.07-.82Zm1.9-5.9c-.58.16-1.1.68-1.35,1.37-.21.58-.26,1.26-.16,2.14.04.34.09.67.15,1.01.03.17.06.35.08.52l1.83-2.01c.34-.38.67-.74.88-1.16.21-.43.25-.88.11-1.22-.17-.41-.66-.7-1.18-.7-.12,0-.24.02-.35.05Z"/>
              <path d="m110.82,816.93c-.28-.58-.32-1.24-.1-1.87.23-.67.71-1.21,1.35-1.51.96-.46,2.18-.44,3.77.08,1.08.35,2.12.81,3.09,1.35.15.09.44.25.55.54.18.48-.13.91-.92,1.28-.42.19-.84.44-1.24.67-.92.53-1.86,1.08-3,1.19-.12.01-.23.02-.35.02-1.36,0-2.63-.7-3.14-1.74Zm7.75-1.33c-.92-.53-1.92-.96-2.95-1.3-1.4-.46-2.46-.49-3.24-.11-.47.22-.81.61-.98,1.1-.16.45-.13.92.07,1.32.43.86,1.61,1.44,2.79,1.33.98-.09,1.82-.58,2.71-1.1.42-.24.85-.49,1.3-.7.5-.23.55-.37.55-.37,0-.02-.04-.07-.23-.17Z"/>
            </g>
            <path class="cls-11" d="m147.63,823.7s-.18,0-.48.02c-.3.02-.73.06-1.24.1-1.01.1-2.36.24-3.7.38-1.35.15-2.69.3-3.7.41-.51.07-.94.13-1.24.17-.3.04-.48.08-.48.08,0,0,.67.21,1.71.36,1.03.15,2.43.19,3.82.04,1.38-.15,2.74-.48,3.72-.84.98-.37,1.59-.71,1.59-.71Z"/>
            <path class="cls-23" d="m155.52,504.62s-66.96,7.41-72.29-.55c-5.33-7.96-1.67-65.26-10.73-73.08-9.06-7.82-18.67-93.45-17.42-93.87,1.25-.42,16.66-15.4,17.91-16.17s29.49,10.28,38.37,9.47c8.88-.81,14.04-.09,14.04-.09l.11,2.44,4.9,3.57,21.9,30.02,3.21,138.25Z"/>
            <g>
              <g>
                <path class="cls-24" d="m85.6,484.05c4.38-18.33,8.77-36.67,13.15-55,1-4.19,2.03-8.44,4.15-12.19,2.12-3.75,5.52-6.99,9.73-7.91,4.68,15.11,7.3,31.02,6.02,46.79-1.28,15.77-6.03,30.66-15.98,42.95,3.64.41,6.57,2.38,9.7,4.27-4.77,1.41-9.66,2.83-14.63,2.51-4.96-.32-10.1-2.76-12.25-7.24-2.1-4.35-1.02-9.49.11-14.19Z"/>
                <path class="cls-24" d="m155.06,501.62c.01-13.21.03-26.43.04-39.65.01-13.46-.3-27.97-8.34-38.77-.54,25.08-1.07,50.17-1.61,75.26-.05,2.53-.07,5.21,1.16,7.41,1.24,2.21,4.22,3.66,6.39,2.36,2.11-1.26,2.35-4.16,2.35-6.61Z"/>
              </g>
              <path class="cls-24" d="m128.73,335.12c.19.14-4.93,10.02-4.93,10.02l-3.65-1.96-1.53,4.71,12.04,153.16s-8.62.76-8.78.81c-.17.04,3.28-69.01-.25-94.68-3.52-25.67-12.06-57.33-12.06-57.33l-3.63-4-3.93,6.58-29.38-26.65,28.74,20.55,4.74-9.85s17.7-1.37,18.15-1.37,3.19-.91,3.19-.91l1.27.92Z"/>
            </g>
            <g>
              <path class="cls-5" d="m154.44,507.62c.85.25,5.67,31.28,5.67,31.28,0,0,.92-.09-8.21,13.09-9.13,13.18-25.53,19.27-25.53,19.27l-57.48-15.72,6.06-60.88s14.22,8.2,39.36,9.33c25.14,1.13,39.42-3.27,39.42-3.27l.7,6.89Z"/>
              <path class="cls-5" d="m160.11,538.9s-.26,5.21-.44,8.45c-1.49,26.99-6.65,110.49-14.58,129.34-.49.62-1.48,11.59-1.11,15.04.37,3.45-1.48,11.35-9.49,14.68-1.6.37-3.7,3.21-2.59,7.77,0,0,3.13,9.41,2.18,15.69-.94,6.29-16.66,66.33-17.29,84.25,0-.31-17.92.31-21.38-.63,0-.63.63-72.94,5.97-92.74,5.35-19.81,12.26-39.61,12.26-39.61l-7.54-87.71s14.08-21.27,24.74-29.22c9.27-6.91,29.27-25.32,29.27-25.32Z"/>
              <path class="cls-34" d="m106.62,592.66c.14-.22.33-.48.53-.77.02-.03.05-.07.07-.1.23-.34.49-.72.79-1.14v-.02c3.65-5.22,11.86-16.52,19.37-23.47-3.15,43.54-3.38,65.07-8.78,93.66-1.14,6.05-3.3,10.54-5.51,13.82l-6.98-81.2s.15-.22.38-.57c.04-.07.08-.13.14-.2Z"/>
              <path class="cls-5" d="m132.96,555.02l-5.33,7.31s-19.93,72.51-44.84,112.11c-1.25,1.54-4.85,18.51-5.37,20.57-.51,2.06-5.6,15.43-5.6,15.43,0,0-8.17,73.71,1.54,101.91,0,0-.03,3.53-3.14,8.66-.25.42-1.61-.74-1.61-.74l-14.28,4.85s-19.83-45.33-15.19-91.77c2.32-28.25-1.16-22.06,6.97-59.99,8.13-37.93,14.35-110.05,21.3-114.95,6.95-4.9,45.59-26.5,65.56-3.38Z"/>
            </g>
            <path class="cls-34" d="m97.87,506.74c-.19.52,1.58,8.79,1.58,8.79,0,0,1.2,5.12-1.58,10.34-2.93,2.17-16.61-8.78-16.61-8.78l4.44-15.24,12.17,4.89Z"/>
            <g>
              <rect class="cls-40" x="134.32" y="505.33" width=".72" height="39.07" transform="translate(-2.75 .71) rotate(-.3)"/>
              <path class="cls-25" d="m133.8,544.67l.1-.71c.22.03.44.06.66.09l-.09.71c-.22-.03-.45-.05-.68-.09Zm-2.86-.66l.25-.67c.4.15.84.28,1.32.38l-.15.7c-.52-.11-.99-.25-1.42-.41Zm-2.52-1.62l.52-.49c.3.32.65.61,1.03.85l-.38.6c-.43-.27-.83-.6-1.17-.96Zm-1.47-2.6l.68-.22c.15.46.33.88.53,1.25l-.63.35c-.22-.41-.42-.87-.59-1.37Zm-.58-2.87l.71-.08c.05.47.12.93.21,1.39l-.7.13c-.09-.47-.16-.96-.22-1.44Zm-.23-2.87l.71-.05.1,1.42-.71.05-.1-1.43Zm-.17-2.86l.71-.04.08,1.43-.71.04-.08-1.43Zm-.14-2.86l.71-.03c.02.48.04.95.07,1.43l-.71.04c-.02-.47-.04-.95-.07-1.43Zm-.11-2.86l.72-.02.05,1.43-.72.03-.05-1.43Zm-.08-2.86h.72s.04,1.41.04,1.41l-.72.02-.04-1.43Zm-.04-2.86h.71c0,.47.01.94.02,1.42h-.72c0-.46-.01-.94-.02-1.42Zm-.01-2.53v-.34h.72v1.43s-.71,0-.71,0v-1.1Zm0-1.77c0-.48.01-.96.02-1.43h.71c0,.48-.01.96-.02,1.44h-.72Zm.05-2.87c.01-.48.02-.96.04-1.43l.71.02c-.01.47-.03.94-.04,1.43l-.72-.02Z"/>
            </g>
            <g>
              <path class="cls-25" d="m75.53,551.7c.46-.1.91-.22,1.36-.36l.2.69c-.46.14-.93.26-1.4.37l-.16-.7Zm2.7-.8c.44-.16.88-.34,1.31-.52l.28.65c-.44.19-.89.37-1.34.54l-.25-.67Zm2.58-1.12c.42-.21.83-.44,1.24-.67l.36.62c-.42.24-.84.47-1.27.69l-.32-.64Zm2.44-1.41c.39-.26.78-.52,1.16-.8l.42.58c-.39.29-.78.56-1.19.83l-.39-.6Zm2.28-1.67c.37-.3.72-.6,1.07-.92l.48.53c-.36.32-.73.63-1.1.94l-.45-.55Zm2.11-1.88c.34-.33.66-.67.99-1.01l.52.49c-.33.35-.67.69-1.01,1.03l-.5-.51Zm1.94-2.06c.31-.36.61-.72.91-1.08l.56.45c-.3.37-.61.74-.92,1.11l-.54-.47Zm1.78-2.2c.28-.38.56-.76.83-1.15l.59.41c-.28.39-.56.78-.84,1.17l-.57-.43Zm1.63-2.32c.26-.4.52-.79.76-1.2l.61.38c-.25.41-.51.81-.77,1.21l-.6-.39Zm1.49-2.41c.16-.27.31-.54.46-.81l.24-.43.63.35-.24.43c-.16.27-.31.55-.47.81l-.62-.36Zm1.38-2.49c.22-.42.43-.84.64-1.27l.64.32c-.21.43-.43.86-.65,1.28l-.63-.33Zm1.26-2.55c.2-.43.4-.86.59-1.29l.65.29c-.19.44-.39.87-.59,1.31l-.65-.3Zm1.15-2.6c.18-.44.36-.88.53-1.32l.67.26c-.17.45-.35.89-.54,1.33l-.66-.27Zm1.03-2.65c.16-.45.32-.89.47-1.34l.68.23c-.15.46-.31.91-.48,1.36l-.67-.25Zm.91-2.69c.14-.45.28-.9.41-1.36l.69.2c-.13.46-.27.92-.42,1.38l-.68-.22Zm.79-2.73c.12-.46.24-.92.35-1.38l.69.17c-.11.46-.23.93-.35,1.39l-.69-.18Zm.67-2.76c.1-.46.2-.93.29-1.39l.7.14c-.09.47-.19.94-.29,1.41l-.7-.15Zm.55-2.79c.08-.47.16-.94.23-1.4l.71.11c-.07.47-.15.95-.23,1.42l-.7-.12Z"/>
              <path class="cls-25" d="m156.94,538.57l.54-.47c.31.35.63.7.96,1.05l-.52.49c-.33-.35-.65-.7-.97-1.06Zm-1.84-2.22l.56-.44c.29.37.59.74.89,1.11l-.55.46c-.31-.37-.61-.74-.9-1.12Zm-1.7-2.33l.59-.4c.27.39.54.78.82,1.16l-.58.42c-.28-.39-.56-.78-.83-1.18Zm-1.55-2.43l.61-.37c.24.41.49.81.74,1.21l-.6.38c-.26-.41-.51-.82-.75-1.23Zm-1.39-2.52l.64-.33c.21.42.44.84.66,1.25l-.63.34c-.23-.42-.46-.84-.68-1.27Zm-1.23-2.6l.66-.28c.19.43.38.86.59,1.29l-.65.31c-.21-.43-.4-.87-.6-1.31Zm-1.07-2.67l.67-.25c.16.44.33.89.51,1.33l-.66.26c-.18-.45-.35-.89-.51-1.34Zm-.9-2.74l.69-.2c.13.45.27.91.42,1.35l-.68.22c-.15-.46-.29-.91-.43-1.37Zm-.72-2.79l.7-.16c.1.46.21.92.33,1.38l-.69.18c-.12-.46-.23-.93-.34-1.4Zm-.54-2.83l.71-.11c.07.47.15.93.24,1.4l-.7.13c-.09-.47-.17-.95-.25-1.42Zm-.35-2.86l.71-.06c.04.47.09.94.15,1.41l-.71.09c-.06-.48-.11-.96-.15-1.43Z"/>
            </g>
            <path class="cls-35" d="m140.27,499.06c-.04,1.36-.65,14.58-.65,14.58l-18.94.38v-.93s-.03-11.23-.03-11.23v-.87s19.62-1.92,19.62-1.92Z"/>
            <path class="cls-38" d="m150.83,499.44c-.67.45-33.43,7.85-62.73-1.15.38-.38-10.34,5.55-10.34,5.55,0,0,24.32,10.92,55.35,8.05l22.79-2.87-5.07-9.58Z"/>
            <path class="cls-5" d="m109.56,511.66c-1.27-.14-2.51-.29-3.73-.46v-9.29c1.25.14,2.49.27,3.73.37v9.38Z"/>
            <path class="cls-5" d="m146.62,510.19c-1.1.14-2.34.3-3.72.47l-.18-9.6c1.4-.21,2.65-.43,3.72-.62l.18,9.75Z"/>
            <g>
              <path class="cls-35" d="m123.08,501.95v11.18l-2.39-.05-.03-11.23,2.42.09Z"/>
              <path class="cls-35" d="m136.96,501.05c-.04.14,1.28,11.33,1.28,11.33l1.38.38.57-11.7h-3.23Z"/>
              <path class="cls-35" d="m123.08,506.02h6.66v.9l-7,1.17.34-2.06Z"/>
            </g>
            <polygon class="cls-8" points="124.23 500.63 127.32 513.88 131.61 513.71 129.74 500.09 124.23 500.63"/>
            <g>
              <path class="cls-29" d="m147.37,500.44c.19.35.97,9.53,1.24,9.5s4.44-.56,4.44-.56l-.95-7.52-1.28-2.41-3.46.99Z"/>
              <polygon class="cls-29" points="98.26 500.78 94.63 509.14 87.6 507.38 92.93 499.63 98.26 500.78"/>
            </g>
            <g>
              <path class="cls-6" d="m121.33,334.9c-.35.53-3.51,11.41-3.51,11.41l-6.32,2.46-9.31-9.13,5.8-9.31h8.08l5.27,4.57Z"/>
              <path class="cls-6" d="m116.1,342.28s27.87,94.46,26.62,112.81c-1.24,18.36-1.64,45.64-10.97,64.61-.31-.62-8.49-21.78-8.8-32.98-.31-11.2-1.45-73.74-2.75-90.54-1.3-16.8-10.63-52.58-10.63-52.58l6.53-1.33Z"/>
              <path class="cls-31" d="m118.04,339.55c.16.51-1.27,4.95-1.27,4.95l-5.89,1.8-3.33-5.35,3.95-10.62-7.78,11.05,6.95,6.57.83.82,6.32-2.46,2.09-8.11s-6.65-7.38-6.57-7.16,4.7,8.51,4.7,8.51Z"/>
            </g>
            <g>
              <polygon class="cls-37" points="122.69 475.79 136.3 476.3 137.86 473.65 121.28 473.65 121.38 474.4 121.56 475.71 122.71 476.99 122.69 475.79"/>
              <path class="cls-46" d="m137.42,474.4c-2.95.06-13.1-.01-16.04-.03l-.1-.71h16.58l-.44.75Z"/>
            </g>
            <polygon class="cls-28" points="120.5 313.52 111.5 330.33 121.86 342.28 128.33 334.99 120.5 313.52"/>
            <path class="cls-14" d="m163.85,523.19c-.29.77-3.73,15.71-3.73,15.71,0,0-10.34-15.51-9.19-22.79,1.15-7.28,4.6-11.49,4.6-11.49l8.33,18.58Z"/>
            <g>
              <g>
                <path class="cls-10" d="m128.15,334.36c10.29,6.66,36.17,25.43,36.17,25.43,0,0,4.98,34.23,3.42,45.11-1.55,10.89-14.62,83.7-14,95.83.62,12.13-1.24,5.6-1.24,5.6,0,0-1.55-1.87-2.8-8.71-1.24-6.85-6.53-83.07-8.25-91.16-1.25-5.93-13.3-72.1-13.3-72.1Z"/>
                <path class="cls-27" d="m148.5,379.6l-12.98-15.25,14.54-1.34c-3.29-6.34-8.74-16.86-10.87-21.14,1.63,1.14,3.3,2.31,4.98,3.5,2.67,5.21,6.49,12.6,9.41,18.22l.98,1.89-13.29,1.23,10.17,11.95-.04.59c-.05.6-4.61,59.68-4.12,79.04l-1.06.03c-.49-6.01-.98-12.17-1.47-18.05.94-23.37,3.39-55.88,3.75-60.65Z"/>
              </g>
              <g>
                <path class="cls-10" d="m24.31,421.39c24.58,5.29,39.2,28.94,42.62,37.33,3.42,8.4,12.24,47.33-4.86,72.8-7.22,10.75-7.57,21.07-7.8,41.89,12.8-.89,23.67-3.08,25-14.78,2.91-25.59,4.73-40.7,4.57-41.02,17.42-15.25,33.81-52.98,34.75-86.63.84-30.46-38.62-94.93-46.1-106.87-.78-1.25-1.21-1.92-1.21-1.92l-4.86,3.5-27.48,19.77S-.27,416.1,24.31,421.39Z"/>
                <path class="cls-27" d="m73.25,382.59l11.09-14.21-12.47,1.24-9.48-41.04,2.52-1.81,9.18,39.75,16.61-1.65-13.07,16.75c5.55,3.15,24.27,15.42,33.28,41.8,3.49,10.23,5.05,18.48,5.64,24.82-.76,3.78-1.7,7.53-2.82,11.24.57-5.46.59-17.21-5.53-35.13-10.02-29.35-33.14-40.87-33.37-40.98l-1.59-.77Z"/>
              </g>
              <g>
                <path class="cls-27" d="m111.95,429.19s-.25,1.5-.68,4.12c-.18,1.32-.5,2.9-.91,4.7-.19.9-.4,1.86-.62,2.87-.26,1-.53,2.05-.82,3.15-.53,2.21-1.27,4.55-2.05,7.02-.37,1.25-.83,2.5-1.3,3.78-.49,1.27-.9,2.6-1.42,3.92-1.05,2.63-2.11,5.36-3.35,8.07-1.17,2.74-2.54,5.43-3.85,8.16-1.37,2.7-2.71,5.41-4.15,8.02-1.39,2.64-2.87,5.17-4.27,7.64-1.44,2.45-2.83,4.82-4.15,7.06-1.33,2.24-2.6,4.35-3.8,6.28-4.74,7.77-7.91,12.95-7.91,12.95,0,0,.87-1.24,2.4-3.41,1.5-2.19,3.7-5.29,6.19-9.1,1.26-1.9,2.6-3.97,4-6.17,1.43-2.19,2.86-4.54,4.33-6.98,1.42-2.47,2.94-4.99,4.37-7.63,1.48-2.61,2.86-5.32,4.26-8.02,1.29-2.76,2.65-5.48,3.79-8.26,1.23-2.74,2.26-5.5,3.29-8.16.51-1.34.93-2.67,1.37-3.98.43-1.31.86-2.58,1.19-3.85.72-2.52,1.38-4.9,1.84-7.14.25-1.11.51-2.18.71-3.2.17-1.03.32-2,.47-2.92.31-1.83.55-3.42.66-4.75.26-2.64.4-4.15.4-4.15Z"/>
                <path class="cls-27" d="m73.22,471.18c.2,1.14.38,2.21.47,3.22.14.99.17,1.92.18,2.73.03.81.04,1.52,0,2.11-.06,1.17-.1,1.83-.1,1.83,0,0-.07-.66-.18-1.82-.03-.58-.13-1.28-.25-2.07-.11-.8-.25-1.69-.44-2.66-.16-.97-.41-2.01-.69-3.11-.25-1.1-.66-2.22-1-3.4-.41-1.16-.82-2.36-1.33-3.54-.46-1.21-1.06-2.37-1.61-3.55-.58-1.07-1.13-2.16-1.76-3.18-.9-2.01-2.3-4.65-4.19-7.6.22.23.43.44.65.68.81.82,1.57,1.78,2.36,2.76.73,1.03,1.54,2.05,2.21,3.2.73,1.11,1.34,2.31,2,3.49.56,1.23,1.16,2.44,1.61,3.68.52,1.22.86,2.49,1.25,3.68.32,1.22.63,2.4.81,3.54Z"/>
              </g>
              <g>
                <path class="cls-26" d="m61.65,388.87l-12.45,58.96s5.29,4.98,3.73,8.4c-1.56,3.42-5.6,1.55-5.91,4.35-.31,2.8,47.6,56.32,47.6,56.32l-32.36,33.91S7.2,469.3,6.58,465.57l-.62-3.73s3.11-87.74,14.62-104.85c0,.31,20.59-13.12,20.59-13.12l20.48,45.01Z"/>
                <path class="cls-27" d="m71.82,524.53s-6.69,5.29-7.97,11.5c-1.28,6.2-1.58,14.79-1.58,14.79l28.59-30.3-4.21-3.91-14.83,7.92Z"/>
              </g>
            </g>
            <path class="cls-26" d="m170.26,461.33s6.7,19.15,5.17,32.75c-1.53,13.6-9.38,36.96-9.77,36.39-.38-.58-14.94-20.3-14.94-20.3,0,0,4.15-39.75,8.68-53.2,0,0,2.81-3.49,10.85,4.36Z"/>
            <g>
              <path class="cls-27" d="m166.65,467.67c-2.33-.52-4.19,1.85-5.4,3.9-2.4,4.08-4.8,8.16-7.19,12.23,1.51-10.3,3.4-21.02,5.36-26.83,0,0,2.81-3.49,10.85,4.36,0,0,6.7,19.15,5.17,32.75-1.44,12.81-8.49,34.26-9.63,36.25.4-9.46,2.46-18.78,3.97-28.13,1.6-9.93,2.55-20.2.17-29.97-.47-1.93-1.37-4.13-3.31-4.56Z"/>
              <g>
                <path class="cls-27" d="m40.2,459.44c-1-1.03-9.02-5.7-8.74-7.11.89-4.46,10.39-1.42,11.1-5.92.51-3.24-4.66-4.23-6.08-7.19-.84-1.75-.15-3.9,1.05-5.44,1.19-1.54,2.82-2.67,4.19-4.05,3.48-3.52,5.09-8.44,6.41-13.21,2.52-9.13,7.48-21.9,9.12-29.23.49-2.19-4.2-13.28-5.53-20.25l9.93,21.82-12.45,58.96s5.29,4.98,3.73,8.4c-1.56,3.42-5.6,1.55-5.91,4.35-.1.91,4.92,7.21,11.71,15.27-3.92-2.81-10.19-7.87-18.54-16.42Z"/>
                <path class="cls-27" d="m42.11,364.76s.28.69.78,1.89c.51,1.19,1.24,2.88,2.12,4.91.88,2.02,1.91,4.37,3.01,6.89.54,1.26,1.1,2.56,1.67,3.88.58,1.32,1.14,2.67,1.7,4.02.58,1.34,1.14,2.69,1.68,4.02.51,1.33,1.06,2.61,1.48,3.88.87,2.52,1.39,4.95,1.52,7.06.13,2.12-.12,3.91-.43,5.14-.31,1.24-.61,1.93-.61,1.93,0,0,.11-.15.32-.43.2-.29.51-.71.81-1.3.63-1.16,1.33-2.99,1.54-5.3.26-2.31-.01-5.05-.74-7.81-.37-1.38-.79-2.79-1.31-4.16-.52-1.37-1.06-2.76-1.62-4.13-.59-1.36-1.2-2.72-1.81-4.04-.6-1.33-1.29-2.6-1.92-3.84-1.3-2.46-2.62-4.71-3.83-6.57-2.4-3.76-4.34-6.03-4.34-6.03Z"/>
                <g>
                  <path class="cls-27" d="m41.33,452.59s-.4-.26-1.12-.66c-.35-.21-.8-.43-1.35-.64-.54-.24-1.17-.49-1.86-.66-.69-.22-1.45-.4-2.27-.52-.82-.16-1.69-.22-2.6-.27-.91,0-1.85-.04-2.8.08-.96.05-1.91.27-2.87.43-.94.26-1.89.47-2.78.84-.91.29-1.75.75-2.57,1.13-.8.43-1.57.87-2.23,1.36-.69.47-1.31.95-1.83,1.45-.55.46-1.01.94-1.39,1.39-.4.42-.72.82-.95,1.17-.48.68-.73,1.08-.73,1.08,0,0,.43-.24,1.12-.66.69-.43,1.69-1.01,2.89-1.62.59-.32,1.26-.61,1.95-.94.68-.34,1.46-.58,2.21-.92,1.56-.57,3.24-1.06,4.94-1.47.86-.16,1.71-.37,2.57-.47.85-.15,1.7-.23,2.52-.32.82-.01,1.63-.13,2.39-.12.76,0,1.49-.02,2.17.02,1.36.04,2.47.13,3.3.23.82.1,1.3.13,1.3.13Z"/>
                  <path class="cls-27" d="m38.51,453.93s-.38-.15-1.07-.33c-.69-.17-1.7-.4-2.94-.44-1.24-.04-2.7.07-4.22.47-.75.2-1.53.45-2.29.79-.76.35-1.48.73-2.22,1.2-.64.44-1.35,1-1.95,1.55-.61.56-1.14,1.18-1.62,1.79-.96,1.24-1.64,2.54-2.08,3.7-.45,1.16-.63,2.18-.75,2.88-.1.71-.11,1.11-.11,1.11,0,0,.14-.38.38-1.04.23-.66.65-1.57,1.22-2.6.58-1.02,1.35-2.16,2.31-3.25.48-.55,1.02-1.06,1.58-1.57.58-.51,1.14-.94,1.84-1.4.61-.4,1.3-.8,1.97-1.12.69-.31,1.37-.61,2.06-.84,1.38-.46,2.72-.72,3.89-.86,1.17-.12,2.17-.16,2.87-.11.71.04,1.11.06,1.11.06Z"/>
                </g>
              </g>
            </g>
            <path class="cls-20" d="m88.67,515.53l9.19,10.34s-5.75,13.02-17.05,22.02c-.77-.57-9-23.37-9-23.37l16.85-9Z"/>
            <path class="cls-13" d="m88.67,515.53l-16.85,9,9,23.37,3.48-3.05s-8.13-18.08-6.54-19.75c1.58-1.67,10.92-9.57,10.92-9.57Z"/>
            <path class="cls-23" d="m111.5,330.33l-9.83,18.44-30.95-24.51,1.51-16.08c.7.18,39.28,22.14,39.28,22.14Z"/>
            <g>
              <g>
                <path class="cls-45" d="m62.19,259.54c-.19-.07-4.99-21.67-4.99-21.67l7.56,1.17s.24,19.64,0,19.9c-.24.26-2.57.6-2.57.6Z"/>
                <g>
                  <g>
                    <path class="cls-22" d="m126.32,263.25c-.13-1.28-.26-2.58-.01-3.84.24-1.26.92-2.5,2.05-3.12,1.12-.62,2.72-.43,3.46.63.53.75.53,1.74.49,2.66-.24,6.28-1.43,12.66-4.53,18.13-.49-4.82-.97-9.64-1.46-14.46Z"/>
                    <path class="cls-44" d="m131.28,261.93c-.02-.71-.14-1.41-.39-2.05-.12-.31-.3-.62-.54-.8-.24-.19-.53-.19-.78-.03-.5.35-.91.99-1.23,1.56-.34.59-.59,1.23-.74,1.89l-.51-.27c.37-.43.81-.86,1.38-1.12.31-.13.64-.19.98-.14.34.03.7.23.91.51.43.62.35,1.27.34,1.81-.03.56-.1,1.14-.22,1.69-.47,2.22-1.65,4.28-3.32,5.74l-.03.02-.02-.02c-.19-.13-.27-.37-.21-.57-.03.2.08.41.25.49h-.05c.74-.81,1.34-1.74,1.83-2.71.48-.98.8-2.02,1-3.08.1-.53.15-1.06.17-1.6.02-.54,0-1.09-.23-1.39-.23-.31-.73-.36-1.14-.19-.44.18-.83.54-1.19.93l-.8.88.29-1.14c.18-.72.46-1.4.84-2.03.2-.31.41-.61.66-.89.24-.26.49-.56.85-.75.35-.22.9-.18,1.2.12.31.27.45.64.55.99.18.7.24,1.43.15,2.13Z"/>
                  </g>
                  <g>
                    <path class="cls-20" d="m63.25,229.78c-.5,1.23,4.67,40.45,4.7,41.04.03.59,1.58,21.52,4.46,24.68,2.88,3.16,20.92,21.26,33.41,18.72,12.5-2.54,24.01-23.46,24.27-27.6.26-4.14-3.58-31.19-3.58-31.19,0,0,.93-30.78-2.25-33.94-3.18-3.16-19.94-8.88-32.98-7.3-13.03,1.58-25.46,9.28-28.03,15.59Z"/>
                    <path class="cls-2" d="m128.69,271.75c-.23.27-.41.67-.54,1.23-1.78,8.1-4.86,8.68-5.1,8.37-5.56-4.08-20.59-4.45-27.47-3.07-6.88,1.38-13.28,6.61-18.19,5.96-4.91-.65-8.64-18.44-8.64-18.44,0,0-.35,1.31-1,3.41.12.96.19,1.55.19,1.62.03.59,1.58,21.52,4.46,24.68,2.88,3.16,20.92,21.26,33.41,18.72,12.5-2.54,24.01-23.46,24.27-27.6.12-1.86-.59-8.31-1.4-14.88Z"/>
                    <g>
                      <g>
                        <ellipse class="cls-39" cx="74.39" cy="278" rx="4.82" ry="8.8"/>
                        <path class="cls-39" d="m128.32,268.8c-1.21-1.98-2.81-3.14-4.37-2.89-2.63.42-4.13,4.66-3.35,9.46.77,4.8,3.53,8.35,6.15,7.93,1.3-.21,2.32-1.35,2.93-3.02-.34-3.36-.85-7.52-1.36-11.47Z"/>
                      </g>
                      <g>
                        <path class="cls-47" d="m83.89,285.08c-.37-.04,3.61,3.73,6.66,7.99,1.67,2.33,10.53,4.6,14.19,4.6,3.03,0,8.34-3.97,9.38-5.65,1.51-2.42,5.89-8.65,5.89-8.65,0,0-19.1,3.6-36.11,1.7Z"/>
                        <path class="cls-3" d="m115.22,284.05c-6.25.81-16.24,1.78-25.85,1.4.64,1.85.84,3.54.84,3.54,5.37.8,17.58.89,23.63-.88.16-.05.85-2.27,1.38-4.06Z"/>
                        <path class="cls-32" d="m105.73,297.54c.06-.01.11-.02.17-.03.1-.02.21-.06.31-.09,3.03-.88,7.01-3.97,7.91-5.39-.32-.07-.64-.14-.96-.19-2.41-.39-7.78-.88-11.14-.88-2.32,0-7.58.9-11.47,2.12,1.67,2.33,10.53,4.6,14.18,4.6.18,0,.37-.02.56-.04.14-.02.29-.05.44-.09Z"/>
                      </g>
                    </g>
                  </g>
                  <g>
                    <path class="cls-45" d="m70.47,246.17c-.02.5-.38,6.04,0,5.66s14.35-7.55,19.37-5.79c0-.25,1.11-8.17,1.11-8.17h-4.76l-.38,4.28s-1.77-4.03-2.58-3.77c-.81.25-12.71,6.65-12.76,7.8Z"/>
                    <path class="cls-45" d="m107.57,234.47c-.13.5-1.64,6.92-1.64,6.92,0,0,13.21,4.78,15.09,8.55,0-.5,2.89-3.14,2.89-3.14,0,0-2.99-6.54-8.04-8.93-5.04-2.39-8.31-3.4-8.31-3.4Z"/>
                  </g>
                  <g>
                    <g>
                      <path class="cls-39" d="m102.86,257.65c.5,1.89,3.71,11.43,5.62,13.4.09.17,2.61,4.86,2.61,4.86,0,0-.1,1.29-.61,1.66-.51.37-3.12-.05-3.41.39-.24.36-3.19,1.33-3.19,1.33,0,0-3.58-.93-3.94-.63-.35.3-1.72,1.42-2.33.57-.62-.86-1.28-1.44.24-7.17.78-3.96-.01-7.78.58-12.93.66-5.67,3.9-3.43,4.42-1.47Z"/>
                      <path class="cls-44" d="m97.01,276.23c-.07.52-.08,1.03,0,1.52.05.24.13.47.24.68.06.1.12.2.19.28.05.08.17.18.2.22.1.07.23.17.28.17.06.03.16.04.24.05.17.01.36-.05.55-.13.37-.16,1.31-.84,1.69-.93,1.28-.31,3.91.78,4.86.63,1.46-.22,2.13-1.41,2.52-1.48.52-.1,1.14.28,1.36.34.21.05.43.07.61.02.19-.04.35-.14.5-.31.31-.31.49-.86.58-1.36l.03.14c-.34-.81-.72-1.61-1.05-2.45.53.72,1,1.46,1.49,2.17l.03.04v.1c0,.32-.05.61-.13.92-.08.3-.2.61-.41.89-.19.28-.5.52-.84.63-.34.13-.69.12-.99.09-.3-.03-.65-.15-.88-.25l-.37-.16c-.1-.04-.02,0-.05-.01-.03.01-.04,0-.07.01-.15.03-1.15,1.31-2.69,1.52-1.44.19-3.89-.53-4.83-.56l.3-.13c-.21.19-.41.34-.64.49-.22.14-.46.27-.73.36-.26.09-.56.15-.88.09-.16-.04-.31-.07-.47-.17-.18-.1-.24-.18-.34-.27-.14-.16-.21-.24-.29-.38-.08-.13-.13-.26-.19-.4-.09-.27-.13-.55-.14-.82-.01-.54.1-1.06.3-1.53Z"/>
                    </g>
                    <g>
                      <path class="cls-19" d="m76.47,260.38s.58.99,1.79,2.06c1.18,1.08,3.09,2.1,5.2,2.14,2.07.16,4.19-.44,5.63-1.13,1.47-.68,2.26-1.5,2.26-1.5,0,0-.52,1.04-1.94,2.05-1.4,1.02-3.66,1.81-6.04,1.71-2.37-.12-4.56-1.44-5.58-2.83-1.07-1.38-1.32-2.49-1.32-2.49Z"/>
                      <g>
                        <path class="cls-3" d="m77.28,258.48c-.07,2.51.66,5.25,7.76,5.22,3.17-.01,6.3-2.32,6.3-2.32,0,0-.91-5.44-2.17-5.89-1.26-.45-5.12-1.83-7.27-1.18-2.15.65-4.56,2.36-4.61,4.17Z"/>
                        <g>
                          <circle class="cls-41" cx="83.87" cy="259.54" r="4.33"/>
                          <path class="cls-30" d="m91.34,261.38c-.18.25-1.83-6.15-7.09-5.82-3.27.2-5.26,1.08-6.48,2.33-.22.22-.92,1.15-1.1,1.4-.06.09.24-1.64.24-1.64.62-2.16,2.4-4.65,7.52-4.65,7.66,0,7.09,8.13,6.91,8.38Z"/>
                        </g>
                      </g>
                      <g>
                        <path class="cls-3" d="m109.62,260.95s.44-6.52,3.99-7.1c2.84-.46,6-.56,7.7,3.35,0-.03,0,3.85-4.01,4.51-4.01.66-7.69-.76-7.69-.76Z"/>
                        <g>
                          <path class="cls-41" d="m119.72,257.84c0,2.39-1.94,4.33-4.33,4.33s-4.33-1.94-4.33-4.33,1.94-4.33,4.33-4.33,4.33,1.94,4.33,4.33Z"/>
                          <path class="cls-30" d="m109.62,260.95c.06.15,1.36-7.5,5.94-7.15,4.58.35,5.28,2.72,5.75,3.41.11.16,1.16-.34.12-2.31-1.22-2.31-4.02-3.22-6.66-3.18-2.64.04-7.29,3.78-5.15,9.24Z"/>
                        </g>
                      </g>
                    </g>
                    <path class="cls-19" d="m111.04,272.52s-1.27-1.59-2.99-4.11c-.86-1.26-1.82-2.76-2.77-4.42-.95-1.67-1.92-3.46-2.64-5.45-.09-.25-.17-.5-.24-.77-.04-.14-.07-.23-.11-.42l-.06-.37c-.09-.47-.13-1.07-.16-1.57-.07-1.02-.01-2.02.02-2.98.09-1.92.29-3.69.5-5.2.2-1.51.44-2.76.59-3.64.16-.87.25-1.38.25-1.38,0,0,.02.51,0,1.4s-.05,2.16-.09,3.68c-.04,1.52-.1,3.29-.1,5.17,0,.94.03,1.91.09,2.88.05.49.06.9.17,1.42l.07.37.09.31c.06.23.13.45.22.68.64,1.84,1.58,3.64,2.41,5.33.88,1.68,1.7,3.24,2.41,4.58.71,1.34,1.3,2.47,1.72,3.25.41.79.64,1.24.64,1.24Z"/>
                  </g>
                  <g>
                    <path class="cls-22" d="m65.91,257.95c-1.24-.7-2.96-.65-3.97.37-.85.85-1.04,2.15-1.12,3.35-.21,3.1.05,6.3,1.35,9.12,1.29,2.82,3.24,4.78,6.27,5.49-.05-3.71-1.28-17.62-2.52-18.32Z"/>
                    <path class="cls-44" d="m62.8,265c-.29-.69-.56-1.41-.61-2.19,0-.2,0-.39.03-.59.02-.18.09-.4.17-.58.16-.37.42-.71.76-.96.33-.25.8-.4,1.23-.33.46.07.82.3,1.14.56.61.52,1.09,1.16,1.44,1.87l-.58.22c-.04-.12-.09-.15-.25-.19-.16-.02-.36,0-.56.04-.2.04-.33.11-.48.23-.14.12-.27.28-.37.45-.38.7-.37,1.69-.48,2.59-.09.91-.13,1.82.05,2.71.15.89.51,1.75,1.14,2.44-.74-.58-1.21-1.46-1.47-2.37-.25-.92-.28-1.88-.25-2.82.02-.47.06-.93.1-1.4.05-.47.13-.98.38-1.45.13-.23.29-.45.5-.63.19-.18.49-.33.75-.39.25-.06.51-.1.81-.04.29.03.68.3.75.65l.49,2.55-1.07-2.33c-.29-.64-.72-1.23-1.25-1.7-.51-.47-1.17-.66-1.74-.28-.28.18-.51.44-.67.74-.08.16-.14.29-.18.49-.04.16-.07.35-.08.52-.05.72.15,1.46.32,2.19Z"/>
                  </g>
                  <g>
                    <path class="cls-45" d="m67.77,233.4s8.55-10.28,30.68-10.84c18.48,0,24.23,10.22,24.23,10.22l2.52,15.54,1.2,9.07.74,5.57.97,4.22s-.55-6.51-.13-10.64c.94-9.43,2.16-25.95.02-32.87-3.08-9.94-8.97-13.51-16.95-16.03-7.98-2.52-21-2.17-34.86,5.67-.14.14-6.44-2.33-12.46,3.7-6.02,6.02-4.49,11.85-4.63,14.23.28.14-3.58-.21-3.28,4.66.16,2.62,5.04,14.99,6.71,20.39.15.47,1.51,1.2,1.51,1.2l3.86,12.87,1.68-1.49-2.5-9.31.69-26.14Z"/>
                    <g>
                      <path class="cls-42" d="m79.88,223.18c-.99-1.63-2.12-3.47-3.81-4.73-1.97-1.47-4.41-1.78-6.21-.79-1.96,1.08-2.64,3.19-3.3,5.24-.24.75-.49,1.52-.79,2.2-1.19,2.66-3.82,4.57-6.68,5.13.01.38.02.72,0,1.01.13.06-.61.03-1.41.43,3.87-.14,7.7-2.5,9.28-6.05.33-.75.59-1.55.84-2.33.61-1.89,1.18-3.67,2.69-4.5,1.54-.84,3.52-.26,4.8.69,1.49,1.11,2.55,2.84,3.48,4.37l1.23,2c.41-.15.83-.3,1.25-.44l-1.37-2.24Z"/>
                      <path class="cls-42" d="m85.7,214.41c2.73,2.23,4.67,5.31,5.54,8.72.43-.06.86-.12,1.3-.17-.92-3.73-3.03-7.12-6.01-9.56-1.46-1.2-3.12-2.14-4.87-2.82-.57.25-1.14.52-1.71.79,2.09.62,4.05,1.65,5.75,3.04Z"/>
                      <path class="cls-42" d="m97.59,222.59c.29,0,.57-.03.86-.03.15,0,.29,0,.44,0,.16-5.47-.9-10.94-3.07-15.97-.44.06-.88.13-1.33.2,2.2,4.96,3.26,10.38,3.1,15.8Z"/>
                      <path class="cls-42" d="m109.46,207.2h0c2.01,5.3,1.43,11.53-1.43,16.42.45.11.89.22,1.31.34,2.73-4.9,3.36-11,1.63-16.33-.49-.15-1-.3-1.52-.43Z"/>
                      <path class="cls-42" d="m121.88,213.36c.83,2.49.8,5.3-.17,7.72-1,2.5-3,4.6-5.42,5.82.45.27.88.54,1.28.81,2.4-1.38,4.31-3.56,5.35-6.15.81-2.01,1.04-4.2.75-6.32-.56-.68-1.16-1.31-1.78-1.89Z"/>
                      <path class="cls-42" d="m129.02,230.42h0c-1.7,1.57-3.99,2.51-6.3,2.64l.21,1.28c2.23-.14,4.39-.93,6.18-2.29-.02-.55-.05-1.1-.08-1.63Z"/>
                      <path class="cls-42" d="m66.79,237.7l.83,1.13.06-2.18c-.66-.92-1.93-1.4-3.15-1.1-1.17.29-2.22,1.25-2.79,2.56-.49,1.13-.6,2.33-.67,3.47-.06,1.01-.1,2.03-.13,3.05-.08,2.31-.16,4.71-.6,6.99,0,.03-.02.07-.02.11.22.95.43,1.86.62,2.71.3-.9.53-1.78.68-2.58.46-2.38.54-4.83.62-7.19.04-1,.07-2.01.13-3.01.07-1.02.16-2.1.57-3.03.41-.94,1.12-1.62,1.91-1.82.81-.21,1.72.22,1.95.89Z"/>
                      <path class="cls-42" d="m123.59,238.44l.23,1.43c1.96.69,3.73,1.87,5.16,3.39.03-.58.06-1.17.08-1.76-1.57-1.41-3.44-2.46-5.47-3.06Z"/>
                    </g>
                  </g>
                </g>
                <path class="cls-19" d="m110.3,262.26s.83.37,2.16.45c1.3.14,3.1.24,4.78.07.8-.11,1.54-.37,2.17-.81.61-.44,1.13-.96,1.49-1.47.72-1.04.82-1.99.82-1.99-.06-.02.35.94-.21,2.32-.28.66-.75,1.42-1.49,1.97-.7.58-1.67,1.04-2.67,1.07-1.89.16-3.69-.18-5.02-.58-1.33-.42-2.04-1.03-2.04-1.03Z"/>
              </g>
              <g>
                <g class="cls-12">
                  <path class="cls-16" d="m113.06,250.43c-2.88-.1-5.71.12-8.05.95-.36.13-.41,9.04,2.7,12.02.33.31.78.58,1.33.81,1.07-3.78,2.88-10.1,4.02-13.78Z"/>
                  <g>
                    <path class="cls-16" d="m128.24,253.07c-.44-.11-1.01-.26-1.65-.43l-6.39,12.89c2.87-.04,5.09-.26,5.17-.4.21-.36,6.69-11.07,2.87-12.06Z"/>
                    <path class="cls-16" d="m122.89,251.78c-.81-.18-1.67-.35-2.57-.51l-5.51,14.1c1.15.1,2.34.14,3.47.16.96-2.88,3.26-9.82,4.61-13.75Z"/>
                  </g>
                </g>
                <g>
                  <path class="cls-15" d="m70.52,254.84c-.11.21,1.92,8.77,3.48,10.86.07-.2,8.8-13.45,8.8-13.45,0,0-11.67,1.43-12.29,2.59Z"/>
                  <g>
                    <polygon class="cls-17" points="87.64 252.04 80.7 266.85 85.06 266.85 93.04 252.11 87.64 252.04"/>
                    <path class="cls-17" d="m93.91,252.74c-.04.38-7.07,13.97-7.21,13.76-.13-.21,5.91-.08,7.23-3.28,1.32-3.2,1.56-10.03,1.56-10.03l-1.59-.44Z"/>
                  </g>
                </g>
                <path class="cls-43" d="m122.71,266.02h0c-3.09.04-13.62-.49-15.61-2.42-2.03-1.97-3.46-8.85-3.01-12.33.03-.27,10.51-4.38,25.24.84,2.3.81-1.7,12.08-3.82,13.46-.39.25-1.02.43-2.79.45Zm-16.79-13.49c-.86.35.58,8.93,1.79,10.11,1.03.88,9.05,3.12,17.16,2.04,1.33-.18,4.45-9.94,3.59-10.46-3.08-1.87-15.28-4.62-22.54-1.68Z"/>
                <path class="cls-43" d="m74.58,267.12c-2.17-1.37-6.25-12.57-3.92-13.46,14.69-5.56,25.76-1.81,25.8-1.54.46,3.48-.92,11.06-3,13.03-2.04,1.93-12.84,2.46-16.02,2.42h0c-1.82-.02-2.46-.2-2.86-.45Zm-3.04-11.36c-.88.52,2.32,10.29,3.68,10.46,8.32,1.08,16.55-1.16,17.6-2.04,1.24-1.17,2.72-9.76,1.84-10.11-7.45-2.94-19.96-.19-23.12,1.68Z"/>
                <path class="cls-43" d="m104.74,255.1c-2.85-.93-6.81-.32-8.93,1.76,0,0-.64-2.49-.11-2.84.7-.46,1.46-.83,2.25-1.11,2.4-.85,5.11-.86,7.46.09l-.68,2.1Z"/>
                <path class="cls-43" d="m61.9,257.91l.92-.84,7.85-3.4c.4.88.04,3.52.04,3.52l-6.74.73h-2.06Z"/>
              </g>
            </g>
          </g>
          <g>
            <g>
              <circle class="cls-9" cx="91.84" cy="105.32" r="58.35" transform="translate(-21.87 186.55) rotate(-84.45)"/>
              <circle class="cls-4" cx="89.09" cy="97.16" r="58.35"/>
              <g>
                <path class="cls-4" d="m26.14,120.95c1.71-.59,1.95-1.76,1.53-3-.29-.83-.71-1.44-1.43-1.95l1.41-.48c.56.51,1,1.2,1.3,2.07.83,2.43-.04,4.08-2.3,4.85l-.69.24c-2.25.77-3.96,0-4.79-2.42-.3-.88-.37-1.69-.24-2.44l1.41-.48c-.26.84-.21,1.58.07,2.42.42,1.22,1.32,2.02,3.04,1.43l.69-.24Z"/>
                <path class="cls-4" d="m16.52,115l9.11-2.24c.41-.1.52-.3.43-.67-.07-.28-.17-.58-.32-.86l1.27-.31c.14.32.29.76.4,1.18.28,1.14-.09,1.87-1.36,2.18l-9.16,2.25-.38-1.53Z"/>
                <path class="cls-4" d="m16.81,111.68l-.24.04c-.51.09-.79-.2-.89-.77-.1-.55.06-.94.57-1.03l.24-.04c.52-.09.79.21.89.77.1.57-.05.93-.57,1.03Zm2.18-.51l-.28-1.55,7.74-1.39.28,1.55-7.74,1.39Z"/>
                <path class="cls-4" d="m28.73,99.39l.13,1.57-3.6.31c.39.49.68,1.18.75,2,.2,2.32-1.04,3.41-3.46,3.62l-.74.06c-2.42.21-3.81-.7-4.03-3.33-.11-1.29.15-2.35.71-3.35l10.25-.87Zm-6.3,5.92c1.53-.13,2.35-.69,2.22-2.17-.06-.73-.34-1.33-.74-1.75l-4.54.38c-.23.52-.32,1.09-.27,1.68.14,1.62,1.04,2.05,2.57,1.92l.76-.06Z"/>
                <path class="cls-4" d="m17.87,92.92l.07-1.58,7.06.31c.55.97.89,2.24.84,3.47-.1,2.4-1.22,3.25-3.44,3.15l-4.75-.21.07-1.58,4.62.2c1.47.06,2.12-.44,2.18-1.82.03-.58-.07-1.13-.34-1.67l-6.3-.27Z"/>
                <path class="cls-4" d="m23.05,88.4c1.52.14,2.2-.72,2.43-2.07.13-.79.07-1.59-.3-2.5l1.44.24c.25.83.29,1.67.15,2.49-.45,2.66-2.02,3.72-4.35,3.33l-.75-.13c-2.34-.4-3.46-1.91-3.06-4.28.39-2.29,1.87-2.99,3.27-2.76,1.48.25,1.94,1.18,1.7,2.58l-.53,3.08Zm-1.24-.21l.46-2.72c.11-.66-.02-1.05-.67-1.16-.82-.14-1.53.31-1.72,1.42-.21,1.24.37,2.19,1.92,2.47Z"/>
                <path class="cls-4" d="m25.96,78.4c-1.55-.57-2.04-1.68-1.33-3.62.3-.81.77-1.54,1.25-2.02l-.41-.13c-1.24-.4-1.92-.13-2.45,1.31-.3.81-.35,1.75-.13,2.57l-1.38-.5c-.11-.81-.04-1.71.35-2.78.8-2.2,2.16-2.82,4.08-2.12l3.91,1.42c.26,1.16.13,2.44-.31,3.65-.86,2.35-2.02,2.79-3.59,2.22Zm2.64-4.64l-1.67-.61c-.45.43-.79,1.05-1.01,1.67-.46,1.27-.24,1.82.57,2.11.81.3,1.41-.02,1.85-1.23.24-.66.34-1.36.26-1.94Z"/>
                <path class="cls-4" d="m37.08,67.01l-.72,1.41-3.22-1.65c.07.62-.05,1.36-.42,2.09-1.06,2.07-2.69,2.34-4.85,1.23l-.66-.34c-2.16-1.11-2.86-2.61-1.65-4.96.59-1.15,1.37-1.91,2.38-2.47l9.15,4.7Zm-8.47,1.68c1.37.7,2.36.66,3.04-.66.33-.65.41-1.31.3-1.88l-4.05-2.08c-.47.32-.85.76-1.12,1.29-.74,1.45-.2,2.29,1.16,2.99l.68.35Z"/>
                <path class="cls-4" d="m31.3,55.77l.89-1.3,5.82,4c-.04,1.11-.43,2.37-1.13,3.39-1.36,1.98-2.76,2.1-4.58.85l-3.92-2.69.89-1.3,3.8,2.62c1.21.83,2.03.75,2.81-.39.33-.48.54-.99.6-1.6l-5.19-3.57Z"/>
                <path class="cls-4" d="m32.07,51.12l-.19-.16c-.4-.33-.36-.73.01-1.18.36-.43.76-.55,1.16-.22l.19.16c.41.34.35.75-.01,1.18-.37.44-.75.56-1.15.22Zm1.79,1.34l1.01-1.21,6.04,5.05-1.02,1.21-6.03-5.05Z"/>
                <path class="cls-4" d="m39.94,46.93c.29-1.11.84-2.06,1.81-2.91,1.99-1.76,3.61-1.44,5.22.38l.49.56c1.61,1.82,1.74,3.47,0,5-.62.54-1.3.84-1.92.92l2.39,2.71-1.19,1.04-6.8-7.72Zm5.84-1.48c-1.01-1.15-1.95-1.48-3.18-.4-.45.39-.78.87-.97,1.4l3.01,3.42c.58-.03,1.21-.28,1.75-.75,1.12-.98.91-1.96-.1-3.11l-.5-.57Z"/>
                <path class="cls-4" d="m49.18,45.13c-.94-1.36-.7-2.55,1-3.72.71-.49,1.52-.82,2.19-.92l-.25-.34c-.78-1.05-1.49-1.22-2.75-.35-.71.49-1.29,1.23-1.59,2.02l-.84-1.21c.38-.73.96-1.42,1.89-2.07,1.92-1.33,3.39-1.06,4.55.63l2.37,3.42c-.46,1.09-1.3,2.07-2.36,2.8-2.06,1.43-3.26,1.11-4.21-.26Zm4.84-2.27l-1.01-1.46c-.62.1-1.25.41-1.79.78-1.11.77-1.25,1.35-.75,2.06.49.71,1.16.8,2.22.06.57-.4,1.06-.92,1.33-1.44Z"/>
                <path class="cls-4" d="m59.74,34.63c-.96-.06-1.79.09-2.61.52-.5.26-.96.66-1.27,1.13l2.94,5.58-1.4.74-3.29-6.25c.58-.96,1.47-1.89,2.56-2.47.82-.43,1.58-.61,2.37-.58l.7,1.33Z"/>
                <path class="cls-4" d="m61.78,37.55c-.61-1.54-.09-2.64,1.83-3.4.8-.32,1.67-.45,2.34-.4l-.17-.39c-.52-1.2-1.18-1.53-2.6-.97-.8.32-1.54.9-2.01,1.61l-.54-1.37c.54-.62,1.26-1.16,2.31-1.58,2.17-.86,3.54-.25,4.29,1.65l1.52,3.87c-.7.96-1.74,1.71-2.94,2.19-2.33.92-3.42.34-4.04-1.22Zm5.23-1.1l-.65-1.65c-.62-.05-1.31.11-1.92.35-1.26.5-1.52,1.02-1.21,1.83.32.81.95,1.05,2.15.57.65-.26,1.24-.65,1.62-1.1Z"/>
                <path class="cls-4" d="m74.4,32.18c.36,1.77,1.49,2.16,2.77,1.91.86-.17,1.53-.51,2.12-1.15l.29,1.46c-.58.49-1.32.84-2.23,1.02-2.52.51-4.04-.58-4.51-2.92l-.14-.71c-.47-2.34.51-3.93,3.03-4.43.91-.18,1.72-.14,2.45.08l.29,1.46c-.8-.37-1.54-.42-2.4-.25-1.27.25-2.18,1.04-1.82,2.83l.14.71Z"/>
                <path class="cls-4" d="m80.23,30.32c-.18-2.36.97-3.84,3.39-4.02,2.42-.19,3.79,1.1,3.97,3.46l.05.73c.18,2.36-.97,3.84-3.39,4.02-2.42.19-3.79-1.1-3.97-3.46l-.05-.73Zm5.78-.46c-.13-1.67-1.03-2.33-2.3-2.23-1.26.1-2.03.9-1.9,2.55l.06.76c.13,1.67,1.03,2.33,2.31,2.23,1.26-.1,2.03-.9,1.9-2.55l-.06-.76Z"/>
                <path class="cls-4" d="m90.67,34.13l-1.58-.08.38-7.05c.97-.54,2.25-.87,3.48-.8,2.4.13,3.27,1.25,3.15,3.47l-.25,4.75-1.58-.08.24-4.61c.08-1.47-.45-2.12-1.83-2.2-.58-.03-1.13.06-1.68.32l-.33,6.3Z"/>
                <path class="cls-4" d="m102.41,35.51l.83-4.54c.26-1.42.02-2.13-1.35-2.38-.63-.12-1.38.04-1.9.33l-1.09,5.94-1.55-.29,2-10.9,1.55.29-.67,3.63c.62-.26,1.49-.39,2.3-.24,2.07.38,2.69,1.57,2.29,3.77l-.86,4.67-1.55-.29Z"/>
                <path class="cls-4" d="m107.6,33.53c-.34,1.48.41,2.28,1.71,2.69.77.24,1.57.29,2.52.05l-.44,1.39c-.85.13-1.69.05-2.49-.2-2.58-.82-3.41-2.52-2.7-4.77l.23-.72c.72-2.26,2.38-3.17,4.66-2.44,2.22.7,2.71,2.26,2.28,3.62-.45,1.43-1.43,1.76-2.79,1.33l-2.98-.95Zm.38-1.2l2.63.84c.64.2,1.04.12,1.24-.5.25-.8-.1-1.56-1.17-1.9-1.2-.38-2.22.06-2.71,1.56Z"/>
                <path class="cls-4" d="m115.53,35.94c-.74,1.65-.05,2.63,1.14,3.16.8.36,1.54.48,2.4.3l-.61,1.36c-.76.06-1.56-.09-2.4-.47-2.34-1.06-2.94-2.83-1.96-5l.3-.66c.98-2.17,2.71-2.89,5.05-1.83.84.38,1.48.89,1.94,1.5l-.61,1.36c-.44-.77-1.01-1.24-1.81-1.6-1.18-.53-2.38-.42-3.12,1.24l-.3.66Z"/>
                <path class="cls-4" d="m122.12,39.62c-.68,1.36-.14,2.31,1.03,3.02.69.42,1.46.65,2.44.64l-.75,1.25c-.86-.08-1.65-.34-2.37-.78-2.31-1.4-2.72-3.24-1.5-5.27l.39-.65c1.22-2.03,3.05-2.52,5.1-1.28,1.99,1.2,2.1,2.83,1.37,4.05-.78,1.29-1.81,1.37-3.03.64l-2.68-1.62Zm.65-1.08l2.37,1.43c.57.35.98.36,1.32-.19.43-.71.27-1.54-.69-2.12-1.08-.65-2.17-.46-3,.88Z"/>
                <path class="cls-4" d="m134.28,44.68c-.34-.9-.82-1.6-1.56-2.16-.45-.34-1-.6-1.56-.69l-3.85,4.99-1.25-.97,4.32-5.59c1.11.13,2.34.56,3.31,1.31.73.57,1.21,1.19,1.51,1.92l-.92,1.19Z"/>
                <path class="cls-4" d="m136.86,49.26c1.75-1.59,3.62-1.59,5.26.21,1.63,1.8,1.46,3.66-.29,5.25l-.54.49c-1.75,1.59-3.62,1.59-5.26-.21-1.63-1.8-1.46-3.66.29-5.25l.54-.49Zm3.91,4.28c1.24-1.12,1.2-2.24.35-3.19-.85-.93-1.96-1.05-3.18.06l-.56.51c-1.24,1.12-1.21,2.24-.35,3.19.85.93,1.96,1.05,3.18-.06l.56-.51Z"/>
                <path class="cls-4" d="m153.44,60.6l-7.57,8.03-.94-1.56,1.98-2.06-2-3.3-2.73.82-.95-1.56,10.61-3,1.59,2.62Zm-7.13.69l1.62,2.68,3.61-3.75-.24-.4-4.98,1.47Z"/>
                <path class="cls-4" d="m146.83,70.86l-.63-1.45,6.48-2.81c.92.63,1.78,1.63,2.27,2.76.95,2.2.33,3.48-1.7,4.36l-4.36,1.89-.63-1.45,4.24-1.84c1.35-.59,1.7-1.35,1.15-2.62-.23-.53-.56-.98-1.03-1.36l-5.79,2.51Z"/>
                <path class="cls-4" d="m152,83.19c-.88-.74-1.5-1.64-1.85-2.88-.73-2.54.25-3.88,2.58-4.55l.72-.2c2.34-.67,3.88-.08,4.52,2.15.23.79.2,1.54,0,2.13l3.47-.99.44,1.52-9.89,2.83Zm1.17-5.91c-1.47.42-2.17,1.14-1.72,2.7.16.57.45,1.07.85,1.48l4.38-1.25c.23-.54.27-1.2.07-1.9-.41-1.43-1.38-1.66-2.85-1.24l-.73.21Z"/>
                <path class="cls-4" d="m154.87,85.64c-1.48.35-1.86,1.38-1.65,2.73.12.8.44,1.53,1.07,2.28l-1.44.22c-.49-.71-.8-1.49-.93-2.32-.41-2.67.74-4.17,3.08-4.53l.75-.12c2.34-.36,3.89.72,4.26,3.09.36,2.3-.82,3.43-2.23,3.65-1.49.23-2.21-.5-2.43-1.91l-.48-3.09Zm1.25-.19l.42,2.73c.1.66.35.99,1,.89.82-.13,1.35-.78,1.18-1.89-.19-1.25-1.04-1.96-2.6-1.73Z"/>
                <path class="cls-4" d="m158.79,98.25c.47-.84.7-1.65.66-2.58-.02-.56-.18-1.15-.47-1.64l-6.3.24-.06-1.58,7.06-.27c.62.93,1.07,2.15,1.12,3.38.04.93-.13,1.69-.5,2.39l-1.5.06Z"/>
                <path class="cls-4" d="m156.74,103.8c-.64,1.45-1.22,1.79-2.27,1.71-1.47-.1-2.2-1.39-2.06-3.36.06-.89.34-2.14.84-2.99l1.5.11c-.61.9-.93,1.99-1,2.9-.07,1.03.21,1.72.85,1.77.41.03.68-.12.99-.81l.91-2.04c.63-1.43,1.19-1.79,2.21-1.72,1.46.1,2.06,1.38,1.93,3.26-.06.88-.26,1.92-.65,2.68l-1.49-.1c.47-.76.74-1.79.79-2.59.07-1.05-.11-1.62-.74-1.67-.35-.02-.62.12-.93.82l-.89,2.04Z"/>
                <path class="cls-4" d="m156.5,107.09c2.33.45,3.44,1.96,2.97,4.34-.47,2.38-2.06,3.36-4.39,2.9l-.72-.14c-2.32-.45-3.44-1.96-2.97-4.34.46-2.38,2.06-3.36,4.39-2.9l.71.14Zm-1.1,5.7c1.64.32,2.52-.37,2.76-1.63.24-1.24-.33-2.2-1.95-2.52l-.75-.15c-1.64-.32-2.52.37-2.76,1.63-.24,1.24.33,2.2,1.95,2.52l.74.15Z"/>
                <path class="cls-4" d="m150.05,116.15l.5-1.5,6.7,2.23c.27,1.08.24,2.4-.15,3.57-.76,2.28-2.07,2.82-4.18,2.12l-4.51-1.5.5-1.5,4.38,1.46c1.4.46,2.17.13,2.6-1.18.18-.55.24-1.1.13-1.7l-5.98-1.99Z"/>
              </g>
              <circle class="cls-3" cx="88.59" cy="96.61" r="50.88"/>
              <path class="cls-1" d="m117.53,96.67c-.2-2.35-2.08-4.28-4.44-4.35-2.79-.09-4.97,2.29-4.74,4.99l-.3-3.56c-.2-2.35-2.08-4.27-4.43-4.35-2.79-.09-4.97,2.28-4.75,4.97l-.23-2.69c-.21-2.44-2.23-4.41-4.68-4.36-2.6.05-4.61,2.25-4.51,4.79l-1.12-13.34c-.2-2.35-2.08-4.28-4.44-4.35-2.79-.09-4.97,2.29-4.74,4.99l2.82,33.5-10.76-10.45c-1.69-1.64-4.38-1.86-6.21-.37-2.16,1.76-2.25,4.99-.31,6.87l9.36,9.09,10.6,10.29.34,4.07.29,3.46c.04.44.23.83.51,1.12.08.08.17.16.27.23.1.07.2.12.31.17.16.07.33.12.51.14.12.01.24.02.37,0l25.99-2.19c.5-.04.94-.28,1.24-.64.06-.07.11-.15.16-.22l.07-.12c.04-.07.07-.15.1-.23l.05-.18c.04-.18.06-.38.04-.57l-.31-3.73s.6-.62,1.34-2.01l.07-.13c.09-.17.18-.36.27-.55.05-.1.09-.2.14-.31l.04-.1c.07-.16.14-.32.21-.49v-.03c.25-.58.49-1.24.72-1.99.38-1.26.65-2.55.82-3.85.02-.13.03-.26.05-.4.15-1.33.19-2.67.13-4.01l-.19-4.25-.55-12.56-.1-2.3Z"/>
              <path class="cls-7" d="m114.19,93.5c-.2-2.35-2.08-4.28-4.44-4.35-2.79-.09-4.97,2.29-4.74,4.99l-.3-3.56c-.2-2.35-2.08-4.27-4.43-4.35-2.79-.09-4.97,2.28-4.75,4.97l-.23-2.69c-.21-2.44-2.23-4.41-4.68-4.36-2.6.05-4.61,2.25-4.51,4.79l-1.12-13.34c-.2-2.35-2.08-4.28-4.44-4.35-2.79-.09-4.97,2.29-4.74,4.99l2.82,33.5-10.76-10.45c-1.69-1.64-4.38-1.86-6.21-.37-2.16,1.76-2.25,4.99-.31,6.88l9.36,9.09,10.6,10.29.34,4.07.29,3.46c.04.44.23.83.51,1.12.08.08.17.16.27.22.1.07.2.12.31.17.16.07.33.12.51.14.12.01.24.02.37,0l25.99-2.19c.5-.04.94-.28,1.24-.64.06-.07.11-.15.16-.22l.07-.12c.04-.07.07-.15.1-.23l.05-.18c.04-.18.06-.38.04-.57l-.31-3.73s.6-.62,1.34-2.01l.07-.13c.09-.17.18-.36.27-.55.05-.1.09-.2.14-.31l.05-.1c.07-.16.14-.32.21-.49v-.03c.25-.58.49-1.24.72-1.99.38-1.26.65-2.55.82-3.85.02-.13.03-.26.05-.4.15-1.33.19-2.67.13-4.01l-.19-4.25-.55-12.56-.1-2.3Z"/>
              <path class="cls-4" d="m79.14,63.11c.52-.04.91-.5.87-1.03l-.48-5.72c-.04-.52-.5-.91-1.03-.87s-.91.5-.87,1.03l.48,5.72c.04.52.5.91,1.03.87Z"/>
              <path class="cls-4" d="m90.56,72.76c.04.52.5.91,1.03.87l5.72-.48c.52-.04.91-.5.87-1.03s-.5-.91-1.03-.87l-5.72.48c-.52.04-.91.5-.87,1.03Z"/>
              <path class="cls-4" d="m62.9,76.04l5.72-.48c.52-.04.91-.5.87-1.03s-.5-.91-1.03-.87l-5.72.48c-.52.04-.91.5-.87,1.03s.5.91,1.03.87Z"/>
              <path class="cls-4" d="m86.85,65.57c.2.17.45.24.69.22s.48-.13.65-.33l3.7-4.38c.34-.4.29-1-.11-1.34-.4-.34-1-.29-1.34.11l-3.7,4.38c-.34.4-.29,1,.11,1.34Z"/>
              <path class="cls-4" d="m68.97,87.78c.24-.02.48-.13.65-.33l3.7-4.38c.34-.4.29-1-.11-1.34-.4-.34-1-.29-1.34.11l-3.7,4.38c-.34.4-.29,1,.11,1.34.2.17.45.24.69.22Z"/>
              <path class="cls-4" d="m70.61,66.94c.2.17.45.24.69.22s.48-.13.65-.33c.34-.4.29-1-.11-1.34l-4.38-3.7c-.4-.34-1-.29-1.34.11-.34.4-.29,1,.11,1.34l4.39,3.7Z"/>
              <path class="cls-4" d="m83.35,63.61c.13.04.25.06.38.05.37-.03.7-.28.82-.65l1.8-5.45c.16-.5-.11-1.04-.6-1.2-.5-.16-1.04.11-1.2.6l-1.8,5.45c-.16.5.11,1.04.6,1.2Z"/>
              <path class="cls-4" d="m91.27,76.36c-.5-.16-1.04.11-1.2.6-.16.5.11,1.04.6,1.2l5.45,1.8c.13.04.25.06.38.05.37-.03.7-.28.82-.65.17-.5-.11-1.04-.6-1.2l-5.45-1.8Z"/>
              <path class="cls-4" d="m63.34,69.13l5.45,1.8c.13.04.25.06.38.05.37-.03.7-.28.82-.65.16-.5-.11-1.04-.6-1.2l-5.45-1.8c-.5-.16-1.04.11-1.2.6-.16.5.11,1.04.6,1.2Z"/>
              <path class="cls-4" d="m89.47,68.89c.18.36.55.55.93.52.12,0,.24-.04.35-.1l5.13-2.58c.47-.24.66-.81.42-1.28-.24-.47-.81-.66-1.28-.42l-5.13,2.58c-.47.24-.66.81-.42,1.28Z"/>
              <path class="cls-4" d="m70.58,78.4c-.24-.47-.81-.66-1.28-.42l-5.13,2.58c-.47.24-.66.81-.42,1.28.18.36.55.55.93.52.12,0,.24-.04.35-.1l5.13-2.58c.47-.24.66-.81.42-1.28Z"/>
              <path class="cls-4" d="m74,63.78c.18.36.55.55.93.52.12,0,.24-.04.35-.1.47-.24.66-.81.42-1.28l-2.58-5.13c-.24-.47-.81-.66-1.28-.42-.47.24-.66.81-.42,1.28l2.58,5.13Z"/>
              <path class="cls-4" d="m102.55,116.38c-5.21,2.77-11.56,4.34-17.82,3.84-5.41-.38-9.97-2.43-14.02-5.35l10.6,10.29.34,4.07.29,3.46c.04.44.23.83.51,1.12.08.08.17.16.27.22.1.07.2.12.31.17.16.07.33.12.51.14.12.01.24.02.37,0l25.99-2.19c.5-.04.94-.28,1.24-.64.06-.07.11-.15.16-.22l.07-.12c.04-.07.07-.15.1-.23.08-.23.12-.49.1-.75l-.31-3.73s.6-.62,1.34-2.01l.07-.13c.09-.17.18-.36.27-.55.05-.1.09-.2.14-.31l.05-.1c.07-.16.14-.32.21-.49v-.03c.25-.58.49-1.24.72-1.99.38-1.26.65-2.55.82-3.85.02-.13.03-.26.05-.4.15-1.33.19-2.67.13-4.01l-.19-4.25-.55-12.56c-1.61,8.2-4.23,16.53-11.74,20.58Z"/>
            </g>
            <path class="cls-4" d="m94.31,192.24l17.62-31.31c1.3-2.31-.39-5.15-3.03-5.12l-18.37,3.49-17.55-3.09c-2.65.03-4.27,2.91-2.92,5.19l18.3,30.91c1.35,2.28,4.65,2.24,5.95-.07Z"/>
          </g>
        </g>
      </g>
    </g>
  </g>
</svg>