<?xml version="1.0" encoding="UTF-8"?>
<svg xmlns="http://www.w3.org/2000/svg" viewBox="0 0 393.39 390.89">
  <defs>
    <style>
      .cls-1 {
        fill: #fff;
      }

      .cls-2 {
        fill: #71d2f6;
      }

      .cls-3 {
        isolation: isolate;
      }

      .cls-4, .cls-5 {
        fill: #3a7ec1;
      }

      .cls-6 {
        fill: #444;
      }

      .cls-5 {
        opacity: .2;
      }

      .cls-5, .cls-7 {
        mix-blend-mode: multiply;
      }

      .cls-8 {
        fill: #f9f9f9;
      }

      .cls-7 {
        opacity: .5;
      }

      .cls-9 {
        opacity: .14;
      }

      .cls-10 {
        fill: #e5a755;
      }

      .cls-11 {
        fill: #f9c067;
      }

      .cls-12 {
        fill: #d89444;
      }

      .cls-13 {
        fill: #b7043c;
      }
    </style>
  </defs>
  <g class="cls-3">
    <g id="Layer_2" data-name="Layer 2">
      <g id="Camada_1" data-name="Camada 1">
        <g>
          <path class="cls-2" d="m10.6,151.85c5.78-21.43,30.02-111.29,107.3-141.52,88.43-34.59,199.81,27.13,244.27,114.89,27.09,53.47,39.33,136.32-3.74,196.08-73.23,101.61-270.5,86.64-334.65-10.44C-16.04,250.59,4.89,173.02,10.6,151.85Z"/>
          <path class="cls-6" d="m116.67,371.4h-.04c-.34-.07-.63-.15-.91-.22-.04-.01-.08-.02-.12-.04h-.04c-.25-.09-.5-.18-.76-.27l-.05-.02c-.07-.03-.13-.05-.2-.08-.27-.11-.53-.23-.79-.36-.07-.04-.15-.08-.22-.12l-.05-.03c-.21-.11-.41-.23-.61-.35h-.02c-.09-.07-.18-.12-.27-.18-.2-.13-.4-.27-.61-.43-.1-.08-.2-.15-.3-.23-.23-.19-.43-.36-.6-.52-.09-.08-.17-.17-.25-.25l-.08-.08c-.13-.13-.25-.25-.37-.39-.1-.11-.19-.22-.28-.33-.12-.15-.25-.31-.39-.49l-.05-.07c-.05-.07-.11-.14-.16-.21-.2-.28-.37-.55-.52-.83-.03-.04-.05-.08-.07-.12v-.03c-.15-.24-.28-.5-.4-.76-.04-.09-.08-.18-.12-.27v-.02c-.1-.23-.2-.46-.28-.7l-.02-.07c-.03-.07-.05-.15-.08-.22-.12-.37-.21-.7-.28-1.01l-.38-1.72L42.7,64.54c-.07-.34-.13-.7-.18-1.08,0-.08-.02-.16-.02-.25,0-.03,0-.07,0-.1-.02-.22-.04-.47-.05-.73,0-.11,0-.21,0-.31v-.09c0-.26.01-.47.03-.67,0-.14.02-.28.04-.41.02-.22.05-.43.09-.64.02-.13.05-.27.07-.4.04-.19.09-.4.15-.63l.02-.07c.03-.11.06-.22.09-.32.07-.22.14-.43.21-.61l.04-.1c.03-.09.07-.19.1-.28.08-.19.16-.36.24-.53l.02-.04c.24-.51.49-.96.77-1.38.03-.05.07-.1.1-.14.01-.01.02-.03.03-.04.19-.28.38-.53.56-.75.05-.07.11-.13.16-.19l.06-.07c.2-.23.38-.42.56-.6.09-.09.18-.17.27-.25l.03-.02c.2-.18.39-.35.58-.51.11-.09.22-.18.34-.27.19-.14.39-.28.62-.43l.03-.02c.11-.07.23-.15.34-.22.24-.14.49-.27.67-.37l.1-.05c.1-.05.19-.1.29-.15.27-.12.53-.22.77-.31.03-.01.06-.03.1-.04.09-.03.17-.07.26-.1.41-.14.8-.25,1.19-.33L284.04.26c.39-.08.79-.15,1.22-.2.09,0,.18-.02.28-.02.04,0,.07,0,.11,0,.25-.02.53-.04.83-.04.12,0,.23,0,.34.01h.11c.24.01.49.03.75.06.13.01.27.03.4.05h.06c.27.05.5.09.73.14.15.03.29.07.44.1.23.06.46.13.71.21h.02c.13.05.26.09.38.14.22.08.45.18.72.3l.09.04c.09.04.18.08.26.12.24.12.49.25.78.43.02.01.04.02.06.03.06.03.12.07.17.1.43.27.86.58,1.29.95l.05.05c.13.11.26.22.39.34.07.07.14.14.2.2l.07.08c.14.14.3.3.46.48.07.08.14.17.21.25l.04.04c.16.19.29.36.41.53.08.11.15.21.22.32.12.18.25.37.36.57.07.11.13.23.2.34.1.18.2.37.31.61l.04.08c.04.09.09.18.13.28.1.23.19.47.26.69.01.03.02.06.03.09.03.08.06.15.08.23.12.37.21.72.29,1.06l65.06,298.14c.07.32.12.65.17,1.04,0,.08.02.15.02.23v.08c.03.25.05.5.05.75v.06c0,.09,0,.18,0,.26,0,.28-.01.57-.03.85v.03s0,.09,0,.13c-.03.32-.07.64-.13.98-.01.08-.03.17-.05.26l-.02.09c-.05.22-.09.42-.14.61-.04.14-.08.28-.12.42-.05.17-.11.33-.17.49-.2.54-.43,1.07-.7,1.57-.03.06-.07.12-.1.17l-.04.07c-.17.29-.34.57-.53.83-.06.09-.13.18-.19.27h0c-.19.26-.4.51-.63.78l-.05.05s-.08.1-.13.14c-.31.33-.61.62-.92.89-.03.03-.06.05-.1.08-.28.23-.58.46-.9.68-.08.05-.16.11-.25.16l-.08.05c-.26.16-.51.31-.77.44-.13.07-.26.14-.4.2-.25.12-.52.24-.83.35l-.1.04c-.09.04-.18.07-.28.11-.46.16-.87.27-1.27.36l-232.68,50.78c-.31.07-.64.12-1.02.17h-.03c-.06.01-.12.02-.19.03-.33.04-.66.06-.98.06-.04,0-.09,0-.13,0h-.05c-.31,0-.61-.01-.89-.03h-.04s-.08,0-.12-.01c-.3-.03-.61-.07-.94-.13-.07-.01-.14-.03-.21-.04ZM288.25,2.45c-.14-.03-.28-.05-.45-.08h-.06c-.1-.02-.2-.04-.31-.05-.2-.02-.41-.03-.6-.04h-.13c-.08,0-.15-.01-.23-.01-.22,0-.45.02-.66.03-.05,0-.11,0-.17,0-.05,0-.1,0-.14,0-.35.04-.67.09-.98.16L51.85,53.26c-.31.07-.62.15-.95.27-.05.02-.09.03-.14.05-.05.02-.1.04-.15.06-.21.08-.42.16-.62.25-.07.03-.13.06-.2.1l-.11.06c-.16.08-.36.18-.54.29-.09.05-.18.11-.27.17l-.03.02c-.18.12-.35.23-.49.34-.09.07-.18.14-.27.21-.15.12-.3.26-.46.41l-.03.02c-.07.06-.14.13-.21.2-.14.14-.28.29-.44.48l-.08.09s-.07.08-.1.12c-.14.17-.28.37-.44.6-.02.03-.05.07-.08.11-.01.01-.02.03-.03.04-.22.33-.42.69-.61,1.1l-.02.05c-.07.14-.13.28-.19.41-.02.06-.04.12-.07.18l-.05.13c-.05.15-.12.32-.17.48-.02.08-.04.16-.07.24l-.02.08c-.05.19-.09.35-.12.5-.02.11-.04.21-.06.32-.03.17-.05.34-.07.51-.01.11-.02.22-.03.33-.01.15-.02.32-.02.53v.1c0,.07,0,.15,0,.22,0,.19.02.4.04.59,0,.05,0,.09.01.14,0,.04,0,.09.01.13.04.31.08.6.14.87l65.06,298.14c.05.25.13.51.22.81.02.05.04.1.05.16l.03.08c.07.19.14.38.22.56v.02c.04.07.07.14.1.21.09.21.2.41.31.61.02.03.04.07.05.1v.03c.13.21.27.42.43.65.03.05.07.1.1.14l.06.08c.11.15.21.28.31.39.08.09.15.18.23.26.09.11.19.21.29.31l.09.09c.06.06.12.12.18.18.14.13.3.27.48.42.08.06.16.12.24.19.17.13.33.24.49.35.07.05.14.09.22.14.17.11.33.2.5.29l.05.03c.06.03.11.06.17.09.21.1.42.2.63.29.05.02.09.04.14.05l.06.02c.21.08.41.15.61.21.03,0,.06.02.09.03h.04c.21.07.45.13.72.19.07.01.13.03.19.04.27.05.52.08.75.1h.12c.23.03.47.03.71.03h.15c.25,0,.52-.02.79-.05.05,0,.09-.01.14-.02h.03c.32-.04.58-.09.82-.14l232.68-50.78c.31-.07.64-.16,1.01-.29.06-.02.12-.04.18-.07l.12-.05c.25-.1.47-.19.66-.28.11-.05.21-.1.31-.16.2-.11.4-.22.61-.35l.1-.06c.05-.03.11-.07.16-.1.26-.18.51-.36.73-.55.03-.03.06-.04.08-.06.24-.21.48-.43.72-.7.02-.02.04-.04.05-.06.03-.03.06-.07.08-.1.19-.21.35-.42.51-.62h0c.05-.07.1-.14.15-.22.15-.21.29-.43.42-.66l.05-.09s.04-.07.06-.11c.21-.4.4-.82.56-1.26.05-.13.09-.26.14-.4.03-.11.07-.22.1-.33.04-.15.08-.3.12-.48l.02-.1c.01-.06.02-.11.03-.17.05-.28.08-.53.11-.78v-.03s0-.07,0-.11c.02-.23.03-.46.03-.68,0-.07,0-.13,0-.2v-.06c0-.2-.02-.4-.04-.6v-.09c-.01-.05-.02-.11-.02-.16-.04-.32-.08-.58-.14-.83L295.33,9.41c-.06-.27-.13-.55-.23-.85-.01-.04-.03-.08-.05-.13-.02-.04-.03-.09-.05-.13-.07-.21-.14-.39-.21-.55-.03-.07-.06-.13-.09-.2l-.04-.09c-.09-.19-.17-.35-.24-.48-.05-.09-.11-.19-.16-.28-.09-.15-.19-.31-.29-.45-.06-.09-.12-.17-.18-.26-.09-.13-.2-.26-.33-.42l-.04-.05c-.05-.06-.1-.13-.16-.19-.11-.13-.24-.26-.36-.38l-.1-.1s-.08-.09-.13-.13c-.09-.09-.2-.17-.3-.26l-.06-.05c-.36-.3-.7-.55-1.04-.77-.02-.01-.05-.03-.07-.04-.04-.02-.08-.04-.12-.07-.24-.14-.44-.25-.62-.34-.06-.03-.11-.05-.17-.08l-.11-.05c-.22-.1-.41-.18-.58-.24-.1-.04-.2-.07-.3-.1h-.02c-.2-.07-.39-.13-.57-.18-.12-.03-.24-.06-.35-.08-.04,0-.09-.02-.13-.03Z"/>
          <path class="cls-5" d="m334.5,346.75c.07-.07.14-.14.21-.22.2-.21.4-.43.58-.66.05-.07.11-.13.16-.2.31-.41.6-.84.85-1.3.08-.14.15-.28.22-.42.06-.12.11-.24.17-.35.08-.17.15-.34.21-.52.04-.1.08-.2.11-.3.1-.28.18-.56.25-.84.01-.05.02-.1.03-.14.06-.25.11-.5.15-.76.01-.09.03-.19.04-.28.03-.22.05-.45.06-.67,0-.09.01-.18.02-.28.01-.31.01-.63,0-.95l-.1-1.75h0l-17.22-299.13h0l-.22-3.77c-.02-.33-.06-.66-.11-.98-.02-.1-.04-.2-.06-.31-.04-.22-.08-.44-.14-.65-.03-.11-.06-.23-.1-.34-.06-.2-.12-.39-.19-.58-.04-.11-.08-.22-.13-.33-.07-.19-.15-.37-.24-.55-.05-.11-.1-.21-.15-.32-.09-.18-.19-.35-.29-.53-.06-.1-.12-.2-.18-.3-.11-.17-.22-.33-.34-.49-.07-.09-.13-.19-.21-.28-.11-.14-.23-.27-.34-.41-.32-.37-.65-.71-1.02-1.03-.06-.05-.13-.1-.19-.15-.2-.17-.41-.34-.63-.49-.09-.07-.19-.13-.29-.19-.2-.13-.39-.25-.6-.37-.11-.06-.23-.12-.34-.18-.2-.1-.4-.2-.6-.29-.12-.05-.25-.11-.38-.15-.21-.08-.41-.15-.63-.22-.13-.04-.26-.08-.39-.12-.22-.06-.44-.11-.66-.15-.13-.03-.26-.06-.39-.08-.24-.04-.49-.06-.74-.08-.12,0-.23-.03-.35-.03-.37-.02-.74-.02-1.11,0l-237.76,13.68c-.38.02-.74.07-1.11.13-.12.02-.23.05-.34.07-.25.05-.49.1-.73.17-.13.04-.25.08-.38.12-.22.07-.44.14-.65.23-.12.05-.25.1-.37.16-.21.09-.41.19-.61.3-.11.06-.23.12-.34.19-.2.12-.4.24-.59.37-.1.07-.2.13-.3.21-.2.14-.39.3-.58.46-.08.07-.16.13-.24.2-.21.19-.41.39-.6.59-.05.05-.1.1-.14.15-.32.35-.61.73-.88,1.12-.11.15-.21.31-.31.47-.06.1-.12.21-.18.32-.09.17-.19.33-.27.51-.05.11-.1.22-.15.34-.08.18-.15.35-.22.53-.04.12-.08.23-.12.35-.06.18-.12.37-.17.56-.03.12-.06.24-.09.36-.05.2-.08.39-.12.59-.02.12-.04.24-.06.35-.03.22-.05.44-.06.66,0,.1-.02.21-.02.31-.01.33-.01.66,0,.99l.22,3.77h0l17.22,299.12h0l.1,1.76c.02.32.06.63.1.94.01.09.03.18.05.27.04.22.09.44.14.66.02.09.05.19.07.28.07.25.15.49.23.73.02.05.03.09.05.14.1.28.22.54.35.81.05.1.1.19.15.28.09.17.18.33.27.49.07.11.13.22.2.33.09.13.18.26.27.39.08.12.16.23.25.35.15.19.3.37.46.55.08.09.15.17.23.25.15.16.31.32.48.47.08.07.16.14.24.21.16.14.32.27.49.39.07.06.15.11.22.17.21.15.43.3.65.43.07.04.14.08.21.12.21.12.42.23.63.34.05.02.09.05.14.07.25.12.51.22.77.32.07.03.14.05.21.08.27.09.54.18.82.25.05.01.09.02.14.03.26.06.52.11.78.15.06,0,.11.02.17.03.29.04.59.07.88.08.06,0,.13,0,.19,0,.31.01.62.01.93,0l237.76-13.68c.4-.02.79-.07,1.18-.14.12-.02.24-.05.36-.08.27-.06.53-.12.79-.2.13-.04.25-.08.38-.12.25-.09.5-.18.74-.29.11-.05.22-.09.32-.14.31-.15.62-.31.91-.49.03-.02.05-.03.08-.04.33-.2.64-.42.94-.66.06-.05.12-.1.18-.15.23-.19.46-.39.67-.6Z"/>
          <g>
            <path class="cls-10" d="m322.97,26.05l17.53,304.65c.12,2.15-.43,4.18-1.47,5.89-1.68,2.77-4.66,4.7-8.14,4.9l-237.76,13.68c-3.48.2-6.66-1.37-8.65-3.93-1.23-1.58-2.01-3.53-2.14-5.68L64.82,40.91c-.14-2.47.6-4.79,1.97-6.64,1.74-2.37,4.48-3.97,7.64-4.15l237.76-13.68c3.16-.18,6.07,1.09,8.06,3.24,1.57,1.68,2.58,3.9,2.72,6.37Z"/>
            <path class="cls-12" d="m322.97,26.05l.22,3.77-18.06,32.56-109.13,7.64-109.29,4.93-21.67-30.27-.22-3.77c-.32-5.64,3.98-10.46,9.61-10.78l237.76-13.68c5.63-.32,10.46,3.97,10.78,9.61Z"/>
            <path class="cls-12" d="m340.4,328.95l.1,1.75c.32,5.63-3.98,10.46-9.61,10.78l-237.76,13.68c-5.63.32-10.46-3.98-10.78-9.61l-.1-1.76,12.26-21.2c1.02-1.77,3.01-2.99,5.06-3.11l220.83-12.71c2.05-.12,4.17.86,5.39,2.5l14.61,19.66Z"/>
            <path class="cls-11" d="m339.03,336.59c-1.68,2.77-4.66,4.7-8.14,4.9l-237.76,13.68c-3.48.2-6.66-1.37-8.65-3.93l10.53-28.39c.71-1.93,2.5-3.25,4.55-3.37l220.83-12.71c2.05-.12,3.98.99,4.92,2.82l13.72,26.99Z"/>
            <path class="cls-11" d="m320.24,19.68l-14.84,42.12c-.42,1.2-1.51,2.01-2.77,2.09l-213.28,12.28c-1.26.07-2.44-.61-3-1.75l-19.58-40.13c1.74-2.37,4.48-3.97,7.64-4.15l237.76-13.68c3.16-.18,6.07,1.09,8.06,3.24Z"/>
            <path class="cls-6" d="m195.12,139.25c-4.23-.84-7.53-4.45-7.79-8.95l-4.67-81.13c-.15-2.57.72-5.06,2.45-7,1.73-1.94,4.09-3.09,6.67-3.23l4.85-.28c5.33-.31,9.92,3.78,10.23,9.12l4.67,81.13c.15,2.57-.72,5.06-2.45,7-1.73,1.94-4.09,3.09-6.67,3.23h0s-4.85.28-4.85.28c-.84.05-1.65-.01-2.44-.17Zm3.41-97.7c-.56-.11-1.14-.15-1.74-.12l-4.85.28c-1.84.11-3.53.93-4.76,2.31-1.23,1.38-1.86,3.16-1.75,4.99l4.67,81.13c.22,3.81,3.5,6.73,7.31,6.51l4.85-.28c1.84-.11,3.53-.93,4.76-2.31,1.23-1.38,1.86-3.16,1.75-4.99l-4.67-81.13c-.19-3.21-2.54-5.79-5.56-6.39Z"/>
            <circle class="cls-1" cx="194.87" cy="50.48" r="13.53"/>
            <circle class="cls-1" cx="199.43" cy="129.69" r="13.53"/>
          </g>
          <circle class="cls-4" cx="381.83" cy="232.21" r="11.56"/>
          <g class="cls-7">
            <circle class="cls-9" cx="204.73" cy="205.45" r="41.87"/>
            <circle class="cls-13" cx="203.75" cy="204.33" r="41.87"/>
            <g>
              <path class="cls-8" d="m218.84,195.65c-.38-5.09-4.84-8.92-9.93-8.54-2.56.19-4.7,1.84-6.18,3.75-1.75-1.66-4.11-2.97-6.67-2.78-5.09.38-8.92,4.84-8.54,9.93.2,2.64,1.53,5.07,3.65,6.68l10.94,9.4,4.78-.36-13.56-11.65-.04-.04-.05-.03c-1.36-1.02-2.22-2.57-2.34-4.26-.24-3.23,2.19-6.06,5.42-6.3,2.06-.16,3.91,1.63,5.26,3.19l1.58,1.77,1.3-1.99c1.15-1.7,2.66-3.79,4.72-3.95,3.23-.24,6.06,2.19,6.3,5.42.13,1.69-.48,3.35-1.68,4.56l-.04.04-7.23,8.41,2.55,2.19,2.07-2.4,5.1-5.91c1.85-1.9,2.8-4.51,2.6-7.15Z"/>
              <path class="cls-8" d="m228.36,190.75c-.84-1.7-2-3.19-3.45-4.43l-13.37-11.5c-1.45-1.24-3.09-2.17-4.9-2.74-1.74-.56-3.55-.77-5.38-.63-1.83.14-3.59.62-5.22,1.43-1.7.84-3.19,2-4.43,3.45l-11.5,13.37c-1.24,1.45-2.17,3.09-2.74,4.9-.56,1.74-.77,3.55-.63,5.38.14,1.83.62,3.59,1.43,5.22.84,1.7,2,3.19,3.45,4.43l6.42,5.52,4.96-.37-9.09-7.82c-4.44-3.81-4.94-10.53-1.13-14.96l11.5-13.37c1.91-2.22,4.54-3.45,7.25-3.66,2.71-.2,5.5.62,7.72,2.53l13.37,11.5c4.44,3.81,4.94,10.53,1.13,14.96l-7.82,9.09,4.96-.37,5.52-6.42c1.24-1.45,2.17-3.09,2.74-4.9.56-1.74.77-3.55.63-5.38-.14-1.83-.62-3.59-1.43-5.22Z"/>
              <g>
                <path class="cls-1" d="m188.19,232.98s-.08-.09-.1-.14l-.44-1.88c-.03-.05-.07-.08-.11-.08l-4.74.36s-.08.03-.1.09l-.63,1.97c-.06.15-.16.23-.31.24l-3.17.24c-.09,0-.15-.01-.19-.06-.04-.05-.04-.12,0-.23l5.12-14.96c.06-.15.16-.23.28-.24l3.92-.3c.13,0,.22.06.27.19l3.77,14.29v.09c.02.14-.06.22-.21.23l-3.19.24c-.07,0-.13-.01-.18-.05Zm-4.44-4.58l3.09-.23c.07,0,.1-.05.1-.14l-1.32-5.44c-.02-.06-.04-.08-.07-.07-.03,0-.05.04-.06.08l-1.81,5.68c-.04.09-.01.13.07.12Z"/>
                <path class="cls-1" d="m203.64,216.79l2.94-.22c.07,0,.13.02.18.06.05.05.07.11.06.18l-.69,14.62c0,.07-.04.14-.08.19-.05.05-.11.08-.18.09l-2.96.22c-.07,0-.13-.02-.18-.06-.05-.05-.07-.11-.06-.18l.4-8.7c0-.06,0-.09-.03-.08s-.06.03-.08.07l-1.94,3.12c-.05.12-.14.18-.29.19l-1.48.11c-.13,0-.23-.04-.29-.15l-1.66-2.87s-.04-.06-.07-.06-.05.03-.06.09l-.4,8.72c0,.07-.04.14-.08.19-.05.05-.11.08-.18.09l-2.96.22c-.07,0-.13-.02-.18-.06-.05-.05-.07-.11-.06-.18l.69-14.62c0-.07.02-.13.07-.19.05-.05.12-.08.19-.09l2.91-.22c.14-.01.24.04.29.15l2.67,4.5c.05.08.09.08.13,0l3.08-4.93c.05-.12.14-.18.29-.19Z"/>
                <path class="cls-1" d="m216.49,215.9c.05-.05.1-.08.18-.09l2.96-.22c.07,0,.13.02.18.06.05.05.07.11.06.18l-.69,14.62c0,.07-.04.14-.08.19-.05.05-.11.08-.18.09l-2.96.22c-.07,0-.13-.02-.18-.06-.05-.05-.07-.11-.06-.18l.26-5.75c.02-.07,0-.11-.09-.1l-3.88.29c-.06,0-.1.04-.12.12l-.26,5.75c0,.07-.04.14-.08.19-.05.05-.11.08-.18.09l-2.96.22c-.07,0-.13-.02-.18-.06-.05-.05-.07-.11-.06-.18l.69-14.62c0-.07.02-.13.07-.19.05-.05.12-.08.19-.09l2.94-.22c.16-.01.24.07.26.24l-.27,5.58c0,.07.04.11.09.1l3.9-.29s.05-.01.07-.04c.02-.02.03-.05.03-.08l.27-5.58c0-.07.04-.14.08-.19Z"/>
                <path class="cls-1" d="m222.65,229.37c-.95-.76-1.48-1.84-1.58-3.24-.03-.34-.03-.61-.02-.8l.23-4.67c.05-1.07.32-2.03.82-2.87.5-.85,1.18-1.53,2.04-2.04.87-.51,1.85-.81,2.95-.89,1.54-.12,2.79.18,3.74.89.95.71,1.48,1.73,1.58,3.06.01.14.01.39.01.73,0,.06-.02.11-.07.17-.05.05-.12.08-.19.09l-2.96.42c-.16.01-.23-.06-.23-.22,0-.09,0-.21,0-.37-.04-.57-.25-1.01-.61-1.31-.36-.3-.83-.43-1.4-.39-.63.05-1.15.29-1.56.73-.41.44-.64.99-.67,1.66l-.23,4.91c0,.07,0,.18,0,.32.04.57.25,1.01.62,1.32.37.31.84.44,1.41.4.64-.05,1.17-.29,1.57-.72.41-.43.62-.98.64-1.64.02-.16.1-.24.26-.26l2.95-.07c.16-.01.24.05.25.2-.05,1.02-.33,1.94-.83,2.76-.5.81-1.18,1.47-2.04,1.95-.86.49-1.85.78-2.96.86-1.53.12-2.77-.21-3.72-.97Z"/>
              </g>
            </g>
          </g>
        </g>
      </g>
    </g>
  </g>
</svg>