<?xml version="1.0" encoding="UTF-8"?><svg id="Layer_2" xmlns="http://www.w3.org/2000/svg" xmlns:xlink="http://www.w3.org/1999/xlink" viewBox="0 0 1434.13 229.95"><defs><style>.cls-1{fill:url(#radial-gradient);fill-rule:evenodd;}.cls-2{fill:#004991;}</style><radialGradient id="radial-gradient" cx="11.27" cy="-85.87" fx="11.27" fy="-85.87" r="1067.5" gradientTransform="translate(0 77.48) scale(1 .91)" gradientUnits="userSpaceOnUse"><stop offset="0" stop-color="#5ca3ff"/><stop offset="1" stop-color="#007ade"/></radialGradient></defs><g id="Camada_1"><g><path class="cls-1" d="m8.83,216.44h1412.11l4.35-2.74V13.51H8.83M0,7.39L10.66,0h142.67l10.66,7.39h8.18l-10.66-7.39h8.18l10.66,7.39h8.18l-10.66-7.39h8.18l10.66,7.39h8.18l-10.66-7.39h8.18l10.66,7.39h8.18l-10.66-7.39h8.18l10.66,7.39h8.18l-10.66-7.39h8.18l10.66,7.39h8.18l-10.66-7.39h8.18l10.66,7.39h8.18l-8.9-6.17h8.18l8.9,6.17h8.18l-6.49-4.5h8.18l6.49,4.5h1139.27v121.25h0v87.6l-19.78,13.72H154.02l-10.66-7.39h-26.09l-7.39,5.12H6.68l-6.68-4.56v-3.02m3.53,0h1420.01l7.06-4.89v-84.89h0s0-120.5,0-120.5H3.53m7.07,4.9h1412.93v113.9h0v84.52l-3.27,2.06H10.6m-6.39,7.35h108.06l-3.86,2.67H8.12l-3.92-2.67h0ZM88.4,7.39h70.58l-7.12-4.94h-56.33l-7.12,4.94h0Zm214.61,220.11h-44.08l-7.12-4.94h44.08l7.12,4.94h0Zm1109.87,0H306.55l-7.12-4.94h1120.58l-7.12,4.94h0Z"/><rect class="cls-2" x="616.48" y="-591.61" width="200.67" height="1413.12" transform="translate(831.77 -601.86) rotate(90)"/></g></g></svg>