<?xml version="1.0" encoding="UTF-8"?>
<svg xmlns="http://www.w3.org/2000/svg" viewBox="0 0 205.96 208.92">
  <defs>
    <style>
      .cls-1 {
        fill: #8ab9d3;
        opacity: .25;
      }

      .cls-2 {
        fill: #fff;
      }

      .cls-3 {
        fill: #004991;
      }

      .cls-4 {
        fill: #045aa0;
      }

      .cls-5 {
        isolation: isolate;
      }

      .cls-6 {
        fill: #3a7ec1;
        mix-blend-mode: multiply;
        opacity: .2;
      }
    </style>
  </defs>
  <g class="cls-5">
    <g id="Layer_2" data-name="Layer 2">
      <g id="Camada_1" data-name="Camada 1">
        <g>
          <g>
            <circle class="cls-6" cx="112.46" cy="138.83" r="70.09" transform="translate(-36.58 237.35) rotate(-84.45)"/>
            <circle class="cls-3" cx="109.16" cy="129.02" r="70.09"/>
          </g>
          <g>
            <path class="cls-4" d="m28.64,126.88c2.17.12,2.97-1.07,3.06-2.64.06-1.06-.13-1.93-.7-2.82l1.78.1c.39.83.57,1.79.51,2.9-.18,3.08-1.9,4.51-4.76,4.35l-.87-.05c-2.86-.16-4.41-1.79-4.23-4.87.06-1.11.36-2.04.84-2.82l1.78.1c-.67.82-.95,1.66-1.02,2.72-.09,1.55.55,2.84,2.73,2.97l.88.05Z"/>
            <path class="cls-4" d="m20.65,115.89l11.15,1.65c.51.08.72-.1.78-.55.05-.34.07-.73.03-1.1l1.55.23c.01.43-.01.98-.09,1.5-.21,1.39-.95,2.04-2.5,1.81l-11.21-1.66.28-1.88Z"/>
            <path class="cls-4" d="m22.48,112.33l-.29-.06c-.61-.13-.79-.58-.65-1.26.14-.66.5-1.01,1.1-.88l.29.06c.62.13.79.6.64,1.26-.14.68-.48,1.02-1.1.88Zm2.65.42l.4-1.86,9.24,1.97-.4,1.86-9.24-1.97Z"/>
            <path class="cls-4" d="m41.32,104.11l-.57,1.81-4.14-1.3c.22.72.22,1.62-.07,2.56-.84,2.66-2.7,3.32-5.49,2.45l-.85-.27c-2.79-.87-3.92-2.51-2.97-5.54.46-1.48,1.23-2.54,2.31-3.41l11.79,3.69Zm-9.69,3.71c1.76.55,2.93.31,3.46-1.4.26-.84.22-1.63-.03-2.28l-5.22-1.64c-.49.48-.85,1.07-1.06,1.75-.58,1.86.23,2.75,1.99,3.3l.87.27Z"/>
            <path class="cls-4" d="m32.17,91.98l.79-1.72,7.71,3.54c.17,1.32-.03,2.9-.64,4.24-1.2,2.62-2.83,3.06-5.25,1.94l-5.19-2.38.79-1.72,5.04,2.32c1.61.74,2.55.47,3.25-1.04.29-.63.43-1.29.38-2.01l-6.88-3.16Z"/>
            <path class="cls-4" d="m39.99,89.31c1.63.84,2.77.2,3.64-1.19.51-.82.8-1.74.8-2.91l1.49.92c-.1,1.03-.44,1.98-.97,2.83-1.72,2.76-3.94,3.22-6.35,1.72l-.77-.48c-2.42-1.5-2.98-3.7-1.46-6.15,1.47-2.37,3.43-2.48,4.89-1.58,1.53.95,1.62,2.19.72,3.65l-1.99,3.19Zm-1.28-.8l1.75-2.82c.42-.68.45-1.18-.21-1.59-.85-.53-1.84-.35-2.56.79-.8,1.29-.59,2.6,1.01,3.62Z"/>
            <path class="cls-4" d="m47.75,79.53c-1.47-1.34-1.51-2.79.16-4.63.7-.77,1.56-1.37,2.31-1.68l-.39-.33c-1.2-1.01-2.08-1.02-3.32.34-.7.77-1.18,1.79-1.31,2.8l-1.31-1.19c.25-.96.73-1.92,1.65-2.94,1.89-2.08,3.68-2.16,5.51-.5l3.7,3.36c-.24,1.41-.96,2.77-2,3.92-2.02,2.23-3.51,2.19-5,.84Zm5.05-3.97l-1.58-1.43c-.7.28-1.36.82-1.88,1.4-1.09,1.2-1.09,1.91-.32,2.61.77.7,1.58.62,2.62-.53.56-.62.99-1.37,1.17-2.05Z"/>
            <path class="cls-4" d="m65.28,71.91l-1.44,1.24-2.83-3.29c-.2.72-.67,1.49-1.42,2.13-2.12,1.82-4.05,1.39-5.95-.83l-.58-.68c-1.9-2.21-1.99-4.2.41-6.27,1.18-1.01,2.39-1.5,3.76-1.67l8.04,9.37Zm-10.18-1.98c1.2,1.4,2.32,1.81,3.68.64.66-.57,1.05-1.26,1.18-1.95l-3.56-4.15c-.67.14-1.29.46-1.83.92-1.48,1.27-1.26,2.45-.06,3.85l.59.69Z"/>
            <path class="cls-4" d="m63.95,56.79l1.59-1.04,4.66,7.09c-.55,1.22-1.56,2.44-2.79,3.26-2.41,1.58-4.02,1.09-5.48-1.13l-3.14-4.77,1.58-1.04,3.05,4.63c.97,1.48,1.92,1.75,3.3.84.58-.38,1.05-.86,1.39-1.5l-4.16-6.33Z"/>
            <path class="cls-4" d="m66.9,51.99l-.14-.26c-.29-.55-.06-.98.55-1.3.6-.32,1.1-.27,1.39.28l.14.26c.3.56.05.99-.55,1.3-.61.32-1.09.29-1.39-.28Zm1.38,2.3l1.68-.89,4.42,8.35-1.68.89-4.42-8.35Z"/>
            <path class="cls-4" d="m77.54,50.9c.83-1.1,1.87-1.91,3.33-2.42,3.02-1.05,4.67.04,5.63,2.79l.29.84c.96,2.76.36,4.65-2.28,5.56-.93.32-1.83.35-2.56.16l1.43,4.1-1.79.62-4.06-11.67Zm7.17,1c-.61-1.74-1.5-2.53-3.36-1.88-.67.23-1.26.61-1.72,1.12l1.8,5.17c.66.23,1.47.24,2.29-.04,1.69-.59,1.9-1.76,1.29-3.5l-.3-.86Z"/>
            <path class="cls-4" d="m88.64,53.08c-.43-1.94.39-3.15,2.81-3.69,1.02-.22,2.06-.21,2.85-.03l-.13-.49c-.39-1.52-1.1-2.04-2.9-1.64-1.01.22-1.99.78-2.69,1.53l-.38-1.73c.76-.63,1.71-1.14,3.04-1.44,2.74-.61,4.25.37,4.78,2.77l1.08,4.88c-1.01,1.01-2.39,1.71-3.9,2.04-2.94.65-4.13-.24-4.56-2.2Zm6.41-.32l-.46-2.08c-.73-.17-1.58-.12-2.34.05-1.58.35-2,.93-1.77,1.94.23,1.02.93,1.42,2.44,1.08.82-.18,1.6-.54,2.13-1Z"/>
            <path class="cls-4" d="m105.14,46.19c-1.04-.5-2.03-.72-3.14-.61-.67.07-1.36.3-1.93.68l.73,7.53-1.89.18-.82-8.44c1.08-.8,2.5-1.43,3.97-1.58,1.11-.11,2.04.04,2.9.43l.17,1.8Z"/>
            <path class="cls-4" d="m106.06,50.36c.02-1.99,1.09-2.98,3.57-2.95,1.04.01,2.06.26,2.78.62v-.51c-.05-1.57-.63-2.23-2.47-2.25-1.04-.01-2.12.3-2.97.88l.02-1.77c.88-.45,1.92-.73,3.29-.71,2.81.03,4.05,1.32,4.02,3.79l-.06,5c-1.21.75-2.71,1.12-4.26,1.1-3.01-.04-3.96-1.18-3.94-3.18Zm6.32,1.15l.02-2.13c-.67-.34-1.51-.47-2.29-.48-1.62-.02-2.16.45-2.17,1.49-.01,1.04.58,1.59,2.13,1.61.84.01,1.68-.16,2.31-.48Z"/>
            <path class="cls-4" d="m126.2,49.98c1.63.96,1.95,1.71,1.72,2.95-.33,1.74-1.97,2.43-4.3,1.98-1.06-.2-2.5-.7-3.44-1.42l.34-1.77c.99.86,2.24,1.4,3.31,1.6,1.22.23,2.08,0,2.23-.76.09-.48-.04-.83-.83-1.29l-2.3-1.37c-1.62-.96-1.96-1.68-1.73-2.88.33-1.72,1.94-2.26,4.16-1.84,1.04.2,2.25.58,3.1,1.15l-.34,1.75c-.84-.66-2.03-1.13-2.98-1.31-1.24-.24-1.95-.1-2.09.64-.08.41.06.75.84,1.22l2.3,1.35Z"/>
            <path class="cls-4" d="m129.36,52.87c.61-1.89,1.92-2.53,4.28-1.77.99.32,1.89.85,2.48,1.41l.14-.49c.43-1.51.07-2.31-1.68-2.88-.99-.32-2.12-.33-3.09-.03l.54-1.69c.97-.17,2.05-.13,3.36.29,2.68.86,3.48,2.46,2.73,4.8l-1.53,4.76c-1.38.36-2.92.27-4.4-.2-2.87-.92-3.44-2.29-2.83-4.2Zm5.7,2.96l.65-2.03c-.54-.52-1.3-.9-2.05-1.14-1.55-.5-2.19-.21-2.51.79s.09,1.69,1.57,2.17c.8.26,1.65.34,2.34.22Z"/>
            <path class="cls-4" d="m143.42,46.68l1.72.8-1.83,3.94c.74-.12,1.63,0,2.52.41,2.53,1.18,2.94,3.11,1.71,5.76l-.38.81c-1.23,2.65-2.98,3.56-5.88,2.22-1.41-.65-2.35-1.56-3.07-2.74l5.2-11.2Zm2.41,10.09c.78-1.67.69-2.86-.94-3.61-.78-.36-1.59-.44-2.27-.27l-2.31,4.96c.41.55.95.99,1.6,1.28,1.79.83,2.75.13,3.53-1.54l.38-.83Z"/>
            <path class="cls-4" d="m149.94,60.56c-.85,1.62-.21,2.77,1.18,3.65.82.51,1.73.81,2.91.81l-.93,1.48c-1.03-.11-1.98-.45-2.83-.98-2.75-1.73-3.21-3.95-1.7-6.36l.48-.77c1.51-2.41,3.71-2.97,6.16-1.44,2.36,1.48,2.47,3.44,1.56,4.9-.96,1.53-2.2,1.62-3.65.71l-3.18-2Zm.8-1.28l2.81,1.76c.68.43,1.18.46,1.59-.21.53-.85.36-1.84-.79-2.56-1.28-.8-2.6-.6-3.62,1Z"/>
            <path class="cls-4" d="m164.45,66.88c-.4-1.08-.96-1.93-1.83-2.62-.53-.42-1.19-.73-1.86-.85l-4.72,5.92-1.48-1.18,5.28-6.63c1.33.17,2.79.71,3.95,1.63.87.69,1.44,1.45,1.78,2.33l-1.12,1.41Z"/>
            <path class="cls-4" d="m165.12,77.39l-1.21-1.46,6.53-5.42c1.12.32,2.42,1.05,3.29,2.11.76.91,1.11,1.76,1.09,2.58.98.32,1.78.89,2.52,1.78,1.69,2.04,1.42,3.73-.64,5.44l-4.4,3.65-1.21-1.46,4.27-3.54c1.36-1.13,1.53-2.1.59-3.24-.43-.52-.94-.88-1.61-1.11-.3.46-.71.92-1.24,1.36l-4.4,3.65-1.21-1.46,4.27-3.54c1.36-1.13,1.53-2.1.59-3.24-.36-.44-.89-.78-1.39-.93l-5.84,4.85Z"/>
            <path class="cls-4" d="m175.42,85.75c1.71-1.01,3.11-.61,4.38,1.53.53.9.84,1.9.92,2.7l.43-.28c1.32-.85,1.59-1.68.65-3.27-.53-.9-1.36-1.66-2.29-2.08l1.52-.9c.84.52,1.62,1.27,2.31,2.45,1.43,2.42.97,4.15-1.15,5.4l-4.3,2.54c-1.27-.65-2.36-1.74-3.15-3.08-1.53-2.59-1.05-4,.68-5.02Zm2.29,6l1.84-1.09c-.06-.75-.38-1.54-.78-2.21-.83-1.4-1.5-1.61-2.4-1.08-.89.53-1.06,1.33-.27,2.66.43.72,1.01,1.35,1.61,1.72Z"/>
            <path class="cls-4" d="m186.47,92.16l.81,1.72-8.55,4.03-.81-1.72,8.55-4.03Zm2.36-1.28l.26-.12c.56-.27.98-.02,1.28.61.29.61.22,1.11-.34,1.37l-.26.12c-.58.27-.99,0-1.28-.61-.3-.63-.24-1.1.34-1.37Z"/>
            <path class="cls-4" d="m186.25,102.94c.02,1.9-.46,2.56-1.64,3-1.66.61-3.1-.44-3.92-2.66-.37-1.01-.69-2.51-.56-3.68l1.7-.62c-.23,1.29-.04,2.64.34,3.67.43,1.16,1.08,1.78,1.8,1.51.46-.17.68-.47.68-1.38v-2.68c-.03-1.88.41-2.55,1.56-2.97,1.64-.61,2.94.49,3.72,2.61.37.99.66,2.22.61,3.25l-1.68.62c.13-1.06-.08-2.32-.41-3.23-.44-1.18-.93-1.72-1.63-1.46-.39.14-.62.44-.61,1.35l.03,2.67Z"/>
          </g>
          <circle class="cls-2" cx="108.57" cy="128.37" r="61.11"/>
          <g>
            <path class="cls-1" d="m143.32,128.43c-.24-2.82-2.5-5.14-5.33-5.23-3.35-.11-5.97,2.75-5.7,5.99l-.36-4.27c-.24-2.82-2.5-5.13-5.33-5.23-3.35-.11-5.97,2.73-5.7,5.97l-.27-3.23c-.25-2.93-2.68-5.29-5.62-5.24-3.13.06-5.54,2.7-5.42,5.75l-1.35-16.02c-.24-2.82-2.5-5.14-5.33-5.23-3.35-.11-5.97,2.74-5.7,5.99l3.39,40.24-12.92-12.55c-2.03-1.97-5.26-2.24-7.45-.45-2.6,2.12-2.7,5.99-.37,8.26l11.24,10.92,12.73,12.36.41,4.89.35,4.15c.04.53.27.99.61,1.34.1.1.2.19.32.27.12.08.24.15.37.2.19.08.4.14.62.17.14.02.29.02.44,0l31.22-2.63c.6-.05,1.12-.34,1.48-.77.07-.08.13-.17.19-.27l.08-.15c.04-.09.08-.18.12-.27l.06-.22c.05-.22.07-.45.05-.69l-.38-4.48s.72-.74,1.61-2.41l.08-.15c.11-.21.22-.43.33-.66.06-.12.11-.24.17-.37l.05-.12c.08-.19.17-.39.25-.59v-.03c.3-.7.59-1.5.86-2.39.46-1.51.78-3.06.98-4.62.02-.16.04-.32.06-.48.18-1.6.23-3.21.16-4.82l-.23-5.11-.66-15.08-.12-2.77Z"/>
            <path class="cls-4" d="m139.31,124.63c-.24-2.82-2.5-5.14-5.33-5.23-3.35-.11-5.97,2.74-5.7,5.99l-.36-4.27c-.24-2.82-2.5-5.13-5.33-5.23-3.35-.11-5.97,2.73-5.7,5.97l-.27-3.23c-.25-2.93-2.68-5.29-5.62-5.24-3.13.06-5.54,2.7-5.42,5.75l-1.35-16.02c-.24-2.82-2.5-5.14-5.33-5.23-3.35-.11-5.97,2.75-5.7,5.99l3.39,40.24-12.92-12.55c-2.03-1.97-5.26-2.24-7.45-.45-2.6,2.12-2.7,5.99-.37,8.26l11.24,10.92,12.73,12.36.41,4.89.35,4.15c.04.53.27.99.61,1.34.1.1.2.19.32.27.12.08.24.15.37.2.19.09.4.14.62.17.14.02.29.02.44,0l31.22-2.63c.6-.05,1.12-.34,1.48-.77.07-.08.13-.17.19-.27l.08-.15c.04-.09.08-.18.12-.27l.06-.22c.05-.22.07-.45.05-.69l-.38-4.48s.72-.74,1.61-2.41l.08-.15c.11-.21.22-.43.33-.66.06-.12.11-.24.17-.37l.05-.12c.08-.19.17-.39.25-.59v-.03c.3-.7.59-1.5.86-2.39.46-1.51.78-3.06.98-4.62.02-.16.04-.32.06-.48.18-1.6.23-3.21.16-4.82l-.23-5.11-.66-15.08-.12-2.77Z"/>
            <path class="cls-3" d="m97.21,88.13c.63-.05,1.09-.6,1.04-1.23l-.58-6.87c-.05-.63-.61-1.09-1.23-1.04s-1.1.61-1.04,1.23l.58,6.87c.05.63.61,1.09,1.23,1.04Z"/>
            <path class="cls-3" d="m110.93,99.72c.05.63.61,1.09,1.23,1.04l6.87-.58c.63-.05,1.09-.6,1.04-1.23s-.61-1.09-1.23-1.04l-6.87.58c-.63.05-1.09.6-1.04,1.23Z"/>
            <path class="cls-3" d="m77.71,103.66l6.87-.58c.63-.05,1.09-.6,1.04-1.23s-.6-1.09-1.23-1.04l-6.87.58c-.63.05-1.09.6-1.04,1.23s.6,1.09,1.23,1.04Z"/>
            <path class="cls-3" d="m106.47,91.08c.24.2.54.29.83.27s.57-.16.78-.4l4.45-5.27c.41-.48.35-1.2-.14-1.61-.48-.41-1.2-.35-1.61.14l-4.45,5.27c-.41.48-.35,1.2.14,1.61Z"/>
            <path class="cls-3" d="m84.99,117.76c.29-.02.57-.16.78-.4l4.45-5.27c.41-.48.35-1.2-.14-1.61-.48-.41-1.2-.35-1.61.14l-4.45,5.27c-.41.48-.35,1.2.14,1.61.24.2.54.29.83.27Z"/>
            <path class="cls-3" d="m86.97,92.72c.24.2.54.29.83.27s.57-.16.78-.4c.41-.48.35-1.2-.14-1.61l-5.27-4.45c-.48-.41-1.2-.35-1.61.14-.41.48-.35,1.2.14,1.61l5.27,4.45Z"/>
            <path class="cls-3" d="m102.26,88.72c.15.05.3.07.45.05.44-.04.84-.33.99-.78l2.16-6.55c.2-.6-.13-1.24-.73-1.44-.6-.2-1.24.13-1.44.73l-2.16,6.55c-.2.6.13,1.24.73,1.44Z"/>
            <path class="cls-3" d="m111.78,104.04c-.6-.2-1.24.13-1.44.73-.2.6.13,1.24.73,1.44l6.55,2.16c.15.05.3.07.45.05.44-.04.84-.33.99-.78.2-.6-.13-1.24-.73-1.44l-6.55-2.16Z"/>
            <path class="cls-3" d="m78.23,95.36l6.55,2.16c.15.05.3.07.45.05.44-.04.84-.33.99-.78.2-.6-.13-1.24-.73-1.44l-6.55-2.16c-.6-.2-1.24.13-1.44.73-.2.6.13,1.24.73,1.44Z"/>
            <path class="cls-3" d="m109.62,95.07c.22.43.67.66,1.12.62.14-.01.28-.05.42-.12l6.16-3.1c.56-.28.79-.97.51-1.53-.28-.56-.97-.79-1.53-.51l-6.16,3.1c-.56.28-.79.97-.51,1.53Z"/>
            <path class="cls-3" d="m86.93,106.49c-.28-.56-.97-.79-1.53-.51l-6.16,3.1c-.56.28-.79.97-.51,1.53.22.43.67.66,1.12.62.14-.01.28-.05.42-.12l6.16-3.1c.56-.28.79-.97.51-1.53Z"/>
            <path class="cls-3" d="m91.04,88.93c.22.43.67.66,1.12.62.14-.01.28-.05.42-.12.56-.28.79-.97.51-1.53l-3.1-6.16c-.28-.56-.97-.79-1.53-.51-.56.28-.79.97-.51,1.53l3.1,6.16Z"/>
            <path class="cls-3" d="m125.34,152.11c-6.26,3.33-13.88,5.22-21.41,4.61-6.5-.46-11.98-2.91-16.84-6.42l12.73,12.36.41,4.89.35,4.15c.04.53.27.99.61,1.34.1.1.2.19.32.27.12.08.24.15.37.2.19.09.4.14.62.17.14.02.29.02.44,0l31.22-2.63c.6-.05,1.12-.34,1.48-.77.07-.08.13-.17.19-.27l.08-.15c.04-.09.08-.18.12-.27.1-.28.14-.59.12-.9l-.38-4.48s.72-.74,1.61-2.41l.08-.15c.11-.21.22-.43.33-.66.06-.12.11-.24.17-.37l.05-.12c.08-.19.17-.39.25-.59v-.03c.3-.7.59-1.5.86-2.39.46-1.51.78-3.06.98-4.62.02-.16.04-.32.06-.48.18-1.6.23-3.21.16-4.82l-.23-5.11-.66-15.08c-1.94,9.85-5.08,19.85-14.1,24.72Z"/>
          </g>
        </g>
      </g>
    </g>
  </g>
</svg>