<?xml version="1.0" encoding="UTF-8"?><svg xmlns="http://www.w3.org/2000/svg" viewBox="0 0 366.79 708.09"><defs><style>.cls-1{fill:#8ab9d3;opacity:.25;}.cls-2{fill:#fff;}.cls-3{fill:#004991;}.cls-4{fill:#045aa0;}.cls-5{fill:#ebd5d5;}.cls-6{fill:#7692eb;}.cls-7{isolation:isolate;}.cls-8{fill:#72cdfb;}.cls-9{fill:#feb990;}.cls-10{fill:#3a7ec1;mix-blend-mode:multiply;opacity:.2;}.cls-11{fill:#f5b467;}.cls-12{fill:#b56250;}.cls-13{fill:snow;}.cls-14{fill:#332938;}</style></defs><g class="cls-7"><g id="Layer_2"><g id="Camada_1"><g><g><g><circle class="cls-10" cx="251.36" cy="75.07" r="48.53" transform="translate(152.35 318) rotate(-84.45)"/><circle class="cls-3" cx="249.07" cy="68.28" r="48.53"/><g><path class="cls-3" d="m209.44,108.09c1.09-1.03.87-2.01.12-2.79-.5-.53-1.03-.85-1.75-.98l.9-.85c.6.19,1.17.56,1.7,1.12,1.47,1.55,1.38,3.1-.06,4.47l-.44.42c-1.44,1.37-3,1.38-4.47-.17-.53-.56-.86-1.15-1.03-1.76l.9-.85c.1.73.39,1.27.89,1.8.74.78,1.7,1.07,2.8.03l.44-.42Z"/><path class="cls-3" d="m200.1,106.9l6.12-4.85c.28-.22.29-.41.09-.65-.15-.19-.33-.38-.54-.54l.85-.67c.22.2.48.47.71.76.6.76.58,1.44-.27,2.12l-6.15,4.87-.82-1.03Z"/><path class="cls-3" d="m199.18,104.29l-.17.12c-.35.24-.67.12-.94-.27-.27-.38-.28-.73.08-.98l.17-.12c.36-.25.67-.11.94.27.27.4.29.72-.08.98Zm1.47-1.14l-.75-1.08,5.38-3.73.75,1.08-5.38,3.73Z"/><path class="cls-3" d="m203.96,90.89l.65,1.14-2.62,1.48c.46.23.92.66,1.26,1.25.95,1.68.39,2.94-1.37,3.93l-.54.3c-1.76.99-3.12.79-4.2-1.13-.53-.94-.7-1.83-.62-2.78l7.45-4.2Zm-2.72,6.65c1.11-.63,1.54-1.33.93-2.41-.3-.53-.72-.89-1.17-1.07l-3.3,1.86c0,.48.14.94.38,1.37.66,1.18,1.5,1.19,2.61.56l.55-.31Z"/><path class="cls-3" d="m193.51,89.75l-.49-1.22,5.44-2.21c.75.54,1.45,1.39,1.83,2.34.75,1.85.2,2.88-1.51,3.57l-3.67,1.49-.49-1.22,3.56-1.44c1.14-.46,1.45-1.07,1.02-2.13-.18-.44-.44-.83-.83-1.15l-4.86,1.97Z"/><path class="cls-3" d="m195.87,84.54c1.19-.42,1.42-1.3,1.13-2.4-.17-.65-.5-1.23-1.09-1.79l1.17-.31c.47.54.79,1.16.97,1.83.58,2.17-.24,3.51-2.15,4.02l-.61.16c-1.9.51-3.28-.25-3.79-2.18-.5-1.87.38-2.91,1.52-3.21,1.21-.32,1.88.22,2.18,1.37l.67,2.51Zm-1.01.27l-.59-2.22c-.14-.54-.38-.79-.9-.65-.67.18-1.05.76-.81,1.67.27,1.01,1.03,1.53,2.31,1.2Z"/><path class="cls-3" d="m194.61,75.99c-1.37.11-2.12-.56-2.26-2.28-.06-.72.05-1.44.25-1.96l-.35.04c-1.08.12-1.5.56-1.4,1.84.06.72.34,1.44.79,1.99l-1.22.1c-.36-.58-.62-1.28-.7-2.23-.16-1.94.66-2.88,2.36-3.02l3.45-.28c.6.79.94,1.8,1.03,2.87.17,2.08-.56,2.81-1.95,2.92Zm.39-4.43l-1.47.12c-.19.48-.23,1.07-.19,1.61.09,1.12.45,1.46,1.16,1.4.72-.06,1.06-.5.98-1.57-.05-.58-.22-1.15-.48-1.56Z"/><path class="cls-3" d="m199.09,63.52l-.06,1.31-3-.13c.27.44.43,1.04.4,1.73-.09,1.93-1.22,2.7-3.24,2.61l-.62-.03c-2.02-.09-3.07-.98-2.97-3.18.05-1.07.38-1.92.94-2.69l8.54.38Zm-5.83,4.2c1.27.06,2.01-.31,2.07-1.55.03-.61-.14-1.13-.43-1.52l-3.79-.17c-.25.41-.38.87-.4,1.36-.06,1.35.64,1.8,1.92,1.86l.63.03Z"/><path class="cls-3" d="m190.83,57.03l.23-1.29,5.78,1.01c.35.86.49,1.94.32,2.95-.34,1.96-1.35,2.54-3.17,2.23l-3.89-.68.23-1.29,3.78.66c1.21.21,1.79-.14,1.99-1.27.08-.47.06-.94-.1-1.41l-5.16-.9Z"/><path class="cls-3" d="m189.81,53.25l-.19-.05c-.41-.11-.52-.43-.4-.9.12-.45.38-.68.8-.57l.19.05c.43.12.52.44.4.9-.13.46-.37.68-.8.57Zm1.82.39l.35-1.27,6.31,1.73-.35,1.27-6.31-1.73Z"/><path class="cls-3" d="m194.31,47.35c-.16-.94-.07-1.85.36-2.83.9-2.02,2.24-2.34,4.08-1.51l.57.25c1.85.83,2.52,2.02,1.73,3.79-.28.62-.69,1.09-1.14,1.36l2.75,1.23-.54,1.2-7.81-3.49Zm3.91-3.14c-1.17-.52-1.99-.45-2.55.8-.2.45-.29.92-.25,1.4l3.46,1.55c.43-.22.82-.63,1.06-1.17.51-1.13.01-1.79-1.15-2.32l-.58-.26Z"/><path class="cls-3" d="m200.66,42.81c-1.18-.7-1.41-1.69-.53-3.17.37-.62.87-1.14,1.34-1.45l-.31-.17c-.95-.52-1.55-.41-2.2.69-.37.62-.55,1.38-.5,2.08l-1.05-.63c.04-.68.23-1.4.72-2.22.99-1.67,2.2-1.97,3.67-1.1l2.97,1.77c.03.99-.27,2.01-.82,2.94-1.07,1.79-2.08,1.97-3.27,1.26Zm2.88-3.39l-1.27-.76c-.43.29-.81.74-1.08,1.21-.58.97-.48,1.45.14,1.82.62.37,1.16.2,1.71-.72.3-.5.49-1.06.51-1.55Z"/><path class="cls-3" d="m205.02,31.22c-.75.29-1.32.68-1.8,1.29-.29.37-.5.83-.57,1.3l4.15,3.2-.8,1.04-4.65-3.59c.11-.92.46-1.94,1.08-2.75.47-.61.99-1.01,1.59-1.26l.99.76Z"/><path class="cls-3" d="m207.57,32.72c-.99-.96-.99-1.97.21-3.2.5-.52,1.11-.92,1.63-1.11l-.26-.24c-.81-.73-1.42-.75-2.3.17-.5.52-.85,1.21-.97,1.91l-.88-.85c.19-.66.55-1.31,1.21-2,1.35-1.4,2.59-1.42,3.82-.23l2.5,2.4c-.2.97-.72,1.9-1.47,2.68-1.45,1.5-2.48,1.44-3.48.48Zm3.58-2.64l-1.07-1.03c-.49.18-.95.54-1.33.93-.78.81-.8,1.3-.28,1.8.52.5,1.08.46,1.83-.31.4-.42.72-.93.85-1.39Z"/><path class="cls-3" d="m215.26,24.29c.88,1.22,1.88,1.12,2.76.48.59-.43.98-.91,1.21-1.61l.73,1c-.27.57-.71,1.09-1.33,1.54-1.73,1.25-3.25.96-4.42-.65l-.36-.49c-1.17-1.61-.97-3.15.75-4.4.62-.45,1.25-.71,1.88-.79l.73,1c-.73,0-1.31.22-1.9.65-.87.63-1.29,1.54-.39,2.77l.36.49Z"/><path class="cls-3" d="m219,20.88c-.96-1.72-.6-3.24,1.17-4.22,1.77-.98,3.24-.48,4.2,1.24l.29.53c.96,1.72.6,3.24-1.17,4.22-1.77.98-3.24.48-4.2-1.24l-.29-.53Zm4.21-2.35c-.67-1.21-1.59-1.4-2.51-.89-.92.51-1.22,1.39-.55,2.59l.31.55c.67,1.21,1.59,1.4,2.51.89.92-.51,1.22-1.39.55-2.59l-.31-.55Z"/><path class="cls-3" d="m228.24,20.13l-1.22.48-2.16-5.46c.55-.75,1.4-1.44,2.35-1.81,1.86-.73,2.9-.18,3.58,1.53l1.45,3.68-1.22.48-1.41-3.57c-.45-1.14-1.08-1.45-2.14-1.03-.45.18-.83.44-1.15.82l1.93,4.88Z"/><path class="cls-3" d="m237.58,17.12l-.94-3.72c-.29-1.16-.72-1.62-1.85-1.33-.51.13-1.03.51-1.32.91l1.23,4.87-1.27.32-2.26-8.94,1.27-.32.75,2.98c.38-.41.99-.81,1.66-.98,1.7-.43,2.58.26,3.04,2.06l.97,3.83-1.27.32Z"/><path class="cls-3" d="m240.81,13.83c.25,1.24,1.1,1.58,2.23,1.44.66-.08,1.28-.32,1.92-.83l.15,1.2c-.6.39-1.26.63-1.95.71-2.23.27-3.45-.72-3.69-2.68l-.08-.63c-.24-1.96.7-3.22,2.68-3.46,1.92-.24,2.83.77,2.98,1.95.15,1.24-.48,1.83-1.65,1.97l-2.58.32Zm-.13-1.04l2.28-.28c.55-.07.83-.27.77-.81-.08-.69-.61-1.15-1.54-1.03-1.04.13-1.66.81-1.51,2.12Z"/><path class="cls-3" d="m247.64,12.9c0,1.5.87,2.01,1.95,2,.73,0,1.33-.17,1.92-.6v1.24c-.55.31-1.21.47-1.98.48-2.13,0-3.2-1.12-3.21-3.11v-.61c-.01-1.98,1.05-3.12,3.18-3.13.77,0,1.43.16,1.98.46v1.24c-.59-.43-1.18-.59-1.92-.59-1.07,0-1.94.5-1.94,2.02v.61Z"/><path class="cls-3" d="m253.88,13.39c-.04,1.27.7,1.8,1.83,1.93.67.08,1.33-.01,2.06-.36l-.14,1.21c-.68.24-1.37.31-2.06.24-2.24-.25-3.19-1.51-2.96-3.47l.07-.63c.22-1.96,1.43-2.97,3.41-2.74,1.92.22,2.57,1.41,2.44,2.59-.14,1.24-.89,1.67-2.07,1.53l-2.59-.29Zm.12-1.04l2.29.26c.55.06.87-.07.93-.61.08-.69-.33-1.26-1.26-1.36-1.04-.12-1.8.41-1.96,1.71Z"/><path class="cls-3" d="m264.82,13.01c-.57-.56-1.17-.92-1.92-1.1-.46-.11-.96-.11-1.42.02l-1.19,5.11-1.28-.3,1.33-5.72c.88-.29,1.96-.39,2.96-.16.75.17,1.33.48,1.81.93l-.28,1.22Z"/><path class="cls-3" d="m267.75,17.01c.54-1.27,1.48-1.62,3.06-.95.66.28,1.25.71,1.62,1.13l.13-.33c.39-1.01.19-1.59-.98-2.09-.66-.28-1.44-.36-2.13-.22l.48-1.13c.68-.05,1.42.04,2.29.41,1.79.76,2.25,1.91,1.58,3.48l-1.35,3.19c-.97.16-2.03,0-3.02-.41-1.92-.81-2.23-1.79-1.69-3.07Zm3.74,2.39l.58-1.36c-.34-.39-.84-.7-1.34-.91-1.03-.44-1.5-.28-1.78.38-.28.66-.04,1.17.94,1.59.53.23,1.12.34,1.6.29Z"/><path class="cls-3" d="m276.75,21.22c.75-1.15,1.75-1.33,3.18-.39.6.39,1.1.92,1.4,1.4l.18-.3c.56-.93.47-1.53-.59-2.23-.6-.39-1.35-.61-2.06-.59l.67-1.03c.68.07,1.39.29,2.19.81,1.63,1.06,1.87,2.28.94,3.71l-1.89,2.9c-.99-.01-2-.36-2.9-.94-1.74-1.14-1.88-2.16-1.12-3.32Zm3.26,3.02l.81-1.24c-.27-.45-.71-.84-1.16-1.13-.94-.62-1.43-.54-1.82.06-.39.6-.25,1.15.65,1.73.49.32,1.04.53,1.53.58Zm4.13-6.6l-.53.14c-.67.18-1.52.29-2.19.24l-.18-.72,2.62-.71.28,1.06Z"/><path class="cls-3" d="m288.18,26.01c-.26-.76-.64-1.35-1.23-1.84-.36-.3-.81-.53-1.28-.62l-3.35,4.03-1.01-.84,3.75-4.52c.92.14,1.92.53,2.71,1.18.59.49.97,1.02,1.2,1.64l-.8.96Z"/><path class="cls-3" d="m288.13,29.2c-.84.95-.61,1.83.18,2.65.46.48,1.03.83,1.82,1.04l-.88.84c-.67-.25-1.26-.63-1.74-1.14-1.56-1.62-1.49-3.19-.06-4.56l.46-.44c1.42-1.36,2.99-1.37,4.38.08,1.34,1.4,1.08,2.73.22,3.55-.9.87-1.75.71-2.57-.14l-1.8-1.88Zm.76-.73l1.59,1.66c.38.4.71.51,1.1.13.5-.48.55-1.18-.09-1.85-.73-.76-1.64-.84-2.6.06Z"/><path class="cls-3" d="m291.42,33.61c1.1-.82,2.1-.65,3.13.73.43.58.72,1.24.83,1.79l.28-.22c.85-.68.97-1.27.21-2.3-.43-.58-1.06-1.04-1.73-1.27l.98-.73c.62.3,1.21.76,1.77,1.52,1.16,1.56.97,2.79-.4,3.81l-2.78,2.06c-.92-.35-1.75-1.03-2.4-1.89-1.24-1.67-1.02-2.68.1-3.51Zm2.02,3.96l1.19-.88c-.1-.51-.37-1.03-.7-1.47-.67-.9-1.15-1-1.73-.57-.58.43-.63.99,0,1.85.35.47.79.86,1.23,1.07Z"/><path class="cls-3" d="m298.39,47.61c-.83-.48-1.47-1.13-1.94-2.09-.97-1.98-.36-3.21,1.45-4.1l.56-.27c1.82-.89,3.17-.64,4.02,1.1.3.61.39,1.23.32,1.74l2.7-1.32.58,1.18-7.68,3.76Zm.09-5.01c-1.15.56-1.61,1.25-1.02,2.47.22.44.52.81.91,1.09l3.41-1.67c.11-.47.05-1.02-.22-1.57-.54-1.11-1.37-1.16-2.52-.6l-.57.28Z"/><path class="cls-3" d="m301.1,49.2c-1.16.5-1.32,1.4-.95,2.48.22.63.58,1.19,1.21,1.71l-1.15.39c-.51-.51-.87-1.1-1.1-1.76-.73-2.13,0-3.52,1.86-4.16l.6-.2c1.86-.64,3.29.02,3.94,1.91.63,1.83-.17,2.93-1.29,3.31-1.18.41-1.89-.09-2.27-1.21l-.84-2.46Zm.99-.34l.75,2.17c.18.53.43.76.95.58.66-.22,1-.83.69-1.72-.34-.99-1.14-1.45-2.39-1.04Z"/><path class="cls-3" d="m305.03,61.18c-.25,1.29-.66,1.68-1.52,1.81-1.21.19-2.04-.72-2.3-2.34-.11-.74-.13-1.8.12-2.58l1.24-.19c-.33.84-.39,1.79-.27,2.54.13.85.49,1.35,1.02,1.27.34-.05.53-.22.65-.84l.35-1.82c.25-1.28.63-1.67,1.47-1.8,1.2-.19,1.93.73,2.17,2.28.11.72.15,1.6-.03,2.29l-1.22.19c.24-.7.26-1.59.16-2.25-.13-.86-.39-1.29-.91-1.21-.29.04-.48.22-.6.83l-.34,1.82Z"/><path class="cls-3" d="m304.54,65.23c-1.26.15-1.67.96-1.63,2.09.02.67.21,1.31.66,1.99l-1.21.04c-.34-.63-.51-1.31-.54-2-.08-2.25,1.02-3.37,2.99-3.44l.63-.02c1.97-.07,3.15.98,3.22,2.97.07,1.93-1.02,2.75-2.2,2.8-1.25.04-1.78-.63-1.82-1.82l-.09-2.6Zm1.05-.04l.08,2.3c.02.56.19.85.74.83.69-.02,1.2-.51,1.16-1.44-.04-1.05-.67-1.72-1.98-1.69Z"/><path class="cls-3" d="m306.56,75.99c.47-.65.73-1.3.79-2.07.04-.47-.04-.97-.23-1.4l-5.23-.41.1-1.31,5.86.46c.42.83.68,1.88.6,2.9-.06.77-.27,1.38-.64,1.93l-1.25-.1Z"/><path class="cls-3" d="m300.85,79.76l.39-2.04,6.82-.81-.26,1.35-5.65.58-.04.2,5.02,2.65-.26,1.34-6.03-3.29Z"/><path class="cls-3" d="m306.4,84.56l-.36,1.26-6.29-1.81.36-1.26,6.29,1.81Zm1.81.42l.19.06c.41.12.52.44.38.9-.13.45-.39.68-.8.56l-.19-.06c-.42-.12-.51-.45-.38-.9.13-.46.38-.68.8-.56Z"/><path class="cls-3" d="m296.58,86.46c-.2.21-.36.47-.45.72-.18.46-.08.73.25.86.34.13.66.05.91-.6l.07-.19,1.03.4c.8-1.56,2.13-1.97,3.81-1.32l.57.22c1.85.71,2.53,2.11,1.76,4.11-.28.72-.67,1.27-1.15,1.68l-1.16-.45c.61-.4.98-.9,1.24-1.58.39-1,.24-1.99-1.18-2.54l-.57-.22c-1.4-.54-2.18.08-2.58,1.09-.26.68-.32,1.3-.14,2.01l-1.16-.45c-.07-.56-.02-1.1.17-1.72l-.42-.16c-.34.67-.94.96-1.62.7-.81-.31-1.06-1.04-.72-1.92.14-.37.34-.7.57-.93l.74.29Z"/><path class="cls-3" d="m300.43,92.48c1.74.92,2.26,2.39,1.31,4.17-.95,1.78-2.45,2.17-4.19,1.24l-.54-.28c-1.74-.92-2.26-2.39-1.31-4.17.95-1.78,2.46-2.17,4.19-1.24l.53.28Zm-2.25,4.26c1.23.65,2.09.31,2.59-.62.49-.93.27-1.83-.94-2.48l-.56-.3c-1.23-.65-2.09-.31-2.59.62-.49.92-.27,1.83.94,2.48l.56.3Z"/><path class="cls-3" d="m294.71,101.97c-1.07.76-1.63.75-2.35.26-1-.7-.98-1.93-.04-3.27.43-.61,1.15-1.38,1.87-1.77l1.02.71c-.82.38-1.51,1.02-1.95,1.64-.49.7-.58,1.32-.15,1.62.28.19.54.2,1.05-.16l1.51-1.07c1.06-.75,1.61-.77,2.31-.28.99.69.89,1.86,0,3.15-.42.6-1,1.26-1.6,1.64l-1.01-.71c.65-.34,1.29-.96,1.67-1.51.5-.71.61-1.21.19-1.5-.24-.17-.49-.18-1.01.19l-1.5,1.07Z"/></g><circle class="cls-2" cx="248.66" cy="67.83" r="42.31"/><path class="cls-1" d="m272.73,67.87c-.16-1.95-1.73-3.56-3.69-3.62-2.32-.07-4.13,1.9-3.95,4.15l-.25-2.96c-.16-1.95-1.73-3.56-3.69-3.62-2.32-.08-4.13,1.89-3.95,4.13l-.19-2.24c-.17-2.03-1.86-3.66-3.89-3.63-2.17.04-3.84,1.87-3.75,3.98l-.93-11.09c-.16-1.95-1.73-3.56-3.69-3.62-2.32-.07-4.13,1.9-3.95,4.15l2.35,27.86-8.95-8.69c-1.41-1.37-3.64-1.55-5.16-.31-1.8,1.47-1.87,4.15-.26,5.72l7.78,7.56,8.81,8.56.29,3.39.24,2.88c.03.36.19.69.42.93.07.07.14.13.22.19.08.06.16.1.25.14.13.06.28.1.43.12.1.01.2.01.31,0l21.62-1.82c.42-.04.78-.24,1.03-.53.05-.06.09-.12.13-.19l.06-.1c.03-.06.06-.12.08-.19l.04-.15c.04-.15.05-.31.04-.48l-.26-3.1s.5-.51,1.11-1.67l.05-.1c.07-.14.15-.3.23-.46.04-.08.08-.17.12-.25l.04-.08c.06-.13.12-.27.18-.41v-.02c.21-.49.41-1.04.6-1.65.32-1.05.54-2.12.68-3.2.01-.11.03-.22.04-.33.12-1.11.16-2.22.11-3.34l-.16-3.54-.46-10.44-.08-1.92Z"/><path class="cls-4" d="m269.95,65.24c-.16-1.95-1.73-3.56-3.69-3.62-2.32-.07-4.13,1.9-3.95,4.15l-.25-2.96c-.16-1.95-1.73-3.56-3.69-3.62-2.32-.08-4.13,1.89-3.95,4.14l-.19-2.24c-.17-2.03-1.86-3.66-3.89-3.63-2.17.04-3.84,1.87-3.75,3.98l-.93-11.09c-.16-1.95-1.73-3.56-3.69-3.62-2.32-.07-4.13,1.9-3.95,4.15l2.35,27.86-8.95-8.69c-1.41-1.37-3.64-1.55-5.16-.31-1.8,1.47-1.87,4.15-.26,5.72l7.78,7.56,8.81,8.56.29,3.39.24,2.88c.03.36.19.69.42.93.07.07.14.13.22.19.08.06.16.1.25.14.13.06.28.1.43.12.1.01.2.01.31,0l21.62-1.82c.42-.04.78-.24,1.03-.53.05-.06.09-.12.13-.19l.06-.1c.03-.06.06-.12.08-.19l.04-.15c.04-.15.05-.31.04-.48l-.26-3.1s.5-.51,1.11-1.67l.05-.1c.07-.14.15-.3.23-.46.04-.08.08-.17.12-.25l.04-.08c.06-.13.12-.27.17-.41v-.02c.21-.49.41-1.04.6-1.65.32-1.05.54-2.12.68-3.2.01-.11.03-.22.04-.33.12-1.11.16-2.22.11-3.34l-.16-3.54-.46-10.44-.08-1.92Z"/><path class="cls-3" d="m240.8,39.96c.43-.04.76-.42.72-.85l-.4-4.76c-.04-.43-.42-.76-.85-.72s-.76.42-.72.85l.4,4.76c.04.43.42.76.85.72Z"/><path class="cls-3" d="m250.3,47.99c.04.44.42.76.85.72l4.76-.4c.43-.04.76-.42.72-.85s-.42-.76-.85-.72l-4.76.4c-.43.04-.76.42-.72.85Z"/><path class="cls-3" d="m227.3,50.72l4.76-.4c.44-.04.76-.42.72-.85s-.42-.76-.85-.72l-4.76.4c-.44.04-.76.42-.72.85s.42.76.85.72Z"/><path class="cls-3" d="m247.21,42.01c.17.14.37.2.58.18s.4-.11.54-.28l3.08-3.65c.28-.33.24-.83-.09-1.11-.33-.28-.83-.24-1.11.09l-3.08,3.65c-.28.33-.24.83.09,1.11Z"/><path class="cls-3" d="m232.34,60.48c.2-.02.4-.11.54-.28l3.08-3.65c.28-.33.24-.83-.09-1.11-.33-.28-.83-.24-1.11.09l-3.08,3.65c-.28.33-.24.83.09,1.11.17.14.38.2.58.18Z"/><path class="cls-3" d="m233.71,43.14c.17.14.37.2.58.18s.4-.11.54-.28c.28-.33.24-.83-.09-1.11l-3.65-3.08c-.33-.28-.83-.24-1.11.09-.28.33-.24.83.09,1.11l3.65,3.08Z"/><path class="cls-3" d="m244.3,40.37c.1.03.21.05.31.04.31-.03.58-.23.68-.54l1.5-4.53c.14-.41-.09-.86-.5-1-.42-.14-.86.09-1,.5l-1.5,4.53c-.14.41.09.86.5,1Z"/><path class="cls-3" d="m250.89,50.98c-.41-.14-.86.09-1,.5-.14.41.09.86.5,1l4.53,1.5c.1.03.21.05.31.04.31-.03.58-.23.68-.54.14-.41-.09-.86-.5-1l-4.53-1.5Z"/><path class="cls-3" d="m227.66,44.97l4.53,1.5c.1.03.21.05.31.04.31-.03.58-.23.68-.54.14-.41-.09-.86-.5-1l-4.53-1.5c-.41-.14-.86.09-1,.5-.14.41.09.86.5,1Z"/><path class="cls-3" d="m249.39,44.77c.15.3.46.46.77.43.1,0,.2-.03.29-.08l4.26-2.15c.39-.2.55-.67.35-1.06-.2-.39-.67-.55-1.06-.35l-4.26,2.15c-.39.2-.55.67-.35,1.06Z"/><path class="cls-3" d="m233.68,52.68c-.2-.39-.67-.55-1.06-.35l-4.26,2.15c-.39.2-.55.67-.35,1.06.15.3.46.46.77.43.1,0,.2-.03.29-.08l4.26-2.15c.39-.2.55-.67.35-1.06Z"/><path class="cls-3" d="m236.52,40.52c.15.3.46.46.77.43.1,0,.2-.04.29-.08.39-.2.55-.67.35-1.06l-2.15-4.26c-.2-.39-.67-.55-1.06-.35-.39.2-.55.67-.35,1.06l2.15,4.26Z"/><path class="cls-3" d="m260.27,84.27c-4.33,2.31-9.61,3.61-14.82,3.19-4.5-.32-8.29-2.02-11.66-4.45l8.81,8.56.29,3.39.24,2.88c.03.36.19.69.42.93.07.07.14.13.22.19.08.06.16.1.25.14.13.06.28.1.43.12.1.01.2.01.31,0l21.62-1.82c.42-.04.78-.24,1.03-.53.05-.06.09-.12.13-.19l.06-.1c.03-.06.06-.12.08-.19.07-.19.1-.41.08-.63l-.26-3.1s.5-.51,1.11-1.67l.05-.1c.07-.14.15-.3.23-.46.04-.08.08-.17.12-.25l.04-.08c.06-.13.12-.27.17-.41v-.02c.21-.49.41-1.04.6-1.65.32-1.05.54-2.12.68-3.2.01-.11.03-.22.04-.33.12-1.11.16-2.22.11-3.34l-.16-3.54-.46-10.44c-1.34,6.82-3.52,13.75-9.76,17.12Z"/></g><path class="cls-3" d="m253.42,147.36l14.65-26.04c1.08-1.92-.32-4.28-2.52-4.26l-15.28,2.9-14.6-2.57c-2.2.02-3.55,2.42-2.43,4.31l15.22,25.71c1.12,1.89,3.87,1.86,4.95-.05Z"/></g><g><g><g><g><polygon class="cls-8" points="247.1 455.18 321.39 698.23 340 698.22 308.55 451.72 247.1 455.18"/><polygon class="cls-8" points="217.06 689.72 239.71 689.71 273.86 450.57 216.04 450.58 217.06 689.72"/><path class="cls-14" d="m330.42,690.21c-5.29,0-9.58,4.58-9.58,10.22v7.66h19.16s0-7.66,0-7.66c0-5.64-4.29-10.22-9.58-10.22Z"/><path class="cls-12" d="m236.19,297.51c-.03.11-.06.22-.09.33-.15.55-.25,1.1-.46,1.63l-2.1,5.44-24.83,64.55-7.33,18.98c-3,7.81-11.35,11.54-18.65,8.32-7.33-3.2-10.83-12.1-7.83-19.89l7.3-18.98,27-70.12c.15-.37.3-.72.45-1.07.32-.67.7-1.31,1.08-1.89,3.78-5.65,10.83-8,17.1-5.25,3.1,1.36,5.53,3.76,7.05,6.67.18.35.32.67.48.99.58,1.31.98,2.69,1.18,4.13.05.35.07.72.1,1.09.05.43.08.83.08,1.25,0,.14-.04.29-.04.43-.02.62-.08,1.23-.17,1.85-.07.52-.19,1.03-.32,1.55Z"/><path class="cls-5" d="m182.21,357.88l26.5,11.57,3.25-8.48,14.1-36.63,6.35-16.5,1.13-2.93,2.08-5.57c.88-2.27,1.2-4.61,1.03-6.91-.03-.37-.05-.75-.1-1.09-.2-1.44-.6-2.83-1.18-4.13-.15-.32-.3-.64-.48-.99-1.5-2.93-3.93-5.36-7.05-6.75-1.45-.61-2.93-.99-4.4-1.09-1.48-.13-2.93,0-4.33.35-2.05.53-3.98,1.52-5.6,2.91-1.05.91-2,1.95-2.78,3.17-.4.59-.75,1.23-1.08,1.89-.15.35-.3.69-.45,1.07l-27,70.12Z"/><path class="cls-9" d="m357.21,401.03c-7.38,3.04-15.68-.83-18.55-8.69l-6.98-19.09-25.8-70.62c-.18-.45-.3-.91-.42-1.36-.22-.88-.38-1.79-.48-2.67-.55-6.61,2.98-13.09,9.08-15.62,1.7-.72,3.45-1.04,5.2-1.04,5.7,0,11.13,3.68,13.33,9.7l25.78,70.52,6.98,19.09c2.88,7.87-.78,16.72-8.13,19.78Z"/><path class="cls-5" d="m358.36,362.16l-26.68,11.09-25.8-70.62c-.18-.45-.3-.91-.42-1.36-.25-.88-.4-1.79-.48-2.67-.55-6.61,2.98-13.09,9.08-15.62,1.7-.72,3.45-1.04,5.2-1.04,5.7,0,11.13,3.68,13.33,9.7l25.78,70.52Z"/><path class="cls-5" d="m211.8,488.98l101.89-.03,4.55-139.28,4.98-67.11-37.48-14.08s-41.73.27-41.56,0l-20.48,8.13-2.93,1.17c-.35.13-.68.29-1,.45-2.1,1.09-3.85,2.83-5,4.93-1.05,1.87-1.65,4.03-1.68,6.32l-.48,71-.83,128.48Z"/><path class="cls-14" d="m199.19,708.09h38.75s1.71-18.37,1.71-18.37h-22.69c-9.63,0-17.46,8.18-17.76,18.37Z"/><path class="cls-9" d="m243.91,269.61s5.54,5.26,21.09,5.26c15.55,0,21.09-5.26,21.09-5.26v-34.07s-42.17,0-42.17,0v34.07Z"/></g><path class="cls-9" d="m244.18,268.5l-8.51,3.38s-2.66,16.46,26.36,16.69c29.02.23,34.03-16.19,34.03-16.19l-10.33-3.88h-41.55Z"/><path class="cls-6" d="m210.37,585.98h69.31c14.24,0,25.79-10.89,25.79-24.32v-160.83s-24.17-68.3-24.17-68.3c-2.43-6.86-9.23-11.48-16.9-11.48h-33.82c-5.74,0-10.64,4.43-11.57,10.47l-6.94,44.7-1.69,209.76Z"/><polygon class="cls-6" points="269.67 331.12 276.37 338.08 315.62 279.73 305.9 276.08 269.67 331.12"/><path class="cls-6" d="m214.17,281.16l3.94,58.76,9.99-8.15-4.4-55.15s-7.9,3.15-9.53,4.53Z"/><rect class="cls-6" x="305.47" y="471.53" width="8.78" height="19.16" transform="translate(619.71 962.23) rotate(-180)"/></g><g><polygon class="cls-14" points="83.99 702.28 75.58 702.28 354.86 232.07 363.27 232.07 83.99 702.28"/><path class="cls-11" d="m67.59,674.32c5.55-9.34,17.41-16.91,26.5-16.91h24.72c9.09,0,11.96,7.57,6.41,16.91l-20.06,33.77h-57.62s20.06-33.77,20.06-33.77Z"/><path class="cls-11" d="m61.91,680.44h2.04s-16.42,27.65-16.42,27.65h-29.22c9.24-15.3,28.68-27.65,43.6-27.65Z"/><polygon class="cls-11" points="87.58 689.16 120.74 708.09 0 708.09 87.58 689.16"/><polygon class="cls-14" points="124.91 646.19 100.12 646.19 93.46 657.41 118.24 657.41 124.91 646.19"/><path class="cls-11" d="m133.14,630.34h-22.42c-4.26,0-9.82,3.55-12.42,7.93h0c-2.6,4.38-1.26,7.93,3,7.93h22.42c4.26,0,9.82-3.55,12.42-7.93h0c2.6-4.38,1.26-7.93-3-7.93Z"/></g><path class="cls-9" d="m295.06,354.59l-6.79,13.43,57.47,35.92c6.94,3.99,15.6,1.23,19.34-6.17h0c4.13-8.17.51-18.34-7.67-21.52l-62.35-21.66Z"/><path class="cls-11" d="m295.03,354.59l20.59,7.18-8.65,18.61s-17.1-10.82-16.87-11.14,4.93-14.64,4.93-14.64Z"/><path class="cls-11" d="m279.12,339.27l-9.93,6.53,12.96,22.39c2.04,3.52,6.37,4.62,9.67,2.44l2.08-1.37c4.33-2.85,5.68-8.91,3-13.52l-8.12-14.03c-2.04-3.52-6.37-4.62-9.67-2.44Z"/><path class="cls-12" d="m232.54,411.28l-38.15-36.81c-5.38-6.28-12.66-8-17.71-1.4h0c-5.05,6.59-2.76,18.57,3.77,23.33l45.97,26.47,6.12-11.59Z"/><path class="cls-11" d="m234.24,412.28l-16.36-15.14-10.52,17.47s17.5,10.08,17.64,9.7c.14-.38,9.24-12.04,9.24-12.04Z"/><path class="cls-11" d="m256.26,425.66l-18.78-13.59c-4.09-2.96-9.66-1.82-12.44,2.54l-2.01,3.16c-2.78,4.37-1.71,10.31,2.38,13.27l11.37,8.22c4.09,2.96,9.66,1.82,12.44-2.54l7.04-11.07Z"/></g><g><g><path class="cls-9" d="m287.26,200.83v12.27h-1.23s0,32.87,0,32.87c0,0-14.41,12.94-35.15,10.74-10.34-1.11-18.19-10.45-18.19-21.52v-34.36c0-4.16.84-8.11,2.34-11.66,1.33-3.18,3.19-6.04,5.47-8.46,4.82-5.16,11.51-8.34,18.87-8.34h1.22c14.74,0,26.69,12.75,26.69,28.46Z"/><path class="cls-14" d="m252.79,236.77s12.88,2.94,20.34-7.04c2.7-3.6,3.95-10.4,3.95-10.4h5.01v24.15s-4.73,17-30.4,17c-7.41,0-12.06-1.45-14.9-2.99-2.56-1.39-4.11-4.13-4.11-7.06v-33.16s.11,15.58,3.26,19.37l16.85.13Z"/><path class="cls-9" d="m287.37,210.31h6.48v20c0,2.95-2.39,5.34-5.34,5.34h-1.14c-2.91,0-5.28-2.36-5.28-5.28v-14.79c0-2.91,2.36-5.28,5.28-5.28Z" transform="translate(575.94 445.96) rotate(-180)"/><path class="cls-14" d="m239.74,223.39l-.05,1.64c-.04,1.53.48,2.98,1.48,4.09,1,1.1,2.35,1.71,3.79,1.71v-2.65c-.76,0-1.47-.32-2.01-.9-.53-.58-.81-1.35-.78-2.16l.05-1.72h-2.48Z"/></g><ellipse class="cls-14" cx="257.12" cy="216.7" rx="2.98" ry="3.97"/><ellipse class="cls-14" cx="237.46" cy="216.59" rx="2.44" ry="3.84"/><path class="cls-14" d="m258.78,207.54c-2.46-.39-4.53.18-4.55.18-.86.25-1.98-.72-2.21-1.64-.23-.93.46-2.43,1.33-2.67.11-.03,2.72-.76,5.87-.26,3.13.5,5.58,2.02,5.68,2.08.77.49-3.64,2.71-6.13,2.31Z"/><path class="cls-14" d="m239.71,207.07c-.29.04-.59-.02-.87-.19-.03-.02-.99-.59-1.99-.45-1.02.14-4.42-.96-3.84-1.6.15-.16,1.49-1.57,3.42-1.84,1.92-.27,3.56.73,3.74.84.72.46,1.01,1.51.64,2.35-.23.51-.64.83-1.1.89Z"/><path class="cls-14" d="m233.69,232.27h25.76v1.11c0,5.72-4.64,10.36-10.36,10.36h-5.03c-5.72,0-10.36-4.64-10.36-10.36v-1.11h0Z" transform="translate(493.13 476.02) rotate(-180)"/><path class="cls-9" d="m245.46,240.43h1.6c4.12,0,7.46,3.34,7.46,7.46v3.83h-16.52v-3.83c0-4.12,3.34-7.46,7.46-7.46Z" transform="translate(492.52 492.15) rotate(-180)"/><rect class="cls-14" x="242.56" y="245.62" width="4.52" height="7.97" transform="translate(489.63 499.21) rotate(-180)"/><path class="cls-13" d="m254.52,240.43h-16.52s1.67,3.56,7.08,3.56,9.44-3.56,9.44-3.56Z"/><path class="cls-14" d="m250.47,244.78s-2.37.84-5.37.84c-3.01,0-4.88-.84-4.88-.84,0,0,4.5,7.41,10.26,0Z"/></g></g></g></g></g></g></svg>