<?xml version="1.0" encoding="UTF-8"?>
<svg xmlns="http://www.w3.org/2000/svg" viewBox="0 0 157.42 154.03">
  <defs>
    <style>
      .cls-1 {
        fill: #8ab9d3;
        opacity: .25;
      }

      .cls-2 {
        fill: #fff;
      }

      .cls-3 {
        fill: #004991;
      }

      .cls-4 {
        fill: #045aa0;
      }

      .cls-5 {
        isolation: isolate;
      }

      .cls-6 {
        fill: #3a7ec1;
        mix-blend-mode: multiply;
        opacity: .2;
      }
    </style>
  </defs>
  <g class="cls-5">
    <g id="Layer_2" data-name="Layer 2">
      <g id="Camada_1" data-name="Camada 1">
        <g>
          <circle class="cls-6" cx="75.23" cy="91.41" r="45.03" transform="translate(-23.02 157.45) rotate(-84.45)"/>
          <circle class="cls-3" cx="73.11" cy="85.11" r="45.03"/>
          <g>
            <path class="cls-4" d="m20.78,87.32c1.68-.01,2.23-.97,2.23-2.19,0-.82-.19-1.48-.68-2.14h1.38c.34.61.53,1.34.54,2.2.02,2.38-1.24,3.58-3.46,3.59h-.68c-2.21.02-3.49-1.15-3.51-3.54,0-.86.17-1.59.51-2.22h1.38c-.47.66-.65,1.32-.65,2.14,0,1.2.57,2.17,2.26,2.16h.68Z"/>
            <path class="cls-4" d="m14.14,79.09l8.67.87c.39.04.55-.1.58-.45.03-.27.03-.56-.01-.85l1.21.12c.02.33.02.75-.02,1.16-.11,1.08-.66,1.61-1.86,1.49l-8.71-.88.15-1.46Z"/>
            <path class="cls-4" d="m15.46,76.21l-.22-.04c-.47-.08-.63-.43-.53-.95.09-.51.36-.8.83-.71l.22.04c.49.09.62.44.53.95-.09.53-.34.8-.83.71Zm2.06.25l.26-1.44,7.19,1.28-.26,1.44-7.19-1.28Z"/>
            <path class="cls-4" d="m29.87,69.44l-.41,1.41-3.22-.95c.18.55.19,1.25-.02,1.98-.61,2.07-2.05,2.6-4.21,1.96l-.66-.2c-2.16-.64-3.06-1.89-2.37-4.24.34-1.15.92-1.98,1.74-2.66l9.16,2.7Zm-7.44,3c1.37.4,2.26.2,2.66-1.13.19-.65.15-1.26-.05-1.76l-4.06-1.2c-.38.37-.64.84-.8,1.37-.43,1.45.21,2.12,1.58,2.52l.68.2Z"/>
            <path class="cls-4" d="m22.82,60.14l.62-1.33,5.94,2.78c.13,1.02-.04,2.24-.52,3.27-.94,2.02-2.2,2.35-4.07,1.47l-4-1.87.62-1.33,3.88,1.82c1.24.58,1.97.38,2.52-.78.23-.49.34-.99.31-1.55l-5.3-2.48Z"/>
            <path class="cls-4" d="m28.94,58.12c1.23.69,2.14.23,2.84-.83.42-.62.66-1.32.69-2.23l1.13.75c-.11.79-.39,1.52-.82,2.17-1.39,2.09-3.12,2.39-4.95,1.17l-.59-.39c-1.83-1.22-2.21-2.94-.97-4.79,1.2-1.79,2.72-1.83,3.82-1.09,1.16.78,1.2,1.73.46,2.84l-1.61,2.42Zm-.97-.65l1.43-2.13c.34-.52.38-.9-.12-1.24-.65-.43-1.42-.32-1.99.55-.65.97-.52,1.99.69,2.82Z"/>
            <path class="cls-4" d="m35.24,50.81c-1.07-1.11-1.02-2.23.37-3.56.58-.56,1.27-.97,1.87-1.17l-.28-.27c-.87-.84-1.55-.9-2.57.09-.58.56-1,1.32-1.16,2.09l-.95-.98c.24-.72.66-1.44,1.43-2.18,1.56-1.51,2.95-1.47,4.27-.1l2.68,2.78c-.26,1.07-.89,2.09-1.75,2.92-1.68,1.61-2.82,1.5-3.9.39Zm4.1-2.8l-1.15-1.19c-.55.18-1.09.56-1.52.98-.9.87-.94,1.42-.39,2,.56.58,1.19.56,2.05-.27.47-.45.84-1,1.01-1.52Z"/>
            <path class="cls-4" d="m49.16,46.07l-1.2.85-1.94-2.74c-.2.54-.62,1.1-1.24,1.54-1.76,1.25-3.22.78-4.52-1.06l-.4-.56c-1.3-1.84-1.23-3.37.77-4.79.98-.69,1.95-.98,3.01-1.01l5.52,7.78Zm-7.69-2.25c.82,1.16,1.66,1.56,2.78.76.55-.39.9-.9,1.05-1.42l-2.45-3.45c-.53.06-1.03.26-1.47.58-1.23.87-1.14,1.8-.32,2.96l.41.58Z"/>
            <path class="cls-4" d="m49.41,34.4l1.31-.65,2.93,5.86c-.54.88-1.42,1.73-2.44,2.24-1.99.99-3.18.47-4.1-1.37l-1.97-3.95,1.31-.65,1.91,3.83c.61,1.22,1.31,1.52,2.46.95.48-.24.88-.57,1.2-1.03l-2.61-5.23Z"/>
            <path class="cls-4" d="m52.25,30.97l-.08-.21c-.17-.45.05-.75.56-.94.49-.18.87-.09,1.03.36l.08.21c.17.46-.07.76-.56.94-.5.18-.86.11-1.03-.36Zm.82,1.91l1.38-.5,2.51,6.86-1.38.5-2.51-6.86Z"/>
            <path class="cls-4" d="m60.66,31.27c.77-.74,1.66-1.22,2.84-1.42,2.43-.42,3.56.61,3.94,2.84l.12.68c.39,2.22-.31,3.59-2.43,3.96-.75.13-1.44.04-1.97-.2l.57,3.31-1.44.25-1.63-9.41Zm5.34,1.66c-.24-1.4-.83-2.12-2.33-1.86-.54.09-1.04.31-1.45.64l.72,4.17c.47.26,1.09.37,1.75.25,1.36-.24,1.67-1.11,1.43-2.51l-.12-.7Z"/>
            <path class="cls-4" d="m68.83,34.3c-.03-1.54.77-2.33,2.69-2.37.8-.02,1.6.15,2.17.41l-.02-.4c-.07-1.21-.53-1.71-1.95-1.68-.8.02-1.63.29-2.27.75l-.03-1.37c.67-.37,1.47-.61,2.52-.63,2.17-.04,3.16.92,3.2,2.82l.08,3.86c-.92.61-2.07.93-3.27.96-2.33.05-3.09-.81-3.12-2.36Zm4.91.73l-.04-1.65c-.53-.24-1.18-.33-1.78-.32-1.25.03-1.66.4-1.64,1.21.02.8.49,1.22,1.69,1.19.65-.01,1.29-.17,1.77-.43Z"/>
            <path class="cls-4" d="m82.44,31.66c-.7-.55-1.42-.87-2.27-.97-.52-.06-1.08,0-1.57.2l-.67,5.81-1.46-.17.75-6.51c.94-.43,2.12-.68,3.26-.55.85.1,1.53.36,2.12.8l-.16,1.39Z"/>
            <path class="cls-4" d="m82.46,34.97c.38-1.49,1.36-2.04,3.21-1.57.78.2,1.5.57,1.98.96l.08-.39c.25-1.19-.06-1.79-1.44-2.13-.78-.2-1.65-.15-2.38.13l.33-1.33c.74-.18,1.58-.2,2.6.06,2.1.53,2.81,1.72,2.34,3.57l-.94,3.74c-1.05.35-2.24.35-3.4.06-2.25-.57-2.77-1.6-2.39-3.1Zm4.54,2l.4-1.6c-.44-.37-1.05-.63-1.64-.77-1.22-.31-1.7-.05-1.9.73-.2.78.15,1.3,1.31,1.59.63.16,1.29.18,1.82.05Z"/>
            <path class="cls-4" d="m98.25,31.76l-3.62,7.93c-.16.36-.08.55.24.7.24.11.53.21.81.26l-.5,1.1c-.32-.08-.72-.22-1.09-.39-.99-.45-1.31-1.14-.81-2.24l3.63-7.96,1.33.61Z"/>
            <path class="cls-4" d="m98.4,40.05c-.63,1.27-.12,2.15.97,2.8.64.38,1.35.6,2.26.58l-.7,1.16c-.8-.07-1.54-.31-2.2-.71-2.15-1.29-2.54-3-1.41-4.89l.36-.6c1.13-1.89,2.82-2.35,4.73-1.21,1.85,1.11,1.96,2.62,1.28,3.76-.72,1.2-1.67,1.28-2.81.6l-2.49-1.49Zm.6-1l2.2,1.32c.53.32.92.34,1.23-.18.4-.67.25-1.43-.65-1.97-1-.6-2.02-.42-2.78.83Z"/>
            <path class="cls-4" d="m109.67,44.85c-.3-.84-.74-1.49-1.41-2.03-.41-.33-.92-.57-1.44-.66l-3.66,4.57-1.15-.92,4.1-5.12c1.03.14,2.16.55,3.05,1.27.67.54,1.11,1.12,1.37,1.8l-.87,1.09Z"/>
            <path class="cls-4" d="m110.65,50.35c1.18-.98,2.3-.84,3.52.63.51.62.87,1.34,1.03,1.95l.29-.26c.91-.8,1.01-1.48.1-2.57-.51-.62-1.24-1.1-2-1.31l1.05-.87c.7.3,1.39.77,2.06,1.59,1.38,1.67,1.24,3.05-.22,4.26l-2.98,2.46c-1.05-.34-2.01-1.04-2.78-1.97-1.48-1.79-1.29-2.93-.09-3.91Zm2.48,4.3l1.27-1.05c-.14-.56-.47-1.13-.86-1.59-.8-.97-1.34-1.05-1.96-.54-.62.51-.65,1.14.11,2.06.41.5.94.91,1.44,1.12Z"/>
            <path class="cls-4" d="m116.18,61.67l-.61-1.33,5.95-2.74c.77.47,1.59,1.27,2.04,2.23.38.83.47,1.54.3,2.14.67.44,1.15,1.02,1.52,1.83.85,1.86.31,3.07-1.56,3.93l-4.01,1.84-.61-1.33,3.89-1.79c1.24-.57,1.56-1.26,1.08-2.3-.22-.47-.53-.84-.98-1.15-.32.29-.71.54-1.2.77l-4.01,1.84-.61-1.33,3.89-1.79c1.24-.57,1.56-1.26,1.08-2.3-.18-.4-.51-.76-.85-.97l-5.33,2.45Z"/>
            <path class="cls-4" d="m122.16,69.99c1.49-.37,2.44.24,2.9,2.1.19.78.21,1.59.08,2.2l.38-.11c1.17-.33,1.55-.89,1.21-2.28-.19-.78-.64-1.53-1.24-2.05l1.33-.33c.51.57.92,1.3,1.17,2.32.52,2.11-.2,3.29-2.04,3.75l-3.75.93c-.8-.76-1.37-1.81-1.66-2.97-.56-2.26.11-3.19,1.61-3.57Zm.38,4.95l1.6-.4c.12-.57.06-1.22-.09-1.81-.3-1.22-.76-1.53-1.54-1.33-.78.19-1.08.75-.79,1.91.16.63.45,1.22.81,1.63Z"/>
            <path class="cls-4" d="m128.97,77.51l2.15-.27.18,1.46-2.16.27.26,2.13-1.23.15-.26-2.13-3.92.49c-.73.09-1.01.35-.92,1.02.06.45.17.83.38,1.2l-1.19.15c-.22-.37-.39-.95-.46-1.49-.19-1.5.58-2.16,1.97-2.33l3.96-.49-.16-1.29,1.23-.15.16,1.29Z"/>
            <path class="cls-4" d="m125.19,84.02c-1.41.11-1.91.99-1.91,2.26,0,.75.18,1.47.65,2.24h-1.35c-.35-.73-.52-1.49-.51-2.26,0-2.51,1.28-3.72,3.48-3.71h.7c2.2.01,3.46,1.23,3.46,3.46,0,2.16-1.25,3.03-2.58,3.02-1.4,0-1.96-.78-1.95-2.11v-2.9Zm1.18,0v2.57c-.01.62.17.96.78.96.77,0,1.35-.52,1.36-1.56,0-1.17-.67-1.95-2.14-1.97Zm5.98,3.21l-.45-.41c-.58-.52-1.19-1.25-1.56-1.91l.57-.6,2.26,2.02-.82.9Z"/>
            <path class="cls-4" d="m126.8,96.18c.57-.69.91-1.4,1.03-2.25.07-.52.02-1.08-.16-1.58l-5.8-.82.21-1.45,6.49.92c.41.96.62,2.14.46,3.27-.12.85-.4,1.52-.85,2.1l-1.38-.2Z"/>
            <path class="cls-4" d="m128.12,98.1l-.35,1.42-7.09-1.72.35-1.42,7.09,1.72Zm2.04.38l.22.05c.47.11.6.46.47.98-.12.51-.4.77-.87.66l-.22-.05c-.48-.12-.59-.48-.47-.99.13-.52.39-.77.87-.66Z"/>
            <path class="cls-4" d="m122.53,99.94c1.44.52,1.9,1.56,1.24,3.36-.27.76-.71,1.44-1.16,1.87l.38.12c1.15.37,1.79.12,2.27-1.22.27-.76.32-1.62.11-2.39l1.29.47c.1.76.04,1.59-.32,2.58-.74,2.04-2,2.62-3.79,1.97l-3.63-1.31c-.24-1.08-.13-2.26.28-3.39.79-2.19,1.87-2.59,3.33-2.07Zm-2.45,4.32l1.55.56c.42-.4.73-.98.94-1.55.43-1.18.22-1.69-.53-1.96-.76-.27-1.31.02-1.72,1.15-.22.61-.31,1.27-.23,1.8Z"/>
          </g>
          <circle class="cls-2" cx="72.73" cy="84.69" r="39.26"/>
          <path class="cls-1" d="m95.05,84.73c-.15-1.81-1.61-3.3-3.43-3.36-2.15-.07-3.84,1.76-3.66,3.85l-.23-2.75c-.15-1.81-1.6-3.3-3.42-3.36-2.15-.07-3.83,1.76-3.66,3.84l-.17-2.08c-.16-1.88-1.72-3.4-3.61-3.36-2.01.04-3.56,1.74-3.48,3.69l-.87-10.29c-.15-1.81-1.61-3.3-3.43-3.36-2.15-.07-3.84,1.76-3.66,3.85l2.18,25.85-8.3-8.07c-1.31-1.27-3.38-1.44-4.79-.29-1.67,1.36-1.74,3.85-.24,5.31l7.22,7.01,8.18,7.94.26,3.14.22,2.67c.03.34.17.64.39.86.06.06.13.12.21.17.07.05.15.1.24.13.12.05.26.09.4.11.09.01.19.01.28,0l20.06-1.69c.39-.03.72-.22.95-.49.05-.05.09-.11.12-.17l.05-.09c.03-.06.05-.11.08-.18l.04-.14c.03-.14.05-.29.03-.44l-.24-2.88s.46-.47,1.03-1.55l.05-.1c.07-.13.14-.28.21-.43.04-.08.07-.15.11-.24l.03-.08c.05-.12.11-.25.16-.38v-.02c.19-.45.38-.96.55-1.53.3-.97.5-1.97.63-2.97.01-.1.03-.2.04-.31.12-1.03.15-2.06.1-3.1l-.14-3.28-.43-9.69-.08-1.78Z"/>
          <path class="cls-4" d="m92.48,82.29c-.15-1.81-1.61-3.3-3.43-3.36-2.15-.07-3.84,1.76-3.66,3.85l-.23-2.75c-.15-1.81-1.6-3.3-3.42-3.36-2.15-.07-3.83,1.76-3.66,3.84l-.18-2.08c-.16-1.88-1.72-3.4-3.61-3.36-2.01.04-3.56,1.74-3.48,3.69l-.87-10.29c-.15-1.81-1.61-3.3-3.43-3.36-2.15-.07-3.84,1.76-3.66,3.85l2.18,25.85-8.3-8.07c-1.31-1.27-3.38-1.44-4.79-.29-1.67,1.36-1.74,3.85-.24,5.31l7.22,7.01,8.18,7.94.26,3.14.22,2.67c.03.34.17.64.39.86.06.06.13.12.21.17.07.05.15.1.24.13.12.05.26.09.4.11.09.01.19.01.28,0l20.06-1.69c.39-.03.72-.22.95-.49.05-.05.09-.11.12-.17l.05-.09c.03-.06.05-.11.08-.18l.04-.14c.03-.14.05-.29.03-.44l-.24-2.88s.46-.47,1.03-1.55l.05-.1c.07-.13.14-.28.21-.43.04-.08.07-.15.11-.24l.04-.08c.05-.12.11-.25.16-.38v-.02c.19-.45.38-.96.55-1.53.3-.97.5-1.97.63-2.97.01-.1.03-.2.04-.31.12-1.03.15-2.06.1-3.1l-.14-3.28-.43-9.69-.08-1.78Z"/>
          <path class="cls-3" d="m65.43,58.84c.4-.03.7-.39.67-.79l-.37-4.41c-.03-.4-.39-.7-.79-.67s-.7.39-.67.79l.37,4.41c.03.4.39.7.79.67Z"/>
          <path class="cls-3" d="m74.25,66.28c.03.4.39.7.79.67l4.41-.37c.4-.03.7-.39.67-.79s-.39-.7-.79-.67l-4.41.37c-.4.03-.7.39-.67.79Z"/>
          <path class="cls-3" d="m52.9,68.82l4.41-.37c.4-.03.7-.39.67-.79s-.39-.7-.79-.67l-4.41.37c-.4.03-.7.39-.67.79s.39.7.79.67Z"/>
          <path class="cls-3" d="m71.38,60.73c.15.13.35.19.53.17s.37-.1.5-.26l2.86-3.38c.26-.31.22-.77-.09-1.03-.31-.26-.77-.22-1.03.09l-2.86,3.38c-.26.31-.22.77.09,1.03Z"/>
          <path class="cls-3" d="m57.58,77.88c.19-.02.37-.1.5-.26l2.86-3.38c.26-.31.22-.77-.09-1.03-.31-.26-.77-.22-1.03.09l-2.86,3.38c-.26.31-.22.77.09,1.03.15.13.35.19.53.17Z"/>
          <path class="cls-3" d="m58.85,61.79c.15.13.35.19.53.17s.37-.1.5-.26c.26-.31.22-.77-.09-1.03l-3.38-2.86c-.31-.26-.77-.22-1.03.09-.26.31-.22.77.09,1.03l3.38,2.86Z"/>
          <path class="cls-3" d="m68.68,59.22c.1.03.2.04.29.03.28-.02.54-.21.64-.5l1.39-4.21c.13-.38-.08-.8-.47-.93-.39-.13-.8.08-.93.47l-1.39,4.21c-.13.38.08.8.47.93Z"/>
          <path class="cls-3" d="m74.79,69.06c-.38-.13-.8.08-.93.47-.13.38.08.8.47.93l4.21,1.39c.1.03.2.04.29.03.28-.02.54-.21.64-.5.13-.38-.08-.8-.47-.93l-4.21-1.39Z"/>
          <path class="cls-3" d="m53.24,63.48l4.21,1.39c.1.03.2.04.29.03.28-.02.54-.21.64-.5.13-.38-.08-.8-.47-.93l-4.21-1.39c-.38-.13-.8.08-.93.47-.13.38.08.8.47.93Z"/>
          <path class="cls-3" d="m73.41,63.3c.14.28.43.43.72.4.09,0,.18-.03.27-.08l3.96-1.99c.36-.18.51-.62.33-.98-.18-.36-.62-.51-.98-.33l-3.96,1.99c-.36.18-.51.62-.33.98Z"/>
          <path class="cls-3" d="m58.83,70.63c-.18-.36-.62-.51-.98-.33l-3.96,1.99c-.36.18-.51.62-.33.98.14.28.43.43.72.4.09,0,.18-.03.27-.08l3.96-1.99c.36-.18.51-.62.33-.98Z"/>
          <path class="cls-3" d="m61.46,59.35c.14.28.43.43.72.4.09,0,.18-.03.27-.08.36-.18.51-.62.33-.98l-1.99-3.96c-.18-.36-.62-.51-.98-.33-.36.18-.51.62-.33.98l1.99,3.96Z"/>
          <path class="cls-3" d="m83.5,99.95c-4.02,2.14-8.92,3.35-13.75,2.96-4.18-.29-7.7-1.87-10.82-4.13l8.18,7.94.26,3.14.22,2.67c.03.34.17.64.39.86.06.06.13.12.21.17.07.05.15.1.24.13.12.05.26.09.4.11.09.01.19.01.28,0l20.06-1.69c.39-.03.72-.22.95-.49.05-.05.09-.11.12-.17l.05-.09c.03-.06.05-.11.08-.18.06-.18.09-.38.07-.58l-.24-2.88s.46-.47,1.03-1.55l.05-.1c.07-.13.14-.28.21-.43.04-.08.07-.15.11-.24l.04-.08c.05-.12.11-.25.16-.38v-.02c.19-.45.38-.96.55-1.53.3-.97.5-1.97.63-2.97.01-.1.03-.2.04-.31.12-1.03.15-2.06.1-3.1l-.14-3.28-.43-9.69c-1.25,6.33-3.26,12.75-9.06,15.88Z"/>
        </g>
      </g>
    </g>
  </g>
</svg>