<?xml version="1.0" encoding="UTF-8"?>
<svg xmlns="http://www.w3.org/2000/svg" viewBox="0 0 253 240.82">
  <defs>
    <style>
      .cls-1 {
        fill: #8ab9d3;
        opacity: .25;
      }

      .cls-2 {
        fill: #fff;
      }

      .cls-3 {
        fill: #004991;
      }

      .cls-4 {
        fill: #045aa0;
      }

      .cls-5 {
        isolation: isolate;
      }

      .cls-6 {
        fill: #3a7ec1;
        mix-blend-mode: multiply;
        opacity: .2;
      }
    </style>
  </defs>
  <g class="cls-5">
    <g id="Layer_2" data-name="Layer 2">
      <g id="Camada_1" data-name="Camada 1">
        <g>
          <circle class="cls-6" cx="122.7" cy="145.23" r="75.95" transform="translate(-33.7 253.31) rotate(-84.45)"/>
          <circle class="cls-3" cx="119.12" cy="134.6" r="75.95"/>
          <g>
            <path class="cls-3" d="m33.38,151.83c2.32-.39,2.87-1.85,2.59-3.53-.19-1.13-.6-2-1.42-2.81l1.91-.32c.61.78,1.04,1.75,1.24,2.94.56,3.29-.92,5.23-3.98,5.75l-.94.16c-3.06.52-5.09-.82-5.65-4.12-.2-1.19-.12-2.25.2-3.18l1.91-.32c-.51,1.03-.61,1.99-.42,3.12.28,1.66,1.27,2.87,3.61,2.48l.94-.16Z"/>
            <path class="cls-3" d="m22.27,142.14l12.19-.95c.55-.04.73-.28.69-.77-.03-.38-.1-.79-.23-1.17l1.7-.13c.11.45.22,1.03.26,1.61.12,1.52-.51,2.38-2.2,2.51l-12.25.95-.16-2.05Z"/>
            <path class="cls-3" d="m23.35,137.94h-.32c-.67.01-.97-.42-.98-1.17-.01-.73.28-1.19.95-1.2h.32c.69-.01.98.44.99,1.17.01.75-.26,1.19-.95,1.2Zm2.9-.2l-.03-2.06,10.24-.15.03,2.06-10.24.15Z"/>
            <path class="cls-3" d="m41.27,124.68l-.16,2.05-4.69-.37c.4.71.62,1.66.54,2.72-.24,3.02-2.05,4.16-5.21,3.91l-.97-.08c-3.15-.25-4.75-1.7-4.48-5.13.13-1.68.69-2.98,1.62-4.16l13.35,1.05Zm-9.34,6.27c1.99.16,3.16-.39,3.32-2.32.07-.95-.16-1.78-.58-2.41l-5.91-.47c-.41.62-.64,1.34-.7,2.11-.17,2.11.91,2.85,2.9,3.01l.99.08Z"/>
            <path class="cls-3" d="m28.69,114.07l.42-2.01,9,1.89c.5,1.36.67,3.07.34,4.64-.64,3.06-2.25,3.91-5.08,3.32l-6.06-1.27.42-2.01,5.88,1.23c1.88.39,2.81-.12,3.18-1.88.15-.74.15-1.46-.08-2.22l-8.03-1.68Z"/>
            <path class="cls-3" d="m36.3,109.36c1.92.5,2.98-.46,3.56-2.14.34-.99.43-2.03.15-3.27l1.79.62c.14,1.11.02,2.2-.34,3.23-1.15,3.33-3.38,4.35-6.3,3.35l-.93-.32c-2.92-1.01-4.04-3.19-3.02-6.15.99-2.86,3.03-3.45,4.79-2.85,1.85.64,2.24,1.92,1.64,3.68l-1.33,3.85Zm-1.55-.53l1.17-3.4c.28-.82.2-1.35-.61-1.63-1.03-.35-2.03.07-2.51,1.46-.53,1.55,0,2.89,1.94,3.58Z"/>
            <path class="cls-3" d="m42.16,97.14c-1.88-1.06-2.26-2.59-.95-4.93.55-.98,1.32-1.82,2.03-2.33l-.49-.25c-1.51-.78-2.44-.58-3.42,1.16-.55.98-.81,2.17-.71,3.28l-1.67-.94c.03-1.07.31-2.21,1.04-3.5,1.49-2.65,3.37-3.17,5.69-1.86l4.72,2.66c.08,1.54-.35,3.16-1.17,4.63-1.6,2.84-3.18,3.16-5.08,2.09Zm4.38-5.41l-2.02-1.13c-.67.46-1.24,1.19-1.65,1.93-.86,1.53-.7,2.29.29,2.84.98.55,1.82.27,2.64-1.19.45-.79.72-1.68.74-2.44Z"/>
            <path class="cls-3" d="m58.86,84.86l-1.22,1.65-3.78-2.8c-.03.81-.35,1.73-.99,2.59-1.8,2.43-3.95,2.44-6.49.56l-.78-.58c-2.54-1.88-3.12-3.96-1.07-6.73,1-1.35,2.17-2.16,3.58-2.67l10.76,7.97Zm-11.24.36c1.61,1.19,2.89,1.35,4.04-.21.56-.76.81-1.59.78-2.35l-4.77-3.53c-.67.31-1.25.8-1.71,1.42-1.26,1.7-.74,2.9.86,4.08l.79.59Z"/>
            <path class="cls-3" d="m53.8,69.21l1.42-1.48,6.63,6.36c-.29,1.42-1.06,2.96-2.17,4.11-2.16,2.25-3.98,2.12-6.06.12l-4.46-4.28,1.42-1.48,4.33,4.16c1.38,1.33,2.45,1.39,3.69.09.52-.54.9-1.16,1.11-1.92l-5.92-5.68Z"/>
            <path class="cls-3" d="m55.77,63.42l-.21-.24c-.44-.51-.3-1.02.27-1.51.56-.48,1.09-.55,1.53-.04l.21.24c.45.52.29,1.03-.27,1.51-.57.49-1.08.56-1.53.04Zm2.01,2.1l1.56-1.34,6.67,7.76-1.56,1.34-6.67-7.76Z"/>
            <path class="cls-3" d="m66.75,59.71c.62-1.36,1.51-2.46,2.94-3.35,2.93-1.84,4.94-1.09,6.62,1.6l.51.82c1.68,2.68,1.5,4.82-1.06,6.43-.9.57-1.85.81-2.66.78l2.5,3.99-1.74,1.09-7.1-11.35Zm7.81-.67c-1.06-1.69-2.19-2.31-4-1.18-.65.41-1.18.95-1.54,1.6l3.15,5.03c.75.09,1.62-.1,2.4-.59,1.64-1.03,1.58-2.32.52-4.01l-.52-.84Z"/>
            <path class="cls-3" d="m78.97,59.36c-.92-1.95-.35-3.42,2.08-4.57,1.02-.48,2.13-.73,3.01-.73l-.26-.49c-.78-1.51-1.66-1.88-3.46-1.03-1.02.48-1.92,1.31-2.47,2.27l-.82-1.73c.65-.85,1.53-1.62,2.87-2.26,2.75-1.31,4.58-.64,5.72,1.77l2.32,4.9c-.82,1.31-2.11,2.38-3.63,3.1-2.95,1.4-4.42.74-5.35-1.22Zm6.7-1.89l-.99-2.09c-.81,0-1.69.26-2.46.62-1.59.76-1.89,1.47-1.4,2.48.48,1.02,1.33,1.27,2.85.55.82-.39,1.56-.96,2.01-1.57Z"/>
            <path class="cls-3" d="m94.81,48.08c-1.22-.28-2.32-.27-3.46.11-.69.23-1.37.64-1.88,1.19l2.59,7.78-1.95.65-2.9-8.72c.94-1.11,2.29-2.12,3.81-2.62,1.14-.38,2.16-.45,3.17-.24l.62,1.86Z"/>
            <path class="cls-3" d="m96.78,52.27c-.45-2.11.44-3.41,3.07-3.98,1.1-.24,2.24-.22,3.09-.02l-.14-.54c-.42-1.65-1.18-2.21-3.14-1.79-1.1.24-2.17.83-2.92,1.64l-.4-1.87c.82-.68,1.86-1.23,3.31-1.54,2.98-.64,4.6.42,5.16,3.03l1.14,5.29c-1.1,1.09-2.6,1.83-4.24,2.19-3.19.69-4.47-.29-4.93-2.42Zm6.95-.3l-.49-2.26c-.79-.19-1.71-.14-2.54.04-1.72.37-2.17.99-1.93,2.1.24,1.1,1,1.54,2.64,1.19.89-.19,1.74-.58,2.32-1.07Z"/>
            <path class="cls-3" d="m112.1,49.57c-.06-2.15,1.05-3.28,3.74-3.35,1.13-.03,2.24.19,3.04.54l-.04-.55c-.11-1.7-.76-2.39-2.76-2.33-1.13.03-2.28.42-3.17,1.08l-.06-1.92c.93-.52,2.05-.87,3.53-.92,3.04-.09,4.45,1.25,4.53,3.92l.16,5.42c-1.28.87-2.89,1.33-4.57,1.38-3.26.1-4.34-1.1-4.41-3.27Zm6.89.96l-.07-2.31c-.74-.33-1.65-.45-2.5-.42-1.76.05-2.32.58-2.28,1.71.03,1.13.7,1.7,2.38,1.65.91-.03,1.81-.25,2.47-.63Z"/>
            <path class="cls-3" d="m124.96,48.09c-.21,2.34,1.06,3.25,2.75,3.4,1.14.1,2.09-.07,3.08-.66l-.17,1.93c-.91.4-1.96.56-3.16.45-3.33-.3-4.82-2.21-4.55-5.31l.08-.95c.27-3.09,2.09-4.72,5.41-4.42,1.2.11,2.2.45,3.03,1l-.17,1.93c-.87-.75-1.77-1.09-2.91-1.19-1.67-.15-3.1.5-3.31,2.86l-.08.95Z"/>
            <path class="cls-3" d="m134.63,49.78c-.25,1.97.82,2.9,2.56,3.27,1.03.22,2.06.17,3.27-.26l-.39,1.86c-1.09.28-2.18.29-3.25.06-3.44-.72-4.74-2.82-4.11-5.83l.2-.97c.63-3.02,2.67-4.41,5.72-3.77,2.96.62,3.8,2.58,3.42,4.4-.4,1.92-1.63,2.47-3.45,2.08l-3.99-.84Zm.34-1.61l3.52.74c.85.18,1.37.03,1.54-.81.22-1.06-.32-2.01-1.76-2.31-1.61-.34-2.87.37-3.31,2.38Z"/>
            <path class="cls-3" d="m149.15,52.25c1.61,1.27,1.85,2.13,1.41,3.42-.61,1.82-2.47,2.31-4.91,1.49-1.1-.37-2.58-1.12-3.48-2.03l.63-1.85c.93,1.07,2.2,1.83,3.32,2.21,1.27.43,2.24.3,2.5-.49.17-.51.07-.89-.7-1.51l-2.27-1.81c-1.59-1.27-1.86-2.09-1.44-3.34.61-1.8,2.41-2.15,4.74-1.36,1.09.37,2.33.95,3.16,1.69l-.62,1.83c-.8-.83-2.01-1.51-3.01-1.85-1.29-.44-2.08-.39-2.34.38-.15.43-.05.82.73,1.43l2.27,1.79Z"/>
            <path class="cls-3" d="m158.53,56.24c1.46,1.45,1.59,2.32,1.01,3.56-.82,1.74-2.72,2.02-5.05.92-1.06-.5-2.44-1.41-3.23-2.42l.83-1.77c.81,1.17,1.98,2.07,3.05,2.57,1.22.57,2.19.55,2.54-.2.23-.48.17-.88-.52-1.58l-2.05-2.06c-1.44-1.44-1.61-2.29-1.05-3.49.81-1.72,2.65-1.86,4.86-.81,1.04.49,2.2,1.21,2.95,2.04l-.83,1.75c-.7-.92-1.83-1.74-2.78-2.18-1.23-.58-2.02-.63-2.37.11-.19.41-.14.81.56,1.51l2.06,2.04Z"/>
            <path class="cls-3" d="m161.09,60.15c1.15-1.83,2.69-2.14,4.97-.71.96.6,1.76,1.4,2.23,2.14l.28-.48c.85-1.47.69-2.41-1-3.47-.95-.6-2.13-.92-3.24-.86l1.02-1.63c1.07.09,2.19.42,3.45,1.2,2.58,1.62,3,3.51,1.58,5.78l-2.88,4.59c-1.55.01-3.14-.5-4.57-1.39-2.76-1.73-3-3.33-1.85-5.17Zm5.19,4.63l1.23-1.96c-.43-.69-1.13-1.29-1.85-1.74-1.49-.94-2.25-.8-2.85.15-.6.95-.36,1.8,1.06,2.7.77.48,1.65.8,2.4.85Z"/>
            <path class="cls-3" d="m179.11,67.29c-.43-1.18-1.04-2.09-1.98-2.84-.57-.46-1.29-.8-2.02-.93l-5.12,6.42-1.61-1.28,5.73-7.19c1.44.19,3.03.77,4.28,1.77.94.75,1.55,1.57,1.93,2.53l-1.22,1.53Z"/>
            <path class="cls-3" d="m182.39,73.33c2.31-2.04,4.75-1.99,6.84.38,2.09,2.37,1.82,4.79-.49,6.83l-.71.63c-2.31,2.04-4.75,1.99-6.84-.38-2.09-2.37-1.82-4.79.49-6.83l.71-.63Zm5,5.65c1.63-1.44,1.61-2.89.52-4.14-1.08-1.23-2.53-1.41-4.15.02l-.74.65c-1.63,1.44-1.61,2.89-.52,4.14,1.08,1.23,2.53,1.41,4.15-.01l.74-.65Z"/>
            <path class="cls-3" d="m192.59,88.67c-1.62,1.15-1.58,2.57-.67,4.1.54.9,1.27,1.64,2.41,2.23l-1.63.97c-.94-.61-1.69-1.41-2.25-2.34-1.8-3.02-1.14-5.4,1.51-6.97l.85-.51c2.65-1.58,5.05-1.03,6.65,1.66,1.55,2.6.68,4.54-.92,5.49-1.68,1-2.92.47-3.87-1.13l-2.08-3.5Zm1.41-.84l1.84,3.09c.45.75.91,1.02,1.64.59.94-.56,1.26-1.6.51-2.86-.84-1.41-2.21-1.86-3.99-.82Z"/>
            <path class="cls-3" d="m207.37,94.33l-11.04,5.24c-.5.24-.59.52-.37.97.16.34.37.7.63,1.01l-1.54.73c-.27-.38-.57-.89-.82-1.41-.65-1.38-.37-2.4,1.16-3.13l11.09-5.27.88,1.86Z"/>
            <path class="cls-3" d="m200.08,103.36c-1.8.82-2.03,2.23-1.42,3.9.36.98.95,1.84,1.95,2.64l-1.78.65c-.81-.78-1.4-1.7-1.77-2.72-1.2-3.31-.11-5.51,2.78-6.57l.93-.34c2.9-1.05,5.15-.07,6.22,2.87,1.03,2.84-.18,4.59-1.93,5.22-1.84.67-2.95-.08-3.59-1.83l-1.39-3.82Zm1.54-.56l1.23,3.38c.3.82.7,1.17,1.5.88,1.02-.37,1.53-1.34,1.03-2.71-.56-1.54-1.82-2.24-3.76-1.55Z"/>
            <path class="cls-3" d="m200.28,118.35l-.73-3.16,9.24-5.49.49,2.1-7.7,4.42.07.31,8.87.61.48,2.08-10.71-.87Z"/>
            <path class="cls-3" d="m204.19,121.47c2.14-.23,3.35.79,3.64,3.46.12,1.12-.01,2.25-.3,3.08l.55-.08c1.68-.24,2.32-.95,2.11-2.94-.12-1.12-.6-2.24-1.33-3.08l1.91-.21c.59.89,1.03,1.98,1.19,3.45.33,3.03-.9,4.53-3.55,4.82l-5.39.59c-.97-1.21-1.56-2.77-1.74-4.44-.35-3.24.75-4.42,2.91-4.65Zm-.42,6.95l2.3-.25c.27-.77.31-1.68.22-2.53-.19-1.75-.76-2.26-1.88-2.14-1.12.12-1.64.83-1.46,2.51.1.9.39,1.79.82,2.42Z"/>
            <path class="cls-3" d="m202.99,141.09c-.81-1.26-1.24-2.61-1.21-4.29.06-3.44,1.78-4.73,4.95-4.68l.97.02c3.16.06,4.86,1.37,4.81,4.4-.02,1.07-.33,1.99-.8,2.66l4.71.08-.04,2.06-13.39-.23Zm3.7-6.92c-2-.03-3.14.6-3.17,2.71-.01.77.15,1.51.5,2.16l5.93.1c.49-.58.8-1.39.81-2.34.03-1.94-1.08-2.59-3.08-2.63l-.99-.02Z"/>
            <path class="cls-3" d="m207.37,143.43c3.05.45,4.59,2.34,4.13,5.47-.46,3.13-2.48,4.49-5.54,4.04l-.94-.14c-3.05-.45-4.59-2.34-4.13-5.47.46-3.13,2.48-4.49,5.54-4.04l.94.14Zm-1.09,7.47c2.15.32,3.25-.64,3.5-2.28.24-1.62-.56-2.84-2.69-3.16l-.98-.15c-2.15-.32-3.25.64-3.5,2.28-.24,1.62.56,2.84,2.69,3.16l.98.14Z"/>
            <path class="cls-3" d="m205.55,162.92c.91-.86,1.5-1.79,1.82-2.95.19-.71.22-1.5.04-2.22l-7.92-2.13.53-1.99,8.88,2.39c.4,1.4.5,3.08.09,4.63-.31,1.16-.82,2.05-1.55,2.78l-1.89-.51Z"/>
          </g>
          <circle class="cls-2" cx="118.48" cy="133.89" r="66.22"/>
          <path class="cls-1" d="m156.14,133.96c-.26-3.06-2.71-5.57-5.78-5.67-3.63-.12-6.47,2.97-6.17,6.49l-.39-4.63c-.26-3.06-2.71-5.56-5.77-5.66-3.63-.12-6.47,2.96-6.18,6.47l-.3-3.5c-.27-3.18-2.9-5.74-6.09-5.67-3.39.06-6,2.93-5.87,6.23l-1.46-17.36c-.26-3.06-2.71-5.57-5.78-5.66-3.63-.12-6.47,2.97-6.17,6.49l3.67,43.61-14-13.61c-2.2-2.14-5.7-2.42-8.08-.48-2.81,2.29-2.93,6.49-.4,8.95l12.18,11.83,13.79,13.4.45,5.3.38,4.5c.05.57.29,1.08.66,1.45.11.11.22.21.35.29.12.09.26.16.4.22.21.09.43.15.67.18.16.02.32.02.48,0l33.83-2.85c.65-.05,1.22-.37,1.61-.83.08-.09.14-.19.21-.29l.09-.16c.05-.1.09-.19.13-.3l.07-.23c.06-.24.08-.49.06-.75l-.41-4.85s.78-.8,1.74-2.61l.09-.16c.12-.22.24-.46.36-.72.06-.13.12-.26.18-.4l.06-.13c.09-.2.18-.42.27-.64v-.04c.33-.76.64-1.62.93-2.59.5-1.64.85-3.32,1.07-5.01.02-.17.04-.34.06-.52.19-1.73.25-3.48.18-5.22l-.24-5.54-.72-16.34-.13-3Z"/>
          <path class="cls-4" d="m151.79,129.84c-.26-3.06-2.71-5.57-5.78-5.66-3.63-.12-6.47,2.97-6.17,6.49l-.39-4.63c-.26-3.06-2.71-5.56-5.77-5.66-3.63-.12-6.47,2.96-6.18,6.47l-.3-3.5c-.27-3.18-2.9-5.74-6.09-5.67-3.39.06-6,2.93-5.87,6.23l-1.46-17.36c-.26-3.06-2.71-5.57-5.78-5.67-3.63-.12-6.47,2.97-6.17,6.49l3.67,43.61-14-13.61c-2.2-2.14-5.7-2.42-8.08-.48-2.81,2.29-2.93,6.49-.4,8.95l12.18,11.83,13.79,13.4.45,5.3.38,4.5c.05.57.29,1.08.66,1.45.11.11.22.21.35.29.12.09.26.16.4.22.21.09.43.15.67.18.16.02.32.02.48,0l33.83-2.85c.65-.05,1.22-.37,1.61-.83.08-.09.14-.19.21-.29l.09-.16c.05-.09.09-.19.13-.3l.07-.23c.06-.24.08-.49.06-.75l-.41-4.85s.78-.8,1.74-2.61l.09-.16c.12-.22.24-.46.36-.72.06-.13.12-.26.18-.4l.06-.13c.09-.21.18-.42.27-.64l.02-.04c.31-.76.62-1.62.92-2.59.5-1.64.85-3.32,1.07-5.01.02-.17.04-.34.06-.52.19-1.73.25-3.48.18-5.22l-.24-5.54-.72-16.34-.13-3Z"/>
          <path class="cls-3" d="m106.17,90.28c.68-.06,1.19-.66,1.13-1.34l-.63-7.44c-.06-.68-.66-1.19-1.34-1.13s-1.19.66-1.13,1.34l.63,7.44c.06.68.66,1.19,1.34,1.13Z"/>
          <path class="cls-3" d="m121.04,102.84c.06.68.66,1.19,1.34,1.13l7.44-.63c.68-.06,1.19-.66,1.13-1.34s-.66-1.19-1.34-1.13l-7.44.63c-.68.06-1.19.66-1.13,1.34Z"/>
          <path class="cls-3" d="m85.04,107.12l7.44-.63c.68-.06,1.19-.66,1.13-1.34s-.66-1.19-1.34-1.13l-7.44.63c-.68.06-1.19.66-1.13,1.34s.66,1.19,1.34,1.13Z"/>
          <path class="cls-3" d="m116.21,93.48c.26.22.59.31.9.29s.62-.17.84-.43l4.82-5.71c.44-.52.38-1.3-.15-1.74-.52-.44-1.3-.38-1.74.15l-4.82,5.71c-.44.52-.38,1.3.15,1.74Z"/>
          <path class="cls-3" d="m92.93,122.4c.32-.03.62-.17.84-.43l4.82-5.71c.44-.52.37-1.3-.15-1.74-.52-.44-1.3-.38-1.74.15l-4.82,5.71c-.44.52-.37,1.3.15,1.74.26.22.59.31.9.29Z"/>
          <path class="cls-3" d="m95.07,95.26c.26.22.59.31.9.29s.62-.17.84-.43c.44-.52.37-1.3-.15-1.74l-5.71-4.82c-.52-.44-1.3-.38-1.74.15-.44.52-.37,1.3.15,1.74l5.71,4.82Z"/>
          <path class="cls-3" d="m111.65,90.93c.16.05.33.07.49.06.48-.04.91-.36,1.07-.85l2.35-7.09c.21-.65-.14-1.35-.79-1.56-.65-.21-1.35.14-1.56.79l-2.35,7.09c-.21.65.14,1.35.79,1.56Z"/>
          <path class="cls-3" d="m121.96,107.53c-.65-.21-1.35.14-1.56.79-.21.65.14,1.35.79,1.56l7.09,2.35c.16.05.33.07.49.06.48-.04.91-.36,1.07-.85.21-.65-.14-1.35-.79-1.56l-7.09-2.35Z"/>
          <path class="cls-3" d="m85.6,98.12l7.09,2.35c.16.05.33.07.49.06.48-.04.91-.36,1.07-.84.21-.65-.14-1.35-.79-1.56l-7.09-2.35c-.65-.21-1.35.14-1.56.79-.21.65.14,1.35.79,1.56Z"/>
          <path class="cls-3" d="m119.62,97.81c.23.46.72.72,1.21.68.15-.01.31-.05.45-.13l6.67-3.36c.61-.31.86-1.05.55-1.66-.31-.61-1.05-.86-1.66-.55l-6.67,3.36c-.61.31-.86,1.05-.55,1.66Z"/>
          <path class="cls-3" d="m95.03,110.18c-.31-.61-1.05-.86-1.66-.55l-6.67,3.36c-.61.31-.86,1.05-.55,1.66.23.46.72.72,1.21.68.15-.01.31-.05.45-.13l6.67-3.36c.61-.31.86-1.05.55-1.66Z"/>
          <path class="cls-3" d="m99.48,91.15c.23.46.72.72,1.21.68.15-.01.31-.06.45-.13.61-.31.86-1.05.55-1.66l-3.36-6.67c-.31-.61-1.05-.86-1.66-.55-.61.31-.86,1.05-.55,1.66l3.36,6.67Z"/>
          <path class="cls-3" d="m136.65,159.62c-6.78,3.61-15.05,5.65-23.2,4.99-7.05-.49-12.98-3.16-18.25-6.96l13.79,13.4.45,5.3.38,4.5c.05.57.29,1.08.66,1.45.11.11.22.21.35.29.12.09.26.16.4.22.21.09.43.15.67.18.16.02.32.02.48,0l33.83-2.85c.65-.05,1.22-.37,1.61-.83.08-.09.14-.19.21-.29l.09-.16c.05-.09.09-.19.13-.3.11-.3.15-.64.13-.98l-.41-4.85s.78-.8,1.74-2.61l.09-.16c.12-.22.24-.46.36-.72.06-.13.12-.26.18-.4l.06-.13c.09-.21.18-.42.27-.64l.02-.04c.31-.76.62-1.62.92-2.59.5-1.64.85-3.32,1.07-5.01.02-.17.04-.34.06-.52.19-1.73.25-3.48.18-5.22l-.24-5.54-.72-16.34c-2.1,10.67-5.51,21.51-15.28,26.79Z"/>
        </g>
      </g>
    </g>
  </g>
</svg>