<?xml version="1.0" encoding="UTF-8"?><svg id="Layer_2" xmlns="http://www.w3.org/2000/svg" viewBox="0 0 55.94 57.01"><defs><style>.cls-1{fill:#fff;}.cls-2{fill:#8d30a3;}</style></defs><g id="Camada_1"><g><path class="cls-2" d="m17.04,57.01h31.88l7.03-7.03V4.49h-21.23L30.23,0H7.03L0,7.03v49.98h17.04Zm-14.7-11.06l8.73,8.73H2.33v-8.73Z"/><path class="cls-1" d="m25.78,27.75c-.94,4.82.4,6.93,4.55,6.93,2.01,0,4.56-.6,6.33-1.78l-.9,4.59c-1.71.9-4.25,1.37-6.63,1.37-7.67,0-10.25-3.75-8.88-10.89l.5-2.48c1.37-7.13,5.43-10.88,13.1-10.88,2.38,0,4.72.5,6.1,1.37l-.9,4.59c-1.31-1.17-3.58-1.78-5.59-1.78-4.15,0-6.36,2.11-7.3,6.93l-.37,2.01Z"/></g></g></svg>