<?xml version="1.0" encoding="UTF-8"?>
<svg id="Layer_2" data-name="Layer 2" xmlns="http://www.w3.org/2000/svg" xmlns:xlink="http://www.w3.org/1999/xlink" viewBox="0 0 1049.72 766.76">
  <defs>
    <style>
      .cls-1 {
        fill: url(#radial-gradient);
        fill-rule: evenodd;
      }

      .cls-2 {
        fill: #fff;
      }

      .cls-3 {
        fill: #004991;
      }

      .cls-4 {
        fill: #f9f9f9;
      }

      .cls-5 {
        fill: #1a1a1a;
      }

      .cls-6 {
        fill: #b7043c;
      }
    </style>
    <radialGradient id="radial-gradient" cx="-900.64" cy="23.96" fx="-900.64" fy="23.96" r="352.86" gradientTransform="translate(1628.89 386) scale(1.23 1.36)" gradientUnits="userSpaceOnUse">
      <stop offset="0" stop-color="#5ca3ff"/>
      <stop offset="1" stop-color="#007ade"/>
    </radialGradient>
  </defs>
  <g id="Camada_1" data-name="Camada 1">
    <g>
      <g>
        <path class="cls-1" d="m14.96,418.55V106.92h1012.44l7.36,7.42v615.84H14.96v-311.63h0Zm3.09,348.21h241.58l18.05-20h13.85l-18.05,20h13.85l18.05-20h13.85l-18.05,20h13.85l18.05-20h13.85l-18.05,20h13.85l18.05-20h13.85l-18.05,20h13.85l18.05-20h13.85l-18.05,20h13.85l18.05-20h13.85l-18.05,20h13.85l18.05-20h13.85l-15.08,16.71h13.85l15.08-16.71h13.85l-10.99,12.19h13.85l10.99-12.19h550.42v-328.21h0V107.47l-33.5-37.13H260.8l-18.05,20h-44.18l-12.51-13.87H11.31L0,88.8v657.95l18.05,20h0Zm1025.69-352.81h0s0,326.18,0,326.18H5.98v-321.58h0V96.97h1025.8l11.95,13.25v303.73h0Zm-11.97,4.6V115.8l-5.53-5.57H17.95v616.63h1013.82v-308.31h0ZM7.12,90.34h182.99l-6.53-7.24H13.76l-6.63,7.24h0Zm142.57,656.42h119.52l-12.06,13.37h-95.39l-12.06-13.37h0ZM513.1,76.97h-74.64l-12.06,13.37h74.64l12.06-13.37h0Zm500.63,0h-494.65l-12.06,13.37h518.78l-12.06-13.37h0Z"/>
        <rect class="cls-2" x="216.66" y="-88.3" width="616.38" height="1013.7" transform="translate(106.3 943.4) rotate(-90)"/>
      </g>
      <g>
        <circle class="cls-6" cx="524.86" cy="78.34" r="78.34"/>
        <g>
          <path class="cls-4" d="m554.25,64.26c0-9.56-7.78-17.33-17.33-17.33-4.81,0-9.03,2.77-12.06,6.12-3.03-3.35-7.25-6.12-12.06-6.12-9.56,0-17.33,7.78-17.33,17.33,0,4.96,2.14,9.68,5.86,12.98l19.09,19.08h8.98l-23.66-23.64-.08-.08-.08-.07c-2.4-2.09-3.78-5.11-3.78-8.27,0-6.06,4.93-10.99,10.99-10.99,3.87,0,7.06,3.59,9.36,6.7l2.7,3.53,2.7-3.53c2.39-3.01,5.49-6.7,9.36-6.7,6.06,0,10.99,4.93,10.99,10.99,0,3.17-1.38,6.18-3.78,8.27l-.08.07-14.67,14.67,4.46,4.45,4.21-4.19,10.34-10.3c3.73-3.29,5.86-8.02,5.86-12.98Z"/>
          <path class="cls-4" d="m572.7,56.46c-1.33-3.28-3.29-6.23-5.81-8.75l-23.33-23.33c-2.52-2.52-5.47-4.48-8.75-5.81-3.17-1.29-6.52-1.94-9.95-1.94s-6.78.65-9.95,1.94c-3.28,1.33-6.23,3.29-8.75,5.81l-23.33,23.33c-2.52,2.52-4.48,5.47-5.81,8.75-1.29,3.17-1.94,6.52-1.94,9.95s.65,6.78,1.94,9.95c1.33,3.28,3.29,6.23,5.81,8.75l11.21,11.21h9.31l-15.87-15.87c-7.74-7.74-7.74-20.34,0-28.08l23.33-23.33c3.87-3.87,8.96-5.81,14.04-5.81s10.17,1.94,14.04,5.81l23.33,23.33c7.74,7.74,7.74,20.34,0,28.08l-15.87,15.87h9.31l11.21-11.21c2.52-2.52,4.48-5.47,5.81-8.75,1.28-3.17,1.94-6.52,1.94-9.95s-.65-6.78-1.94-9.95Z"/>
          <g>
            <path class="cls-2" d="m491.81,129.61c-.08-.08-.13-.17-.16-.28l-.56-3.58c-.05-.11-.12-.16-.2-.16h-8.89c-.08,0-.15.05-.2.16l-1.45,3.58c-.13.27-.34.4-.6.4h-5.95c-.16,0-.28-.05-.34-.14-.07-.09-.06-.23.02-.42l11.66-27.19c.13-.27.32-.4.56-.4h7.36c.24,0,.4.13.48.4l5.03,27.19v.16c0,.27-.15.4-.44.4h-5.99c-.13,0-.24-.04-.32-.12Zm-7.64-9.17h5.79c.13,0,.2-.08.2-.24l-1.69-10.34c-.03-.11-.07-.15-.12-.14-.05.01-.09.06-.12.14l-4.18,10.34c-.08.16-.04.24.12.24Z"/>
            <path class="cls-2" d="m522.9,101.57h5.51c.13,0,.24.05.32.14.08.09.11.21.08.34l-3.34,27.19c-.03.13-.09.25-.18.34-.09.09-.21.14-.34.14h-5.55c-.13,0-.24-.05-.32-.14-.08-.09-.11-.21-.08-.34l1.97-16.17c.03-.11.01-.16-.04-.16s-.11.04-.16.12l-4.06,5.55c-.11.21-.3.32-.56.32h-2.78c-.24,0-.42-.11-.52-.32l-2.69-5.59c-.03-.08-.07-.12-.12-.12s-.09.05-.12.16l-1.97,16.21c-.03.13-.09.25-.18.34-.09.09-.21.14-.34.14h-5.55c-.13,0-.24-.05-.32-.14-.08-.09-.11-.21-.08-.34l3.34-27.19c0-.13.05-.25.16-.34.11-.09.23-.14.36-.14h5.47c.27,0,.44.11.52.32l4.34,8.77c.08.16.16.16.24,0l6.44-8.77c.11-.21.29-.32.56-.32Z"/>
            <path class="cls-2" d="m547.01,101.71c.09-.09.21-.14.34-.14h5.55c.13,0,.24.05.32.14.08.09.11.21.08.34l-3.34,27.19c-.03.13-.09.25-.18.34-.09.09-.21.14-.34.14h-5.55c-.13,0-.24-.05-.32-.14-.08-.09-.11-.21-.08-.34l1.29-10.7c.05-.13,0-.2-.16-.2h-7.28c-.11,0-.19.07-.24.2l-1.29,10.7c-.03.13-.09.25-.18.34-.09.09-.21.14-.34.14h-5.55c-.13,0-.24-.05-.32-.14-.08-.09-.11-.21-.08-.34l3.34-27.19c0-.13.05-.25.16-.34.11-.09.23-.14.36-.14h5.51c.29,0,.44.16.44.48l-1.29,10.38c0,.13.05.2.16.2h7.32c.05,0,.1-.02.14-.06.04-.04.06-.09.06-.14l1.29-10.38c.03-.13.09-.25.18-.34Z"/>
            <path class="cls-2" d="m556.6,127.72c-1.66-1.55-2.49-3.65-2.49-6.27,0-.64.03-1.14.08-1.49l1.09-8.69c.24-1.98.88-3.73,1.93-5.25,1.05-1.51,2.41-2.69,4.1-3.52,1.69-.83,3.57-1.25,5.63-1.25,2.9,0,5.18.73,6.86,2.19,1.68,1.46,2.51,3.44,2.51,5.93,0,.27-.03.72-.08,1.37,0,.11-.05.21-.16.3-.11.09-.23.14-.36.14l-5.59.36c-.3,0-.43-.15-.4-.44.03-.16.04-.39.04-.68,0-1.07-.32-1.92-.95-2.53-.63-.62-1.48-.93-2.55-.93-1.18,0-2.19.38-3.02,1.15-.83.76-1.33,1.76-1.49,3l-1.13,9.13c-.03.13-.04.34-.04.6,0,1.07.32,1.92.97,2.55.64.63,1.5.95,2.57.95,1.21,0,2.22-.38,3.04-1.13.82-.75,1.29-1.74,1.43-2.98.05-.29.23-.44.52-.44l5.51.28c.29,0,.44.13.44.4-.24,1.9-.88,3.58-1.93,5.03-1.05,1.45-2.41,2.57-4.08,3.36-1.68.79-3.56,1.19-5.65,1.19-2.87,0-5.13-.78-6.8-2.33Z"/>
          </g>
        </g>
      </g>
      <g>
        <g>
          <path class="cls-3" d="m221.81,195.29v5.65h-11.33v4.56h1.72c7.17,0,10.49,2.72,10.49,8.25v1.28c0,5.61-3.64,8.77-11.53,8.77-3.48,0-6.45-.6-8.97-1.68v-6.05c2.88,1.32,5.65,2.08,8.49,2.08,3.48,0,4.48-1.24,4.48-3.16v-1.12c0-1.88-1.2-2.76-3.84-2.76h-8.37v-15.82h18.86Z"/>
          <path class="cls-3" d="m243.46,223.32h-6.53v-18.38c2.2-1.56,5.49-2.84,9.09-2.84,2.6,0,4.64.52,6.13,1.56,1.6-1,3.52-1.56,5.65-1.56,6.25,0,9.21,2.88,9.21,8.89v12.33h-6.53v-12.13c0-2.76-.96-3.92-3.12-3.92-.92,0-1.76.2-2.52.56.24.92.32,1.96.32,3.16v12.33h-6.49v-12.13c0-2.76-.96-3.92-3.12-3.92-.72,0-1.4.2-2.08.52v15.54Z"/>
          <path class="cls-3" d="m271.92,197.25v-.88c0-1.64,1.32-2.28,3.56-2.28s3.6.64,3.6,2.28v.88c0,1.6-1.32,2.28-3.6,2.28s-3.56-.68-3.56-2.28Zm.32,5.33h6.53v20.74h-6.53v-20.74Z"/>
          <path class="cls-3" d="m291.02,194.09v23.18c0,1.04.4,1.48,1.28,1.48.76,0,1.44-.08,2.2-.28v4.84c-1.2.32-2.72.48-4.24.48-3.56,0-5.77-1.6-5.77-5.65v-24.06h6.53Z"/>
          <path class="cls-5" d="m305.95,217.15c0-4.2,2.24-6.49,7.61-6.49,2.48,0,5.04.6,7.13,1.64v-1.64c0-4.44-1.68-6.33-6.49-6.33-2.36,0-4.64.68-6.41,1.92v-2.6c1.72-.96,3.92-1.56,6.81-1.56,6.05,0,8.61,2.8,8.61,8.01v11.29c-2.6,1.6-5.57,2.4-8.89,2.4-6.41,0-8.37-2.44-8.37-6.65Zm14.73,2.92v-5.69c-2-1-4.4-1.48-6.49-1.48-4.12,0-5.73,1.28-5.73,4.24s1.52,4.4,5.93,4.4c2.2,0,4.52-.52,6.29-1.48Z"/>
          <path class="cls-5" d="m329.05,202.57v-6.17h2.52v6.17h6.41v2.24h-6.41v12.89c0,2.6.6,3.84,3.16,3.84,1.24,0,2.36-.2,3.4-.56v2.2c-1.04.36-2.44.6-3.76.6-4,0-5.33-2.28-5.33-6.09v-12.89h-3.96v-2.24h3.96Z"/>
          <path class="cls-5" d="m342.74,214.47c0,4.6,2.92,7.13,7.81,7.13,2,0,3.92-.52,5.97-1.84v2.6c-1.84.96-3.92,1.44-5.97,1.44-6.97,0-10.29-3.52-10.29-9.77v-2.12c0-6.21,3.32-9.81,9.45-9.81s8.13,3.48,8.13,7.17-2.16,5.21-5.81,5.21h-9.29Zm0-2.2h8.89c2.4,0,3.6-.72,3.6-3,0-2.92-1.84-4.92-5.57-4.92-4.12,0-6.93,2.36-6.93,7.53v.4Z"/>
          <path class="cls-5" d="m364.08,223.32h-2.52v-18.78c2.52-1.48,5.49-2.44,8.53-2.44,6.05,0,8.29,2.76,8.29,8.57v12.65h-2.52v-12.37c0-4.68-1.68-6.61-6.17-6.61-2,0-3.8.48-5.61,1.44v17.54Z"/>
          <path class="cls-5" d="m399.55,221.39c-2.4,1.6-4.84,2.4-8.21,2.4-6.89,0-9.25-3.56-9.25-9.81v-2.08c0-6.25,2.44-9.81,8.49-9.81,2.72,0,4.8.84,6.45,2.08v-10.09h2.52v27.31Zm-14.93-7.41c0,4.84,1.64,7.57,6.81,7.57,2.12,0,3.88-.44,5.61-1.44v-13.57c-1.6-1.32-3.64-2.2-6.09-2.2-4.64,0-6.33,2.72-6.33,7.57v2.08Z"/>
          <path class="cls-5" d="m404.47,196.65v-1.12c0-1,.6-1.44,1.52-1.44s1.52.44,1.52,1.44v1.12c0,1-.6,1.44-1.52,1.44s-1.52-.44-1.52-1.44Zm.28,5.93h2.52v20.74h-2.52v-20.74Z"/>
          <path class="cls-5" d="m414.96,223.32h-2.52v-18.82c2.08-1.36,4.8-2.4,7.61-2.4s4.6.68,5.85,2.04c2.04-1.36,4.16-2.04,6.93-2.04,5.57,0,7.85,2.76,7.85,8.57v12.65h-2.52v-12.29c0-4.68-1.68-6.69-5.81-6.69-1.88,0-3.64.6-5.25,1.72.48,1.24.68,2.76.68,4.6v12.65h-2.52v-12.29c0-4.76-1.56-6.69-5.69-6.69-1.56,0-3.28.52-4.6,1.44v17.54Z"/>
          <path class="cls-5" d="m446.86,214.47c0,4.6,2.92,7.13,7.81,7.13,2,0,3.92-.52,5.97-1.84v2.6c-1.84.96-3.92,1.44-5.97,1.44-6.97,0-10.29-3.52-10.29-9.77v-2.12c0-6.21,3.32-9.81,9.45-9.81s8.13,3.48,8.13,7.17-2.16,5.21-5.81,5.21h-9.29Zm0-2.2h8.89c2.4,0,3.6-.72,3.6-3,0-2.92-1.84-4.92-5.57-4.92-4.12,0-6.93,2.36-6.93,7.53v.4Z"/>
          <path class="cls-5" d="m468.2,223.32h-2.52v-18.78c2.52-1.48,5.49-2.44,8.53-2.44,6.05,0,8.29,2.76,8.29,8.57v12.65h-2.52v-12.37c0-4.68-1.68-6.61-6.17-6.61-2,0-3.8.48-5.61,1.44v17.54Z"/>
          <path class="cls-5" d="m488.57,202.57v-6.17h2.52v6.17h6.41v2.24h-6.41v12.89c0,2.6.6,3.84,3.16,3.84,1.24,0,2.36-.2,3.4-.56v2.2c-1.04.36-2.44.6-3.76.6-4,0-5.33-2.28-5.33-6.09v-12.89h-3.96v-2.24h3.96Z"/>
          <path class="cls-5" d="m499.78,211.9c0-6.21,3.16-9.81,9.29-9.81s9.29,3.6,9.29,9.81v2.08c0,6.21-3.12,9.81-9.29,9.81s-9.29-3.6-9.29-9.81v-2.08Zm16.1,0c0-5.29-2.76-7.57-6.85-7.57s-6.73,2.32-6.73,7.57v2.08c0,5.29,2.72,7.57,6.81,7.57s6.77-2.32,6.77-7.57v-2.08Z"/>
          <path class="cls-5" d="m532.85,212.74c3.64,1.32,4.4,2.76,4.4,5.29,0,3.68-3,5.77-7.89,5.77-2.24,0-5.53-.48-7.73-1.52v-2.6c2.36,1.32,5.33,1.88,7.61,1.88,3.28,0,5.49-1.2,5.49-3.48,0-1.44-.48-2.32-3-3.28l-6.01-2.24c-3.68-1.36-4.44-2.68-4.44-5.04,0-3.68,3.04-5.41,7.69-5.41,2.16,0,4.8.36,6.77,1.16v2.6c-2.04-1.04-4.6-1.52-6.65-1.52-3.36,0-5.29.8-5.29,3.12,0,1.32.52,2.16,3,3.08l6.05,2.2Z"/>
          <path class="cls-5" d="m549.9,217.15c0-4.2,2.24-6.49,7.61-6.49,2.48,0,5.04.6,7.13,1.64v-1.64c0-4.44-1.68-6.33-6.49-6.33-2.36,0-4.64.68-6.41,1.92v-2.6c1.72-.96,3.92-1.56,6.81-1.56,6.05,0,8.61,2.8,8.61,8.01v11.29c-2.6,1.6-5.57,2.4-8.89,2.4-6.41,0-8.37-2.44-8.37-6.65Zm14.73,2.92v-5.69c-2-1-4.4-1.48-6.49-1.48-4.12,0-5.73,1.28-5.73,4.24s1.52,4.4,5.93,4.4c2.2,0,4.52-.52,6.29-1.48Z"/>
          <path class="cls-5" d="m573.96,223.32h-2.52v-18.82c2.08-1.36,4.8-2.4,7.61-2.4s4.6.68,5.85,2.04c2.04-1.36,4.16-2.04,6.93-2.04,5.57,0,7.85,2.76,7.85,8.57v12.65h-2.52v-12.29c0-4.68-1.68-6.69-5.81-6.69-1.88,0-3.64.6-5.25,1.72.48,1.24.68,2.76.68,4.6v12.65h-2.52v-12.29c0-4.76-1.56-6.69-5.69-6.69-1.56,0-3.28.52-4.6,1.44v17.54Z"/>
          <path class="cls-5" d="m604.18,194.09h2.52v10.09c1.64-1.24,3.68-2.08,6.45-2.08,6.05,0,8.49,3.56,8.49,9.81v2.08c0,6.25-2.36,9.81-9.25,9.81-3.36,0-5.81-.8-8.21-2.4v-27.31Zm14.93,17.82c0-4.84-1.72-7.57-6.33-7.57-2.44,0-4.48.88-6.09,2.2v13.57c1.72,1,3.48,1.44,5.61,1.44,5.17,0,6.81-2.72,6.81-7.57v-2.08Z"/>
          <path class="cls-5" d="m639.61,202.57h2.48v18.78c-2.48,1.48-5.45,2.44-8.53,2.44-6.01,0-8.21-2.76-8.21-8.57v-12.65h2.52v12.37c0,4.68,1.6,6.61,6.09,6.61,2,0,3.8-.48,5.65-1.44v-17.54Z"/>
          <path class="cls-5" d="m650.3,194.09v25.46c0,1.48.56,2.08,1.96,2.08.76,0,1.6-.08,2.4-.28v2.2c-.8.16-1.8.24-2.68.24-2.8,0-4.16-1.28-4.16-4.32v-25.38h2.48Z"/>
          <path class="cls-5" d="m656.5,217.15c0-4.2,2.24-6.49,7.61-6.49,2.48,0,5.04.6,7.13,1.64v-1.64c0-4.44-1.68-6.33-6.49-6.33-2.36,0-4.64.68-6.41,1.92v-2.6c1.72-.96,3.92-1.56,6.81-1.56,6.05,0,8.61,2.8,8.61,8.01v11.29c-2.6,1.6-5.57,2.4-8.89,2.4-6.41,0-8.37-2.44-8.37-6.65Zm14.73,2.92v-5.69c-2-1-4.4-1.48-6.49-1.48-4.12,0-5.73,1.28-5.73,4.24s1.52,4.4,5.93,4.4c2.2,0,4.52-.52,6.29-1.48Z"/>
          <path class="cls-5" d="m679.6,202.57v-6.17h2.52v6.17h6.41v2.24h-6.41v12.89c0,2.6.6,3.84,3.16,3.84,1.24,0,2.36-.2,3.4-.56v2.2c-1.04.36-2.44.6-3.76.6-4,0-5.33-2.28-5.33-6.09v-12.89h-3.96v-2.24h3.96Z"/>
          <path class="cls-5" d="m690.81,211.9c0-6.21,3.16-9.81,9.29-9.81s9.29,3.6,9.29,9.81v2.08c0,6.21-3.12,9.81-9.29,9.81s-9.29-3.6-9.29-9.81v-2.08Zm16.1,0c0-5.29-2.76-7.57-6.85-7.57s-6.73,2.32-6.73,7.57v2.08c0,5.29,2.72,7.57,6.81,7.57s6.77-2.32,6.77-7.57v-2.08Z"/>
          <path class="cls-5" d="m727.44,206.26c-2.08-1.28-4-1.92-6.25-1.92-2,0-3.8.48-5.57,1.48v17.5h-2.52v-18.78c2.48-1.48,5.41-2.44,8.41-2.44,2.36,0,4.24.52,5.93,1.52v2.64Z"/>
          <path class="cls-5" d="m730.36,196.65v-1.12c0-1,.6-1.44,1.52-1.44s1.52.44,1.52,1.44v1.12c0,1-.6,1.44-1.52,1.44s-1.52-.44-1.52-1.44Zm.28,5.93h2.52v20.74h-2.52v-20.74Z"/>
          <path class="cls-5" d="m737.53,217.15c0-4.2,2.24-6.49,7.61-6.49,2.48,0,5.04.6,7.13,1.64v-1.64c0-4.44-1.68-6.33-6.49-6.33-2.36,0-4.64.68-6.41,1.92v-2.6c1.72-.96,3.92-1.56,6.81-1.56,6.05,0,8.61,2.8,8.61,8.01v11.29c-2.6,1.6-5.57,2.4-8.89,2.4-6.41,0-8.37-2.44-8.37-6.65Zm14.73,2.92v-5.69c-2-1-4.4-1.48-6.49-1.48-4.12,0-5.73,1.28-5.73,4.24s1.52,4.4,5.93,4.4c2.2,0,4.52-.52,6.29-1.48Z"/>
          <path class="cls-5" d="m759.46,196.65v-1.12c0-1,.6-1.44,1.52-1.44s1.52.44,1.52,1.44v1.12c0,1-.6,1.44-1.52,1.44s-1.52-.44-1.52-1.44Zm.28,5.93h2.52v20.74h-2.52v-20.74Z"/>
          <path class="cls-5" d="m778.2,212.74c3.64,1.32,4.4,2.76,4.4,5.29,0,3.68-3,5.77-7.89,5.77-2.24,0-5.53-.48-7.73-1.52v-2.6c2.36,1.32,5.33,1.88,7.61,1.88,3.28,0,5.49-1.2,5.49-3.48,0-1.44-.48-2.32-3-3.28l-6.01-2.24c-3.68-1.36-4.44-2.68-4.44-5.04,0-3.68,3.04-5.41,7.69-5.41,2.16,0,4.8.36,6.77,1.16v2.6c-2.04-1.04-4.6-1.52-6.65-1.52-3.36,0-5.29.8-5.29,3.12,0,1.32.52,2.16,3,3.08l6.05,2.2Z"/>
          <path class="cls-5" d="m796.05,204.5c2.4-1.6,4.84-2.4,8.21-2.4,6.89,0,9.25,3.56,9.25,9.81v2.08c0,6.25-2.44,9.81-8.49,9.81-2.76,0-4.8-.84-6.45-2.08v10.09h-2.52v-27.31Zm14.93,7.41c0-4.84-1.64-7.57-6.81-7.57-2.12,0-3.88.44-5.61,1.44v13.57c1.6,1.32,3.64,2.2,6.09,2.2,4.6,0,6.33-2.72,6.33-7.57v-2.08Z"/>
          <path class="cls-5" d="m816.43,211.9c0-6.21,3.16-9.81,9.29-9.81s9.29,3.6,9.29,9.81v2.08c0,6.21-3.12,9.81-9.29,9.81s-9.29-3.6-9.29-9.81v-2.08Zm16.1,0c0-5.29-2.76-7.57-6.85-7.57s-6.73,2.32-6.73,7.57v2.08c0,5.29,2.72,7.57,6.81,7.57s6.77-2.32,6.77-7.57v-2.08Z"/>
          <path class="cls-5" d="m853.06,206.26c-2.08-1.28-4-1.92-6.25-1.92-2,0-3.8.48-5.57,1.48v17.5h-2.52v-18.78c2.48-1.48,5.41-2.44,8.41-2.44,2.36,0,4.24.52,5.93,1.52v2.64Z"/>
          <path class="cls-5" d="m867.83,223.32h-2.52v-18.82c2.08-1.36,4.8-2.4,7.61-2.4s4.6.68,5.85,2.04c2.04-1.36,4.16-2.04,6.93-2.04,5.57,0,7.85,2.76,7.85,8.57v12.65h-2.52v-12.29c0-4.68-1.68-6.69-5.81-6.69-1.88,0-3.64.6-5.25,1.72.48,1.24.68,2.76.68,4.6v12.65h-2.52v-12.29c0-4.76-1.56-6.69-5.69-6.69-1.56,0-3.28.52-4.6,1.44v17.54Z"/>
          <path class="cls-5" d="m899.73,214.47c0,4.6,2.92,7.13,7.81,7.13,2,0,3.92-.52,5.97-1.84v2.6c-1.84.96-3.92,1.44-5.97,1.44-6.97,0-10.29-3.52-10.29-9.77v-2.12c0-6.21,3.32-9.81,9.45-9.81s8.13,3.48,8.13,7.17-2.16,5.21-5.81,5.21h-9.29Zm7.25-21.7l1.24,1.48c1.32,1.56,2.6,3.16,3.6,4.8l-1.24,1-4.84-5.12-4.84,5.12-1.24-1c1.04-1.64,2.28-3.28,3.56-4.8l1.28-1.48h2.48Zm-7.25,19.5h8.89c2.4,0,3.6-.72,3.6-3,0-2.92-1.84-4.92-5.57-4.92-4.12,0-6.93,2.36-6.93,7.53v.4Z"/>
          <path class="cls-5" d="m929.32,212.74c3.64,1.32,4.4,2.76,4.4,5.29,0,3.68-3,5.77-7.89,5.77-2.24,0-5.53-.48-7.73-1.52v-2.6c2.36,1.32,5.33,1.88,7.61,1.88,3.28,0,5.49-1.2,5.49-3.48,0-1.44-.48-2.32-3-3.28l-6.01-2.24c-3.68-1.36-4.44-2.68-4.44-5.04,0-3.68,3.04-5.41,7.69-5.41,2.16,0,4.8.36,6.77,1.16v2.6c-2.04-1.04-4.6-1.52-6.65-1.52-3.36,0-5.29.8-5.29,3.12,0,1.32.52,2.16,3,3.08l6.05,2.2Z"/>
          <path class="cls-5" d="m939.04,221.87v-1.12c0-1,.6-1.44,1.52-1.44s1.52.44,1.52,1.44v1.12c0,1-.6,1.44-1.52,1.44s-1.52-.44-1.52-1.44Z"/>
          <path class="cls-3" d="m222.97,290.37c-5.33,5.97-8.29,14.09-9.41,22.94h-7.93c1.16-8.49,3.48-16.1,8.21-22.38h-11.93v-5.65h21.06v5.08Z"/>
          <path class="cls-3" d="m248.59,300.38c0,8.49-2.96,13.41-11.05,13.41s-11.09-4.92-11.09-13.41v-2.16c0-8.49,2.96-13.41,11.09-13.41s11.05,4.92,11.05,13.41v2.16Zm-7.49-2.16c0-5.49-.8-7.77-3.56-7.77s-3.6,2.28-3.6,7.77v2.16c0,5.49.8,7.77,3.6,7.77s3.56-2.28,3.56-7.77v-2.16Z"/>
          <path class="cls-3" d="m269.08,284.09v23.18c0,1.04.4,1.48,1.28,1.48.76,0,1.44-.08,2.2-.28v4.84c-1.2.32-2.72.48-4.24.48-3.56,0-5.77-1.6-5.77-5.65v-24.06h6.53Z"/>
          <path class="cls-3" d="m280.89,305.31c.36,2.44,1.84,3.64,4.76,3.64,2.44,0,4.64-.36,7.09-1.4v5c-2.32.8-4.68,1.24-7.13,1.24-7.61,0-11.33-3.6-11.33-9.85v-2c0-6.25,3.72-9.85,10.53-9.85s9.45,3.4,9.45,7.29c0,4.12-2.2,5.93-6.09,5.93h-7.29Zm-.04-4.4h4.68c1.52,0,2.12-.2,2.12-1.52,0-1.2-.84-2.44-2.88-2.44-2.44,0-3.72,1.4-3.92,3.96Z"/>
          <path class="cls-3" d="m298.38,287.25v-.88c0-1.64,1.32-2.28,3.56-2.28s3.6.64,3.6,2.28v.88c0,1.6-1.32,2.28-3.6,2.28s-3.56-.68-3.56-2.28Zm.32,5.33h6.53v20.74h-6.53v-20.74Z"/>
          <path class="cls-3" d="m312.15,292.57v-6.21h6.53v6.21h5.49v5.17h-5.49v8.77c0,1.52.52,2.16,1.76,2.16s2.4-.2,3.72-.68v4.76c-1.44.68-3.52,1.04-5.49,1.04-4.64,0-6.53-2.56-6.53-6.81v-9.25h-3.28v-5.17h3.28Z"/>
          <path class="cls-3" d="m326.28,302.06c0-6.29,3.36-9.97,10.45-9.97s10.49,3.68,10.49,9.97v1.76c0,6.29-3.4,9.97-10.49,9.97s-10.45-3.68-10.45-9.97v-1.76Zm14.41-.12c0-3.2-1.48-4.68-4-4.68s-3.92,1.48-3.92,4.68v2c0,3.2,1.48,4.68,4,4.68s3.92-1.48,3.92-4.68v-2Z"/>
          <path class="cls-3" d="m362.56,301.26c4.4,1.48,5.89,3.04,5.89,6.25,0,4.2-3.2,6.29-9.29,6.29-2.72,0-5.89-.56-8.61-1.84v-5.49c2.76,1.44,5.61,2.16,8.21,2.16,2.2,0,3.16-.52,3.16-1.48,0-.64-.28-1-1.2-1.32l-4.72-1.52c-4.28-1.36-5.85-3.04-5.85-6.21,0-4.12,3.28-6.01,9.13-6.01,2.64,0,5.33.4,7.77,1.36v5.41c-2.32-1.08-4.88-1.6-7.33-1.6-2.28,0-3.08.36-3.08,1.2,0,.6.24.92,1.24,1.24l4.68,1.56Z"/>
          <path class="cls-5" d="m381.89,294.5c2.4-1.6,4.84-2.4,8.21-2.4,6.89,0,9.25,3.56,9.25,9.81v2.08c0,6.25-2.44,9.81-8.49,9.81-2.76,0-4.8-.84-6.45-2.08v10.09h-2.52v-27.31Zm14.93,7.41c0-4.84-1.64-7.57-6.81-7.57-2.12,0-3.88.44-5.61,1.44v13.57c1.6,1.32,3.64,2.2,6.09,2.2,4.6,0,6.33-2.72,6.33-7.57v-2.08Z"/>
          <path class="cls-5" d="m402.26,307.15c0-4.2,2.24-6.49,7.61-6.49,2.48,0,5.04.6,7.13,1.64v-1.64c0-4.44-1.68-6.33-6.49-6.33-2.36,0-4.64.68-6.41,1.92v-2.6c1.72-.96,3.92-1.56,6.81-1.56,6.05,0,8.61,2.8,8.61,8.01v11.29c-2.6,1.6-5.57,2.4-8.89,2.4-6.41,0-8.37-2.44-8.37-6.65Zm14.73,2.92v-5.69c-2-1-4.4-1.48-6.49-1.48-4.12,0-5.73,1.28-5.73,4.24s1.52,4.4,5.93,4.4c2.2,0,4.52-.52,6.29-1.48Z"/>
          <path class="cls-5" d="m438.13,296.26c-2.08-1.28-4-1.92-6.25-1.92-2,0-3.8.48-5.57,1.48v17.5h-2.52v-18.78c2.48-1.48,5.41-2.44,8.41-2.44,2.36,0,4.24.52,5.93,1.52v2.64Z"/>
          <path class="cls-5" d="m439.05,307.15c0-4.2,2.24-6.49,7.61-6.49,2.48,0,5.04.6,7.13,1.64v-1.64c0-4.44-1.68-6.33-6.49-6.33-2.36,0-4.64.68-6.41,1.92v-2.6c1.72-.96,3.92-1.56,6.81-1.56,6.05,0,8.61,2.8,8.61,8.01v11.29c-2.6,1.6-5.57,2.4-8.89,2.4-6.41,0-8.37-2.44-8.37-6.65Zm14.73,2.92v-5.69c-2-1-4.4-1.48-6.49-1.48-4.12,0-5.73,1.28-5.73,4.24s1.52,4.4,5.93,4.4c2.2,0,4.52-.52,6.29-1.48Z"/>
          <path class="cls-5" d="m470.72,286.65v-1.12c0-1,.6-1.44,1.52-1.44s1.52.44,1.52,1.44v1.12c0,1-.6,1.44-1.52,1.44s-1.52-.44-1.52-1.44Zm.28,5.93h2.52v20.74h-2.52v-20.74Z"/>
          <path class="cls-5" d="m481.21,313.32h-2.52v-18.78c2.52-1.48,5.49-2.44,8.53-2.44,6.05,0,8.29,2.76,8.29,8.57v12.65h-2.52v-12.37c0-4.68-1.68-6.61-6.17-6.61-2,0-3.8.48-5.61,1.44v17.54Z"/>
          <path class="cls-5" d="m501.58,292.57v-6.17h2.52v6.17h6.41v2.24h-6.41v12.89c0,2.6.6,3.84,3.16,3.84,1.24,0,2.36-.2,3.4-.56v2.2c-1.04.36-2.44.6-3.76.6-4,0-5.33-2.28-5.33-6.09v-12.89h-3.96v-2.24h3.96Z"/>
          <path class="cls-5" d="m515.27,304.47c0,4.6,2.92,7.13,7.81,7.13,2,0,3.92-.52,5.97-1.84v2.6c-1.84.96-3.92,1.44-5.97,1.44-6.97,0-10.29-3.52-10.29-9.77v-2.12c0-6.21,3.32-9.81,9.45-9.81s8.13,3.48,8.13,7.17-2.16,5.21-5.81,5.21h-9.29Zm0-2.2h8.89c2.4,0,3.6-.72,3.6-3,0-2.92-1.84-4.92-5.57-4.92-4.12,0-6.93,2.36-6.93,7.53v.4Z"/>
          <path class="cls-5" d="m548.42,296.26c-2.08-1.28-4-1.92-6.25-1.92-2,0-3.8.48-5.57,1.48v17.5h-2.52v-18.78c2.48-1.48,5.41-2.44,8.41-2.44,2.36,0,4.24.52,5.93,1.52v2.64Z"/>
          <path class="cls-5" d="m553.46,313.32h-2.52v-18.78c2.52-1.48,5.49-2.44,8.53-2.44,6.05,0,8.29,2.76,8.29,8.57v12.65h-2.52v-12.37c0-4.68-1.68-6.61-6.17-6.61-2,0-3.8.48-5.61,1.44v17.54Z"/>
          <path class="cls-5" d="m571.48,307.15c0-4.2,2.24-6.49,7.61-6.49,2.48,0,5.04.6,7.13,1.64v-1.64c0-4.44-1.68-6.33-6.49-6.33-2.36,0-4.64.68-6.41,1.92v-2.6c1.72-.96,3.92-1.56,6.81-1.56,6.05,0,8.61,2.8,8.61,8.01v11.29c-2.6,1.6-5.57,2.4-8.89,2.4-6.41,0-8.37-2.44-8.37-6.65Zm14.73,2.92v-5.69c-2-1-4.4-1.48-6.49-1.48-4.12,0-5.73,1.28-5.73,4.24s1.52,4.4,5.93,4.4c2.2,0,4.52-.52,6.29-1.48Z"/>
          <path class="cls-5" d="m599.1,321.16c.8.32,1.76.52,2.68.52,1.68,0,2.52-.64,2.52-2.24s-.72-2.56-3.04-2.56h-.64v-3.16c-5.61-.48-8.41-3.92-8.41-9.69v-2.12c0-6.21,3.28-9.81,9.85-9.81,2.4,0,4.32.52,6.01,1.48v2.6c-1.88-1.32-3.68-1.84-5.97-1.84-4.28,0-7.41,2-7.41,7.57v2.12c0,5.57,3.2,7.57,7.41,7.57,2.28,0,4.08-.52,5.97-1.8v2.56c-1.64.88-3.2,1.16-5.45,1.4v1.68c2.44.12,4.04,1.44,4.04,4,0,2.8-1.84,4.08-4.4,4.08-1.2,0-2.28-.2-3.16-.6v-1.76Z"/>
          <path class="cls-5" d="m610.99,307.15c0-4.2,2.24-6.49,7.61-6.49,2.48,0,5.04.6,7.13,1.64v-1.64c0-4.44-1.68-6.33-6.49-6.33-2.36,0-4.64.68-6.41,1.92v-2.6c1.72-.96,3.92-1.56,6.81-1.56,6.05,0,8.61,2.8,8.61,8.01v11.29c-2.6,1.6-5.57,2.4-8.89,2.4-6.41,0-8.37-2.44-8.37-6.65Zm8.65-19.3c-1.36-1.04-2.04-1.52-2.88-1.52-.76,0-1.12.56-1.12,2.52v.28h-2.2c-.08-.4-.12-1-.12-1.4,0-2.28.92-3.6,2.72-3.6s2.72.64,3.88,1.52c1.32.96,2.08,1.48,2.88,1.48s1.12-.56,1.12-2.52v-.24h2.2c.08.36.12.96.12,1.36,0,2.28-.88,3.6-2.72,3.6-1.72,0-2.72-.64-3.88-1.48Zm6.09,22.22v-5.69c-2-1-4.4-1.48-6.49-1.48-4.12,0-5.73,1.28-5.73,4.24s1.52,4.4,5.93,4.4c2.2,0,4.52-.52,6.29-1.48Z"/>
          <path class="cls-5" d="m631.72,301.9c0-6.21,3.16-9.81,9.29-9.81s9.29,3.6,9.29,9.81v2.08c0,6.21-3.12,9.81-9.29,9.81s-9.29-3.6-9.29-9.81v-2.08Zm16.1,0c0-5.29-2.76-7.57-6.85-7.57s-6.73,2.32-6.73,7.57v2.08c0,5.29,2.72,7.57,6.81,7.57s6.77-2.32,6.77-7.57v-2.08Z"/>
          <path class="cls-5" d="m665.47,303.99c0,5.57,3.08,7.57,7.41,7.57,2.24,0,4.08-.52,5.93-1.8v2.6c-1.64.92-3.56,1.44-6.01,1.44-6.53,0-9.85-3.56-9.85-9.81v-2.08c0-6.25,3.32-9.81,9.85-9.81,2.44,0,4.36.52,6.01,1.44v2.6c-1.84-1.28-3.68-1.8-5.93-1.8-4.32,0-7.41,2-7.41,7.57v2.08Z"/>
          <path class="cls-5" d="m681.72,301.9c0-6.21,3.16-9.81,9.29-9.81s9.29,3.6,9.29,9.81v2.08c0,6.21-3.12,9.81-9.29,9.81s-9.29-3.6-9.29-9.81v-2.08Zm16.1,0c0-5.29-2.76-7.57-6.85-7.57s-6.73,2.32-6.73,7.57v2.08c0,5.29,2.72,7.57,6.81,7.57s6.77-2.32,6.77-7.57v-2.08Z"/>
          <path class="cls-5" d="m706.54,313.32h-2.52v-18.82c2.08-1.36,4.8-2.4,7.61-2.4s4.6.68,5.85,2.04c2.04-1.36,4.16-2.04,6.93-2.04,5.57,0,7.85,2.76,7.85,8.57v12.65h-2.52v-12.29c0-4.68-1.68-6.69-5.81-6.69-1.88,0-3.64.6-5.25,1.72.48,1.24.68,2.76.68,4.6v12.65h-2.52v-12.29c0-4.76-1.56-6.69-5.69-6.69-1.56,0-3.28.52-4.6,1.44v17.54Z"/>
          <path class="cls-5" d="m748.21,303.99c0,5.57,3.08,7.57,7.41,7.57,2.24,0,4.08-.52,5.93-1.8v2.6c-1.64.92-3.56,1.44-6.01,1.44-6.53,0-9.85-3.56-9.85-9.81v-2.08c0-6.25,3.32-9.81,9.85-9.81,2.44,0,4.36.52,6.01,1.44v2.6c-1.84-1.28-3.68-1.8-5.93-1.8-4.32,0-7.41,2-7.41,7.57v2.08Z"/>
          <path class="cls-5" d="m765.67,286.65v-1.12c0-1,.6-1.44,1.52-1.44s1.52.44,1.52,1.44v1.12c0,1-.6,1.44-1.52,1.44s-1.52-.44-1.52-1.44Zm.28,5.93h2.52v20.74h-2.52v-20.74Z"/>
          <path class="cls-5" d="m787.97,296.26c-2.08-1.28-4-1.92-6.25-1.92-2,0-3.8.48-5.57,1.48v17.5h-2.52v-18.78c2.48-1.48,5.41-2.44,8.41-2.44,2.36,0,4.24.52,5.93,1.52v2.64Z"/>
          <path class="cls-5" d="m804.74,292.57h2.48v18.78c-2.48,1.48-5.45,2.44-8.53,2.44-6.01,0-8.21-2.76-8.21-8.57v-12.65h2.52v12.37c0,4.68,1.6,6.61,6.09,6.61,2,0,3.8-.48,5.65-1.44v-17.54Z"/>
          <path class="cls-5" d="m826.08,296.26c-2.08-1.28-4-1.92-6.25-1.92-2,0-3.8.48-5.57,1.48v17.5h-2.52v-18.78c2.48-1.48,5.41-2.44,8.41-2.44,2.36,0,4.24.52,5.93,1.52v2.64Z"/>
          <path class="cls-5" d="m845.25,313.36c0,6.17-3.04,8.97-9.53,8.97-2.12,0-4.32-.52-6.21-1.48v-2.6c2.08,1.32,4.16,1.84,6.17,1.84,4.36,0,7.05-1.4,7.05-6.73v-1.64c-1.64,1.24-3.72,2.08-6.45,2.08-6.05,0-8.49-3.56-8.49-9.81v-2.08c0-6.25,2.36-9.81,9.25-9.81,3.36,0,5.81.8,8.21,2.4v18.86Zm-14.93-9.37c0,4.84,1.68,7.57,6.33,7.57,2.44,0,4.48-.88,6.09-2.2v-13.57c-1.72-1-3.48-1.44-5.61-1.44-5.17,0-6.81,2.72-6.81,7.57v2.08Z"/>
          <path class="cls-5" d="m850.17,286.65v-1.12c0-1,.6-1.44,1.52-1.44s1.52.44,1.52,1.44v1.12c0,1-.6,1.44-1.52,1.44s-1.52-.44-1.52-1.44Zm.28,5.93h2.52v20.74h-2.52v-20.74Z"/>
          <path class="cls-5" d="m857.34,307.15c0-4.2,2.24-6.49,7.61-6.49,2.48,0,5.04.6,7.13,1.64v-1.64c0-4.44-1.68-6.33-6.49-6.33-2.36,0-4.64.68-6.41,1.92v-2.6c1.72-.96,3.92-1.56,6.81-1.56,6.05,0,8.61,2.8,8.61,8.01v11.29c-2.6,1.6-5.57,2.4-8.89,2.4-6.41,0-8.37-2.44-8.37-6.65Zm14.73,2.92v-5.69c-2-1-4.4-1.48-6.49-1.48-4.12,0-5.73,1.28-5.73,4.24s1.52,4.4,5.93,4.4c2.2,0,4.52-.52,6.29-1.48Z"/>
          <path class="cls-5" d="m889.64,302.74c3.64,1.32,4.4,2.76,4.4,5.29,0,3.68-3,5.77-7.89,5.77-2.24,0-5.53-.48-7.73-1.52v-2.6c2.36,1.32,5.33,1.88,7.61,1.88,3.28,0,5.49-1.2,5.49-3.48,0-1.44-.48-2.32-3-3.28l-6.01-2.24c-3.68-1.36-4.44-2.68-4.44-5.04,0-3.68,3.04-5.41,7.69-5.41,2.16,0,4.8.36,6.77,1.16v2.6c-2.04-1.04-4.6-1.52-6.65-1.52-3.36,0-5.29.8-5.29,3.12,0,1.32.52,2.16,3,3.08l6.05,2.2Z"/>
          <path class="cls-5" d="m203.75,349.47c0,4.6,2.92,7.13,7.81,7.13,2,0,3.92-.52,5.97-1.84v2.6c-1.84.96-3.92,1.44-5.97,1.44-6.97,0-10.29-3.52-10.29-9.77v-2.12c0-6.21,3.32-9.81,9.45-9.81s8.13,3.48,8.13,7.17-2.16,5.21-5.81,5.21h-9.29Zm0-2.2h8.89c2.4,0,3.6-.72,3.6-3,0-2.92-1.84-4.92-5.57-4.92-4.12,0-6.93,2.36-6.93,7.53v.4Z"/>
          <path class="cls-5" d="m226.25,329.09v25.46c0,1.48.56,2.08,1.96,2.08.76,0,1.6-.08,2.4-.28v2.2c-.8.16-1.8.24-2.68.24-2.8,0-4.16-1.28-4.16-4.32v-25.38h2.48Z"/>
          <path class="cls-5" d="m234.93,349.47c0,4.6,2.92,7.13,7.81,7.13,2,0,3.92-.52,5.97-1.84v2.6c-1.84.96-3.92,1.44-5.97,1.44-6.97,0-10.29-3.52-10.29-9.77v-2.12c0-6.21,3.32-9.81,9.45-9.81s8.13,3.48,8.13,7.17-2.16,5.21-5.81,5.21h-9.29Zm0-2.2h8.89c2.4,0,3.6-.72,3.6-3,0-2.92-1.84-4.92-5.57-4.92-4.12,0-6.93,2.36-6.93,7.53v.4Z"/>
          <path class="cls-5" d="m256.11,337.57v-6.17h2.52v6.17h6.41v2.24h-6.41v12.89c0,2.6.6,3.84,3.16,3.84,1.24,0,2.36-.2,3.4-.56v2.2c-1.04.36-2.44.6-3.76.6-4,0-5.33-2.28-5.33-6.09v-12.89h-3.96v-2.24h3.96Z"/>
          <path class="cls-5" d="m268.52,331.65v-1.12c0-1,.6-1.44,1.52-1.44s1.52.44,1.52,1.44v1.12c0,1-.6,1.44-1.52,1.44s-1.52-.44-1.52-1.44Zm.28,5.93h2.52v20.74h-2.52v-20.74Z"/>
          <path class="cls-5" d="m281.97,358.32l-7.29-20.74h2.68l6.29,18.54h.76l6.33-18.54h2.72l-7.33,20.74h-4.16Z"/>
          <path class="cls-5" d="m294.58,352.15c0-4.2,2.24-6.49,7.61-6.49,2.48,0,5.04.6,7.13,1.64v-1.64c0-4.44-1.68-6.33-6.49-6.33-2.36,0-4.64.68-6.41,1.92v-2.6c1.72-.96,3.92-1.56,6.81-1.56,6.05,0,8.61,2.8,8.61,8.01v11.29c-2.6,1.6-5.57,2.4-8.89,2.4-6.41,0-8.37-2.44-8.37-6.65Zm14.73,2.92v-5.69c-2-1-4.4-1.48-6.49-1.48-4.12,0-5.73,1.28-5.73,4.24s1.52,4.4,5.93,4.4c2.2,0,4.52-.52,6.29-1.48Z"/>
          <path class="cls-5" d="m326.89,347.74c3.64,1.32,4.4,2.76,4.4,5.29,0,3.68-3,5.77-7.89,5.77-2.24,0-5.53-.48-7.73-1.52v-2.6c2.36,1.32,5.33,1.88,7.61,1.88,3.28,0,5.49-1.2,5.49-3.48,0-1.44-.48-2.32-3-3.28l-6.01-2.24c-3.68-1.36-4.44-2.68-4.44-5.04,0-3.68,3.04-5.41,7.69-5.41,2.16,0,4.8.36,6.77,1.16v2.6c-2.04-1.04-4.6-1.52-6.65-1.52-3.36,0-5.29.8-5.29,3.12,0,1.32.52,2.16,3,3.08l6.05,2.2Z"/>
          <path class="cls-5" d="m359.07,341.26c-2.08-1.28-4-1.92-6.25-1.92-2,0-3.8.48-5.57,1.48v17.5h-2.52v-18.78c2.48-1.48,5.41-2.44,8.41-2.44,2.36,0,4.24.52,5.93,1.52v2.64Z"/>
          <path class="cls-5" d="m363.27,349.47c0,4.6,2.92,7.13,7.81,7.13,2,0,3.92-.52,5.97-1.84v2.6c-1.84.96-3.92,1.44-5.97,1.44-6.97,0-10.29-3.52-10.29-9.77v-2.12c0-6.21,3.32-9.81,9.45-9.81s8.13,3.48,8.13,7.17-2.16,5.21-5.81,5.21h-9.29Zm0-2.2h8.89c2.4,0,3.6-.72,3.6-3,0-2.92-1.84-4.92-5.57-4.92-4.12,0-6.93,2.36-6.93,7.53v.4Z"/>
          <path class="cls-5" d="m381.29,352.15c0-4.2,2.24-6.49,7.61-6.49,2.48,0,5.04.6,7.13,1.64v-1.64c0-4.44-1.68-6.33-6.49-6.33-2.36,0-4.64.68-6.41,1.92v-2.6c1.72-.96,3.92-1.56,6.81-1.56,6.05,0,8.61,2.8,8.61,8.01v11.29c-2.6,1.6-5.57,2.4-8.89,2.4-6.41,0-8.37-2.44-8.37-6.65Zm14.73,2.92v-5.69c-2-1-4.4-1.48-6.49-1.48-4.12,0-5.73,1.28-5.73,4.24s1.52,4.4,5.93,4.4c2.2,0,4.52-.52,6.29-1.48Z"/>
          <path class="cls-5" d="m406.51,329.09v25.46c0,1.48.56,2.08,1.96,2.08.76,0,1.6-.08,2.4-.28v2.2c-.8.16-1.8.24-2.68.24-2.8,0-4.16-1.28-4.16-4.32v-25.38h2.48Z"/>
          <path class="cls-5" d="m413.91,331.65v-1.12c0-1,.6-1.44,1.52-1.44s1.52.44,1.52,1.44v1.12c0,1-.6,1.44-1.52,1.44s-1.52-.44-1.52-1.44Zm.28,5.93h2.52v20.74h-2.52v-20.74Z"/>
          <path class="cls-5" d="m420.48,356.27l13.05-16.54h-12.29v-2.16h15.46v2.04l-13.09,16.54h13.49v2.16h-16.62v-2.04Z"/>
          <path class="cls-5" d="m439.41,352.15c0-4.2,2.24-6.49,7.61-6.49,2.48,0,5.04.6,7.13,1.64v-1.64c0-4.44-1.68-6.33-6.49-6.33-2.36,0-4.64.68-6.41,1.92v-2.6c1.72-.96,3.92-1.56,6.81-1.56,6.05,0,8.61,2.8,8.61,8.01v11.29c-2.6,1.6-5.57,2.4-8.89,2.4-6.41,0-8.37-2.44-8.37-6.65Zm14.73,2.92v-5.69c-2-1-4.4-1.48-6.49-1.48-4.12,0-5.73,1.28-5.73,4.24s1.52,4.4,5.93,4.4c2.2,0,4.52-.52,6.29-1.48Z"/>
          <path class="cls-5" d="m477.61,356.39c-2.4,1.6-4.84,2.4-8.21,2.4-6.89,0-9.25-3.56-9.25-9.81v-2.08c0-6.25,2.44-9.81,8.49-9.81,2.72,0,4.8.84,6.45,2.08v-10.09h2.52v27.31Zm-14.93-7.41c0,4.84,1.64,7.57,6.81,7.57,2.12,0,3.88-.44,5.61-1.44v-13.57c-1.6-1.32-3.64-2.2-6.09-2.2-4.64,0-6.33,2.72-6.33,7.57v2.08Z"/>
          <path class="cls-5" d="m481.33,352.15c0-4.2,2.24-6.49,7.61-6.49,2.48,0,5.04.6,7.13,1.64v-1.64c0-4.44-1.68-6.33-6.49-6.33-2.36,0-4.64.68-6.41,1.92v-2.6c1.72-.96,3.92-1.56,6.81-1.56,6.05,0,8.61,2.8,8.61,8.01v11.29c-2.6,1.6-5.57,2.4-8.89,2.4-6.41,0-8.37-2.44-8.37-6.65Zm14.73,2.92v-5.69c-2-1-4.4-1.48-6.49-1.48-4.12,0-5.73,1.28-5.73,4.24s1.52,4.4,5.93,4.4c2.2,0,4.52-.52,6.29-1.48Z"/>
          <path class="cls-5" d="m513.63,347.74c3.64,1.32,4.4,2.76,4.4,5.29,0,3.68-3,5.77-7.89,5.77-2.24,0-5.53-.48-7.73-1.52v-2.6c2.36,1.32,5.33,1.88,7.61,1.88,3.28,0,5.49-1.2,5.49-3.48,0-1.44-.48-2.32-3-3.28l-6.01-2.24c-3.68-1.36-4.44-2.68-4.44-5.04,0-3.68,3.04-5.41,7.69-5.41,2.16,0,4.8.36,6.77,1.16v2.6c-2.04-1.04-4.6-1.52-6.65-1.52-3.36,0-5.29.8-5.29,3.12,0,1.32.52,2.16,3,3.08l6.05,2.2Z"/>
          <path class="cls-5" d="m534.01,358.32h-2.52v-18.78c2.52-1.48,5.49-2.44,8.53-2.44,6.05,0,8.29,2.76,8.29,8.57v12.65h-2.52v-12.37c0-4.68-1.68-6.61-6.17-6.61-2,0-3.8.48-5.61,1.44v17.54Z"/>
          <path class="cls-5" d="m552.02,352.15c0-4.2,2.24-6.49,7.61-6.49,2.48,0,5.04.6,7.13,1.64v-1.64c0-4.44-1.68-6.33-6.49-6.33-2.36,0-4.64.68-6.41,1.92v-2.6c1.72-.96,3.92-1.56,6.81-1.56,6.05,0,8.61,2.8,8.61,8.01v11.29c-2.6,1.6-5.57,2.4-8.89,2.4-6.41,0-8.37-2.44-8.37-6.65Zm14.73,2.92v-5.69c-2-1-4.4-1.48-6.49-1.48-4.12,0-5.73,1.28-5.73,4.24s1.52,4.4,5.93,4.4c2.2,0,4.52-.52,6.29-1.48Z"/>
          <path class="cls-5" d="m583.69,331.65v-1.12c0-1,.6-1.44,1.52-1.44s1.52.44,1.52,1.44v1.12c0,1-.6,1.44-1.52,1.44s-1.52-.44-1.52-1.44Zm.28,5.93h2.52v20.74h-2.52v-20.74Z"/>
          <path class="cls-5" d="m594.17,358.32h-2.52v-18.78c2.52-1.48,5.49-2.44,8.53-2.44,6.05,0,8.29,2.76,8.29,8.57v12.65h-2.52v-12.37c0-4.68-1.68-6.61-6.17-6.61-2,0-3.8.48-5.61,1.44v17.54Z"/>
          <path class="cls-5" d="m623.76,347.74c3.64,1.32,4.4,2.76,4.4,5.29,0,3.68-3,5.77-7.89,5.77-2.24,0-5.53-.48-7.73-1.52v-2.6c2.36,1.32,5.33,1.88,7.61,1.88,3.28,0,5.49-1.2,5.49-3.48,0-1.44-.48-2.32-3-3.28l-6.01-2.24c-3.68-1.36-4.44-2.68-4.44-5.04,0-3.68,3.04-5.41,7.69-5.41,2.16,0,4.8.36,6.77,1.16v2.6c-2.04-1.04-4.6-1.52-6.65-1.52-3.36,0-5.29.8-5.29,3.12,0,1.32.52,2.16,3,3.08l6.05,2.2Z"/>
          <path class="cls-5" d="m634.25,337.57v-6.17h2.52v6.17h6.41v2.24h-6.41v12.89c0,2.6.6,3.84,3.16,3.84,1.24,0,2.36-.2,3.4-.56v2.2c-1.04.36-2.44.6-3.76.6-4,0-5.33-2.28-5.33-6.09v-12.89h-3.96v-2.24h3.96Z"/>
          <path class="cls-5" d="m646.65,331.65v-1.12c0-1,.6-1.44,1.52-1.44s1.52.44,1.52,1.44v1.12c0,1-.6,1.44-1.52,1.44s-1.52-.44-1.52-1.44Zm.28,5.93h2.52v20.74h-2.52v-20.74Z"/>
          <path class="cls-5" d="m656.98,337.57v-6.17h2.52v6.17h6.41v2.24h-6.41v12.89c0,2.6.6,3.84,3.16,3.84,1.24,0,2.36-.2,3.4-.56v2.2c-1.04.36-2.44.6-3.76.6-4,0-5.33-2.28-5.33-6.09v-12.89h-3.96v-2.24h3.96Z"/>
          <path class="cls-5" d="m683.25,337.57h2.48v18.78c-2.48,1.48-5.45,2.44-8.53,2.44-6.01,0-8.21-2.76-8.21-8.57v-12.65h2.52v12.37c0,4.68,1.6,6.61,6.09,6.61,2,0,3.8-.48,5.65-1.44v-17.54Z"/>
          <path class="cls-5" d="m690.65,331.65v-1.12c0-1,.6-1.44,1.52-1.44s1.52.44,1.52,1.44v1.12c0,1-.6,1.44-1.52,1.44s-1.52-.44-1.52-1.44Zm.28,5.93h2.52v20.74h-2.52v-20.74Z"/>
          <path class="cls-5" d="m704.7,366.16c.8.32,1.76.52,2.68.52,1.68,0,2.52-.64,2.52-2.24s-.72-2.56-3.04-2.56h-.64v-3.16c-5.61-.48-8.41-3.92-8.41-9.69v-2.12c0-6.21,3.28-9.81,9.85-9.81,2.4,0,4.32.52,6.01,1.48v2.6c-1.88-1.32-3.68-1.84-5.97-1.84-4.28,0-7.41,2-7.41,7.57v2.12c0,5.57,3.2,7.57,7.41,7.57,2.28,0,4.08-.52,5.97-1.8v2.56c-1.64.88-3.2,1.16-5.45,1.4v1.68c2.44.12,4.04,1.44,4.04,4,0,2.8-1.84,4.08-4.4,4.08-1.2,0-2.28-.2-3.16-.6v-1.76Z"/>
          <path class="cls-5" d="m716.59,352.15c0-4.2,2.24-6.49,7.61-6.49,2.48,0,5.04.6,7.13,1.64v-1.64c0-4.44-1.68-6.33-6.49-6.33-2.36,0-4.64.68-6.41,1.92v-2.6c1.72-.96,3.92-1.56,6.81-1.56,6.05,0,8.61,2.8,8.61,8.01v11.29c-2.6,1.6-5.57,2.4-8.89,2.4-6.41,0-8.37-2.44-8.37-6.65Zm8.65-19.3c-1.36-1.04-2.04-1.52-2.88-1.52-.76,0-1.12.56-1.12,2.52v.28h-2.2c-.08-.4-.12-1-.12-1.4,0-2.28.92-3.6,2.72-3.6s2.72.64,3.88,1.52c1.32.96,2.08,1.48,2.88,1.48s1.12-.56,1.12-2.52v-.24h2.2c.08.36.12.96.12,1.36,0,2.28-.88,3.6-2.72,3.6-1.72,0-2.72-.64-3.88-1.48Zm6.09,22.22v-5.69c-2-1-4.4-1.48-6.49-1.48-4.12,0-5.73,1.28-5.73,4.24s1.52,4.4,5.93,4.4c2.2,0,4.52-.52,6.29-1.48Z"/>
          <path class="cls-5" d="m737.33,346.9c0-6.21,3.16-9.81,9.29-9.81s9.29,3.6,9.29,9.81v2.08c0,6.21-3.12,9.81-9.29,9.81s-9.29-3.6-9.29-9.81v-2.08Zm16.1,0c0-5.29-2.76-7.57-6.85-7.57s-6.73,2.32-6.73,7.57v2.08c0,5.29,2.72,7.57,6.81,7.57s6.77-2.32,6.77-7.57v-2.08Z"/>
          <path class="cls-5" d="m771.03,349.47c0,4.6,2.92,7.13,7.81,7.13,2,0,3.92-.52,5.97-1.84v2.6c-1.84.96-3.92,1.44-5.97,1.44-6.97,0-10.29-3.52-10.29-9.77v-2.12c0-6.21,3.32-9.81,9.45-9.81s8.13,3.48,8.13,7.17-2.16,5.21-5.81,5.21h-9.29Zm0-2.2h8.89c2.4,0,3.6-.72,3.6-3,0-2.92-1.84-4.92-5.57-4.92-4.12,0-6.93,2.36-6.93,7.53v.4Z"/>
          <path class="cls-5" d="m801.26,349.47c0,4.6,2.92,7.13,7.81,7.13,2,0,3.92-.52,5.97-1.84v2.6c-1.84.96-3.92,1.44-5.97,1.44-6.97,0-10.29-3.52-10.29-9.77v-2.12c0-6.21,3.32-9.81,9.45-9.81s8.13,3.48,8.13,7.17-2.16,5.21-5.81,5.21h-9.29Zm0-2.2h8.89c2.4,0,3.6-.72,3.6-3,0-2.92-1.84-4.92-5.57-4.92-4.12,0-6.93,2.36-6.93,7.53v.4Z"/>
          <path class="cls-5" d="m825.56,358.32l-7.29-20.74h2.68l6.29,18.54h.76l6.33-18.54h2.72l-7.33,20.74h-4.16Z"/>
          <path class="cls-5" d="m840.65,349.47c0,4.6,2.92,7.13,7.81,7.13,2,0,3.92-.52,5.97-1.84v2.6c-1.84.96-3.92,1.44-5.97,1.44-6.97,0-10.29-3.52-10.29-9.77v-2.12c0-6.21,3.32-9.81,9.45-9.81s8.13,3.48,8.13,7.17-2.16,5.21-5.81,5.21h-9.29Zm0-2.2h8.89c2.4,0,3.6-.72,3.6-3,0-2.92-1.84-4.92-5.57-4.92-4.12,0-6.93,2.36-6.93,7.53v.4Z"/>
          <path class="cls-5" d="m861.98,358.32h-2.52v-18.78c2.52-1.48,5.49-2.44,8.53-2.44,6.05,0,8.29,2.76,8.29,8.57v12.65h-2.52v-12.37c0-4.68-1.68-6.61-6.17-6.61-2,0-3.8.48-5.61,1.44v17.54Z"/>
          <path class="cls-5" d="m882.36,337.57v-6.17h2.52v6.17h6.41v2.24h-6.41v12.89c0,2.6.6,3.84,3.16,3.84,1.24,0,2.36-.2,3.4-.56v2.2c-1.04.36-2.44.6-3.76.6-4,0-5.33-2.28-5.33-6.09v-12.89h-3.96v-2.24h3.96Z"/>
          <path class="cls-5" d="m908.62,337.57h2.48v18.78c-2.48,1.48-5.45,2.44-8.53,2.44-6.01,0-8.21-2.76-8.21-8.57v-12.65h2.52v12.37c0,4.68,1.6,6.61,6.09,6.61,2,0,3.8-.48,5.65-1.44v-17.54Z"/>
          <path class="cls-5" d="m914.82,352.15c0-4.2,2.24-6.49,7.61-6.49,2.48,0,5.04.6,7.13,1.64v-1.64c0-4.44-1.68-6.33-6.49-6.33-2.36,0-4.64.68-6.41,1.92v-2.6c1.72-.96,3.92-1.56,6.81-1.56,6.05,0,8.61,2.8,8.61,8.01v11.29c-2.6,1.6-5.57,2.4-8.89,2.4-6.41,0-8.37-2.44-8.37-6.65Zm14.73,2.92v-5.69c-2-1-4.4-1.48-6.49-1.48-4.12,0-5.73,1.28-5.73,4.24s1.52,4.4,5.93,4.4c2.2,0,4.52-.52,6.29-1.48Z"/>
          <path class="cls-5" d="m936.76,331.65v-1.12c0-1,.6-1.44,1.52-1.44s1.52.44,1.52,1.44v1.12c0,1-.6,1.44-1.52,1.44s-1.52-.44-1.52-1.44Zm.28,5.93h2.52v20.74h-2.52v-20.74Z"/>
          <path class="cls-5" d="m955.5,347.74c3.64,1.32,4.4,2.76,4.4,5.29,0,3.68-3,5.77-7.89,5.77-2.24,0-5.53-.48-7.73-1.52v-2.6c2.36,1.32,5.33,1.88,7.61,1.88,3.28,0,5.49-1.2,5.49-3.48,0-1.44-.48-2.32-3-3.28l-6.01-2.24c-3.68-1.36-4.44-2.68-4.44-5.04,0-3.68,3.04-5.41,7.69-5.41,2.16,0,4.8.36,6.77,1.16v2.6c-2.04-1.04-4.6-1.52-6.65-1.52-3.36,0-5.29.8-5.29,3.12,0,1.32.52,2.16,3,3.08l6.05,2.2Z"/>
          <path class="cls-5" d="m204.43,382.57v-6.17h2.52v6.17h6.41v2.24h-6.41v12.89c0,2.6.6,3.84,3.16,3.84,1.24,0,2.36-.2,3.4-.56v2.2c-1.04.36-2.44.6-3.76.6-4,0-5.33-2.28-5.33-6.09v-12.89h-3.96v-2.24h3.96Z"/>
          <path class="cls-5" d="m230.77,386.26c-2.08-1.28-4-1.92-6.25-1.92-2,0-3.8.48-5.57,1.48v17.5h-2.52v-18.78c2.48-1.48,5.41-2.44,8.41-2.44,2.36,0,4.24.52,5.93,1.52v2.64Z"/>
          <path class="cls-5" d="m231.69,397.15c0-4.2,2.24-6.49,7.61-6.49,2.48,0,5.04.6,7.13,1.64v-1.64c0-4.44-1.68-6.33-6.49-6.33-2.36,0-4.64.68-6.41,1.92v-2.6c1.72-.96,3.92-1.56,6.81-1.56,6.05,0,8.61,2.8,8.61,8.01v11.29c-2.6,1.6-5.57,2.4-8.89,2.4-6.41,0-8.37-2.44-8.37-6.65Zm14.73,2.92v-5.69c-2-1-4.4-1.48-6.49-1.48-4.12,0-5.73,1.28-5.73,4.24s1.52,4.4,5.93,4.4c2.2,0,4.52-.52,6.29-1.48Z"/>
          <path class="cls-5" d="m255.75,403.32h-2.52v-18.78c2.52-1.48,5.49-2.44,8.53-2.44,6.05,0,8.29,2.76,8.29,8.57v12.65h-2.52v-12.37c0-4.68-1.68-6.61-6.17-6.61-2,0-3.8.48-5.61,1.44v17.54Z"/>
          <path class="cls-5" d="m285.34,392.74c3.64,1.32,4.4,2.76,4.4,5.29,0,3.68-3,5.77-7.89,5.77-2.24,0-5.53-.48-7.73-1.52v-2.6c2.36,1.32,5.33,1.88,7.61,1.88,3.28,0,5.49-1.2,5.49-3.48,0-1.44-.48-2.32-3-3.28l-6.01-2.24c-3.68-1.36-4.44-2.68-4.44-5.04,0-3.68,3.04-5.41,7.69-5.41,2.16,0,4.8.36,6.77,1.16v2.6c-2.04-1.04-4.6-1.52-6.65-1.52-3.36,0-5.29.8-5.29,3.12,0,1.32.52,2.16,3,3.08l6.05,2.2Z"/>
          <path class="cls-5" d="m291.86,384.82v-2.24h3.96v-2.72c0-3.84,1.44-6.09,5.49-6.09,1.28,0,2.76.24,3.76.6v2.24c-1-.4-2.2-.6-3.4-.6-2.56,0-3.32,1.2-3.32,3.84v2.72h6.73v2.24h-6.73v18.5h-2.52v-18.5h-3.96Z"/>
          <path class="cls-5" d="m308.87,394.47c0,4.6,2.92,7.13,7.81,7.13,2,0,3.92-.52,5.97-1.84v2.6c-1.84.96-3.92,1.44-5.97,1.44-6.97,0-10.29-3.52-10.29-9.77v-2.12c0-6.21,3.32-9.81,9.45-9.81s8.13,3.48,8.13,7.17-2.16,5.21-5.81,5.21h-9.29Zm0-2.2h8.89c2.4,0,3.6-.72,3.6-3,0-2.92-1.84-4.92-5.57-4.92-4.12,0-6.93,2.36-6.93,7.53v.4Z"/>
          <path class="cls-5" d="m342.02,386.26c-2.08-1.28-4-1.92-6.25-1.92-2,0-3.8.48-5.57,1.48v17.5h-2.52v-18.78c2.48-1.48,5.41-2.44,8.41-2.44,2.36,0,4.24.52,5.93,1.52v2.64Z"/>
          <path class="cls-5" d="m346.22,394.47c0,4.6,2.92,7.13,7.81,7.13,2,0,3.92-.52,5.97-1.84v2.6c-1.84.96-3.92,1.44-5.97,1.44-6.97,0-10.29-3.52-10.29-9.77v-2.12c0-6.21,3.32-9.81,9.45-9.81s8.13,3.48,8.13,7.17-2.16,5.21-5.81,5.21h-9.29Zm7.25-21.7l1.24,1.48c1.32,1.56,2.6,3.16,3.6,4.8l-1.24,1-4.84-5.12-4.84,5.12-1.24-1c1.04-1.64,2.28-3.28,3.56-4.8l1.28-1.48h2.48Zm-7.25,19.5h8.89c2.4,0,3.6-.72,3.6-3,0-2.92-1.84-4.92-5.57-4.92-4.12,0-6.93,2.36-6.93,7.53v.4Z"/>
          <path class="cls-5" d="m367.56,403.32h-2.52v-18.78c2.52-1.48,5.49-2.44,8.53-2.44,6.05,0,8.29,2.76,8.29,8.57v12.65h-2.52v-12.37c0-4.68-1.68-6.61-6.17-6.61-2,0-3.8.48-5.61,1.44v17.54Z"/>
          <path class="cls-5" d="m388.1,393.99c0,5.57,3.08,7.57,7.41,7.57,2.24,0,4.08-.52,5.93-1.8v2.6c-1.64.92-3.56,1.44-6.01,1.44-6.53,0-9.85-3.56-9.85-9.81v-2.08c0-6.25,3.32-9.81,9.85-9.81,2.44,0,4.36.52,6.01,1.44v2.6c-1.84-1.28-3.68-1.8-5.93-1.8-4.32,0-7.41,2-7.41,7.57v2.08Z"/>
          <path class="cls-5" d="m405.55,376.65v-1.12c0-1,.6-1.44,1.52-1.44s1.52.44,1.52,1.44v1.12c0,1-.6,1.44-1.52,1.44s-1.52-.44-1.52-1.44Zm.28,5.93h2.52v20.74h-2.52v-20.74Z"/>
          <path class="cls-5" d="m412.71,397.15c0-4.2,2.24-6.49,7.61-6.49,2.48,0,5.04.6,7.13,1.64v-1.64c0-4.44-1.68-6.33-6.49-6.33-2.36,0-4.64.68-6.41,1.92v-2.6c1.72-.96,3.92-1.56,6.81-1.56,6.05,0,8.61,2.8,8.61,8.01v11.29c-2.6,1.6-5.57,2.4-8.89,2.4-6.41,0-8.37-2.44-8.37-6.65Zm14.73,2.92v-5.69c-2-1-4.4-1.48-6.49-1.48-4.12,0-5.73,1.28-5.73,4.24s1.52,4.4,5.93,4.4c2.2,0,4.52-.52,6.29-1.48Z"/>
          <path class="cls-5" d="m445.02,392.74c3.64,1.32,4.4,2.76,4.4,5.29,0,3.68-3,5.77-7.89,5.77-2.24,0-5.53-.48-7.73-1.52v-2.6c2.36,1.32,5.33,1.88,7.61,1.88,3.28,0,5.49-1.2,5.49-3.48,0-1.44-.48-2.32-3-3.28l-6.01-2.24c-3.68-1.36-4.44-2.68-4.44-5.04,0-3.68,3.04-5.41,7.69-5.41,2.16,0,4.8.36,6.77,1.16v2.6c-2.04-1.04-4.6-1.52-6.65-1.52-3.36,0-5.29.8-5.29,3.12,0,1.32.52,2.16,3,3.08l6.05,2.2Z"/>
          <path class="cls-5" d="m479.53,401.39c-2.4,1.6-4.84,2.4-8.21,2.4-6.89,0-9.25-3.56-9.25-9.81v-2.08c0-6.25,2.44-9.81,8.49-9.81,2.72,0,4.8.84,6.45,2.08v-10.09h2.52v27.31Zm-14.93-7.41c0,4.84,1.64,7.57,6.81,7.57,2.12,0,3.88-.44,5.61-1.44v-13.57c-1.6-1.32-3.64-2.2-6.09-2.2-4.64,0-6.33,2.72-6.33,7.57v2.08Z"/>
          <path class="cls-5" d="m485.73,394.47c0,4.6,2.92,7.13,7.81,7.13,2,0,3.92-.52,5.97-1.84v2.6c-1.84.96-3.92,1.44-5.97,1.44-6.97,0-10.29-3.52-10.29-9.77v-2.12c0-6.21,3.32-9.81,9.45-9.81s8.13,3.48,8.13,7.17-2.16,5.21-5.81,5.21h-9.29Zm0-2.2h8.89c2.4,0,3.6-.72,3.6-3,0-2.92-1.84-4.92-5.57-4.92-4.12,0-6.93,2.36-6.93,7.53v.4Z"/>
          <path class="cls-5" d="m513.47,391.9c0-6.21,3.16-9.81,9.29-9.81s9.29,3.6,9.29,9.81v2.08c0,6.21-3.12,9.81-9.29,9.81s-9.29-3.6-9.29-9.81v-2.08Zm16.1,0c0-5.29-2.76-7.57-6.85-7.57s-6.73,2.32-6.73,7.57v2.08c0,5.29,2.72,7.57,6.81,7.57s6.77-2.32,6.77-7.57v-2.08Z"/>
          <path class="cls-5" d="m550.02,382.57h2.48v18.78c-2.48,1.48-5.45,2.44-8.53,2.44-6.01,0-8.21-2.76-8.21-8.57v-12.65h2.52v12.37c0,4.68,1.6,6.61,6.09,6.61,2,0,3.8-.48,5.65-1.44v-17.54Z"/>
          <path class="cls-5" d="m559.39,382.57v-6.17h2.52v6.17h6.41v2.24h-6.41v12.89c0,2.6.6,3.84,3.16,3.84,1.24,0,2.36-.2,3.4-.56v2.2c-1.04.36-2.44.6-3.76.6-4,0-5.33-2.28-5.33-6.09v-12.89h-3.96v-2.24h3.96Z"/>
          <path class="cls-5" d="m585.73,386.26c-2.08-1.28-4-1.92-6.25-1.92-2,0-3.8.48-5.57,1.48v17.5h-2.52v-18.78c2.48-1.48,5.41-2.44,8.41-2.44,2.36,0,4.24.52,5.93,1.52v2.64Z"/>
          <path class="cls-5" d="m587.45,391.9c0-6.21,3.16-9.81,9.29-9.81s9.29,3.6,9.29,9.81v2.08c0,6.21-3.12,9.81-9.29,9.81s-9.29-3.6-9.29-9.81v-2.08Zm16.1,0c0-5.29-2.76-7.57-6.85-7.57s-6.73,2.32-6.73,7.57v2.08c0,5.29,2.72,7.57,6.81,7.57s6.77-2.32,6.77-7.57v-2.08Z"/>
          <path class="cls-5" d="m620.52,392.74c3.64,1.32,4.4,2.76,4.4,5.29,0,3.68-3,5.77-7.89,5.77-2.24,0-5.53-.48-7.73-1.52v-2.6c2.36,1.32,5.33,1.88,7.61,1.88,3.28,0,5.49-1.2,5.49-3.48,0-1.44-.48-2.32-3-3.28l-6.01-2.24c-3.68-1.36-4.44-2.68-4.44-5.04,0-3.68,3.04-5.41,7.69-5.41,2.16,0,4.8.36,6.77,1.16v2.6c-2.04-1.04-4.6-1.52-6.65-1.52-3.36,0-5.29.8-5.29,3.12,0,1.32.52,2.16,3,3.08l6.05,2.2Z"/>
          <path class="cls-5" d="m652.62,403.32v-12.37c0-4.6-1.44-6.61-5.77-6.61-2.16,0-4.36.88-5.97,2.24v16.74h-2.52v-29.23h2.52v10.13c1.72-1.2,4.04-2.12,6.57-2.12,5.49,0,7.65,2.72,7.65,8.57v12.65h-2.48Z"/>
          <path class="cls-5" d="m658.82,391.9c0-6.21,3.16-9.81,9.29-9.81s9.29,3.6,9.29,9.81v2.08c0,6.21-3.12,9.81-9.29,9.81s-9.29-3.6-9.29-9.81v-2.08Zm16.1,0c0-5.29-2.76-7.57-6.85-7.57s-6.73,2.32-6.73,7.57v2.08c0,5.29,2.72,7.57,6.81,7.57s6.77-2.32,6.77-7.57v-2.08Z"/>
          <path class="cls-5" d="m691.89,392.74c3.64,1.32,4.4,2.76,4.4,5.29,0,3.68-3,5.77-7.89,5.77-2.24,0-5.53-.48-7.73-1.52v-2.6c2.36,1.32,5.33,1.88,7.61,1.88,3.28,0,5.49-1.2,5.49-3.48,0-1.44-.48-2.32-3-3.28l-6.01-2.24c-3.68-1.36-4.44-2.68-4.44-5.04,0-3.68,3.04-5.41,7.69-5.41,2.16,0,4.8.36,6.77,1.16v2.6c-2.04-1.04-4.6-1.52-6.65-1.52-3.36,0-5.29.8-5.29,3.12,0,1.32.52,2.16,3,3.08l6.05,2.2Z"/>
          <path class="cls-5" d="m700.02,384.5c2.4-1.6,4.84-2.4,8.21-2.4,6.89,0,9.25,3.56,9.25,9.81v2.08c0,6.25-2.44,9.81-8.49,9.81-2.76,0-4.8-.84-6.45-2.08v10.09h-2.52v-27.31Zm14.93,7.41c0-4.84-1.64-7.57-6.81-7.57-2.12,0-3.88.44-5.61,1.44v13.57c1.6,1.32,3.64,2.2,6.09,2.2,4.6,0,6.33-2.72,6.33-7.57v-2.08Z"/>
          <path class="cls-5" d="m721.59,376.65v-1.12c0-1,.6-1.44,1.52-1.44s1.52.44,1.52,1.44v1.12c0,1-.6,1.44-1.52,1.44s-1.52-.44-1.52-1.44Zm.28,5.93h2.52v20.74h-2.52v-20.74Z"/>
          <path class="cls-5" d="m731.92,382.57v-6.17h2.52v6.17h6.41v2.24h-6.41v12.89c0,2.6.6,3.84,3.16,3.84,1.24,0,2.36-.2,3.4-.56v2.2c-1.04.36-2.44.6-3.76.6-4,0-5.33-2.28-5.33-6.09v-12.89h-3.96v-2.24h3.96Z"/>
          <path class="cls-5" d="m743.13,397.15c0-4.2,2.24-6.49,7.61-6.49,2.48,0,5.04.6,7.13,1.64v-1.64c0-4.44-1.68-6.33-6.49-6.33-2.36,0-4.64.68-6.41,1.92v-2.6c1.72-.96,3.92-1.56,6.81-1.56,6.05,0,8.61,2.8,8.61,8.01v11.29c-2.6,1.6-5.57,2.4-8.89,2.4-6.41,0-8.37-2.44-8.37-6.65Zm14.73,2.92v-5.69c-2-1-4.4-1.48-6.49-1.48-4.12,0-5.73,1.28-5.73,4.24s1.52,4.4,5.93,4.4c2.2,0,4.52-.52,6.29-1.48Z"/>
          <path class="cls-5" d="m765.07,376.65v-1.12c0-1,.6-1.44,1.52-1.44s1.52.44,1.52,1.44v1.12c0,1-.6,1.44-1.52,1.44s-1.52-.44-1.52-1.44Zm.28,5.93h2.52v20.74h-2.52v-20.74Z"/>
          <path class="cls-5" d="m783.8,392.74c3.64,1.32,4.4,2.76,4.4,5.29,0,3.68-3,5.77-7.89,5.77-2.24,0-5.53-.48-7.73-1.52v-2.6c2.36,1.32,5.33,1.88,7.61,1.88,3.28,0,5.49-1.2,5.49-3.48,0-1.44-.48-2.32-3-3.28l-6.01-2.24c-3.68-1.36-4.44-2.68-4.44-5.04,0-3.68,3.04-5.41,7.69-5.41,2.16,0,4.8.36,6.77,1.16v2.6c-2.04-1.04-4.6-1.52-6.65-1.52-3.36,0-5.29.8-5.29,3.12,0,1.32.52,2.16,3,3.08l6.05,2.2Z"/>
          <path class="cls-5" d="m793.53,401.87v-1.12c0-1,.6-1.44,1.52-1.44s1.52.44,1.52,1.44v1.12c0,1-.6,1.44-1.52,1.44s-1.52-.44-1.52-1.44Z"/>
          <path class="cls-3" d="m221.45,466.81v6.01c-2.56-1.6-5.04-2.32-8.21-2.32s-4.2,1.76-4.2,4.84c1.08-.48,2.68-.8,3.92-.8,7.25,0,10.21,3.44,10.21,8.33v1.6c0,5.97-4.48,9.33-10.73,9.33-7.13,0-10.89-3.56-10.89-8.97v-8.49c0-7.21,3.36-11.53,10.89-11.53,3.32,0,6.53.68,9.01,2Zm-12.41,13.93v4.04c0,1.92.84,3.36,3.16,3.36,2.44,0,3.48-1.36,3.48-3.72v-1.32c0-1.8-.84-2.92-3.6-2.92-1.16,0-2.04.2-3.04.56Z"/>
          <path class="cls-3" d="m248.59,480.38c0,8.49-2.96,13.41-11.05,13.41s-11.09-4.92-11.09-13.41v-2.16c0-8.49,2.96-13.41,11.09-13.41s11.05,4.92,11.05,13.41v2.16Zm-7.49-2.16c0-5.49-.8-7.77-3.56-7.77s-3.6,2.28-3.6,7.77v2.16c0,5.49.8,7.77,3.6,7.77s3.56-2.28,3.56-7.77v-2.16Z"/>
          <path class="cls-3" d="m267.88,473.1c0,4.72-3.16,7.25-7.45,7.25s-7.29-2.52-7.29-7.25v-.84c0-4.72,3.04-7.25,7.29-7.25s7.45,2.52,7.45,7.25v.84Zm-5.57-.2v-.44c0-1.48-.48-2.36-1.88-2.36s-1.88.88-1.88,2.36v.44c0,1.44.52,2.32,1.88,2.32s1.88-.88,1.88-2.32Zm12.81-7.61h4.28l-15.09,28.03h-4.32l15.13-28.03Zm-3.6,20.22c0-4.72,3.16-7.25,7.45-7.25s7.45,2.52,7.45,7.25v.84c0,4.72-3.16,7.25-7.45,7.25s-7.45-2.52-7.45-7.25v-.84Zm5.57.2v.44c0,1.48.48,2.36,1.88,2.36s1.92-.88,1.92-2.36v-.44c0-1.44-.52-2.32-1.92-2.32s-1.88.88-1.88,2.32Z"/>
          <path class="cls-5" d="m318.12,491.39c-2.4,1.6-4.84,2.4-8.21,2.4-6.89,0-9.25-3.56-9.25-9.81v-2.08c0-6.25,2.44-9.81,8.49-9.81,2.72,0,4.8.84,6.45,2.08v-10.09h2.52v27.31Zm-14.93-7.41c0,4.84,1.64,7.57,6.81,7.57,2.12,0,3.88-.44,5.61-1.44v-13.57c-1.6-1.32-3.64-2.2-6.09-2.2-4.64,0-6.33,2.72-6.33,7.57v2.08Z"/>
          <path class="cls-5" d="m321.84,481.9c0-6.21,3.16-9.81,9.29-9.81s9.29,3.6,9.29,9.81v2.08c0,6.21-3.12,9.81-9.29,9.81s-9.29-3.6-9.29-9.81v-2.08Zm16.1,0c0-5.29-2.76-7.57-6.85-7.57s-6.73,2.32-6.73,7.57v2.08c0,5.29,2.72,7.57,6.81,7.57s6.77-2.32,6.77-7.57v-2.08Z"/>
          <path class="cls-5" d="m354.91,482.74c3.64,1.32,4.4,2.76,4.4,5.29,0,3.68-3,5.77-7.89,5.77-2.24,0-5.53-.48-7.73-1.52v-2.6c2.36,1.32,5.33,1.88,7.61,1.88,3.28,0,5.49-1.2,5.49-3.48,0-1.44-.48-2.32-3-3.28l-6.01-2.24c-3.68-1.36-4.44-2.68-4.44-5.04,0-3.68,3.04-5.41,7.69-5.41,2.16,0,4.8.36,6.77,1.16v2.6c-2.04-1.04-4.6-1.52-6.65-1.52-3.36,0-5.29.8-5.29,3.12,0,1.32.52,2.16,3,3.08l6.05,2.2Z"/>
          <path class="cls-5" d="m371.96,487.15c0-4.2,2.24-6.49,7.61-6.49,2.48,0,5.04.6,7.13,1.64v-1.64c0-4.44-1.68-6.33-6.49-6.33-2.36,0-4.64.68-6.41,1.92v-2.6c1.72-.96,3.92-1.56,6.81-1.56,6.05,0,8.61,2.8,8.61,8.01v11.29c-2.6,1.6-5.57,2.4-8.89,2.4-6.41,0-8.37-2.44-8.37-6.65Zm14.73,2.92v-5.69c-2-1-4.4-1.48-6.49-1.48-4.12,0-5.73,1.28-5.73,4.24s1.52,4.4,5.93,4.4c2.2,0,4.52-.52,6.29-1.48Z"/>
          <path class="cls-5" d="m395.06,472.57v-6.17h2.52v6.17h6.41v2.24h-6.41v12.89c0,2.6.6,3.84,3.16,3.84,1.24,0,2.36-.2,3.4-.56v2.2c-1.04.36-2.44.6-3.76.6-4,0-5.33-2.28-5.33-6.09v-12.89h-3.96v-2.24h3.96Z"/>
          <path class="cls-5" d="m408.75,484.47c0,4.6,2.92,7.13,7.81,7.13,2,0,3.92-.52,5.97-1.84v2.6c-1.84.96-3.92,1.44-5.97,1.44-6.97,0-10.29-3.52-10.29-9.77v-2.12c0-6.21,3.32-9.81,9.45-9.81s8.13,3.48,8.13,7.17-2.16,5.21-5.81,5.21h-9.29Zm0-2.2h8.89c2.4,0,3.6-.72,3.6-3,0-2.92-1.84-4.92-5.57-4.92-4.12,0-6.93,2.36-6.93,7.53v.4Z"/>
          <path class="cls-5" d="m430.09,493.32h-2.52v-18.78c2.52-1.48,5.49-2.44,8.53-2.44,6.05,0,8.29,2.76,8.29,8.57v12.65h-2.52v-12.37c0-4.68-1.68-6.61-6.17-6.61-2,0-3.8.48-5.61,1.44v17.54Z"/>
          <path class="cls-5" d="m465.56,491.39c-2.4,1.6-4.84,2.4-8.21,2.4-6.89,0-9.25-3.56-9.25-9.81v-2.08c0-6.25,2.44-9.81,8.49-9.81,2.72,0,4.8.84,6.45,2.08v-10.09h2.52v27.31Zm-14.93-7.41c0,4.84,1.64,7.57,6.81,7.57,2.12,0,3.88-.44,5.61-1.44v-13.57c-1.6-1.32-3.64-2.2-6.09-2.2-4.64,0-6.33,2.72-6.33,7.57v2.08Z"/>
          <path class="cls-5" d="m470.48,466.65v-1.12c0-1,.6-1.44,1.52-1.44s1.52.44,1.52,1.44v1.12c0,1-.6,1.44-1.52,1.44s-1.52-.44-1.52-1.44Zm.28,5.93h2.52v20.74h-2.52v-20.74Z"/>
          <path class="cls-5" d="m480.97,493.32h-2.52v-18.82c2.08-1.36,4.8-2.4,7.61-2.4s4.6.68,5.85,2.04c2.04-1.36,4.16-2.04,6.93-2.04,5.57,0,7.85,2.76,7.85,8.57v12.65h-2.52v-12.29c0-4.68-1.68-6.69-5.81-6.69-1.88,0-3.64.6-5.25,1.72.48,1.24.68,2.76.68,4.6v12.65h-2.52v-12.29c0-4.76-1.56-6.69-5.69-6.69-1.56,0-3.28.52-4.6,1.44v17.54Z"/>
          <path class="cls-5" d="m512.87,484.47c0,4.6,2.92,7.13,7.81,7.13,2,0,3.92-.52,5.97-1.84v2.6c-1.84.96-3.92,1.44-5.97,1.44-6.97,0-10.29-3.52-10.29-9.77v-2.12c0-6.21,3.32-9.81,9.45-9.81s8.13,3.48,8.13,7.17-2.16,5.21-5.81,5.21h-9.29Zm0-2.2h8.89c2.4,0,3.6-.72,3.6-3,0-2.92-1.84-4.92-5.57-4.92-4.12,0-6.93,2.36-6.93,7.53v.4Z"/>
          <path class="cls-5" d="m534.21,493.32h-2.52v-18.78c2.52-1.48,5.49-2.44,8.53-2.44,6.05,0,8.29,2.76,8.29,8.57v12.65h-2.52v-12.37c0-4.68-1.68-6.61-6.17-6.61-2,0-3.8.48-5.61,1.44v17.54Z"/>
          <path class="cls-5" d="m554.59,472.57v-6.17h2.52v6.17h6.41v2.24h-6.41v12.89c0,2.6.6,3.84,3.16,3.84,1.24,0,2.36-.2,3.4-.56v2.2c-1.04.36-2.44.6-3.76.6-4,0-5.33-2.28-5.33-6.09v-12.89h-3.96v-2.24h3.96Z"/>
          <path class="cls-5" d="m565.79,481.9c0-6.21,3.16-9.81,9.29-9.81s9.29,3.6,9.29,9.81v2.08c0,6.21-3.12,9.81-9.29,9.81s-9.29-3.6-9.29-9.81v-2.08Zm16.1,0c0-5.29-2.76-7.57-6.85-7.57s-6.73,2.32-6.73,7.57v2.08c0,5.29,2.72,7.57,6.81,7.57s6.77-2.32,6.77-7.57v-2.08Z"/>
          <path class="cls-5" d="m598.86,482.74c3.64,1.32,4.4,2.76,4.4,5.29,0,3.68-3,5.77-7.89,5.77-2.24,0-5.53-.48-7.73-1.52v-2.6c2.36,1.32,5.33,1.88,7.61,1.88,3.28,0,5.49-1.2,5.49-3.48,0-1.44-.48-2.32-3-3.28l-6.01-2.24c-3.68-1.36-4.44-2.68-4.44-5.04,0-3.68,3.04-5.41,7.69-5.41,2.16,0,4.8.36,6.77,1.16v2.6c-2.04-1.04-4.6-1.52-6.65-1.52-3.36,0-5.29.8-5.29,3.12,0,1.32.52,2.16,3,3.08l6.05,2.2Z"/>
          <path class="cls-5" d="m627.48,482.74c3.64,1.32,4.4,2.76,4.4,5.29,0,3.68-3,5.77-7.89,5.77-2.24,0-5.53-.48-7.73-1.52v-2.6c2.36,1.32,5.33,1.88,7.61,1.88,3.28,0,5.49-1.2,5.49-3.48,0-1.44-.48-2.32-3-3.28l-6.01-2.24c-3.68-1.36-4.44-2.68-4.44-5.04,0-3.68,3.04-5.41,7.69-5.41,2.16,0,4.8.36,6.77,1.16v2.6c-2.04-1.04-4.6-1.52-6.65-1.52-3.36,0-5.29.8-5.29,3.12,0,1.32.52,2.16,3,3.08l6.05,2.2Z"/>
          <path class="cls-5" d="m634.81,487.15c0-4.2,2.24-6.49,7.61-6.49,2.48,0,5.04.6,7.13,1.64v-1.64c0-4.44-1.68-6.33-6.49-6.33-2.36,0-4.64.68-6.41,1.92v-2.6c1.72-.96,3.92-1.56,6.81-1.56,6.05,0,8.61,2.8,8.61,8.01v11.29c-2.6,1.6-5.57,2.4-8.89,2.4-6.41,0-8.37-2.44-8.37-6.65Zm8.65-19.3c-1.36-1.04-2.04-1.52-2.88-1.52-.76,0-1.12.56-1.12,2.52v.28h-2.2c-.08-.4-.12-1-.12-1.4,0-2.28.92-3.6,2.72-3.6s2.72.64,3.88,1.52c1.32.96,2.08,1.48,2.88,1.48s1.12-.56,1.12-2.52v-.24h2.2c.08.36.12.96.12,1.36,0,2.28-.88,3.6-2.72,3.6-1.72,0-2.72-.64-3.88-1.48Zm6.09,22.22v-5.69c-2-1-4.4-1.48-6.49-1.48-4.12,0-5.73,1.28-5.73,4.24s1.52,4.4,5.93,4.4c2.2,0,4.52-.52,6.29-1.48Z"/>
          <path class="cls-5" d="m655.54,481.9c0-6.21,3.16-9.81,9.29-9.81s9.29,3.6,9.29,9.81v2.08c0,6.21-3.12,9.81-9.29,9.81s-9.29-3.6-9.29-9.81v-2.08Zm16.1,0c0-5.29-2.76-7.57-6.85-7.57s-6.73,2.32-6.73,7.57v2.08c0,5.29,2.72,7.57,6.81,7.57s6.77-2.32,6.77-7.57v-2.08Z"/>
          <path class="cls-5" d="m687.57,474.5c2.4-1.6,4.84-2.4,8.21-2.4,6.89,0,9.25,3.56,9.25,9.81v2.08c0,6.25-2.44,9.81-8.49,9.81-2.76,0-4.8-.84-6.45-2.08v10.09h-2.52v-27.31Zm14.93,7.41c0-4.84-1.64-7.57-6.81-7.57-2.12,0-3.88.44-5.61,1.44v13.57c1.6,1.32,3.64,2.2,6.09,2.2,4.6,0,6.33-2.72,6.33-7.57v-2.08Z"/>
          <path class="cls-5" d="m707.94,481.9c0-6.21,3.16-9.81,9.29-9.81s9.29,3.6,9.29,9.81v2.08c0,6.21-3.12,9.81-9.29,9.81s-9.29-3.6-9.29-9.81v-2.08Zm16.1,0c0-5.29-2.76-7.57-6.85-7.57s-6.73,2.32-6.73,7.57v2.08c0,5.29,2.72,7.57,6.81,7.57s6.77-2.32,6.77-7.57v-2.08Z"/>
          <path class="cls-5" d="m744.57,476.26c-2.08-1.28-4-1.92-6.25-1.92-2,0-3.8.48-5.57,1.48v17.5h-2.52v-18.78c2.48-1.48,5.41-2.44,8.41-2.44,2.36,0,4.24.52,5.93,1.52v2.64Z"/>
          <path class="cls-5" d="m758.54,483.99c0,5.57,3.08,7.57,7.41,7.57,2.24,0,4.08-.52,5.93-1.8v2.6c-1.64.92-3.56,1.44-6.01,1.44-6.53,0-9.85-3.56-9.85-9.81v-2.08c0-6.25,3.32-9.81,9.85-9.81,2.44,0,4.36.52,6.01,1.44v2.6c-1.84-1.28-3.68-1.8-5.93-1.8-4.32,0-7.41,2-7.41,7.57v2.08Z"/>
          <path class="cls-5" d="m774.79,481.9c0-6.21,3.16-9.81,9.29-9.81s9.29,3.6,9.29,9.81v2.08c0,6.21-3.12,9.81-9.29,9.81s-9.29-3.6-9.29-9.81v-2.08Zm16.1,0c0-5.29-2.76-7.57-6.85-7.57s-6.73,2.32-6.73,7.57v2.08c0,5.29,2.72,7.57,6.81,7.57s6.77-2.32,6.77-7.57v-2.08Z"/>
          <path class="cls-5" d="m799.61,493.32h-2.52v-18.78c2.52-1.48,5.49-2.44,8.53-2.44,6.05,0,8.29,2.76,8.29,8.57v12.65h-2.52v-12.37c0-4.68-1.68-6.61-6.17-6.61-2,0-3.8.48-5.61,1.44v17.54Z"/>
          <path class="cls-5" d="m823.52,493.32l-7.29-20.74h2.68l6.29,18.54h.76l6.33-18.54h2.72l-7.33,20.74h-4.16Z"/>
          <path class="cls-5" d="m838.61,484.47c0,4.6,2.92,7.13,7.81,7.13,2,0,3.92-.52,5.97-1.84v2.6c-1.84.96-3.92,1.44-5.97,1.44-6.97,0-10.29-3.52-10.29-9.77v-2.12c0-6.21,3.32-9.81,9.45-9.81s8.13,3.48,8.13,7.17-2.16,5.21-5.81,5.21h-9.29Zm7.25-21.7l1.24,1.48c1.32,1.56,2.6,3.16,3.6,4.8l-1.24,1-4.84-5.12-4.84,5.12-1.24-1c1.04-1.64,2.28-3.28,3.56-4.8l1.28-1.48h2.48Zm-7.25,19.5h8.89c2.4,0,3.6-.72,3.6-3,0-2.92-1.84-4.92-5.57-4.92-4.12,0-6.93,2.36-6.93,7.53v.4Z"/>
          <path class="cls-5" d="m859.94,493.32h-2.52v-18.78c2.52-1.48,5.49-2.44,8.53-2.44,6.05,0,8.29,2.76,8.29,8.57v12.65h-2.52v-12.37c0-4.68-1.68-6.61-6.17-6.61-2,0-3.8.48-5.61,1.44v17.54Z"/>
          <path class="cls-5" d="m879.16,466.65v-1.12c0-1,.6-1.44,1.52-1.44s1.52.44,1.52,1.44v1.12c0,1-.6,1.44-1.52,1.44s-1.52-.44-1.52-1.44Zm.28,5.93h2.52v20.74h-2.52v-20.74Z"/>
          <path class="cls-5" d="m886.32,481.9c0-6.21,3.16-9.81,9.29-9.81s9.29,3.6,9.29,9.81v2.08c0,6.21-3.12,9.81-9.29,9.81s-9.29-3.6-9.29-9.81v-2.08Zm16.1,0c0-5.29-2.76-7.57-6.85-7.57s-6.73,2.32-6.73,7.57v2.08c0,5.29,2.72,7.57,6.81,7.57s6.77-2.32,6.77-7.57v-2.08Z"/>
          <path class="cls-5" d="m204.59,538.32h-2.52v-18.82c2.08-1.36,4.8-2.4,7.61-2.4s4.6.68,5.85,2.04c2.04-1.36,4.16-2.04,6.93-2.04,5.57,0,7.85,2.76,7.85,8.57v12.65h-2.52v-12.29c0-4.68-1.68-6.69-5.81-6.69-1.88,0-3.64.6-5.25,1.72.48,1.24.68,2.76.68,4.6v12.65h-2.52v-12.29c0-4.76-1.56-6.69-5.69-6.69-1.56,0-3.28.52-4.6,1.44v17.54Z"/>
          <path class="cls-5" d="m249.07,517.57h2.48v18.78c-2.48,1.48-5.45,2.44-8.53,2.44-6.01,0-8.21-2.76-8.21-8.57v-12.65h2.52v12.37c0,4.68,1.6,6.61,6.09,6.61,2,0,3.8-.48,5.65-1.44v-17.54Z"/>
          <path class="cls-5" d="m258.59,538.32h-2.52v-18.78c2.52-1.48,5.49-2.44,8.53-2.44,6.05,0,8.29,2.76,8.29,8.57v12.65h-2.52v-12.37c0-4.68-1.68-6.61-6.17-6.61-2,0-3.8.48-5.61,1.44v17.54Z"/>
          <path class="cls-5" d="m277.81,511.65v-1.12c0-1,.6-1.44,1.52-1.44s1.52.44,1.52,1.44v1.12c0,1-.6,1.44-1.52,1.44s-1.52-.44-1.52-1.44Zm.28,5.93h2.52v20.74h-2.52v-20.74Z"/>
          <path class="cls-5" d="m287.5,528.99c0,5.57,3.08,7.57,7.41,7.57,2.24,0,4.08-.52,5.93-1.8v2.6c-1.64.92-3.56,1.44-6.01,1.44-6.53,0-9.85-3.56-9.85-9.81v-2.08c0-6.25,3.32-9.81,9.85-9.81,2.44,0,4.36.52,6.01,1.44v2.6c-1.84-1.28-3.68-1.8-5.93-1.8-4.32,0-7.41,2-7.41,7.57v2.08Z"/>
          <path class="cls-5" d="m304.95,511.65v-1.12c0-1,.6-1.44,1.52-1.44s1.52.44,1.52,1.44v1.12c0,1-.6,1.44-1.52,1.44s-1.52-.44-1.52-1.44Zm.28,5.93h2.52v20.74h-2.52v-20.74Z"/>
          <path class="cls-5" d="m312.92,519.5c2.4-1.6,4.84-2.4,8.21-2.4,6.89,0,9.25,3.56,9.25,9.81v2.08c0,6.25-2.44,9.81-8.49,9.81-2.76,0-4.8-.84-6.45-2.08v10.09h-2.52v-27.31Zm14.93,7.41c0-4.84-1.64-7.57-6.81-7.57-2.12,0-3.88.44-5.61,1.44v13.57c1.6,1.32,3.64,2.2,6.09,2.2,4.6,0,6.33-2.72,6.33-7.57v-2.08Z"/>
          <path class="cls-5" d="m333.29,532.15c0-4.2,2.24-6.49,7.61-6.49,2.48,0,5.04.6,7.13,1.64v-1.64c0-4.44-1.68-6.33-6.49-6.33-2.36,0-4.64.68-6.41,1.92v-2.6c1.72-.96,3.92-1.56,6.81-1.56,6.05,0,8.61,2.8,8.61,8.01v11.29c-2.6,1.6-5.57,2.4-8.89,2.4-6.41,0-8.37-2.44-8.37-6.65Zm14.73,2.92v-5.69c-2-1-4.4-1.48-6.49-1.48-4.12,0-5.73,1.28-5.73,4.24s1.52,4.4,5.93,4.4c2.2,0,4.52-.52,6.29-1.48Z"/>
          <path class="cls-5" d="m358.51,509.09v25.46c0,1.48.56,2.08,1.96,2.08.76,0,1.6-.08,2.4-.28v2.2c-.8.16-1.8.24-2.68.24-2.8,0-4.16-1.28-4.16-4.32v-25.38h2.48Z"/>
          <path class="cls-5" d="m376.93,529.47c0,4.6,2.92,7.13,7.81,7.13,2,0,3.92-.52,5.97-1.84v2.6c-1.84.96-3.92,1.44-5.97,1.44-6.97,0-10.29-3.52-10.29-9.77v-2.12c0-6.21,3.32-9.81,9.45-9.81s8.13,3.48,8.13,7.17-2.16,5.21-5.81,5.21h-9.29Zm0-2.2h8.89c2.4,0,3.6-.72,3.6-3,0-2.92-1.84-4.92-5.57-4.92-4.12,0-6.93,2.36-6.93,7.53v.4Z"/>
          <path class="cls-5" d="m409.43,523.26c-3.08-1.44-4.76-3.52-4.76-6.81,0-4.32,3.2-6.65,9.05-6.65,2.96,0,6.05.76,7.97,1.88v2.64c-2.24-1.36-5.08-2.2-7.81-2.2-3.88,0-6.53,1.16-6.53,4.36,0,2.32,1.32,3.68,3.96,4.88l7.09,3.28c3.08,1.44,4.72,3.48,4.72,7.01,0,4.52-3.4,7.13-9.25,7.13-3.64,0-6.97-.84-9.13-2.08v-2.68c2.28,1.4,5.73,2.44,8.97,2.44,3.88,0,6.73-1.44,6.73-4.84,0-2.52-1.32-3.84-3.96-5.08l-7.05-3.28Z"/>
          <path class="cls-5" d="m427.24,528.31v-18.02h2.68v17.82c0,5.77,2.6,8.29,7.13,8.29s7.05-2.52,7.05-8.29v-17.82h2.68v18.02c0,7.61-4.2,10.49-9.73,10.49s-9.81-2.88-9.81-10.49Z"/>
          <path class="cls-5" d="m455.67,523.26c-3.08-1.44-4.76-3.52-4.76-6.81,0-4.32,3.2-6.65,9.05-6.65,2.96,0,6.05.76,7.97,1.88v2.64c-2.24-1.36-5.08-2.2-7.81-2.2-3.88,0-6.53,1.16-6.53,4.36,0,2.32,1.32,3.68,3.96,4.88l7.09,3.28c3.08,1.44,4.72,3.48,4.72,7.01,0,4.52-3.4,7.13-9.25,7.13-3.64,0-6.97-.84-9.13-2.08v-2.68c2.28,1.4,5.73,2.44,8.97,2.44,3.88,0,6.73-1.44,6.73-4.84,0-2.52-1.32-3.84-3.96-5.08l-7.05-3.28Z"/>
          <path class="cls-5" d="m474.68,536.87v-1.12c0-1,.6-1.44,1.52-1.44s1.52.44,1.52,1.44v1.12c0,1-.6,1.44-1.52,1.44s-1.52-.44-1.52-1.44Z"/>
          <path class="cls-3" d="m220.81,628.32h-7.53v-5.53h-12.29v-4.48l5.17-18.02h7.57l-4.64,16.82h4.2v-7.65h7.53v7.65h2.96v5.69h-2.96v5.53Z"/>
          <path class="cls-3" d="m248.59,615.38c0,8.49-2.96,13.41-11.05,13.41s-11.09-4.92-11.09-13.41v-2.16c0-8.49,2.96-13.41,11.09-13.41s11.05,4.92,11.05,13.41v2.16Zm-7.49-2.16c0-5.49-.8-7.77-3.56-7.77s-3.6,2.28-3.6,7.77v2.16c0,5.49.8,7.77,3.6,7.77s3.56-2.28,3.56-7.77v-2.16Z"/>
          <path class="cls-3" d="m267.88,608.1c0,4.72-3.16,7.25-7.45,7.25s-7.29-2.52-7.29-7.25v-.84c0-4.72,3.04-7.25,7.29-7.25s7.45,2.52,7.45,7.25v.84Zm-5.57-.2v-.44c0-1.48-.48-2.36-1.88-2.36s-1.88.88-1.88,2.36v.44c0,1.44.52,2.32,1.88,2.32s1.88-.88,1.88-2.32Zm12.81-7.61h4.28l-15.09,28.03h-4.32l15.13-28.03Zm-3.6,20.22c0-4.72,3.16-7.25,7.45-7.25s7.45,2.52,7.45,7.25v.84c0,4.72-3.16,7.25-7.45,7.25s-7.45-2.52-7.45-7.25v-.84Zm5.57.2v.44c0,1.48.48,2.36,1.88,2.36s1.92-.88,1.92-2.36v-.44c0-1.44-.52-2.32-1.92-2.32s-1.88.88-1.88,2.32Z"/>
          <path class="cls-5" d="m318.12,626.39c-2.4,1.6-4.84,2.4-8.21,2.4-6.89,0-9.25-3.56-9.25-9.81v-2.08c0-6.25,2.44-9.81,8.49-9.81,2.72,0,4.8.84,6.45,2.08v-10.09h2.52v27.31Zm-14.93-7.41c0,4.84,1.64,7.57,6.81,7.57,2.12,0,3.88-.44,5.61-1.44v-13.57c-1.6-1.32-3.64-2.2-6.09-2.2-4.64,0-6.33,2.72-6.33,7.57v2.08Z"/>
          <path class="cls-5" d="m321.84,616.9c0-6.21,3.16-9.81,9.29-9.81s9.29,3.6,9.29,9.81v2.08c0,6.21-3.12,9.81-9.29,9.81s-9.29-3.6-9.29-9.81v-2.08Zm16.1,0c0-5.29-2.76-7.57-6.85-7.57s-6.73,2.32-6.73,7.57v2.08c0,5.29,2.72,7.57,6.81,7.57s6.77-2.32,6.77-7.57v-2.08Z"/>
          <path class="cls-5" d="m354.91,617.74c3.64,1.32,4.4,2.76,4.4,5.29,0,3.68-3,5.77-7.89,5.77-2.24,0-5.53-.48-7.73-1.52v-2.6c2.36,1.32,5.33,1.88,7.61,1.88,3.28,0,5.49-1.2,5.49-3.48,0-1.44-.48-2.32-3-3.28l-6.01-2.24c-3.68-1.36-4.44-2.68-4.44-5.04,0-3.68,3.04-5.41,7.69-5.41,2.16,0,4.8.36,6.77,1.16v2.6c-2.04-1.04-4.6-1.52-6.65-1.52-3.36,0-5.29.8-5.29,3.12,0,1.32.52,2.16,3,3.08l6.05,2.2Z"/>
          <path class="cls-5" d="m371.96,622.15c0-4.2,2.24-6.49,7.61-6.49,2.48,0,5.04.6,7.13,1.64v-1.64c0-4.44-1.68-6.33-6.49-6.33-2.36,0-4.64.68-6.41,1.92v-2.6c1.72-.96,3.92-1.56,6.81-1.56,6.05,0,8.61,2.8,8.61,8.01v11.29c-2.6,1.6-5.57,2.4-8.89,2.4-6.41,0-8.37-2.44-8.37-6.65Zm14.73,2.92v-5.69c-2-1-4.4-1.48-6.49-1.48-4.12,0-5.73,1.28-5.73,4.24s1.52,4.4,5.93,4.4c2.2,0,4.52-.52,6.29-1.48Z"/>
          <path class="cls-5" d="m395.06,607.57v-6.17h2.52v6.17h6.41v2.24h-6.41v12.89c0,2.6.6,3.84,3.16,3.84,1.24,0,2.36-.2,3.4-.56v2.2c-1.04.36-2.44.6-3.76.6-4,0-5.33-2.28-5.33-6.09v-12.89h-3.96v-2.24h3.96Z"/>
          <path class="cls-5" d="m408.75,619.47c0,4.6,2.92,7.13,7.81,7.13,2,0,3.92-.52,5.97-1.84v2.6c-1.84.96-3.92,1.44-5.97,1.44-6.97,0-10.29-3.52-10.29-9.77v-2.12c0-6.21,3.32-9.81,9.45-9.81s8.13,3.48,8.13,7.17-2.16,5.21-5.81,5.21h-9.29Zm0-2.2h8.89c2.4,0,3.6-.72,3.6-3,0-2.92-1.84-4.92-5.57-4.92-4.12,0-6.93,2.36-6.93,7.53v.4Z"/>
          <path class="cls-5" d="m430.09,628.32h-2.52v-18.78c2.52-1.48,5.49-2.44,8.53-2.44,6.05,0,8.29,2.76,8.29,8.57v12.65h-2.52v-12.37c0-4.68-1.68-6.61-6.17-6.61-2,0-3.8.48-5.61,1.44v17.54Z"/>
          <path class="cls-5" d="m465.56,626.39c-2.4,1.6-4.84,2.4-8.21,2.4-6.89,0-9.25-3.56-9.25-9.81v-2.08c0-6.25,2.44-9.81,8.49-9.81,2.72,0,4.8.84,6.45,2.08v-10.09h2.52v27.31Zm-14.93-7.41c0,4.84,1.64,7.57,6.81,7.57,2.12,0,3.88-.44,5.61-1.44v-13.57c-1.6-1.32-3.64-2.2-6.09-2.2-4.64,0-6.33,2.72-6.33,7.57v2.08Z"/>
          <path class="cls-5" d="m470.48,601.65v-1.12c0-1,.6-1.44,1.52-1.44s1.52.44,1.52,1.44v1.12c0,1-.6,1.44-1.52,1.44s-1.52-.44-1.52-1.44Zm.28,5.93h2.52v20.74h-2.52v-20.74Z"/>
          <path class="cls-5" d="m480.97,628.32h-2.52v-18.82c2.08-1.36,4.8-2.4,7.61-2.4s4.6.68,5.85,2.04c2.04-1.36,4.16-2.04,6.93-2.04,5.57,0,7.85,2.76,7.85,8.57v12.65h-2.52v-12.29c0-4.68-1.68-6.69-5.81-6.69-1.88,0-3.64.6-5.25,1.72.48,1.24.68,2.76.68,4.6v12.65h-2.52v-12.29c0-4.76-1.56-6.69-5.69-6.69-1.56,0-3.28.52-4.6,1.44v17.54Z"/>
          <path class="cls-5" d="m512.87,619.47c0,4.6,2.92,7.13,7.81,7.13,2,0,3.92-.52,5.97-1.84v2.6c-1.84.96-3.92,1.44-5.97,1.44-6.97,0-10.29-3.52-10.29-9.77v-2.12c0-6.21,3.32-9.81,9.45-9.81s8.13,3.48,8.13,7.17-2.16,5.21-5.81,5.21h-9.29Zm0-2.2h8.89c2.4,0,3.6-.72,3.6-3,0-2.92-1.84-4.92-5.57-4.92-4.12,0-6.93,2.36-6.93,7.53v.4Z"/>
          <path class="cls-5" d="m534.21,628.32h-2.52v-18.78c2.52-1.48,5.49-2.44,8.53-2.44,6.05,0,8.29,2.76,8.29,8.57v12.65h-2.52v-12.37c0-4.68-1.68-6.61-6.17-6.61-2,0-3.8.48-5.61,1.44v17.54Z"/>
          <path class="cls-5" d="m554.59,607.57v-6.17h2.52v6.17h6.41v2.24h-6.41v12.89c0,2.6.6,3.84,3.16,3.84,1.24,0,2.36-.2,3.4-.56v2.2c-1.04.36-2.44.6-3.76.6-4,0-5.33-2.28-5.33-6.09v-12.89h-3.96v-2.24h3.96Z"/>
          <path class="cls-5" d="m565.79,616.9c0-6.21,3.16-9.81,9.29-9.81s9.29,3.6,9.29,9.81v2.08c0,6.21-3.12,9.81-9.29,9.81s-9.29-3.6-9.29-9.81v-2.08Zm16.1,0c0-5.29-2.76-7.57-6.85-7.57s-6.73,2.32-6.73,7.57v2.08c0,5.29,2.72,7.57,6.81,7.57s6.77-2.32,6.77-7.57v-2.08Z"/>
          <path class="cls-5" d="m598.86,617.74c3.64,1.32,4.4,2.76,4.4,5.29,0,3.68-3,5.77-7.89,5.77-2.24,0-5.53-.48-7.73-1.52v-2.6c2.36,1.32,5.33,1.88,7.61,1.88,3.28,0,5.49-1.2,5.49-3.48,0-1.44-.48-2.32-3-3.28l-6.01-2.24c-3.68-1.36-4.44-2.68-4.44-5.04,0-3.68,3.04-5.41,7.69-5.41,2.16,0,4.8.36,6.77,1.16v2.6c-2.04-1.04-4.6-1.52-6.65-1.52-3.36,0-5.29.8-5.29,3.12,0,1.32.52,2.16,3,3.08l6.05,2.2Z"/>
          <path class="cls-5" d="m627.48,617.74c3.64,1.32,4.4,2.76,4.4,5.29,0,3.68-3,5.77-7.89,5.77-2.24,0-5.53-.48-7.73-1.52v-2.6c2.36,1.32,5.33,1.88,7.61,1.88,3.28,0,5.49-1.2,5.49-3.48,0-1.44-.48-2.32-3-3.28l-6.01-2.24c-3.68-1.36-4.44-2.68-4.44-5.04,0-3.68,3.04-5.41,7.69-5.41,2.16,0,4.8.36,6.77,1.16v2.6c-2.04-1.04-4.6-1.52-6.65-1.52-3.36,0-5.29.8-5.29,3.12,0,1.32.52,2.16,3,3.08l6.05,2.2Z"/>
          <path class="cls-5" d="m634.81,622.15c0-4.2,2.24-6.49,7.61-6.49,2.48,0,5.04.6,7.13,1.64v-1.64c0-4.44-1.68-6.33-6.49-6.33-2.36,0-4.64.68-6.41,1.92v-2.6c1.72-.96,3.92-1.56,6.81-1.56,6.05,0,8.61,2.8,8.61,8.01v11.29c-2.6,1.6-5.57,2.4-8.89,2.4-6.41,0-8.37-2.44-8.37-6.65Zm8.65-19.3c-1.36-1.04-2.04-1.52-2.88-1.52-.76,0-1.12.56-1.12,2.52v.28h-2.2c-.08-.4-.12-1-.12-1.4,0-2.28.92-3.6,2.72-3.6s2.72.64,3.88,1.52c1.32.96,2.08,1.48,2.88,1.48s1.12-.56,1.12-2.52v-.24h2.2c.08.36.12.96.12,1.36,0,2.28-.88,3.6-2.72,3.6-1.72,0-2.72-.64-3.88-1.48Zm6.09,22.22v-5.69c-2-1-4.4-1.48-6.49-1.48-4.12,0-5.73,1.28-5.73,4.24s1.52,4.4,5.93,4.4c2.2,0,4.52-.52,6.29-1.48Z"/>
          <path class="cls-5" d="m655.54,616.9c0-6.21,3.16-9.81,9.29-9.81s9.29,3.6,9.29,9.81v2.08c0,6.21-3.12,9.81-9.29,9.81s-9.29-3.6-9.29-9.81v-2.08Zm16.1,0c0-5.29-2.76-7.57-6.85-7.57s-6.73,2.32-6.73,7.57v2.08c0,5.29,2.72,7.57,6.81,7.57s6.77-2.32,6.77-7.57v-2.08Z"/>
          <path class="cls-5" d="m687.57,609.5c2.4-1.6,4.84-2.4,8.21-2.4,6.89,0,9.25,3.56,9.25,9.81v2.08c0,6.25-2.44,9.81-8.49,9.81-2.76,0-4.8-.84-6.45-2.08v10.09h-2.52v-27.31Zm14.93,7.41c0-4.84-1.64-7.57-6.81-7.57-2.12,0-3.88.44-5.61,1.44v13.57c1.6,1.32,3.64,2.2,6.09,2.2,4.6,0,6.33-2.72,6.33-7.57v-2.08Z"/>
          <path class="cls-5" d="m707.94,622.15c0-4.2,2.24-6.49,7.61-6.49,2.48,0,5.04.6,7.13,1.64v-1.64c0-4.44-1.68-6.33-6.49-6.33-2.36,0-4.64.68-6.41,1.92v-2.6c1.72-.96,3.92-1.56,6.81-1.56,6.05,0,8.61,2.8,8.61,8.01v11.29c-2.6,1.6-5.57,2.4-8.89,2.4-6.41,0-8.37-2.44-8.37-6.65Zm14.73,2.92v-5.69c-2-1-4.4-1.48-6.49-1.48-4.12,0-5.73,1.28-5.73,4.24s1.52,4.4,5.93,4.4c2.2,0,4.52-.52,6.29-1.48Z"/>
          <path class="cls-5" d="m743.81,611.26c-2.08-1.28-4-1.92-6.25-1.92-2,0-3.8.48-5.57,1.48v17.5h-2.52v-18.78c2.48-1.48,5.41-2.44,8.41-2.44,2.36,0,4.24.52,5.93,1.52v2.64Z"/>
          <path class="cls-5" d="m749.1,607.57v-6.17h2.52v6.17h6.41v2.24h-6.41v12.89c0,2.6.6,3.84,3.16,3.84,1.24,0,2.36-.2,3.4-.56v2.2c-1.04.36-2.44.6-3.76.6-4,0-5.33-2.28-5.33-6.09v-12.89h-3.96v-2.24h3.96Z"/>
          <path class="cls-5" d="m761.51,601.65v-1.12c0-1,.6-1.44,1.52-1.44s1.52.44,1.52,1.44v1.12c0,1-.6,1.44-1.52,1.44s-1.52-.44-1.52-1.44Zm.28,5.93h2.52v20.74h-2.52v-20.74Z"/>
          <path class="cls-5" d="m771.19,618.99c0,5.57,3.08,7.57,7.41,7.57,2.24,0,4.08-.52,5.93-1.8v2.6c-1.64.92-3.56,1.44-6.01,1.44-6.53,0-9.85-3.56-9.85-9.81v-2.08c0-6.25,3.32-9.81,9.85-9.81,2.44,0,4.36.52,6.01,1.44v2.6c-1.84-1.28-3.68-1.8-5.93-1.8-4.32,0-7.41,2-7.41,7.57v2.08Z"/>
          <path class="cls-5" d="m802.5,607.57h2.48v18.78c-2.48,1.48-5.45,2.44-8.53,2.44-6.01,0-8.21-2.76-8.21-8.57v-12.65h2.52v12.37c0,4.68,1.6,6.61,6.09,6.61,2,0,3.8-.48,5.65-1.44v-17.54Z"/>
          <path class="cls-5" d="m813.19,599.09v25.46c0,1.48.56,2.08,1.96,2.08.76,0,1.6-.08,2.4-.28v2.2c-.8.16-1.8.24-2.68.24-2.8,0-4.16-1.28-4.16-4.32v-25.38h2.48Z"/>
          <path class="cls-5" d="m819.39,622.15c0-4.2,2.24-6.49,7.61-6.49,2.48,0,5.04.6,7.13,1.64v-1.64c0-4.44-1.68-6.33-6.49-6.33-2.36,0-4.64.68-6.41,1.92v-2.6c1.72-.96,3.92-1.56,6.81-1.56,6.05,0,8.61,2.8,8.61,8.01v11.29c-2.6,1.6-5.57,2.4-8.89,2.4-6.41,0-8.37-2.44-8.37-6.65Zm14.73,2.92v-5.69c-2-1-4.4-1.48-6.49-1.48-4.12,0-5.73,1.28-5.73,4.24s1.52,4.4,5.93,4.4c2.2,0,4.52-.52,6.29-1.48Z"/>
          <path class="cls-5" d="m855.26,611.26c-2.08-1.28-4-1.92-6.25-1.92-2,0-3.8.48-5.57,1.48v17.5h-2.52v-18.78c2.48-1.48,5.41-2.44,8.41-2.44,2.36,0,4.24.52,5.93,1.52v2.64Z"/>
          <path class="cls-5" d="m859.46,619.47c0,4.6,2.92,7.13,7.81,7.13,2,0,3.92-.52,5.97-1.84v2.6c-1.84.96-3.92,1.44-5.97,1.44-6.97,0-10.29-3.52-10.29-9.77v-2.12c0-6.21,3.32-9.81,9.45-9.81s8.13,3.48,8.13,7.17-2.16,5.21-5.81,5.21h-9.29Zm0-2.2h8.89c2.4,0,3.6-.72,3.6-3,0-2.92-1.84-4.92-5.57-4.92-4.12,0-6.93,2.36-6.93,7.53v.4Z"/>
          <path class="cls-5" d="m889.05,617.74c3.64,1.32,4.4,2.76,4.4,5.29,0,3.68-3,5.77-7.89,5.77-2.24,0-5.53-.48-7.73-1.52v-2.6c2.36,1.32,5.33,1.88,7.61,1.88,3.28,0,5.49-1.2,5.49-3.48,0-1.44-.48-2.32-3-3.28l-6.01-2.24c-3.68-1.36-4.44-2.68-4.44-5.04,0-3.68,3.04-5.41,7.69-5.41,2.16,0,4.8.36,6.77,1.16v2.6c-2.04-1.04-4.6-1.52-6.65-1.52-3.36,0-5.29.8-5.29,3.12,0,1.32.52,2.16,3,3.08l6.05,2.2Z"/>
          <path class="cls-5" d="m201.27,661.9c0-6.21,3.16-9.81,9.29-9.81s9.29,3.6,9.29,9.81v2.08c0,6.21-3.12,9.81-9.29,9.81s-9.29-3.6-9.29-9.81v-2.08Zm16.1,0c0-5.29-2.76-7.57-6.85-7.57s-6.73,2.32-6.73,7.57v2.08c0,5.29,2.72,7.57,6.81,7.57s6.77-2.32,6.77-7.57v-2.08Z"/>
          <path class="cls-5" d="m237.82,652.57h2.48v18.78c-2.48,1.48-5.45,2.44-8.53,2.44-6.01,0-8.21-2.76-8.21-8.57v-12.65h2.52v12.37c0,4.68,1.6,6.61,6.09,6.61,2,0,3.8-.48,5.65-1.44v-17.54Z"/>
          <path class="cls-5" d="m254.55,654.5c2.4-1.6,4.84-2.4,8.21-2.4,6.89,0,9.25,3.56,9.25,9.81v2.08c0,6.25-2.44,9.81-8.49,9.81-2.76,0-4.8-.84-6.45-2.08v10.09h-2.52v-27.31Zm14.93,7.41c0-4.84-1.64-7.57-6.81-7.57-2.12,0-3.88.44-5.61,1.44v13.57c1.6,1.32,3.64,2.2,6.09,2.2,4.6,0,6.33-2.72,6.33-7.57v-2.08Z"/>
          <path class="cls-5" d="m279.41,644.09v25.46c0,1.48.56,2.08,1.96,2.08.76,0,1.6-.08,2.4-.28v2.2c-.8.16-1.8.24-2.68.24-2.8,0-4.16-1.28-4.16-4.32v-25.38h2.48Z"/>
          <path class="cls-5" d="m285.61,667.15c0-4.2,2.24-6.49,7.61-6.49,2.48,0,5.04.6,7.13,1.64v-1.64c0-4.44-1.68-6.33-6.49-6.33-2.36,0-4.64.68-6.41,1.92v-2.6c1.72-.96,3.92-1.56,6.81-1.56,6.05,0,8.61,2.8,8.61,8.01v11.29c-2.6,1.6-5.57,2.4-8.89,2.4-6.41,0-8.37-2.44-8.37-6.65Zm14.73,2.92v-5.69c-2-1-4.4-1.48-6.49-1.48-4.12,0-5.73,1.28-5.73,4.24s1.52,4.4,5.93,4.4c2.2,0,4.52-.52,6.29-1.48Z"/>
          <path class="cls-5" d="m309.67,673.32h-2.52v-18.78c2.52-1.48,5.49-2.44,8.53-2.44,6.05,0,8.29,2.76,8.29,8.57v12.65h-2.52v-12.37c0-4.68-1.68-6.61-6.17-6.61-2,0-3.8.48-5.61,1.44v17.54Z"/>
          <path class="cls-5" d="m327.69,661.9c0-6.21,3.16-9.81,9.29-9.81s9.29,3.6,9.29,9.81v2.08c0,6.21-3.12,9.81-9.29,9.81s-9.29-3.6-9.29-9.81v-2.08Zm16.1,0c0-5.29-2.76-7.57-6.85-7.57s-6.73,2.32-6.73,7.57v2.08c0,5.29,2.72,7.57,6.81,7.57s6.77-2.32,6.77-7.57v-2.08Z"/>
          <path class="cls-5" d="m360.75,662.74c3.64,1.32,4.4,2.76,4.4,5.29,0,3.68-3,5.77-7.89,5.77-2.24,0-5.53-.48-7.73-1.52v-2.6c2.36,1.32,5.33,1.88,7.61,1.88,3.28,0,5.49-1.2,5.49-3.48,0-1.44-.48-2.32-3-3.28l-6.01-2.24c-3.68-1.36-4.44-2.68-4.44-5.04,0-3.68,3.04-5.41,7.69-5.41,2.16,0,4.8.36,6.77,1.16v2.6c-2.04-1.04-4.6-1.52-6.65-1.52-3.36,0-5.29.8-5.29,3.12,0,1.32.52,2.16,3,3.08l6.05,2.2Z"/>
          <path class="cls-5" d="m395.26,671.39c-2.4,1.6-4.84,2.4-8.21,2.4-6.89,0-9.25-3.56-9.25-9.81v-2.08c0-6.25,2.44-9.81,8.49-9.81,2.72,0,4.8.84,6.45,2.08v-10.09h2.52v27.31Zm-14.93-7.41c0,4.84,1.64,7.57,6.81,7.57,2.12,0,3.88-.44,5.61-1.44v-13.57c-1.6-1.32-3.64-2.2-6.09-2.2-4.64,0-6.33,2.72-6.33,7.57v2.08Z"/>
          <path class="cls-5" d="m401.46,664.47c0,4.6,2.92,7.13,7.81,7.13,2,0,3.92-.52,5.97-1.84v2.6c-1.84.96-3.92,1.44-5.97,1.44-6.97,0-10.29-3.52-10.29-9.77v-2.12c0-6.21,3.32-9.81,9.45-9.81s8.13,3.48,8.13,7.17-2.16,5.21-5.81,5.21h-9.29Zm0-2.2h8.89c2.4,0,3.6-.72,3.6-3,0-2.92-1.84-4.92-5.57-4.92-4.12,0-6.93,2.36-6.93,7.53v.4Z"/>
          <path class="cls-5" d="m440.78,662.74c3.64,1.32,4.4,2.76,4.4,5.29,0,3.68-3,5.77-7.89,5.77-2.24,0-5.53-.48-7.73-1.52v-2.6c2.36,1.32,5.33,1.88,7.61,1.88,3.28,0,5.49-1.2,5.49-3.48,0-1.44-.48-2.32-3-3.28l-6.01-2.24c-3.68-1.36-4.44-2.68-4.44-5.04,0-3.68,3.04-5.41,7.69-5.41,2.16,0,4.8.36,6.77,1.16v2.6c-2.04-1.04-4.6-1.52-6.65-1.52-3.36,0-5.29.8-5.29,3.12,0,1.32.52,2.16,3,3.08l6.05,2.2Z"/>
          <path class="cls-5" d="m448.1,667.15c0-4.2,2.24-6.49,7.61-6.49,2.48,0,5.04.6,7.13,1.64v-1.64c0-4.44-1.68-6.33-6.49-6.33-2.36,0-4.64.68-6.41,1.92v-2.6c1.72-.96,3.92-1.56,6.81-1.56,6.05,0,8.61,2.8,8.61,8.01v11.29c-2.6,1.6-5.57,2.4-8.89,2.4-6.41,0-8.37-2.44-8.37-6.65Zm14.73,2.92v-5.69c-2-1-4.4-1.48-6.49-1.48-4.12,0-5.73,1.28-5.73,4.24s1.52,4.4,5.93,4.4c2.2,0,4.52-.52,6.29-1.48Z"/>
          <path class="cls-5" d="m483.89,652.57h2.48v18.78c-2.48,1.48-5.45,2.44-8.53,2.44-6.01,0-8.21-2.76-8.21-8.57v-12.65h2.52v12.37c0,4.68,1.6,6.61,6.09,6.61,2,0,3.8-.48,5.65-1.44v-17.54Zm-2.24-8.49l-1.04,1.28c-1.4,1.72-3.2,3.56-4.92,4.76l-1.24-1.04,5.37-6.53,1.84,1.52Z"/>
          <path class="cls-5" d="m507.55,671.39c-2.4,1.6-4.84,2.4-8.21,2.4-6.89,0-9.25-3.56-9.25-9.81v-2.08c0-6.25,2.44-9.81,8.49-9.81,2.72,0,4.8.84,6.45,2.08v-10.09h2.52v27.31Zm-14.93-7.41c0,4.84,1.64,7.57,6.81,7.57,2.12,0,3.88-.44,5.61-1.44v-13.57c-1.6-1.32-3.64-2.2-6.09-2.2-4.64,0-6.33,2.72-6.33,7.57v2.08Z"/>
          <path class="cls-5" d="m513.75,664.47c0,4.6,2.92,7.13,7.81,7.13,2,0,3.92-.52,5.97-1.84v2.6c-1.84.96-3.92,1.44-5.97,1.44-6.97,0-10.29-3.52-10.29-9.77v-2.12c0-6.21,3.32-9.81,9.45-9.81s8.13,3.48,8.13,7.17-2.16,5.21-5.81,5.21h-9.29Zm0-2.2h8.89c2.4,0,3.6-.72,3.6-3,0-2.92-1.84-4.92-5.57-4.92-4.12,0-6.93,2.36-6.93,7.53v.4Z"/>
          <path class="cls-5" d="m534.17,671.87v-1.12c0-1,.6-1.44,1.52-1.44s1.52.44,1.52,1.44v1.12c0,1-.6,1.44-1.52,1.44s-1.52-.44-1.52-1.44Z"/>
        </g>
        <g id="Emergency_Room" data-name="Emergency Room">
          <path class="cls-3" d="m151.98,170.02h-22.97l-3.78-4.63c-1.47-1.82-3.68-2.88-6.02-2.87h-3.21v-4.34c0-.54-.44-.98-.98-.98h-18.3c-.54,0-.98.44-.98.98v4.34h-3.21c-2.34,0-4.55,1.05-6.02,2.87l-3.78,4.63h-22.97c-.54,0-.98.44-.98.98v68.98c0,.54.44.98.98.98h92.22c.54,0,.98-.44.98-.98v-68.98c0-.54-.44-.98-.98-.98Zm-32.77-5.54c1.74,0,3.39.77,4.49,2.13l2.77,3.39h-10.47v-5.52h3.21Zm-5.18-5.32v10.82h-16.33v-10.82h16.33Zm-26,7.45c1.09-1.36,2.74-2.15,4.49-2.15h3.21v5.54h-10.47l2.77-3.39Zm62.97,5.36v56.09h-4.75v-51.24c0-.54-.44-.98-.98-.98h-78.77c-.54,0-.98.44-.98.98v51.29h-4.78v-56.09l90.27-.05Zm-83.52,54.56h37.39v5.02h-37.39v-5.02Zm37.39-48.73v46.76h-37.39v-46.76h37.39Zm1.97,0h37.44v46.76h-37.44v-46.76Zm-39.36,55.71h37.39v5.49h-37.39v-5.49Zm39.36-6.99h37.44v5.02h-37.44v-5.02Zm-46.11,3.54h4.78v8.92h-4.78v-8.92Zm46.11,3.44h37.44v5.49h-37.44v-5.49Zm44.14,5.49h-4.73v-8.93h4.73v8.93Z"/>
          <path class="cls-6" d="m73.83,206.04h24.69c.54,0,.98-.44.98-.98v-21.51c0-.54-.44-.98-.98-.98h-24.69c-.54,0-.98.44-.98.98v21.51c0,.54.44.98.98.98Zm.98-21.51h22.72v19.54h-22.72v-19.54Z"/>
          <path class="cls-6" d="m93.86,187.27h-15.39c-.54,0-.98.44-.98.98v12.2c0,.54.44.98.98.98h15.39c.54,0,.98-.44.98-.98v-12.2c0-.54-.44-.98-.98-.98Zm-.98,12.2h-13.42v-10.23h13.42v10.23Z"/>
          <path class="cls-6" d="m137.92,182.56h-24.69c-.54,0-.98.44-.98.98h0v21.51c0,.54.44.98.98.98h24.69c.54,0,.98-.44.98-.98v-21.51c0-.54-.44-.98-.98-.98h0Zm-.98,21.51h-22.72v-19.54h22.72v19.54Z"/>
          <path class="cls-6" d="m117.89,201.39h15.39c.54,0,.98-.44.98-.98v-12.15c0-.54-.44-.98-.98-.98h-15.39c-.54,0-.98.44-.98.98v12.2c.03.52.46.94.98.93Zm.98-12.2h13.42v10.23h-13.42v-10.23Z"/>
          <path class="cls-6" d="m94.81,211.79v6.4c0,.54.44.98.98.98h4.84c.54,0,.98-.44.98-.98v-6.4c0-.54-.44-.98-.98-.98h-4.84c-.54,0-.98.44-.98.98Zm1.97.98h2.87v4.43h-2.87v-4.43Z"/>
          <path class="cls-6" d="m115.95,210.8h-4.84c-.54,0-.98.44-.98.98v6.4c0,.54.44.98.98.98h4.84c.54,0,.98-.44.98-.98v-6.4c0-.54-.44-.98-.98-.98Zm-.98,6.4h-2.87v-4.43h2.87v4.43Z"/>
          <path class="cls-6" d="m103.42,165.62h1.47v1.47c0,.54.44.98.98.98s.98-.44.98-.98v-1.47h1.47c.54,0,.98-.44.98-.98s-.44-.98-.98-.98h-1.47v-1.51c0-.54-.44-.98-.98-.98s-.98.44-.98.98v1.51h-1.47c-.54,0-.98.44-.98.98s.44.98.98.98Z"/>
        </g>
        <g>
          <path class="cls-3" d="m152.46,373.1c-.63,0-1.15-.51-1.15-1.15v-8.72H61.42v8.72c0,.63-.51,1.15-1.15,1.15h-4.94c-.63,0-1.15-.51-1.15-1.15v-67.51c0-.63.51-1.15,1.15-1.15h4.94c.63,0,1.15.51,1.15,1.15v20.27h10.43c4.24.03,7.67,3.49,7.67,7.73v2.14h2.64v-.5c0-.63.51-1.15,1.15-1.15h62.56c.63,0,1.15.51,1.15,1.15v.5h4.31v-7.08c0-.63.51-1.15,1.15-1.15h4.94c.63,0,1.15.51,1.15,1.15v44.44c0,.63-.51,1.15-1.15,1.15h-4.94Zm1.15-2.29h2.65v-42.15h-2.65v42.15Zm-97.13,0h2.65v-65.22h-2.65v65.22Zm4.94-9.87h89.9v-17.46h-4.31v8.72c0,.63-.51,1.15-1.15,1.15h-62.56c-.63,0-1.15-.51-1.15-1.15v-8.72h-20.74v17.46Zm23.03-9.88h60.27v-15.82h-2.63v12.02c0,.63-.51,1.15-1.15,1.15h-52.68c-.63,0-1.15-.51-1.15-1.15v-12.02h-2.67v15.82Zm4.96-4.94h50.39v-10.88h-50.39v10.88Zm57.6-4.93h4.31v-4.3h-4.31v4.3Zm-85.59,0h20.74v-4.3h-20.74v4.3Zm0-6.59h15.81v-2.14c0-2.99-2.43-5.43-5.43-5.45h-.09s-.01,0-.01,0h-10.28v7.58Z"/>
          <path class="cls-6" d="m111.31,320.43c-9.71,0-17.61-7.9-17.61-17.61s7.9-17.61,17.61-17.61,17.61,7.9,17.61,17.61-7.9,17.61-17.61,17.61Zm0-32.92c-8.45,0-15.32,6.87-15.32,15.32s6.87,15.32,15.32,15.32,15.32-6.87,15.32-15.32-6.87-15.32-15.32-15.32Z"/>
          <path class="cls-6" d="m111.3,310.55c-.63,0-1.15-.51-1.15-1.15v-5.44h-5.44c-.63,0-1.15-.51-1.15-1.15s.51-1.15,1.15-1.15h5.44v-5.44c0-.63.51-1.15,1.15-1.15s1.15.51,1.15,1.15v5.44h5.44c.63,0,1.15.51,1.15,1.15s-.51,1.15-1.15,1.15h-5.44v5.44c0,.63-.51,1.15-1.15,1.15Z"/>
        </g>
        <g id="Outline">
          <g id="Outline-2">
            <path class="cls-3" d="m108.46,682.31c1.35.57,2.87.57,4.22,0,43.13-18.17,46.04-51.84,44.47-75.58-.31-2.79-2.82-4.79-5.61-4.49-.15.02-.3.04-.45.07-15.76,2.75-31.75-4.71-36.28-11.27-1.79-2.34-5.14-2.79-7.49-1-.37.29-.71.62-1,1-4.53,6.56-20.55,14.02-36.28,11.27-2.75-.56-5.43,1.22-5.99,3.97-.03.15-.05.3-.07.45-1.57,23.74,1.33,57.41,44.47,75.58h0Zm-41.35-75.37c.18-1.06,1.19-1.76,2.24-1.58.05,0,.11.02.16.03,17.63,3.08,34.48-5.49,39.39-12.57.8-.92,2.19-1.02,3.12-.22.08.07.15.14.22.22,4.9,7.1,21.75,15.66,39.39,12.57,1.03-.27,2.09.34,2.37,1.37.01.06.03.11.04.17,1.5,22.78-1.27,55.09-42.57,72.5-.57.23-1.21.23-1.78,0-41.3-17.41-44.07-49.71-42.57-72.49Z"/>
            <path class="cls-3" d="m109.92,672.55c.42.19.89.19,1.31,0,32.9-15.17,36.29-40.84,35.98-58.83,0-.84-.67-1.53-1.51-1.54-.02,0-.05,0-.07,0-14.61.24-28.38-5.19-33.99-10.38-.6-.55-1.52-.55-2.12,0-5.61,5.19-19.44,10.61-33.99,10.38-.86-.02-1.57.66-1.58,1.52,0,0,0,.01,0,.02-.31,17.99,3.08,43.66,35.98,58.83h0Zm.65-67.53c6.35,5.11,19.56,10.13,33.53,10.3.07,16.89-3.81,40.08-33.53,54.09-29.72-14.01-33.59-37.2-33.53-54.1,13.96-.17,27.17-5.19,33.53-10.3Z"/>
            <path class="cls-6" d="m107.93,656.27c1.65.9,3.64.9,5.29,0,9.77-5.41,15.62-11.88,17.47-19.25h4.89c.86,0,1.56-.7,1.56-1.56s-.7-1.56-1.56-1.56h-4.35c.1-.92.13-1.85.11-2.78.02-6.85-5.5-12.42-12.35-12.45-3.13,0-6.14,1.19-8.42,3.34-2.27-2.15-5.29-3.34-8.42-3.34-6.83.03-12.35,5.58-12.35,12.41,0,.31,0,.63.01.95h-4.25c-.86,0-1.56.7-1.56,1.56s.7,1.56,1.56,1.56h4.51c1.29,8.17,7.27,15.27,17.85,21.12h0Zm-15-25.16c-.02-5.12,4.11-9.29,9.23-9.32,2.8,0,5.46,1.28,7.19,3.49.59.68,1.61.75,2.29.16.06-.05.11-.11.16-.16,1.73-2.21,4.39-3.5,7.2-3.49,5.13.04,9.26,4.24,9.22,9.37,0,0,0,0,0,0,.02.91-.02,1.83-.13,2.74h-2.77c-1.68,0-3.23.9-4.06,2.35l-2,3.48-1.58-4.73c-.3-.92-1.14-1.56-2.11-1.6-.97-.04-1.86.51-2.25,1.39l-3.15,7.12-4.09-11.08c-.33-.89-1.17-1.5-2.12-1.53-.95-.04-1.83.51-2.21,1.39l-2.01,4.51-1.27-1.52c-.89-1.07-2.2-1.69-3.59-1.69h-1.91c0-.3-.02-.6-.01-.9h0Zm1.92,4.03c.46,0,.9.21,1.2.56l2.07,2.49c.83,1,2.31,1.13,3.3.31.28-.23.5-.52.64-.85l1.74-3.91,4.09,11.07c.33.9,1.17,1.5,2.13,1.53h.08c.93,0,1.77-.55,2.14-1.4l3.11-7.03,1.49,4.46c.41,1.23,1.74,1.89,2.97,1.48.54-.18,1-.56,1.29-1.05l2.86-4.99c.28-.48.8-.78,1.36-.78h2.15c-1.83,6.24-7.03,11.68-15.76,16.51-.7.39-1.56.39-2.26,0-9.58-5.3-14.9-11.34-16.19-18.39l1.6-.02Z"/>
          </g>
        </g>
        <g>
          <path class="cls-3" d="m105.72,546.35c1.35.57,2.87.57,4.22,0,43.13-18.17,46.04-51.84,44.47-75.58-.31-2.79-2.82-4.79-5.61-4.49-.15.02-.3.04-.45.07-15.76,2.75-31.75-4.71-36.28-11.27-1.79-2.34-5.14-2.79-7.49-1-.37.29-.71.62-1,1-4.53,6.56-20.55,14.02-36.28,11.27-2.75-.56-5.43,1.22-5.99,3.97-.03.15-.05.3-.07.45-1.57,23.74,1.33,57.41,44.47,75.58h0Zm-41.35-75.37c.18-1.06,1.19-1.76,2.24-1.58.05,0,.11.02.16.03,17.63,3.08,34.48-5.49,39.39-12.57.8-.92,2.19-1.02,3.12-.22.08.07.15.14.22.22,4.9,7.1,21.75,15.66,39.39,12.57,1.03-.27,2.09.34,2.37,1.37.01.06.03.11.04.17,1.5,22.78-1.27,55.09-42.57,72.5-.57.23-1.21.23-1.78,0-41.3-17.41-44.07-49.71-42.57-72.49Z"/>
          <path class="cls-3" d="m107.17,536.59c.42.19.89.19,1.31,0,32.9-15.17,36.29-40.84,35.98-58.83,0-.84-.67-1.53-1.51-1.54-.02,0-.05,0-.07,0-14.61.24-28.38-5.19-33.99-10.38-.6-.55-1.52-.55-2.12,0-5.61,5.19-19.44,10.61-33.99,10.38-.86-.02-1.57.66-1.58,1.52,0,0,0,.01,0,.02-.31,17.99,3.08,43.66,35.98,58.83h0Zm.65-67.53c6.35,5.11,19.56,10.13,33.53,10.3.07,16.89-3.81,40.08-33.53,54.09-29.72-14.01-33.59-37.2-33.53-54.1,13.96-.17,27.17-5.19,33.53-10.3Z"/>
          <g>
            <g>
              <path class="cls-6" d="m89.38,492.56c.15-.1.3-.05.45-.05,12.77,0,25.53,0,38.3,0q.89,0,.89.91c0,4.15,0,8.29,0,12.44,0,.82,0,.83-.82.83-5.19,0-10.38,0-15.58,0-.44,0-.76-.13-1.08-.45-2.93-2.99-5.88-5.96-8.82-8.93-1.03-1.04-2.07-2.07-3.06-3.14-.47-.51-1.01-.69-1.66-.72-2.74-.12-5.46-.39-8.18-.73-.16-.02-.34,0-.46-.16Z"/>
              <path class="cls-6" d="m108.17,508.01c-2.18.09-4.45-.03-6.73-.11-4.04-.14-8.09-.37-12.11-.87-.88-.11-1.76-.19-2.64-.26-.49-.04-.7-.24-.69-.77.02-4.25.01-8.5.01-12.75,0-.67.05-.7.71-.6,2.71.39,5.43.67,8.16.87,1.2.09,2.41.19,3.61.28.26.02.45.12.62.3,2.84,2.88,5.69,5.76,8.53,8.64,1.56,1.59,3.13,3.17,4.69,4.76.11.11.33.21.24.4-.08.18-.31.11-.47.11-1.28,0-2.55,0-3.94,0Z"/>
              <path class="cls-6" d="m107.48,478.12c2.13,0,4.25.01,6.38,0,.5,0,.69.13.69.66-.02,4.2-.02,8.39,0,12.59,0,.51-.15.67-.67.67-4.29-.02-8.58-.02-12.86,0-.47,0-.69-.13-.68-.63.13-4.21.04-8.43.04-12.64,0-.53.17-.66.67-.65,2.14.02,4.29,0,6.43,0Z"/>
              <path class="cls-6" d="m107.42,521.07c-2.14,0-4.29,0-6.43,0-.46,0-.67-.14-.71-.62-.21-2.31-.48-4.62-.68-6.94-.14-1.59-.2-3.18-.32-4.77-.03-.43.08-.59.55-.57,4.25.17,8.5.18,12.75.12.64,0,.68.04.72.69.24,3.83.56,7.65,1.1,11.45.08.59.05.64-.56.64-2.14,0-4.29,0-6.43,0Z"/>
              <path class="cls-6" d="m114.41,517.91c-.12-1.02-.22-1.93-.32-2.83-.23-2.18-.4-4.36-.52-6.55-.03-.48-.45-.65-.69-.97-.08-.1-.26-.18-.17-.33.06-.11.22-.07.33-.07,1.74.03,1.47-.26,1.47,1.42.02,2.87,0,5.74,0,8.61,0,.19.04.4-.12.71Z"/>
            </g>
            <g>
              <path class="cls-2" d="m117.39,498.47c0,.76,0,1.52,0,2.27,0,.66.48,1.11,1.18,1.11.71,0,1.2-.45,1.2-1.12,0-1.52,0-3.05,0-4.57,0-.36.01-.37.37-.37.13,0,.25,0,.38,0,.37,0,.37,0,.37.36,0,.65,0,1.3,0,1.95,0,.76-.03,1.52,0,2.27.06,1.46-1,2.49-2.28,2.73-1.33.25-2.68-.38-3.21-1.51-.18-.38-.23-.79-.23-1.21,0-1.42,0-2.83,0-4.25,0-.32.02-.34.35-.34.51,0,1.01,0,1.52,0,.34,0,.36.02.36.35,0,.78,0,1.55,0,2.33Z"/>
              <path class="cls-2" d="m110.96,502.92c-.4,0-.81,0-1.21,0-.19,0-.28-.08-.27-.27,0-.18,0-.37,0-.56-.01-.21.08-.28.28-.28.66,0,1.32,0,1.97,0,.46,0,.77-.25.83-.65.06-.44-.16-.77-.62-.91-.41-.12-.82-.25-1.23-.38-.97-.32-1.54-1.28-1.38-2.31.15-.98,1-1.75,1.98-1.77.82-.02,1.64,0,2.46,0,.21,0,.28.08.28.28-.01.82.09.68-.67.7-.37,0-.74,0-1.11,0-.38,0-.63.21-.68.54-.05.3.16.58.5.69.39.12.77.24,1.16.36.76.24,1.32,1.06,1.36,1.98.07,1.51-.96,2.56-2.53,2.58-.37,0-.74,0-1.11,0Z"/>
              <path class="cls-2" d="m124.56,495.78c.43,0,.86,0,1.29,0,.19,0,.26.07.26.25-.01.87.1.71-.69.72-.37,0-.74,0-1.11,0-.35,0-.6.21-.66.51-.05.3.12.58.45.69.36.12.72.24,1.08.35.69.2,1.12.66,1.35,1.32.5,1.45-.31,2.92-1.76,3.22-.21.04-.44.06-.65.06-.76,0-1.52,0-2.28,0-.21,0-.31-.07-.3-.29.02-.95-.13-.8.79-.82.51,0,1.01,0,1.52,0,.42,0,.72-.25.78-.65.06-.41-.14-.76-.54-.89-.42-.14-.86-.26-1.28-.4-.99-.32-1.58-1.31-1.41-2.37.16-.96,1.04-1.71,2.03-1.73.38,0,.76,0,1.14,0Z"/>
            </g>
          </g>
        </g>
      </g>
    </g>
  </g>
</svg>