<?xml version="1.0" encoding="UTF-8"?>
<svg xmlns="http://www.w3.org/2000/svg" viewBox="0 0 541.54 593.32">
  <defs>
    <style>
      .cls-1 {
        fill: #8ab9d3;
        opacity: .25;
      }

      .cls-2, .cls-3 {
        fill: #fff;
      }

      .cls-4 {
        fill: #004991;
      }

      .cls-5 {
        fill: #045aa0;
      }

      .cls-6, .cls-7 {
        opacity: .5;
      }

      .cls-8 {
        opacity: .6;
      }

      .cls-9 {
        isolation: isolate;
      }

      .cls-10, .cls-11, .cls-3, .cls-12 {
        opacity: .2;
      }

      .cls-13 {
        opacity: .4;
      }

      .cls-14 {
        fill: #007cff;
      }

      .cls-15 {
        opacity: .3;
      }

      .cls-11 {
        fill: #3a7ec1;
      }

      .cls-11, .cls-7 {
        mix-blend-mode: multiply;
      }

      .cls-16 {
        fill: #f9f9f9;
      }

      .cls-17, .cls-12 {
        fill: #011d33;
      }

      .cls-18 {
        opacity: .14;
      }

      .cls-19 {
        fill: #e5a755;
      }

      .cls-20 {
        fill: #1a2e35;
      }

      .cls-21 {
        fill: #b7043c;
      }
    </style>
  </defs>
  <g class="cls-9">
    <g id="Layer_2" data-name="Layer 2">
      <g id="Camada_1" data-name="Camada 1">
        <g>
          <g>
            <path class="cls-17" d="m424.79,238.12c-4.03.31-8.08-.44-11.82-2.23l-10.77-5.16c-11.59-5.55-16.5-19.49-10.96-31.08h0c5.55-11.59,19.49-16.5,31.08-10.95l10.77,5.16c5.61,2.69,9.84,7.4,11.91,13.27,2.07,5.87,1.73,12.19-.96,17.81-2.69,5.61-7.4,9.84-13.27,11.91-1.96.69-3.97,1.11-5.99,1.27Zm-13.4-39.98c-4.01.31-7.75,2.69-9.6,6.56h0c-2.77,5.78-.32,12.73,5.46,15.49l10.77,5.16c2.8,1.34,5.95,1.51,8.88.48,2.93-1.03,5.27-3.14,6.61-5.94,1.34-2.8,1.51-5.95.48-8.88-1.03-2.93-3.14-5.28-5.94-6.61l-10.77-5.16c-1.9-.91-3.93-1.26-5.89-1.1Zm-14.87,4.04h.02s-.02,0-.02,0Z"/>
            <g class="cls-13">
              <path class="cls-17" d="m424.79,238.12c-4.03.31-8.08-.44-11.82-2.23l-10.77-5.16c-11.59-5.55-16.5-19.49-10.96-31.08h0c5.55-11.59,19.49-16.5,31.08-10.95l10.77,5.16c5.61,2.69,9.84,7.4,11.91,13.27,2.07,5.87,1.73,12.19-.96,17.81-2.69,5.61-7.4,9.84-13.27,11.91-1.96.69-3.97,1.11-5.99,1.27Zm-13.4-39.98c-4.01.31-7.75,2.69-9.6,6.56h0c-2.77,5.78-.32,12.73,5.46,15.49l10.77,5.16c2.8,1.34,5.95,1.51,8.88.48,2.93-1.03,5.27-3.14,6.61-5.94,1.34-2.8,1.51-5.95.48-8.88-1.03-2.93-3.14-5.28-5.94-6.61l-10.77-5.16c-1.9-.91-3.93-1.26-5.89-1.1Zm-14.87,4.04h.02s-.02,0-.02,0Z"/>
            </g>
            <path class="cls-17" d="m433.35,267.35c-1.15.09-2.31.09-3.48,0h0c-6.21-.44-11.88-3.27-15.96-7.97-4.08-4.7-6.09-10.71-5.65-16.91l.84-11.91c.44-6.21,3.27-11.88,7.97-15.96,4.7-4.08,10.71-6.08,16.92-5.65,6.21.44,11.87,3.27,15.95,7.97,4.08,4.7,6.09,10.71,5.65,16.92l-.84,11.91c-.44,6.21-3.27,11.88-7.97,15.96-3.81,3.31-8.49,5.26-13.43,5.64Zm-1.92-46.72c-2.46.19-4.79,1.16-6.69,2.81-2.34,2.03-3.75,4.86-3.97,7.95l-.84,11.91c-.22,3.09.78,6.09,2.81,8.43,2.03,2.34,4.86,3.75,7.95,3.97h0c3.09.21,6.09-.78,8.43-2.82,2.34-2.03,3.75-4.86,3.97-7.95l.84-11.91c.22-3.1-.78-6.09-2.81-8.43-2.03-2.34-4.86-3.75-7.95-3.97-.58-.04-1.16-.04-1.74,0Z"/>
            <g class="cls-8">
              <path class="cls-17" d="m433.35,267.35c-1.15.09-2.31.09-3.48,0h0c-6.21-.44-11.88-3.27-15.96-7.97-4.08-4.7-6.09-10.71-5.65-16.91l.84-11.91c.44-6.21,3.27-11.88,7.97-15.96,4.7-4.08,10.71-6.08,16.92-5.65,6.21.44,11.87,3.27,15.95,7.97,4.08,4.7,6.09,10.71,5.65,16.92l-.84,11.91c-.44,6.21-3.27,11.88-7.97,15.96-3.81,3.31-8.49,5.26-13.43,5.64Zm-1.92-46.72c-2.46.19-4.79,1.16-6.69,2.81-2.34,2.03-3.75,4.86-3.97,7.95l-.84,11.91c-.22,3.09.78,6.09,2.81,8.43,2.03,2.34,4.86,3.75,7.95,3.97h0c3.09.21,6.09-.78,8.43-2.82,2.34-2.03,3.75-4.86,3.97-7.95l.84-11.91c.22-3.1-.78-6.09-2.81-8.43-2.03-2.34-4.86-3.75-7.95-3.97-.58-.04-1.16-.04-1.74,0Z"/>
            </g>
            <g>
              <path class="cls-17" d="m40.15,279.62c-5.49.43-11.14-1.08-15.86-4.65h0c-4.96-3.76-8.16-9.23-9.01-15.39-.85-6.17.76-12.29,4.52-17.26l7.21-9.51c7.76-10.24,22.41-12.25,32.65-4.49,10.24,7.76,12.25,22.41,4.49,32.64l-7.21,9.52c-4.19,5.52-10.37,8.65-16.79,9.14Zm4.54-44.31c-3.2.25-6.28,1.81-8.37,4.56l-7.21,9.51c-1.88,2.47-2.67,5.53-2.25,8.6.42,3.07,2.02,5.8,4.49,7.67h0c5.1,3.87,12.4,2.86,16.27-2.24l7.21-9.51c3.87-5.1,2.86-12.4-2.24-16.27-2.35-1.78-5.17-2.53-7.9-2.32Z"/>
              <g class="cls-8">
                <path class="cls-17" d="m40.15,279.62c-5.49.43-11.14-1.08-15.86-4.65h0c-4.96-3.76-8.16-9.23-9.01-15.39-.85-6.17.76-12.29,4.52-17.26l7.21-9.51c7.76-10.24,22.41-12.25,32.65-4.49,10.24,7.76,12.25,22.41,4.49,32.64l-7.21,9.52c-4.19,5.52-10.37,8.65-16.79,9.14Zm4.54-44.31c-3.2.25-6.28,1.81-8.37,4.56l-7.21,9.51c-1.88,2.47-2.67,5.53-2.25,8.6.42,3.07,2.02,5.8,4.49,7.67h0c5.1,3.87,12.4,2.86,16.27-2.24l7.21-9.51c3.87-5.1,2.86-12.4-2.24-16.27-2.35-1.78-5.17-2.53-7.9-2.32Z"/>
              </g>
            </g>
            <path class="cls-17" d="m46.47,23.67h340.3c2.76,0,5.01,2.24,5.01,5.01v547.34c0,2.76-2.24,5.01-5.01,5.01H46.47c-2.76,0-5.01-2.24-5.01-5.01V28.68c0-2.76,2.24-5.01,5.01-5.01Z" transform="translate(-22.64 17.58) rotate(-4.42)"/>
            <rect class="cls-17" x="54.43" y="33.22" width="343.7" height="535.61" transform="translate(-22.51 18.32) rotate(-4.42)"/>
            <path class="cls-17" d="m81.45,20.97h340.3c2.76,0,5.01,2.24,5.01,5.01v547.34c0,2.76-2.24,5.01-5.01,5.01H81.45c-2.76,0-5.01-2.24-5.01-5.01V25.98c0-2.76,2.24-5.01,5.01-5.01Z" transform="translate(-22.33 20.27) rotate(-4.42)"/>
            <path class="cls-17" d="m81.45,20.97h340.3c2.76,0,5.01,2.24,5.01,5.01v547.34c0,2.76-2.24,5.01-5.01,5.01H81.45c-2.76,0-5.01-2.24-5.01-5.01V25.98c0-2.76,2.24-5.01,5.01-5.01Z" transform="translate(-22.33 20.27) rotate(-4.42)"/>
            <polygon class="cls-12" points="45.67 46.38 75.68 450.1 43.34 46.56 45.67 46.38"/>
            <polygon class="cls-12" points="90.42 580.12 53.96 93.05 92.75 579.94 90.42 580.12"/>
            <polygon class="cls-17" points="39.67 212.65 8.02 201 0 97.22 29.49 80.84 39.67 212.65"/>
            <g class="cls-8">
              <g>
                <path class="cls-17" d="m172.54,270.64c-.68,1.1-1.82,1.73-2.89,2.35,0,0,0,0-.01,0,0,.05,0,.09,0,.14-.35,1.67-1.25,3.23-2.67,4.02-1.08.6-2.31.64-3.5.26-.13.19-.27.37-.43.53-.21.2-.44.4-.71.52-.36.16-.69.23-1.1.24-.27,0-.54-.16-.75-.36-.16-.16-.25-.37-.3-.58l-17.49,10.1-37.11-64.24,77.67-44.87c.01-.12.03-.25.04-.37,0-.07.01-.15.02-.22,0,0,0,0,0,0,0-.01,0,0,0-.03.02-.28.03-.57.04-.85.01-.63,0-1.27-.06-1.91-.03-.33-.08-.66-.12-.99,0-.02,0,0,0-.02,0-.02,0-.02-.01-.07-.01-.07-.03-.14-.04-.21-.02-.09-.04-.17-.06-.26l-17.59,10.16c-.08.2-.15.42-.24.62-.95,2.3-3.46,3.26-5.85,2.89l-59.34,34.28,3.2,5.54c-.11-.54.24-1.05.7-1.17.56-.16,1.11.31,1.32.87.3.83.72,1.66,1.18,2.48.04-.05.08-.09.12-.14.35-.43,1.07-.36,1.48.07.25.27.35.6.33.93.39.19.66.61.71,1.07.15,1.34.58,2.68.94,4.01.4,1.47.71,2.97.7,4.47,0,.11-.03.2-.05.3l26.38,45.67c.55.26,1.08.56,1.56.95,1.22.98,2.08,2.29,2.46,3.82.15.62-.14,1.05-.57,1.22l1.02,1.77,133.14-76.91c.6-1.1,1.22-2.19,1.77-3.31.55-1.11,1.01-2.28,1.29-3.51l-105.19,60.77Z"/>
                <path class="cls-17" d="m382.4,146.96s-.04-.23-.03-.27c0,0,0,0,0-.01-.07-.34-.16-.67-.27-1.01-.21-.65-.46-1.3-.62-1.96-.1-.41,0-.78.24-1.03l-29.97-51.88s0,0-.01,0c-.76.12-1.56.02-2.25-.51-.66-.5-1.18-1.16-1.74-1.78-.43-.47-.46-1.14-.09-1.58.35-.42,1.08-.37,1.48.07.19.21.37.42.56.62-.04-.2-.08-.4-.12-.6l-4.07-7.05-67.16,38.8c.1.41,0,.85-.43,1.1-.43.25-.86.12-1.16-.17l-7.09,4.1s0,.02,0,.03c.04.14.04.28,0,.42-.07.31-.18.6-.33.87-.09.16-.18.32-.25.49,0,.01,0,.02,0,.03-.06.29-.23.5-.45.65-.23.15-.52.15-.79.07-.14-.04-.26-.11-.37-.21-.12-.09-.22-.2-.3-.34-.08-.13-.13-.28-.15-.43,0-.02,0-.04,0-.06l-82.18,47.48c.06.1.12.2.15.31.29,1.22.42,2.46.44,3.7.22.06.39.22.53.4l158.36-91.48,37.11,64.24-101.37,58.56c-.1,2.2-.82,4.18-1.76,6.07l2.73-1.58c0-.08-.02-.16-.01-.24v.05c0-.05,0-.11-.01-.16-.03-.12-.06-.24-.11-.36-.09-.19-.18-.38-.29-.56-.16-.27-.19-.56-.15-.85.05-.29.23-.51.45-.65,0,0,.01,0,.02,0,0-.31.13-.6.45-.79.46-.27.91-.09,1.22.25.05,0,.09-.02.14-.01.39.03.78.14,1.16.27.28.09.5.3.66.55.07.12.11.25.14.38l99.95-57.74c-.42-.35-.5-.95-.33-1.41.31-.86.73-1.67,1.2-2.44l-1.03-1.78c0,.06.02.11.02.17,0,.62-.41,1.06-1,1.05-.54,0-1.1-.59-1.1-1.17,0-.2,0-.4-.03-.6Z"/>
              </g>
              <g>
                <path class="cls-17" d="m138.36,249.93c2.64,4.63,5.5,5.68,9.49,3.4,1.93-1.1,3.91-3,4.75-4.97l2.51,4.4c-.98,1.71-3.07,3.5-5.35,4.8-7.36,4.2-12.59,2.42-16.5-4.42l-1.36-2.38c-3.91-6.84-2.78-12.26,4.58-16.46,2.28-1.3,4.9-2.16,6.86-2.17l2.51,4.4c-2.12-.28-4.76.46-6.69,1.56-3.98,2.28-4.53,5.27-1.89,9.9l1.1,1.93Z"/>
                <path class="cls-17" d="m170.07,229.19l1.16,2.02c4.04,7.07,2.76,12.53-3.66,16.2-6.49,3.71-11.81,2.01-15.84-5.06l-1.16-2.02c-4.02-7.04-2.62-12.57,3.71-16.18,6.27-3.58,11.77-1.99,15.79,5.04Zm-4.17,4.94l-1.03-1.8c-2.61-4.56-5.02-6.04-8.3-4.16-3.28,1.87-3.3,4.74-.7,9.3l1.03,1.8c2.62,4.6,5.09,6,8.37,4.13,3.28-1.87,3.26-4.67.63-9.27Z"/>
                <path class="cls-17" d="m180.61,239.44l-12.85-22.49,8.64-4.94,15.92,15.41.23-.13-10.55-18.48,5.24-2.99,12.85,22.49-8.68,4.95-15.9-15.38-.19.11,10.53,18.44-5.24,2.99Z"/>
                <path class="cls-17" d="m191.76,203.25l15.07-8.61,2.31,4.05-9.83,5.62,3.03,5.3,9.16-5.23,2.31,4.05-9.16,5.23,5.19,9.09-5.24,2.99-12.85-22.49Z"/>
                <path class="cls-17" d="m215.86,189.48l12.85,22.49-5.17,2.95-12.85-22.49,5.17-2.95Z"/>
                <path class="cls-17" d="m245.15,188.99c4.26,7.45,2.26,12.3-4.97,16.43l-6.65,3.8-12.85-22.49,6.84-3.91c7.17-4.09,12.23-3.28,16.47,4.14l1.16,2.02Zm-6.35,1.11c-2.7-4.72-5.16-5.45-9.08-3.21l-1.48.84,8.26,14.46,1.22-.7c4.02-2.29,4.73-5,2.1-9.6l-1.03-1.8Z"/>
                <path class="cls-17" d="m241.69,174.73l15.07-8.61,2.31,4.05-9.83,5.62,2.73,4.79,9.09-5.19,2.31,4.05-9.09,5.19,3.19,5.59,10.09-5.76,2.29,4.02-15.33,8.75-12.85-22.49Z"/>
                <path class="cls-17" d="m273.43,186.43l-12.85-22.49,8.64-4.94,15.92,15.41.22-.13-10.55-18.48,5.24-2.99,12.85,22.49-8.68,4.96-15.9-15.38-.19.11,10.53,18.44-5.24,2.99Z"/>
                <path class="cls-17" d="m295.83,160c2.64,4.63,5.5,5.68,9.49,3.4,1.93-1.1,3.91-3,4.75-4.97l2.51,4.4c-.98,1.71-3.07,3.5-5.35,4.8-7.36,4.2-12.59,2.42-16.5-4.42l-1.36-2.38c-3.91-6.84-2.78-12.26,4.58-16.46,2.28-1.3,4.9-2.16,6.86-2.17l2.51,4.4c-2.12-.28-4.76.46-6.69,1.56-3.98,2.28-4.53,5.27-1.89,9.9l1.1,1.93Z"/>
                <path class="cls-17" d="m309.29,136.12l12.85,22.49-5.17,2.95-12.85-22.49,5.17-2.95Z"/>
                <path class="cls-17" d="m327.09,125.96l18.69,19.15-5.33,3.05-4.29-4.54-7.23,4.13,1.76,5.98-5.33,3.05-7.03-25.81,8.77-5.01Zm-2.51,6.8l2.98,10.44,5.37-3.06-7.48-7.87-.87.5Z"/>
                <path class="cls-17" d="m335.83,120.97l5.24-2.99,10.55,18.48,10.44-5.96,2.29,4.02-15.68,8.96-12.85-22.49Z"/>
              </g>
            </g>
            <polygon class="cls-12" points="78.76 581.02 53.11 233.87 81.09 580.84 78.76 581.02"/>
            <g>
              <g>
                <path class="cls-17" d="m47.14,306.98c-1.21.09-2.44.04-3.67-.18-3.83-.68-7.18-2.8-9.41-5.99l-16.87-24.07c-4.61-6.58-3.01-15.69,3.57-20.3,3.19-2.24,7.06-3.1,10.89-2.42,3.83.68,7.17,2.8,9.41,5.99l16.87,24.07c2.23,3.19,3.09,7.05,2.42,10.89-.68,3.83-2.8,7.18-5.99,9.41-2.17,1.52-4.65,2.4-7.22,2.6Zm-18.25-41.48c-.42.03-.92.16-1.42.51-1.3.91-1.62,2.72-.71,4.02l16.87,24.07c.6.85,1.42,1.11,1.86,1.19.44.07,1.3.11,2.16-.48h0c.85-.6,1.11-1.42,1.18-1.86.08-.44.12-1.3-.48-2.15l-16.87-24.07c-.6-.85-1.42-1.11-1.86-1.19-.18-.03-.44-.06-.73-.04Z"/>
                <path class="cls-17" d="m105.88,342.11c-2.52.19-5.12-.27-7.55-1.46l-26.36-13.03c-3.49-1.72-6.1-4.7-7.35-8.39-1.25-3.69-.99-7.64.74-11.13,1.72-3.49,4.7-6.1,8.39-7.34,3.69-1.25,7.64-.98,11.13.74l26.35,13.02c7.2,3.56,10.17,12.32,6.61,19.52-2.36,4.77-7.01,7.69-11.97,8.07Zm-27.66-30.43c-.29.02-.54.08-.71.14-.42.14-1.2.52-1.66,1.45-.46.93-.29,1.78-.15,2.2.14.42.52,1.2,1.45,1.66l26.36,13.03c1.42.7,3.16.12,3.86-1.31.71-1.43.12-3.16-1.31-3.87l-26.35-13.02c-.55-.27-1.07-.32-1.49-.29Z"/>
                <path class="cls-17" d="m173.46,356.99c-1.2.09-2.41.04-3.62-.17l-28.97-4.99c-7.92-1.36-13.25-8.92-11.89-16.83.66-3.84,2.78-7.19,5.96-9.43,3.18-2.25,7.04-3.12,10.88-2.46l28.97,4.99c3.84.66,7.19,2.78,9.43,5.96,2.25,3.18,3.12,7.04,2.46,10.88-.66,3.84-2.78,7.19-5.95,9.43-2.18,1.53-4.67,2.43-7.26,2.63Zm-30.35-22.4c-.67.05-1.16.33-1.44.52-.36.26-1,.84-1.18,1.86-.27,1.57.78,3.06,2.35,3.34l28.97,4.99c1.02.18,1.79-.23,2.15-.49.36-.26,1-.84,1.18-1.87h0c.18-1.02-.23-1.79-.49-2.15-.26-.36-.84-1-1.87-1.18l-28.97-4.99c-.26-.04-.5-.05-.72-.03Z"/>
                <path class="cls-17" d="m241.24,360.19c-.46.04-.92.05-1.38.04l-29.39-.47c-3.89-.06-7.53-1.63-10.24-4.43-2.71-2.8-4.16-6.48-4.1-10.37.06-3.89,1.64-7.53,4.43-10.23,2.8-2.71,6.48-4.17,10.37-4.1l29.39.47c8.04.13,14.47,6.77,14.34,14.8-.06,3.89-1.64,7.53-4.43,10.23-2.46,2.39-5.61,3.8-8.99,4.06Zm-30.77-17.88c-.89.07-1.48.52-1.78.8-.32.31-.86.99-.88,2.02-.02,1.04.5,1.74.81,2.05.31.32.99.86,2.02.88l29.4.47c1.06.02,1.73-.5,2.05-.81.32-.31.86-.99.88-2.03,0,0,0,0,0,0,.03-1.59-1.25-2.9-2.84-2.93l-29.39-.47c-.1,0-.19,0-.28,0Z"/>
              </g>
              <g class="cls-13">
                <path class="cls-17" d="m47.14,306.98c-1.21.09-2.44.04-3.67-.18-3.83-.68-7.18-2.8-9.41-5.99l-16.87-24.07c-4.61-6.58-3.01-15.69,3.57-20.3,3.19-2.24,7.06-3.1,10.89-2.42,3.83.68,7.17,2.8,9.41,5.99l16.87,24.07c2.23,3.19,3.09,7.05,2.42,10.89-.68,3.83-2.8,7.18-5.99,9.41-2.17,1.52-4.65,2.4-7.22,2.6Zm-18.25-41.48c-.42.03-.92.16-1.42.51-1.3.91-1.62,2.72-.71,4.02l16.87,24.07c.6.85,1.42,1.11,1.86,1.19.44.07,1.3.11,2.16-.48h0c.85-.6,1.11-1.42,1.18-1.86.08-.44.12-1.3-.48-2.15l-16.87-24.07c-.6-.85-1.42-1.11-1.86-1.19-.18-.03-.44-.06-.73-.04Z"/>
                <path class="cls-17" d="m105.88,342.11c-2.52.19-5.12-.27-7.55-1.46l-26.36-13.03c-3.49-1.72-6.1-4.7-7.35-8.39-1.25-3.69-.99-7.64.74-11.13,1.72-3.49,4.7-6.1,8.39-7.34,3.69-1.25,7.64-.98,11.13.74l26.35,13.02c7.2,3.56,10.17,12.32,6.61,19.52-2.36,4.77-7.01,7.69-11.97,8.07Zm-27.66-30.43c-.29.02-.54.08-.71.14-.42.14-1.2.52-1.66,1.45-.46.93-.29,1.78-.15,2.2.14.42.52,1.2,1.45,1.66l26.36,13.03c1.42.7,3.16.12,3.86-1.31.71-1.43.12-3.16-1.31-3.87l-26.35-13.02c-.55-.27-1.07-.32-1.49-.29Z"/>
                <path class="cls-17" d="m173.46,356.99c-1.2.09-2.41.04-3.62-.17l-28.97-4.99c-7.92-1.36-13.25-8.92-11.89-16.83.66-3.84,2.78-7.19,5.96-9.43,3.18-2.25,7.04-3.12,10.88-2.46l28.97,4.99c3.84.66,7.19,2.78,9.43,5.96,2.25,3.18,3.12,7.04,2.46,10.88-.66,3.84-2.78,7.19-5.95,9.43-2.18,1.53-4.67,2.43-7.26,2.63Zm-30.35-22.4c-.67.05-1.16.33-1.44.52-.36.26-1,.84-1.18,1.86-.27,1.57.78,3.06,2.35,3.34l28.97,4.99c1.02.18,1.79-.23,2.15-.49.36-.26,1-.84,1.18-1.87h0c.18-1.02-.23-1.79-.49-2.15-.26-.36-.84-1-1.87-1.18l-28.97-4.99c-.26-.04-.5-.05-.72-.03Z"/>
                <path class="cls-17" d="m241.24,360.19c-.46.04-.92.05-1.38.04l-29.39-.47c-3.89-.06-7.53-1.63-10.24-4.43-2.71-2.8-4.16-6.48-4.1-10.37.06-3.89,1.64-7.53,4.43-10.23,2.8-2.71,6.48-4.17,10.37-4.1l29.39.47c8.04.13,14.47,6.77,14.34,14.8-.06,3.89-1.64,7.53-4.43,10.23-2.46,2.39-5.61,3.8-8.99,4.06Zm-30.77-17.88c-.89.07-1.48.52-1.78.8-.32.31-.86.99-.88,2.02-.02,1.04.5,1.74.81,2.05.31.32.99.86,2.02.88l29.4.47c1.06.02,1.73-.5,2.05-.81.32-.31.86-.99.88-2.03,0,0,0,0,0,0,.03-1.59-1.25-2.9-2.84-2.93l-29.39-.47c-.1,0-.19,0-.28,0Z"/>
              </g>
              <g>
                <path class="cls-17" d="m66.98,332.48c-5.49.42-11.14-1.08-15.86-4.65l-9.51-7.21c-4.96-3.76-8.16-9.22-9.01-15.39-.85-6.17.76-12.29,4.51-17.25,3.76-4.96,9.23-8.16,15.39-9.01,6.19-.84,12.29.76,17.25,4.52l9.51,7.21c4.96,3.76,8.16,9.22,9.01,15.39.85,6.16-.76,12.29-4.51,17.25t0,0c-4.19,5.52-10.37,8.65-16.79,9.14Zm-12.17-42.01c-.23.02-.47.04-.7.08-3.07.42-5.8,2.02-7.67,4.49-1.87,2.47-2.67,5.52-2.25,8.6.42,3.07,2.02,5.8,4.49,7.67l9.51,7.22c5.1,3.87,12.4,2.86,16.27-2.24h0c1.87-2.47,2.67-5.53,2.25-8.6-.42-3.07-2.02-5.8-4.49-7.67l-9.51-7.21c-2.28-1.73-5.06-2.54-7.9-2.33Zm24.31,29.34h.02s-.02,0-.02,0Z"/>
                <path class="cls-17" d="m131.67,356.5c-2.55.2-5.18-.03-7.8-.73l-11.53-3.09c-6.01-1.61-11.04-5.46-14.15-10.85-3.11-5.39-3.94-11.67-2.33-17.68,1.61-6.01,5.46-11.04,10.85-14.15,5.39-3.11,11.67-3.94,17.68-2.33l11.53,3.09c12.41,3.32,19.81,16.12,16.49,28.53h0c-2.62,9.8-11.15,16.47-20.74,17.21Zm-14.21-37.91c-1.71.13-3.38.64-4.91,1.53-2.69,1.55-4.61,4.06-5.41,7.05-.8,3-.39,6.13,1.16,8.81,1.55,2.69,4.06,4.61,7.05,5.41l11.53,3.09c6.18,1.65,12.57-2.03,14.22-8.22h0c1.66-6.19-2.03-12.57-8.22-14.22l-11.53-3.09c-1.29-.35-2.61-.47-3.91-.37Z"/>
                <path class="cls-17" d="m198.96,366.88c-1.38.11-2.79.09-4.21-.06l-11.88-1.23c-12.78-1.33-22.1-12.8-20.77-25.58.64-6.19,3.66-11.76,8.49-15.68,4.83-3.92,10.9-5.74,17.09-5.09l11.87,1.23c6.19.64,11.76,3.66,15.68,8.49,3.92,4.83,5.73,10.9,5.09,17.09h0c-1.18,11.35-10.37,19.98-21.37,20.83Zm-14.6-36.05c-2.33.18-4.55,1.06-6.4,2.56-2.41,1.95-3.91,4.73-4.23,7.82-.66,6.37,3.98,12.09,10.35,12.75l11.87,1.23c6.37.66,12.09-3.99,12.75-10.35.32-3.08-.58-6.11-2.54-8.52-1.96-2.41-4.73-3.91-7.82-4.23l-11.87-1.23c-.71-.07-1.42-.08-2.12-.03Zm30.16,14.62h.02s-.02,0-.02,0Z"/>
              </g>
              <g class="cls-8">
                <path class="cls-17" d="m66.98,332.48c-5.49.42-11.14-1.08-15.86-4.65l-9.51-7.21c-4.96-3.76-8.16-9.22-9.01-15.39-.85-6.17.76-12.29,4.51-17.25,3.76-4.96,9.23-8.16,15.39-9.01,6.19-.84,12.29.76,17.25,4.52l9.51,7.21c4.96,3.76,8.16,9.22,9.01,15.39.85,6.16-.76,12.29-4.51,17.25t0,0c-4.19,5.52-10.37,8.65-16.79,9.14Zm-12.17-42.01c-.23.02-.47.04-.7.08-3.07.42-5.8,2.02-7.67,4.49-1.87,2.47-2.67,5.52-2.25,8.6.42,3.07,2.02,5.8,4.49,7.67l9.51,7.22c5.1,3.87,12.4,2.86,16.27-2.24h0c1.87-2.47,2.67-5.53,2.25-8.6-.42-3.07-2.02-5.8-4.49-7.67l-9.51-7.21c-2.28-1.73-5.06-2.54-7.9-2.33Zm24.31,29.34h.02s-.02,0-.02,0Z"/>
                <path class="cls-17" d="m131.67,356.5c-2.55.2-5.18-.03-7.8-.73l-11.53-3.09c-6.01-1.61-11.04-5.46-14.15-10.85-3.11-5.39-3.94-11.67-2.33-17.68,1.61-6.01,5.46-11.04,10.85-14.15,5.39-3.11,11.67-3.94,17.68-2.33l11.53,3.09c12.41,3.32,19.81,16.12,16.49,28.53h0c-2.62,9.8-11.15,16.47-20.74,17.21Zm-14.21-37.91c-1.71.13-3.38.64-4.91,1.53-2.69,1.55-4.61,4.06-5.41,7.05-.8,3-.39,6.13,1.16,8.81,1.55,2.69,4.06,4.61,7.05,5.41l11.53,3.09c6.18,1.65,12.57-2.03,14.22-8.22h0c1.66-6.19-2.03-12.57-8.22-14.22l-11.53-3.09c-1.29-.35-2.61-.47-3.91-.37Z"/>
                <path class="cls-17" d="m198.96,366.88c-1.38.11-2.79.09-4.21-.06l-11.88-1.23c-12.78-1.33-22.1-12.8-20.77-25.58.64-6.19,3.66-11.76,8.49-15.68,4.83-3.92,10.9-5.74,17.09-5.09l11.87,1.23c6.19.64,11.76,3.66,15.68,8.49,3.92,4.83,5.73,10.9,5.09,17.09h0c-1.18,11.35-10.37,19.98-21.37,20.83Zm-14.6-36.05c-2.33.18-4.55,1.06-6.4,2.56-2.41,1.95-3.91,4.73-4.23,7.82-.66,6.37,3.98,12.09,10.35,12.75l11.87,1.23c6.37.66,12.09-3.99,12.75-10.35.32-3.08-.58-6.11-2.54-8.52-1.96-2.41-4.73-3.91-7.82-4.23l-11.87-1.23c-.71-.07-1.42-.08-2.12-.03Zm30.16,14.62h.02s-.02,0-.02,0Z"/>
              </g>
            </g>
            <g>
              <g>
                <path class="cls-17" d="m304.84,357.65c-3.48.27-6.91-.71-9.75-2.8-3.13-2.31-5.18-5.7-5.76-9.55-.58-3.85.37-7.69,2.68-10.83,2.31-3.13,5.7-5.18,9.55-5.76l29.06-4.4c7.95-1.23,15.39,4.29,16.59,12.23.58,3.85-.37,7.7-2.68,10.83-2.31,3.13-5.7,5.18-9.55,5.76l-29.06,4.4c-.36.06-.72.1-1.08.12Zm27.74-21.81c-.07,0-.14.01-.21.02l-29.06,4.4c-1.03.15-1.63.78-1.89,1.14-.26.36-.68,1.12-.53,2.14.16,1.03.78,1.63,1.14,1.89.36.26,1.11.69,2.14.53l29.06-4.4c1.03-.16,1.63-.78,1.89-1.14.27-.36.69-1.12.53-2.14h0c-.23-1.5-1.58-2.56-3.07-2.44Z"/>
                <path class="cls-17" d="m366.42,338.36c-4.77.37-9.63-1.61-12.74-5.7-4.87-6.39-3.62-15.55,2.77-20.42l23.39-17.81c6.39-4.86,15.55-3.63,20.42,2.77,4.87,6.39,3.63,15.55-2.77,20.42l-23.39,17.81c-2.31,1.76-4.98,2.72-7.68,2.93Zm22.02-35.21c-.44.03-.99.18-1.52.58l-23.39,17.81c-1.27.97-1.51,2.78-.55,4.04.96,1.27,2.78,1.51,4.04.55l23.39-17.81c1.27-.97,1.51-2.78.55-4.04-.63-.83-1.47-1.05-1.91-1.11-.16-.02-.37-.04-.62-.02Z"/>
                <path class="cls-17" d="m415.79,290.43c-3.35.26-6.8-.63-9.72-2.76-6.49-4.75-7.9-13.89-3.16-20.37l17.36-23.72c4.75-6.48,13.88-7.9,20.36-3.16h0c6.48,4.75,7.9,13.88,3.16,20.37l-17.36,23.72c-2.61,3.57-6.55,5.6-10.65,5.92Zm16.03-41.12c-.81.06-1.59.46-2.11,1.17l-17.36,23.72c-.94,1.28-.66,3.09.63,4.03,1.29.94,3.09.66,4.03-.63l17.36-23.72c.94-1.28.66-3.09-.63-4.03-.58-.42-1.26-.6-1.92-.55Z"/>
              </g>
              <g class="cls-13">
                <path class="cls-17" d="m304.84,357.65c-3.48.27-6.91-.71-9.75-2.8-3.13-2.31-5.18-5.7-5.76-9.55-.58-3.85.37-7.69,2.68-10.83,2.31-3.13,5.7-5.18,9.55-5.76l29.06-4.4c7.95-1.23,15.39,4.29,16.59,12.23.58,3.85-.37,7.7-2.68,10.83-2.31,3.13-5.7,5.18-9.55,5.76l-29.06,4.4c-.36.06-.72.1-1.08.12Zm27.74-21.81c-.07,0-.14.01-.21.02l-29.06,4.4c-1.03.15-1.63.78-1.89,1.14-.26.36-.68,1.12-.53,2.14.16,1.03.78,1.63,1.14,1.89.36.26,1.11.69,2.14.53l29.06-4.4c1.03-.16,1.63-.78,1.89-1.14.27-.36.69-1.12.53-2.14h0c-.23-1.5-1.58-2.56-3.07-2.44Z"/>
                <path class="cls-17" d="m366.42,338.36c-4.77.37-9.63-1.61-12.74-5.7-4.87-6.39-3.62-15.55,2.77-20.42l23.39-17.81c6.39-4.86,15.55-3.63,20.42,2.77,4.87,6.39,3.63,15.55-2.77,20.42l-23.39,17.81c-2.31,1.76-4.98,2.72-7.68,2.93Zm22.02-35.21c-.44.03-.99.18-1.52.58l-23.39,17.81c-1.27.97-1.51,2.78-.55,4.04.96,1.27,2.78,1.51,4.04.55l23.39-17.81c1.27-.97,1.51-2.78.55-4.04-.63-.83-1.47-1.05-1.91-1.11-.16-.02-.37-.04-.62-.02Z"/>
                <path class="cls-17" d="m415.79,290.43c-3.35.26-6.8-.63-9.72-2.76-6.49-4.75-7.9-13.89-3.16-20.37l17.36-23.72c4.75-6.48,13.88-7.9,20.36-3.16h0c6.48,4.75,7.9,13.88,3.16,20.37l-17.36,23.72c-2.61,3.57-6.55,5.6-10.65,5.92Zm16.03-41.12c-.81.06-1.59.46-2.11,1.17l-17.36,23.72c-.94,1.28-.66,3.09.63,4.03,1.29.94,3.09.66,4.03-.63l17.36-23.72c.94-1.28.66-3.09-.63-4.03-.58-.42-1.26-.6-1.92-.55Z"/>
              </g>
              <g>
                <path class="cls-17" d="m346.63,359.72c-3.08.24-6.2-.14-9.22-1.16-5.9-1.98-10.67-6.14-13.44-11.72-2.77-5.57-3.2-11.89-1.22-17.79,1.98-5.9,6.15-10.67,11.72-13.44l10.69-5.31c5.57-2.77,11.89-3.2,17.79-1.22,5.9,1.98,10.67,6.14,13.44,11.72h0c5.72,11.51,1,25.52-10.5,31.24l-10.69,5.31c-2.73,1.35-5.63,2.15-8.57,2.37Zm8.01-40.14c-1.47.11-2.91.51-4.27,1.19l-10.69,5.31c-2.78,1.38-4.85,3.76-5.84,6.7-.99,2.94-.77,6.09.61,8.87,1.38,2.78,3.76,4.85,6.7,5.84,2.94.99,6.09.77,8.87-.61l10.69-5.31c5.74-2.85,8.08-9.83,5.24-15.57h0c-1.38-2.78-3.76-4.85-6.7-5.84-1.5-.51-3.06-.7-4.6-.58Z"/>
                <path class="cls-17" d="m398.83,318.25c-6.06.47-12.3-1.42-17.21-5.74-4.67-4.12-7.45-9.81-7.84-16.02-.39-6.21,1.66-12.2,5.78-16.87l7.9-8.96c8.5-9.64,23.25-10.56,32.89-2.07,4.67,4.12,7.45,9.81,7.84,16.02.39,6.21-1.66,12.2-5.78,16.87l-7.9,8.96c-4.17,4.73-9.84,7.36-15.68,7.81Zm5.2-43.75c-2.91.22-5.74,1.54-7.82,3.89l-7.9,8.96c-2.05,2.33-3.07,5.31-2.88,8.41.19,3.1,1.58,5.93,3.91,7.98,4.8,4.24,12.16,3.77,16.39-1.03l7.9-8.96c2.05-2.33,3.07-5.31,2.88-8.41-.19-3.1-1.58-5.93-3.91-7.98-2.45-2.16-5.56-3.09-8.58-2.86Z"/>
              </g>
              <g class="cls-8">
                <path class="cls-17" d="m346.63,359.72c-3.08.24-6.2-.14-9.22-1.16-5.9-1.98-10.67-6.14-13.44-11.72-2.77-5.57-3.2-11.89-1.22-17.79,1.98-5.9,6.15-10.67,11.72-13.44l10.69-5.31c5.57-2.77,11.89-3.2,17.79-1.22,5.9,1.98,10.67,6.14,13.44,11.72h0c5.72,11.51,1,25.52-10.5,31.24l-10.69,5.31c-2.73,1.35-5.63,2.15-8.57,2.37Zm8.01-40.14c-1.47.11-2.91.51-4.27,1.19l-10.69,5.31c-2.78,1.38-4.85,3.76-5.84,6.7-.99,2.94-.77,6.09.61,8.87,1.38,2.78,3.76,4.85,6.7,5.84,2.94.99,6.09.77,8.87-.61l10.69-5.31c5.74-2.85,8.08-9.83,5.24-15.57h0c-1.38-2.78-3.76-4.85-6.7-5.84-1.5-.51-3.06-.7-4.6-.58Z"/>
                <path class="cls-17" d="m398.83,318.25c-6.06.47-12.3-1.42-17.21-5.74-4.67-4.12-7.45-9.81-7.84-16.02-.39-6.21,1.66-12.2,5.78-16.87l7.9-8.96c8.5-9.64,23.25-10.56,32.89-2.07,4.67,4.12,7.45,9.81,7.84,16.02.39,6.21-1.66,12.2-5.78,16.87l-7.9,8.96c-4.17,4.73-9.84,7.36-15.68,7.81Zm5.2-43.75c-2.91.22-5.74,1.54-7.82,3.89l-7.9,8.96c-2.05,2.33-3.07,5.31-2.88,8.41.19,3.1,1.58,5.93,3.91,7.98,4.8,4.24,12.16,3.77,16.39-1.03l7.9-8.96c2.05-2.33,3.07-5.31,2.88-8.41-.19-3.1-1.58-5.93-3.91-7.98-2.45-2.16-5.56-3.09-8.58-2.86Z"/>
              </g>
            </g>
            <g>
              <path class="cls-17" d="m321.5,386.49l-14.55,1.12-3.45-44.66c-1.32-17.07-16.28-29.89-33.35-28.57-17.07,1.32-29.89,16.28-28.57,33.35l3.45,44.66-14.55,1.12-3.45-44.66c-1.94-25.1,16.9-47.09,42-49.03,25.1-1.94,47.09,16.9,49.03,42l3.45,44.66Z"/>
              <g class="cls-15">
                <path class="cls-17" d="m321.5,386.49l-14.55,1.12-3.45-44.66c-1.32-17.07-16.28-29.89-33.35-28.57-17.07,1.32-29.89,16.28-28.57,33.35l3.45,44.66-14.55,1.12-3.45-44.66c-1.94-25.1,16.9-47.09,42-49.03,25.1-1.94,47.09,16.9,49.03,42l3.45,44.66Z"/>
              </g>
              <path class="cls-17" d="m335.91,373.94l5.64,73.07c.36,4.69-3.13,8.76-7.81,9.12l-107.45,8.3c-4.66.36-8.73-3.13-9.09-7.82l-5.64-73.07c-.36-4.69,3.13-8.76,7.79-9.12l107.45-8.3c4.69-.36,8.76,3.13,9.12,7.82Z"/>
              <path class="cls-12" d="m335.91,373.94l5.64,73.07c.36,4.69-3.13,8.76-7.81,9.12l-78.32,6.05c-4.66.36-8.76-3.13-9.12-7.82l-5.64-73.07c-.36-4.69,3.16-8.76,7.81-9.12l78.32-6.05c4.69-.36,8.76,3.13,9.12,7.82Z"/>
              <path class="cls-17" d="m303.98,403.93c-.7-9.01-7.34-15.84-14.85-15.26-7.51.58-13.03,8.35-12.33,17.36.54,7,4.7,12.64,10.04,14.55l.79,19.47,10.87-.84-3.1-18.95c5.48-2.42,9.15-8.92,8.57-16.33Z"/>
            </g>
            <g>
              <path class="cls-17" d="m430.73,267.36c-.28.02-.57.03-.87,0-6.21-.44-11.88-3.27-15.96-7.97-4.08-4.7-6.09-10.71-5.65-16.91l.84-11.91c.44-6.21,3.27-11.88,7.97-15.96,4.7-4.08,10.71-6.08,16.92-5.65,3.22.23,5.64,3.02,5.42,6.24-.23,3.22-3.01,5.66-6.24,5.42-3.09-.21-6.09.78-8.43,2.82-2.34,2.03-3.75,4.86-3.97,7.95l-.84,11.91c-.22,3.09.78,6.09,2.81,8.43,2.03,2.34,4.86,3.75,7.95,3.97,3.22.23,5.65,3.02,5.42,6.24-.21,2.93-2.53,5.2-5.37,5.41Z"/>
              <g class="cls-8">
                <path class="cls-17" d="m430.73,267.36c-.28.02-.57.03-.87,0-6.21-.44-11.88-3.27-15.96-7.97-4.08-4.7-6.09-10.71-5.65-16.91l.84-11.91c.44-6.21,3.27-11.88,7.97-15.96,4.7-4.08,10.71-6.08,16.92-5.65,3.22.23,5.64,3.02,5.42,6.24-.23,3.22-3.01,5.66-6.24,5.42-3.09-.21-6.09.78-8.43,2.82-2.34,2.03-3.75,4.86-3.97,7.95l-.84,11.91c-.22,3.09.78,6.09,2.81,8.43,2.03,2.34,4.86,3.75,7.95,3.97,3.22.23,5.65,3.02,5.42,6.24-.21,2.93-2.53,5.2-5.37,5.41Z"/>
              </g>
              <g>
                <path class="cls-17" d="m329.65,350.07c-2.31.18-4.59-1.03-5.69-3.23-2.77-5.57-3.2-11.89-1.22-17.79,1.98-5.9,6.15-10.67,11.72-13.44l10.69-5.31c5.57-2.77,11.89-3.2,17.79-1.22,5.9,1.98,10.67,6.14,13.44,11.72,1.44,2.89.26,6.4-2.63,7.83-2.89,1.44-6.4.26-7.83-2.63-1.38-2.78-3.76-4.85-6.7-5.84-2.94-.99-6.09-.78-8.87.61l-10.69,5.31c-2.78,1.38-4.85,3.76-5.84,6.7-.99,2.94-.77,6.09.61,8.87,1.44,2.89.26,6.4-2.63,7.83-.69.34-1.42.54-2.15.59Z"/>
                <path class="cls-17" d="m385.94,313.95c-1.52.12-3.08-.35-4.32-1.44-4.67-4.12-7.45-9.81-7.84-16.02-.39-6.21,1.66-12.2,5.78-16.87l7.9-8.96c8.5-9.64,23.25-10.56,32.89-2.07,2.42,2.13,2.65,5.83.52,8.25-2.13,2.42-5.83,2.66-8.25.52-4.8-4.24-12.16-3.77-16.39,1.03l-7.9,8.96c-2.05,2.33-3.07,5.31-2.88,8.41.19,3.1,1.58,5.93,3.91,7.98,2.42,2.13,2.65,5.83.52,8.25-1.05,1.19-2.47,1.85-3.93,1.96Z"/>
              </g>
              <g class="cls-8">
                <path class="cls-17" d="m329.65,350.07c-2.31.18-4.59-1.03-5.69-3.23-2.77-5.57-3.2-11.89-1.22-17.79,1.98-5.9,6.15-10.67,11.72-13.44l10.69-5.31c5.57-2.77,11.89-3.2,17.79-1.22,5.9,1.98,10.67,6.14,13.44,11.72,1.44,2.89.26,6.4-2.63,7.83-2.89,1.44-6.4.26-7.83-2.63-1.38-2.78-3.76-4.85-6.7-5.84-2.94-.99-6.09-.78-8.87.61l-10.69,5.31c-2.78,1.38-4.85,3.76-5.84,6.7-.99,2.94-.77,6.09.61,8.87,1.44,2.89.26,6.4-2.63,7.83-.69.34-1.42.54-2.15.59Z"/>
                <path class="cls-17" d="m385.94,313.95c-1.52.12-3.08-.35-4.32-1.44-4.67-4.12-7.45-9.81-7.84-16.02-.39-6.21,1.66-12.2,5.78-16.87l7.9-8.96c8.5-9.64,23.25-10.56,32.89-2.07,2.42,2.13,2.65,5.83.52,8.25-2.13,2.42-5.83,2.66-8.25.52-4.8-4.24-12.16-3.77-16.39,1.03l-7.9,8.96c-2.05,2.33-3.07,5.31-2.88,8.41.19,3.1,1.58,5.93,3.91,7.98,2.42,2.13,2.65,5.83.52,8.25-1.05,1.19-2.47,1.85-3.93,1.96Z"/>
              </g>
              <g>
                <path class="cls-17" d="m366.42,338.36c-4.77.37-9.63-1.61-12.74-5.7-1.95-2.57-1.46-6.23,1.11-8.19,2.57-1.96,6.23-1.46,8.19,1.11.63.83,1.47,1.05,1.91,1.11.44.05,1.31.06,2.14-.56l23.39-17.81c1.27-.97,1.51-2.78.55-4.04-1.95-2.57-1.46-6.23,1.11-8.19,2.57-1.96,6.23-1.46,8.19,1.11,4.87,6.39,3.63,15.55-2.77,20.42l-23.39,17.81c-2.31,1.76-4.98,2.72-7.68,2.93Z"/>
                <path class="cls-17" d="m415.79,290.43c-3.35.26-6.8-.63-9.72-2.76-2.61-1.91-3.17-5.56-1.27-8.17,1.9-2.61,5.56-3.17,8.17-1.27,1.28.94,3.09.66,4.03-.62l17.36-23.72c.94-1.28.66-3.09-.63-4.03-2.61-1.91-3.17-5.56-1.26-8.17,1.91-2.6,5.57-3.17,8.17-1.26,6.48,4.75,7.9,13.88,3.16,20.36l-17.36,23.72c-2.61,3.57-6.55,5.6-10.65,5.92Z"/>
                <path class="cls-17" d="m304.84,357.65c-3.48.27-6.91-.71-9.75-2.8-3.13-2.31-5.18-5.7-5.76-9.55-.48-3.19,1.71-6.17,4.9-6.65,3.19-.5,6.17,1.71,6.65,4.9.16,1.03.78,1.63,1.14,1.89.36.26,1.11.69,2.14.53l29.06-4.4c1.03-.16,1.63-.78,1.89-1.14.27-.36.69-1.12.53-2.14-.48-3.19,1.71-6.17,4.9-6.65,3.2-.49,6.17,1.71,6.65,4.9.58,3.85-.37,7.7-2.68,10.83-2.31,3.13-5.7,5.18-9.55,5.76l-29.06,4.4c-.36.06-.72.1-1.08.12Z"/>
              </g>
              <g class="cls-6">
                <path class="cls-17" d="m366.42,338.36c-4.77.37-9.63-1.61-12.74-5.7-1.95-2.57-1.46-6.23,1.11-8.19,2.57-1.96,6.23-1.46,8.19,1.11.63.83,1.47,1.05,1.91,1.11.44.05,1.31.06,2.14-.56l23.39-17.81c1.27-.97,1.51-2.78.55-4.04-1.95-2.57-1.46-6.23,1.11-8.19,2.57-1.96,6.23-1.46,8.19,1.11,4.87,6.39,3.63,15.55-2.77,20.42l-23.39,17.81c-2.31,1.76-4.98,2.72-7.68,2.93Z"/>
                <path class="cls-17" d="m415.79,290.43c-3.35.26-6.8-.63-9.72-2.76-2.61-1.91-3.17-5.56-1.27-8.17,1.9-2.61,5.56-3.17,8.17-1.27,1.28.94,3.09.66,4.03-.62l17.36-23.72c.94-1.28.66-3.09-.63-4.03-2.61-1.91-3.17-5.56-1.26-8.17,1.91-2.6,5.57-3.17,8.17-1.26,6.48,4.75,7.9,13.88,3.16,20.36l-17.36,23.72c-2.61,3.57-6.55,5.6-10.65,5.92Z"/>
                <path class="cls-17" d="m304.84,357.65c-3.48.27-6.91-.71-9.75-2.8-3.13-2.31-5.18-5.7-5.76-9.55-.48-3.19,1.71-6.17,4.9-6.65,3.19-.5,6.17,1.71,6.65,4.9.16,1.03.78,1.63,1.14,1.89.36.26,1.11.69,2.14.53l29.06-4.4c1.03-.16,1.63-.78,1.89-1.14.27-.36.69-1.12.53-2.14-.48-3.19,1.71-6.17,4.9-6.65,3.2-.49,6.17,1.71,6.65,4.9.58,3.85-.37,7.7-2.68,10.83-2.31,3.13-5.7,5.18-9.55,5.76l-29.06,4.4c-.36.06-.72.1-1.08.12Z"/>
              </g>
            </g>
            <path class="cls-17" d="m439.23,228.24c-.99.08-2.01-.1-2.97-.56-2.91-1.39-4.14-4.88-2.75-7.8,1.34-2.8,1.51-5.95.48-8.87-1.03-2.93-3.14-5.28-5.94-6.61-2.91-1.39-4.14-4.88-2.75-7.79,1.39-2.91,4.89-4.14,7.79-2.75,5.61,2.69,9.85,7.4,11.92,13.27,2.07,5.87,1.73,12.19-.96,17.81-.94,1.95-2.81,3.15-4.83,3.3Z"/>
            <g class="cls-6">
              <path class="cls-17" d="m439.23,228.24c-.99.08-2.01-.1-2.97-.56-2.91-1.39-4.14-4.88-2.75-7.8,1.34-2.8,1.51-5.95.48-8.87-1.03-2.93-3.14-5.28-5.94-6.61-2.91-1.39-4.14-4.88-2.75-7.79,1.39-2.91,4.89-4.14,7.79-2.75,5.61,2.69,9.85,7.4,11.92,13.27,2.07,5.87,1.73,12.19-.96,17.81-.94,1.95-2.81,3.15-4.83,3.3Z"/>
            </g>
            <g>
              <g>
                <path class="cls-17" d="m66.98,332.48c-5.49.42-11.14-1.08-15.86-4.65l-9.51-7.21c-4.96-3.76-8.16-9.22-9.01-15.39-.85-6.17.76-12.29,4.51-17.25,1.95-2.57,5.61-3.08,8.19-1.12,2.57,1.95,3.08,5.61,1.13,8.19-1.87,2.47-2.67,5.52-2.25,8.6.42,3.07,2.02,5.8,4.49,7.67l9.51,7.22c5.1,3.87,12.4,2.86,16.27-2.24,1.95-2.57,5.62-3.08,8.19-1.13,2.57,1.95,3.08,5.61,1.12,8.19-4.19,5.52-10.37,8.65-16.79,9.14Z"/>
                <path class="cls-17" d="m131.67,356.5c-2.55.2-5.18-.03-7.8-.73l-11.53-3.09c-6.01-1.61-11.04-5.46-14.15-10.85-3.11-5.39-3.94-11.67-2.33-17.68.83-3.12,4.04-4.96,7.16-4.13,3.12.83,4.97,4.04,4.13,7.16-.8,3-.39,6.13,1.16,8.81,1.55,2.69,4.06,4.61,7.05,5.41l11.53,3.09c6.18,1.65,12.57-2.03,14.22-8.22.83-3.12,4.04-4.97,7.16-4.13,3.12.83,4.97,4.04,4.13,7.16-2.62,9.8-11.15,16.47-20.74,17.21Z"/>
                <path class="cls-17" d="m198.96,366.88c-1.38.11-2.79.09-4.21-.06l-11.88-1.23c-12.78-1.33-22.1-12.8-20.77-25.58.33-3.21,3.2-5.55,6.42-5.21,3.21.33,5.54,3.21,5.21,6.41-.66,6.37,3.98,12.09,10.35,12.75l11.87,1.23c6.37.66,12.09-3.99,12.75-10.35.33-3.21,3.2-5.55,6.42-5.21,3.21.33,5.54,3.21,5.21,6.42-1.18,11.35-10.37,19.98-21.37,20.83Z"/>
              </g>
              <g>
                <path class="cls-17" d="m66.98,332.48c-5.49.42-11.14-1.08-15.86-4.65l-9.51-7.21c-4.96-3.76-8.16-9.22-9.01-15.39-.85-6.17.76-12.29,4.51-17.25,1.95-2.57,5.61-3.08,8.19-1.12,2.57,1.95,3.08,5.61,1.13,8.19-1.87,2.47-2.67,5.52-2.25,8.6.42,3.07,2.02,5.8,4.49,7.67l9.51,7.22c5.1,3.87,12.4,2.86,16.27-2.24,1.95-2.57,5.62-3.08,8.19-1.13,2.57,1.95,3.08,5.61,1.12,8.19-4.19,5.52-10.37,8.65-16.79,9.14Z"/>
                <path class="cls-17" d="m131.67,356.5c-2.55.2-5.18-.03-7.8-.73l-11.53-3.09c-6.01-1.61-11.04-5.46-14.15-10.85-3.11-5.39-3.94-11.67-2.33-17.68.83-3.12,4.04-4.96,7.16-4.13,3.12.83,4.97,4.04,4.13,7.16-.8,3-.39,6.13,1.16,8.81,1.55,2.69,4.06,4.61,7.05,5.41l11.53,3.09c6.18,1.65,12.57-2.03,14.22-8.22.83-3.12,4.04-4.97,7.16-4.13,3.12.83,4.97,4.04,4.13,7.16-2.62,9.8-11.15,16.47-20.74,17.21Z"/>
                <path class="cls-17" d="m198.96,366.88c-1.38.11-2.79.09-4.21-.06l-11.88-1.23c-12.78-1.33-22.1-12.8-20.77-25.58.33-3.21,3.2-5.55,6.42-5.21,3.21.33,5.54,3.21,5.21,6.41-.66,6.37,3.98,12.09,10.35,12.75l11.87,1.23c6.37.66,12.09-3.99,12.75-10.35.33-3.21,3.2-5.55,6.42-5.21,3.21.33,5.54,3.21,5.21,6.42-1.18,11.35-10.37,19.98-21.37,20.83Z"/>
              </g>
              <g class="cls-8">
                <path class="cls-17" d="m66.98,332.48c-5.49.42-11.14-1.08-15.86-4.65l-9.51-7.21c-4.96-3.76-8.16-9.22-9.01-15.39-.85-6.17.76-12.29,4.51-17.25,1.95-2.57,5.61-3.08,8.19-1.12,2.57,1.95,3.08,5.61,1.13,8.19-1.87,2.47-2.67,5.52-2.25,8.6.42,3.07,2.02,5.8,4.49,7.67l9.51,7.22c5.1,3.87,12.4,2.86,16.27-2.24,1.95-2.57,5.62-3.08,8.19-1.13,2.57,1.95,3.08,5.61,1.12,8.19-4.19,5.52-10.37,8.65-16.79,9.14Z"/>
                <path class="cls-17" d="m131.67,356.5c-2.55.2-5.18-.03-7.8-.73l-11.53-3.09c-6.01-1.61-11.04-5.46-14.15-10.85-3.11-5.39-3.94-11.67-2.33-17.68.83-3.12,4.04-4.96,7.16-4.13,3.12.83,4.97,4.04,4.13,7.16-.8,3-.39,6.13,1.16,8.81,1.55,2.69,4.06,4.61,7.05,5.41l11.53,3.09c6.18,1.65,12.57-2.03,14.22-8.22.83-3.12,4.04-4.97,7.16-4.13,3.12.83,4.97,4.04,4.13,7.16-2.62,9.8-11.15,16.47-20.74,17.21Z"/>
                <path class="cls-17" d="m198.96,366.88c-1.38.11-2.79.09-4.21-.06l-11.88-1.23c-12.78-1.33-22.1-12.8-20.77-25.58.33-3.21,3.2-5.55,6.42-5.21,3.21.33,5.54,3.21,5.21,6.41-.66,6.37,3.98,12.09,10.35,12.75l11.87,1.23c6.37.66,12.09-3.99,12.75-10.35.33-3.21,3.2-5.55,6.42-5.21,3.21.33,5.54,3.21,5.21,6.42-1.18,11.35-10.37,19.98-21.37,20.83Z"/>
              </g>
              <g>
                <path class="cls-17" d="m51.46,305.42c-1.99.15-4.01-.72-5.24-2.48-1.85-2.64-1.21-6.29,1.43-8.14.85-.6,1.11-1.42,1.18-1.86.08-.44.12-1.3-.48-2.15l-16.87-24.07c-.6-.85-1.42-1.11-1.86-1.19-.44-.08-1.3-.12-2.15.48-2.64,1.85-6.29,1.21-8.14-1.43-1.85-2.64-1.21-6.29,1.43-8.14,3.19-2.24,7.05-3.09,10.89-2.42,3.83.68,7.17,2.8,9.41,5.99l16.87,24.07c2.23,3.19,3.09,7.05,2.42,10.89-.68,3.83-2.8,7.18-5.99,9.41-.89.62-1.89.96-2.9,1.04Z"/>
                <path class="cls-17" d="m113.05,337.27c-1.01.08-2.06-.11-3.03-.59-2.89-1.43-4.08-4.93-2.65-7.83.71-1.43.12-3.16-1.31-3.87l-26.35-13.02c-.93-.46-1.78-.29-2.2-.15-.42.14-1.2.52-1.66,1.45-1.43,2.89-4.94,4.08-7.83,2.65-2.89-1.43-4.08-4.93-2.65-7.83,1.72-3.49,4.7-6.1,8.39-7.35,3.69-1.25,7.64-.98,11.13.74l26.35,13.02c7.2,3.56,10.17,12.32,6.61,19.52-.95,1.92-2.81,3.09-4.79,3.24Z"/>
                <path class="cls-17" d="m181.36,349.77c-.47.04-.96.01-1.45-.07-3.18-.55-5.32-3.57-4.77-6.75.18-1.02-.23-1.79-.49-2.15-.26-.36-.84-1-1.87-1.18l-28.97-4.99c-1.03-.17-1.79.23-2.15.49-.36.26-1,.84-1.18,1.86l-11.52-1.98c.66-3.84,2.78-7.19,5.96-9.43,3.18-2.25,7.04-3.12,10.88-2.46l28.97,4.99c3.84.66,7.19,2.78,9.43,5.96,2.25,3.18,3.12,7.04,2.46,10.88-.46,2.69-2.7,4.63-5.3,4.84Z"/>
                <path class="cls-17" d="m249.28,351.62c-.18.01-.37.02-.55.02-3.23-.05-5.8-2.71-5.75-5.94.03-1.59-1.25-2.9-2.84-2.93l-29.39-.47c-1.04,0-1.73.5-2.05.81-.32.31-.86.99-.88,2.02-.05,3.23-2.71,5.81-5.94,5.75-3.23-.05-5.8-2.71-5.75-5.93.06-3.89,1.64-7.53,4.43-10.24,2.8-2.71,6.48-4.17,10.37-4.1l29.39.47c8.04.13,14.47,6.77,14.34,14.8-.05,3.04-2.41,5.5-5.39,5.73Z"/>
              </g>
              <g class="cls-6">
                <path class="cls-17" d="m51.46,305.42c-1.99.15-4.01-.72-5.24-2.48-1.85-2.64-1.21-6.29,1.43-8.14.85-.6,1.11-1.42,1.18-1.86.08-.44.12-1.3-.48-2.15l-16.87-24.07c-.6-.85-1.42-1.11-1.86-1.19-.44-.08-1.3-.12-2.15.48-2.64,1.85-6.29,1.21-8.14-1.43-1.85-2.64-1.21-6.29,1.43-8.14,3.19-2.24,7.05-3.09,10.89-2.42,3.83.68,7.17,2.8,9.41,5.99l16.87,24.07c2.23,3.19,3.09,7.05,2.42,10.89-.68,3.83-2.8,7.18-5.99,9.41-.89.62-1.89.96-2.9,1.04Z"/>
                <path class="cls-17" d="m113.05,337.27c-1.01.08-2.06-.11-3.03-.59-2.89-1.43-4.08-4.93-2.65-7.83.71-1.43.12-3.16-1.31-3.87l-26.35-13.02c-.93-.46-1.78-.29-2.2-.15-.42.14-1.2.52-1.66,1.45-1.43,2.89-4.94,4.08-7.83,2.65-2.89-1.43-4.08-4.93-2.65-7.83,1.72-3.49,4.7-6.1,8.39-7.35,3.69-1.25,7.64-.98,11.13.74l26.35,13.02c7.2,3.56,10.17,12.32,6.61,19.52-.95,1.92-2.81,3.09-4.79,3.24Z"/>
                <path class="cls-17" d="m181.36,349.77c-.47.04-.96.01-1.45-.07-3.18-.55-5.32-3.57-4.77-6.75.18-1.02-.23-1.79-.49-2.15-.26-.36-.84-1-1.87-1.18l-28.97-4.99c-1.03-.17-1.79.23-2.15.49-.36.26-1,.84-1.18,1.86l-11.52-1.98c.66-3.84,2.78-7.19,5.96-9.43,3.18-2.25,7.04-3.12,10.88-2.46l28.97,4.99c3.84.66,7.19,2.78,9.43,5.96,2.25,3.18,3.12,7.04,2.46,10.88-.46,2.69-2.7,4.63-5.3,4.84Z"/>
                <path class="cls-17" d="m249.28,351.62c-.18.01-.37.02-.55.02-3.23-.05-5.8-2.71-5.75-5.94.03-1.59-1.25-2.9-2.84-2.93l-29.39-.47c-1.04,0-1.73.5-2.05.81-.32.31-.86.99-.88,2.02-.05,3.23-2.71,5.81-5.94,5.75-3.23-.05-5.8-2.71-5.75-5.93.06-3.89,1.64-7.53,4.43-10.24,2.8-2.71,6.48-4.17,10.37-4.1l29.39.47c8.04.13,14.47,6.77,14.34,14.8-.05,3.04-2.41,5.5-5.39,5.73Z"/>
              </g>
              <path class="cls-17" d="m28.27,276.14c-1.38.11-2.79-.27-3.98-1.17-4.96-3.76-8.16-9.23-9.01-15.39-.85-6.17.76-12.29,4.52-17.26,1.95-2.57,5.61-3.08,8.19-1.12,2.57,1.95,3.08,5.61,1.13,8.19-1.88,2.47-2.67,5.53-2.25,8.6.42,3.07,2.02,5.8,4.49,7.67,2.57,1.95,3.08,5.61,1.13,8.19-1.05,1.39-2.6,2.17-4.21,2.3Z"/>
              <g class="cls-8">
                <path class="cls-17" d="m28.27,276.14c-1.38.11-2.79-.27-3.98-1.17-4.96-3.76-8.16-9.23-9.01-15.39-.85-6.17.76-12.29,4.52-17.26,1.95-2.57,5.61-3.08,8.19-1.12,2.57,1.95,3.08,5.61,1.13,8.19-1.88,2.47-2.67,5.53-2.25,8.6.42,3.07,2.02,5.8,4.49,7.67,2.57,1.95,3.08,5.61,1.13,8.19-1.05,1.39-2.6,2.17-4.21,2.3Z"/>
              </g>
            </g>
          </g>
          <g>
            <path class="cls-20" d="m34.83,290.84c-5.49.43-11.14-1.08-15.86-4.65h0c-4.96-3.76-8.16-9.23-9.01-15.39-.85-6.17.76-12.29,4.52-17.26l7.21-9.51c7.76-10.24,22.41-12.25,32.65-4.49,10.24,7.76,12.25,22.41,4.49,32.64l-7.21,9.52c-4.19,5.52-10.37,8.65-16.79,9.14Zm4.54-44.31c-3.2.25-6.28,1.81-8.37,4.56l-7.21,9.51c-1.88,2.47-2.67,5.53-2.25,8.6.42,3.07,2.02,5.8,4.49,7.67h0c5.1,3.87,12.4,2.86,16.27-2.24l7.21-9.51c3.87-5.1,2.86-12.4-2.24-16.27-2.35-1.78-5.17-2.53-7.9-2.32Z"/>
            <g class="cls-8">
              <path class="cls-2" d="m34.83,290.84c-5.49.43-11.14-1.08-15.86-4.65h0c-4.96-3.76-8.16-9.23-9.01-15.39-.85-6.17.76-12.29,4.52-17.26l7.21-9.51c7.76-10.24,22.41-12.25,32.65-4.49,10.24,7.76,12.25,22.41,4.49,32.64l-7.21,9.52c-4.19,5.52-10.37,8.65-16.79,9.14Zm4.54-44.31c-3.2.25-6.28,1.81-8.37,4.56l-7.21,9.51c-1.88,2.47-2.67,5.53-2.25,8.6.42,3.07,2.02,5.8,4.49,7.67h0c5.1,3.87,12.4,2.86,16.27-2.24l7.21-9.51c3.87-5.1,2.86-12.4-2.24-16.27-2.35-1.78-5.17-2.53-7.9-2.32Z"/>
            </g>
          </g>
          <path class="cls-20" d="m436.43,237.28c-3.32,2.29-7.2,3.69-11.34,4.02l-11.9.96c-12.81,1.03-24.07-8.54-25.11-21.35h0c-1.04-12.8,8.54-24.07,21.35-25.1l11.9-.96c6.2-.5,12.23,1.44,16.97,5.47,4.74,4.03,7.63,9.67,8.13,15.87.5,6.2-1.44,12.23-5.47,16.97-1.35,1.58-2.87,2.96-4.54,4.11Zm-31.7-27.81c-3.31,2.28-5.34,6.22-5,10.5h0c.52,6.39,6.13,11.16,12.51,10.64l11.9-.96c3.09-.25,5.9-1.69,7.91-4.05,2.01-2.36,2.98-5.37,2.73-8.46-.25-3.09-1.69-5.9-4.05-7.91-2.36-2.01-5.37-2.98-8.46-2.73l-11.9.96c-2.1.17-4.02.89-5.64,2.01Zm-10.82,10.97h.02s-.02,0-.02,0Z"/>
          <g class="cls-13">
            <path class="cls-2" d="m436.43,237.28c-3.32,2.29-7.2,3.69-11.34,4.02l-11.9.96c-12.81,1.03-24.07-8.54-25.11-21.35h0c-1.04-12.8,8.54-24.07,21.35-25.1l11.9-.96c6.2-.5,12.23,1.44,16.97,5.47,4.74,4.03,7.63,9.67,8.13,15.87.5,6.2-1.44,12.23-5.47,16.97-1.35,1.58-2.87,2.96-4.54,4.11Zm-31.7-27.81c-3.31,2.28-5.34,6.22-5,10.5h0c.52,6.39,6.13,11.16,12.51,10.64l11.9-.96c3.09-.25,5.9-1.69,7.91-4.05,2.01-2.36,2.98-5.37,2.73-8.46-.25-3.09-1.69-5.9-4.05-7.91-2.36-2.01-5.37-2.98-8.46-2.73l-11.9.96c-2.1.17-4.02.89-5.64,2.01Zm-10.82,10.97h.02s-.02,0-.02,0Z"/>
          </g>
          <path class="cls-20" d="m443.94,221.48c-.82.56-1.79.93-2.85,1.01-3.22.26-6.04-2.14-6.3-5.35-.25-3.09-1.69-5.9-4.05-7.91-2.36-2.01-5.37-2.98-8.46-2.73-3.22.26-6.04-2.14-6.3-5.35-.26-3.22,2.14-6.04,5.35-6.3,6.2-.5,12.23,1.44,16.97,5.47,4.74,4.03,7.63,9.67,8.13,15.87.17,2.16-.85,4.14-2.51,5.28Z"/>
          <g class="cls-6">
            <path class="cls-2" d="m443.94,221.48c-.82.56-1.79.93-2.85,1.01-3.22.26-6.04-2.14-6.3-5.35-.25-3.09-1.69-5.9-4.05-7.91-2.36-2.01-5.37-2.98-8.46-2.73-3.22.26-6.04-2.14-6.3-5.35-.26-3.22,2.14-6.04,5.35-6.3,6.2-.5,12.23,1.44,16.97,5.47,4.74,4.03,7.63,9.67,8.13,15.87.17,2.16-.85,4.14-2.51,5.28Z"/>
          </g>
          <g>
            <polygon class="cls-10" points="83.83 572.35 58.19 225.2 86.16 572.17 83.83 572.35"/>
            <g>
              <path class="cls-19" d="m51.55,14.99h340.3c2.76,0,5.01,2.24,5.01,5.01v547.34c0,2.76-2.24,5.01-5.01,5.01H51.55c-2.76,0-5.01-2.24-5.01-5.01V20c0-2.76,2.24-5.01,5.01-5.01Z" transform="translate(-21.96 17.95) rotate(-4.42)"/>
              <rect class="cls-2" x="59.51" y="24.55" width="343.7" height="535.61" transform="translate(-21.83 18.69) rotate(-4.42)"/>
              <path class="cls-14" d="m86.53,12.29h340.3c2.76,0,5.01,2.24,5.01,5.01v547.34c0,2.76-2.24,5.01-5.01,5.01H86.53c-2.76,0-5.01-2.24-5.01-5.01V17.3c0-2.76,2.24-5.01,5.01-5.01Z" transform="translate(-21.65 20.63) rotate(-4.42)"/>
              <path class="cls-19" d="m86.53,12.29h340.3c2.76,0,5.01,2.24,5.01,5.01v547.34c0,2.76-2.24,5.01-5.01,5.01H86.53c-2.76,0-5.01-2.24-5.01-5.01V17.3c0-2.76,2.24-5.01,5.01-5.01Z" transform="translate(-21.65 20.63) rotate(-4.42)"/>
              <polygon class="cls-10" points="50.74 37.7 80.76 441.42 48.41 37.88 50.74 37.7"/>
              <polygon class="cls-10" points="95.49 571.45 59.04 84.37 97.82 571.27 95.49 571.45"/>
              <polygon class="cls-19" points="44.74 203.98 13.09 192.32 5.08 88.54 34.56 72.16 44.74 203.98"/>
              <g class="cls-8">
                <g>
                  <path class="cls-2" d="m177.62,261.97c-.68,1.1-1.82,1.73-2.89,2.35,0,0,0,0-.01,0,0,.05,0,.09,0,.14-.35,1.67-1.25,3.23-2.67,4.02-1.08.6-2.31.64-3.5.26-.13.19-.27.37-.43.53-.21.2-.44.4-.71.52-.36.16-.69.23-1.1.24-.27,0-.54-.16-.75-.36-.16-.16-.25-.37-.3-.58l-17.49,10.1-37.11-64.24,77.67-44.87c.01-.12.03-.25.04-.37,0-.07.01-.15.02-.22,0,0,0,0,0,0,0-.01,0,0,0-.03.02-.28.03-.57.04-.85.01-.63,0-1.27-.06-1.91-.03-.33-.08-.66-.12-.99,0-.02,0,0,0-.02,0-.02,0-.02-.01-.07-.01-.07-.03-.14-.04-.21-.02-.09-.04-.17-.06-.26l-17.59,10.16c-.08.2-.15.42-.24.62-.95,2.3-3.46,3.26-5.85,2.89l-59.34,34.28,3.2,5.54c-.11-.54.24-1.05.7-1.17.56-.16,1.11.31,1.32.87.3.83.72,1.66,1.18,2.48.04-.05.08-.09.12-.14.35-.43,1.07-.36,1.48.07.25.27.35.6.33.93.39.19.66.61.71,1.07.15,1.34.58,2.68.94,4.01.4,1.47.71,2.97.7,4.47,0,.11-.03.2-.05.3l26.38,45.67c.55.26,1.08.56,1.56.95,1.22.98,2.08,2.29,2.46,3.82.15.62-.14,1.05-.57,1.22l1.02,1.77,133.14-76.91c.6-1.1,1.22-2.19,1.77-3.31.55-1.11,1.01-2.28,1.29-3.51l-105.19,60.77Z"/>
                  <path class="cls-2" d="m387.48,138.29s-.04-.23-.03-.27c0,0,0,0,0-.01-.07-.34-.16-.67-.27-1.01-.21-.65-.46-1.3-.62-1.96-.1-.41,0-.78.24-1.03l-29.97-51.88s0,0-.01,0c-.76.12-1.56.02-2.25-.51-.66-.5-1.18-1.16-1.74-1.78-.43-.47-.46-1.14-.09-1.58.35-.42,1.08-.37,1.48.07.19.21.37.42.56.62-.04-.2-.08-.4-.12-.6l-4.07-7.05-67.16,38.8c.1.41,0,.85-.43,1.1-.43.25-.86.12-1.16-.17l-7.09,4.1s0,.02,0,.03c.04.14.04.28,0,.42-.07.31-.18.6-.33.87-.09.16-.18.32-.25.49,0,.01,0,.02,0,.03-.06.29-.23.5-.45.65-.23.15-.52.15-.79.07-.14-.04-.26-.11-.37-.21-.12-.09-.22-.2-.3-.34-.08-.13-.13-.28-.15-.43,0-.02,0-.04,0-.06l-82.18,47.48c.06.1.12.2.15.31.29,1.22.42,2.46.44,3.7.22.06.39.22.53.4l158.36-91.48,37.11,64.24-101.37,58.56c-.1,2.2-.82,4.18-1.76,6.07l2.73-1.58c0-.08-.02-.16-.01-.24v.05c0-.05,0-.11-.01-.16-.03-.12-.06-.24-.11-.36-.09-.19-.18-.38-.29-.56-.16-.27-.19-.56-.15-.85.05-.29.23-.51.45-.65,0,0,.01,0,.02,0,0-.31.13-.6.45-.79.46-.27.91-.09,1.22.25.05,0,.09-.02.14-.01.39.03.78.14,1.16.27.28.09.5.3.66.55.07.12.11.25.14.38l99.95-57.74c-.42-.35-.5-.95-.33-1.41.31-.86.73-1.67,1.2-2.44l-1.03-1.78c0,.06.02.11.02.17,0,.62-.41,1.06-1,1.05-.54,0-1.1-.59-1.1-1.17,0-.2,0-.4-.03-.6Z"/>
                </g>
                <g>
                  <path class="cls-2" d="m143.44,241.26c2.64,4.63,5.5,5.68,9.49,3.4,1.93-1.1,3.91-3,4.75-4.97l2.51,4.4c-.98,1.71-3.07,3.5-5.35,4.8-7.36,4.2-12.59,2.42-16.5-4.42l-1.36-2.38c-3.91-6.84-2.78-12.26,4.58-16.46,2.28-1.3,4.9-2.16,6.86-2.17l2.51,4.4c-2.12-.28-4.76.46-6.69,1.56-3.98,2.28-4.53,5.27-1.89,9.9l1.1,1.93Z"/>
                  <path class="cls-2" d="m175.14,220.51l1.16,2.02c4.04,7.07,2.76,12.53-3.66,16.2-6.49,3.71-11.8,2.01-15.84-5.06l-1.16-2.02c-4.02-7.04-2.62-12.57,3.71-16.18,6.27-3.58,11.77-1.99,15.79,5.04Zm-4.17,4.94l-1.03-1.8c-2.61-4.56-5.02-6.04-8.3-4.16-3.28,1.87-3.3,4.74-.7,9.3l1.03,1.8c2.62,4.6,5.09,6,8.37,4.13,3.28-1.87,3.26-4.67.63-9.27Z"/>
                  <path class="cls-2" d="m185.68,230.77l-12.85-22.49,8.64-4.94,15.92,15.41.23-.13-10.55-18.48,5.24-2.99,12.85,22.49-8.68,4.95-15.9-15.38-.19.11,10.53,18.44-5.24,2.99Z"/>
                  <path class="cls-2" d="m196.84,194.57l15.07-8.61,2.31,4.05-9.83,5.62,3.03,5.3,9.16-5.23,2.31,4.05-9.16,5.23,5.19,9.09-5.24,2.99-12.85-22.49Z"/>
                  <path class="cls-2" d="m220.94,180.81l12.85,22.49-5.17,2.95-12.85-22.49,5.17-2.95Z"/>
                  <path class="cls-2" d="m250.23,180.31c4.26,7.45,2.25,12.3-4.97,16.43l-6.65,3.8-12.85-22.49,6.84-3.91c7.17-4.09,12.23-3.28,16.47,4.14l1.16,2.02Zm-6.35,1.11c-2.7-4.72-5.16-5.45-9.08-3.21l-1.48.84,8.26,14.46,1.22-.7c4.02-2.29,4.73-5,2.1-9.6l-1.03-1.8Z"/>
                  <path class="cls-2" d="m246.77,166.05l15.07-8.61,2.31,4.05-9.83,5.62,2.73,4.79,9.09-5.19,2.31,4.05-9.09,5.19,3.19,5.59,10.09-5.76,2.29,4.02-15.33,8.75-12.85-22.49Z"/>
                  <path class="cls-2" d="m278.5,177.76l-12.85-22.49,8.64-4.94,15.92,15.41.22-.13-10.55-18.48,5.24-2.99,12.85,22.49-8.68,4.96-15.9-15.38-.19.11,10.53,18.44-5.24,2.99Z"/>
                  <path class="cls-2" d="m300.91,151.33c2.64,4.63,5.5,5.68,9.49,3.4,1.93-1.1,3.91-3,4.75-4.97l2.51,4.4c-.98,1.71-3.07,3.5-5.35,4.8-7.36,4.2-12.59,2.42-16.5-4.42l-1.36-2.38c-3.91-6.84-2.78-12.26,4.58-16.46,2.28-1.3,4.9-2.16,6.86-2.17l2.51,4.4c-2.12-.28-4.76.46-6.69,1.56-3.98,2.28-4.53,5.27-1.89,9.9l1.1,1.93Z"/>
                  <path class="cls-2" d="m314.37,127.45l12.85,22.49-5.17,2.95-12.85-22.49,5.17-2.95Z"/>
                  <path class="cls-2" d="m332.17,117.28l18.69,19.15-5.33,3.05-4.29-4.54-7.23,4.13,1.76,5.98-5.33,3.05-7.03-25.81,8.77-5.01Zm-2.51,6.8l2.98,10.44,5.37-3.06-7.48-7.87-.87.5Z"/>
                  <path class="cls-2" d="m340.9,112.29l5.24-2.99,10.55,18.48,10.44-5.96,2.29,4.02-15.68,8.96-12.85-22.49Z"/>
                </g>
              </g>
              <g class="cls-7">
                <circle class="cls-18" cx="118.5" cy="85.68" r="38.8"/>
                <circle class="cls-21" cx="117.56" cy="84.66" r="38.8"/>
                <g>
                  <path class="cls-16" d="m131.34,76.25c-.48-4.71-4.7-8.15-9.41-7.67-2.37.24-4.31,1.82-5.64,3.62-1.66-1.5-3.88-2.65-6.25-2.41-4.71.48-8.15,4.7-7.67,9.41.25,2.44,1.54,4.66,3.54,6.1l10.36,8.45,4.42-.45-12.84-10.47-.04-.03-.04-.03c-1.29-.91-2.12-2.33-2.27-3.89-.3-2.99,1.88-5.66,4.87-5.97,1.91-.19,3.66,1.41,4.95,2.83l1.51,1.6,1.15-1.87c1.03-1.6,2.37-3.58,4.28-3.77,2.99-.3,5.66,1.88,5.97,4.87.16,1.56-.37,3.12-1.45,4.27l-.04.04-6.5,7.96,2.42,1.97,1.86-2.27,4.58-5.59c1.67-1.81,2.49-4.24,2.24-6.69Z"/>
                  <path class="cls-16" d="m140.04,71.49c-.82-1.55-1.93-2.9-3.3-4.02l-12.67-10.33c-1.37-1.12-2.92-1.93-4.6-2.42-1.63-.47-3.31-.63-5-.46-1.69.17-3.31.66-4.81,1.45-1.55.82-2.9,1.93-4.02,3.3l-10.33,12.67c-1.12,1.37-1.93,2.92-2.42,4.6-.47,1.63-.63,3.31-.46,5,.17,1.69.66,3.31,1.45,4.81.82,1.55,1.93,2.9,3.3,4.02l6.08,4.96,4.59-.47-8.61-7.03c-4.2-3.43-4.83-9.64-1.4-13.84l10.33-12.67c1.71-2.1,4.12-3.31,6.63-3.56,2.51-.25,5.11.45,7.21,2.16l12.67,10.33c4.2,3.43,4.83,9.64,1.4,13.84l-7.03,8.61,4.59-.47,4.96-6.08c1.12-1.37,1.93-2.92,2.43-4.6.47-1.63.63-3.31.46-5-.17-1.69-.66-3.31-1.45-4.81Z"/>
                  <g>
                    <path class="cls-2" d="m103.84,111.58s-.07-.08-.09-.13l-.46-1.74s-.07-.07-.11-.07l-4.38.44s-.07.03-.09.09l-.53,1.84c-.05.14-.15.22-.28.23l-2.93.3c-.08,0-.14,0-.18-.05-.04-.04-.04-.11-.01-.21l4.39-13.98c.05-.14.14-.21.26-.23l3.63-.37c.12-.01.2.05.26.17l3.84,13.15v.08c.02.13-.04.21-.19.22l-2.95.3c-.07,0-.12,0-.16-.04Zm-4.22-4.14l2.85-.29c.07,0,.1-.05.09-.13l-1.35-5.01c-.02-.05-.04-.07-.07-.06-.03,0-.04.03-.05.08l-1.54,5.3c-.03.08,0,.12.07.11Z"/>
                    <path class="cls-2" d="m117.76,96.21l2.72-.28c.07,0,.12.01.17.05.04.04.06.1.06.16l-.29,13.57c0,.07-.03.13-.07.18-.04.05-.1.08-.16.09l-2.74.28c-.07,0-.12-.01-.17-.05-.04-.04-.06-.1-.06-.16l.16-8.07c0-.05,0-.08-.03-.08s-.05.03-.07.07l-1.72,2.94c-.04.11-.13.17-.26.19l-1.37.14c-.12.01-.21-.03-.27-.13l-1.61-2.62s-.04-.06-.07-.05-.04.03-.05.09l-.16,8.09c0,.07-.03.13-.07.18-.04.05-.1.08-.16.09l-2.74.28c-.07,0-.12-.01-.17-.05-.04-.04-.06-.1-.06-.16l.29-13.57c0-.07.01-.12.06-.18.05-.05.11-.08.17-.09l2.7-.27c.13-.01.22.03.27.13l2.58,4.1c.05.08.09.07.12-.01l2.73-4.64c.04-.11.13-.17.26-.19Z"/>
                    <path class="cls-2" d="m129.65,95.07c.04-.05.1-.08.16-.09l2.74-.28c.07,0,.12.01.17.05.04.04.06.1.06.16l-.29,13.57c0,.07-.03.13-.07.18-.04.05-.1.08-.16.09l-2.74.28c-.07,0-.12-.01-.17-.05-.04-.04-.06-.1-.06-.16l.1-5.34c.02-.07-.01-.1-.09-.09l-3.59.36c-.05,0-.09.04-.11.11l-.1,5.34c0,.07-.03.13-.07.18-.04.05-.1.08-.16.09l-2.74.28c-.07,0-.12-.01-.17-.05-.04-.04-.06-.1-.06-.16l.29-13.57c0-.07.01-.12.06-.18.05-.05.11-.08.17-.09l2.72-.28c.15-.01.23.06.24.22l-.12,5.18c0,.07.04.1.09.09l3.61-.37s.05-.01.07-.04c.02-.02.03-.05.02-.07l.12-5.18c0-.07.03-.13.07-.18Z"/>
                    <path class="cls-2" d="m135.68,107.41c-.9-.68-1.41-1.67-1.54-2.97-.03-.32-.04-.56-.03-.74l.1-4.34c.02-.99.25-1.88.69-2.68.44-.8,1.05-1.45,1.85-1.94.79-.49,1.69-.79,2.71-.9,1.43-.14,2.59.1,3.49.74.9.64,1.41,1.57,1.54,2.8.01.13.02.36.03.68,0,.05-.02.11-.06.16-.05.05-.11.08-.17.09l-2.74.46c-.15.01-.22-.05-.22-.2,0-.08,0-.19-.01-.34-.05-.53-.25-.93-.59-1.2-.34-.27-.78-.38-1.3-.33-.58.06-1.06.3-1.43.72-.37.42-.57.94-.58,1.55l-.1,4.56c0,.07,0,.17.01.3.05.53.25.93.6,1.21.35.28.79.39,1.32.34.59-.06,1.07-.3,1.44-.71.37-.41.55-.92.55-1.54.01-.15.09-.23.24-.24l2.73-.14c.15-.01.22.04.24.18-.02.95-.26,1.81-.7,2.57-.44.77-1.06,1.39-1.84,1.86-.79.47-1.69.76-2.73.87-1.41.14-2.57-.13-3.47-.81Z"/>
                  </g>
                </g>
              </g>
            </g>
          </g>
          <g>
            <g>
              <g>
                <path class="cls-20" d="m41.55,318.31c-1.21.09-2.44.04-3.67-.18-3.83-.68-7.18-2.8-9.41-5.99l-16.87-24.07c-4.61-6.58-3.01-15.69,3.57-20.3,3.19-2.24,7.06-3.1,10.89-2.42,3.83.68,7.17,2.8,9.41,5.99l16.87,24.07c2.23,3.19,3.09,7.05,2.42,10.89-.68,3.83-2.8,7.18-5.99,9.41-2.17,1.52-4.65,2.4-7.22,2.6Zm-18.25-41.48c-.42.03-.92.16-1.42.51-1.3.91-1.62,2.72-.71,4.02l16.87,24.07c.6.85,1.42,1.11,1.86,1.19.44.07,1.3.11,2.16-.48h0c.85-.6,1.11-1.42,1.18-1.86.08-.44.12-1.3-.48-2.15l-16.87-24.07c-.6-.85-1.42-1.11-1.86-1.19-.18-.03-.44-.06-.73-.04Z"/>
                <path class="cls-20" d="m100.29,353.43c-2.52.19-5.12-.27-7.55-1.46l-26.36-13.03c-3.49-1.72-6.1-4.7-7.35-8.39-1.25-3.69-.99-7.64.74-11.13,1.72-3.49,4.7-6.1,8.39-7.34,3.69-1.25,7.64-.98,11.13.74l26.35,13.02c7.2,3.56,10.17,12.32,6.61,19.52-2.36,4.77-7.01,7.69-11.97,8.07Zm-27.66-30.43c-.29.02-.54.08-.71.14-.42.14-1.2.52-1.66,1.45-.46.93-.29,1.78-.15,2.2.14.42.52,1.2,1.45,1.66l26.36,13.03c1.42.7,3.16.12,3.86-1.31.71-1.43.12-3.16-1.31-3.87l-26.35-13.02c-.55-.27-1.07-.32-1.49-.29Z"/>
                <path class="cls-20" d="m167.87,368.32c-1.2.09-2.41.04-3.62-.17l-28.97-4.99c-7.92-1.36-13.25-8.92-11.89-16.83.66-3.84,2.78-7.19,5.96-9.43,3.18-2.25,7.04-3.12,10.88-2.46l28.97,4.99c3.84.66,7.19,2.78,9.43,5.96,2.25,3.18,3.12,7.04,2.46,10.88-.66,3.84-2.78,7.19-5.95,9.43-2.18,1.53-4.67,2.43-7.26,2.63Zm-30.35-22.4c-.67.05-1.16.33-1.44.52-.36.26-1,.84-1.18,1.86-.27,1.57.78,3.06,2.35,3.34l28.97,4.99c1.02.18,1.79-.23,2.15-.49.36-.26,1-.84,1.18-1.87h0c.18-1.02-.23-1.79-.49-2.15-.26-.36-.84-1-1.87-1.18l-28.97-4.99c-.26-.04-.5-.05-.72-.03Z"/>
                <path class="cls-20" d="m235.65,371.51c-.46.04-.92.05-1.38.04l-29.39-.47c-3.89-.06-7.53-1.63-10.24-4.43-2.71-2.8-4.16-6.48-4.1-10.37.06-3.89,1.64-7.53,4.43-10.23,2.8-2.71,6.48-4.17,10.37-4.1l29.39.47c8.04.13,14.47,6.77,14.34,14.8-.06,3.89-1.64,7.53-4.43,10.23-2.46,2.39-5.61,3.8-8.99,4.06Zm-30.77-17.88c-.89.07-1.48.52-1.78.8-.32.31-.86.99-.88,2.02-.02,1.04.5,1.74.81,2.05.31.32.99.86,2.02.88l29.4.47c1.06.02,1.73-.5,2.05-.81.32-.31.86-.99.88-2.03,0,0,0,0,0,0,.03-1.59-1.25-2.9-2.84-2.93l-29.39-.47c-.1,0-.19,0-.28,0Z"/>
              </g>
              <g class="cls-13">
                <path class="cls-2" d="m41.55,318.31c-1.21.09-2.44.04-3.67-.18-3.83-.68-7.18-2.8-9.41-5.99l-16.87-24.07c-4.61-6.58-3.01-15.69,3.57-20.3,3.19-2.24,7.06-3.1,10.89-2.42,3.83.68,7.17,2.8,9.41,5.99l16.87,24.07c2.23,3.19,3.09,7.05,2.42,10.89-.68,3.83-2.8,7.18-5.99,9.41-2.17,1.52-4.65,2.4-7.22,2.6Zm-18.25-41.48c-.42.03-.92.16-1.42.51-1.3.91-1.62,2.72-.71,4.02l16.87,24.07c.6.85,1.42,1.11,1.86,1.19.44.07,1.3.11,2.16-.48h0c.85-.6,1.11-1.42,1.18-1.86.08-.44.12-1.3-.48-2.15l-16.87-24.07c-.6-.85-1.42-1.11-1.86-1.19-.18-.03-.44-.06-.73-.04Z"/>
                <path class="cls-2" d="m100.29,353.43c-2.52.19-5.12-.27-7.55-1.46l-26.36-13.03c-3.49-1.72-6.1-4.7-7.35-8.39-1.25-3.69-.99-7.64.74-11.13,1.72-3.49,4.7-6.1,8.39-7.34,3.69-1.25,7.64-.98,11.13.74l26.35,13.02c7.2,3.56,10.17,12.32,6.61,19.52-2.36,4.77-7.01,7.69-11.97,8.07Zm-27.66-30.43c-.29.02-.54.08-.71.14-.42.14-1.2.52-1.66,1.45-.46.93-.29,1.78-.15,2.2.14.42.52,1.2,1.45,1.66l26.36,13.03c1.42.7,3.16.12,3.86-1.31.71-1.43.12-3.16-1.31-3.87l-26.35-13.02c-.55-.27-1.07-.32-1.49-.29Z"/>
                <path class="cls-2" d="m167.87,368.32c-1.2.09-2.41.04-3.62-.17l-28.97-4.99c-7.92-1.36-13.25-8.92-11.89-16.83.66-3.84,2.78-7.19,5.96-9.43,3.18-2.25,7.04-3.12,10.88-2.46l28.97,4.99c3.84.66,7.19,2.78,9.43,5.96,2.25,3.18,3.12,7.04,2.46,10.88-.66,3.84-2.78,7.19-5.95,9.43-2.18,1.53-4.67,2.43-7.26,2.63Zm-30.35-22.4c-.67.05-1.16.33-1.44.52-.36.26-1,.84-1.18,1.86-.27,1.57.78,3.06,2.35,3.34l28.97,4.99c1.02.18,1.79-.23,2.15-.49.36-.26,1-.84,1.18-1.87h0c.18-1.02-.23-1.79-.49-2.15-.26-.36-.84-1-1.87-1.18l-28.97-4.99c-.26-.04-.5-.05-.72-.03Z"/>
                <path class="cls-2" d="m235.65,371.51c-.46.04-.92.05-1.38.04l-29.39-.47c-3.89-.06-7.53-1.63-10.24-4.43-2.71-2.8-4.16-6.48-4.1-10.37.06-3.89,1.64-7.53,4.43-10.23,2.8-2.71,6.48-4.17,10.37-4.1l29.39.47c8.04.13,14.47,6.77,14.34,14.8-.06,3.89-1.64,7.53-4.43,10.23-2.46,2.39-5.61,3.8-8.99,4.06Zm-30.77-17.88c-.89.07-1.48.52-1.78.8-.32.31-.86.99-.88,2.02-.02,1.04.5,1.74.81,2.05.31.32.99.86,2.02.88l29.4.47c1.06.02,1.73-.5,2.05-.81.32-.31.86-.99.88-2.03,0,0,0,0,0,0,.03-1.59-1.25-2.9-2.84-2.93l-29.39-.47c-.1,0-.19,0-.28,0Z"/>
              </g>
              <g>
                <path class="cls-20" d="m61.39,343.81c-5.49.42-11.14-1.08-15.86-4.65l-9.51-7.21c-4.96-3.76-8.16-9.22-9.01-15.39-.85-6.17.76-12.29,4.51-17.25,3.76-4.96,9.23-8.16,15.39-9.01,6.19-.84,12.29.76,17.25,4.52l9.51,7.21c4.96,3.76,8.16,9.22,9.01,15.39.85,6.16-.76,12.29-4.51,17.25t0,0c-4.19,5.52-10.37,8.65-16.79,9.14Zm-12.17-42.01c-.23.02-.47.04-.7.08-3.07.42-5.8,2.02-7.67,4.49-1.87,2.47-2.67,5.52-2.25,8.6.42,3.07,2.02,5.8,4.49,7.67l9.51,7.22c5.1,3.87,12.4,2.86,16.27-2.24h0c1.87-2.47,2.67-5.53,2.25-8.6-.42-3.07-2.02-5.8-4.49-7.67l-9.51-7.21c-2.28-1.73-5.06-2.54-7.9-2.33Zm24.31,29.34h.02s-.02,0-.02,0Z"/>
                <path class="cls-20" d="m126.08,367.82c-2.55.2-5.18-.03-7.8-.73l-11.53-3.09c-6.01-1.61-11.04-5.46-14.15-10.85-3.11-5.39-3.94-11.67-2.33-17.68,1.61-6.01,5.46-11.04,10.85-14.15,5.39-3.11,11.67-3.94,17.68-2.33l11.53,3.09c12.41,3.32,19.81,16.12,16.49,28.53h0c-2.62,9.8-11.15,16.47-20.74,17.21Zm-14.21-37.91c-1.71.13-3.38.64-4.91,1.53-2.69,1.55-4.61,4.06-5.41,7.05-.8,3-.39,6.13,1.16,8.81,1.55,2.69,4.06,4.61,7.05,5.41l11.53,3.09c6.18,1.65,12.57-2.03,14.22-8.22h0c1.66-6.19-2.03-12.57-8.22-14.22l-11.53-3.09c-1.29-.35-2.61-.47-3.91-.37Z"/>
                <path class="cls-20" d="m193.37,378.2c-1.38.11-2.79.09-4.21-.06l-11.88-1.23c-12.78-1.33-22.1-12.8-20.77-25.58.64-6.19,3.66-11.76,8.49-15.68,4.83-3.92,10.9-5.74,17.09-5.09l11.87,1.23c6.19.64,11.76,3.66,15.68,8.49,3.92,4.83,5.73,10.9,5.09,17.09h0c-1.18,11.35-10.37,19.98-21.37,20.83Zm-14.6-36.05c-2.33.18-4.55,1.06-6.4,2.56-2.41,1.95-3.91,4.73-4.23,7.82-.66,6.37,3.98,12.09,10.35,12.75l11.87,1.23c6.37.66,12.09-3.99,12.75-10.35.32-3.08-.58-6.11-2.54-8.52-1.96-2.41-4.73-3.91-7.82-4.23l-11.87-1.23c-.71-.07-1.42-.08-2.12-.03Zm30.16,14.62h.02s-.02,0-.02,0Z"/>
              </g>
              <g class="cls-8">
                <path class="cls-2" d="m61.39,343.81c-5.49.42-11.14-1.08-15.86-4.65l-9.51-7.21c-4.96-3.76-8.16-9.22-9.01-15.39-.85-6.17.76-12.29,4.51-17.25,3.76-4.96,9.23-8.16,15.39-9.01,6.19-.84,12.29.76,17.25,4.52l9.51,7.21c4.96,3.76,8.16,9.22,9.01,15.39.85,6.16-.76,12.29-4.51,17.25t0,0c-4.19,5.52-10.37,8.65-16.79,9.14Zm-12.17-42.01c-.23.02-.47.04-.7.08-3.07.42-5.8,2.02-7.67,4.49-1.87,2.47-2.67,5.52-2.25,8.6.42,3.07,2.02,5.8,4.49,7.67l9.51,7.22c5.1,3.87,12.4,2.86,16.27-2.24h0c1.87-2.47,2.67-5.53,2.25-8.6-.42-3.07-2.02-5.8-4.49-7.67l-9.51-7.21c-2.28-1.73-5.06-2.54-7.9-2.33Zm24.31,29.34h.02s-.02,0-.02,0Z"/>
                <path class="cls-2" d="m126.08,367.82c-2.55.2-5.18-.03-7.8-.73l-11.53-3.09c-6.01-1.61-11.04-5.46-14.15-10.85-3.11-5.39-3.94-11.67-2.33-17.68,1.61-6.01,5.46-11.04,10.85-14.15,5.39-3.11,11.67-3.94,17.68-2.33l11.53,3.09c12.41,3.32,19.81,16.12,16.49,28.53h0c-2.62,9.8-11.15,16.47-20.74,17.21Zm-14.21-37.91c-1.71.13-3.38.64-4.91,1.53-2.69,1.55-4.61,4.06-5.41,7.05-.8,3-.39,6.13,1.16,8.81,1.55,2.69,4.06,4.61,7.05,5.41l11.53,3.09c6.18,1.65,12.57-2.03,14.22-8.22h0c1.66-6.19-2.03-12.57-8.22-14.22l-11.53-3.09c-1.29-.35-2.61-.47-3.91-.37Z"/>
                <path class="cls-2" d="m193.37,378.2c-1.38.11-2.79.09-4.21-.06l-11.88-1.23c-12.78-1.33-22.1-12.8-20.77-25.58.64-6.19,3.66-11.76,8.49-15.68,4.83-3.92,10.9-5.74,17.09-5.09l11.87,1.23c6.19.64,11.76,3.66,15.68,8.49,3.92,4.83,5.73,10.9,5.09,17.09h0c-1.18,11.35-10.37,19.98-21.37,20.83Zm-14.6-36.05c-2.33.18-4.55,1.06-6.4,2.56-2.41,1.95-3.91,4.73-4.23,7.82-.66,6.37,3.98,12.09,10.35,12.75l11.87,1.23c6.37.66,12.09-3.99,12.75-10.35.32-3.08-.58-6.11-2.54-8.52-1.96-2.41-4.73-3.91-7.82-4.23l-11.87-1.23c-.71-.07-1.42-.08-2.12-.03Zm30.16,14.62h.02s-.02,0-.02,0Z"/>
              </g>
            </g>
            <g>
              <g>
                <path class="cls-20" d="m61.39,343.81c-5.49.42-11.14-1.08-15.86-4.65l-9.51-7.21c-4.96-3.76-8.16-9.22-9.01-15.39-.85-6.17.76-12.29,4.51-17.25,1.95-2.57,5.61-3.08,8.19-1.12,2.57,1.95,3.08,5.61,1.13,8.19-1.87,2.47-2.67,5.52-2.25,8.6.42,3.07,2.02,5.8,4.49,7.67l9.51,7.22c5.1,3.87,12.4,2.86,16.27-2.24,1.95-2.57,5.62-3.08,8.19-1.13,2.57,1.95,3.08,5.61,1.12,8.19-4.19,5.52-10.37,8.65-16.79,9.14Z"/>
                <path class="cls-20" d="m126.08,367.82c-2.55.2-5.18-.03-7.8-.73l-11.53-3.09c-6.01-1.61-11.04-5.46-14.15-10.85-3.11-5.39-3.94-11.67-2.33-17.68.83-3.12,4.04-4.96,7.16-4.13,3.12.83,4.97,4.04,4.13,7.16-.8,3-.39,6.13,1.16,8.81,1.55,2.69,4.06,4.61,7.05,5.41l11.53,3.09c6.18,1.65,12.57-2.03,14.22-8.22.83-3.12,4.04-4.97,7.16-4.13,3.12.83,4.97,4.04,4.13,7.16-2.62,9.8-11.15,16.47-20.74,17.21Z"/>
                <path class="cls-20" d="m193.37,378.2c-1.38.11-2.79.09-4.21-.06l-11.88-1.23c-12.78-1.33-22.1-12.8-20.77-25.58.33-3.21,3.2-5.55,6.42-5.21,3.21.33,5.54,3.21,5.21,6.41-.66,6.37,3.98,12.09,10.35,12.75l11.87,1.23c6.37.66,12.09-3.99,12.75-10.35.33-3.21,3.2-5.55,6.42-5.21,3.21.33,5.54,3.21,5.21,6.42-1.18,11.35-10.37,19.98-21.37,20.83Z"/>
              </g>
              <g>
                <path class="cls-20" d="m61.39,343.81c-5.49.42-11.14-1.08-15.86-4.65l-9.51-7.21c-4.96-3.76-8.16-9.22-9.01-15.39-.85-6.17.76-12.29,4.51-17.25,1.95-2.57,5.61-3.08,8.19-1.12,2.57,1.95,3.08,5.61,1.13,8.19-1.87,2.47-2.67,5.52-2.25,8.6.42,3.07,2.02,5.8,4.49,7.67l9.51,7.22c5.1,3.87,12.4,2.86,16.27-2.24,1.95-2.57,5.62-3.08,8.19-1.13,2.57,1.95,3.08,5.61,1.12,8.19-4.19,5.52-10.37,8.65-16.79,9.14Z"/>
                <path class="cls-20" d="m126.08,367.82c-2.55.2-5.18-.03-7.8-.73l-11.53-3.09c-6.01-1.61-11.04-5.46-14.15-10.85-3.11-5.39-3.94-11.67-2.33-17.68.83-3.12,4.04-4.96,7.16-4.13,3.12.83,4.97,4.04,4.13,7.16-.8,3-.39,6.13,1.16,8.81,1.55,2.69,4.06,4.61,7.05,5.41l11.53,3.09c6.18,1.65,12.57-2.03,14.22-8.22.83-3.12,4.04-4.97,7.16-4.13,3.12.83,4.97,4.04,4.13,7.16-2.62,9.8-11.15,16.47-20.74,17.21Z"/>
                <path class="cls-20" d="m193.37,378.2c-1.38.11-2.79.09-4.21-.06l-11.88-1.23c-12.78-1.33-22.1-12.8-20.77-25.58.33-3.21,3.2-5.55,6.42-5.21,3.21.33,5.54,3.21,5.21,6.41-.66,6.37,3.98,12.09,10.35,12.75l11.87,1.23c6.37.66,12.09-3.99,12.75-10.35.33-3.21,3.2-5.55,6.42-5.21,3.21.33,5.54,3.21,5.21,6.42-1.18,11.35-10.37,19.98-21.37,20.83Z"/>
              </g>
              <g class="cls-8">
                <path class="cls-2" d="m61.39,343.81c-5.49.42-11.14-1.08-15.86-4.65l-9.51-7.21c-4.96-3.76-8.16-9.22-9.01-15.39-.85-6.17.76-12.29,4.51-17.25,1.95-2.57,5.61-3.08,8.19-1.12,2.57,1.95,3.08,5.61,1.13,8.19-1.87,2.47-2.67,5.52-2.25,8.6.42,3.07,2.02,5.8,4.49,7.67l9.51,7.22c5.1,3.87,12.4,2.86,16.27-2.24,1.95-2.57,5.62-3.08,8.19-1.13,2.57,1.95,3.08,5.61,1.12,8.19-4.19,5.52-10.37,8.65-16.79,9.14Z"/>
                <path class="cls-2" d="m126.08,367.82c-2.55.2-5.18-.03-7.8-.73l-11.53-3.09c-6.01-1.61-11.04-5.46-14.15-10.85-3.11-5.39-3.94-11.67-2.33-17.68.83-3.12,4.04-4.96,7.16-4.13,3.12.83,4.97,4.04,4.13,7.16-.8,3-.39,6.13,1.16,8.81,1.55,2.69,4.06,4.61,7.05,5.41l11.53,3.09c6.18,1.65,12.57-2.03,14.22-8.22.83-3.12,4.04-4.97,7.16-4.13,3.12.83,4.97,4.04,4.13,7.16-2.62,9.8-11.15,16.47-20.74,17.21Z"/>
                <path class="cls-2" d="m193.37,378.2c-1.38.11-2.79.09-4.21-.06l-11.88-1.23c-12.78-1.33-22.1-12.8-20.77-25.58.33-3.21,3.2-5.55,6.42-5.21,3.21.33,5.54,3.21,5.21,6.41-.66,6.37,3.98,12.09,10.35,12.75l11.87,1.23c6.37.66,12.09-3.99,12.75-10.35.33-3.21,3.2-5.55,6.42-5.21,3.21.33,5.54,3.21,5.21,6.42-1.18,11.35-10.37,19.98-21.37,20.83Z"/>
              </g>
              <g>
                <path class="cls-20" d="m45.86,316.75c-1.99.15-4.01-.72-5.24-2.48-1.85-2.64-1.21-6.29,1.43-8.14.85-.6,1.11-1.42,1.18-1.86.08-.44.12-1.3-.48-2.15l-16.87-24.07c-.6-.85-1.42-1.11-1.86-1.19-.44-.08-1.3-.12-2.15.48-2.64,1.85-6.29,1.21-8.14-1.43-1.85-2.64-1.21-6.29,1.43-8.14,3.19-2.24,7.05-3.09,10.89-2.42,3.83.68,7.17,2.8,9.41,5.99l16.87,24.07c2.23,3.19,3.09,7.05,2.42,10.89-.68,3.83-2.8,7.18-5.99,9.41-.89.62-1.89.96-2.9,1.04Z"/>
                <path class="cls-20" d="m107.46,348.6c-1.01.08-2.06-.11-3.03-.59-2.89-1.43-4.08-4.93-2.65-7.83.71-1.43.12-3.16-1.31-3.87l-26.35-13.02c-.93-.46-1.78-.29-2.2-.15-.42.14-1.2.52-1.66,1.45-1.43,2.89-4.94,4.08-7.83,2.65-2.89-1.43-4.08-4.93-2.65-7.83,1.72-3.49,4.7-6.1,8.39-7.35,3.69-1.25,7.64-.98,11.13.74l26.35,13.02c7.2,3.56,10.17,12.32,6.61,19.52-.95,1.92-2.81,3.09-4.79,3.24Z"/>
                <path class="cls-20" d="m175.77,361.09c-.47.04-.96.01-1.45-.07-3.18-.55-5.32-3.57-4.77-6.75.18-1.02-.23-1.79-.49-2.15-.26-.36-.84-1-1.87-1.18l-28.97-4.99c-1.03-.17-1.79.23-2.15.49-.36.26-1,.84-1.18,1.86l-11.52-1.98c.66-3.84,2.78-7.19,5.96-9.43,3.18-2.25,7.04-3.12,10.88-2.46l28.97,4.99c3.84.66,7.19,2.78,9.43,5.96,2.25,3.18,3.12,7.04,2.46,10.88-.46,2.69-2.7,4.63-5.3,4.84Z"/>
                <path class="cls-20" d="m243.69,362.95c-.18.01-.37.02-.55.02-3.23-.05-5.8-2.71-5.75-5.94.03-1.59-1.25-2.9-2.84-2.93l-29.39-.47c-1.04,0-1.73.5-2.05.81-.32.31-.86.99-.88,2.02-.05,3.23-2.71,5.81-5.94,5.75-3.23-.05-5.8-2.71-5.75-5.93.06-3.89,1.64-7.53,4.43-10.24,2.8-2.71,6.48-4.17,10.37-4.1l29.39.47c8.04.13,14.47,6.77,14.34,14.8-.05,3.04-2.41,5.5-5.39,5.73Z"/>
              </g>
              <g class="cls-6">
                <path class="cls-2" d="m45.86,316.75c-1.99.15-4.01-.72-5.24-2.48-1.85-2.64-1.21-6.29,1.43-8.14.85-.6,1.11-1.42,1.18-1.86.08-.44.12-1.3-.48-2.15l-16.87-24.07c-.6-.85-1.42-1.11-1.86-1.19-.44-.08-1.3-.12-2.15.48-2.64,1.85-6.29,1.21-8.14-1.43-1.85-2.64-1.21-6.29,1.43-8.14,3.19-2.24,7.05-3.09,10.89-2.42,3.83.68,7.17,2.8,9.41,5.99l16.87,24.07c2.23,3.19,3.09,7.05,2.42,10.89-.68,3.83-2.8,7.18-5.99,9.41-.89.62-1.89.96-2.9,1.04Z"/>
                <path class="cls-2" d="m107.46,348.6c-1.01.08-2.06-.11-3.03-.59-2.89-1.43-4.08-4.93-2.65-7.83.71-1.43.12-3.16-1.31-3.87l-26.35-13.02c-.93-.46-1.78-.29-2.2-.15-.42.14-1.2.52-1.66,1.45-1.43,2.89-4.94,4.08-7.83,2.65-2.89-1.43-4.08-4.93-2.65-7.83,1.72-3.49,4.7-6.1,8.39-7.35,3.69-1.25,7.64-.98,11.13.74l26.35,13.02c7.2,3.56,10.17,12.32,6.61,19.52-.95,1.92-2.81,3.09-4.79,3.24Z"/>
                <path class="cls-2" d="m175.77,361.09c-.47.04-.96.01-1.45-.07-3.18-.55-5.32-3.57-4.77-6.75.18-1.02-.23-1.79-.49-2.15-.26-.36-.84-1-1.87-1.18l-28.97-4.99c-1.03-.17-1.79.23-2.15.49-.36.26-1,.84-1.18,1.86l-11.52-1.98c.66-3.84,2.78-7.19,5.96-9.43,3.18-2.25,7.04-3.12,10.88-2.46l28.97,4.99c3.84.66,7.19,2.78,9.43,5.96,2.25,3.18,3.12,7.04,2.46,10.88-.46,2.69-2.7,4.63-5.3,4.84Z"/>
                <path class="cls-2" d="m243.69,362.95c-.18.01-.37.02-.55.02-3.23-.05-5.8-2.71-5.75-5.94.03-1.59-1.25-2.9-2.84-2.93l-29.39-.47c-1.04,0-1.73.5-2.05.81-.32.31-.86.99-.88,2.02-.05,3.23-2.71,5.81-5.94,5.75-3.23-.05-5.8-2.71-5.75-5.93.06-3.89,1.64-7.53,4.43-10.24,2.8-2.71,6.48-4.17,10.37-4.1l29.39.47c8.04.13,14.47,6.77,14.34,14.8-.05,3.04-2.41,5.5-5.39,5.73Z"/>
              </g>
              <path class="cls-20" d="m22.68,287.46c-1.38.11-2.79-.27-3.98-1.17-4.96-3.76-8.16-9.23-9.01-15.39-.85-6.17.76-12.29,4.52-17.26,1.95-2.57,5.61-3.08,8.19-1.12,2.57,1.95,3.08,5.61,1.13,8.19-1.88,2.47-2.67,5.53-2.25,8.6.42,3.07,2.02,5.8,4.49,7.67,2.57,1.95,3.08,5.61,1.13,8.19-1.05,1.39-2.6,2.17-4.21,2.3Z"/>
              <g class="cls-8">
                <path class="cls-2" d="m22.68,287.46c-1.38.11-2.79-.27-3.98-1.17-4.96-3.76-8.16-9.23-9.01-15.39-.85-6.17.76-12.29,4.52-17.26,1.95-2.57,5.61-3.08,8.19-1.12,2.57,1.95,3.08,5.61,1.13,8.19-1.88,2.47-2.67,5.53-2.25,8.6.42,3.07,2.02,5.8,4.49,7.67,2.57,1.95,3.08,5.61,1.13,8.19-1.05,1.39-2.6,2.17-4.21,2.3Z"/>
              </g>
            </g>
          </g>
          <g>
            <path class="cls-20" d="m454.38,270.02c-.95.66-1.95,1.24-3.01,1.76h0c-5.59,2.75-11.91,3.15-17.8,1.14-5.89-2.01-10.65-6.19-13.39-11.78l-5.27-10.71c-2.75-5.59-3.15-11.91-1.14-17.8,2.01-5.89,6.19-10.64,11.78-13.39,5.58-2.75,11.9-3.15,17.8-1.14,5.89,2.01,10.65,6.19,13.39,11.78l5.27,10.71c2.74,5.59,3.15,11.91,1.14,17.8-1.63,4.78-4.69,8.81-8.77,11.63Zm-25.17-39.41c-2.03,1.4-3.56,3.41-4.37,5.8-1,2.94-.8,6.09.57,8.87l5.27,10.71c1.37,2.78,3.74,4.87,6.67,5.87,2.94,1,6.09.8,8.87-.57h0c2.78-1.37,4.87-3.74,5.87-6.68,1-2.94.8-6.09-.57-8.87l-5.27-10.71c-1.37-2.79-3.74-4.87-6.67-5.87-2.94-1-6.09-.8-8.87.57-.52.26-1.03.55-1.5.88Z"/>
            <g class="cls-8">
              <path class="cls-2" d="m454.38,270.02c-.95.66-1.95,1.24-3.01,1.76h0c-5.59,2.75-11.91,3.15-17.8,1.14-5.89-2.01-10.65-6.19-13.39-11.78l-5.27-10.71c-2.75-5.59-3.15-11.91-1.14-17.8,2.01-5.89,6.19-10.64,11.78-13.39,5.58-2.75,11.9-3.15,17.8-1.14,5.89,2.01,10.65,6.19,13.39,11.78l5.27,10.71c2.74,5.59,3.15,11.91,1.14,17.8-1.63,4.78-4.69,8.81-8.77,11.63Zm-25.17-39.41c-2.03,1.4-3.56,3.41-4.37,5.8-1,2.94-.8,6.09.57,8.87l5.27,10.71c1.37,2.78,3.74,4.87,6.67,5.87,2.94,1,6.09.8,8.87-.57h0c2.78-1.37,4.87-3.74,5.87-6.68,1-2.94.8-6.09-.57-8.87l-5.27-10.71c-1.37-2.79-3.74-4.87-6.67-5.87-2.94-1-6.09-.8-8.87.57-.52.26-1.03.55-1.5.88Z"/>
            </g>
            <g>
              <g>
                <path class="cls-20" d="m388.75,412.71c-2.87,1.99-6.33,2.86-9.83,2.48-3.87-.42-7.35-2.32-9.78-5.36-2.44-3.03-3.55-6.83-3.13-10.7.42-3.87,2.32-7.34,5.35-9.78l22.9-18.42c6.26-5.06,15.46-4.04,20.49,2.22,2.44,3.03,3.55,6.84,3.13,10.71-.42,3.87-2.32,7.35-5.36,9.78l-22.9,18.42c-.28.23-.57.45-.87.65Zm13-32.81c-.06.04-.12.08-.17.13l-22.9,18.42c-.81.65-1.01,1.49-1.06,1.94-.05.44-.03,1.31.62,2.12.65.81,1.49,1.01,1.94,1.06.44.05,1.3.04,2.12-.62l22.9-18.42c.81-.65,1.01-1.49,1.06-1.94.05-.44.03-1.31-.62-2.12h0c-.95-1.18-2.65-1.42-3.89-.57Z"/>
                <path class="cls-20" d="m432.27,365.06c-3.94,2.72-9.14,3.45-13.88,1.49-7.42-3.08-10.96-11.62-7.88-19.04l11.26-27.16c3.08-7.42,11.62-10.96,19.04-7.88,7.42,3.08,10.96,11.62,7.88,19.04l-11.26,27.16c-1.11,2.68-2.94,4.86-5.17,6.4Zm1.31-41.5c-.36.25-.76.65-1.02,1.27l-11.26,27.16c-.61,1.47.09,3.16,1.56,3.77,1.47.61,3.16-.1,3.77-1.56l11.26-27.16c.61-1.47-.09-3.16-1.56-3.77-.96-.4-1.8-.17-2.21,0-.15.06-.34.16-.54.3Z"/>
                <path class="cls-20" d="m450.82,298.8c-2.76,1.91-6.19,2.88-9.79,2.5-7.99-.84-13.81-8.02-12.98-16.01l3.07-29.24c.84-7.99,8.02-13.81,16.01-12.97h0c7.99.84,13.81,8.02,12.97,16.01l-3.07,29.24c-.46,4.4-2.84,8.14-6.23,10.47Zm-6.84-43.6c-.67.46-1.14,1.2-1.23,2.07l-3.07,29.24c-.17,1.58.99,3,2.57,3.17,1.58.17,3-.99,3.17-2.57l3.07-29.24c.17-1.58-.99-3-2.57-3.17-.71-.07-1.39.12-1.94.5Z"/>
              </g>
              <g class="cls-13">
                <path class="cls-2" d="m388.75,412.71c-2.87,1.99-6.33,2.86-9.83,2.48-3.87-.42-7.35-2.32-9.78-5.36-2.44-3.03-3.55-6.83-3.13-10.7.42-3.87,2.32-7.34,5.35-9.78l22.9-18.42c6.26-5.06,15.46-4.04,20.49,2.22,2.44,3.03,3.55,6.84,3.13,10.71-.42,3.87-2.32,7.35-5.36,9.78l-22.9,18.42c-.28.23-.57.45-.87.65Zm13-32.81c-.06.04-.12.08-.17.13l-22.9,18.42c-.81.65-1.01,1.49-1.06,1.94-.05.44-.03,1.31.62,2.12.65.81,1.49,1.01,1.94,1.06.44.05,1.3.04,2.12-.62l22.9-18.42c.81-.65,1.01-1.49,1.06-1.94.05-.44.03-1.31-.62-2.12h0c-.95-1.18-2.65-1.42-3.89-.57Z"/>
                <path class="cls-2" d="m432.27,365.06c-3.94,2.72-9.14,3.45-13.88,1.49-7.42-3.08-10.96-11.62-7.88-19.04l11.26-27.16c3.08-7.42,11.62-10.96,19.04-7.88,7.42,3.08,10.96,11.62,7.88,19.04l-11.26,27.16c-1.11,2.68-2.94,4.86-5.17,6.4Zm1.31-41.5c-.36.25-.76.65-1.02,1.27l-11.26,27.16c-.61,1.47.09,3.16,1.56,3.77,1.47.61,3.16-.1,3.77-1.56l11.26-27.16c.61-1.47-.09-3.16-1.56-3.77-.96-.4-1.8-.17-2.21,0-.15.06-.34.16-.54.3Z"/>
                <path class="cls-2" d="m450.82,298.8c-2.76,1.91-6.19,2.88-9.79,2.5-7.99-.84-13.81-8.02-12.98-16.01l3.07-29.24c.84-7.99,8.02-13.81,16.01-12.97h0c7.99.84,13.81,8.02,12.97,16.01l-3.07,29.24c-.46,4.4-2.84,8.14-6.23,10.47Zm-6.84-43.6c-.67.46-1.14,1.2-1.23,2.07l-3.07,29.24c-.17,1.58.99,3,2.57,3.17,1.58.17,3-.99,3.17-2.57l3.07-29.24c.17-1.58-.99-3-2.57-3.17-.71-.07-1.39.12-1.94.5Z"/>
              </g>
              <g>
                <path class="cls-20" d="m425.91,393.48c-2.54,1.75-5.43,3-8.55,3.64-6.1,1.26-12.32.06-17.51-3.37-5.2-3.42-8.75-8.67-10-14.76-1.25-6.1-.06-12.32,3.37-17.51l6.57-9.97c3.42-5.2,8.67-8.75,14.77-10,6.1-1.25,12.32-.06,17.51,3.37h0c10.73,7.07,13.71,21.55,6.64,32.28l-6.57,9.97c-1.67,2.54-3.78,4.69-6.22,6.37Zm-13.28-38.72c-1.21.84-2.26,1.91-3.1,3.17l-6.57,9.97c-1.71,2.59-2.3,5.69-1.68,8.73.62,3.04,2.4,5.65,4.99,7.36,2.59,1.71,5.69,2.3,8.73,1.68,3.04-.62,5.65-2.4,7.36-4.99l6.57-9.97c3.52-5.35,2.04-12.56-3.31-16.09h0c-2.59-1.71-5.69-2.3-8.73-1.68-1.55.32-3,.94-4.26,1.81Z"/>
                <path class="cls-20" d="m450.16,331.37c-5,3.45-11.34,4.96-17.76,3.69-6.1-1.21-11.38-4.72-14.84-9.89s-4.7-11.38-3.49-17.49l2.32-11.71c2.5-12.6,14.78-20.83,27.38-18.33,6.1,1.21,11.38,4.72,14.84,9.89,3.46,5.17,4.7,11.38,3.49,17.49l-2.32,11.71c-1.22,6.18-4.81,11.31-9.62,14.64Zm-17.51-40.43c-2.4,1.66-4.19,4.21-4.8,7.3l-2.32,11.71c-.6,3.04.02,6.14,1.74,8.72,1.73,2.58,4.35,4.33,7.4,4.93,6.28,1.24,12.4-2.86,13.65-9.14l2.32-11.71c.6-3.04-.02-6.14-1.74-8.72-1.73-2.58-4.35-4.33-7.4-4.93-3.2-.63-6.36.12-8.85,1.84Z"/>
              </g>
              <g class="cls-8">
                <path class="cls-2" d="m425.91,393.48c-2.54,1.75-5.43,3-8.55,3.64-6.1,1.26-12.32.06-17.51-3.37-5.2-3.42-8.75-8.67-10-14.76-1.25-6.1-.06-12.32,3.37-17.51l6.57-9.97c3.42-5.2,8.67-8.75,14.77-10,6.1-1.25,12.32-.06,17.51,3.37h0c10.73,7.07,13.71,21.55,6.64,32.28l-6.57,9.97c-1.67,2.54-3.78,4.69-6.22,6.37Zm-13.28-38.72c-1.21.84-2.26,1.91-3.1,3.17l-6.57,9.97c-1.71,2.59-2.3,5.69-1.68,8.73.62,3.04,2.4,5.65,4.99,7.36,2.59,1.71,5.69,2.3,8.73,1.68,3.04-.62,5.65-2.4,7.36-4.99l6.57-9.97c3.52-5.35,2.04-12.56-3.31-16.09h0c-2.59-1.71-5.69-2.3-8.73-1.68-1.55.32-3,.94-4.26,1.81Z"/>
                <path class="cls-2" d="m450.16,331.37c-5,3.45-11.34,4.96-17.76,3.69-6.1-1.21-11.38-4.72-14.84-9.89s-4.7-11.38-3.49-17.49l2.32-11.71c2.5-12.6,14.78-20.83,27.38-18.33,6.1,1.21,11.38,4.72,14.84,9.89,3.46,5.17,4.7,11.38,3.49,17.49l-2.32,11.71c-1.22,6.18-4.81,11.31-9.62,14.64Zm-17.51-40.43c-2.4,1.66-4.19,4.21-4.8,7.3l-2.32,11.71c-.6,3.04.02,6.14,1.74,8.72,1.73,2.58,4.35,4.33,7.4,4.93,6.28,1.24,12.4-2.86,13.65-9.14l2.32-11.71c.6-3.04-.02-6.14-1.74-8.72-1.73-2.58-4.35-4.33-7.4-4.93-3.2-.63-6.36.12-8.85,1.84Z"/>
              </g>
            </g>
            <g>
              <path class="cls-20" d="m452.12,271.35c-.24.16-.48.31-.75.44-5.59,2.75-11.91,3.15-17.8,1.14-5.89-2.01-10.65-6.19-13.39-11.78l-5.27-10.71c-2.75-5.59-3.15-11.91-1.14-17.8,2.01-5.89,6.19-10.64,11.78-13.39,2.9-1.42,6.4-.23,7.82,2.67,1.43,2.9.24,6.41-2.67,7.82-2.78,1.37-4.87,3.74-5.87,6.67-1,2.94-.8,6.09.57,8.87l5.27,10.71c1.37,2.78,3.74,4.87,6.67,5.87,2.94,1,6.09.8,8.87-.57,2.9-1.42,6.4-.23,7.82,2.67,1.29,2.63.42,5.76-1.92,7.38Z"/>
              <g class="cls-8">
                <path class="cls-2" d="m452.12,271.35c-.24.16-.48.31-.75.44-5.59,2.75-11.91,3.15-17.8,1.14-5.89-2.01-10.65-6.19-13.39-11.78l-5.27-10.71c-2.75-5.59-3.15-11.91-1.14-17.8,2.01-5.89,6.19-10.64,11.78-13.39,2.9-1.42,6.4-.23,7.82,2.67,1.43,2.9.24,6.41-2.67,7.82-2.78,1.37-4.87,3.74-5.87,6.67-1,2.94-.8,6.09.57,8.87l5.27,10.71c1.37,2.78,3.74,4.87,6.67,5.87,2.94,1,6.09.8,8.87-.57,2.9-1.42,6.4-.23,7.82,2.67,1.29,2.63.42,5.76-1.92,7.38Z"/>
              </g>
              <g>
                <path class="cls-20" d="m406.38,393.68c-1.9,1.31-4.49,1.42-6.54.07-5.2-3.42-8.75-8.67-10-14.76-1.25-6.1-.06-12.32,3.37-17.51l6.57-9.97c3.42-5.2,8.67-8.75,14.77-10,6.1-1.25,12.32-.06,17.51,3.37,2.7,1.78,3.44,5.4,1.67,8.1-1.77,2.7-5.4,3.44-8.1,1.66-2.59-1.71-5.69-2.3-8.73-1.68-3.04.62-5.65,2.39-7.36,4.99l-6.57,9.97c-1.71,2.59-2.3,5.69-1.68,8.73.62,3.04,2.39,5.65,4.98,7.36,2.7,1.78,3.44,5.4,1.67,8.1-.43.65-.96,1.18-1.56,1.59Z"/>
                <path class="cls-20" d="m436.85,334.14c-1.25.87-2.84,1.24-4.46.92-6.1-1.21-11.38-4.72-14.84-9.89s-4.7-11.38-3.49-17.49l2.32-11.71c2.5-12.6,14.78-20.83,27.38-18.33,3.17.63,5.22,3.7,4.6,6.87-.63,3.17-3.7,5.23-6.87,4.6-6.28-1.25-12.4,2.86-13.65,9.14l-2.32,11.71c-.6,3.04.02,6.14,1.74,8.72,1.73,2.58,4.35,4.33,7.4,4.93,3.17.63,5.22,3.7,4.6,6.87-.31,1.55-1.2,2.84-2.41,3.67Z"/>
              </g>
              <g class="cls-8">
                <path class="cls-2" d="m406.38,393.68c-1.9,1.31-4.49,1.42-6.54.07-5.2-3.42-8.75-8.67-10-14.76-1.25-6.1-.06-12.32,3.37-17.51l6.57-9.97c3.42-5.2,8.67-8.75,14.77-10,6.1-1.25,12.32-.06,17.51,3.37,2.7,1.78,3.44,5.4,1.67,8.1-1.77,2.7-5.4,3.44-8.1,1.66-2.59-1.71-5.69-2.3-8.73-1.68-3.04.62-5.65,2.39-7.36,4.99l-6.57,9.97c-1.71,2.59-2.3,5.69-1.68,8.73.62,3.04,2.39,5.65,4.98,7.36,2.7,1.78,3.44,5.4,1.67,8.1-.43.65-.96,1.18-1.56,1.59Z"/>
                <path class="cls-2" d="m436.85,334.14c-1.25.87-2.84,1.24-4.46.92-6.1-1.21-11.38-4.72-14.84-9.89s-4.7-11.38-3.49-17.49l2.32-11.71c2.5-12.6,14.78-20.83,27.38-18.33,3.17.63,5.22,3.7,4.6,6.87-.63,3.17-3.7,5.23-6.87,4.6-6.28-1.25-12.4,2.86-13.65,9.14l-2.32,11.71c-.6,3.04.02,6.14,1.74,8.72,1.73,2.58,4.35,4.33,7.4,4.93,3.17.63,5.22,3.7,4.6,6.87-.31,1.55-1.2,2.84-2.41,3.67Z"/>
              </g>
              <g>
                <path class="cls-20" d="m432.27,365.06c-3.94,2.72-9.14,3.45-13.88,1.49-2.98-1.23-4.4-4.65-3.16-7.64,1.23-2.99,4.65-4.4,7.64-3.16.96.4,1.8.17,2.21,0,.41-.18,1.16-.6,1.56-1.56l11.26-27.16c.61-1.47-.09-3.16-1.56-3.77-2.98-1.24-4.4-4.65-3.16-7.64,1.23-2.99,4.65-4.4,7.64-3.16,7.42,3.08,10.96,11.62,7.88,19.04l-11.26,27.16c-1.11,2.68-2.94,4.86-5.17,6.4Z"/>
                <path class="cls-20" d="m450.82,298.8c-2.76,1.91-6.19,2.88-9.79,2.5-3.21-.34-5.54-3.21-5.2-6.42.33-3.21,3.21-5.54,6.42-5.2,1.58.17,3-.99,3.17-2.57l3.07-29.24c.17-1.58-.99-3-2.57-3.17-3.21-.34-5.54-3.21-5.2-6.42.34-3.21,3.22-5.54,6.42-5.2,7.99.84,13.81,8.02,12.97,16.01l-3.07,29.24c-.46,4.4-2.84,8.14-6.23,10.47Z"/>
                <path class="cls-20" d="m388.75,412.71c-2.87,1.99-6.33,2.86-9.83,2.48-3.87-.42-7.35-2.32-9.78-5.36-2.02-2.51-1.62-6.19.89-8.22,2.5-2.03,6.19-1.62,8.22.89.65.81,1.49,1.01,1.94,1.06.44.05,1.3.04,2.12-.62l22.9-18.42c.81-.65,1.01-1.49,1.06-1.94.05-.44.03-1.31-.62-2.12-2.02-2.51-1.63-6.19.89-8.22,2.51-2.04,6.19-1.62,8.22.89,2.44,3.03,3.55,6.84,3.13,10.71-.42,3.87-2.32,7.35-5.36,9.78l-22.9,18.42c-.28.23-.57.45-.87.65Z"/>
              </g>
              <g class="cls-6">
                <path class="cls-2" d="m432.27,365.06c-3.94,2.72-9.14,3.45-13.88,1.49-2.98-1.23-4.4-4.65-3.16-7.64,1.23-2.99,4.65-4.4,7.64-3.16.96.4,1.8.17,2.21,0,.41-.18,1.16-.6,1.56-1.56l11.26-27.16c.61-1.47-.09-3.16-1.56-3.77-2.98-1.24-4.4-4.65-3.16-7.64,1.23-2.99,4.65-4.4,7.64-3.16,7.42,3.08,10.96,11.62,7.88,19.04l-11.26,27.16c-1.11,2.68-2.94,4.86-5.17,6.4Z"/>
                <path class="cls-2" d="m450.82,298.8c-2.76,1.91-6.19,2.88-9.79,2.5-3.21-.34-5.54-3.21-5.2-6.42.33-3.21,3.21-5.54,6.42-5.2,1.58.17,3-.99,3.17-2.57l3.07-29.24c.17-1.58-.99-3-2.57-3.17-3.21-.34-5.54-3.21-5.2-6.42.34-3.21,3.22-5.54,6.42-5.2,7.99.84,13.81,8.02,12.97,16.01l-3.07,29.24c-.46,4.4-2.84,8.14-6.23,10.47Z"/>
                <path class="cls-2" d="m388.75,412.71c-2.87,1.99-6.33,2.86-9.83,2.48-3.87-.42-7.35-2.32-9.78-5.36-2.02-2.51-1.62-6.19.89-8.22,2.5-2.03,6.19-1.62,8.22.89.65.81,1.49,1.01,1.94,1.06.44.05,1.3.04,2.12-.62l22.9-18.42c.81-.65,1.01-1.49,1.06-1.94.05-.44.03-1.31-.62-2.12-2.02-2.51-1.63-6.19.89-8.22,2.51-2.04,6.19-1.62,8.22.89,2.44,3.03,3.55,6.84,3.13,10.71-.42,3.87-2.32,7.35-5.36,9.78l-22.9,18.42c-.28.23-.57.45-.87.65Z"/>
              </g>
            </g>
          </g>
          <g>
            <g>
              <path class="cls-20" d="m445.58,452.85l-7.46-12.54,38.5-22.9c14.71-8.75,19.57-27.85,10.81-42.56-8.75-14.71-27.85-19.56-42.56-10.81l-38.5,22.9-7.46-12.54,38.5-22.9c21.63-12.87,49.7-5.74,62.57,15.89,12.87,21.63,5.74,49.7-15.89,62.57l-38.5,22.9Z"/>
              <g class="cls-15">
                <path class="cls-2" d="m445.58,452.85l-7.46-12.54,38.5-22.9c14.71-8.75,19.57-27.85,10.81-42.56-8.75-14.71-27.85-19.56-42.56-10.81l-38.5,22.9-7.46-12.54,38.5-22.9c21.63-12.87,49.7-5.74,62.57,15.89,12.87,21.63,5.74,49.7-15.89,62.57l-38.5,22.9Z"/>
              </g>
            </g>
            <path class="cls-20" d="m523.33,404.43l17.95,71.05c1.15,4.56-1.6,9.17-6.15,10.32l-104.49,26.4c-4.53,1.14-9.14-1.61-10.29-6.16l-17.95-71.05c-1.15-4.56,1.6-9.17,6.13-10.31l104.49-26.4c4.56-1.15,9.17,1.6,10.32,6.15Z"/>
            <path class="cls-3" d="m523.33,404.43l17.95,71.05c1.15,4.56-1.6,9.17-6.15,10.32l-76.16,19.24c-4.53,1.14-9.16-1.6-10.32-6.15l-17.95-71.05c-1.15-4.56,1.63-9.17,6.15-10.32l76.16-19.24c4.56-1.15,9.17,1.6,10.32,6.15Z"/>
            <path class="cls-20" d="m496.95,439.41c-2.21-8.76-9.92-14.36-17.22-12.52-7.3,1.84-11.42,10.44-9.21,19.2,1.72,6.81,6.77,11.66,12.36,12.64l4.08,19.05,10.57-2.67-6.26-18.15c4.99-3.32,7.5-10.35,5.68-17.55Z"/>
          </g>
          <g>
            <g>
              <circle class="cls-11" cx="301.96" cy="515.61" r="42.69" transform="translate(-46.08 29.91) rotate(-5.27)"/>
              <circle class="cls-4" cx="298.86" cy="510.12" r="42.69"/>
            </g>
            <g>
              <path class="cls-5" d="m250.4,518c1.31-.17,1.65-.98,1.53-1.93-.08-.64-.29-1.14-.74-1.61l1.08-.14c.33.45.55,1,.63,1.68.24,1.86-.62,2.92-2.35,3.14l-.53.07c-1.73.23-2.84-.57-3.09-2.43-.09-.67-.02-1.26.18-1.78l1.08-.14c-.31.57-.38,1.1-.3,1.74.12.94.65,1.64,1.97,1.47l.53-.07Z"/>
              <path class="cls-5" d="m244.36,512.33l6.87-.29c.31-.01.42-.14.41-.42,0-.21-.04-.44-.11-.66l.96-.04c.05.25.1.59.12.91.04.86-.33,1.33-1.29,1.37l-6.9.29-.05-1.16Z"/>
              <path class="cls-5" d="m245.06,509.98h-.18c-.38-.01-.54-.26-.53-.68,0-.41.18-.66.56-.65h.18c.39.01.54.27.53.68,0,.42-.17.66-.56.65Zm1.64-.05l.03-1.16,5.75.13-.03,1.16-5.76-.13Z"/>
              <path class="cls-5" d="m255.39,502.91l-.13,1.15-2.63-.3c.21.41.32.94.25,1.54-.2,1.69-1.24,2.3-3.01,2.09l-.54-.06c-1.77-.2-2.63-1.05-2.41-2.98.11-.94.45-1.66.99-2.3l7.48.87Zm-5.38,3.33c1.12.13,1.79-.15,1.91-1.23.06-.53-.05-1-.28-1.36l-3.31-.38c-.24.34-.39.74-.44,1.17-.14,1.18.45,1.62,1.57,1.75l.55.06Z"/>
              <path class="cls-5" d="m248.54,496.68l.28-1.12,5.02,1.24c.25.77.31,1.74.1,2.61-.42,1.7-1.35,2.15-2.92,1.76l-3.38-.84.28-1.12,3.28.81c1.05.26,1.58,0,1.83-.99.1-.41.11-.82,0-1.25l-4.48-1.11Z"/>
              <path class="cls-5" d="m252.92,494.18c1.07.32,1.68-.2,2.04-1.13.21-.55.28-1.13.15-1.84l.99.38c.06.63-.04,1.24-.26,1.81-.71,1.84-1.99,2.37-3.61,1.75l-.52-.2c-1.62-.62-2.2-1.88-1.57-3.51.61-1.59,1.77-1.88,2.75-1.5,1.03.4,1.22,1.13.84,2.1l-.83,2.13Zm-.86-.33l.73-1.89c.18-.46.14-.76-.31-.93-.57-.22-1.14,0-1.44.77-.33.86-.06,1.62,1.02,2.05Z"/>
              <path class="cls-5" d="m256.48,487.41c-1.03-.63-1.22-1.5-.43-2.79.33-.54.78-.99,1.19-1.26l-.27-.15c-.83-.47-1.36-.38-1.94.58-.33.54-.5,1.2-.47,1.83l-.92-.56c.04-.6.22-1.23.66-1.94.89-1.46,1.96-1.71,3.24-.92l2.6,1.59c.02.87-.26,1.77-.76,2.57-.96,1.56-1.85,1.71-2.89,1.07Zm2.57-2.94l-1.11-.68c-.39.25-.72.64-.97,1.05-.52.84-.44,1.27.1,1.6.54.33,1.02.19,1.51-.61.27-.44.44-.93.47-1.36Z"/>
              <path class="cls-5" d="m266.12,480.87l-.72.9-2.07-1.65c-.04.46-.23.97-.61,1.44-1.06,1.33-2.27,1.29-3.66.18l-.43-.34c-1.39-1.11-1.67-2.29-.46-3.8.59-.74,1.26-1.17,2.06-1.42l5.87,4.7Zm-6.32-.03c.88.7,1.59.82,2.27-.03.33-.42.49-.88.49-1.3l-2.6-2.08c-.39.16-.72.42-.99.76-.74.93-.48,1.61.4,2.31l.43.35Z"/>
              <path class="cls-5" d="m263.63,471.94l.83-.8,3.59,3.72c-.2.79-.66,1.64-1.31,2.26-1.26,1.22-2.28,1.11-3.41-.06l-2.42-2.5.83-.8,2.35,2.43c.75.78,1.35.83,2.07.13.3-.29.53-.64.66-1.06l-3.2-3.32Z"/>
              <path class="cls-5" d="m264.86,468.73l-.11-.14c-.24-.3-.15-.58.18-.84.32-.26.63-.28.86.01l.11.14c.24.3.14.59-.18.84-.33.26-.62.29-.86-.01Zm1.09,1.22l.91-.72,3.59,4.51-.9.72-3.59-4.51Z"/>
              <path class="cls-5" d="m271.16,466.86c.38-.75.91-1.35,1.73-1.82,1.69-.97,2.8-.5,3.68,1.04l.27.47c.88,1.54.73,2.74-.74,3.59-.52.3-1.06.41-1.51.38l1.31,2.3-1,.57-3.73-6.53Zm4.4-.2c-.56-.97-1.18-1.35-2.22-.75-.38.21-.68.51-.9.86l1.65,2.9c.42.07.91-.02,1.36-.28.95-.54.94-1.27.38-2.24l-.28-.48Z"/>
              <path class="cls-5" d="m278.01,466.95c-.48-1.11-.13-1.93,1.26-2.53.58-.25,1.21-.36,1.7-.35l-.13-.28c-.41-.86-.89-1.09-1.92-.65-.58.25-1.1.69-1.43,1.22l-.43-.99c.38-.47.89-.88,1.66-1.21,1.57-.68,2.58-.27,3.18,1.11l1.2,2.8c-.49.72-1.23,1.29-2.1,1.67-1.68.73-2.5.33-2.98-.8Zm3.8-.92l-.51-1.19c-.46-.02-.96.11-1.4.3-.91.39-1.09.78-.84,1.37.25.58.72.74,1.59.37.47-.2.89-.51,1.16-.84Z"/>
              <path class="cls-5" d="m287.17,460.95c-.68-.18-1.3-.2-1.95-.01-.39.11-.78.33-1.08.63l1.29,4.43-1.11.32-1.44-4.96c.55-.6,1.33-1.14,2.2-1.39.65-.19,1.23-.21,1.79-.07l.31,1.06Z"/>
              <path class="cls-5" d="m288.2,463.34c-.21-1.19.32-1.91,1.81-2.17.62-.11,1.26-.07,1.74.06l-.06-.31c-.2-.94-.62-1.27-1.72-1.08-.62.11-1.24.42-1.68.86l-.19-1.06c.48-.37,1.07-.65,1.89-.79,1.69-.29,2.58.34,2.83,1.82l.52,3c-.64.59-1.5.97-2.43,1.13-1.81.32-2.51-.26-2.72-1.47Zm3.91-.02l-.22-1.28c-.44-.13-.96-.11-1.43-.03-.98.17-1.24.51-1.13,1.13s.53.89,1.46.73c.5-.09.99-.29,1.33-.55Z"/>
              <path class="cls-5" d="m300.27,463.98l-1.82-.02-1.79-5.77h1.21s1.4,4.8,1.4,4.8h.18s1.5-4.77,1.5-4.77h1.2s-1.88,5.75-1.88,5.75Z"/>
              <path class="cls-5" d="m303.72,461.86c-.05,1.11.59,1.59,1.58,1.71.58.07,1.16,0,1.82-.29l-.13,1.06c-.6.2-1.21.26-1.81.18-1.96-.25-2.78-1.36-2.56-3.08l.07-.55c.22-1.72,1.29-2.59,3.03-2.37,1.69.22,2.25,1.27,2.11,2.31-.14,1.09-.8,1.46-1.84,1.32l-2.27-.29Zm.12-.92l2.01.26c.48.06.77-.05.83-.52.08-.61-.27-1.11-1.09-1.21-.91-.12-1.59.33-1.75,1.48Z"/>
              <path class="cls-5" d="m313.4,461.66c-.5-.5-1.02-.82-1.68-.98-.4-.1-.84-.11-1.25,0l-1.1,4.48-1.12-.28,1.23-5.01c.78-.24,1.73-.32,2.6-.1.66.16,1.16.44,1.58.83l-.26,1.07Z"/>
              <path class="cls-5" d="m316.49,463.95c.7-1.59,1.95-2.14,3.58-1.42,1.63.72,2.06,2.01,1.37,3.6l-.21.49c-.7,1.59-1.95,2.14-3.58,1.42-1.63-.72-2.06-2.01-1.37-3.6l.21-.49Zm3.89,1.7c.49-1.12.14-1.86-.72-2.23-.84-.37-1.62-.12-2.11.99l-.22.51c-.49,1.12-.14,1.86.72,2.23.84.37,1.62.12,2.11-.99l.22-.51Z"/>
              <path class="cls-5" d="m327.62,473.01c-.84-.01-1.61-.23-2.39-.76-1.6-1.09-1.67-2.3-.67-3.77l.31-.45c1-1.47,2.15-1.86,3.55-.9.5.34.83.77,1,1.2l1.49-2.18.95.65-4.25,6.21Zm-2.1-3.88c-.63.93-.69,1.66.29,2.33.36.24.75.39,1.17.44l1.88-2.75c-.12-.41-.41-.8-.85-1.1-.9-.61-1.55-.29-2.18.63l-.31.46Z"/>
              <path class="cls-5" d="m330.09,471.68c1.16-1.29,2.52-1.43,3.84-.25,1.33,1.19,1.34,2.55.19,3.85l-.36.4c-1.15,1.29-2.52,1.43-3.84.25-1.33-1.19-1.34-2.55-.19-3.85l.36-.4Zm3.17,2.82c.81-.91.71-1.72,0-2.35-.69-.62-1.51-.62-2.31.29l-.37.41c-.81.91-.71,1.73,0,2.35.69.61,1.51.62,2.31-.29l.37-.41Z"/>
              <path class="cls-5" d="m335.2,477.27c-.99.87-.83,1.73-.2,2.45.42.48.88.78,1.51.93l-.82.72c-.52-.19-1.01-.53-1.46-1.04-1.24-1.41-1.1-2.77.21-3.92l.4-.35c1.31-1.15,2.68-1.11,3.92.3.45.51.72,1.04.84,1.58l-.82.72c-.06-.64-.3-1.13-.72-1.61-.62-.71-1.45-1-2.46-.12l-.4.35Z"/>
              <path class="cls-5" d="m342.91,482.13l.65.96-4.27,2.91c-.75-.33-1.5-.93-2.01-1.67-.99-1.45-.7-2.44.64-3.35l2.88-1.96.65.96-2.79,1.9c-.89.61-1.05,1.19-.48,2.02.24.35.54.63.93.83l3.81-2.6Z"/>
              <path class="cls-5" d="m339.92,488.22l-.49-1.05,4.68-2.18c.61.36,1.26.99,1.61,1.75.3.65.38,1.21.25,1.69.53.34.91.8,1.21,1.43.68,1.46.26,2.42-1.21,3.1l-3.15,1.47-.49-1.05,3.06-1.43c.98-.46,1.22-1,.84-1.81-.17-.37-.42-.66-.78-.9-.25.23-.56.43-.94.61l-3.15,1.47-.49-1.05,3.06-1.43c.98-.46,1.22-1,.84-1.82-.15-.31-.4-.6-.67-.76l-4.19,1.95Z"/>
              <path class="cls-5" d="m345.56,495.75c-1.04.39-1.23,1.17-.95,2.13.16.57.46,1.07.99,1.55l-1.03.29c-.42-.47-.72-1.01-.88-1.6-.54-1.9.15-3.1,1.82-3.57l.53-.15c1.67-.48,2.89.17,3.37,1.85.47,1.63-.28,2.57-1.29,2.85-1.06.3-1.65-.16-1.94-1.17l-.63-2.2Zm.89-.25l.56,1.94c.13.47.35.69.81.55.59-.17.91-.69.69-1.48-.25-.89-.93-1.33-2.05-1.02Z"/>
              <path class="cls-5" d="m344.77,502.17l-.17-1.14,5.1-.78c.53.61.96,1.48,1.09,2.37.27,1.73-.41,2.52-2.01,2.77l-3.44.53-.18-1.14,3.34-.51c1.07-.16,1.45-.64,1.3-1.64-.06-.42-.21-.8-.48-1.15l-4.56.7Z"/>
              <path class="cls-5" d="m351.17,507.16l1.71-.08.05,1.15-1.71.08.08,1.69-.98.05-.08-1.69-3.11.14c-.58.03-.81.22-.79.75.02.36.09.66.22.97l-.94.04c-.15-.31-.25-.77-.27-1.2-.06-1.19.59-1.66,1.69-1.72l3.14-.15-.05-1.02.98-.05.05,1.02Z"/>
              <path class="cls-5" d="m348.72,510.94c1.73.11,2.68,1.1,2.56,2.87s-1.18,2.63-2.91,2.52l-.53-.03c-1.73-.11-2.68-1.1-2.56-2.87s1.18-2.63,2.91-2.52l.53.03Zm-.26,4.23c1.22.08,1.79-.51,1.85-1.44.06-.92-.44-1.56-1.65-1.64l-.55-.04c-1.22-.08-1.79.51-1.85,1.44-.06.92.44,1.56,1.65,1.64l.55.04Z"/>
            </g>
            <circle class="cls-2" cx="298.43" cy="509.8" r="37.22"/>
            <g>
              <path class="cls-1" d="m319.23,505.87c-.46-1.66-2.08-2.79-3.79-2.52-2.02.32-3.26,2.32-2.72,4.23l-.7-2.52c-.46-1.66-2.08-2.79-3.78-2.52-2.01.32-3.26,2.32-2.73,4.22l-.53-1.9c-.48-1.73-2.21-2.86-3.96-2.49-1.86.39-3.01,2.25-2.58,4.06l-2.64-9.43c-.46-1.66-2.08-2.79-3.79-2.52-2.02.32-3.26,2.32-2.72,4.23l6.63,23.69-9.17-6.03c-1.44-.95-3.4-.74-4.51.59-1.31,1.56-.93,3.89.72,4.98l7.97,5.25,9.03,5.94.81,2.88.68,2.44c.09.31.28.56.52.73.07.05.14.09.22.13.08.03.16.06.24.08.13.03.26.04.39.03.09,0,.18-.02.27-.05l18.38-5.14c.35-.1.63-.33.8-.63.03-.06.06-.12.08-.18l.03-.1c.02-.06.03-.12.04-.18v-.14c.02-.14,0-.28-.03-.42l-.74-2.64s.34-.52.68-1.63l.03-.1c.04-.14.08-.28.12-.43.02-.08.04-.16.06-.24l.02-.08c.03-.12.06-.25.08-.38v-.02c.1-.45.18-.96.24-1.53.1-.96.12-1.92.06-2.88,0-.1-.01-.19-.02-.29-.08-.98-.23-1.95-.45-2.9l-.72-3.03-2.12-8.95-.39-1.64Z"/>
              <path class="cls-5" d="m316.4,504.05c-.46-1.66-2.08-2.79-3.79-2.52-2.02.32-3.26,2.32-2.72,4.23l-.7-2.52c-.46-1.66-2.08-2.79-3.78-2.52-2.01.32-3.26,2.32-2.73,4.22l-.53-1.9c-.48-1.73-2.21-2.86-3.96-2.49-1.86.39-3.01,2.25-2.58,4.06l-2.64-9.43c-.46-1.66-2.08-2.79-3.79-2.52-2.02.32-3.26,2.32-2.72,4.23l6.63,23.69-9.17-6.03c-1.44-.95-3.4-.74-4.51.59-1.31,1.56-.93,3.89.72,4.98l7.97,5.25,9.03,5.94.81,2.88.68,2.44c.09.31.28.56.52.73.07.05.14.09.22.12.08.03.16.06.24.08.13.03.26.04.39.03.09,0,.18-.02.27-.05l18.38-5.14c.35-.1.63-.33.8-.63.03-.06.06-.12.08-.18l.03-.1c.02-.06.03-.12.04-.18v-.14c.02-.14,0-.28-.03-.42l-.74-2.64s.34-.52.68-1.63l.03-.1c.04-.14.08-.28.12-.43.02-.08.04-.16.06-.24l.02-.08c.03-.12.06-.25.08-.38v-.02c.1-.45.18-.96.24-1.53.1-.96.12-1.92.06-2.88,0-.1-.01-.19-.02-.29-.08-.98-.23-1.95-.45-2.9l-.72-3.03-2.12-8.95-.39-1.64Z"/>
              <path class="cls-4" d="m287.04,487.02c.37-.1.59-.49.48-.86l-1.13-4.04c-.1-.37-.49-.59-.86-.48s-.59.49-.48.86l1.13,4.04c.1.37.49.59.86.48Z"/>
              <path class="cls-4" d="m296.57,492.38c.1.37.49.59.86.48l4.04-1.13c.37-.1.59-.49.48-.86s-.49-.59-.86-.48l-4.04,1.13c-.37.1-.59.49-.48.86Z"/>
              <path class="cls-4" d="m277.15,498.54l4.04-1.13c.37-.1.59-.49.48-.86s-.49-.59-.86-.48l-4.04,1.13c-.37.1-.59.49-.48.86s.49.59.86.48Z"/>
              <path class="cls-4" d="m292.92,487.73c.17.09.36.11.53.06s.32-.16.42-.33l2.06-3.66c.19-.33.07-.76-.26-.95-.33-.19-.76-.07-.95.26l-2.06,3.66c-.19.33-.07.76.26.95Z"/>
              <path class="cls-4" d="m283.11,506.15c.17-.05.32-.16.42-.33l2.06-3.66c.19-.33.07-.76-.26-.95-.33-.19-.76-.07-.95.26l-2.06,3.66c-.19.33-.07.76.26.95.17.09.36.11.53.06Z"/>
              <path class="cls-4" d="m281.43,490.94c.17.09.36.11.53.06s.32-.16.42-.33c.19-.33.07-.76-.26-.95l-3.66-2.06c-.33-.19-.76-.07-.95.27-.19.33-.07.76.26.95l3.66,2.06Z"/>
              <path class="cls-4" d="m290.13,486.8c.1.01.19,0,.28-.02.26-.07.47-.29.5-.58l.55-4.16c.05-.38-.22-.73-.6-.78-.38-.05-.73.22-.78.6l-.55,4.16c-.05.38.22.73.6.78Z"/>
              <path class="cls-4" d="m297.57,494.88c-.38-.05-.73.22-.78.6-.05.38.22.73.6.78l4.16.55c.1.01.19,0,.28-.02.26-.07.46-.29.5-.58.05-.38-.22-.73-.6-.78l-4.16-.55Z"/>
              <path class="cls-4" d="m276.51,493.51l4.16.55c.1.01.19,0,.28-.02.26-.07.46-.29.5-.58.05-.38-.22-.73-.6-.78l-4.16-.55c-.38-.05-.73.22-.78.6-.05.38.22.73.6.78Z"/>
              <path class="cls-4" d="m295.26,489.76c.18.23.47.32.74.25.08-.02.16-.06.24-.12l3.33-2.56c.3-.23.36-.67.13-.98-.23-.3-.67-.36-.98-.13l-3.33,2.56c-.3.23-.36.67-.13.98Z"/>
              <path class="cls-4" d="m282.99,499.18c-.23-.3-.67-.36-.97-.13l-3.33,2.56c-.3.23-.36.67-.13.97.18.23.47.32.74.25.08-.02.16-.06.24-.12l3.33-2.56c.3-.23.36-.67.13-.97Z"/>
              <path class="cls-4" d="m283.44,488.21c.18.23.47.32.74.25.08-.02.16-.06.24-.12.3-.23.36-.67.13-.97l-2.56-3.33c-.23-.3-.67-.36-.98-.13-.3.23-.36.67-.13.97l2.56,3.33Z"/>
              <path class="cls-4" d="m311.18,522.09c-3.36,2.71-7.71,4.71-12.28,5.2-3.94.47-7.5-.37-10.81-1.92l9.03,5.94.81,2.88.68,2.44c.09.31.28.56.52.73.07.05.14.09.22.12.08.03.16.06.24.08.13.03.26.04.39.03.09,0,.18-.02.27-.05l18.38-5.14c.35-.1.63-.33.8-.63.03-.06.06-.12.08-.18l.03-.1c.02-.06.03-.12.04-.18.03-.18.02-.37-.03-.55l-.74-2.64s.34-.52.68-1.63l.03-.1c.04-.14.08-.28.12-.43.02-.08.04-.16.06-.24l.02-.08c.03-.12.06-.25.08-.38v-.02c.1-.45.18-.96.24-1.53.1-.96.12-1.92.06-2.88,0-.1-.01-.19-.02-.29-.08-.98-.23-1.95-.45-2.9l-.72-3.03-2.12-8.95c-.03,6.11-.77,12.46-5.61,16.4Z"/>
            </g>
          </g>
        </g>
      </g>
    </g>
  </g>
</svg>