<?xml version="1.0" encoding="UTF-8"?>
<svg xmlns="http://www.w3.org/2000/svg" viewBox="0 0 226.01 225.96">
  <defs>
    <style>
      .cls-1 {
        fill: #8ab9d3;
        opacity: .25;
      }

      .cls-2 {
        fill: #fff;
      }

      .cls-3 {
        fill: #004991;
      }

      .cls-4 {
        fill: #045aa0;
      }

      .cls-5 {
        isolation: isolate;
      }

      .cls-6 {
        fill: #3a7ec1;
        mix-blend-mode: multiply;
        opacity: .2;
      }

      .cls-7 {
        fill: #d5eff7;
      }
    </style>
  </defs>
  <g class="cls-5">
    <g id="Layer_2" data-name="Layer 2">
      <g id="Camada_1" data-name="Camada 1">
        <g>
          <circle class="cls-6" cx="112" cy="139.35" r="67.08" transform="translate(-37.52 237.35) rotate(-84.45)"/>
          <circle class="cls-3" cx="108.83" cy="129.96" r="67.08"/>
          <g>
            <path class="cls-4" d="m30.84,123.14c2.68.33,3.77-1.09,4.01-3.02.16-1.31,0-2.4-.63-3.56l2.21.27c.42,1.06.56,2.27.39,3.64-.47,3.81-2.74,5.45-6.27,5.01l-1.08-.13c-3.54-.44-5.33-2.59-4.85-6.39.17-1.37.61-2.51,1.27-3.43l2.21.27c-.9.96-1.32,1.99-1.49,3.29-.24,1.92.45,3.58,3.15,3.92l1.08.13Z"/>
            <path class="cls-4" d="m22.04,108.53l13.63,3.33c.62.15.9-.04,1.03-.59.1-.42.17-.89.17-1.36l1.9.46c-.04.53-.13,1.21-.29,1.85-.41,1.7-1.41,2.41-3.3,1.95l-13.69-3.34.56-2.29Z"/>
            <path class="cls-4" d="m24.81,104.15l-.34-.11c-.73-.24-.9-.82-.63-1.64.26-.8.75-1.18,1.48-.94l.34.11c.75.25.89.85.63,1.64-.27.82-.73,1.19-1.49.94Zm3.22.88l.74-2.24,11.16,3.71-.74,2.24-11.16-3.71Z"/>
            <path class="cls-4" d="m49.4,96.83l-1.01,2.14-4.89-2.31c.14.92,0,2.03-.53,3.14-1.48,3.14-3.9,3.63-7.18,2.08l-1.01-.47c-3.29-1.55-4.4-3.76-2.72-7.33.82-1.75,1.95-2.92,3.43-3.81l13.9,6.56Zm-12.58,2.93c2.07.98,3.55.87,4.5-1.14.46-.99.55-1.97.35-2.82l-6.16-2.91c-.69.5-1.23,1.18-1.61,1.98-1.04,2.2-.19,3.43,1.89,4.4l1.03.48Z"/>
            <path class="cls-4" d="m40.62,80.26l1.34-1.94,8.69,5.99c-.07,1.66-.65,3.55-1.7,5.06-2.04,2.95-4.12,3.14-6.85,1.26l-5.85-4.03,1.34-1.94,5.68,3.92c1.81,1.25,3.03,1.12,4.2-.58.49-.71.8-1.49.9-2.38l-7.76-5.35Z"/>
            <path class="cls-4" d="m50.91,78.69c1.76,1.44,3.32.96,4.74-.51.83-.87,1.42-1.91,1.73-3.34l1.57,1.51c-.39,1.23-1.05,2.3-1.91,3.2-2.8,2.91-5.63,2.9-8.18.45l-.82-.79c-2.55-2.45-2.67-5.28-.19-7.86,2.41-2.5,4.82-2.13,6.36-.65,1.62,1.56,1.41,3.09-.07,4.62l-3.24,3.37Zm-1.36-1.31l2.86-2.98c.69-.72.86-1.32.15-1.99-.9-.86-2.15-.9-3.32.31-1.31,1.36-1.39,3.01.3,4.66Z"/>
            <path class="cls-4" d="m63.05,68.91c-1.34-2.08-.91-3.84,1.69-5.51,1.09-.7,2.32-1.14,3.31-1.27l-.36-.52c-1.11-1.6-2.17-1.9-4.1-.66-1.09.7-1.99,1.77-2.48,2.95l-1.19-1.85c.61-1.07,1.5-2.07,2.93-2.99,2.94-1.89,5.12-1.4,6.78,1.17l3.37,5.23c-.74,1.61-2.05,3.02-3.67,4.07-3.15,2.03-4.92,1.5-6.28-.6Zm7.35-3.14l-1.44-2.23c-.93.11-1.89.54-2.71,1.07-1.7,1.09-1.93,1.95-1.23,3.03.7,1.09,1.7,1.25,3.32.21.88-.57,1.63-1.32,2.06-2.08Z"/>
            <path class="cls-4" d="m86.47,65.93l-2.16.94-2.15-4.95c-.5.79-1.34,1.52-2.47,2.01-3.18,1.38-5.32.16-6.77-3.17l-.44-1.02c-1.45-3.33-.83-5.73,2.79-7.3,1.77-.77,3.39-.91,5.08-.6l6.12,14.09Zm-11.38-6.09c.91,2.1,2.09,3,4.13,2.11,1-.43,1.72-1.12,2.12-1.89l-2.71-6.24c-.85-.08-1.7.07-2.51.42-2.23.97-2.4,2.45-1.49,4.56l.45,1.04Z"/>
            <path class="cls-4" d="m90.84,47.69l2.29-.57,2.56,10.24c-1.15,1.2-2.83,2.23-4.62,2.68-3.48.87-5.17-.37-5.97-3.58l-1.73-6.89,2.29-.57,1.68,6.69c.53,2.14,1.53,2.84,3.53,2.34.84-.21,1.58-.58,2.25-1.2l-2.29-9.14Z"/>
            <path class="cls-4" d="m96.59,43.3l-.05-.36c-.1-.77.36-1.17,1.21-1.27.83-.1,1.39.17,1.49.93l.05.36c.1.79-.38,1.17-1.21,1.27-.86.11-1.39-.15-1.49-.93Zm.6,3.29l2.34-.3,1.47,11.67-2.34.3-1.47-11.67Z"/>
            <path class="cls-4" d="m109.79,46.82c1.49-.85,3.07-1.27,4.99-1.14,3.96.27,5.33,2.32,5.08,5.95l-.08,1.11c-.25,3.62-1.86,5.49-5.32,5.26-1.22-.08-2.26-.5-3-1.07l-.37,5.39-2.36-.16,1.05-15.34Zm7.71,4.65c.16-2.29-.48-3.63-2.93-3.8-.88-.06-1.74.09-2.51.44l-.47,6.8c.64.59,1.57,1,2.64,1.07,2.22.15,3.03-1.09,3.19-3.38l.08-1.13Z"/>
            <path class="cls-4" d="m121.43,54.72c.57-2.41,2.14-3.32,5.14-2.61,1.26.3,2.43.88,3.21,1.5l.12-.62c.38-1.92-.14-2.88-2.37-3.4-1.26-.3-2.66-.21-3.84.26l.51-2.14c1.19-.3,2.53-.36,4.19.03,3.4.8,4.56,2.71,3.86,5.69l-1.43,6.05c-1.68.58-3.6.62-5.48.18-3.65-.86-4.49-2.51-3.92-4.94Zm7.36,3.11l.61-2.58c-.72-.59-1.7-.98-2.65-1.21-1.97-.46-2.74-.04-3.04,1.22-.3,1.26.28,2.09,2.15,2.54,1.02.24,2.08.26,2.93.04Z"/>
            <path class="cls-4" d="m143.72,56.21c-.86-1.15-1.84-1.95-3.12-2.46-.78-.31-1.68-.45-2.53-.35l-3.48,8.75-2.19-.87,3.9-9.81c1.65-.27,3.58-.16,5.29.52,1.29.51,2.23,1.21,2.96,2.13l-.83,2.09Z"/>
            <path class="cls-4" d="m142.37,61.35c1.23-2.15,2.99-2.58,5.67-1.05,1.12.64,2.08,1.53,2.66,2.35l.29-.56c.91-1.73.68-2.8-1.31-3.93-1.12-.64-2.49-.95-3.76-.84l1.09-1.91c1.23.05,2.53.37,4.01,1.22,3.04,1.73,3.61,3.89,2.09,6.55l-3.08,5.4c-1.77.09-3.63-.42-5.3-1.38-3.25-1.85-3.6-3.67-2.36-5.84Zm6.18,5.06l1.32-2.31c-.53-.77-1.36-1.43-2.2-1.91-1.75-1-2.62-.81-3.26.31-.64,1.12-.33,2.09,1.35,3.04.91.52,1.93.84,2.8.86Z"/>
            <path class="cls-4" d="m157.47,70.96c1.69-1.81,3.5-1.82,5.76.28.95.88,1.67,1.97,2.05,2.9l.42-.48c1.28-1.47,1.31-2.57-.37-4.13-.95-.88-2.2-1.5-3.46-1.68l1.5-1.61c1.18.33,2.38.94,3.62,2.11,2.56,2.38,2.62,4.61.53,6.86l-4.24,4.55c-1.75-.32-3.43-1.24-4.84-2.56-2.74-2.55-2.66-4.4-.96-6.23Zm4.85,6.35l1.81-1.94c-.34-.87-.99-1.7-1.7-2.37-1.48-1.38-2.36-1.4-3.24-.45-.88.95-.8,1.96.61,3.27.76.71,1.68,1.26,2.53,1.49Z"/>
            <path class="cls-4" d="m165.25,83.63l-1.36-1.93,8.61-6.1c1.36.51,2.9,1.54,3.88,2.93.85,1.2,1.21,2.29,1.12,3.3,1.19.5,2.13,1.27,2.95,2.44,1.9,2.69,1.4,4.77-1.3,6.68l-5.8,4.11-1.37-1.93,5.63-3.99c1.8-1.27,2.1-2.46,1.03-3.96-.49-.69-1.09-1.18-1.89-1.53-.42.55-.96,1.07-1.67,1.57l-5.8,4.11-1.37-1.93,5.63-3.99c1.8-1.27,2.1-2.46,1.03-3.96-.41-.57-1.03-1.05-1.64-1.29l-7.71,5.46Z"/>
            <path class="cls-4" d="m183.71,92.74c1.44.93,2.54,2.14,3.31,3.91,1.58,3.64.39,5.8-2.95,7.24l-1.02.44c-3.33,1.45-5.73.88-7.11-2.31-.49-1.12-.6-2.24-.43-3.15l-4.96,2.15-.94-2.17,14.1-6.12Zm-.58,8.99c2.1-.91,3-2.09,2.02-4.34-.35-.81-.87-1.5-1.55-2.03l-6.25,2.71c-.23.84-.16,1.85.26,2.83.89,2.04,2.36,2.19,4.47,1.28l1.04-.45Z"/>
            <path class="cls-4" d="m195.25,106.25l-13.47,3.93c-.61.18-.76.48-.6,1.03.12.41.3.86.53,1.26l-1.87.55c-.23-.48-.49-1.11-.67-1.74-.49-1.68.01-2.79,1.89-3.34l13.53-3.94.66,2.27Z"/>
            <path class="cls-4" d="m191.8,112.27l.48,2.31-11.52,2.38-.48-2.31,11.52-2.37Zm3.23-.85l.36-.07c.76-.16,1.19.26,1.36,1.11.17.82-.06,1.4-.81,1.56l-.36.07c-.78.16-1.2-.29-1.36-1.11-.17-.85.04-1.4.81-1.56Z"/>
            <path class="cls-4" d="m184.93,118.8c2.46-.22,3.82.99,4.09,4.06.11,1.29-.07,2.58-.42,3.52l.63-.08c1.94-.24,2.69-1.03,2.49-3.32-.11-1.29-.64-2.59-1.45-3.56l2.19-.19c.66,1.04,1.13,2.29,1.28,3.99.3,3.48-1.14,5.18-4.19,5.45l-6.19.54c-1.08-1.41-1.72-3.22-1.88-5.14-.33-3.73.97-5.05,3.46-5.27Zm-.65,7.96l2.65-.23c.33-.87.4-1.93.32-2.9-.18-2.01-.82-2.62-2.11-2.5-1.29.11-1.9.92-1.73,2.84.09,1.04.41,2.06.88,2.79Z"/>
            <path class="cls-4" d="m190.51,140.44c.82-1.18,1.28-2.36,1.36-3.74.05-.84-.1-1.73-.46-2.51l-9.4-.56.14-2.36,10.54.63c.78,1.48,1.28,3.35,1.17,5.19-.08,1.38-.44,2.5-1.09,3.48l-2.24-.13Z"/>
          </g>
          <circle class="cls-2" cx="108.27" cy="129.34" r="58.48"/>
          <path class="cls-1" d="m147.43,164.88v-.06c-.01-.14-.03-.28-.04-.42v-.04c-.03-.15-.05-.3-.08-.44v-.07c-.08-.3-.16-.59-.27-.88l-.03-.07c-.06-.14-.11-.29-.18-.43h0c-.31-.67-.74-1.29-1.29-1.84l-26.23-26.23c2.65-4.24,4.19-9.24,4.19-14.6,0-15.21-12.38-27.59-27.59-27.59s-27.59,12.38-27.59,27.59,12.38,27.59,27.59,27.59c5.14,0,9.95-1.41,14.07-3.87l26.33,26.33c.87.87,1.94,1.45,3.06,1.72.2.05.41.09.62.12.2.03.4.05.6.06h.03c1.77.08,3.57-.55,4.92-1.89.11-.11.22-.23.32-.34l.07-.08c.1-.12.19-.23.28-.35l.04-.05c.08-.11.15-.22.22-.34l.05-.08c.08-.13.15-.25.21-.38l.04-.08c.06-.12.12-.24.17-.36l.02-.06c.06-.14.11-.27.15-.41l.03-.09c.04-.14.09-.28.12-.42h0c.04-.15.06-.29.09-.44v-.09c.04-.15.06-.29.07-.44v-.03c.01-.14.02-.28.02-.42v-.07c0-.15,0-.3,0-.44Z"/>
          <path class="cls-3" d="m145.81,160.53v-.06c-.01-.14-.03-.28-.04-.42v-.04c-.03-.15-.05-.3-.08-.44v-.07c-.08-.3-.16-.59-.27-.88l-.03-.07c-.06-.14-.11-.29-.18-.43-.31-.67-.74-1.29-1.29-1.84l-26.23-26.23c2.65-4.24,4.19-9.24,4.19-14.6,0-15.22-12.38-27.59-27.59-27.59s-27.59,12.38-27.59,27.59,12.38,27.59,27.59,27.59c5.14,0,9.95-1.41,14.07-3.87l26.33,26.33c.87.87,1.94,1.45,3.06,1.72.2.05.41.09.62.12.2.03.4.05.6.06h.03c1.77.08,3.57-.55,4.92-1.89.11-.11.22-.23.32-.34l.07-.08c.1-.12.19-.23.28-.35l.04-.05c.08-.11.15-.22.22-.34l.05-.08c.08-.13.15-.25.21-.38l.04-.08c.06-.12.12-.24.17-.36l.02-.06c.06-.14.11-.27.15-.41l.03-.09c.04-.14.09-.28.12-.42h0c.04-.15.06-.29.09-.44v-.09c.04-.15.06-.29.07-.44v-.03c.01-.14.02-.28.02-.42v-.07c0-.15,0-.3,0-.44Z"/>
          <path class="cls-4" d="m144.58,164.74l.04-.05c.08-.11.15-.22.22-.34l.05-.08c.08-.13.15-.25.21-.38l.04-.08c.06-.12.12-.24.17-.36l.02-.06c.06-.14.11-.27.15-.41l.03-.09c.04-.14.09-.28.12-.42h0c.04-.15.06-.29.09-.44v-.09c.04-.15.06-.29.07-.44v-.03c.01-.14.02-.28.02-.42v-.07c0-.15,0-.3,0-.44v-.06c-.01-.14-.03-.28-.04-.42v-.04c-.03-.15-.05-.3-.08-.44v-.07c-.08-.3-.16-.59-.27-.88l-.03-.07c-.06-.14-.11-.29-.18-.43-.25.39-.54.75-.88,1.09-2.54,2.54-6.69,2.54-9.23,0l-22.84-22.84c-1.21,1.04-2.52,1.99-3.9,2.81l26.33,26.33c.87.87,1.94,1.45,3.06,1.72.2.05.41.09.62.12.2.03.4.05.6.06h.03c1.77.08,3.57-.55,4.92-1.89.11-.11.22-.23.32-.34l.07-.08c.1-.12.19-.23.28-.35Z"/>
          <path class="cls-7" d="m68.4,115.45c0,14.27,11.61,25.88,25.88,25.88s25.88-11.61,25.88-25.88-11.61-25.88-25.88-25.88-25.88,11.61-25.88,25.88Zm7.83-1.77c0-1.03.83-1.86,1.86-1.86h12.56v-12.56c0-1.03.83-1.86,1.86-1.86h3.54c1.03,0,1.86.83,1.86,1.86v12.56h12.56c1.03,0,1.86.83,1.86,1.86v3.54c0,1.03-.83,1.86-1.86,1.86h-12.56v12.56c0,1.03-.83,1.86-1.86,1.86h-3.54c-1.03,0-1.86-.83-1.86-1.86v-12.56h-12.56c-1.03,0-1.86-.83-1.86-1.86v-3.54Z"/>
        </g>
      </g>
    </g>
  </g>
</svg>