<?xml version="1.0" encoding="UTF-8"?>
<svg xmlns="http://www.w3.org/2000/svg" xmlns:xlink="http://www.w3.org/1999/xlink" viewBox="0 0 772.01 812.5">
  <defs>
    <style>
      .cls-1 {
        fill: url(#linear-gradient-4);
      }

      .cls-1, .cls-2, .cls-3, .cls-4, .cls-5, .cls-6, .cls-7, .cls-8, .cls-9, .cls-10, .cls-11, .cls-12, .cls-13, .cls-14, .cls-15, .cls-16, .cls-17, .cls-18, .cls-19, .cls-20, .cls-21, .cls-22, .cls-23, .cls-24, .cls-25, .cls-26, .cls-27, .cls-28, .cls-29, .cls-30, .cls-31, .cls-32, .cls-33, .cls-34, .cls-35, .cls-36 {
        fill-rule: evenodd;
      }

      .cls-2 {
        fill: url(#linear-gradient-12);
      }

      .cls-37, .cls-7 {
        fill: #fff;
      }

      .cls-3 {
        fill: url(#radial-gradient-2);
      }

      .cls-4 {
        fill: url(#New_Gradient_Swatch_148-10);
      }

      .cls-5 {
        fill: url(#New_Gradient_Swatch_148-4);
      }

      .cls-6 {
        fill: url(#New_Gradient_Swatch_148-7);
      }

      .cls-8 {
        fill: url(#New_Gradient_Swatch_148-8);
      }

      .cls-9 {
        fill: url(#New_Gradient_Swatch_148-5);
      }

      .cls-38 {
        isolation: isolate;
      }

      .cls-10 {
        fill: url(#New_Gradient_Swatch_148-6);
      }

      .cls-11 {
        fill: url(#linear-gradient-2);
      }

      .cls-12 {
        fill: url(#linear-gradient);
      }

      .cls-13 {
        fill: url(#linear-gradient-15);
      }

      .cls-14 {
        fill: url(#New_Gradient_Swatch_140);
      }

      .cls-15 {
        fill: url(#linear-gradient-9);
      }

      .cls-16 {
        fill: url(#linear-gradient-6);
      }

      .cls-17 {
        fill: url(#linear-gradient-16);
      }

      .cls-18 {
        fill: url(#linear-gradient-14);
      }

      .cls-19 {
        fill: url(#linear-gradient-5);
      }

      .cls-20 {
        fill: url(#New_Gradient_Swatch_148);
      }

      .cls-21 {
        fill: url(#linear-gradient-10);
      }

      .cls-22 {
        fill: url(#linear-gradient-18);
      }

      .cls-23 {
        fill: url(#linear-gradient-11);
      }

      .cls-24 {
        fill: #004991;
      }

      .cls-25 {
        fill: url(#radial-gradient-3);
      }

      .cls-26 {
        fill: url(#radial-gradient-4);
      }

      .cls-27 {
        fill: url(#New_Gradient_Swatch_147);
      }

      .cls-28 {
        fill: url(#New_Gradient_Swatch_148-3);
      }

      .cls-29 {
        fill: url(#linear-gradient-13);
      }

      .cls-30 {
        fill: url(#linear-gradient-7);
      }

      .cls-31 {
        fill: url(#linear-gradient-8);
      }

      .cls-32 {
        fill: url(#New_Gradient_Swatch_148-2);
      }

      .cls-33 {
        fill: url(#linear-gradient-3);
      }

      .cls-34 {
        fill: url(#New_Gradient_Swatch_148-9);
      }

      .cls-35 {
        fill: url(#radial-gradient);
        mix-blend-mode: screen;
      }

      .cls-36 {
        fill: url(#linear-gradient-17);
      }
    </style>
    <linearGradient id="New_Gradient_Swatch_140" data-name="New Gradient Swatch 140" x1="759.75" y1="64.69" x2="772.01" y2="64.69" gradientUnits="userSpaceOnUse">
      <stop offset="0" stop-color="#1b3840"/>
      <stop offset="1" stop-color="#204954"/>
    </linearGradient>
    <linearGradient id="New_Gradient_Swatch_147" data-name="New Gradient Swatch 147" x1="0" y1="64.5" x2="12.26" y2="64.5" gradientUnits="userSpaceOnUse">
      <stop offset="0" stop-color="#204954"/>
      <stop offset="1" stop-color="#1b3840"/>
    </linearGradient>
    <linearGradient id="linear-gradient" x1="386.64" y1="123.84" x2="386.64" y2="5.53" gradientUnits="userSpaceOnUse">
      <stop offset="0" stop-color="#0a1c4a"/>
      <stop offset=".16" stop-color="#091d4f"/>
      <stop offset=".38" stop-color="#062060"/>
      <stop offset=".49" stop-color="#05226b"/>
      <stop offset=".58" stop-color="#042571"/>
      <stop offset=".71" stop-color="#033082"/>
      <stop offset=".86" stop-color="#01429f"/>
      <stop offset="1" stop-color="#0056bf"/>
    </linearGradient>
    <radialGradient id="radial-gradient" cx="-1734.97" cy="64.69" fx="-1734.97" fy="64.69" r="587.93" gradientTransform="translate(1687.87) scale(.75 1)" gradientUnits="userSpaceOnUse">
      <stop offset=".59" stop-color="#000"/>
      <stop offset=".68" stop-color="#000102"/>
      <stop offset=".74" stop-color="#00040b"/>
      <stop offset=".78" stop-color="#010b1a"/>
      <stop offset=".83" stop-color="#02132f"/>
      <stop offset=".87" stop-color="#041f4a"/>
      <stop offset=".9" stop-color="#062d6b"/>
      <stop offset=".94" stop-color="#083d93"/>
      <stop offset=".97" stop-color="#0b50bf"/>
      <stop offset="1" stop-color="#0e65f0"/>
    </radialGradient>
    <linearGradient id="New_Gradient_Swatch_148" data-name="New Gradient Swatch 148" x1="12.53" y1="6.48" x2="12.53" y2="0" gradientUnits="userSpaceOnUse">
      <stop offset="0" stop-color="#6287c9"/>
      <stop offset="1" stop-color="#3b597d"/>
    </linearGradient>
    <linearGradient id="New_Gradient_Swatch_148-2" data-name="New Gradient Swatch 148" x1="15.26" y1="9.16" x2="15.26" y2="4.58" xlink:href="#New_Gradient_Swatch_148"/>
    <linearGradient id="linear-gradient-2" x1="386.64" y1="124.79" x2="386.64" y2="120.21" gradientUnits="userSpaceOnUse">
      <stop offset="0" stop-color="#87b5f5"/>
      <stop offset="1" stop-color="#4e76a6"/>
    </linearGradient>
    <linearGradient id="linear-gradient-3" x1="756.32" y1="64.69" x2="759.75" y2="64.69" gradientUnits="userSpaceOnUse">
      <stop offset="0" stop-color="#4e76a6"/>
      <stop offset="1" stop-color="#87b5f5"/>
    </linearGradient>
    <linearGradient id="linear-gradient-4" x1="13.54" y1="64.69" x2="16.97" y2="64.69" gradientUnits="userSpaceOnUse">
      <stop offset="0" stop-color="#335d94"/>
      <stop offset="1" stop-color="#204270"/>
    </linearGradient>
    <linearGradient id="linear-gradient-5" x1="386.64" y1="9.16" x2="386.64" y2="4.58" gradientUnits="userSpaceOnUse">
      <stop offset="0" stop-color="#204270"/>
      <stop offset="1" stop-color="#335d94"/>
    </linearGradient>
    <linearGradient id="New_Gradient_Swatch_148-3" data-name="New Gradient Swatch 148" x1="760.76" y1="129.37" x2="760.76" y2="122.89" xlink:href="#New_Gradient_Swatch_148"/>
    <linearGradient id="New_Gradient_Swatch_148-4" data-name="New Gradient Swatch 148" x1="758.03" y1="124.79" x2="758.03" y2="120.21" xlink:href="#New_Gradient_Swatch_148"/>
    <linearGradient id="New_Gradient_Swatch_148-5" data-name="New Gradient Swatch 148" y1="129.37" y2="122.89" xlink:href="#New_Gradient_Swatch_148"/>
    <linearGradient id="New_Gradient_Swatch_148-6" data-name="New Gradient Swatch 148" x1="15.26" y1="124.79" x2="15.26" y2="120.21" xlink:href="#New_Gradient_Swatch_148"/>
    <linearGradient id="New_Gradient_Swatch_148-7" data-name="New Gradient Swatch 148" x1="760.76" x2="760.76" xlink:href="#New_Gradient_Swatch_148"/>
    <linearGradient id="New_Gradient_Swatch_148-8" data-name="New Gradient Swatch 148" x1="758.03" y1="9.16" x2="758.03" y2="4.58" xlink:href="#New_Gradient_Swatch_148"/>
    <linearGradient id="linear-gradient-6" x1="0" y1="64.69" x2="13.54" y2="64.69" xlink:href="#linear-gradient-3"/>
    <linearGradient id="New_Gradient_Swatch_148-9" data-name="New Gradient Swatch 148" x1="6.77" y1="97.51" x2="6.77" y2="31.86" xlink:href="#New_Gradient_Swatch_148"/>
    <radialGradient id="radial-gradient-2" cx="-2241.47" cy="64.69" fx="-2241.47" fy="64.69" r="20.45" gradientTransform="translate(1687.87) scale(.75 1)" gradientUnits="userSpaceOnUse">
      <stop offset="0" stop-color="#f23ff8"/>
      <stop offset="1" stop-color="#9000ff"/>
    </radialGradient>
    <linearGradient id="linear-gradient-7" x1="759.75" y1="64.69" x2="772.01" y2="64.69" xlink:href="#linear-gradient-4"/>
    <linearGradient id="linear-gradient-8" x1="386.64" y1="129.37" x2="386.64" y2="124.79" xlink:href="#linear-gradient-5"/>
    <linearGradient id="linear-gradient-9" x1="386.64" y1="4.58" x2="386.64" y2="0" xlink:href="#linear-gradient-3"/>
    <linearGradient id="linear-gradient-10" x1="6.77" y1="38.36" x2="6.77" y2="31.86" gradientUnits="userSpaceOnUse">
      <stop offset="0" stop-color="#9e42bf"/>
      <stop offset="1" stop-color="#2c507a"/>
    </linearGradient>
    <linearGradient id="linear-gradient-11" x1="6.77" y1="97.51" x2="6.77" y2="91.02" gradientUnits="userSpaceOnUse">
      <stop offset="0" stop-color="#99b2bf"/>
      <stop offset="1" stop-color="#b927dd"/>
    </linearGradient>
    <linearGradient id="linear-gradient-12" x1="4.29" y1="92.33" x2="4.29" y2="37.04" gradientUnits="userSpaceOnUse">
      <stop offset="0" stop-color="#739cb0"/>
      <stop offset="1" stop-color="#476b96"/>
    </linearGradient>
    <linearGradient id="linear-gradient-13" x1="9.24" y1="97.51" x2="9.24" y2="31.86" xlink:href="#linear-gradient-12"/>
    <linearGradient id="New_Gradient_Swatch_148-10" data-name="New Gradient Swatch 148" x1="765.24" y1="97.7" x2="765.24" y2="32.05" xlink:href="#New_Gradient_Swatch_148"/>
    <radialGradient id="radial-gradient-3" cx="-1230.17" cy="64.87" fx="-1230.17" fy="64.87" r="20.45" xlink:href="#radial-gradient-2"/>
    <linearGradient id="linear-gradient-14" x1="765.24" y1="38.54" x2="765.24" y2="32.05" xlink:href="#linear-gradient-10"/>
    <linearGradient id="linear-gradient-15" x1="765.24" y1="97.7" x2="765.24" y2="91.2" xlink:href="#linear-gradient-11"/>
    <linearGradient id="linear-gradient-16" x1="767.72" y1="92.52" x2="767.72" y2="37.22" xlink:href="#linear-gradient-12"/>
    <linearGradient id="linear-gradient-17" x1="762.76" y1="97.7" x2="762.76" y2="32.05" xlink:href="#linear-gradient-12"/>
    <radialGradient id="radial-gradient-4" cx="-1734.97" cy="64.69" fx="-1734.97" fy="64.69" r="488.55" gradientTransform="translate(1687.87) scale(.75 1)" gradientUnits="userSpaceOnUse">
      <stop offset="0" stop-color="#5ca3ff"/>
      <stop offset="1" stop-color="#007ade"/>
    </radialGradient>
    <linearGradient id="linear-gradient-18" x1="391.83" y1="812.5" x2="391.83" y2="753.92" xlink:href="#linear-gradient"/>
  </defs>
  <g class="cls-38">
    <g id="Layer_2" data-name="Layer 2">
      <g id="Camada_1" data-name="Camada 1">
        <g>
          <g>
            <polygon class="cls-14" points="759.75 20.18 759.75 109.2 772.01 95.15 772.01 34.59 759.75 20.18 759.75 20.18"/>
            <polygon class="cls-27" points="12.26 19.99 12.26 109.01 0 94.97 0 34.41 12.26 19.99 12.26 19.99"/>
            <polygon class="cls-12" points="14.25 5.53 759.04 5.53 759.04 123.84 14.25 123.84 14.25 5.53 14.25 5.53"/>
            <polygon class="cls-35" points="14.25 5.53 759.04 5.53 759.04 123.84 14.25 123.84 14.25 5.53 14.25 5.53"/>
            <polygon class="cls-20" points="10.1 4.58 13.54 6.48 14.96 4.58 13.54 0 10.1 4.58 10.1 4.58"/>
            <polygon class="cls-32" points="14.96 4.58 13.54 6.48 16.97 9.16 14.96 4.58 14.96 4.58"/>
            <polygon class="cls-11" points="14.96 124.79 758.33 124.79 756.32 120.21 16.97 120.21 14.96 124.79 14.96 124.79"/>
            <polygon class="cls-33" points="756.32 9.16 756.32 120.21 759.75 122.89 759.75 6.48 756.32 9.16 756.32 9.16"/>
            <polygon class="cls-1" points="16.97 9.16 16.97 120.21 13.54 122.89 13.54 6.48 16.97 9.16 16.97 9.16"/>
            <polygon class="cls-19" points="14.96 4.58 758.33 4.58 756.32 9.16 16.97 9.16 14.96 4.58 14.96 4.58"/>
            <polygon class="cls-28" points="763.18 124.79 759.75 122.89 758.33 124.79 759.75 129.37 763.18 124.79 763.18 124.79"/>
            <polygon class="cls-5" points="758.33 124.79 759.75 122.89 756.32 120.21 758.33 124.79 758.33 124.79"/>
            <polygon class="cls-9" points="10.1 124.79 13.54 122.89 14.96 124.79 13.54 129.37 10.1 124.79 10.1 124.79"/>
            <polygon class="cls-10" points="14.96 124.79 13.54 122.89 16.97 120.21 14.96 124.79 14.96 124.79"/>
            <polygon class="cls-6" points="763.18 4.58 759.75 6.48 758.33 4.58 759.75 0 763.18 4.58 763.18 4.58"/>
            <polygon class="cls-8" points="758.33 4.58 759.75 6.48 756.32 9.16 758.33 4.58 758.33 4.58"/>
            <polygon class="cls-16" points="10.1 4.58 10.1 26.56 0 34.41 0 94.97 10.1 102.81 10.1 124.79 13.54 122.9 13.54 105.48 13.54 23.89 13.54 6.48 10.1 4.58"/>
            <polygon class="cls-34" points="10.1 31.86 3.44 37.04 3.44 92.33 10.1 97.51 10.1 31.86 10.1 31.86"/>
            <polygon class="cls-3" points="8.39 35.85 5.15 38.36 5.15 91.02 8.39 93.53 8.39 35.85 8.39 35.85"/>
            <polygon class="cls-30" points="772.01 34.59 763.18 27.74 763.18 4.58 759.75 6.48 759.75 25.07 759.75 104.67 759.75 122.9 763.18 124.79 763.18 102 772.01 95.15 772.01 34.59"/>
            <polyline class="cls-31" points="623.55 129.37 759.75 129.37 758.33 124.79 758.33 124.79 14.96 124.79 13.54 129.37 149.74 129.37"/>
            <polyline class="cls-15" points="623.55 0 759.75 0 758.33 4.58 758.33 4.58 14.96 4.58 13.54 0 149.74 0"/>
            <polygon class="cls-21" points="3.44 37.04 5.15 38.36 8.39 35.85 10.1 31.86 3.44 37.04 3.44 37.04"/>
            <polygon class="cls-23" points="3.44 92.33 5.15 91.02 8.39 93.53 10.1 97.51 3.44 92.33 3.44 92.33"/>
            <polygon class="cls-2" points="3.44 92.33 5.15 91.02 5.15 38.36 3.44 37.04 3.44 92.33 3.44 92.33"/>
            <polygon class="cls-29" points="8.39 35.85 8.39 93.53 10.1 97.51 10.1 31.86 8.39 35.85 8.39 35.85"/>
            <polygon class="cls-4" points="761.9 32.05 768.57 37.22 768.57 92.52 761.9 97.7 761.9 32.05 761.9 32.05"/>
            <polygon class="cls-25" points="763.62 36.03 766.86 38.54 766.86 91.2 763.62 93.71 763.62 36.03 763.62 36.03"/>
            <polygon class="cls-18" points="768.57 37.22 766.86 38.54 763.62 36.03 761.9 32.05 768.57 37.22 768.57 37.22"/>
            <polygon class="cls-13" points="768.57 92.52 766.86 91.2 763.62 93.71 761.9 97.7 768.57 92.52 768.57 92.52"/>
            <polygon class="cls-17" points="768.57 92.52 766.86 91.2 766.86 38.54 768.57 37.22 768.57 92.52 768.57 92.52"/>
            <polygon class="cls-36" points="763.62 36.03 763.62 93.71 761.9 97.7 761.9 32.05 763.62 36.03 763.62 36.03"/>
            <path class="cls-26" d="m28.42,18.7h716.44l4.29,5.72v12.18l-5.3,4.85v46.46l5.3,4.85v12.18l-4.29,5.73H28.42l-4.29-5.73v-12.18l5.3-4.85v-46.46l-5.3-4.85v-12.18l4.29-5.72h0Zm.71,2.29l-3.29,4.38v10.03l5.3,4.85v48.87l-5.3,4.85v10.03l3.29,4.38h715.02l3.29-4.38v-10.03l-5.3-4.85v-48.87l5.3-4.85v-10.03l-3.29-4.38H29.14Z"/>
          </g>
          <rect class="cls-37" x="175.63" y="175.35" width="420.74" height="598.26"/>
          <path class="cls-24" d="m387.13,775.86h211.5V180.89l-5.04-5.54H175.63v600.51h211.5Zm-236.32-2.32v-181.72l13.57-13.58v-10.42l-13.57,13.57v-10.42l13.57-13.57v-10.42l-13.57,13.57v-10.42l13.57-13.57v-10.42l-13.57,13.57v-10.42l13.57-13.57v-10.42l-13.57,13.57v-10.42l13.57-13.57v-10.42l-13.57,13.57v-10.42l13.57-13.57v-10.42l-13.57,13.57v-10.42l13.57-13.57v-10.42l-11.34,11.34v-10.42l11.34-11.34v-10.42l-8.27,8.27v-10.42l8.27-8.27v-247.44h433.87l25.2,25.2v401.64l-13.58,13.58v33.23l9.41,9.41v131.45l-8.37,8.5H164.38l-13.57-13.57h0ZM390.25,168.6h0-221.37v614.01h436.49V177.59l-8.99-8.99h-206.13Zm-3.12,9h205.46l3.78,4.16v591.85H177.89V177.6h209.24Zm222.75,604.15v-137.64l4.91,4.91v127.74l-4.91,4.99h0Zm-445.49-107.24v-89.9l-9.07,9.07v71.75l9.07,9.07h0Zm454.57-273.36v56.14l-9.07,9.07v-56.14l9.07-9.07h0Zm0-209.99v205.49l-9.07,9.07v-223.63l9.07,9.07h0Z"/>
          <polygon class="cls-22" points="206.74 753.92 576.92 753.92 576.92 812.5 206.74 812.5 206.74 753.92 206.74 753.92"/>
          <path class="cls-7" d="m215.16,760.29h354.75l2.13,2.83v6.03l-2.62,2.4v23l2.62,2.4v6.03l-2.13,2.83H215.16l-2.13-2.83v-6.03l2.63-2.4v-23l-2.63-2.4v-6.03l2.13-2.83h0Zm.35,1.13l-1.63,2.17v4.97l2.62,2.4v24.2l-2.62,2.4v4.97l1.63,2.17h354.04l1.63-2.17v-4.97l-2.63-2.4v-24.2l2.63-2.4v-4.97l-1.63-2.17H215.51Z"/>
        </g>
      </g>
    </g>
  </g>
</svg>