<?xml version="1.0" encoding="UTF-8"?>
<svg xmlns="http://www.w3.org/2000/svg" viewBox="0 0 191.56 836.46">
  <defs>
    <style>
      .cls-1 {
        fill: #8ab9d3;
        opacity: .25;
      }

      .cls-2 {
        fill: #f0aa7f;
      }

      .cls-3 {
        fill: #211d26;
      }

      .cls-4 {
        fill: #f7b994;
      }

      .cls-5 {
        fill: #333033;
      }

      .cls-6 {
        fill: #2e2c2e;
      }

      .cls-7 {
        fill: #fff;
      }

      .cls-8 {
        fill: #322a4a;
      }

      .cls-9 {
        fill: #004991;
      }

      .cls-10 {
        fill: #d0d0fa;
      }

      .cls-11 {
        fill: #bebdeb;
      }

      .cls-12 {
        fill: #657ead;
      }

      .cls-13 {
        fill: #b27956;
      }

      .cls-14 {
        fill: #4e445c;
      }

      .cls-15 {
        fill: #045aa0;
      }

      .cls-16 {
        fill: #f2f2f6;
      }

      .cls-17 {
        fill: #9998bd;
      }

      .cls-18 {
        fill: #a3caff;
      }

      .cls-19 {
        fill: #8d9fbf;
      }

      .cls-20 {
        isolation: isolate;
      }

      .cls-21 {
        fill: #2e2836;
      }

      .cls-22 {
        fill: #e6daf0;
      }

      .cls-23 {
        fill: #95c1f0;
      }

      .cls-24 {
        fill: #262426;
      }

      .cls-25 {
        fill: #242224;
      }

      .cls-26 {
        opacity: .15;
      }

      .cls-26, .cls-27 {
        mix-blend-mode: multiply;
      }

      .cls-28 {
        fill: #29292b;
      }

      .cls-29 {
        fill: #292729;
      }

      .cls-30 {
        fill: #e3976f;
      }

      .cls-31 {
        fill: #f7edff;
      }

      .cls-32 {
        fill: #399ea1;
      }

      .cls-33 {
        fill: #57352a;
      }

      .cls-34 {
        fill: #2f2e31;
      }

      .cls-27 {
        fill: #3a7ec1;
        opacity: .2;
      }

      .cls-35 {
        fill: #b5d5ff;
      }

      .cls-36 {
        fill: #292430;
      }

      .cls-37 {
        fill: #3a373a;
      }

      .cls-38 {
        fill: #452110;
      }

      .cls-39 {
        fill: #f0a284;
      }

      .cls-40 {
        fill: #4f2612;
      }

      .cls-41 {
        fill: #6f8bbf;
      }

      .cls-42 {
        fill: #ebb98b;
      }

      .cls-43 {
        fill: #f6b08e;
      }

      .cls-44 {
        fill: #1c1a1c;
      }

      .cls-45 {
        fill: #6f3211;
      }

      .cls-46 {
        fill: #d68262;
      }
    </style>
  </defs>
  <g class="cls-20">
    <g id="Layer_2" data-name="Layer 2">
      <g id="Camada_1" data-name="Camada 1">
        <g>
          <g>
            <g>
              <g>
                <g>
                  <g>
                    <g>
                      <path class="cls-36" d="m107.64,807.73s6.69,10.79,12.37,11.76c5.68.97,27.5-6.12,29.39-5.48,1.89.64,3.35,2.74,2.18,3.87-1.16,1.13-18.92,14.34-28.08,14.5-9.17.16-35.36-3.38-35.36-3.38l-1.02-7.09,20.52-14.18Z"/>
                      <path class="cls-3" d="m87.75,826.26c1.6.1,3.59.32,6.08.72,9.68,1.57,31.65,2.17,35.46,1.32,2.74-.61,15.6-7.94,22.61-12.01.2.58.14,1.15-.31,1.58-1.16,1.13-18.92,14.34-28.08,14.5-9.17.16-35.36-3.38-35.36-3.38l-.39-2.74Z"/>
                      <g>
                        <path class="cls-44" d="m107.95,819.62c-.22.16-.51.12-.7-.09-.18-.21-.21-.53-.07-.78l3.81-6.38c.25.31.51.62.78.94l-2.19,3.67c1.13-.81,2.3-1.65,3.32-2.4.27.29.55.59.83.87-2.33,1.71-5.28,3.8-5.78,4.16Z"/>
                        <path class="cls-44" d="m108.22,808.61c.19.28.41.61.68.99l-3.83,3.8,4.76-2.51c.23.31.48.64.75.98l-8.52,4.49c-.25.13-.55.04-.7-.22-.15-.26-.12-.6.09-.8l6.78-6.72Z"/>
                        <path class="cls-44" d="m117.06,818.22c-3.33,3.25-4.04,3.77-4.47,3.77-.03,0-.06,0-.08,0-.16-.02-.34-.15-.43-.29-.27-.45-.23-.76,2.15-5.76.29.28.58.54.88.8-.46.97-1.02,2.15-1.43,3.09.71-.64,1.6-1.5,2.42-2.3.33.25.65.48.98.69Z"/>
                      </g>
                    </g>
                    <g class="cls-26">
                      <path class="cls-36" d="m87.12,821.9l10.84-7.49c4.44,4.15,9.28,8.44,10.52,8.9,2.39.88,15.96,4.12,21.28,2.65,3.43-.95,10.65-2.44,15.37-3.39-6.3,4.21-15.73,9.7-21.62,9.81-9.17.16-35.36-3.38-35.36-3.38l-1.02-7.09Z"/>
                    </g>
                  </g>
                  <path class="cls-28" d="m158.43,545.45c-.34,1.88-2.04,23.73-4.08,31.26-2.04,7.53-39.12,143.49-39.8,150.27-.68,6.78-11.23,58.75-10.88,65.16.34,6.4,4.25,16.26,4.25,16.26l-20.92,14.63-6.46-53.1,16.33-119.77,22.11-120.52,39.12,4.14.34,11.67Z"/>
                  <path class="cls-24" d="m92.87,726.05c0,.93-.84,64.29,0,69.55.84,5.25-2.23,7.11-.28,9.89,1.95,2.78,4.47,1.86,4.47,6.8,0,1.16.03,2.41.08,3.64l-10.14,7.09-6.46-53.1,9.34-68.49,2.99,24.63Z"/>
                  <path class="cls-25" d="m104.11,787.04c-3.62,9.87-7.15,19.46-7.44,20.26-.09.24-.3.38-.52.38-.07,0-.14-.01-.21-.04-.28-.13-.42-.49-.31-.81.09-.23,5-13.6,9.29-25.28-.33,2.06-.6,3.91-.81,5.49Z"/>
                </g>
                <g>
                  <g>
                    <path class="cls-21" d="m88.14,808.85c.25.4,2.91,10.8,8.59,12.57,5.68,1.77,18.77,1.93,19.79,2.25,1.02.32,3.93,3.22,1.6,5.32-2.33,2.09-11.64,6.77-15.71,7.25-4.07.48-36.09,0-36.09,0l1.02-13.69,8.44-16.27s11.06.48,12.37,2.58Z"/>
                    <path class="cls-3" d="m66.78,830l6.39-.25,13.34,4.74s.49.18,9.51.18c4.15,0,10.97-2.88,16.83-5.04,1.88-.69,3.92-.36,5.45-.86-.07.07-.1.15-.17.22-2.33,2.09-11.64,6.77-15.72,7.25-4.07.48-36.09,0-36.09,0l.46-6.25Z"/>
                    <path class="cls-44" d="m83.43,824.79s-.08.01-.12.01c-.24,0-.46-.17-.53-.43-.09-.31.05-.64.32-.76l8.32-3.76c-6.2.75-13.12,1.6-13.53,1.69l-.03-.11c-.56.1-.61-.04-.68-.28-.1-.32.07-.68.36-.78,0,0,.02,0,.03,0h0c.24-.07,7.23-2.38,11.51-3.81-3.37-.06-8.62-.11-12.53-.14-.29,0-.54-.26-.55-.59-.01-.33.2-.61.49-.65,1.19-.15,10.08-1.3,13.4-1.68.17.39.35.78.55,1.18-.93.1-2.68.32-4.78.58,2.43.03,4.05.06,5.14.11.29.54.6,1.08.93,1.6-1.54.52-4.58,1.52-6.57,2.18-.37.12-.73.24-1.07.35,2.73-.34,5.91-.72,8.7-1.06.44.55.92,1.05,1.43,1.48l-4.48,2.02,5.38-1.34c.51.34,1.05.62,1.62.8.04.01.08.02.12.03l-13.42,3.34Z"/>
                    <path class="cls-44" d="m74.05,836.34c.12-1.64.43-4.12.43-4.12.23.1,7.85,2.62,12.71,4.23-4.55-.02-9.31-.06-13.14-.11Z"/>
                    <path class="cls-14" d="m112.22,824.81c.59.06-9.09,2.97-9.44,2.97s-12.95.42-10.37.13c4-.45,10.84-1.42,10.84-1.42,0,0,7.93-1.79,8.98-1.68Z"/>
                    <path class="cls-44" d="m115.8,830.61c-3.74,2.27-10.19,5.25-13.4,5.63-.77.09-2.54.15-4.89.18,5.62-1.37,13.02-4.56,14.63-5.13.98-.35,2.4-.55,3.66-.68Z"/>
                  </g>
                  <g>
                    <path class="cls-34" d="m124.57,577.02c-5.25,25.81-26.05,106.39-27.37,120.6-1.13,12.12-7.7,63.47-9.41,92.62-.58,9.85.89,19.92,2.1,22.84-4.78-1.58-13.77,1.66-13.77,1.66l-9.18,10.17s1.06-5.81,2-11.64c.17-1.06-1.01-2.06-.86-3.09.09-.56,1.51-2.83,1.63-3.92.08-.72-2.5-3.88-2.91-5.57-.28-1.14,3.08-6.37,2.83-7.9-4.06-25.16-12.1-48.46-10.71-68.35,1.84-26.33,14.06-40.8,14.4-47.96.34-7.15-.94-125-.94-125,0,0,30.27-30.51,32.65-29,2.38,1.51,37.33,12.61,37.33,12.61,0,0-1.62,27.25-10.04,38.29-1.79,2.35-7.74,3.63-7.74,3.63Z"/>
                    <g>
                      <g>
                        <path class="cls-29" d="m140.66,535.18c.13,0,.25-.09.27-.22l.11-.54c.03-.15-.07-.3-.22-.33-.15-.05-.3.07-.33.22l-.11.54c-.03.15.07.3.22.33.02,0,.04,0,.06,0Z"/>
                        <path class="cls-29" d="m126.8,568.26c-.02-.15.09-.29.24-.31.37-.05.73-.11,1.07-.19.16-.03.3.06.34.21.03.15-.06.3-.21.34-.37.08-.75.15-1.13.2-.01,0-.02,0-.02,0-.15,0-.27-.1-.29-.24Zm2.19-.45c-.05-.15.03-.31.17-.36.34-.12.67-.26,1-.42.14-.06.31,0,.37.13.07.14.01.31-.13.37-.34.17-.7.32-1.06.45-.03.01-.06.01-.09.01-.12,0-.22-.07-.26-.19Zm2.03-.93c-.08-.13-.05-.3.08-.39.29-.2.58-.42.85-.66.12-.1.29-.09.4.02.1.12.09.29-.02.4-.29.26-.6.5-.92.7-.05.03-.1.05-.15.05-.09,0-.18-.04-.23-.13Zm1.72-1.43c-.11-.1-.12-.28-.02-.39.09-.1.25-.34.49-.9.06-.14.23-.21.37-.15.14.06.21.22.15.37-.22.52-.41.86-.59,1.06-.06.06-.13.09-.21.09-.07,0-.13-.02-.19-.07Zm1.04-1.97c-.15-.05-.22-.21-.17-.36.11-.32.23-.68.35-1.06.05-.14.2-.22.35-.18.15.05.23.2.18.35-.12.39-.24.75-.36,1.07-.04.12-.15.19-.26.19-.03,0-.06,0-.09-.01Zm.69-2.13c-.15-.04-.23-.2-.19-.35.1-.34.2-.7.31-1.07.04-.15.19-.23.34-.19.15.04.23.2.19.34-.1.37-.21.73-.31,1.08-.04.12-.15.2-.27.2-.03,0-.05,0-.08-.01Zm.62-2.16c-.15-.04-.24-.19-.2-.34.1-.35.19-.71.29-1.08.04-.15.18-.24.34-.2.15.04.24.19.2.34-.1.37-.2.73-.29,1.08-.03.12-.15.2-.27.2-.02,0-.05,0-.07-.01Zm.58-2.17c-.15-.04-.24-.19-.2-.34l.28-1.08c.04-.15.2-.25.34-.2.15.04.24.19.2.34l-.28,1.09c-.03.13-.15.21-.27.21-.02,0-.04,0-.07,0Zm.55-2.17c-.15-.04-.24-.19-.2-.34.09-.36.18-.72.26-1.09.04-.15.19-.25.34-.2.15.04.24.19.21.34-.09.37-.18.73-.27,1.09-.03.13-.15.21-.27.21-.02,0-.04,0-.07,0Zm.53-2.17c-.15-.04-.24-.19-.21-.34l.26-1.09c.04-.15.18-.24.34-.21.15.04.24.19.21.34l-.26,1.09c-.03.13-.15.21-.27.21-.02,0-.04,0-.06,0Zm.51-2.18c-.15-.03-.24-.18-.21-.34l.25-1.09c.03-.15.18-.23.33-.21.15.04.24.19.21.34l-.25,1.09c-.03.13-.15.22-.27.22-.02,0-.04,0-.06,0Zm.5-2.19c-.15-.03-.24-.18-.21-.33l.25-1.09c.03-.15.18-.24.33-.21.15.04.25.18.21.33l-.25,1.09c-.03.13-.15.22-.27.22-.02,0-.04,0-.06,0Zm.49-2.18c-.15-.04-.25-.18-.21-.34l.24-1.09c.03-.15.18-.24.33-.21.15.03.24.18.21.33l-.24,1.1c-.03.13-.15.22-.27.22-.02,0-.04,0-.06,0Zm.48-2.19c-.15-.03-.24-.18-.21-.33l.24-1.09c.03-.15.17-.24.33-.21.15.03.24.18.21.33l-.24,1.1c-.03.13-.14.22-.27.22-.02,0-.04,0-.06,0Zm.48-2.19c-.15-.03-.25-.18-.21-.33l.23-1.09c.03-.15.18-.25.33-.21.15.03.25.18.21.33l-.24,1.09c-.03.13-.14.22-.27.22-.02,0-.04,0-.06,0Zm.47-2.19c-.15-.03-.25-.18-.21-.33l.23-1.1c.03-.15.17-.26.33-.22.15.03.25.18.22.33l-.23,1.1c-.03.13-.14.22-.27.22-.02,0-.04,0-.06,0Zm.47-2.19c-.15-.03-.25-.18-.22-.33l.23-1.1c.03-.15.18-.26.33-.22.15.03.25.18.22.33l-.23,1.1c-.03.13-.14.22-.27.22-.02,0-.04,0-.06,0Z"/>
                        <path class="cls-29" d="m125.88,568.58h.11c.15,0,.28-.13.28-.28,0-.15-.13-.28-.28-.28-.03-.02-.07,0-.11,0-.26,0-.41,0-.41,0-.18-.01-.29.1-.31.25s.1.29.25.3c0,0,.17.01.46.01Z"/>
                      </g>
                      <path class="cls-28" d="m125.17,571.36c.26,0,.5-.22.55-.54.66-4.19,6.48-40.97,6.48-42.56,0-.37-.25-.66-.56-.66s-.56.3-.56.66h0c-.02,1.24-3.88,25.99-6.47,42.32-.06.36.14.71.45.78.04,0,.07,0,.1,0Z"/>
                    </g>
                    <path class="cls-28" d="m72.37,548.66s27.97-25.45,32.24-26.21c.09,0,.18,0,.27,0,.04,0,.11,0,.14.02,1.13.64,12.81,1.37,24.78,1.95,7.6,1.71,19.49,4.17,26.49,5.6l-.24,2.46,2.04.2.34,10.54c-.34,1.7-.39,20.24-2.43,27.05-.28.92-1.45,5.51-2.84,10.12-6.13-4.72-13.86-12.38-21.36-28.04-6.16,11.83-19.47,34.18-38.28,34.72-1.1-.49-13.38-4.3-20.86-10.88-.33-13.38-.29-27.53-.29-27.53Z"/>
                    <g>
                      <path class="cls-25" d="m68.48,801.14c-.02-.28.13-.54.37-.64,2.59-1.03,13.08-5.15,18.81-6.83,0,.42,0,.84,0,1.26-3.81,1.17-10.2,3.51-16.43,5.95l16.92,3.24c.05.44.1.86.15,1.28l-19.35-3.71c-.25-.05-.44-.28-.46-.56Z"/>
                      <path class="cls-25" d="m73.17,808.25c-.12-.2-.11-.51,0-.71.17-.29.51-.36.78-.17h0c1.26.08,8.4-.99,14.34-1.95.05.42.11.83.16,1.23-9.12,1.5-12.74,1.92-14.21,1.92-.91,0-1-.16-1.09-.31Z"/>
                    </g>
                  </g>
                </g>
              </g>
              <path class="cls-18" d="m121.67,338.3c4.19,3.56,7.82,16.85,8.03,17.69.21.84,1.68,48.79,2.09,49.83.42,1.05-2.3,34.76-1.88,34.13s-29.31-41.25-29.31-41.25l-27.64-63.44,6.28-6.7,8.59,11.1,14.87,3.56,10.26-3.77,8.72-1.15Z"/>
              <g>
                <path class="cls-5" d="m158.91,368.61c1.36,1.36,11.57,4.76,15.99,19.39,4.42,14.63-.68,30.96-.68,31.97s-4.42,47.96-4.42,50,7.48,25.17,5.1,43.54c-2.38,18.37-4.42,25.85-4.42,25.85l-23.13-26.19-7.14-81.64,18.71-62.93Z"/>
                <path class="cls-29" d="m165.62,487.5c.26,0,.5-.18.55-.45.06-.3-.14-.6-.44-.65l-19.59-3.8,19.52-3.13c.26-.04.46-.26.47-.52.01-.26-.16-.5-.41-.57l-19.32-5.19,19.92.19h0c.31,0,.56-.25.56-.56,0-.31-.24-.56-.55-.56l-24.31-.23h0c-.28,0-.52.2-.56.48-.04.28.14.54.41.61l21.04,5.65-20.05,3.21c-.27.04-.47.27-.47.54,0,.27.19.5.45.56l22.69,4.4s.07.01.11.01Z"/>
              </g>
              <g>
                <path class="cls-23" d="m125.78,348.27c.17.51-2.89,9-2.89,9l-6.62-5.09s-3.06,5.94-3.06,6.62-7.81.68-7.81.68l-3.56-3.39-2.55,3.9-9.68-3.39s4.92,13.41,4.92,14.09-18.68-24.11-18.34-23.43c.34.68-.85-6.62,0-5.94.85.68,16.13,6.28,16.13,6.28,0,0,24.45-8.32,25.3-8.15.85.17,8.15,8.83,8.15,8.83Z"/>
                <g>
                  <path class="cls-41" d="m111.28,350.96c.84,1.26,14.87,36.22,18.84,49.83,3.98,13.61.84,48.37.84,48.37l-27.01-57.58,1.05-39.99,6.28-.63Z"/>
                  <g>
                    <path class="cls-41" d="m117.14,343.85c-.63.84-3.98,12.56-3.98,12.56l-7.96,1.26s-10.26-12.14-9.63-11.94,16.33-5.65,16.33-5.65l5.24,3.77Z"/>
                    <path class="cls-12" d="m111.9,340.08l5.24,3.77c-.63.84-3.98,12.56-3.98,12.56h-.07c.2-1.49,1.31-7.69,1.31-7.69,0,0-3.53-3.95-4.73-3.74-1.2.21-.35,4.51-1.2,4.58-.85.07-2.4-2.04-2.4-2.04,0,0-2.89,4.72-2.68,5.01.21.28,2.82,3.31,2.82,3.31l4.37.56-2.88.87-2.51.4s-10.26-12.14-9.63-11.94,16.33-5.65,16.33-5.65Z"/>
                  </g>
                </g>
              </g>
              <g>
                <path class="cls-29" d="m130.96,449.17s.07.35.19,1c.07.67.2,1.63.31,2.87.2,2.48.5,6.02.85,10.26.66,8.5,1.53,19.83,2.41,31.16.46,5.66.91,11.33,1.24,16.64.18,2.66.2,5.19.03,7.62-.15,2.43-.39,4.72-.62,6.83-.97,8.46-2.06,14.55-2.06,14.55,0,0,.79-1.69,1.29-4.13.47-2.44.79-6.12,1.4-10.35.54-4.21,1.33-9.22.94-14.58-.29-5.33-.69-11-1.1-16.67-.49-5.66-.97-11.33-1.43-16.64-.47-5.31-1.03-10.25-1.47-14.49-.46-4.24-.94-7.76-1.29-10.23-.17-1.23-.35-2.2-.45-2.86-.15-.65-.24-.99-.24-.99Z"/>
                <circle class="cls-29" cx="131.45" cy="509.56" r="1.87"/>
                <circle class="cls-29" cx="126.83" cy="471.16" r="1.87"/>
                <path class="cls-37" d="m119.86,334.09s10.19,8.49,11.47,12.74c0,.85,26.84,12.66,34.05,27.52.49,34.39-14.1,65.48-14.1,71.42s1.27,61.57,1.7,63.27c.42,1.7,19.11,31.27,19.96,32.96.85,1.7-2.98,34.55-12.74,34.55s-26.75-36.94-26.75-36.94c0,0-22.93,45.01-38.64,45.01l-26.5-15.23,4.16-43.42s4.43-29.68-2.09-43.86c-14.26-31.07-45.99-74.44-45.99-74.44,0,0-7.29-33.66.78-40.46,8.07-6.8,42.04-27.18,42.04-27.18l8.42-9.59s19.24,41.19,51.88,101.73c0,0,5.1-70.06-7.64-98.09Z"/>
                <path class="cls-5" d="m131,449.5c-1.93-14.31-51.74-56.9-51.74-56.9l14.31-12.95s-21.85,1.93-21.46,1.16c-4.42-17-4.45-31.75-3.26-42.63l6.78-7.72s19.24,41.19,51.88,101.73c0,0,5.1-70.06-7.64-98.09,0,0,10.19,8.49,11.47,12.74,0,.12.59.52,1.59,1.16,5.64,13.83,12.47,31.45,12.47,31.45l-13.34,2.32,15.47,7.54-16.51,60.19Z"/>
                <path class="cls-29" d="m78.86,393.06l-.53-.45,13.47-12.2c-4.31.37-14.44,1.19-18.23,1.19-1.46,0-1.78-.11-2-.47l-.13-.37.02-.04c-3.58-13.91-4.67-28.22-3.3-41.77l1.41-1.61c-1.63,13.89-.62,28.65,3.07,42.98.18.01.46.03.94.03,4.54,0,18.37-1.2,19.95-1.34l1.84-.16-15.16,13.72c5.9,5.08,45.23,39.35,50.82,54.54l15.77-57.48-16.73-8.16,14.48-2.52c-1.11-2.86-7.4-19.05-12.55-31.62.41.25,1.01.59,1.75,1,5.15,12.64,11.19,28.18,12.23,30.87l.27.7-12.2,2.12,13.75,6.7.46.22-17.45,63.61-.41-3.01c-1.88-13.95-51.03-56.09-51.53-56.52Z"/>
              </g>
              <path class="cls-29" d="m154.65,429.56c1.55,0,12.24-24.15,13.8-33.74.05-.31-.16-.59-.46-.64-.3-.04-.59.16-.64.46-1.47,9.08-8.75,24.78-11.75,30.66.77-5.1,2.61-16.44,4.03-25.26.68-4.18,1.29-7.98,1.73-10.7.05-.3-.16-.59-.46-.64-.3-.05-.59.16-.64.46-.43,2.72-1.05,6.53-1.73,10.7-2.5,15.46-4.42,27.34-4.42,28.11,0,.29.24.57.53.59h.01Z"/>
              <path class="cls-14" d="m146.36,815.54c-.3.22-6.24,4.28-8.26,5.17-2.02.89-10.99,1.67-10.99,1.67,0,0,9.63-2.17,11.25-3.06,1.61-.89,8-3.79,8-3.79Z"/>
            </g>
            <g>
              <g>
                <path class="cls-35" d="m116.17,323.63c.12.21,1.35.89,1.67,1.67,1.58,3.89,5.37,15.03,5.76,18.39.46,4.03-1.32,11.15-1.32,11.15l-11.86-13.24-3.45.81-.81-2.3,6.23-5.09,3.78-11.38Z"/>
                <path class="cls-35" d="m75.57,330.62s5.63,13.19,9.63,18.68c2.46,3.39,13.82,10.25,13.82,10.25l4.11-15.78,3.89-1.4s-.98-2.17-.64-2.28c.35-.12-13.25-3.9-14.18-4.36-.92-.46-12.31-12.02-13.12-12.94l-2.06,1.53-1.46,6.3Z"/>
              </g>
              <g>
                <path class="cls-2" d="m119.01,299.62c-.25,1.08-2.19,25.16-2.55,27.16-.37,2-2,7.11-2.55,8.02-.55.91-5.7,5.29-7.04,5.38-1.34.09-15.19-4.29-15.19-4.29,0,0-12.21-11.34-12.49-12.32-.27-.98-.46-20.49-.46-20.49,0,0,14.4-14.77,18.78-14.58,4.37.18,22.05,8.75,21.51,11.12Z"/>
                <path class="cls-30" d="m119.01,299.62c-.2.87-1.51,16.83-2.2,23.93-6.08,4.85-12.92,9.14-18.22,9.06-4.51-.07-8.8-.88-12.37-1.84-3.3-3.15-6.9-6.67-7.05-7.2-.27-.98-.46-20.49-.46-20.49,0,0,5.31-5.44,10.45-9.67,7.7.48,16.15,1.02,24.11,1.52,3.41,1.92,5.93,3.77,5.72,4.68Z"/>
                <g>
                  <g>
                    <g>
                      <path class="cls-2" d="m124.15,267.2c.13-.39,2.73-3.12,4.54-.91,1.82,2.21.39,12.2-.39,13.5s-1.69,6.36-3.77,6.62c-2.08.26-3.64-7.27-3.64-7.27l3.25-11.94Z"/>
                      <path class="cls-2" d="m72.25,268.93c-.13-.39-2.73-3.12-4.54-.91-1.82,2.21-.39,12.2.39,13.5.78,1.3,1.69,6.36,3.77,6.62,2.08.26,3.35-2.44,3.35-2.44l-2.96-16.77Z"/>
                    </g>
                    <g>
                      <path class="cls-40" d="m75.18,283.42s-4.17-2.85-4.72-8.67c-.53-5.58-1.33-5.36-1.46-5.75s-3.54-25.56-1.2-28.67c2.34-3.12,15.49-12.82,35.87-11.3,11.18.83,16.4-.58,18.64,1.77,2.24,2.35,4.16,7.18,4.29,10.3.13,3.12-.04,23.7-1.14,25.48-1.19,1.93-1.41,3.01-1.59,5.38-.18,2.3-.52,6.15-2.85,8.88-2.34,2.73-2.03-11.7-2.03-11.7,0,0-9.48-15.97-17.66-15.19-8.18.78-21.29,30.9-22.46,32.07-1.17,1.17-3.69-2.6-3.69-2.6Z"/>
                      <g>
                        <path class="cls-45" d="m124.95,235c-1.45,1.6-1.24,3.18-.86,5.62.22,1.41.49,3.17.51,5.44.03,2.17-.47,3.64-1.47,4.37-1.6,1.16-4.2.29-5.6-.18-.38-.13-.66-.22-.85-.25l-.14.84c.13.02.4.11.72.22.95.32,2.4.81,3.83.81.9,0,1.79-.19,2.55-.74,1.24-.9,1.85-2.61,1.82-5.07-.03-2.34-.3-4.13-.52-5.56-.33-2.12-.52-3.42.39-4.64-.12-.29-.24-.57-.37-.85Z"/>
                        <path class="cls-45" d="m68.97,252.18c-.65-.34-1.27-.75-1.83-1.18.03.48.06.98.09,1.47,1.08.93,2.68,1.9,5.21,2.14,1.06.1,3.58-.48,4.75-.91l-.3-.8c-3.17,1.18-6.06.26-7.92-.72Z"/>
                      </g>
                    </g>
                  </g>
                  <g>
                    <g>
                      <path class="cls-4" d="m95.97,230.32s17.84-2.1,20.29,5.25c2.45,7.35,4.9,21.69,5.25,27.64.29,4.87.72,12.72,2.3,25.15,1.43,11.23.89,18.15-2.86,23.48-1.94,2.76-9.26,12.06-11.54,15.21-2.27,3.15-12.75,4.21-16.95,1.41-4.2-2.8-8.62-8.26-15.21-16.31-4.59-5.61-5.71-14.82-4.59-22.56,1.07-7.45-.49-21.65-.49-21.65,0,0,1.75-9.79,1.05-21.51-.7-11.72,14.69-15.92,22.74-16.09Z"/>
                      <path class="cls-4" d="m95.97,230.32s17.84-2.1,20.29,5.25c2.45,7.35,4.9,21.69,5.25,27.64.29,4.87.72,12.72,2.3,25.15,1.43,11.23.89,18.15-2.86,23.48-1.94,2.76-9.26,12.06-11.54,15.21-2.27,3.15-12.75,4.21-16.95,1.41-4.2-2.8-8.62-8.26-15.21-16.31-4.59-5.61-5.15-14.73-4.74-22.54.39-7.28-.07-22.13-.07-22.13,0,0,1.48-9.34.78-21.06-.7-11.72,14.69-15.92,22.74-16.09Z"/>
                      <g>
                        <path class="cls-43" d="m124.2,291.87c-.11-1.13-.23-2.29-.39-3.51-.24-1.9-.45-3.65-.64-5.34-.19-.13-.38-.27-.61-.34-2.36-.73-5.13,1.49-6.2,4.95-1.07,3.46-.02,6.86,2.33,7.58,1.96.6,4.18-.85,5.5-3.34Z"/>
                        <path class="cls-43" d="m73.95,284.15c-.5.15-.91.48-1.27.86,0,.28-.03.54-.04.82-.02,1.37-.06,2.66-.12,3.77-.07,1.29-.09,2.61-.1,3.95,1.33,2.37,3.49,3.73,5.39,3.14,2.36-.72,3.4-4.12,2.33-7.58-1.07-3.46-3.84-5.68-6.19-4.95Z"/>
                      </g>
                      <path class="cls-42" d="m109.42,327.04c2.27-3.15,9.6-12.45,11.54-15.21,3.28-4.67,4.1-10.55,3.3-19.49-.44-2.2-.82-4.31-1.12-6.27-1.77,2.67-2.83,8.06-2.83,8.2-2.65-.43-13.23-2.3-13.49-2.39-.26-.08-15.71.68-16.64.51-.94-.17-12.97,3.5-13.66,3.42-.66-1.15-1.98-5.08-3.74-7.14-.03.31-.07.62-.11.91-1.11,7.74,0,16.95,4.59,22.56.91,1.11,1.76,2.16,2.59,3.17,4.79,4.87,7.98,9.23,11,11.89.56.49,1.1.92,1.62,1.26,4.2,2.8,14.67,1.74,16.95-1.41Z"/>
                    </g>
                    <path class="cls-4" d="m90.24,316.41c-.27.32,2.42,8.45,9.54,8.35,7.12-.11,9.54-8.67,9.54-8.67,0,0-5.11,1.84-9.67,2.06-4.57.22-9.4-1.73-9.4-1.73Z"/>
                  </g>
                  <g>
                    <path class="cls-30" d="m90.51,286.74s-.07.07-.2.18-.34.28-.6.48c-.53.41-1.29.97-2.22,1.63-.46.33-.97.68-1.5,1.05-.53.37-1.1.76-1.68,1.16-.58.4-1.19.82-1.8,1.24-.61.43-1.22.86-1.84,1.29s-1.22.88-1.81,1.32c-.59.44-1.16.89-1.67,1.35-.26.23-.5.46-.7.7-.1.12-.18.24-.23.35-.03.05-.04.1-.04.13v.03s.03.1.03.1c.03.08.05.15.08.23.03.07.06.14.09.21.05.14.12.27.18.41.13.27.27.53.41.77.55.98,1.08,1.76,1.45,2.31.37.55.59.86.59.86,0,0-.26-.27-.7-.77-.44-.5-1.05-1.23-1.7-2.17-.16-.24-.32-.49-.48-.76-.08-.14-.16-.27-.23-.42-.04-.08-.07-.15-.11-.23-.03-.07-.06-.15-.1-.22-.02-.04-.03-.06-.05-.13-.02-.07-.03-.15-.03-.22,0-.14.03-.25.07-.35.08-.2.18-.36.29-.51.22-.3.46-.57.72-.83,1.04-1.02,2.25-1.95,3.49-2.84.61-.45,1.25-.87,1.87-1.29s1.24-.81,1.84-1.19c.6-.38,1.19-.74,1.75-1.07.56-.34,1.09-.65,1.58-.93.98-.57,1.81-1.02,2.39-1.35.29-.16.52-.29.67-.38.15-.09.23-.14.23-.14Z"/>
                    <path class="cls-30" d="m106.5,286.17s.08.06.23.14.38.21.67.38c.58.32,1.41.78,2.39,1.35.49.28,1.02.59,1.58.93.56.33,1.15.69,1.75,1.07.6.38,1.22.77,1.84,1.19s1.25.84,1.87,1.29c1.24.89,2.45,1.82,3.49,2.84.26.26.5.53.72.83.11.15.21.31.29.51.04.1.07.21.07.35,0,.07,0,.14-.03.22-.03.07-.04.08-.05.13l-.1.22c-.04.07-.08.15-.11.23-.07.15-.15.29-.23.42-.16.27-.32.52-.48.76-.65.95-1.27,1.67-1.7,2.17-.44.5-.7.77-.7.77,0,0,.22-.31.59-.86.37-.55.9-1.34,1.45-2.31.14-.24.28-.5.41-.77.07-.13.13-.27.18-.41.03-.07.06-.14.09-.21.03-.08.05-.15.08-.23l.03-.1v-.03s-.02-.08-.04-.13c-.05-.11-.14-.23-.24-.35-.2-.24-.44-.48-.7-.7-.51-.46-1.08-.91-1.67-1.35-.59-.45-1.2-.89-1.81-1.32-.62-.43-1.24-.86-1.84-1.29-.61-.42-1.21-.84-1.79-1.24-.59-.4-1.15-.79-1.68-1.16-.53-.37-1.04-.72-1.5-1.05-.93-.66-1.69-1.22-2.22-1.63-.26-.2-.47-.37-.6-.48-.14-.11-.2-.18-.2-.18Z"/>
                  </g>
                  <g>
                    <g>
                      <path class="cls-33" d="m78.87,298.27c.3.07,13.65,3.77,20.6,2.96,6.95-.82,17.5-3.88,17.8-3.81.3.07-7.78,14.82-18.41,14.82-11.15,0-19.99-13.96-19.99-13.96Z"/>
                      <path class="cls-31" d="m99.05,313.32c4.83,0,13.69-9.13,13.69-9.13l.17-2.28-3.02,1.01,2.79-1.79s-.1-1.91-.1-2.33c0,0-6.96,2.39-13.57,2.61h-.42c-6.39.42-14.84-1.88-14.84-1.88,0,.42.62,2.99.62,2.99,0,0,1.59,1.14,2.74,1.46,0,.21-2.91-.45-2.91-.45l.17,1.73s8.78,8.05,14.66,8.05Z"/>
                      <path class="cls-39" d="m78.87,298.27c-.19-.23,5.67,10.93,14.23,15.16,2.66,1.31,8.4,2.03,12.66-1.19,6.32-4.77,11.51-14.22,11.51-14.82,0-.04-1.12.35-1.17.35-.17.59-.97,2.45-1.35,2.98-2.96,4.08-8.86,10.16-15.78,10.46-5.94.26-11.77-3.04-17.18-9.43-.18-.22-1.28-2.67-1.46-2.9-.57-.47-1.41-.55-1.46-.61Z"/>
                      <path class="cls-46" d="m78.87,298.27c-.18-.14,11.19,2.04,20.11,1.58,9.08-.47,18.3-2.44,18.3-2.44,0,0-10.7,4.12-18.11,4.49-7.41.37-19.32-2.89-20.29-3.64Z"/>
                      <path class="cls-22" d="m91.08,305.5c.28.07,7.47.91,7.47.91l.14-2.86.49,2.79s6.14-.7,7.61-1.4c.07,0-4.75,2.09-8.1,2.23-3.35.14-7.61-1.68-7.61-1.68Z"/>
                    </g>
                    <g>
                      <g>
                        <path class="cls-43" d="m101.77,276.87c.2,1.07,4.08,9.2,4.57,10.08.49.88,1.76,2.22,1.64,3.86-.07.97-4.2,2.53-4.46,2.41-1.52-.65-4.11.84-4.11.84,0,0-2.4-1.52-4.95-.72-.77.24-4.97-1.05-4.97-2.03s1.27-2.92,1.75-3.8c.49-.88,3.79-9.91,3.98-10.98.19-1.07,1.76-3.68,2.93-3.68,1.7,0,3.43,2.95,3.62,4.02Z"/>
                        <g>
                          <path class="cls-30" d="m93.35,262.07s.1.39.25,1.08c.15.68.35,1.67.56,2.85.1.59.21,1.23.32,1.91.1.68.22,1.4.31,2.14.09.74.2,1.51.28,2.3.08.78.16,1.58.23,2.38.07.8.12,1.6.17,2.38.06.79.07,1.57.1,2.32.03.75.01,1.48.02,2.17,0,.69-.04,1.34-.06,1.94-.01.6-.08,1.15-.12,1.64-.02.24-.04.47-.06.68-.03.21-.06.4-.09.58-.11.69-.18,1.09-.18,1.09,0,0,0-.4,0-1.1,0-.17,0-.37,0-.58,0-.21,0-.44-.01-.68s-.01-.5-.02-.77c0-.27,0-.56-.03-.86-.01-.3-.03-.61-.04-.93-.01-.32-.02-.65-.05-.99-.05-.68-.08-1.4-.13-2.15-.05-.74-.11-1.51-.17-2.29-.06-.78-.12-1.58-.19-2.37-.06-.8-.13-1.59-.2-2.37-.07-.78-.14-1.55-.2-2.3-.13-1.49-.26-2.88-.36-4.07-.21-2.39-.32-3.99-.32-3.99Z"/>
                          <path class="cls-13" d="m92.2,291.61s.21-.1.62-.14c.41-.04,1.01-.04,1.7.18.34.1.71.26,1.06.46.34.19.7.38,1.07.57.37.19.76.35,1.16.49.4.14.81.23,1.23.27.21.03.42.04.64.04h.08s.02,0,.02,0h.01s-.07,0-.03,0h.04s.17-.02.17-.02c.13,0,.18-.04.26-.05.33-.09.7-.3,1.02-.53.65-.47,1.23-1.04,1.82-1.45.29-.2.6-.37.91-.43.16-.04.28-.03.4-.04.12,0,.23-.01.33-.02.4-.02.63-.02.63-.02,0,0-.22.08-.6.19-.1.03-.2.06-.32.1-.11.04-.26.06-.36.11-.22.1-.45.28-.69.5-.24.23-.48.5-.75.78-.27.29-.56.59-.91.88-.35.29-.73.58-1.27.74-.14.04-.3.08-.4.09l-.17.02h-.04s-.05,0-.05,0h-.12c-.24,0-.48-.02-.72-.04-.48-.06-.96-.18-1.41-.34-.45-.16-.86-.38-1.24-.6-.38-.22-.73-.46-1.05-.69-.31-.22-.6-.4-.9-.55-.59-.29-1.13-.41-1.52-.47-.39-.05-.62-.03-.62-.03Z"/>
                          <path class="cls-13" d="m92.36,286.06s-.07.17-.25.46c-.17.28-.42.68-.72,1.15-.15.23-.3.49-.47.76-.16.27-.31.56-.46.86-.14.3-.29.61-.39.93-.11.32-.16.64-.19.96v.23s0,.06,0,.06v.03s0,.05,0-.04h0s0,.01,0,.01v.02s.03.14.03.14c.01.04.02.1.03.12.01.02.02.03.03.05,0,.03.05.08.08.12.14.17.43.29.74.38.31.09.64.15.95.22.31.06.61.13.89.2.28.07.53.15.75.23.22.07.4.17.55.24.15.07.26.15.34.19.07.05.11.07.11.07,0,0-.05,0-.13-.03-.09-.02-.21-.05-.37-.08-.16-.03-.35-.06-.58-.08-.22-.03-.47-.04-.75-.07-.28-.02-.58-.03-.89-.05-.32-.02-.67-.04-1.04-.11-.19-.03-.38-.08-.58-.16-.2-.08-.41-.2-.59-.38-.09-.1-.18-.18-.24-.33-.03-.07-.07-.13-.09-.2-.02-.07-.02-.1-.04-.15l-.03-.14v-.02s0,0,0,0h0c-.02-.1,0-.03,0-.06v-.04s0-.08,0-.08v-.32c.02-.43.1-.84.25-1.21.13-.38.32-.71.5-1.02.1-.15.19-.3.29-.45.1-.14.21-.27.31-.4.2-.26.41-.49.6-.7.39-.42.74-.73.98-.95.24-.22.38-.35.38-.35Z"/>
                          <path class="cls-13" d="m105.19,285.91s.14.1.39.27c.25.17.6.43.99.78.39.35.82.81,1.18,1.39.08.15.18.3.25.46l.11.24.09.26c.07.17.1.36.14.54.02.09.02.19.04.28v.14s.02.04.02.04h0v.14s-.01.13-.01.13c0,.04,0,.08-.02.15-.03.12-.06.26-.11.36-.05.1-.1.21-.17.3-.07.08-.14.17-.22.24-.31.29-.64.44-.95.58-.31.14-.61.22-.9.31-.28.09-.55.17-.79.24-.24.08-.46.15-.66.21-.2.06-.36.13-.5.18-.28.11-.44.17-.44.17,0,0,.03-.03.09-.09.06-.05.15-.14.27-.23.12-.09.27-.21.45-.33.18-.12.38-.24.61-.37.23-.12.48-.25.75-.38.26-.13.54-.26.8-.4.26-.14.53-.3.7-.48.04-.05.07-.1.11-.14.04-.05.05-.1.08-.15.02-.05.02-.08.04-.12,0,0,.01-.06.01-.1v-.13s0-.06,0-.06v-.02h0s0,.04,0,.04h0s0-.04,0-.04v-.11c-.02-.07-.02-.15-.04-.22-.04-.15-.05-.3-.1-.44-.07-.29-.2-.57-.32-.85-.13-.27-.27-.53-.42-.77-.15-.24-.3-.46-.45-.67-.3-.41-.56-.75-.74-.99-.18-.24-.27-.39-.27-.39Z"/>
                        </g>
                      </g>
                      <g>
                        <g>
                          <path class="cls-38" d="m102.8,259.5c.06.52,1.26,3.69,1.63,3.7,1.75.04,7.95-2.63,9.76-2.74,1.81-.11,3.42,1.02,5.42,2.18,1.37.29-2.76-5.55-5.32-6.02-.67-.12-9.17,1.75-10,2.26-.29.18-.51.36-.46.61.33,1.5-1.09-.5-1.04.02Z"/>
                          <g>
                            <g>
                              <path class="cls-7" d="m105.42,271.2c0,.27.45,1.34,1.16,1.87.71.53,2.55,1.03,4.96.58,2.41-.45,4.36-1.75,4.01-4.5-.37-2.87-2.46-3.8-3.83-3.98-1.32-.18-4.2.18-5,1.83-.8,1.65-1.29,4.2-1.29,4.2Z"/>
                              <path class="cls-32" d="m114.53,270.24c0,2.1-1.7,3.8-3.8,3.8s-3.8-1.7-3.8-3.8,1.7-3.8,3.8-3.8,3.8,1.7,3.8,3.8Z"/>
                            </g>
                            <path class="cls-30" d="m104.67,272.62l1.06-.36s.64-5.9,4.62-5.68c3.98.21,6.46,3.98,6.54,4.19.07.21.21-.85.21-.85,0,0-1.63-5.54-6.89-5.47-5.26.07-5.9,7.1-5.54,8.17Z"/>
                            <path class="cls-30" d="m104.84,273.25c-.09-.1,1.13.19,1.13.19,0,0,2.17,1.71,5.56,1.2,2-.3,4.73-1.33,4.77-4.84.04-.09.59.69.58.97-.1,1.82-1.15,4.59-4.8,5-3.97.45-5.91-.91-7.25-2.52Z"/>
                            <g>
                              <path class="cls-8" d="m112.11,270.02c0,.84-.68,1.51-1.51,1.51s-1.51-.68-1.51-1.51.68-1.51,1.51-1.51,1.51.68,1.51,1.51Z"/>
                              <path class="cls-7" d="m112.46,268.86c0,.42-.34.75-.75.75s-.76-.34-.76-.75.34-.75.76-.75.75.34.75.75Z"/>
                            </g>
                          </g>
                        </g>
                        <g>
                          <path class="cls-38" d="m91.34,259.64c.01.53-.31,3.57-.67,3.63-1.73.29-8.34-.96-10.14-.82-1.81.14-3.38,1.28-5.19,2.7-1.32.47,2.14-5.17,4.92-6.61,1.36-.71,6.21.13,8.76.52.25.04.09,1.09.27,1.13.24.05.49-1.11.8-1,.33.11.27.38.25.63-.11,1.53.98-.7.99-.18Z"/>
                          <g>
                            <g>
                              <path class="cls-7" d="m89.13,271.48c0,.27-.45,1.34-1.16,1.88-.71.53-2.55,1.03-4.96.58-2.41-.45-4.36-1.74-4.01-4.5.37-2.87,2.46-3.8,3.83-3.99,1.32-.18,4.2.18,5,1.83.8,1.65,1.29,4.2,1.29,4.2Z"/>
                              <path class="cls-32" d="m80.17,270.45c0,2.1,1.7,3.8,3.8,3.8s3.8-1.7,3.8-3.8-1.7-3.8-3.8-3.8-3.8,1.7-3.8,3.8Z"/>
                            </g>
                            <path class="cls-30" d="m89.89,272.9l-1.07-.35s-.64-5.9-4.62-5.68c-3.98.21-6.46,3.98-6.53,4.19-.07.21-.21-.85-.21-.85,0,0,1.63-5.54,6.89-5.47,5.26.07,5.9,7.1,5.54,8.17Z"/>
                            <g>
                              <circle class="cls-8" cx="84.07" cy="270.3" r="1.51"/>
                              <circle class="cls-7" cx="85.18" cy="269.14" r=".75"/>
                            </g>
                            <path class="cls-30" d="m89.72,273.54c.09-.1-1.13.19-1.13.19,0,0-2.17,1.71-5.57,1.2-2-.3-4.73-1.33-4.77-4.84-.04-.09-.59.69-.58.97.1,1.82,1.15,4.59,4.8,5.01,3.97.45,5.91-.91,7.25-2.52Z"/>
                          </g>
                        </g>
                      </g>
                    </g>
                  </g>
                  <g>
                    <path class="cls-40" d="m90.99,246.12c-1.38-.81-2.97-2.05-6.3-1.18-3.32.88-4.47,8.64-12.16,8.64s-16.27-14.87,3.67-25.19c0,0,6.15-10.83,18.44-7.32,1.64.23,8.19-3.86,14.16-1.64,5.97,2.22,7.84,4.1,9.01,6.32,0,0,8.31,1.17,8.54,8.19,0,.47-4.18-2.11-3.28,3.51.6,3.74,4.14,12.34-3.12,13.63-1.89-.42-7.3-5.79-19-4.85.23,0-6.8,1.75-9.97-.11Z"/>
                    <path class="cls-45" d="m90.99,246.12c.1.06.22.08.32.13.17-1.23.17-3.31-1.18-5.38-1.22-1.87-3.79-1.99-6.76-2.12-2.13-.1-4.55-.21-6.69-1.03-.87-.34-1.45-.91-1.77-1.76-.84-2.25.43-5.74,1.21-7.52-.44.23-.8.47-1.22.71-.78,2.02-1.59,4.97-.79,7.12.4,1.07,1.16,1.83,2.26,2.25,2.27.87,4.76.99,6.96,1.09,2.74.12,5.1.23,6.08,1.73,1.08,1.66,1.18,3.37,1.08,4.49.17.1.33.2.5.3Z"/>
                    <path class="cls-45" d="m90.51,227.99c0,2.93,2.82,3.77,5.55,4.57,2.68.79,5.22,1.54,5.22,4.13,0,2.74-1.88,4.37-3.71,5.94-1.51,1.3-2.87,2.57-3.02,4.32.28.01.56.03.85.03.16-1.4,1.33-2.49,2.73-3.7,1.88-1.62,4-3.45,4-6.58s-3.1-4.14-5.84-4.95c-2.54-.75-4.94-1.46-4.94-3.75,0-3.72,2.38-5.86,3.81-6.94-.22.04-.4.05-.54.03-.23-.07-.45-.09-.68-.15-1.52,1.3-3.45,3.51-3.45,7.06Z"/>
                    <path class="cls-45" d="m110.9,230.56c-.13,2.09.51,3.15,1.08,4.08.6.98,1.12,1.83.87,3.82-.38,3.05-3.37,3.72-7.16,4.56-.91.2-1.84.41-2.78.66-3.77,1.02-4.7,2.4-4.92,3.11.38-.05.73-.09,1.05-.15.38-.54,1.37-1.4,4.09-2.14.92-.25,1.85-.45,2.74-.65,3.79-.84,7.37-1.64,7.82-5.29.29-2.29-.36-3.34-.99-4.37-.55-.9-1.08-1.76-.96-3.58.2-3.04,4.73-4.27,6.66-4.73-.05-.01-.13-.04-.18-.04-.06-.01-.12-.03-.17-.03-.12-.02-.26-.05-.26-.05-.1-.18-.2-.35-.31-.53-2.41.63-6.39,2.02-6.6,5.33Z"/>
                  </g>
                </g>
              </g>
            </g>
            <g>
              <g>
                <g>
                  <path class="cls-17" d="m61.77,445.37c-2.55-.52-5.11,1.1-5.7,3.61l-22.44,95.58c-.59,2.5.98,5.13,3.48,5.83l69.86,19.59c2.5.7,5.06-.77,5.67-3.26l25.03-101.11c.62-2.5-.96-4.97-3.51-5.48l-72.39-14.75Z"/>
                  <path class="cls-11" d="m131.81,460.42l-70.9-14.94c-.39-.08-.77-.1-1.15-.08-1.76.4-3.26,1.74-3.69,3.57l-22.44,95.58c-.59,2.5.98,5.13,3.48,5.83l69.86,19.59c.36.1.71.14,1.07.16,1.44-.45,2.61-1.61,2.99-3.22l24.23-101.01c.6-2.49-.95-4.97-3.45-5.49Z"/>
                  <path class="cls-10" d="m61.64,448.93c-.37-.08-.74-.09-1.1-.07-1.69.38-3.12,1.68-3.54,3.43l-21.53,91.83c-.56,2.41.94,4.93,3.34,5.6l5.64.97,78.16-88.89-60.97-12.87Z"/>
                  <path class="cls-17" d="m123.17,527.09c-17.03-1.11-45.31.3-77.97-32.03l-8.07,34.33c12.16,5.13,32.91,13.62,32.91,13.62l4.07-2.72,7.49,1.88,2.74-3.19s20.21,7.61,32.81,9.6l6.02-21.48Z"/>
                  <path class="cls-19" d="m89.05,508.82c-2.58,3.36-6.93,4.33-9.73,2.18-2.8-2.15-2.97-6.61-.39-9.96,2.58-3.35,6.93-4.33,9.73-2.18,2.79,2.15,2.97,6.61.39,9.96Z"/>
                </g>
                <g>
                  <g>
                    <path class="cls-4" d="m78.28,523.93c.24.82,12.09,4.5,12.09,4.5,0,0,24.88,10.35,26.69,10.12,1.8-.23,9.1-4.62,9.72-5.85.63-1.23,1.67-5.39,1.3-6.21.15-.88,3.25-4.4,1.93-8.17,2.99-2.27,3.11-7.72,2.05-9.89,0,0,3.21-5.59.1-9.51-.55-.22-5.59-.72-5.59-.72,0,0,1.32-4.92-1.73-5.65-18.9,6.34-16.77.45-20.96,2.43-4.2,1.98-7.15,7.33-8.55,8.66-1.4,1.33-8.8-1.2-8.8-1.2,0,0-12.82,6.24-8.25,21.49Z"/>
                    <path class="cls-30" d="m132.06,508.44s2.48-4.32.96-8.02c-3.11,2.08-9.26,4.97-8.18,4.82,2.9,1.53,2.94,7.08.21,8.98,3.14,3.65.58,8.03-1.49,8.98,2.17,3.3.29,7.88-1.97,8.63.9,2.74-1.19,5.23-4.02,6.51,3.75-.51,8.84-4.51,9.6-5.58,1.58-2.25,1.96-5.33,1.6-6.15.15-.88,2.92-2.14,1.73-8.04,2.99-2.27,2.63-7.96,1.56-10.12Z"/>
                    <path class="cls-30" d="m128.14,498.37c-.89-.1-1.57-.17-1.57-.17,0,0,.09-.18.2-.42-7.49,5.35-16.7,3.38-16.8,3.35-.31-.1-.64.09-.73.44-.09.34.1.71.42.81.84.27,3.96.74,7.8.25,3.36-.43,7.26-1.59,10.68-4.26Z"/>
                  </g>
                  <path class="cls-16" d="m79.23,499.99c.85.47,12.37,3.22,12.37,3.22l-8.08,26.94-9.63-5.68,5.33-24.47Z"/>
                </g>
              </g>
              <path class="cls-5" d="m23.43,368.31c-5.77,1.62-13.42,18.46-15.01,45.56-2.39,23.11-11.16,54.58-7.57,66.14,3.58,11.55,28.8,44.37,73.42,53.53-1.19-.8,10.16-32.41,10.16-32.41,0,0-40.55-10.76-43.34-30.28,0,0,1.99-16.74,13.95-39.84,2.79-5.18-23.38-65-31.61-62.69Z"/>
              <path class="cls-6" d="m34.32,478.48s-.09,0-.14-.01c-6.08-.99-22.26-3.57-24.16-3.57-.45,0-.98-.37-1.02-.82-.09-1.02-.11-1.16,22.21-5.22-6.27-3.15-20.34-10.28-21.41-11.35-.28-.28-.38-.81-.17-1.15.51-.86.59-.99,18.65,4.29,4.02,1.17,7.5,2.19,9.04,2.58.46.12.75.59.63,1.05-.12.46-.57.77-1.05.63-1.58-.39-5.07-1.42-9.11-2.6-3.82-1.12-8.79-2.57-12.44-3.56,4.99,2.66,13.21,6.84,18.96,9.71.34.17.53.53.47.9-.05.37-.34.67-.7.73-5.8,1.05-14.05,2.59-19.18,3.62,7.04.99,18.89,2.92,19.56,3.03.48.08.79.53.72,1-.07.43-.44.73-.86.73Z"/>
            </g>
            <path class="cls-29" d="m56.18,429.75c-1.49.25-16.01-23.25-19.18-33.01-.1-.31.05-.64.33-.74.29-.09.6.07.7.38,3,9.24,12.75,24.47,16.67,30.12-1.63-5.2-5.38-16.74-8.29-25.72-1.38-4.25-2.64-8.13-3.53-10.9-.1-.31.05-.64.34-.74.29-.11.6.07.7.38.89,2.77,2.15,6.64,3.53,10.89,5.1,15.73,9.02,27.83,9.15,28.63.05.3-.13.63-.41.7h-.01Z"/>
          </g>
          <g>
            <g>
              <circle class="cls-27" cx="96.06" cy="113.2" r="58.35" transform="translate(-25.9 197.87) rotate(-84.45)"/>
              <circle class="cls-9" cx="93.31" cy="105.04" r="58.35"/>
              <g>
                <path class="cls-9" d="m26.8,114.1c1.8-.19,2.29-1.28,2.16-2.58-.09-.88-.36-1.57-.95-2.22l1.48-.15c.43.63.71,1.39.81,2.31.27,2.55-.96,3.96-3.33,4.21l-.72.08c-2.37.25-3.86-.88-4.13-3.43-.1-.92.02-1.73.31-2.43l1.48-.15c-.44.76-.56,1.49-.47,2.37.13,1.28.83,2.27,2.65,2.08l.73-.08Z"/>
                <path class="cls-9" d="m18.76,106.14l9.38-.14c.42,0,.58-.17.57-.55,0-.29-.04-.61-.12-.91l1.31-.02c.07.35.12.8.12,1.24.02,1.17-.5,1.8-1.81,1.82l-9.43.14-.02-1.58Z"/>
                <path class="cls-9" d="m19.79,102.97h-.24c-.52-.04-.73-.38-.7-.96.03-.56.27-.9.79-.87h.24c.53.04.73.4.7.96-.03.58-.26.9-.79.87Zm2.24-.01l.08-1.58,7.85.38-.08,1.58-7.85-.38Z"/>
                <path class="cls-9" d="m34.17,93.67l-.22,1.56-3.58-.51c.27.56.4,1.3.28,2.11-.33,2.3-1.78,3.09-4.18,2.75l-.74-.11c-2.41-.34-3.56-1.54-3.18-4.15.18-1.28.67-2.25,1.44-3.11l10.18,1.46Zm-7.47,4.35c1.52.22,2.44-.14,2.65-1.62.1-.72-.03-1.37-.33-1.87l-4.51-.65c-.34.46-.56,1-.64,1.58-.23,1.61.56,2.23,2.08,2.44l.75.11Z"/>
                <path class="cls-9" d="m25.03,84.92l.42-1.52,6.81,1.88c.32,1.07.37,2.39.04,3.57-.64,2.31-1.92,2.89-4.06,2.3l-4.58-1.27.42-1.52,4.45,1.23c1.42.39,2.16.05,2.53-1.29.15-.56.18-1.12.05-1.71l-6.08-1.68Z"/>
                <path class="cls-9" d="m31.09,81.69c1.45.47,2.31-.21,2.83-1.47.31-.74.43-1.53.27-2.5l1.35.56c.05.86-.1,1.69-.42,2.46-1.04,2.49-2.8,3.17-4.99,2.26l-.7-.29c-2.19-.91-2.95-2.64-2.02-4.86.89-2.14,2.49-2.5,3.81-1.95,1.39.58,1.63,1.58,1.08,2.9l-1.2,2.89Zm-1.16-.49l1.07-2.55c.26-.62.21-1.03-.39-1.28-.77-.32-1.56-.04-1.99.99-.48,1.16-.13,2.21,1.32,2.84Z"/>
                <path class="cls-9" d="m36.18,72.59c-1.39-.9-1.61-2.09-.48-3.83.47-.73,1.1-1.33,1.67-1.68l-.37-.22c-1.12-.67-1.84-.56-2.68.72-.47.73-.73,1.63-.7,2.48l-1.24-.8c.08-.82.35-1.68.97-2.63,1.27-1.96,2.73-2.26,4.45-1.15l3.49,2.27c-.01,1.19-.42,2.41-1.12,3.49-1.36,2.1-2.59,2.26-3.99,1.35Zm3.62-3.93l-1.49-.97c-.54.32-1,.85-1.36,1.4-.74,1.13-.64,1.72.08,2.19s1.38.3,2.08-.78c.38-.58.63-1.25.69-1.84Z"/>
                <path class="cls-9" d="m49.58,63.99l-1.02,1.21-2.76-2.33c-.07.62-.35,1.31-.88,1.94-1.5,1.78-3.14,1.68-5,.11l-.57-.48c-1.86-1.57-2.2-3.19-.5-5.21.83-.99,1.77-1.55,2.87-1.87l7.86,6.63Zm-8.64-.27c1.17.99,2.15,1.18,3.11.04.47-.56.7-1.18.71-1.76l-3.48-2.94c-.53.21-1,.55-1.38,1-1.05,1.24-.71,2.18.46,3.17l.58.49Z"/>
                <path class="cls-9" d="m46.46,51.74l1.16-1.07,4.77,5.21c-.29,1.07-.96,2.22-1.86,3.05-1.77,1.62-3.16,1.43-4.66-.2l-3.21-3.5,1.16-1.07,3.12,3.4c1,1.08,1.81,1.19,2.83.25.43-.39.75-.85.94-1.42l-4.26-4.65Z"/>
                <path class="cls-9" d="m48.26,47.38l-.15-.19c-.31-.41-.18-.8.28-1.14.45-.34.87-.37,1.18.04l.15.19c.32.42.17.8-.28,1.14-.46.35-.86.38-1.18-.04Zm1.44,1.71l1.26-.95,4.75,6.28-1.26.95-4.75-6.28Z"/>
                <path class="cls-9" d="m56.87,45.07c.54-1.02,1.28-1.81,2.42-2.43,2.34-1.26,3.84-.59,5,1.55l.35.65c1.16,2.14.92,3.77-1.13,4.88-.72.39-1.46.53-2.08.47l1.72,3.18-1.39.75-4.89-9.05Zm6.02-.13c-.73-1.35-1.57-1.88-3.01-1.1-.52.28-.95.67-1.26,1.15l2.17,4.01c.58.1,1.24,0,1.87-.34,1.31-.71,1.33-1.7.6-3.05l-.36-.67Z"/>
                <path class="cls-9" d="m66.28,45.39c-.61-1.54-.1-2.64,1.81-3.4.8-.32,1.67-.45,2.34-.41l-.17-.39c-.53-1.2-1.18-1.52-2.6-.95-.8.32-1.53.91-2,1.62l-.55-1.37c.54-.62,1.25-1.17,2.31-1.59,2.17-.87,3.54-.27,4.3,1.63l1.54,3.86c-.69.96-1.73,1.72-2.93,2.2-2.33.93-3.42.35-4.04-1.2Zm5.22-1.12l-.66-1.65c-.62-.05-1.31.12-1.92.36-1.26.5-1.52,1.03-1.2,1.83.32.8.96,1.04,2.15.56.65-.26,1.24-.66,1.62-1.1Z"/>
                <path class="cls-9" d="m78.92,37.53c-.92-.27-1.76-.32-2.66-.08-.54.14-1.08.43-1.49.82l1.61,6.09-1.53.4-1.8-6.83c.78-.8,1.86-1.51,3.05-1.83.89-.24,1.68-.24,2.44-.03l.38,1.45Z"/>
                <path class="cls-9" d="m80.26,40.83c-.25-1.64.5-2.59,2.54-2.9.86-.13,1.73-.06,2.37.14l-.08-.42c-.24-1.29-.8-1.75-2.32-1.53-.86.13-1.7.53-2.32,1.12l-.22-1.46c.66-.48,1.48-.85,2.61-1.02,2.31-.35,3.51.55,3.81,2.58l.62,4.11c-.9.78-2.08,1.28-3.36,1.47-2.48.37-3.41-.44-3.66-2.09Zm5.34.1l-.26-1.76c-.6-.19-1.3-.19-1.95-.09-1.34.2-1.71.66-1.59,1.51.13.86.69,1.23,1.97,1.04.69-.1,1.36-.36,1.83-.7Z"/>
                <path class="cls-9" d="m93.76,38.44c-.05,1.81.96,2.44,2.27,2.48.88.02,1.6-.15,2.33-.65l-.04,1.49c-.68.35-1.47.52-2.4.49-2.57-.07-3.8-1.47-3.74-3.86l.02-.73c.07-2.38,1.38-3.71,3.95-3.64.93.03,1.71.25,2.37.63l-.04,1.49c-.7-.54-1.41-.75-2.29-.78-1.29-.04-2.36.53-2.41,2.35l-.02.73Z"/>
                <path class="cls-9" d="m99.86,37.93c.35-2.34,1.81-3.52,4.21-3.16,2.4.36,3.44,1.92,3.09,4.26l-.11.72c-.35,2.34-1.81,3.52-4.21,3.16-2.4-.36-3.44-1.92-3.09-4.26l.11-.72Zm5.74.85c.25-1.65-.48-2.5-1.75-2.69-1.25-.19-2.18.42-2.43,2.06l-.11.75c-.25,1.65.48,2.5,1.75,2.69,1.25.19,2.18-.42,2.43-2.06l.11-.75Z"/>
                <path class="cls-9" d="m109.18,43.99l-1.52-.44,1.95-6.79c1.07-.31,2.39-.34,3.57,0,2.31.66,2.9,1.95,2.29,4.09l-1.31,4.57-1.52-.44,1.27-4.44c.41-1.42.04-2.17-1.29-2.55-.55-.16-1.11-.19-1.71-.06l-1.74,6.06Z"/>
                <path class="cls-9" d="m120.31,47.97l1.83-4.24c.57-1.32.5-2.07-.79-2.62-.58-.25-1.35-.27-1.92-.1l-2.4,5.55-1.45-.63,4.4-10.17,1.45.63-1.46,3.39c.66-.11,1.54-.04,2.29.28,1.94.84,2.27,2.14,1.38,4.19l-1.89,4.36-1.45-.63Z"/>
                <path class="cls-9" d="m125.8,47.2c-.67,1.37-.12,2.31,1.06,3.01.69.41,1.46.63,2.44.61l-.74,1.26c-.86-.07-1.66-.33-2.38-.75-2.33-1.38-2.76-3.22-1.55-5.26l.39-.65c1.21-2.04,3.03-2.55,5.09-1.33,2,1.18,2.13,2.81,1.41,4.04-.76,1.3-1.79,1.39-3.02.67l-2.69-1.59Zm.64-1.09l2.38,1.41c.58.34.99.36,1.32-.21.42-.72.26-1.54-.71-2.11-1.09-.64-2.18-.44-2.99.91Z"/>
                <path class="cls-9" d="m132.99,51.33c-1.09,1.44-.64,2.55.4,3.34.7.53,1.39.81,2.27.83l-.9,1.18c-.75-.12-1.5-.44-2.24-1-2.04-1.56-2.23-3.42-.78-5.31l.44-.58c1.45-1.9,3.29-2.21,5.33-.65.74.56,1.25,1.2,1.56,1.89l-.9,1.18c-.25-.84-.7-1.43-1.4-1.97-1.03-.78-2.22-.95-3.32.5l-.44.58Z"/>
                <path class="cls-9" d="m138.59,56.4c-.97,1.17-.65,2.22.33,3.17.58.56,1.27.96,2.23,1.17l-1.02,1.05c-.82-.27-1.53-.71-2.13-1.29-1.94-1.88-1.92-3.77-.28-5.47l.53-.54c1.65-1.7,3.54-1.77,5.26-.1,1.67,1.62,1.41,3.23.42,4.26-1.05,1.08-2.07.93-3.09-.06l-2.25-2.18Zm.88-.9l1.98,1.92c.48.46.88.58,1.33.11.58-.6.61-1.44-.19-2.22-.9-.88-2.01-.94-3.12.19Z"/>
                <path class="cls-9" d="m149.3,64.05c-.13-.95-.44-1.74-1.03-2.46-.36-.44-.84-.81-1.37-1.02l-4.88,4-1-1.22,5.46-4.48c1.05.37,2.15,1.07,2.93,2.02.59.72.92,1.43,1.04,2.21l-1.16.95Z"/>
                <path class="cls-9" d="m150.79,69.1c2.07-1.16,3.89-.74,5.08,1.38,1.19,2.12.6,3.89-1.46,5.05l-.63.36c-2.07,1.16-3.89.74-5.08-1.38-1.19-2.12-.6-3.89,1.46-5.05l.64-.36Zm2.85,5.05c1.46-.82,1.68-1.92,1.05-3.03-.62-1.1-1.67-1.46-3.12-.65l-.66.37c-1.46.82-1.68,1.91-1.05,3.03.62,1.1,1.67,1.46,3.12.65l.66-.37Z"/>
                <path class="cls-9" d="m157.17,85.59c-2.49.88-3.51.19-4.19-1.74-.28-.8-.37-1.64-.26-2.42l1.5-.53c-.2.86-.2,1.62.06,2.36.31.89.86,1.24,2.4.7l6.93-2.45.57,1.6-7.01,2.48Z"/>
                <path class="cls-9" d="m158.82,87.02c2.31-.53,3.94.4,4.48,2.77.54,2.37-.53,3.91-2.84,4.43l-.71.16c-2.31.53-3.94-.4-4.48-2.77-.54-2.37.53-3.91,2.84-4.43l.71-.16Zm1.3,5.66c1.63-.37,2.15-1.36,1.87-2.61-.28-1.23-1.19-1.88-2.81-1.51l-.74.17c-1.63.37-2.15,1.36-1.87,2.61.28,1.23,1.19,1.88,2.81,1.51l.74-.17Z"/>
                <path class="cls-9" d="m161.08,100.15c-.38,1.54-.9,1.97-1.94,2.08-1.47.15-2.41-.99-2.61-2.96-.09-.89-.04-2.16.31-3.09l1.5-.15c-.45.99-.58,2.12-.49,3.03.1,1.03.5,1.66,1.14,1.59.41-.04.65-.23.83-.97l.54-2.16c.38-1.52.87-1.97,1.88-2.07,1.45-.15,2.27,1.01,2.46,2.88.09.88.07,1.93-.18,2.75l-1.48.15c.33-.83.42-1.89.34-2.69-.11-1.04-.39-1.58-1.01-1.52-.35.04-.59.23-.77.96l-.53,2.16Z"/>
                <path class="cls-9" d="m160.23,104.99c-1.52.09-2.07,1.04-2.1,2.4-.02.8.17,1.58.67,2.43l-1.46-.03c-.36-.78-.53-1.6-.51-2.44.05-2.7,1.44-3.98,3.81-3.93h.76c2.37.06,3.71,1.39,3.66,3.79-.04,2.32-1.4,3.24-2.83,3.21-1.5-.03-2.09-.88-2.06-2.3l.06-3.13Zm1.26.02l-.05,2.76c-.01.67.18,1.04.83,1.05.83.02,1.47-.53,1.49-1.66.03-1.26-.69-2.11-2.26-2.15Zm6.38,3.56l-.48-.45c-.61-.57-1.26-1.36-1.64-2.08l.62-.64,2.4,2.22-.9.95Z"/>
              </g>
              <circle class="cls-7" cx="92.81" cy="104.49" r="50.88"/>
              <path class="cls-1" d="m121.75,104.55c-.2-2.35-2.08-4.28-4.44-4.35-2.79-.09-4.97,2.29-4.74,4.99l-.3-3.56c-.2-2.35-2.08-4.27-4.43-4.35-2.79-.09-4.97,2.28-4.75,4.97l-.23-2.69c-.21-2.44-2.23-4.41-4.68-4.36-2.6.05-4.61,2.25-4.51,4.79l-1.12-13.34c-.2-2.35-2.08-4.28-4.44-4.35-2.79-.09-4.97,2.29-4.74,4.99l2.82,33.5-10.76-10.45c-1.69-1.64-4.38-1.86-6.21-.37-2.16,1.76-2.25,4.99-.31,6.87l9.36,9.09,10.6,10.29.34,4.07.29,3.46c.04.44.23.83.51,1.12.08.08.17.16.27.23.1.07.2.12.31.17.16.07.33.12.51.14.12.01.24.02.37,0l25.99-2.19c.5-.04.94-.28,1.24-.64.06-.07.11-.15.16-.22l.07-.12c.04-.07.07-.15.1-.23l.05-.18c.04-.18.06-.38.04-.57l-.31-3.73s.6-.62,1.34-2.01l.07-.13c.09-.17.18-.36.27-.55.05-.1.09-.2.14-.31l.04-.1c.07-.16.14-.32.21-.49v-.03c.25-.58.49-1.24.72-1.99.38-1.26.65-2.55.82-3.85.02-.13.03-.26.05-.4.15-1.33.19-2.67.13-4.01l-.19-4.25-.55-12.56-.1-2.3Z"/>
              <path class="cls-15" d="m118.41,101.38c-.2-2.35-2.08-4.28-4.44-4.35-2.79-.09-4.97,2.29-4.74,4.99l-.3-3.56c-.2-2.35-2.08-4.27-4.43-4.35-2.79-.09-4.97,2.28-4.75,4.97l-.23-2.69c-.21-2.44-2.23-4.41-4.68-4.36-2.6.05-4.61,2.25-4.51,4.79l-1.12-13.34c-.2-2.35-2.08-4.28-4.44-4.35-2.79-.09-4.97,2.29-4.74,4.99l2.82,33.5-10.76-10.45c-1.69-1.64-4.38-1.86-6.21-.37-2.16,1.76-2.25,4.99-.31,6.88l9.36,9.09,10.6,10.29.34,4.07.29,3.46c.04.44.23.83.51,1.12.08.08.17.16.27.22.1.07.2.12.31.17.16.07.33.12.51.14.12.01.24.02.37,0l25.99-2.19c.5-.04.94-.28,1.24-.64.06-.07.11-.15.16-.22l.07-.12c.04-.07.07-.15.1-.23l.05-.18c.04-.18.06-.38.04-.57l-.31-3.73s.6-.62,1.34-2.01l.07-.13c.09-.17.18-.36.27-.55.05-.1.09-.2.14-.31l.05-.1c.07-.16.14-.32.21-.49v-.03c.25-.58.49-1.24.72-1.99.38-1.26.65-2.55.82-3.85.02-.13.03-.26.05-.4.15-1.33.19-2.67.13-4.01l-.19-4.25-.55-12.56-.1-2.3Z"/>
              <path class="cls-9" d="m83.36,70.99c.52-.04.91-.5.87-1.03l-.48-5.72c-.04-.52-.5-.91-1.03-.87s-.91.5-.87,1.03l.48,5.72c.04.52.5.91,1.03.87Z"/>
              <path class="cls-9" d="m94.78,80.64c.04.52.5.91,1.03.87l5.72-.48c.52-.04.91-.5.87-1.03s-.5-.91-1.03-.87l-5.72.48c-.52.04-.91.5-.87,1.03Z"/>
              <path class="cls-9" d="m67.12,83.92l5.72-.48c.52-.04.91-.5.87-1.03s-.5-.91-1.03-.87l-5.72.48c-.52.04-.91.5-.87,1.03s.5.91,1.03.87Z"/>
              <path class="cls-9" d="m91.07,73.45c.2.17.45.24.69.22s.48-.13.65-.33l3.7-4.38c.34-.4.29-1-.11-1.34-.4-.34-1-.29-1.34.11l-3.7,4.38c-.34.4-.29,1,.11,1.34Z"/>
              <path class="cls-9" d="m73.19,95.66c.24-.02.48-.13.65-.33l3.7-4.38c.34-.4.29-1-.11-1.34-.4-.34-1-.29-1.34.11l-3.7,4.38c-.34.4-.29,1,.11,1.34.2.17.45.24.69.22Z"/>
              <path class="cls-9" d="m74.83,74.82c.2.17.45.24.69.22s.48-.13.65-.33c.34-.4.29-1-.11-1.34l-4.38-3.7c-.4-.34-1-.29-1.34.11-.34.4-.29,1,.11,1.34l4.39,3.7Z"/>
              <path class="cls-9" d="m87.57,71.49c.13.04.25.06.38.05.37-.03.7-.28.82-.65l1.8-5.45c.16-.5-.11-1.04-.6-1.2-.5-.16-1.04.11-1.2.6l-1.8,5.45c-.16.5.11,1.04.6,1.2Z"/>
              <path class="cls-9" d="m95.49,84.24c-.5-.16-1.04.11-1.2.6-.16.5.11,1.04.6,1.2l5.45,1.8c.13.04.25.06.38.05.37-.03.7-.28.82-.65.17-.5-.11-1.04-.6-1.2l-5.45-1.8Z"/>
              <path class="cls-9" d="m67.56,77.01l5.45,1.8c.13.04.25.06.38.05.37-.03.7-.28.82-.65.16-.5-.11-1.04-.6-1.2l-5.45-1.8c-.5-.16-1.04.11-1.2.6-.16.5.11,1.04.6,1.2Z"/>
              <path class="cls-9" d="m93.69,76.77c.18.36.55.55.93.52.12,0,.24-.04.35-.1l5.13-2.58c.47-.24.66-.81.42-1.28-.24-.47-.81-.66-1.28-.42l-5.13,2.58c-.47.24-.66.81-.42,1.28Z"/>
              <path class="cls-9" d="m74.8,86.28c-.24-.47-.81-.66-1.28-.42l-5.13,2.58c-.47.24-.66.81-.42,1.28.18.36.55.55.93.52.12,0,.24-.04.35-.1l5.13-2.58c.47-.24.66-.81.42-1.28Z"/>
              <path class="cls-9" d="m78.22,71.66c.18.36.55.55.93.52.12,0,.24-.04.35-.1.47-.24.66-.81.42-1.28l-2.58-5.13c-.24-.47-.81-.66-1.28-.42-.47.24-.66.81-.42,1.28l2.58,5.13Z"/>
              <path class="cls-9" d="m106.78,124.26c-5.21,2.77-11.56,4.34-17.82,3.84-5.41-.38-9.97-2.43-14.02-5.35l10.6,10.29.34,4.07.29,3.46c.04.44.23.83.51,1.12.08.08.17.16.27.22.1.07.2.12.31.17.16.07.33.12.51.14.12.01.24.02.37,0l25.99-2.19c.5-.04.94-.28,1.24-.64.06-.07.11-.15.16-.22l.07-.12c.04-.07.07-.15.1-.23.08-.23.12-.49.1-.75l-.31-3.73s.6-.62,1.34-2.01l.07-.13c.09-.17.18-.36.27-.55.05-.1.09-.2.14-.31l.05-.1c.07-.16.14-.32.21-.49v-.03c.25-.58.49-1.24.72-1.99.38-1.26.65-2.55.82-3.85.02-.13.03-.26.05-.4.15-1.33.19-2.67.13-4.01l-.19-4.25-.55-12.56c-1.61,8.2-4.23,16.53-11.74,20.58Z"/>
            </g>
            <path class="cls-9" d="m98.53,200.12l17.62-31.31c1.3-2.31-.39-5.15-3.03-5.12l-18.37,3.49-17.55-3.09c-2.65.03-4.27,2.91-2.92,5.19l18.3,30.91c1.35,2.28,4.65,2.24,5.95-.07Z"/>
          </g>
        </g>
      </g>
    </g>
  </g>
</svg>