<?xml version="1.0" encoding="UTF-8"?><svg xmlns="http://www.w3.org/2000/svg" xmlns:xlink="http://www.w3.org/1999/xlink" viewBox="0 0 180.95 103.28"><defs><style>.cls-1{fill:#fff;}.cls-2{fill:#004991;}.cls-3{isolation:isolate;}.cls-4{fill:url(#linear-gradient);mix-blend-mode:screen;opacity:.5;}.cls-5{fill:url(#Gradiente_sem_nome_391);}</style><linearGradient id="Gradiente_sem_nome_391" x1="-305.17" y1="-781.42" x2="-305.17" y2="-683.45" gradientTransform="translate(397.44 783.33) rotate(-.14)" gradientUnits="userSpaceOnUse"><stop offset="0" stop-color="#4297f6"/><stop offset="1" stop-color="#004991"/></linearGradient><linearGradient id="linear-gradient" x1="-304.62" y1="-759.28" x2="-304.62" y2="-771.84" gradientTransform="translate(397.44 783.33) rotate(-.14)" gradientUnits="userSpaceOnUse"><stop offset="0" stop-color="#000"/><stop offset=".16" stop-color="#030303"/><stop offset=".29" stop-color="#0d0d0d"/><stop offset=".41" stop-color="#1d1d1d"/><stop offset=".53" stop-color="#353535"/><stop offset=".63" stop-color="#545454"/><stop offset=".74" stop-color="#797979"/><stop offset=".84" stop-color="#a6a6a6"/><stop offset=".94" stop-color="#d8d8d8"/><stop offset="1" stop-color="#fff"/></linearGradient></defs><g class="cls-3"><g id="Layer_2"><g id="Camada_1"><g><g><path class="cls-2" d="m154.98,5.39c11.18-.01,20.28,8.97,20.33,20.06l.21,52.21c.04,11.09-8.98,20.09-20.17,20.1l-129.37.12c-11.19.01-20.29-8.97-20.33-20.06l-.21-52.21c-.04-11.09,8.98-20.09,20.17-20.1l129.37-.12M154.96,0L25.59.12C11.42.13-.06,11.57,0,25.62l.21,52.21c.06,14.05,11.63,25.46,25.79,25.45l129.37-.12c14.16-.01,25.64-11.45,25.58-25.5l-.21-52.21C180.69,11.4,169.12-.01,154.96,0h0Z"/><path class="cls-5" d="m25.99,100.58c-12.66.01-23.01-10.2-23.06-22.76l-.21-52.21c-.05-12.56,10.21-22.79,22.88-22.8l129.37-.12c12.66-.01,23,10.2,23.05,22.76l.21,52.21c.05,12.56-10.21,22.79-22.87,22.8l-129.37.12Z"/><path class="cls-4" d="m168.41,17.65c.02,4.45-3.6,8.06-8.08,8.06l-138.69.13c-4.48,0-8.14-3.6-8.15-8.05h0c-.02-4.44,3.6-8.05,8.09-8.06l138.69-.13c4.48,0,8.13,3.6,8.15,8.04h0Z"/></g><g><path class="cls-1" d="m66.27,80.7c-.49,2.51-2.53,3.9-5.36,3.91h-2.16s-.81,4.32-.81,4.32h-3.03s2.46-12.82,2.46-12.82h5.19c2.83,0,4.33,1.4,3.84,3.91l-.13.68Zm-2.88-.67c.2-1.06-.34-1.63-1.54-1.63h-1.9s-.74,3.92-.74,3.92h1.9c1.2,0,1.96-.55,2.15-1.62l.13-.68Z"/><path class="cls-1" d="m78.5,81.91l-.22,1.15c-.78,4.03-3.08,6.06-6.77,6.07-3.73,0-5.21-2.03-4.44-6.06l.22-1.15c.76-4.01,3.13-6.05,6.77-6.05,3.6,0,5.2,2.03,4.44,6.04Zm-3.25,1.1l.2-1.03c.51-2.6.06-3.83-1.82-3.83-1.88,0-2.84,1.23-3.34,3.83l-.2,1.03c-.51,2.62-.02,3.83,1.86,3.83,1.88,0,2.8-1.21,3.31-3.83Z"/><path class="cls-1" d="m79.07,88.91l2.46-12.82h4.97s1.06,10.52,1.06,10.52h.13l2.03-10.53h3.01s-2.46,12.82-2.46,12.82h-4.99s-1.08-10.5-1.08-10.5h-.11s-2.01,10.51-2.01,10.51h-3.01Z"/><path class="cls-1" d="m97.38,78.38h-3.56s.45-2.3.45-2.3h10.19s-.45,2.3-.45,2.3h-3.6s-2.01,10.51-2.01,10.51h-3.03s2.01-10.51,2.01-10.51Z"/><path class="cls-1" d="m115.16,81.88l-.22,1.15c-.78,4.03-3.08,6.06-6.77,6.07-3.73,0-5.21-2.03-4.44-6.06l.22-1.15c.76-4.01,3.13-6.05,6.77-6.05,3.6,0,5.2,2.03,4.44,6.04Zm-3.25,1.1l.2-1.03c.51-2.6.06-3.83-1.83-3.82-1.88,0-2.84,1.23-3.34,3.83l-.2,1.03c-.51,2.62-.02,3.83,1.86,3.83,1.88,0,2.8-1.21,3.31-3.83Z"/><path class="cls-1" d="m118.75,82.72c-1.65-.79-2.08-1.76-1.73-3.53.42-2.11,2.15-3.35,5.38-3.36,1.61,0,3.18.36,4.03.86l-.49,2.51c-.93-.68-2.31-1.08-3.7-1.08-1.35,0-2.07.33-2.23,1.19-.13.66.12,1.1.93,1.48l2.63,1.24c1.5.71,2.06,1.76,1.73,3.48-.42,2.14-2.13,3.57-5.49,3.58-1.77,0-3.33-.34-4.38-.95l.49-2.49c1.06.71,2.52,1.15,4.05,1.15,1.33,0,2.14-.4,2.32-1.36.13-.68-.15-1.08-.93-1.46l-2.61-1.26Z"/></g></g></g></g></g></svg>