<?xml version="1.0" encoding="UTF-8"?>
<svg xmlns="http://www.w3.org/2000/svg" viewBox="0 0 187.11 707.02">
  <defs>
    <style>
      .cls-1 {
        fill: #8ab9d3;
        opacity: .25;
      }

      .cls-2 {
        fill: #f5ac8c;
      }

      .cls-3 {
        fill: #292e36;
      }

      .cls-4 {
        fill: #fff;
      }

      .cls-5 {
        fill: #004991;
      }

      .cls-6 {
        fill: #140e09;
      }

      .cls-7 {
        fill: #fcb88f;
      }

      .cls-8 {
        fill: #045aa0;
      }

      .cls-9 {
        fill: #291d13;
      }

      .cls-10 {
        fill: #333842;
      }

      .cls-11 {
        isolation: isolate;
      }

      .cls-12 {
        fill: #d1e7f2;
      }

      .cls-13 {
        fill: #2d323b;
      }

      .cls-14 {
        fill: #e38b68;
      }

      .cls-15 {
        fill: #ea7d77;
      }

      .cls-16 {
        fill: #282c40;
      }

      .cls-17 {
        fill: #feb990;
      }

      .cls-18 {
        fill: #acc8ed;
      }

      .cls-19 {
        fill: #3a7ec1;
        mix-blend-mode: multiply;
        opacity: .2;
      }

      .cls-20 {
        fill: #d1bfd9;
      }

      .cls-21 {
        fill: #4d2b26;
      }

      .cls-22 {
        fill: #394366;
      }

      .cls-23 {
        fill: #938f9e;
      }

      .cls-24 {
        fill: #c75a58;
      }

      .cls-25 {
        fill: #f0a284;
      }

      .cls-26 {
        fill: #272c33;
      }

      .cls-27 {
        fill: #7f788f;
      }

      .cls-28 {
        fill: #21273b;
      }

      .cls-29 {
        fill: #1a120c;
      }

      .cls-30 {
        fill: #d8e3ed;
      }

      .cls-31 {
        fill: #aea8b5;
      }

      .cls-32 {
        fill: #f2fbff;
      }

      .cls-33 {
        fill: #1f160e;
      }

      .cls-34 {
        fill: #a39da6;
      }

      .cls-35 {
        fill: #b6c4e3;
      }

      .cls-36 {
        fill: #241a11;
      }

      .cls-37 {
        fill: #23282e;
      }

      .cls-38 {
        fill: #1c140d;
      }

      .cls-39 {
        fill: #dd8a5f;
      }
    </style>
  </defs>
  <g class="cls-11">
    <g id="Layer_2" data-name="Layer 2">
      <g id="Camada_1" data-name="Camada 1">
        <g>
          <g>
            <g>
              <g>
                <g>
                  <g>
                    <path class="cls-28" d="m100.4,701.6c6.75-.36,11.03-10.09,11.02-10.71-.13-7.53-3.23-10.44-4.5-13.82-1.95-1.83-9.33-15.95-9.33-15.95l-5.23-.28-2.2,13.69s-1.36,7.03-1.24,12.88c.37,4.88,7.17,14.42,11.48,14.19Z"/>
                    <path class="cls-22" d="m98.04,690.28c-.98-.27-1.96-.53-2.94-.8-.67-.18-1.38-.39-1.86-.89-.48-.51-.61-1.42-.07-1.87,4.46,1.27,9.32,1.1,13.69-.48-.34,1.35-1.91,1.36-3.4,1.67-.4.08-.78.41-.86.82-.12.63.69,1.08,1.32.94.62-.14,4.44-.89,4.79-.35.35.55-3.87,7.21-6.95,7.54-3.13.33-7.13-3.8-6.67-4.69.55-1.08,2.45-.8,2.97-1.9Z"/>
                  </g>
                  <path class="cls-17" d="m93.93,657.45c.5-.55,8.55-1.43,8.51-.5-.04.93,2.58,14.41,3.31,16.23.73,1.83,2.8,9.26,2.8,9.26,0,0,.87,1.48-.42,1.87-4.48,1.33-15.32,2.11-16.28.09-.83-1.77.49-15.6.49-15.6,0,0,.37-10.01,1.59-11.35Z"/>
                </g>
                <g>
                  <g>
                    <path class="cls-28" d="m33.22,681.56s-2.62.93-5.51,7.29c-.81,2.54-1.13,5.4.21,8.47,1.16,2.68,4.16,9.47,7.74,9.7,3.59.23,11.45-10.31,11.45-10.31,0,0,1.78-2.5,1.9-9.09.12-6.59,1.13-18.35.67-18.58-.46-.23-6.04-2.05-6.04-2.05l-10.41,14.58Z"/>
                    <path class="cls-22" d="m30.35,691.34c-.46-.36-1.58,3-1,3.16.58.17,4.16,1.91,3.83,2.08-.33.17-3.16.25-2.66,1.08.5.83,2.89,3.91,4.31,3.99,1.42.08,7.84-5.41,7.51-5.49-.33-.09-4.33-.92-4.33-.92,0,0,3.74-.5,4.33-.58.58-.08.33-1.25.33-1.25,0,0-6.74,2.33-12.32-2.08Z"/>
                  </g>
                  <path class="cls-17" d="m39.19,665.42c-.23.46-1.1,3.3-1.1,3.3l-4.29,9.61s-4.28,8.91-4.4,9.49c-.12.58,2.08,3.7,7.87,3.7s8.03-.04,8.91-2.08c1.04-2.43,2.81-19.75,2.59-20.45-.22-.71-1.2-3.61-2.24-4.07-1.04-.46-7.33.52-7.33.52Z"/>
                </g>
                <g>
                  <g>
                    <path class="cls-17" d="m89.02,442.62s2.72,106.32,3.5,108.65c.78,2.34,1.95,14.8,1.95,21.42s-4.67,24.93-1.56,42.06c3.11,17.14-.39,43.23-.39,44.79s1.95,6.23,5.84,5.84c3.89-.39,5.45-4.67,5.45-4.67,0,0,15.97-46.34,17.52-65.81,1.56-19.47-5.45-38.94-1.56-60.36,3.89-21.42,17.93-77.8,17.93-91.04s-3.21-26.03-3.21-26.03c0,0-27.58-9.49-45.49,25.17Z"/>
                    <path class="cls-2" d="m118.76,554.51l-25.6.18c.53,3.9,1.06,10.05,1.24,14.89,5.96-2.53,16.67-7.19,24.66-10.68-.12-1.46-.22-2.92-.3-4.39Z"/>
                  </g>
                  <g>
                    <path class="cls-17" d="m50.19,428.96s-7.2,56-6.82,70.8c.39,14.8,2.42,37.49,1.25,51.51-1.17,14.02-11.29,41.28-12.85,52.57-1.56,11.29,7.01,53.74,6.23,64.26-.78,10.51,8.96,10.9,10.9,0,1.95-10.9,8.18-42.45,8.18-42.45,0,0,4.28-4.28,4.67-34.66.39-12.85,9.14-36.68,10.13-43.23,1.48-9.87,22.55-101.34,22.55-101.34,0,0-25.94-26.82-44.24-17.47Z"/>
                    <path class="cls-2" d="m65.54,570.86c1.89-7.06,4.05-13.95,5.32-18.67-8.66.18-23.76,1.64-23.96,2.24-.28.85-5.2,11.92-5.2,11.92h0c1.63-.5,15.51,1.1,23.84,4.5Z"/>
                  </g>
                </g>
                <g>
                  <path class="cls-38" d="m87.41,177.61s-19.57-2.89-27.91,10.21c-8.34,13.11-18.04,50.55-18.55,55.31-.51,4.76-.85,23.66-.85,25.19s8.17,21.95,14.63,24.68c6.47,2.72,9.53,1.87,10.72-.68,1.19-2.55,1.02-4.25,1.02-4.25,0,0,10.72,1.19,14.98-17.53,4.25-18.72,2.38-17.7,2.38-17.7,0,0,16.85-2.21,16.34-1.36-.51.85-17.02,41.7.34,40.17,1.02,1.02,7.32,13.44,16.51,4.08,9.19-9.36,13.11-37.95,13.62-47.65.51-9.7-.51-71.31-35.23-71.31-4.59,0-8,.85-8,.85Z"/>
                  <path class="cls-37" d="m74.13,267.57c.27-.24,5.91-4.95,15.25-4.95s16.21,7.39,16.21,7.39l-.87,9.06-12.85,4.34-19.04-9.43,1.3-6.41Z"/>
                  <g>
                    <path class="cls-17" d="m122.24,344.29c0-1.4,10.31-46.32,12.19-55.97.17-.86-25.5-9.98-29.28-14.81-5.97-7.62-.44-28.93.64-32.57.12-.41.05-.85-.2-1.2-12.97-18.48-31.95-1.95-32.85-.82-.91,1.14,5.8,18.9,3.52,29.15-2.27,10.24-28.7,12.22-28.7,12.22,0,1.15,7.71,86.86,7.82,89.43,0,.05-6.05,58.74-6.05,58.74-.03.56.27,1.08.77,1.33,5.33,2.63,34.72,17.12,35.78,17.12,1.01,0,6.62-.29,8.17-.37.26-.01.51-.1.73-.25l39.88-28.11c.43-.3.65-.81.58-1.33-.46-3.38-5.25-18.51-15.24-49.46-2.73-8.57,2.22-21.54,2.22-23.1Z"/>
                    <g>
                      <path class="cls-2" d="m95.22,301.48c-.58.16-1.41.47-2.27,1.06-.87.57-1.81,1.38-2.59,2.42-.69.83-1.2,1.82-1.67,2.84-.39-1.06-.83-2.09-1.45-2.97-.7-1.1-1.57-1.98-2.4-2.62-.81-.66-1.61-1.02-2.18-1.23-.58-.22-.93-.2-.93-.2,0,0,.27.23.59.69.34.45.79,1.1,1.24,1.89.93,1.58,1.87,3.73,2.51,6,.35,1.13.6,2.3.86,3.41.18.88.34,1.71.49,2.49.02.18.02.39.04.57.23,2,.78,3.26.78,3.26,0,0,.65-1.21,1.03-3.19.04-.17.05-.38.08-.56.21-.77.44-1.58.68-2.45.35-1.09.68-2.23,1.12-3.33.82-2.21,1.92-4.28,2.97-5.78.52-.76,1.02-1.36,1.39-1.79.36-.43.64-.64.64-.64,0,0-.35-.04-.94.13Z"/>
                      <path class="cls-2" d="m129.64,287.49c-.55.06-33.18-2.83-33.18-2.83l5.85-.55,20.7,1.13,6.63,2.25Z"/>
                      <path class="cls-2" d="m86.94,282.69c.33.39,1.86,3.45,3.02,3.57,1.15.12,3.64-2.84,3.64-2.84l-3.51,1.24-3.16-1.96Z"/>
                      <path class="cls-2" d="m52.45,281.15c.53.15,33.2,2.62,33.2,2.62l-5.68-1.49-20.6-2.26-6.91,1.14Z"/>
                    </g>
                  </g>
                  <path class="cls-2" d="m103.44,270.4s.1.09.15.14c-2.92-8.21.42-23.01,1.82-28.24-4.28-5.39-10.73-9.02-17.57-9.85-1.33-.16-2.68-.22-4.03-.2-6.07,2.07-10.64,6.13-11.07,6.66-.91,1.14,5.8,18.9,3.52,29.15-.35,1.56-1.26,2.93-2.55,4.13.16.17.3.36.4.59,2.2-.71,3.32-3.27,5.44-4.2,2.65-1.17,5.6.62,8.47,1.04,2.62.39,5.26-.39,7.89-.77,2.62-.38,5.59-.26,7.54,1.54Z"/>
                  <g>
                    <path class="cls-10" d="m135.36,417.69s-.07-.57-.1-.84c-.43-3.17-2.48-15.55-10.94-42.54l-72.55,12.17s-2.39,42.85-2.48,42.9c0,0-7.59,43.28-6.62,70.49-.28,14.89.2,35.68-.97,49.7-.34,4.13-1.56,11.11-3.01,16.79l83.84-9.65c.02-4.49-.85-18.04,0-22.7,3.89-21.42,15.94-66.83,15.94-90.62,0-13.24-3.11-25.7-3.11-25.7Z"/>
                    <path class="cls-37" d="m81.08,381.56l-9.78,1.64-20.08,12.84-1.46,25.31c7.25-4.13,22.46-11.41,39.92-12.91,16.75-1.44,35.55,1.94,44.83,3.95-1.02-5.3-3.2-14.9-7.77-30.2l-45.66-.65Z"/>
                  </g>
                  <g>
                    <g>
                      <path class="cls-30" d="m63.97,383.29l44.57.72c-1.69-5.99,13.9-8.84,11.21-17.17-2.72-8.57,12.81-68.87,14.69-78.52.09-.46-7.21-3.28-14.6-6.55l-7.86,31.77s-47.41-3.81-48.68-3.81c-.94,0-2.81-20.62-3.71-31.35-6.32,1.48-12,1.91-12,1.91,0,1.15,7.82,88.73,7.82,88.77l8.57,14.24Z"/>
                      <path class="cls-35" d="m71.17,325.85c1.23.98,33.9,2.7,33.9,2.7l-19.44,27.26-14.45-29.96Z"/>
                    </g>
                    <g>
                      <path class="cls-13" d="m46.52,412.8c-.01.2,39.24-7.73,39.24-7.73l1.59-9.3,2.77,8.31,44.77-3.86c-3.54-20.37-12.71-29.07-14.02-33.21-1.06-3.37.79-14.29,3.28-27.24.54-2.84,2.9-4.85,3.49-7.83.7-3.55.49-12.1,1.16-15.66,1.09-5.77,10.98-26.06,11.12-26.68.19-.85-30.98-11.26-34.76-16.08-.06-.08-.12-.18-.18-.26-6.05,23.57-18.17,70.91-18.17,71.82,0,.98-8.67-52.41-12.06-73.98-3.45,4.27-14.37,5.77-22.56,7.6-6.41,1.44-12.8,5.33-12.8,5.33.43,1.39,9.18,24.96,9.36,27.03.27,3.15.02,11.9.29,15.08.29,3.52,3.2,7.91,3.48,11.31,1.41,17.14,2.19,30.23,2.23,31.28,0,.04-6.64,20.69-8.22,44.07Z"/>
                      <path class="cls-3" d="m103.05,296.18l9.5-.17-1.51-18.66c-2.87-1.45-4.61-6.28-5.44-7.35-.06-.08-18.79,74.15-18.79,75.06,0,.98-9.28-55.93-12.67-77.5-1.44,1.78-3.57,6.6-6.86,7.64-.61,7.78-1.51,18.98-1.51,18.98l8.18,1.75-7.89,4.09,19.57,55.79,25.59-54.3-8.16-5.33Z"/>
                      <g>
                        <path class="cls-26" d="m127.82,314.37c-.33,3.97-1.4,13.92-5.24,16.69-5.78,4.17-25.75,4.33-33.41,4.23-1.45,5.79-2.36,9.54-2.36,9.79,0,.27-.68-3.7-1.73-10.03-5.15-.89-28-5.07-32.74-9.59-2.4-2.28-3.2-7.23-3.47-10.68.04,3.9-.03,9.08.17,11.37.29,3.52,3.2,7.91,3.48,11.31.07.82.13,1.62.2,2.42.47.27.85.45,1.11.55,8.41,3.33,56.35,9.81,69.34,4.64.32-1.72.65-3.48,1-5.29.54-2.84,2.9-4.85,3.49-7.83.7-3.55.49-12.1,1.16-15.66.26-1.36,1-3.51,1.99-6.03.66-6.39,1.33-14.74,1.33-14.74,0,0-4.3,1.66-4.3,18.86Z"/>
                        <path class="cls-37" d="m48.59,313.7s3.53-19.14,1.31-19.19c-3.65-.08-1.36,18.64-1.31,19.19Z"/>
                      </g>
                    </g>
                  </g>
                </g>
                <g>
                  <g>
                    <path class="cls-25" d="m68.25,245.03c-.28,0-2.83,1.89-4.54-1.59-1.72-3.48-4.11-11.71-3.25-13.14,1.8-2.98,5.17.29,5.17.29l2.63,14.44Z"/>
                    <path class="cls-18" d="m62.87,245c0,1.02.74,1.84,1.66,1.84s1.66-.83,1.66-1.84-.74-1.85-1.66-1.85-1.66.83-1.66,1.85Z"/>
                  </g>
                  <g>
                    <path class="cls-25" d="m111.77,243.42c.28,0,2.89,1.93,4.65-1.62,1.75-3.56,4.2-11.98,3.32-13.44-1.84-3.05-5.29.3-5.29.3l-2.69,14.76Z"/>
                    <path class="cls-18" d="m117.27,243.39c0,1.04-.76,1.89-1.7,1.89s-1.7-.84-1.7-1.89.76-1.89,1.7-1.89,1.7.85,1.7,1.89Z"/>
                  </g>
                  <path class="cls-17" d="m114.54,229.6c.28.7-2.93,18.71-4.75,21.36-1.82,2.65-13.12,12.98-14.8,13.82-.83.41-2.88.82-4.95.85-2.13.04-4.27-.31-5.13-.71-1.7-.79-13.31-10.77-15.21-13.37-1.89-2.6-5.64-20.5-5.39-21.2,0,0-1.68-29.39,7.6-36.78,9.28-7.4,30.09-9.91,38.62,1.88,8.53,11.78,4,34.15,4,34.15Z"/>
                  <g>
                    <path class="cls-4" d="m97.62,229.17c-.04.19.13,1.99,1.25,2.73.74.13,3.21.9,5.07.74,1.86-.16,3.39-.55,4.18-2.09.61-1.18.57-3.86-1.07-4.85-.85-.52-8.38-1.22-9.44,3.47Z"/>
                    <path class="cls-29" d="m107.22,229.34c0,1.19-.54,2.26-1.39,2.97-.47.4-1.55.4-2.49.4-1,0-2.08-.09-2.6-.5-.83-.65-1.27-1.73-1.27-2.86,0-2.14,1.73-3.87,3.87-3.87s3.87,1.73,3.87,3.87Z"/>
                    <path class="cls-14" d="m97.08,233.84c-.03.07.29-1.45,1.61-1.29,1.32.16,2.37.81,5.52.83,2.71.02,4.83-1.7,4.94-3.79.09-1.64-.35-2.35-.26-2.38s.9.45.9.45c0,0,1.41,4.99-3.85,6.36-3.24.74-6.63-1.02-6.98-1.05s-1.4-.18-1.88.87Z"/>
                    <path class="cls-14" d="m97.08,233.84s-.05-.09-.1-.19c-.61-1.42-2.65-10.09,6.1-10.75,4.97-.37,5.52,2.58,7.16,2.64,1.64.05,2.8-1,2.38-.58-.42.42-2.54,2.27-3.49,2.06-.95-.21-8.57-.95-8.57-.95,0,0-3.12,2.33-3.38,3.7-.27,1.38-.11,4.07-.11,4.07Z"/>
                    <path class="cls-6" d="m97.08,233.84c.11.35-.58-6.88,5.55-7.14,6.13-.26,6.72,3.33,10-1.74-.11.1-1.48,1.38-2.91,1.38-1.16,0-3.65-1.48-6.77-1.48-3.33,0-7.78,2.64-5.87,8.99Z"/>
                  </g>
                  <path class="cls-33" d="m95.73,219.82c1.87-1.2,9.44-2.93,10.96-2.77,1.13.12,5.09,2.51,5.43,3.19-.28.1-3.39-1.44-5.48-1.52-2.77-.1-9.91,3.66-10.8,3.51-.64-.11-2.02-1.18-.11-2.41Z"/>
                  <g>
                    <path class="cls-4" d="m81.77,229.45c.04.19-.13,1.99-1.25,2.73-.74.13-3.21.9-5.07.74-1.86-.16-3.38-.54-4.18-2.08-.61-1.18-.57-3.86,1.07-4.85.85-.52,8.38-1.22,9.44,3.47Z"/>
                    <path class="cls-29" d="m72.18,229.62c0,1.19.54,2.26,1.39,2.97.47.4,1.54.4,2.49.4,1,0,2.08-.09,2.59-.5.83-.65,1.27-1.73,1.27-2.86,0-2.14-1.73-3.87-3.87-3.87s-3.87,1.73-3.87,3.87Z"/>
                    <path class="cls-14" d="m82.32,234.12c.04.07-.29-1.45-1.61-1.29s-2.37.81-5.52.83c-2.71.02-4.83-1.7-4.94-3.79-.09-1.64.35-2.35.26-2.38-.1-.03-.9.45-.9.45,0,0-1.41,4.99,3.85,6.36,3.24.74,6.63-1.02,6.98-1.05.35-.03,1.4-.18,1.88.86Z"/>
                    <path class="cls-14" d="m82.32,234.12s.06-.09.1-.19c.61-1.42,2.65-10.09-6.1-10.75-4.97-.37-5.52,2.58-7.16,2.64-1.64.05-2.8-1.01-2.38-.58.42.42,2.54,2.27,3.49,2.06.95-.21,8.57-.95,8.57-.95,0,0,3.12,2.33,3.38,3.7.26,1.38.1,4.07.1,4.07Z"/>
                    <path class="cls-6" d="m82.32,234.12c-.11.36.58-6.88-5.55-7.14-6.13-.27-6.72,3.33-10-1.75.11.11,1.48,1.38,2.91,1.38,1.16,0,3.65-1.48,6.77-1.48,3.33,0,7.77,2.65,5.87,8.99Z"/>
                  </g>
                  <path class="cls-21" d="m87.69,250.45s-5.65.82-5.83.82-1.46-.23-1.46-.23c0,0,2.1,3.5,2.74,3.96.64.47,4.96,3.96,8.04,2.74s7.17-4.84,7.87-5.95c.7-1.11.76-1.87.41-1.81-.35.06-2.97.82-5.01.41-2.04-.41-3.67.93-4.61.7-.93-.23-2.16-.64-2.16-.64Z"/>
                  <path class="cls-33" d="m83.43,220.1c-1.84-1.2-9.3-2.93-10.81-2.77-1.11.12-5.01,2.51-5.35,3.19.28.1,3.34-1.44,5.4-1.52,2.73-.1,9.76,3.66,10.64,3.51.63-.11,1.99-1.18.11-2.41Z"/>
                  <path class="cls-39" d="m93.83,242.76s-.16.01-.43,0c-.13,0-.3,0-.48,0-.18,0-.4,0-.58.04-.04,0-.09.03-.09.04.02-.01-.05.05-.08.09-.07.08-.17.18-.26.27-.19.19-.4.4-.65.58-.24.19-.52.36-.84.49-.31.14-.69.22-1.04.22h-.08s-.06,0-.06,0h-.11c-.07,0-.19-.03-.28-.05-.19-.04-.35-.09-.51-.16-.32-.13-.59-.31-.84-.5-.25-.18-.45-.39-.64-.58-.09-.09-.18-.19-.26-.27l-.05-.05h-.01s0-.02,0-.02h0s0,0,0,0c.06.03.02,0,.03.02l-.04-.02h-.02s0-.01,0-.01h0s-.04-.01-.05-.02c-.18-.04-.4-.04-.58-.04-.19,0-.35,0-.48,0-.27,0-.43,0-.43,0,0,0,.14-.06.4-.16.13-.05.28-.11.47-.16.19-.05.39-.12.67-.12.04,0,.06,0,.12,0,.03,0,.05.01.08.02.03,0,.05.01.06.02h.04s.05.05.05.05l.02.02.09.06c.11.08.21.15.31.23.21.15.43.3.66.44.23.14.47.26.71.35.12.04.25.08.36.1.06,0,.09.02.18.03h.11s.06,0,.06,0h0s.03,0-.02,0h.05c.26,0,.49-.05.74-.13.24-.09.48-.21.71-.35.23-.14.45-.29.65-.44.11-.08.2-.15.32-.23.07-.05.09-.07.22-.13.1-.04.18-.04.25-.04.28,0,.48.07.67.12.18.05.34.11.47.16.26.1.4.16.4.16Z"/>
                  <path class="cls-39" d="m84.45,239.74c-.08.18-.16.35-.23.52l-.24.51c-.16.34-.31.68-.45,1.01-.14.33-.26.67-.33.99-.02.08-.03.16-.04.23s-.01.15,0,.21c0,.07.01.12.02.17.01.05.04.09.05.12l-.05-.06s.09.08.14.13l.15.11c.11.06.21.13.32.17.22.09.47.13.74.12.14,0,.27-.02.45-.03.04,0,.11,0,.17,0,.03,0,.09.02.14.03.08.03.16.06.23.1.29.14.55.31.8.5-.31-.04-.62-.1-.91-.14-.07,0-.14-.01-.21-.02h-.08s-.02.01-.06.03l-.21.07c-.08.03-.16.05-.24.07-.33.08-.7.09-1.06,0-.18-.05-.35-.12-.51-.21l-.23-.15-.21-.17-.03-.02-.03-.04c-.09-.12-.15-.25-.19-.38-.04-.13-.06-.26-.06-.38,0-.13,0-.24.02-.35.01-.11.04-.22.07-.32.12-.41.3-.77.51-1.1s.45-.64.7-.93c.13-.14.27-.28.4-.42.14-.13.28-.26.44-.38Z"/>
                  <path class="cls-4" d="m83.29,250.91l.52,3.41s5.9,2.8,6.12,2.84c.22.04,5.77-3.1,5.77-3.1l.57-3.72-7.04.74-5.94-.17Z"/>
                  <path class="cls-39" d="m94.14,239.79c.15.12.3.25.44.38.14.13.27.27.4.42.25.29.49.59.7.93.21.33.39.69.51,1.1.03.1.06.21.07.32.02.11.03.23.02.35,0,.12-.02.25-.06.38-.04.13-.1.26-.19.38l-.03.04-.02.02-.21.17-.23.15c-.16.09-.33.16-.51.21-.36.1-.73.09-1.06,0-.08-.02-.16-.04-.24-.07l-.21-.07s-.04-.02-.04-.02h-.09c-.07,0-.14,0-.21.01-.29.04-.6.1-.91.13.25-.19.51-.35.8-.49.07-.04.15-.07.23-.1.05-.01.11-.03.14-.04.07,0,.13,0,.17,0,.18.01.31.03.45.03.27,0,.52-.03.74-.12.11-.04.22-.1.32-.17l.15-.11s.09-.09.14-.13l-.05.06s.04-.07.05-.12c.01-.05.02-.11.02-.17,0-.07,0-.14,0-.21,0-.07-.02-.15-.04-.23-.07-.32-.2-.65-.33-.98-.14-.33-.29-.67-.45-1.01l-.24-.51c-.08-.18-.16-.35-.23-.53Z"/>
                  <path class="cls-15" d="m77.93,249.82c.12.01,2.25,1.46,3.23,3.34,2.13,4.09,5.02,6.14,8.67,6.14s6.92-2.91,8.74-6.56c1.12-2.23,2.98-3.32,3.06-3.57-.16.2-3.05,1.33-3.05,1.33,0,0-4.26,5.62-9.23,5.47-3.9-.31-8.17-4.79-8.17-4.79,0,0-3.15-1.16-3.31-1.49l.08.13Z"/>
                  <path class="cls-9" d="m88.39,198.51s.74-5.36.64-6.19c-.5-3.87.78-9.66-1.02-13.3-3.54-.36-19.59-1.31-26.9,10.18-8.25,12.96-17.84,49.99-18.35,54.71-.51,4.71-.84,23.4-.84,24.91s8.08,21.72,14.48,24.41c6.4,2.69,8.99,1.83,11-.1,1.09-1.05,1.77-1.78,2.07-4.85.32-10.31,4.14-12.46-8.64-35.26-4.81-8.59,4.66-17.87,7.01-24.27,2.36-6.4.23-17.32.96-20.09,3.19-12.05,19.6-10.15,19.6-10.15Z"/>
                  <path d="m88.93,191.17c-.01-.27-.02-.55-.02-.84-.37.02-.86.03-1.32.04-3.47.03-10.7.11-16.53,5.93-4.91,4.91-8.26,19.35-10.95,30.95-1.56,6.71-2.9,12.49-4.21,15.22-4.37,9.05-5.46,18.47-3.31,28.8,1.82,8.76,5.71,16.8,9.38,23.6.35.04.67.06.98.06-8.68-15.99-15.37-33.37-6.31-52.1,1.36-2.8,2.71-8.64,4.27-15.39,2.67-11.5,5.98-25.81,10.72-30.55,5.58-5.58,12.58-5.65,15.94-5.69.56,0,.99-.01,1.34-.03Z"/>
                  <path d="m78.81,183.21c-5.03.62-9.74,3-14.01,7.09-3.97,3.8-6.63,16.55-8.98,27.8-1.59,7.61-3.09,14.8-4.6,16.79-7.46,9.81-8.03,28.5-7.73,38.51.28.68.58,1.41.92,2.18-.42-9.1-.41-29.8,7.48-40.18,1.62-2.14,3.07-9.08,4.75-17.13,2.21-10.58,4.96-23.75,8.74-27.37,9.7-9.28,18.92-6.97,21.95-6.22.48.12.75.19.93.19v-.84c-.09,0-.42-.08-.73-.16-1.51-.38-4.67-1.16-8.73-.66Z"/>
                  <path class="cls-24" d="m89.46,250.16c-.68,0-1.89-1.15-2.4-1.15s-2.77,1.43-4.93,1.83c-2.16.4-3.59-1.06-4.23-1.06,0,0,1.69,1.44,3.28,1.72,1.59.29,6.72.66,6.72.66,0,0,.85.6,1.54.6,0,0,.71.1,1.48-.67.19-.21,5.04-.7,6.52-1.05,1.48-.35,4.23-1.88,4.23-1.88,0,0-2.86,1.02-4.5.87-1.64-.15-4.91-1.16-5.61-1.2-.59-.04-1.33,1.34-2.09,1.34Z"/>
                  <path class="cls-9" d="m96.95,177.77c-4.55,0-7.91.84-7.91.84,0,0-.57-.08-1.56-.16.5,8.2,2.63,20,2.63,20,0,0,12.45-2.05,16.76,3.42,3.21,4.08,1.86,11.58,2.19,18.65.34,7.07,8.68,15.94,7.53,25.15-2.93,23.5-21.98,33.01-14.83,45.73.08,0,7.46,13.29,16.56,4.03,9.09-9.26,12.96-37.54,13.46-47.13.5-9.6-.5-70.53-34.84-70.53Z"/>
                  <path d="m118.38,217.52c-1.89-12.76-6.28-21.18-13.06-25.02-7.63-4.32-15.36-1.19-15.69-1.06l.32.77c.08-.03,7.68-3.11,14.96,1.01,6.55,3.71,10.81,11.94,12.65,24.46,0,.03.01.06.02.09,1.15,3,2.72,5.87,4.24,8.64,4.69,8.58,9.13,16.67,2.83,29.29-1.46,2.35-3.1,4.56-4.68,6.7-5.09,6.89-9.9,13.39-8.13,23.11,1.07,5.88,2.54,9.72,4.49,11.66.22-.16.44-.33.67-.51-1.85-1.76-3.27-5.47-4.33-11.29-1.7-9.36,3-15.72,7.98-22.46,1.6-2.16,3.25-4.39,4.73-6.77,0,0,.01-.02.02-.03,6.51-13.02,1.76-21.7-2.84-30.09-1.5-2.74-3.05-5.56-4.17-8.49Z"/>
                  <path d="m131.17,230.76c-.07-.7-.14-1.4-.22-2.12-2.41-4.5-5.04-10.51-6.94-17.81-4.27-21.99-18.15-29.39-23.82-29.39-5.04,0-11.44,3.8-11.71,3.96l.18,1.07c.06-.04,6.72-4.19,11.53-4.19,1.98,0,6.67,1.27,11.66,6.04,3.88,3.71,9,10.65,11.35,22.7,2.17,8.36,5.29,15.04,7.97,19.75Z"/>
                  <path class="cls-36" d="m102.7,279.15c-.36.12-7.88,15.89,2.99,22.34.12-.36-5.38-5.62-1.43-11.83,0-.48-1.55-10.51-1.55-10.51Z"/>
                  <path class="cls-36" d="m70,274.18c-2.08,0,7.24,16.51-5.2,25.61,0-2.23,5.01-8.91,1.3-12.62-3.71-3.71,4.08-12.99,3.9-12.99Z"/>
                </g>
              </g>
              <g>
                <path class="cls-32" d="m156.15,395.03l-9.49-10.24c-2.04,3.12-4.57,6.92-4.57,6.92l5.32,10.17s4.76-2.66,8.75-6.85Z"/>
                <path class="cls-3" d="m142.4,390.76c1.47,3.6,6.94,9.27,9.47,12.26,4.67-4.43,16.06-19.38,23.88-34.6,9.8-19.04,11.9-27.96,11.25-32.17-.64-4.21-11.14-15.34-35.79-34.87,0,0-7.26-10.14-11.86-11.98-2.84-1.13-7.29,14.05-11.41,25.32,2.24,1.13,36.19,27.62,36.19,27.62,0,0-7.08,24.3-8.48,27.13-1.17,2.35-10.2,16.67-13.24,21.29Z"/>
              </g>
              <g>
                <path class="cls-16" d="m129.45,395.51c-2.05-2.02-3.86-4.04-4.62-6.03-3.94-1.47-8.06-2.24-12.15-1.49-1.63.3-3.29.89-4.35,2.17,1.28.35,2.56.7,3.84,1.05.81.22,1.83.87,1.47,1.62-.22.45-.86.58-1.08,1.03-.22.45.07,1,0,1.49-.1.63-.73,1-1.24,1.36-.52.37-1.01,1.02-.72,1.58.24.46.85.55,1.37.58,1.25.07,2.5.14,3.74.21.41.02.85.05,1.2.28.92.59.63,2.02.08,2.97s-.87,2.46-.49,3.49c2.43-1.1,9.32-3.79,11.92-3.18.62.14,1.71.53,2.94.98.12-.08.26-.16.37-.23-.74-2.87-1.5-5.48-2.27-7.9Z"/>
                <g>
                  <path class="cls-17" d="m107.33,389.64s2.21-2.53,6.5-3.84c4.29-1.3,9.84-.19,9.84-.19,0,0,2.25,2.53,1.66,2.8-.59.27-1.97,1.19-1.97,1.19,0,0-6.82-1.19-8.07-1.14-.78.17-5.66,1.84-6.53,1.91-.87.07-1.42-.72-1.42-.72Z"/>
                  <path class="cls-17" d="m107.32,395.72c-.15-.4.07-1.16.76-1.52.69-.36,7.05-3.82,7.92-3.98.88-.16,5.65-1.55,8.76-2.03.78-.17,3.27,6.19,3.27,6.19l-2.07,1.38s-6.69.74-7.76,1.09c-1.07.35-7.38,2.73-8.21,1.54-1.22-1.01,1.18-2.26,1.18-2.26,0,0-3.24,1.15-3.85-.42Z"/>
                  <path class="cls-17" d="m115.41,404.31c.34-1.01,4.56-5.65,4.56-5.65,0,0,7.98-4.49,8.26-4.28.28.2,1.66,2.2,1.55,2.58s-.15,1.15-.83,1.61c0,0-4.98,1.87-5.86,2.03-.88.16-5.57,4.93-6.35,5.19-.78.26-1.77-.15-1.33-1.48Z"/>
                </g>
                <path class="cls-17" d="m142.34,392.19c-.76.23-2.15.76-4.2-.62-7.61-5.16-14.47-5.96-14.47-5.96,0,0-1.22.99-1.53,1.57-.31.58,5.93,11.66,5.93,11.66,0,0,5.14,2.17,6.43,3.4,1.25,1.18,5.98,1.77,11.91-2.27l-4.07-7.78Z"/>
              </g>
            </g>
            <g>
              <path class="cls-12" d="m49.02,322.56c.17-2.8,1.64-6.82,1.83-7.94.45-2.62-9.69-30.36-9.92-30.92-.23-.56-4.13,2.07-5.98,5.26-3.5,6.04-5.41,25.2-5.47,30.58h0s-.3,1.34-.75,3.02h20.29Z"/>
              <path class="cls-3" d="m49.95,322.56c-.11-2.8.71-6.82.9-7.94.45-2.62-9.69-30.36-9.92-30.92-.23-.56-4.13,2.07-5.98,5.26-3.5,6.04-5.41,25.2-5.47,30.58h0s-.3,1.34-.75,3.02h21.22Z"/>
            </g>
            <g>
              <path class="cls-7" d="m4,342.72c-.3.3.8,7.07,2.59,11.39,1.79,4.32,11.1,13.07,12.93,12.66,5.99-1.36,6.53-5.72,6.53-5.72l-15.35-22.2-6.71,3.88Z"/>
              <g>
                <g>
                  <g>
                    <g>
                      <polygon class="cls-27" points="29.39 308.02 31.83 307.77 31.93 311.16 29.99 311.16 29.39 308.02"/>
                      <path class="cls-23" d="m27.75,312.1c.27-.27-1.84-4.6-1.84-4.6l4.77-.58.62,5.04-3.55.14Z"/>
                    </g>
                    <path class="cls-23" d="m38.08,314.66c.36,3.11-2.93,6.05-7.35,6.56-4.42.52-8.3-1.59-8.66-4.7-.31-2.67,2.08-5.22,5.56-6.21.57-.16,1.17-.28,1.79-.35,4.42-.51,8.3,1.59,8.66,4.7Z"/>
                  </g>
                  <polygon class="cls-34" points="0 315.9 27.84 390.25 75.66 390.72 77.39 389.28 61.97 309.74 5.91 314.26 0 315.9"/>
                  <path class="cls-20" d="m.03,315.98l27.81,74.27,47.82.47.25-.21c-3.86-19.32-15.21-79.43-15.21-79.43L.03,315.98Z"/>
                  <path class="cls-31" d="m30.18,348.29l-7.49,2.53s1.73-3.57,4.61-7.38c2.88-3.81,2.19-4.96,1.27-5.65-.92-.69-7.03-.58-7.03-.58l1.84-6.57-8.41,6.92-2.74,10.97,4.52,12.08c2.18-1.5,7.96-5.51,10.55-7.83,3.23-2.88,2.88-4.5,2.88-4.5Z"/>
                </g>
                <path class="cls-17" d="m4,342.72s3.73-5.81,6.41-7.3c2.68-1.49,10.43-5.96,12.22-6.11,1.34,0,1.49,1.79.75,2.68-.75.9-6.71,6.26-6.71,6.26,0,0,8.79-6.26,10.43-5.07,1.64,1.19-.45,3.43-.45,3.43,0,0,4.17-.89,2.38,2.53-1.78,3.43-9.38,8.49-10.58,12.81-.15-.74,3.73-2.08,3.73-2.08,0,0,4.17-1.34,6.85-2.83,1.64-.75,2.39.3,1.64,1.79-.74,1.49-3.87,3.57-6.11,4.62-2.23,1.04-6.51,4.08-8.09,5.83-.49.54-3.1.19-3.25-2.49-.3-.89-4.61-.81-3.42-4.24.15-.3-4.37-1.62-2.83-5.21.9-2.09-3.43.75-2.98-4.62Z"/>
              </g>
            </g>
          </g>
          <g>
            <g>
              <circle class="cls-19" cx="88.88" cy="85.58" r="48.53" transform="translate(-4.89 165.77) rotate(-84.45)"/>
              <circle class="cls-5" cx="86.59" cy="78.79" r="48.53"/>
              <g>
                <path class="cls-5" d="m56,125.95c.85-1.24.43-2.14-.46-2.76-.6-.42-1.19-.62-1.92-.6l.7-1.02c.63.07,1.26.3,1.9.74,1.76,1.21,1.99,2.75.86,4.38l-.34.5c-1.13,1.63-2.65,1.97-4.4.76-.63-.44-1.08-.95-1.37-1.51l.7-1.02c.25.69.64,1.16,1.24,1.58.88.61,1.88.7,2.74-.55l.34-.5Z"/>
                <path class="cls-5" d="m46.62,126.73l4.98-6.01c.23-.27.2-.46-.04-.66-.18-.15-.41-.3-.64-.42l.69-.84c.26.15.57.36.85.59.75.62.86,1.29.17,2.13l-5.01,6.04-1.01-.84Z"/>
                <path class="cls-5" d="m45.17,124.36l-.14.15c-.29.31-.63.26-.98-.07-.34-.32-.42-.66-.13-.97l.14-.15c.3-.32.64-.25.98.07.35.33.43.65.13.97Zm1.2-1.42l-.96-.9,4.49-4.76.96.9-4.49,4.76Z"/>
                <path class="cls-5" d="m47.08,110.27l.87.99-2.26,1.99c.5.13,1.04.45,1.49.96,1.28,1.45.99,2.79-.52,4.13l-.46.41c-1.52,1.34-2.89,1.42-4.34-.23-.71-.81-1.06-1.64-1.19-2.59l6.42-5.65Zm-1.28,7.07c.96-.84,1.23-1.62.41-2.55-.4-.45-.88-.72-1.36-.8l-2.84,2.5c.1.46.33.89.65,1.26.89,1.02,1.71.85,2.67,0l.47-.42Z"/>
                <path class="cls-5" d="m36.61,111.31l-.74-1.09,4.87-3.29c.85.37,1.71,1.06,2.28,1.91,1.12,1.65.79,2.77-.74,3.81l-3.28,2.21-.73-1.09,3.18-2.15c1.02-.69,1.2-1.34.55-2.3-.27-.4-.61-.72-1.05-.95l-4.35,2.93Z"/>
                <path class="cls-5" d="m37.84,105.73c1.08-.66,1.12-1.57.6-2.58-.3-.6-.74-1.1-1.44-1.52l1.08-.55c.57.43,1.02.97,1.33,1.59,1.01,2.01.49,3.49-1.27,4.38l-.56.28c-1.76.89-3.26.43-4.16-1.35-.87-1.72-.23-2.92.83-3.46,1.12-.56,1.88-.17,2.42.89l1.17,2.32Zm-.94.47l-1.04-2.05c-.25-.5-.53-.69-1.02-.45-.62.31-.87.96-.45,1.8.47.94,1.33,1.28,2.5.7Z"/>
                <path class="cls-5" d="m34.84,97.6c-1.32.39-2.2-.11-2.68-1.76-.21-.69-.25-1.42-.16-1.97l-.34.11c-1.03.35-1.35.86-.99,2.09.21.69.64,1.34,1.19,1.78l-1.17.35c-.48-.49-.87-1.12-1.14-2.03-.55-1.87.05-2.95,1.68-3.44l3.32-.98c.75.65,1.29,1.57,1.6,2.6.59,2,.03,2.86-1.3,3.26Zm-.53-4.42l-1.42.42c-.08.51,0,1.1.15,1.62.32,1.08.74,1.34,1.43,1.13s.94-.71.63-1.74c-.17-.56-.45-1.08-.79-1.43Z"/>
                <path class="cls-5" d="m36.64,84.5l.21,1.3-2.97.49c.36.38.64.93.75,1.6.31,1.91-.64,2.9-2.63,3.23l-.61.1c-1.99.33-3.2-.33-3.56-2.5-.17-1.06-.03-1.95.37-2.83l8.44-1.39Zm-4.83,5.32c1.26-.21,1.9-.72,1.7-1.95-.1-.6-.37-1.08-.73-1.4l-3.74.62c-.16.45-.19.93-.11,1.41.22,1.33,1,1.63,2.26,1.42l.62-.1Z"/>
                <path class="cls-5" d="m27.22,79.86l-.05-1.31,5.87-.21c.52.76.88,1.8.92,2.82.07,1.99-.8,2.77-2.64,2.83l-3.95.14-.05-1.31,3.84-.14c1.22-.04,1.73-.5,1.68-1.65-.02-.48-.13-.93-.39-1.36l-5.24.19Z"/>
                <path class="cls-5" d="m25.44,76.36h-.2c-.43-.04-.6-.33-.57-.81.03-.47.23-.75.66-.72h.2c.44.04.6.34.57.81-.03.48-.22.75-.66.72Zm1.86,0l.08-1.31,6.53.39-.08,1.31-6.53-.39Z"/>
                <path class="cls-5" d="m28.62,69.67c-.35-.89-.46-1.79-.23-2.84.47-2.16,1.7-2.75,3.68-2.32l.61.13c1.98.43,2.88,1.46,2.47,3.35-.14.67-.45,1.21-.83,1.57l2.94.63-.28,1.28-8.37-1.8Zm3.18-3.88c-1.25-.27-2.04-.02-2.33,1.31-.1.48-.09.96.04,1.42l3.71.8c.38-.31.67-.79.8-1.37.26-1.21-.36-1.76-1.61-2.03l-.62-.13Z"/>
                <path class="cls-5" d="m33.9,63.91c-1.3-.44-1.72-1.36-1.17-2.99.23-.68.62-1.3,1.01-1.7l-.34-.1c-1.04-.31-1.6-.08-2.01,1.13-.23.68-.26,1.46-.06,2.14l-1.16-.39c-.1-.68-.06-1.42.24-2.32.63-1.84,1.75-2.38,3.36-1.83l3.28,1.12c.23.96.15,2.03-.2,3.04-.67,1.97-1.63,2.35-2.94,1.91Zm2.12-3.91l-1.4-.48c-.37.37-.64.89-.81,1.41-.36,1.06-.17,1.52.51,1.75.68.23,1.17-.04,1.52-1.06.19-.55.26-1.14.18-1.62Z"/>
                <path class="cls-5" d="m35.76,51.67c-.67.43-1.15.94-1.49,1.64-.2.42-.31.91-.29,1.39l4.72,2.27-.57,1.18-5.29-2.55c-.09-.92.05-1.99.49-2.92.33-.69.76-1.19,1.3-1.56l1.13.54Z"/>
                <path class="cls-5" d="m38.57,52.61c-1.17-.73-1.37-1.72-.46-3.18.38-.61.9-1.12,1.37-1.43l-.31-.18c-.94-.54-1.54-.44-2.22.64-.38.61-.58,1.36-.55,2.07l-1.04-.65c.05-.68.26-1.4.77-2.2,1.03-1.65,2.24-1.92,3.69-1.02l2.94,1.83c0,.99-.31,2.01-.88,2.92-1.1,1.77-2.12,1.92-3.3,1.19Zm2.95-3.33l-1.25-.78c-.44.28-.82.72-1.11,1.18-.6.95-.51,1.44.1,1.82.61.38,1.15.23,1.72-.68.31-.49.51-1.05.54-1.54Z"/>
                <path class="cls-5" d="m44.34,42.77c1.12,1.01,2.07.71,2.8-.1.49-.54.77-1.09.85-1.82l.92.83c-.15.62-.47,1.21-.98,1.79-1.43,1.59-2.99,1.61-4.46.28l-.45-.41c-1.47-1.33-1.61-2.88-.17-4.47.52-.57,1.08-.95,1.68-1.16l.92.83c-.72.15-1.24.48-1.73,1.03-.72.8-.94,1.77.19,2.79l.45.41Z"/>
                <path class="cls-5" d="m47.31,38.65c-1.29-1.49-1.25-3.04.27-4.37,1.53-1.32,3.07-1.14,4.36.34l.4.46c1.29,1.49,1.25,3.04-.27,4.37-1.53,1.33-3.07,1.15-4.36-.34l-.4-.46Zm3.63-3.17c-.91-1.05-1.84-1.04-2.64-.35-.79.69-.91,1.61,0,2.65l.41.48c.91,1.05,1.84,1.04,2.64.35.79-.69.91-1.61,0-2.65l-.41-.48Z"/>
                <path class="cls-5" d="m56.19,36.01l-1.1.73-3.24-4.9c.38-.84,1.07-1.7,1.93-2.26,1.66-1.1,2.8-.78,3.82.76l2.18,3.3-1.1.73-2.12-3.2c-.68-1.02-1.35-1.2-2.31-.56-.4.27-.72.6-.96,1.04l2.89,4.37Z"/>
                <path class="cls-5" d="m64.7,31.13l-1.69-3.45c-.53-1.08-1.04-1.43-2.08-.92-.48.23-.9.71-1.11,1.16l2.21,4.51-1.18.58-4.06-8.28,1.18-.58,1.35,2.76c.29-.48.8-1,1.42-1.3,1.58-.77,2.58-.28,3.4,1.39l1.74,3.55-1.18.58Z"/>
                <path class="cls-5" d="m67.18,27.24c.51,1.16,1.4,1.32,2.48.95.63-.22,1.19-.58,1.71-1.21l.39,1.15c-.51.51-1.1.87-1.76,1.1-2.13.73-3.52,0-4.16-1.85l-.21-.6c-.64-1.86.02-3.29,1.91-3.94,1.83-.63,2.93.17,3.31,1.29.41,1.18-.09,1.89-1.21,2.27l-2.46.84Zm-.34-.99l2.17-.75c.53-.18.76-.43.58-.95-.23-.66-.84-1-1.72-.69-.99.34-1.45,1.14-1.04,2.39Z"/>
                <path class="cls-5" d="m73.67,24.92c.32,1.47,1.26,1.78,2.32,1.55.72-.15,1.26-.44,1.75-.99l.26,1.21c-.48.41-1.09.71-1.84.87-2.09.45-3.36-.44-3.78-2.38l-.13-.59c-.42-1.94.38-3.27,2.47-3.72.75-.16,1.43-.14,2.04.04l.26,1.21c-.67-.29-1.29-.33-2-.18-1.05.23-1.8.89-1.48,2.37l.13.59Z"/>
                <path class="cls-5" d="m79.87,24.12c.22,1.25,1.06,1.61,2.19,1.51.67-.06,1.29-.29,1.94-.78l.12,1.21c-.61.38-1.28.59-1.97.66-2.24.21-3.43-.81-3.62-2.78l-.06-.63c-.19-1.96.79-3.2,2.77-3.39,1.92-.18,2.81.85,2.92,2.03.12,1.25-.52,1.81-1.71,1.93l-2.59.25Zm-.1-1.04l2.29-.22c.55-.05.84-.25.79-.79-.07-.69-.58-1.16-1.51-1.07-1.04.1-1.68.77-1.57,2.08Z"/>
                <path class="cls-5" d="m90.5,21.47c-.67-.43-1.34-.66-2.11-.67-.47,0-.96.09-1.38.31l-.1,5.24-1.31-.03.12-5.88c.81-.46,1.84-.78,2.86-.76.77.02,1.4.19,1.96.53l-.02,1.25Z"/>
                <path class="cls-5" d="m94.2,24.78c.26-1.35,1.11-1.89,2.8-1.57.71.14,1.37.43,1.82.77l.06-.35c.17-1.07-.14-1.6-1.39-1.84-.71-.14-1.48-.06-2.13.23l.23-1.2c.66-.19,1.4-.26,2.33-.07,1.91.37,2.6,1.4,2.27,3.08l-.66,3.4c-.92.36-1.99.42-3.04.22-2.04-.4-2.55-1.29-2.29-2.66Zm4.16,1.57l.28-1.45c-.42-.31-.97-.51-1.5-.61-1.1-.21-1.53.04-1.66.74-.14.71.2,1.16,1.25,1.36.57.11,1.16.1,1.63-.04Zm1.33-7.66l-.44.33c-.56.42-1.3.84-1.94,1.05l-.44-.6,2.16-1.65.65.87Z"/>
                <path class="cls-5" d="m106.56,24.89c-.53-.6-1.1-1.01-1.83-1.24-.45-.14-.95-.18-1.42-.09l-1.57,5-1.25-.39,1.76-5.6c.9-.22,1.98-.24,2.96.07.73.23,1.29.58,1.73,1.06l-.38,1.19Z"/>
                <path class="cls-5" d="m107.72,27.86c-.42,1.2.13,1.92,1.17,2.38.61.27,1.27.38,2.08.27l-.49,1.11c-.72.03-1.4-.11-2.04-.39-2.06-.91-2.59-2.39-1.79-4.19l.25-.58c.8-1.8,2.25-2.4,4.07-1.6,1.77.78,2.03,2.11,1.56,3.2-.51,1.14-1.34,1.32-2.43.85l-2.38-1.05Zm.42-.96l2.1.93c.51.23.85.2,1.07-.3.28-.64.06-1.3-.79-1.68-.96-.42-1.84-.15-2.38,1.05Z"/>
                <path class="cls-5" d="m112.46,30.7c.71-1.18,1.69-1.4,3.17-.51.62.37,1.14.88,1.45,1.34l.17-.31c.53-.95.41-1.55-.68-2.21-.62-.37-1.37-.56-2.08-.51l.63-1.05c.68.04,1.4.24,2.22.73,1.67,1,1.96,2.21,1.08,3.67l-1.78,2.97c-.99.03-2.01-.28-2.93-.83-1.79-1.07-1.96-2.09-1.24-3.28Zm3.37,2.9l.76-1.27c-.28-.44-.74-.81-1.2-1.09-.96-.58-1.45-.49-1.82.13-.37.62-.21,1.16.71,1.71.5.3,1.06.49,1.55.52Z"/>
                <path class="cls-5" d="m124.23,40.97c-.95-.13-1.78-.48-2.59-1.19-1.65-1.46-1.56-2.83-.22-4.35l.41-.46c1.34-1.51,2.69-1.79,4.13-.51.51.45.83.99.96,1.49l1.99-2.25.98.87-5.67,6.41Zm-1.82-4.67c-.85.96-1.01,1.77,0,2.67.37.33.79.55,1.26.66l2.51-2.84c-.08-.48-.34-.96-.8-1.37-.93-.82-1.71-.55-2.55.41l-.42.47Z"/>
                <path class="cls-5" d="m125.99,40.82c1.04-.91,2.04-.82,3.18.48.48.54.82,1.18.97,1.72l.26-.24c.79-.75.87-1.35.03-2.31-.48-.54-1.14-.95-1.83-1.12l.92-.81c.64.25,1.26.66,1.89,1.37,1.28,1.46,1.19,2.7-.09,3.83l-2.6,2.28c-.95-.28-1.83-.88-2.54-1.69-1.38-1.57-1.23-2.59-.18-3.51Zm2.33,3.79l1.11-.98c-.14-.5-.45-1-.81-1.41-.74-.85-1.23-.9-1.77-.43-.54.48-.55,1.04.16,1.85.38.44.86.79,1.32.96Z"/>
                <path class="cls-5" d="m132.27,48.54c1.18-.71,2.15-.43,3.04,1.04.37.62.59,1.31.64,1.87l.3-.19c.91-.59,1.1-1.17.44-2.27-.37-.62-.95-1.14-1.59-1.43l1.05-.63c.58.36,1.12.87,1.61,1.69,1,1.67.69,2.87-.78,3.75l-2.97,1.77c-.88-.44-1.64-1.2-2.19-2.12-1.07-1.79-.74-2.77.45-3.48Zm1.61,4.14l1.27-.76c-.04-.52-.27-1.06-.55-1.53-.58-.96-1.05-1.11-1.66-.74-.62.37-.73.92-.18,1.84.3.5.7.93,1.12,1.18Z"/>
                <path class="cls-5" d="m136.81,60.26c-.81-.51-1.42-1.18-1.85-2.17-.89-2.01-.23-3.23,1.62-4.04l.57-.25c1.85-.81,3.19-.5,3.97,1.27.27.62.34,1.24.25,1.75l2.75-1.21.53,1.2-7.83,3.44Zm.3-5c-1.17.51-1.66,1.19-1.12,2.42.2.45.49.83.87,1.12l3.47-1.53c.12-.47.09-1.02-.15-1.57-.5-1.13-1.32-1.21-2.49-.7l-.58.25Z"/>
                <path class="cls-5" d="m137.05,62.86l-.33-1.27,5.68-1.48c.61.53,1.2,1.37,1.44,2.29.21.79.18,1.43-.07,1.94.52.49.86,1.08,1.06,1.85.46,1.77-.21,2.76-1.99,3.22l-3.83,1-.33-1.27,3.72-.97c1.19-.31,1.58-.87,1.32-1.86-.12-.45-.33-.83-.68-1.17-.33.2-.71.37-1.18.49l-3.83,1-.33-1.27,3.72-.97c1.19-.31,1.58-.87,1.32-1.86-.1-.38-.33-.75-.6-.99l-5.08,1.32Z"/>
                <path class="cls-5" d="m145.54,71.07l.17,1.3-6.49.84-.17-1.3,6.49-.84Zm1.83-.34l.2-.03c.43-.05.65.2.71.67.06.46-.09.78-.52.83l-.2.03c-.44.06-.65-.21-.71-.67-.06-.48.08-.77.52-.83Z"/>
                <path class="cls-5" d="m139.48,76.02l-.04-1.31,5.87-.19c.52.77.88,1.8.92,2.83.07,2-.81,2.79-2.65,2.86l-3.95.13-.04-1.31,3.84-.13c1.22-.04,1.73-.52,1.69-1.67-.02-.48-.13-.93-.39-1.37l-5.24.17Z"/>
                <path class="cls-5" d="m146.03,82.29l-.08,1.31-6.53-.41.08-1.31,6.53.41Zm1.86.01h.2c.43.04.6.33.57.81-.03.47-.24.74-.67.72h-.2c-.44-.04-.6-.34-.57-.81.03-.48.22-.74.66-.72Z"/>
                <path class="cls-5" d="m142.29,88.78c-.62,1.16-1.13,1.4-2,1.27-1.21-.18-1.73-1.3-1.49-2.92.11-.74.42-1.75.89-2.42l1.24.19c-.57.71-.91,1.59-1.02,2.34-.13.85.06,1.44.59,1.52.34.05.57-.05.87-.61l.89-1.63c.62-1.15,1.11-1.4,1.95-1.28,1.2.18,1.62,1.28,1.38,2.83-.11.73-.34,1.57-.71,2.18l-1.23-.19c.44-.6.73-1.44.83-2.1.13-.86.01-1.35-.5-1.43-.29-.04-.52.06-.82.62l-.87,1.63Z"/>
                <path class="cls-5" d="m144.47,93.05l1.88.49-.33,1.27-1.88-.49-.48,1.86-1.08-.28.48-1.86-3.42-.89c-.64-.16-.96-.04-1.11.55-.1.39-.13.75-.08,1.13l-1.04-.27c-.06-.38-.01-.92.11-1.39.34-1.31,1.2-1.61,2.41-1.29l3.46.9.29-1.12,1.08.28-.29,1.12Z"/>
                <path class="cls-5" d="m140.05,101.56c.63-.49,1.07-1.04,1.34-1.76.16-.44.23-.94.17-1.41l-4.9-1.85.46-1.23,5.49,2.07c.17.91.13,1.99-.23,2.95-.27.72-.65,1.25-1.15,1.67l-1.17-.44Z"/>
                <path class="cls-5" d="m137.22,100.84c1.24.61,1.54,1.57.78,3.11-.32.65-.78,1.21-1.21,1.56l.32.15c.99.44,1.58.28,2.14-.86.32-.65.44-1.42.33-2.12l1.1.54c.02.68-.12,1.42-.54,2.27-.86,1.75-2.03,2.14-3.57,1.39l-3.11-1.52c-.11-.98.11-2.03.58-2.99.92-1.87,1.92-2.13,3.16-1.51Zm-2.6,3.61l1.33.65c.41-.32.75-.8.98-1.29.5-1.01.36-1.48-.29-1.8-.65-.32-1.17-.11-1.64.85-.26.52-.4,1.1-.38,1.58Z"/>
                <path class="cls-5" d="m137.62,109.86l1.65,1.03-.69,1.11-1.65-1.03-1.01,1.63-.94-.59,1.02-1.63-3-1.87c-.56-.35-.9-.32-1.22.19-.21.34-.35.68-.42,1.05l-.91-.57c.06-.38.26-.88.52-1.29.71-1.15,1.62-1.18,2.69-.51l3.03,1.89.61-.99.94.59-.61.99Z"/>
                <path class="cls-5" d="m134.98,113.87l-.78,1.06-5.28-3.86.78-1.06,5.28,3.86Zm1.56,1.01l.16.12c.35.25.34.59.05.98-.28.38-.6.5-.95.25l-.16-.12c-.36-.26-.33-.6-.05-.98.28-.39.59-.51.95-.25Z"/>
                <path class="cls-5" d="m125.65,115.02l1.37-1.55,6.29,2.77-.91,1.03-5.16-2.36-.13.15,2.98,4.84-.9,1.02-3.53-5.89Z"/>
                <path class="cls-5" d="m125.49,118.19c.92,1.03.83,2.03-.45,3.18-.54.48-1.17.83-1.71.99l.25.25c.75.78,1.36.85,2.31,0,.54-.48.94-1.15,1.1-1.83l.82.91c-.24.64-.64,1.27-1.35,1.9-1.45,1.3-2.69,1.22-3.83-.05l-2.31-2.58c.27-.95.86-1.84,1.66-2.56,1.55-1.39,2.57-1.25,3.5-.22Zm-3.76,2.37l.98,1.1c.5-.14.99-.46,1.4-.83.84-.75.89-1.24.41-1.78-.48-.54-1.04-.54-1.84.18-.43.39-.78.87-.95,1.32Z"/>
              </g>
              <circle class="cls-4" cx="86.18" cy="78.34" r="42.31"/>
              <path class="cls-1" d="m110.24,78.38c-.16-1.95-1.73-3.56-3.69-3.62-2.32-.07-4.13,1.9-3.95,4.15l-.25-2.96c-.16-1.95-1.73-3.56-3.69-3.62-2.32-.08-4.13,1.89-3.95,4.13l-.19-2.24c-.17-2.03-1.86-3.66-3.89-3.63-2.17.04-3.84,1.87-3.75,3.98l-.93-11.09c-.16-1.95-1.73-3.56-3.69-3.62-2.32-.07-4.13,1.9-3.95,4.15l2.35,27.86-8.95-8.69c-1.41-1.37-3.64-1.55-5.16-.31-1.8,1.47-1.87,4.15-.26,5.72l7.78,7.56,8.81,8.56.29,3.39.24,2.88c.03.36.19.69.42.93.07.07.14.13.22.19.08.06.16.1.25.14.13.06.28.1.43.12.1.01.2.01.31,0l21.62-1.82c.42-.04.78-.24,1.03-.53.05-.06.09-.12.13-.19l.06-.1c.03-.06.06-.12.08-.19l.04-.15c.04-.15.05-.31.04-.48l-.26-3.1s.5-.51,1.11-1.67l.05-.1c.07-.14.15-.3.23-.46.04-.08.08-.17.12-.25l.04-.08c.06-.13.12-.27.18-.41v-.02c.21-.49.41-1.04.6-1.65.32-1.05.54-2.12.68-3.2.01-.11.03-.22.04-.33.12-1.11.16-2.22.11-3.34l-.16-3.54-.46-10.44-.08-1.92Z"/>
              <path class="cls-8" d="m107.47,75.75c-.16-1.95-1.73-3.56-3.69-3.62-2.32-.07-4.13,1.9-3.95,4.15l-.25-2.96c-.16-1.95-1.73-3.56-3.69-3.62-2.32-.08-4.13,1.89-3.95,4.14l-.19-2.24c-.17-2.03-1.86-3.66-3.89-3.63-2.17.04-3.84,1.87-3.75,3.98l-.93-11.09c-.16-1.95-1.73-3.56-3.69-3.62-2.32-.07-4.13,1.9-3.95,4.15l2.35,27.86-8.95-8.69c-1.41-1.37-3.64-1.55-5.16-.31-1.8,1.47-1.87,4.15-.26,5.72l7.78,7.56,8.81,8.56.29,3.39.24,2.88c.03.36.19.69.42.93.07.07.14.13.22.19.08.06.16.1.25.14.13.06.28.1.43.12.1.01.2.01.31,0l21.62-1.82c.42-.04.78-.24,1.03-.53.05-.06.09-.12.13-.19l.06-.1c.03-.06.06-.12.08-.19l.04-.15c.04-.15.05-.31.04-.48l-.26-3.1s.5-.51,1.11-1.67l.05-.1c.07-.14.15-.3.23-.46.04-.08.08-.17.12-.25l.04-.08c.06-.13.12-.27.17-.41v-.02c.21-.49.41-1.04.6-1.65.32-1.05.54-2.12.68-3.2.01-.11.03-.22.04-.33.12-1.11.16-2.22.11-3.34l-.16-3.54-.46-10.44-.08-1.92Z"/>
              <path class="cls-5" d="m78.32,50.47c.43-.04.76-.42.72-.85l-.4-4.76c-.04-.43-.42-.76-.85-.72s-.76.42-.72.85l.4,4.76c.04.43.42.76.85.72Z"/>
              <path class="cls-5" d="m87.82,58.5c.04.44.42.76.85.72l4.76-.4c.43-.04.76-.42.72-.85s-.42-.76-.85-.72l-4.76.4c-.43.04-.76.42-.72.85Z"/>
              <path class="cls-5" d="m64.81,61.23l4.76-.4c.44-.04.76-.42.72-.85s-.42-.76-.85-.72l-4.76.4c-.44.04-.76.42-.72.85s.42.76.85.72Z"/>
              <path class="cls-5" d="m84.73,52.52c.17.14.37.2.58.18s.4-.11.54-.28l3.08-3.65c.28-.33.24-.83-.09-1.11-.33-.28-.83-.24-1.11.09l-3.08,3.65c-.28.33-.24.83.09,1.11Z"/>
              <path class="cls-5" d="m69.86,70.99c.2-.02.4-.11.54-.28l3.08-3.65c.28-.33.24-.83-.09-1.11-.33-.28-.83-.24-1.11.09l-3.08,3.65c-.28.33-.24.83.09,1.11.17.14.38.2.58.18Z"/>
              <path class="cls-5" d="m71.22,53.65c.17.14.37.2.58.18s.4-.11.54-.28c.28-.33.24-.83-.09-1.11l-3.65-3.08c-.33-.28-.83-.24-1.11.09-.28.33-.24.83.09,1.11l3.65,3.08Z"/>
              <path class="cls-5" d="m81.82,50.89c.1.03.21.05.31.04.31-.03.58-.23.68-.54l1.5-4.53c.14-.41-.09-.86-.5-1-.42-.14-.86.09-1,.5l-1.5,4.53c-.14.41.09.86.5,1Z"/>
              <path class="cls-5" d="m88.4,61.49c-.41-.14-.86.09-1,.5-.14.41.09.86.5,1l4.53,1.5c.1.03.21.05.31.04.31-.03.58-.23.68-.54.14-.41-.09-.86-.5-1l-4.53-1.5Z"/>
              <path class="cls-5" d="m65.17,55.48l4.53,1.5c.1.03.21.05.31.04.31-.03.58-.23.68-.54.14-.41-.09-.86-.5-1l-4.53-1.5c-.41-.14-.86.09-1,.5-.14.41.09.86.5,1Z"/>
              <path class="cls-5" d="m86.91,55.28c.15.3.46.46.77.43.1,0,.2-.03.29-.08l4.26-2.15c.39-.2.55-.67.35-1.06-.2-.39-.67-.55-1.06-.35l-4.26,2.15c-.39.2-.55.67-.35,1.06Z"/>
              <path class="cls-5" d="m71.2,63.19c-.2-.39-.67-.55-1.06-.35l-4.26,2.15c-.39.2-.55.67-.35,1.06.15.3.46.46.77.43.1,0,.2-.03.29-.08l4.26-2.15c.39-.2.55-.67.35-1.06Z"/>
              <path class="cls-5" d="m74.04,51.03c.15.3.46.46.77.43.1,0,.2-.04.29-.08.39-.2.55-.67.35-1.06l-2.15-4.26c-.2-.39-.67-.55-1.06-.35-.39.2-.55.67-.35,1.06l2.15,4.26Z"/>
              <path class="cls-5" d="m97.79,94.78c-4.33,2.31-9.61,3.61-14.82,3.19-4.5-.32-8.29-2.02-11.66-4.45l8.81,8.56.29,3.39.24,2.88c.03.36.19.69.42.93.07.07.14.13.22.19.08.06.16.1.25.14.13.06.28.1.43.12.1.01.2.01.31,0l21.62-1.82c.42-.04.78-.24,1.03-.53.05-.06.09-.12.13-.19l.06-.1c.03-.06.06-.12.08-.19.07-.19.1-.41.08-.63l-.26-3.1s.5-.51,1.11-1.67l.05-.1c.07-.14.15-.3.23-.46.04-.08.08-.17.12-.25l.04-.08c.06-.13.12-.27.17-.41v-.02c.21-.49.41-1.04.6-1.65.32-1.05.54-2.12.68-3.2.01-.11.03-.22.04-.33.12-1.11.16-2.22.11-3.34l-.16-3.54-.46-10.44c-1.34,6.82-3.52,13.75-9.76,17.12Z"/>
            </g>
            <path class="cls-5" d="m90.94,157.87l14.65-26.04c1.08-1.92-.32-4.28-2.52-4.26l-15.28,2.9-14.6-2.57c-2.2.02-3.55,2.42-2.43,4.31l15.22,25.71c1.12,1.89,3.87,1.86,4.95-.05Z"/>
          </g>
        </g>
      </g>
    </g>
  </g>
</svg>