<?xml version="1.0" encoding="UTF-8"?>
<svg xmlns="http://www.w3.org/2000/svg" viewBox="0 0 142.95 142.25">
  <defs>
    <style>
      .cls-1 {
        fill: #8ab9d3;
        opacity: .25;
      }

      .cls-2 {
        fill: #fff;
      }

      .cls-3 {
        fill: #004991;
      }

      .cls-4 {
        fill: #045aa0;
      }

      .cls-5 {
        isolation: isolate;
      }

      .cls-6 {
        fill: #3a7ec1;
        mix-blend-mode: multiply;
        opacity: .2;
      }
    </style>
  </defs>
  <g class="cls-5">
    <g id="Layer_2" data-name="Layer 2">
      <g id="Camada_1" data-name="Camada 1">
        <g>
          <circle class="cls-6" cx="72.5" cy="88.94" r="45.03" transform="translate(-23.02 152.5) rotate(-84.45)"/>
          <circle class="cls-3" cx="70.38" cy="82.64" r="45.03"/>
          <g>
            <path class="cls-4" d="m18.62,82.93c1.39.03,1.88-.75,1.91-1.76.02-.68-.12-1.23-.51-1.79l1.15.03c.27.52.41,1.14.39,1.85-.05,1.98-1.13,2.94-2.97,2.89h-.56c-1.84-.06-2.87-1.07-2.82-3.05.02-.71.18-1.32.48-1.83l1.15.03c-.41.54-.58,1.09-.59,1.77-.02,1,.41,1.82,1.82,1.85h.56Z"/>
            <path class="cls-4" d="m13.26,76.01l7.2.83c.33.04.46-.08.49-.37.03-.22.03-.47,0-.71l1,.12c.02.27,0,.63-.03.96-.1.9-.57,1.33-1.57,1.21l-7.23-.83.14-1.21Z"/>
            <path class="cls-4" d="m14.37,73.71l-.18-.03c-.39-.07-.52-.36-.44-.79.08-.43.3-.66.69-.59l.18.03c.4.07.52.37.44.79-.08.44-.29.66-.69.59Zm1.71.21l.22-1.2,5.97,1.08-.22,1.2-5.97-1.08Z"/>
            <path class="cls-4" d="m26.3,68.02l-.33,1.17-2.69-.75c.15.46.17,1.03,0,1.64-.48,1.73-1.67,2.19-3.47,1.69l-.55-.15c-1.81-.5-2.57-1.53-2.02-3.49.27-.96.74-1.66,1.41-2.24l7.65,2.13Zm-6.15,2.59c1.14.32,1.89.13,2.19-.97.15-.54.11-1.05-.07-1.47l-3.39-.94c-.31.32-.52.71-.65,1.15-.34,1.21.2,1.76,1.34,2.08l.56.16Z"/>
            <path class="cls-4" d="m20.18,60.42l.47-1.12,5.02,2.12c.14.85.04,1.86-.33,2.74-.72,1.71-1.76,2.02-3.33,1.35l-3.38-1.43.47-1.12,3.28,1.39c1.05.44,1.65.25,2.06-.73.17-.41.25-.84.21-1.3l-4.48-1.89Z"/>
            <path class="cls-4" d="m25.15,58.53c1.06.51,1.79.07,2.32-.84.31-.54.48-1.13.46-1.89l.97.56c-.05.66-.24,1.28-.57,1.84-1.05,1.81-2.47,2.15-4.05,1.23l-.51-.29c-1.58-.92-1.99-2.32-1.06-3.92.9-1.55,2.16-1.66,3.11-1.11,1,.58,1.09,1.38.53,2.33l-1.21,2.09Zm-.84-.49l1.07-1.85c.26-.45.27-.77-.17-1.02-.56-.32-1.19-.19-1.63.56-.49.84-.32,1.68.73,2.3Z"/>
            <path class="cls-4" d="m29.94,52.1c-.97-.83-1.02-1.76,0-2.98.43-.51.97-.91,1.45-1.12l-.26-.2c-.79-.63-1.35-.61-2.12.29-.43.51-.72,1.17-.78,1.83l-.87-.74c.14-.62.43-1.25,1-1.92,1.17-1.38,2.32-1.46,3.52-.44l2.45,2.08c-.13.91-.56,1.8-1.21,2.56-1.25,1.47-2.21,1.48-3.19.64Zm3.16-2.65l-1.04-.89c-.44.19-.85.55-1.18.94-.68.79-.66,1.25-.15,1.68.51.43,1.03.37,1.67-.39.35-.41.61-.9.71-1.34Z"/>
            <path class="cls-4" d="m41.05,46.85l-.9.82-1.88-2.06c-.11.47-.4.97-.87,1.4-1.32,1.21-2.58.97-3.84-.41l-.39-.42c-1.27-1.38-1.37-2.66.14-4.04.74-.67,1.51-1.01,2.38-1.15l5.36,5.86Zm-6.58-1.06c.8.87,1.53,1.11,2.38.34.42-.38.65-.83.72-1.28l-2.38-2.6c-.43.11-.82.32-1.16.63-.93.85-.76,1.6.04,2.48l.4.43Z"/>
            <path class="cls-4" d="m39.88,37.16l1-.7,3.14,4.46c-.33.79-.95,1.6-1.73,2.15-1.51,1.07-2.56.78-3.54-.61l-2.11-3,1-.7,2.05,2.91c.65.93,1.27,1.09,2.14.47.36-.26.66-.58.86-1l-2.8-3.98Z"/>
            <path class="cls-4" d="m41.7,34.02l-.09-.16c-.2-.35-.06-.63.33-.85.38-.21.7-.2.9.15l.09.16c.2.36.05.63-.33.85-.39.22-.69.21-.89-.15Zm.93,1.45l1.06-.6,3,5.27-1.06.6-3-5.27Z"/>
            <path class="cls-4" d="m48.54,33.09c.51-.72,1.16-1.26,2.09-1.62,1.92-.73,3-.07,3.67,1.68l.21.54c.67,1.75.32,2.98-1.35,3.62-.59.23-1.17.26-1.64.15l1,2.6-1.14.44-2.84-7.41Zm4.62.5c-.42-1.1-1.01-1.59-2.19-1.14-.43.16-.79.42-1.08.75l1.26,3.28c.43.14.95.12,1.47-.07,1.07-.41,1.18-1.17.76-2.27l-.21-.55Z"/>
            <path class="cls-4" d="m55.65,34.29c-.32-1.24.18-2.03,1.73-2.43.65-.17,1.32-.18,1.83-.08l-.09-.31c-.28-.97-.75-1.28-1.9-.99-.65.17-1.27.54-1.69,1.04l-.28-1.1c.47-.42,1.07-.77,1.93-.99,1.75-.45,2.74.15,3.13,1.68l.8,3.11c-.63.67-1.5,1.15-2.46,1.39-1.87.48-2.66-.07-2.98-1.32Zm4.11-.34l-.34-1.33c-.47-.1-1.02-.04-1.5.08-1.01.26-1.26.64-1.1,1.29.17.65.63.89,1.59.65.52-.13,1.02-.38,1.35-.68Z"/>
            <path class="cls-4" d="m66.17,29.52c-.68-.3-1.32-.42-2.03-.33-.43.06-.87.22-1.23.48l.62,4.83-1.21.16-.7-5.41c.68-.54,1.58-.97,2.52-1.09.71-.09,1.31-.02,1.87.22l.15,1.15Z"/>
            <path class="cls-4" d="m66.83,32.19c-.03-1.28.64-1.94,2.24-1.97.67-.01,1.33.13,1.8.34l-.02-.33c-.05-1.01-.44-1.42-1.62-1.4-.67.01-1.35.24-1.89.62l-.02-1.14c.56-.3,1.22-.51,2.1-.52,1.81-.04,2.63.77,2.66,2.35l.06,3.21c-.76.51-1.72.77-2.72.79-1.93.04-2.57-.68-2.59-1.97Zm4.08.61l-.03-1.37c-.44-.2-.98-.27-1.48-.26-1.04.02-1.38.33-1.36,1,.01.67.41,1.01,1.4.99.54-.01,1.08-.14,1.47-.36Z"/>
            <path class="cls-4" d="m78.63,26.02l-.97,7.18c-.04.33.07.46.36.5.22.03.47.04.71.01l-.14,1c-.27.01-.63,0-.96-.05-.89-.12-1.32-.59-1.18-1.59l.98-7.21,1.21.16Z"/>
            <path class="cls-4" d="m80.75,32.57c-.18,1.16.45,1.73,1.48,1.97.6.14,1.22.13,1.94-.11l-.26,1.1c-.65.15-1.3.14-1.92,0-2.03-.48-2.77-1.73-2.35-3.51l.13-.57c.42-1.78,1.64-2.58,3.44-2.15,1.75.41,2.22,1.58,1.97,2.65-.26,1.13-1,1.44-2.07,1.19l-2.35-.55Zm.22-.95l2.08.49c.5.12.81.03.93-.46.15-.63-.17-1.19-1.01-1.39-.95-.22-1.7.18-1.99,1.36Z"/>
            <path class="cls-4" d="m90.87,33.38c-.47-.58-.98-.97-1.66-1.21-.41-.15-.88-.2-1.31-.13l-1.64,4.58-1.15-.41,1.83-5.13c.85-.17,1.85-.15,2.74.17.67.24,1.17.58,1.57,1.05l-.39,1.09Z"/>
            <path class="cls-4" d="m93.14,37.38c.63-1.11,1.54-1.34,2.93-.56.58.33,1.08.78,1.38,1.21l.15-.29c.46-.9.34-1.45-.69-2.03-.58-.33-1.29-.48-1.94-.42l.56-.99c.63.02,1.31.19,2.07.62,1.57.89,1.87,2,1.1,3.38l-1.58,2.8c-.92.05-1.87-.21-2.74-.7-1.69-.95-1.87-1.89-1.24-3.01Zm3.2,2.6l.67-1.19c-.27-.4-.7-.73-1.14-.98-.91-.51-1.35-.41-1.68.17-.33.58-.16,1.08.7,1.57.47.26,1,.43,1.45.44Z"/>
            <path class="cls-4" d="m104.34,46.64c-.88-.1-1.67-.4-2.43-1.04-1.56-1.31-1.52-2.58-.32-4.02l.37-.44c1.2-1.44,2.44-1.73,3.82-.58.49.41.8.89.93,1.36l1.79-2.14.93.78-5.09,6.09Zm-1.81-4.28c-.76.91-.89,1.67.07,2.47.35.29.75.49,1.18.58l2.26-2.7c-.09-.44-.35-.88-.78-1.25-.88-.74-1.6-.47-2.36.44l-.38.45Z"/>
            <path class="cls-4" d="m107.25,46.97c-.79.87-.59,1.69.13,2.46.42.45.94.79,1.67.99l-.82.77c-.62-.24-1.16-.61-1.59-1.08-1.42-1.53-1.33-2.98,0-4.23l.43-.4c1.34-1.24,2.8-1.22,4.06.13,1.22,1.31.96,2.55.15,3.3-.85.79-1.63.64-2.38-.17l-1.64-1.77Zm.71-.66l1.45,1.56c.35.38.65.48,1.02.14.47-.44.53-1.08-.06-1.72-.66-.71-1.51-.8-2.41.02Z"/>
            <path class="cls-4" d="m109.57,53.39l-.71-.99,4.43-3.17c.79.32,1.61.94,2.16,1.71,1.08,1.51.82,2.57-.57,3.57l-2.98,2.14-.71-.99,2.9-2.07c.92-.66,1.06-1.29.44-2.16-.26-.36-.58-.65-1-.85l-3.95,2.83Z"/>
            <path class="cls-4" d="m119.73,58.25l.57,1.07-4.8,2.57c-.75-.42-1.47-1.14-1.92-1.98-.87-1.63-.47-2.63,1.04-3.44l3.23-1.73.58,1.07-3.14,1.68c-1,.54-1.23,1.12-.73,2.06.21.39.49.72.88.98l4.29-2.29Zm1.98-1.24l-.49-.12c-.63-.16-1.36-.44-1.89-.78l.18-.67,2.45.59-.25.98Z"/>
            <path class="cls-4" d="m115.85,64.37l-.43-1.14,5.1-1.93c.68.52,1.31,1.32,1.65,2.21.65,1.73.13,2.69-1.47,3.3l-3.43,1.3-.43-1.14,3.33-1.26c1.06-.4,1.36-.98.98-1.97-.16-.42-.39-.78-.75-1.08l-4.55,1.72Z"/>
            <path class="cls-4" d="m120.48,69.51c-1.35.35-1.61,1.23-1.36,2.21.17.66.45,1.15.98,1.59l-1.11.29c-.4-.43-.7-.98-.88-1.68-.49-1.92.29-3.14,2.07-3.59l.54-.14c1.78-.46,3.05.24,3.54,2.16.18.69.18,1.32.04,1.89l-1.11.28c.25-.63.26-1.2.09-1.86-.25-.97-.89-1.64-2.25-1.29l-.55.14Z"/>
            <path class="cls-4" d="m124.85,73.95l.19,1.2-6,.94-.19-1.2,6-.94Zm1.69-.36l.19-.03c.39-.06.61.17.68.61.07.43-.06.72-.46.78l-.19.03c-.41.06-.61-.18-.68-.61-.07-.44.05-.72.46-.78Z"/>
            <path class="cls-4" d="m121.13,77.15c1.28-.08,1.96.56,2.06,2.15.04.67-.07,1.33-.26,1.81l.33-.03c1-.1,1.4-.5,1.32-1.68-.04-.67-.3-1.34-.71-1.86l1.13-.07c.33.54.56,1.2.61,2.07.12,1.8-.65,2.66-2.23,2.76l-3.21.21c-.54-.74-.85-1.68-.91-2.68-.12-1.93.56-2.6,1.85-2.68Zm-.43,4.1l1.37-.09c.18-.45.23-.99.2-1.49-.07-1.04-.39-1.36-1.06-1.32-.67.04-.99.45-.93,1.45.04.54.19,1.07.42,1.45Z"/>
          </g>
          <circle class="cls-2" cx="70" cy="82.22" r="39.26"/>
          <path class="cls-1" d="m92.33,82.26c-.15-1.81-1.61-3.3-3.43-3.36-2.15-.07-3.84,1.76-3.66,3.85l-.23-2.75c-.15-1.81-1.6-3.3-3.42-3.36-2.15-.07-3.83,1.76-3.66,3.84l-.17-2.08c-.16-1.88-1.72-3.4-3.61-3.36-2.01.04-3.56,1.74-3.48,3.69l-.87-10.29c-.15-1.81-1.61-3.3-3.43-3.36-2.15-.07-3.84,1.76-3.66,3.85l2.18,25.85-8.3-8.07c-1.31-1.27-3.38-1.44-4.79-.29-1.67,1.36-1.74,3.85-.24,5.31l7.22,7.01,8.18,7.94.26,3.14.22,2.67c.03.34.17.64.39.86.06.06.13.12.21.17.07.05.15.1.24.13.12.05.26.09.4.11.09.01.19.01.28,0l20.06-1.69c.39-.03.72-.22.95-.49.05-.05.09-.11.12-.17l.05-.09c.03-.06.05-.11.08-.18l.04-.14c.03-.14.05-.29.03-.44l-.24-2.88s.46-.47,1.03-1.55l.05-.1c.07-.13.14-.28.21-.43.04-.08.07-.15.11-.24l.03-.08c.05-.12.11-.25.16-.38v-.02c.19-.45.38-.96.55-1.53.3-.97.5-1.97.63-2.97.01-.1.03-.2.04-.31.12-1.03.15-2.06.1-3.1l-.14-3.28-.43-9.69-.08-1.78Z"/>
          <path class="cls-4" d="m89.75,79.81c-.15-1.81-1.61-3.3-3.43-3.36-2.15-.07-3.84,1.76-3.66,3.85l-.23-2.75c-.15-1.81-1.6-3.3-3.42-3.36-2.15-.07-3.83,1.76-3.66,3.84l-.18-2.08c-.16-1.88-1.72-3.4-3.61-3.36-2.01.04-3.56,1.74-3.48,3.69l-.87-10.29c-.15-1.81-1.61-3.3-3.43-3.36-2.15-.07-3.84,1.76-3.66,3.85l2.18,25.85-8.3-8.07c-1.31-1.27-3.38-1.44-4.79-.29-1.67,1.36-1.74,3.85-.24,5.31l7.22,7.01,8.18,7.94.26,3.14.22,2.67c.03.34.17.64.39.86.06.06.13.12.21.17.07.05.15.1.24.13.12.05.26.09.4.11.09.01.19.01.28,0l20.06-1.69c.39-.03.72-.22.95-.49.05-.05.09-.11.12-.17l.05-.09c.03-.06.05-.11.08-.18l.04-.14c.03-.14.05-.29.03-.44l-.24-2.88s.46-.47,1.03-1.55l.05-.1c.07-.13.14-.28.21-.43.04-.08.07-.15.11-.24l.04-.08c.05-.12.11-.25.16-.38v-.02c.19-.45.38-.96.55-1.53.3-.97.5-1.97.63-2.97.01-.1.03-.2.04-.31.12-1.03.15-2.06.1-3.1l-.14-3.28-.43-9.69-.08-1.78Z"/>
          <path class="cls-3" d="m62.7,56.36c.4-.03.7-.39.67-.79l-.37-4.41c-.03-.4-.39-.7-.79-.67s-.7.39-.67.79l.37,4.41c.03.4.39.7.79.67Z"/>
          <path class="cls-3" d="m71.52,63.81c.03.4.39.7.79.67l4.41-.37c.4-.03.7-.39.67-.79s-.39-.7-.79-.67l-4.41.37c-.4.03-.7.39-.67.79Z"/>
          <path class="cls-3" d="m50.17,66.34l4.41-.37c.4-.03.7-.39.67-.79s-.39-.7-.79-.67l-4.41.37c-.4.03-.7.39-.67.79s.39.7.79.67Z"/>
          <path class="cls-3" d="m68.65,58.26c.15.13.35.19.53.17s.37-.1.5-.26l2.86-3.38c.26-.31.22-.77-.09-1.03-.31-.26-.77-.22-1.03.09l-2.86,3.38c-.26.31-.22.77.09,1.03Z"/>
          <path class="cls-3" d="m54.85,75.4c.19-.02.37-.1.5-.26l2.86-3.38c.26-.31.22-.77-.09-1.03-.31-.26-.77-.22-1.03.09l-2.86,3.38c-.26.31-.22.77.09,1.03.15.13.35.19.53.17Z"/>
          <path class="cls-3" d="m56.12,59.31c.15.13.35.19.53.17s.37-.1.5-.26c.26-.31.22-.77-.09-1.03l-3.38-2.86c-.31-.26-.77-.22-1.03.09-.26.31-.22.77.09,1.03l3.38,2.86Z"/>
          <path class="cls-3" d="m65.95,56.75c.1.03.2.04.29.03.28-.02.54-.21.64-.5l1.39-4.21c.13-.38-.08-.8-.47-.93-.39-.13-.8.08-.93.47l-1.39,4.21c-.13.38.08.8.47.93Z"/>
          <path class="cls-3" d="m72.06,66.59c-.38-.13-.8.08-.93.47-.13.38.08.8.47.93l4.21,1.39c.1.03.2.04.29.03.28-.02.54-.21.64-.5.13-.38-.08-.8-.47-.93l-4.21-1.39Z"/>
          <path class="cls-3" d="m50.51,61.01l4.21,1.39c.1.03.2.04.29.03.28-.02.54-.21.64-.5.13-.38-.08-.8-.47-.93l-4.21-1.39c-.38-.13-.8.08-.93.47-.13.38.08.8.47.93Z"/>
          <path class="cls-3" d="m70.68,60.83c.14.28.43.43.72.4.09,0,.18-.03.27-.08l3.96-1.99c.36-.18.51-.62.33-.98-.18-.36-.62-.51-.98-.33l-3.96,1.99c-.36.18-.51.62-.33.98Z"/>
          <path class="cls-3" d="m56.1,68.16c-.18-.36-.62-.51-.98-.33l-3.96,1.99c-.36.18-.51.62-.33.98.14.28.43.43.72.4.09,0,.18-.03.27-.08l3.96-1.99c.36-.18.51-.62.33-.98Z"/>
          <path class="cls-3" d="m58.74,56.88c.14.28.43.43.72.4.09,0,.18-.03.27-.08.36-.18.51-.62.33-.98l-1.99-3.96c-.18-.36-.62-.51-.98-.33-.36.18-.51.62-.33.98l1.99,3.96Z"/>
          <path class="cls-3" d="m80.77,97.47c-4.02,2.14-8.92,3.35-13.75,2.96-4.18-.29-7.7-1.87-10.82-4.13l8.18,7.94.26,3.14.22,2.67c.03.34.17.64.39.86.06.06.13.12.21.17.07.05.15.1.24.13.12.05.26.09.4.11.09.01.19.01.28,0l20.06-1.69c.39-.03.72-.22.95-.49.05-.05.09-.11.12-.17l.05-.09c.03-.06.05-.11.08-.18.06-.18.09-.38.07-.58l-.24-2.88s.46-.47,1.03-1.55l.05-.1c.07-.13.14-.28.21-.43.04-.08.07-.15.11-.24l.04-.08c.05-.12.11-.25.16-.38v-.02c.19-.45.38-.96.55-1.53.3-.97.5-1.97.63-2.97.01-.1.03-.2.04-.31.12-1.03.15-2.06.1-3.1l-.14-3.28-.43-9.69c-1.25,6.33-3.26,12.75-9.06,15.88Z"/>
        </g>
      </g>
    </g>
  </g>
</svg>