<?xml version="1.0" encoding="UTF-8"?>
<svg xmlns="http://www.w3.org/2000/svg" xmlns:xlink="http://www.w3.org/1999/xlink" viewBox="0 0 1922.91 1081.64">
  <defs>
    <style>
      .cls-1 {
        fill: url(#linear-gradient-2);
      }

      .cls-2 {
        fill: #f0f0f0;
      }

      .cls-3 {
        opacity: .7;
      }

      .cls-4, .cls-5, .cls-6 {
        fill: #fff;
      }

      .cls-7 {
        fill: #b9c5d6;
      }

      .cls-5 {
        opacity: .9;
      }

      .cls-8 {
        fill: #282829;
      }

      .cls-9 {
        fill: #5482aa;
      }

      .cls-10 {
        fill: #cee2fd;
      }

      .cls-11 {
        fill: #555c61;
      }

      .cls-12 {
        isolation: isolate;
      }

      .cls-13 {
        fill: #2e4b63;
      }

      .cls-14, .cls-15, .cls-16, .cls-17, .cls-18, .cls-19 {
        opacity: .2;
      }

      .cls-20 {
        fill: #838f96;
        mix-blend-mode: multiply;
        opacity: .45;
      }

      .cls-21 {
        opacity: .05;
      }

      .cls-21, .cls-16 {
        fill: #231f20;
      }

      .cls-22 {
        fill: #dedede;
      }

      .cls-23 {
        fill: #cfcfcf;
      }

      .cls-24 {
        fill: #050b0f;
        opacity: .24;
      }

      .cls-24, .cls-25 {
        mix-blend-mode: overlay;
      }

      .cls-26 {
        fill: #212021;
      }

      .cls-27 {
        fill: #44749b;
      }

      .cls-15 {
        fill: url(#linear-gradient-4);
      }

      .cls-15, .cls-17, .cls-18, .cls-19 {
        mix-blend-mode: screen;
      }

      .cls-28 {
        fill: #d6f1ff;
      }

      .cls-29 {
        fill: #f1f2f2;
      }

      .cls-30 {
        fill: #5d5e61;
      }

      .cls-31 {
        fill: #f9f9f9;
      }

      .cls-32 {
        clip-path: url(#clippath);
      }

      .cls-33 {
        fill: #313540;
      }

      .cls-34 {
        fill: #ebebeb;
      }

      .cls-35 {
        fill: none;
      }

      .cls-36 {
        opacity: .14;
      }

      .cls-37 {
        fill: #535866;
      }

      .cls-38 {
        fill: url(#linear-gradient-7);
      }

      .cls-39 {
        fill: #4f5967;
      }

      .cls-40 {
        fill: #e64750;
      }

      .cls-6 {
        opacity: .13;
      }

      .cls-41 {
        fill: #7b858c;
      }

      .cls-42 {
        fill: #c2c2c2;
      }

      .cls-43 {
        fill: url(#linear-gradient);
      }

      .cls-44 {
        fill: #c43f46;
      }

      .cls-45 {
        fill: #b9ddf2;
      }

      .cls-17 {
        fill: url(#linear-gradient-5);
      }

      .cls-18 {
        fill: url(#linear-gradient-6);
      }

      .cls-46 {
        fill: #373d40;
      }

      .cls-47 {
        fill: #3c3b3d;
      }

      .cls-48 {
        fill: url(#radial-gradient);
        mix-blend-mode: soft-light;
        opacity: .5;
      }

      .cls-19 {
        fill: url(#linear-gradient-3);
      }

      .cls-49 {
        fill: #b7043c;
      }
    </style>
    <clipPath id="clippath">
      <rect class="cls-35" width="1920" height="1080"/>
    </clipPath>
    <linearGradient id="linear-gradient" x1="1613.35" y1="160.59" x2="1613.35" y2="922.39" gradientTransform="translate(3226.7 1151.94) rotate(-180)" gradientUnits="userSpaceOnUse">
      <stop offset="0" stop-color="#9dadb8"/>
      <stop offset="1" stop-color="#6c7a82"/>
    </linearGradient>
    <linearGradient id="linear-gradient-2" x1="-426.71" y1="1334.91" x2="-426.71" y2="933.98" gradientUnits="userSpaceOnUse">
      <stop offset="0" stop-color="#adbec9"/>
      <stop offset="1" stop-color="#4c565c"/>
    </linearGradient>
    <linearGradient id="linear-gradient-3" x1="13541.69" y1="988.99" x2="13541.69" y2="1440.04" gradientTransform="translate(3791.57) rotate(-180) scale(.24 -1)" gradientUnits="userSpaceOnUse">
      <stop offset="0" stop-color="#fff"/>
      <stop offset="1" stop-color="#000"/>
    </linearGradient>
    <linearGradient id="linear-gradient-4" x1="1235.74" x2="1235.74" gradientTransform="matrix(1, 0, 0, 1, 0, 0)" xlink:href="#linear-gradient-3"/>
    <linearGradient id="linear-gradient-5" x1="2010.17" y1="989.02" x2="2010.17" y2="1440.06" gradientTransform="matrix(1, 0, 0, 1, 0, 0)" xlink:href="#linear-gradient-3"/>
    <linearGradient id="linear-gradient-6" x1="25.07" x2="25.07" gradientTransform="matrix(1, 0, 0, 1, 0, 0)" xlink:href="#linear-gradient-3"/>
    <linearGradient id="linear-gradient-7" x1="1613.35" y1="14323.63" x2="1613.35" y2="14825.82" gradientTransform="translate(3226.7 -3152.03) rotate(-180) scale(1 -.29)" xlink:href="#linear-gradient"/>
    <radialGradient id="radial-gradient" cx="-2207.94" cy="120.4" fx="-2207.94" fy="120.4" r="2458.24" gradientTransform="translate(-8.83 1.63)" gradientUnits="userSpaceOnUse">
      <stop offset="0" stop-color="#b4cbde"/>
      <stop offset="1" stop-color="#15161a"/>
    </radialGradient>
  </defs>
  <g class="cls-12">
    <g id="Layer_2" data-name="Layer 2">
      <g id="Camada_1" data-name="Camada 1">
        <g>
          <g class="cls-32">
            <g>
              <rect class="cls-22" x="-3010.33" y="-124.4" width="5167.24" height="1098.14"/>
              <rect class="cls-20" x="469.14" y="720.07" width="1687.77" height="253.7"/>
              <rect class="cls-2" x="-3010.33" y="942" width="5167.24" height="31.73"/>
              <rect class="cls-42" x="-1302.18" y="-124.4" width="1771.32" height="1098.17"/>
              <rect class="cls-23" x="-578.51" y="-124.4" width="1047.58" height="1098.17"/>
              <polygon class="cls-20" points="469.14 720.07 -578.55 770.74 -578.51 973.77 469.1 973.77 469.14 720.07"/>
              <polygon class="cls-34" points="-1302.18 105.78 -578.51 105.78 357.71 -124.4 -1302.18 -124.4 -1302.18 105.78"/>
              <polygon class="cls-4" points="-578.55 956.27 469.03 942 469.1 973.77 -578.55 973.77 -578.55 956.27"/>
              <g>
                <polygon class="cls-16" points="-578.51 721.69 -578.51 753.48 451.75 703.12 451.75 643.19 -578.51 721.69"/>
                <polygon class="cls-4" points="-578.51 717.56 -578.51 749.35 447.22 696.37 447.22 636.44 -578.51 717.56"/>
                <polygon class="cls-16" points="-578.51 725.13 -578.51 745.21 447.22 688.57 447.22 650.71 -578.51 725.13"/>
                <polygon class="cls-45" points="-578.51 723.16 -578.51 743.24 447.22 684.86 447.22 646.99 -578.51 723.16"/>
                <polygon class="cls-28" points="18.87 709.24 96.33 704.83 121.77 671.16 42.2 677.07 18.87 709.24"/>
                <polygon class="cls-28" points="-227.91 723.28 5.56 709.99 28.54 678.08 -210.71 695.84 -227.91 723.28"/>
                <polygon class="cls-28" points="340.87 654.89 309.12 692.72 447.22 684.86 447.22 646.99 340.87 654.89"/>
              </g>
              <g class="cls-3">
                <polygon class="cls-4" points="122.86 562.65 -181.69 592.86 -181.69 385.99 122.86 340.11 122.86 562.65"/>
                <polygon class="cls-41" points="122.86 324.53 -181.69 371.5 -181.69 385.99 122.86 340.11 122.86 324.53"/>
                <g>
                  <polygon class="cls-7" points="56.33 504.95 -4.04 512 -4.04 508.4 56.33 501.3 56.33 504.95"/>
                  <polygon class="cls-7" points="55.65 529.09 -4.7 535.8 -4.7 532.2 55.65 525.44 55.65 529.09"/>
                  <polygon class="cls-7" points="67.4 515.72 -4.04 523.86 -4.04 520.26 67.4 512.06 67.4 515.72"/>
                  <polygon class="cls-7" points="7.64 392.82 -18.14 396.55 -18.14 392.96 7.64 389.21 7.64 392.82"/>
                  <polygon class="cls-7" points="2.61 403.34 -15.01 405.85 -15.01 402.26 2.61 399.73 2.61 403.34"/>
                  <polygon class="cls-7" points="12.01 411.12 -18.14 415.35 -18.14 411.77 12.01 407.51 12.01 411.12"/>
                  <polygon class="cls-7" points="2.25 423.14 -15.01 425.52 -15.01 421.93 2.25 419.54 2.25 423.14"/>
                  <polygon class="cls-7" points="64.12 384.64 15.04 391.75 15.04 388.13 64.12 380.98 64.12 384.64"/>
                  <polygon class="cls-7" points="64.12 394.57 42.95 397.59 42.95 393.95 64.12 390.91 64.12 394.57"/>
                  <polygon class="cls-7" points="64.12 403.81 53.05 405.37 53.05 401.71 64.12 400.15 64.12 403.81"/>
                  <polygon class="cls-7" points="46.88 406.23 38.91 407.35 38.91 403.71 46.88 402.59 46.88 406.23"/>
                  <polygon class="cls-7" points="7.64 433.24 -18.14 436.72 -18.14 433.13 7.64 429.63 7.64 433.24"/>
                  <polygon class="cls-7" points="2.61 443.71 -15.01 446.05 -15.01 442.46 2.61 440.1 2.61 443.71"/>
                  <polygon class="cls-7" points="12.01 454.69 -18.14 458.6 -18.14 455.01 12.01 451.07 12.01 454.69"/>
                  <polygon class="cls-7" points="62.45 463.93 -3.08 472.2 -3.08 465.74 62.45 457.37 62.45 463.93"/>
                  <polygon class="cls-7" points="64.12 425.6 15.04 432.24 15.04 428.62 64.12 421.94 64.12 425.6"/>
                  <polygon class="cls-7" points="64.12 435.54 42.95 438.35 42.95 434.71 64.12 431.88 64.12 435.54"/>
                  <polygon class="cls-7" points="64.12 447.91 53.05 449.35 53.05 445.7 64.12 444.25 64.12 447.91"/>
                  <polygon class="cls-7" points="46.88 450.15 38.91 451.19 38.91 447.55 46.88 446.51 46.88 450.15"/>
                  <polygon class="cls-7" points="53.05 416.14 45.06 417.25 45.06 413.6 53.05 412.49 53.05 416.14"/>
                  <path class="cls-7" d="m80.33,537.98l-108.42,11.75v-168.94l105.64-13.3,2.78,170.49Zm-106.37,8.86l104.22-11.36-2.78-164.93-101.44,12.61v163.68Z"/>
                </g>
              </g>
              <g>
                <rect class="cls-29" x="1332.82" y="149.01" width="560.7" height="824.81" transform="translate(3226.33 1122.82) rotate(180)"/>
                <rect class="cls-43" x="1363.26" y="178.11" width="500.18" height="795.71" transform="translate(3226.7 1151.94) rotate(180)"/>
                <rect class="cls-6" x="1363.64" y="681.69" width="500.18" height="38.38"/>
                <rect class="cls-6" x="1363.26" y="178.11" width="500.18" height="474.78" transform="translate(3226.7 831.01) rotate(180)"/>
                <rect class="cls-37" x="1611.63" y="178.12" width="4.19" height="795.69" transform="translate(3227.45 1151.94) rotate(180)"/>
                <rect class="cls-16" x="1363.26" y="178.11" width="500.18" height="23.65" transform="translate(3226.7 379.87) rotate(180)"/>
                <rect class="cls-29" x="1517.93" y="71.18" width="195.52" height="49.1" transform="translate(3231.38 191.46) rotate(180)"/>
              </g>
              <polygon class="cls-45" points="451.75 696.3 447.22 696.37 447.22 636.44 451.75 636.44 451.75 696.3"/>
              <rect class="cls-1" x="-3010.33" y="973.73" width="5167.24" height="405.56"/>
              <rect class="cls-21" x="-3010.33" y="973.73" width="5167.24" height="44.68"/>
              <rect class="cls-19" x="469.07" y="973.7" width="274.99" height="405.59"/>
              <rect class="cls-15" x="1107.84" y="973.7" width="255.79" height="405.59"/>
              <rect class="cls-17" x="1863.44" y="973.72" width="293.46" height="405.59"/>
              <rect class="cls-18" x="-272.94" y="973.7" width="596.02" height="405.59"/>
              <g class="cls-14">
                <rect class="cls-22" x="-3010.33" y="973.65" width="5167.24" height="283.72"/>
                <rect class="cls-20" x="469.14" y="973.65" width="1687.77" height="48.13"/>
                <rect class="cls-2" x="-3010.33" y="973.65" width="5167.24" height="6.02"/>
                <rect class="cls-42" x="-1302.18" y="973.65" width="1771.32" height="213.5"/>
                <rect class="cls-23" x="-578.51" y="973.65" width="1047.58" height="213.54"/>
                <polygon class="cls-20" points="469.14 1021.78 -578.55 1012.16 -578.51 973.65 469.1 973.65 469.14 1021.78"/>
                <polygon class="cls-4" points="-578.55 976.96 469.03 979.67 469.1 973.65 -578.55 973.65 -578.55 976.96"/>
                <g>
                  <polygon class="cls-16" points="-578.51 1021.47 -578.51 1015.44 451.75 1024.99 451.75 1036.36 -578.51 1021.47"/>
                  <polygon class="cls-4" points="-578.51 1022.25 -578.51 1016.22 447.22 1026.27 447.22 1037.64 -578.51 1022.25"/>
                  <polygon class="cls-16" points="-578.51 1020.82 -578.51 1017.01 447.22 1027.75 447.22 1034.94 -578.51 1020.82"/>
                  <polygon class="cls-45" points="-578.51 1021.19 -578.51 1017.38 447.22 1028.46 447.22 1035.64 -578.51 1021.19"/>
                  <polygon class="cls-28" points="18.87 1023.83 96.33 1024.67 121.77 1031.06 42.2 1029.94 18.87 1023.83"/>
                  <polygon class="cls-28" points="-227.91 1021.17 5.56 1023.69 28.54 1029.74 -210.71 1026.37 -227.91 1021.17"/>
                  <polygon class="cls-28" points="340.87 1034.14 309.12 1026.97 447.22 1028.46 447.22 1035.64 340.87 1034.14"/>
                </g>
                <g class="cls-3">
                  <polygon class="cls-4" points="122.86 1051.64 -181.69 1045.91 -181.69 1085.16 122.86 1093.86 122.86 1051.64"/>
                  <g>
                    <polygon class="cls-7" points="56.33 1062.59 -4.04 1061.25 -4.04 1061.94 56.33 1063.28 56.33 1062.59"/>
                    <polygon class="cls-7" points="55.65 1058.01 -4.7 1056.74 -4.7 1057.42 55.65 1058.7 55.65 1058.01"/>
                    <polygon class="cls-7" points="67.4 1060.55 -4.04 1059 -4.04 1059.69 67.4 1061.24 67.4 1060.55"/>
                    <polygon class="cls-7" points="2.61 1081.87 -15.01 1081.39 -15.01 1082.07 2.61 1082.55 2.61 1081.87"/>
                    <polygon class="cls-7" points="12.01 1080.39 -18.14 1079.59 -18.14 1080.27 12.01 1081.08 12.01 1080.39"/>
                    <polygon class="cls-7" points="2.25 1078.11 -15.01 1077.66 -15.01 1078.34 2.25 1078.8 2.25 1078.11"/>
                    <polygon class="cls-7" points="64.12 1081.78 53.05 1081.48 53.05 1082.18 64.12 1082.47 64.12 1081.78"/>
                    <polygon class="cls-7" points="46.88 1081.32 38.91 1081.11 38.91 1081.8 46.88 1082.01 46.88 1081.32"/>
                    <polygon class="cls-7" points="7.64 1076.2 -18.14 1075.53 -18.14 1076.22 7.64 1076.88 7.64 1076.2"/>
                    <polygon class="cls-7" points="2.61 1074.21 -15.01 1073.76 -15.01 1074.45 2.61 1074.89 2.61 1074.21"/>
                    <polygon class="cls-7" points="12.01 1072.13 -18.14 1071.38 -18.14 1072.06 12.01 1072.81 12.01 1072.13"/>
                    <polygon class="cls-7" points="62.45 1070.37 -3.08 1068.8 -3.08 1070.03 62.45 1071.62 62.45 1070.37"/>
                    <polygon class="cls-7" points="64.12 1077.64 15.04 1076.39 15.04 1077.07 64.12 1078.34 64.12 1077.64"/>
                    <polygon class="cls-7" points="64.12 1075.76 42.95 1075.23 42.95 1075.92 64.12 1076.45 64.12 1075.76"/>
                    <polygon class="cls-7" points="64.12 1073.41 53.05 1073.14 53.05 1073.83 64.12 1074.11 64.12 1073.41"/>
                    <polygon class="cls-7" points="46.88 1072.99 38.91 1072.79 38.91 1073.48 46.88 1073.68 46.88 1072.99"/>
                    <polygon class="cls-7" points="53.05 1079.44 45.06 1079.23 45.06 1079.92 53.05 1080.13 53.05 1079.44"/>
                    <path class="cls-7" d="m80.33,1056.32l-108.42-2.23v32.05l105.64,2.52,2.78-32.34Zm-106.37-1.68l104.22,2.16-2.78,31.29-101.44-2.39v-31.05Z"/>
                  </g>
                </g>
                <g>
                  <rect class="cls-24" x="647.29" y="1048.09" width="231.59" height="64.68"/>
                  <rect class="cls-4" x="638.57" y="1049.42" width="234.24" height="61.21"/>
                  <rect class="cls-7" x="691.67" y="1059.86" width="89.77" height=".81"/>
                  <rect class="cls-7" x="703.16" y="1062.69" width="96.84" height=".81"/>
                  <rect class="cls-7" x="691.67" y="1065.87" width="55.73" height=".81"/>
                  <rect class="cls-7" x="703" y="1068.3" width="77.56" height=".81"/>
                  <rect class="cls-7" x="703.49" y="1077.13" width="77.07" height=".81"/>
                  <rect class="cls-7" x="691.67" y="1072.39" width="62.62" height=".81"/>
                  <path class="cls-7" d="m837.41,1053.88h-165.17v52.42h165.17v-52.42Zm-160.85.82h156.52v50.78h-156.52v-50.78Z"/>
                </g>
                <g>
                  <rect class="cls-24" x="946.83" y="1048.19" width="277.38" height="64.9"/>
                  <rect class="cls-4" x="951.83" y="1049.03" width="278.05" height="62.12"/>
                  <g>
                    <rect class="cls-7" x="1013.89" y="1080.12" width="51.28" height=".58"/>
                    <rect class="cls-7" x="1003.74" y="1067.43" width="92.65" height=".73"/>
                    <rect class="cls-7" x="1124.95" y="1061.55" width="53.51" height=".73"/>
                    <rect class="cls-7" x="1022.58" y="1065.24" width="128.94" height=".73"/>
                    <rect class="cls-7" x="1003.74" y="1061.55" width="104.1" height=".73"/>
                    <path class="cls-7" d="m1197.6,1056.55h-213.76v17.29h213.76v-17.29Zm-210.23.67h206.7v15.95h-206.7v-15.95Z"/>
                    <path class="cls-7" d="m1078.37,1076.69h-94.52v18.75h94.52v-18.75Zm-90.99.67h87.46v17.4h-87.46v-17.4Z"/>
                    <path class="cls-7" d="m1197.6,1076.69h-94.52v18.75h94.52v-18.75Zm-90.99.67h87.46v17.4h-87.46v-17.4Z"/>
                  </g>
                </g>
                <g>
                  <rect class="cls-29" x="1332.82" y="973.64" width="560.7" height="156.48" transform="translate(3226.33 2103.76) rotate(180)"/>
                  <rect class="cls-38" x="1363.26" y="973.64" width="500.18" height="150.96" transform="translate(3226.7 2098.23) rotate(180)"/>
                  <rect class="cls-6" x="1363.64" y="1021.78" width="500.18" height="7.28"/>
                  <rect class="cls-6" x="1363.26" y="1034.52" width="500.18" height="90.08" transform="translate(3226.7 2159.12) rotate(180)"/>
                  <rect class="cls-37" x="1611.63" y="973.64" width="4.19" height="150.96" transform="translate(3227.45 2098.23) rotate(180)"/>
                </g>
                <polygon class="cls-45" points="451.75 1026.29 447.22 1026.27 447.22 1037.64 451.75 1037.64 451.75 1026.29"/>
                <path class="cls-16" d="m393.35,979.24l-19.61-.02v10.5h-.02c.51,1.57,1.88,3.26,3.61,5l8.99.04v1.26l-7.69-.03c4.49,4.18,10.46,8.57,11.66,12.33-1.12,0-1.68-.01-2.81-.02,0,0,0-.02-.01-.03,0,0,0,.02,0,.03l-52.52-.34h0c-1.1,0-1.65-.01-2.75-.02h0c-17.26-.11-34.42-.22-51.45-.33h0c-.4,0-.81,0-1.35,0h0s-50.44-.33-50.44-.33c-.46-1.48-1.66-4.9-3.2-6.32-1.36-1.25-2.98-2.48-4.6-3.71-.84-.64-1.68-1.28-2.48-1.92l-16.95-.07h0l-4.95-.02c4.19,4.04,9.76,8.28,10.88,11.9-1.05,0-1.57-.01-2.62-.02,0,0,0-.02-.01-.03,0,0,0,.02,0,.03l-49.02-.32h0c-1.03,0-1.54,0-2.57-.02h0c-15.7-.1-31.3-.2-46.8-.3h0c-.47,0-.83,0-1.18,0-.03,0-.05,0-.08,0h0c-.38,0-.75,0-1.26,0h0s-47.14-.31-47.14-.31c-.43-1.43-1.55-4.73-3-6.11-1.27-1.21-2.79-2.4-4.31-3.59-.79-.62-1.57-1.24-2.32-1.86l-9.33-.04h0l-11.15-.05c3.92,3.91,9.13,8,10.17,11.51-.98,0-1.47,0-2.45-.02,0,0,0-.02-.01-.03,0,0,0,.02,0,.03l-45.86-.3h0c-.9,0-1.39,0-2.24-.01-15.14-.1-30.2-.2-45.15-.29-.35,0-.71,0-1.18,0h0s-44.16-.29-44.16-.29c-.4-1.38-1.46-4.58-2.81-5.91-1.19-1.17-2.61-2.32-4.03-3.47-.74-.6-1.47-1.2-2.18-1.8l-14.86-.06c-6.07-.03-10.82-1.76-10.82-3.95v-1.73l-11.72-.04c-4.16-.01-7.52-1.26-7.52-2.26l32.54.08v-7.27h-7.15s-7.58-.02-7.58-.02c-9.98-.01-18.08-1.97-18.08-4.36h5.77s4.28,0,4.28,0h-10.04v-.72h10.55v.72h.01c0,1.54,5.22,2.8,11.65,2.8h6.72s29.5.03,29.5.03c6.54,0,11.88-1.26,11.88-2.82h4.23s0,0,0,0h-4.21v-.73h10.86v.73c0,2.43-8.34,4.41-18.55,4.39h-13.35s-2.85-.02-2.85-.02v4.39l216.61.42v-4.58h-11.62s0-.01,0-.01h-4.54c-10.95-.02-19.83-2.06-19.83-4.57h4.51s1.35,0,1.35,0h-5.84v-.75h11.57v.75h.01c0,1.61,5.72,2.93,12.77,2.94l39.76.03c7.18,0,13.04-1.32,13.04-2.95h3.12s-3.1,0-3.1,0v-.76h11.93v.76h-4.65s4.65,0,4.65,0c0,2.55-9.16,4.62-20.37,4.6l-17.79-.02v4.6l237.44.46v-4.81h-7.1s-5.7-.01-5.7-.01h-5c-12.06-.02-21.84-2.17-21.84-4.8h4.96s-4.95,0-4.95,0v-.79h12.74v.79h.01c0,1.69,6.3,3.08,14.07,3.08l43.82.03c7.92,0,14.38-1.39,14.38-3.1h5.12s-5.09,0-5.09,0v-.8h13.15v.8c0,2.68-10.1,4.85-22.47,4.84Zm-177.42,13.69c-1.23-1.21-2.16-2.44-2.56-3.69l-18.6-.06v1.85c0,1.75,3.66,2.98,6.94,2.99l15.53.06c-.44-.38-.92-.77-1.31-1.15Zm-169.91.48c-.41-.37-.86-.74-1.23-1.12-1.15-1.17-2.02-2.36-2.39-3.57h0l-17.4-.05v1.79c0,1.69,3.42,2.88,6.49,2.89l6.52.03h0l8,.03Zm-179.98-5.22v1.73c0,1.64,3.21,2.79,6.09,2.8l13.61.05c-.39-.36-.81-.72-1.15-1.08-1.08-1.13-1.9-2.28-2.24-3.46h-3.58s-4.16-.02-4.16-.02h0s-8.56-.03-8.56-.03Z"/>
                <g>
                  <path class="cls-44" d="m355.07,1084.09v-19.51h-35.68v19.51c0,1.52,5.24,2.8,12.48,3.23,1.69.1,3.48.16,5.35.16,4.92,0,9.39-.38,12.62-.99s5.23-1.45,5.23-2.39Z"/>
                  <path class="cls-40" d="m344.35,1084.09v-19.51h-24.95v19.51c0,1.52,5.24,2.8,12.48,3.23,2.77-.17,5.24-.46,7.24-.84,3.23-.61,5.23-1.45,5.23-2.39Z"/>
                  <rect class="cls-4" x="331.87" y="1069.72" width="23.2" height="9.67"/>
                  <rect class="cls-11" x="314.07" y="1066.59" width="47.18" height="2.15"/>
                  <rect class="cls-11" x="313.64" y="1079.9" width="47.18" height="2.15"/>
                </g>
                <g>
                  <polygon class="cls-47" points="-217.43 984.73 290.39 985.87 290.39 992.54 -217.43 990.78 -217.43 984.73"/>
                  <polygon class="cls-26" points="-217.44 986.35 290.37 987.65 290.37 992.54 -217.44 990.78 -217.44 986.35"/>
                  <g>
                    <path class="cls-4" d="m43.38,979.9l-22.24-.03v11.73l-6.62-.02v-11.72l-16.58-.02c-11.24-.01-20.34-2.42-20.34-5.36h7.26c0,1.9,5.86,3.44,13.08,3.45l45.45.04c7.37,0,13.38-1.55,13.38-3.47h7.48c0,3-9.38,5.42-20.86,5.41Z"/>
                    <path class="cls-10" d="m48.12,979.91l-18.25-.02v5.4l-7.47-.02v3.57l7.47.02v2.78l-10.67-.04v-11.73l-16.61-.02c-11.26-.01-20.38-2.42-20.38-5.37h7.27c0,1.9,5.87,3.44,13.11,3.45l45.52.04c7.38,0,13.41-1.55,13.41-3.47h7.5c0,3-9.39,5.42-20.9,5.41Z"/>
                    <rect class="cls-8" x="56.79" y="973.6" width="12.23" height=".89"/>
                  </g>
                  <g>
                    <path class="cls-4" d="m305.29,980.22l-20.08-.02v12.33l-11.73-.04v-12.3l-18.27-.02c-12.38-.01-22.4-2.54-22.4-5.63h7.99c0,1.99,6.46,3.61,14.41,3.62l50.08.04c8.13,0,14.75-1.63,14.75-3.64h8.25c0,3.15-10.34,5.69-23.01,5.68Z"/>
                    <path class="cls-10" d="m310.51,980.22l-20.12-.02v12.34l-11.76-.04v-12.31l-18.3-.02c-12.4-.01-22.45-2.54-22.45-5.64h8.01c0,1.99,6.47,3.61,14.44,3.62l50.18.04c8.14,0,14.78-1.63,14.78-3.65h8.27c0,3.15-10.36,5.7-23.05,5.68Z"/>
                    <rect class="cls-8" x="320.07" y="973.6" width="13.49" height=".94"/>
                    <rect class="cls-8" x="232.81" y="973.6" width="13.07" height=".92"/>
                  </g>
                  <g>
                    <g>
                      <path class="cls-9" d="m-37.67,1004.66c-1.3-1.42-2.86-2.82-4.42-4.22-1.8-1.62-3.61-3.24-5.01-4.88-1.18-1.38-2.07-2.77-2.45-4.2,0-.01,0-.03-.01-.04l49.37.17s0,.03.01.04c.39,1.44,1.3,2.85,2.49,4.24,1.43,1.66,3.27,3.29,5.11,4.93,1.59,1.41,3.18,2.83,4.51,4.26,1.51,1.63,2.68,5.55,3.13,7.24l-49.65-.37c-.44-1.68-1.59-5.56-3.07-7.17Z"/>
                      <path class="cls-9" d="m-.19,991.5c16.67.06,33.44.12,50.33.17,1.7,6.41,13.84,14.48,15.55,20.91-16.98-.13-33.86-.25-50.62-.38-1.68-6.37-13.59-14.36-15.25-20.71Z"/>
                      <path class="cls-9" d="m62.5,1005.26c-1.36-1.44-2.98-2.87-4.6-4.3-1.87-1.65-3.74-3.3-5.2-4.98-1.22-1.4-2.16-2.82-2.55-4.28,0-.01,0-.03-.01-.04l51.31.18s0,.03.01.04c.4,1.47,1.35,2.9,2.6,4.32,1.49,1.69,3.4,3.36,5.3,5.03,1.66,1.44,3.31,2.88,4.69,4.34,1.57,1.66,2.79,5.66,3.25,7.39l-51.61-.38c-.46-1.71-1.65-5.67-3.19-7.31Z"/>
                      <path class="cls-27" d="m-49.55,991.36l151.01.52c.4,1.47,1.35,2.9,2.6,4.32l-151.15-.65c-1.18-1.38-2.07-2.77-2.45-4.2Z"/>
                      <path class="cls-27" d="m-42.09,1000.44l151.44.79c1.66,1.44,3.31,2.88,4.69,4.34l-151.71-.91c-1.3-1.42-2.86-2.82-4.42-4.22Z"/>
                      <path class="cls-13" d="m101.44,991.85c1.07,0,1.6,0,2.67,0,1.74,6.47,14.13,14.63,15.87,21.12-1.07,0-1.61-.01-2.69-.02-1.74-6.49-14.12-14.65-15.86-21.11Z"/>
                      <path class="cls-13" d="m48.82,991.66c1.05,0,1.57,0,2.62,0,1.7,6.41,13.85,14.48,15.56,20.91-1.05,0-1.58-.01-2.63-.02-1.71-6.43-13.85-14.5-15.54-20.9Z"/>
                      <path class="cls-13" d="m-1.48,991.49c1.03,0,1.54,0,2.57,0,1.67,6.35,13.58,14.34,15.26,20.71-1.03,0-1.55-.01-2.58-.02-1.67-6.36-13.58-14.36-15.25-20.7Z"/>
                    </g>
                    <g>
                      <path class="cls-39" d="m-39.67,991.4c-4.63-.02-8.38-1.54-8.38-2.76l57.07.17c0,1.24,3.83,2.78,8.57,2.79l-8.57-.03-48.69-.17Z"/>
                      <path class="cls-33" d="m9.01,988.8h2.67c0,.86,2.65,2.09,5.9,2.1l22.01.07c1.49,0,2.7.32,2.7.71l-24.71-.09c-4.73-.02-8.57-1.56-8.57-2.8Z"/>
                      <path class="cls-39" d="m20.24,991.6c-4.74-.02-8.58-1.56-8.58-2.8l58.41.17c0,1.25,3.92,2.81,8.77,2.83l-8.77-.03-49.83-.17Z"/>
                      <path class="cls-33" d="m70.06,988.98h2.73c0,.87,2.71,2.11,6.04,2.12l22.53.07c1.53,0,2.76.33,2.76.72l-25.29-.09c-4.84-.02-8.78-1.58-8.78-2.83Z"/>
                    </g>
                    <path class="cls-10" d="m80.59,993.98v-2.87l5.49.02v2.87c0,2.04,3.72,3.49,7.07,3.5l27.91.13v1.43l-27.91-.13c-7.05-.03-12.56-2.2-12.56-4.94Z"/>
                  </g>
                  <g>
                    <path class="cls-4" d="m101.25,994.06v-2.88l5.53.02v2.88c0,2.05,3.75,3.5,7.12,3.52l25.32.11v1.43l-25.32-.12c-7.1-.03-12.66-2.21-12.66-4.96Z"/>
                    <g>
                      <path class="cls-9" d="m138.57,1005.72c-1.39-1.47-3.06-2.91-4.72-4.36-1.93-1.68-3.86-3.35-5.36-5.05-1.26-1.42-2.22-2.86-2.62-4.34,0-.01,0-.03-.01-.04l52.81.18s0,.03.01.04c.41,1.49,1.39,2.94,2.67,4.38,1.53,1.72,3.5,3.41,5.47,5.1,1.7,1.46,3.4,2.92,4.83,4.41,1.62,1.69,2.87,5.74,3.35,7.49l-53.13-.39c-.47-1.74-1.7-5.75-3.29-7.42Z"/>
                      <path class="cls-9" d="m178.66,992.11c17.84.06,35.79.12,53.87.19,1.82,6.63,14.82,14.99,16.65,21.64-18.19-.13-36.25-.27-54.2-.4-1.79-6.59-14.54-14.86-16.32-21.42Z"/>
                      <path class="cls-9" d="m245.77,1006.37c-1.46-1.5-3.19-2.97-4.93-4.45-2-1.71-4.01-3.42-5.57-5.15-1.31-1.45-2.31-2.92-2.73-4.43,0-.01,0-.03-.01-.04l54.96.19s0,.03.01.04c.43,1.52,1.45,3,2.79,4.47,1.59,1.75,3.64,3.48,5.68,5.2,1.78,1.49,3.54,2.98,5.02,4.5,1.68,1.72,2.98,5.86,3.48,7.65l-55.3-.41c-.49-1.77-1.77-5.87-3.41-7.57Z"/>
                      <path class="cls-27" d="m125.86,991.97l161.64.56c.43,1.52,1.45,3,2.79,4.47l-161.81-.69c-1.26-1.42-2.22-2.86-2.62-4.34Z"/>
                      <path class="cls-27" d="m133.85,1001.36l162.13.84c1.78,1.49,3.54,2.98,5.02,4.5l-162.43-.98c-1.39-1.47-3.06-2.91-4.72-4.36Z"/>
                      <path class="cls-13" d="m287.49,992.49c1.14,0,1.72,0,2.86,0,1.86,6.7,15.14,15.15,17.01,21.87-1.15,0-1.73-.01-2.88-.02-1.87-6.72-15.14-15.16-16.99-21.86Z"/>
                      <path class="cls-13" d="m231.13,992.29c1.12,0,1.68,0,2.8,0,1.82,6.63,14.83,14.99,16.66,21.64-1.13,0-1.69-.01-2.82-.02-1.83-6.65-14.83-15.01-16.65-21.63Z"/>
                      <path class="cls-13" d="m177.29,992.11c1.1,0,1.65,0,2.75,0,1.78,6.56,14.54,14.84,16.33,21.43-1.11,0-1.66-.01-2.76-.02-1.79-6.58-14.53-14.86-16.32-21.42Z"/>
                    </g>
                    <g>
                      <path class="cls-39" d="m87.54,991.84c-4.86-.02-8.8-1.58-8.8-2.83l45.95.13c0,1.27,4,2.84,8.95,2.86l-8.95-.03-37.15-.13Z"/>
                      <path class="cls-33" d="m124.68,989.14h2.79c0,.88,2.77,2.13,6.17,2.14l23,.08c1.56,0,2.82.33,2.82.73l-25.82-.09c-4.94-.02-8.96-1.6-8.96-2.86Z"/>
                      <path class="cls-39" d="m136.43,992c-4.95-.02-8.96-1.59-8.96-2.86l61.05.18c0,1.28,4.1,2.87,9.17,2.89l-9.17-.03-52.09-.18Z"/>
                      <path class="cls-33" d="m188.51,989.32h2.86c0,.89,2.83,2.16,6.32,2.17l23.56.08c1.6,0,2.89.34,2.89.74l-26.45-.09c-5.06-.02-9.18-1.61-9.18-2.89Z"/>
                      <path class="cls-39" d="m200.53,992.22c-5.07-.02-9.18-1.61-9.18-2.89l62.53.18c0,1.3,4.2,2.91,9.39,2.93l-9.39-.03-53.36-.18Z"/>
                      <path class="cls-33" d="m253.88,989.51h2.93c0,.9,2.9,2.18,6.47,2.2l24.14.08c1.64,0,2.96.34,2.96.75l-27.1-.09c-5.19-.02-9.4-1.63-9.4-2.93Z"/>
                    </g>
                    <path class="cls-10" d="m265.15,994.69v-2.97l5.88.02v2.97c0,2.12,3.99,3.61,7.57,3.63l24.69.11v1.48l-24.69-.12c-7.55-.04-13.45-2.28-13.45-5.12Z"/>
                  </g>
                </g>
                <g>
                  <g>
                    <path class="cls-4" d="m1143.39,980.56h27.58v16.1h16.21v-16.1h25.38c17.29,0,31.35-2.67,31.35-5.95h-11.22c0,2.11-9.03,3.82-20.14,3.82h-69.17c-11.1,0-20.14-1.71-20.14-3.82h-11.22c0,3.28,14.06,5.95,31.35,5.95Z"/>
                    <path class="cls-10" d="m1136.24,980.56h27.58v16.1h16.21v-16.1h25.38c17.29,0,31.35-2.67,31.35-5.95h-11.22c0,2.11-9.03,3.82-20.14,3.82h-69.17c-11.1,0-20.14-1.71-20.14-3.82h-11.22c0,3.28,14.06,5.95,31.35,5.95Z"/>
                    <rect class="cls-8" x="1104.89" y="973.64" width="18.32" height=".98"/>
                    <rect class="cls-8" x="1225.57" y="973.64" width="18.32" height=".98"/>
                  </g>
                  <rect class="cls-47" x="681.92" y="989.66" width="498.12" height="7"/>
                  <rect class="cls-26" x="681.94" y="991.53" width="498.1" height="5.13"/>
                  <g>
                    <path class="cls-4" d="m657.82,980.56h33.7v16.1h10.09v-16.1h25.38c17.29,0,31.35-2.67,31.35-5.95h-11.22c0,2.11-9.03,3.82-20.14,3.82h-69.17c-11.1,0-20.14-1.71-20.14-3.82h-11.22c0,3.28,14.06,5.95,31.35,5.95Z"/>
                    <path class="cls-10" d="m650.68,980.56h27.58v16.1h16.21v-16.1h25.37c17.29,0,31.35-2.67,31.35-5.95h-11.22c0,2.11-9.03,3.82-20.14,3.82h-69.16c-11.1,0-20.14-1.71-20.14-3.82h-11.22c0,3.28,14.06,5.95,31.35,5.95Z"/>
                    <rect class="cls-8" x="619.32" y="973.64" width="18.32" height=".98"/>
                    <rect class="cls-8" x="740" y="973.64" width="18.32" height=".98"/>
                  </g>
                  <g>
                    <path class="cls-4" d="m923.78,980.56h36.5v16.1h7.29v-16.1h25.38c17.29,0,31.35-2.67,31.35-5.95h-11.22c0,2.11-9.03,3.82-20.14,3.82h-69.17c-11.1,0-20.14-1.71-20.14-3.82h-11.22c0,3.28,14.06,5.95,31.35,5.95Z"/>
                    <path class="cls-10" d="m1017.15,974.62h-11.21c0,2.11-9.04,3.82-20.14,3.82h-69.16c-11.1,0-20.14-1.72-20.14-3.82h-11.21c0,3.28,14.06,5.95,31.35,5.95h27.59v9.09h16.19v-9.09h25.37c17.29,0,31.35-2.67,31.35-5.95Z"/>
                    <rect class="cls-8" x="885.28" y="973.64" width="18.32" height=".98"/>
                    <rect class="cls-8" x="1005.96" y="973.64" width="18.32" height=".98"/>
                  </g>
                  <g>
                    <path class="cls-4" d="m1210.07,999.02v-3.13h-8.16v3.13c0,2.23-5.52,3.79-10.48,3.79h-37.02v1.55h37.02c10.45,0,18.64-2.34,18.64-5.33Z"/>
                    <g>
                      <path class="cls-9" d="m1155.37,1011.47c2.03-1.57,4.46-3.13,6.88-4.69,2.81-1.8,5.63-3.6,7.82-5.44,1.85-1.54,3.24-3.09,3.83-4.69.01-.01.01-.03.02-.04h-76.47s-.01.03-.02.04c-.59,1.6-1.99,3.15-3.82,4.69-2.19,1.83-5.01,3.63-7.82,5.44-2.43,1.56-4.86,3.11-6.89,4.69-2.3,1.79-4.09,3.61-4.77,5.48h76.46c.68-1.87,2.48-3.69,4.78-5.48Z"/>
                      <path class="cls-9" d="m1097.46,996.62h-76.47c-2.56,7.03-20.78,13.3-23.33,20.33h76.47c2.56-7.03,20.78-13.3,23.33-20.33Z"/>
                      <path class="cls-9" d="m1002.42,1011.47c2.04-1.57,4.47-3.13,6.9-4.69,2.8-1.8,5.62-3.6,7.81-5.44,1.84-1.54,3.24-3.09,3.83-4.69.01-.01.01-.03.02-.04h-76.47s-.01.03-.02.04c-.59,1.6-2,3.15-3.83,4.69-2.19,1.83-5.01,3.63-7.81,5.44-2.44,1.56-4.86,3.11-6.89,4.69-2.3,1.79-4.09,3.61-4.77,5.48h76.46c.68-1.87,2.47-3.69,4.77-5.48Z"/>
                      <path class="cls-27" d="m1173.91,996.66h-229.41c-.59,1.6-2,3.15-3.83,4.69h229.41c1.85-1.54,3.24-3.09,3.83-4.69Z"/>
                      <path class="cls-27" d="m1162.25,1006.78h-229.4c-2.44,1.56-4.86,3.11-6.89,4.69h229.41c2.03-1.57,4.46-3.13,6.88-4.69Z"/>
                      <path class="cls-13" d="m944.52,996.62h-3.94c-2.56,7.03-20.78,13.3-23.33,20.33h3.94c2.56-7.03,20.78-13.3,23.33-20.33Z"/>
                      <path class="cls-13" d="m1022.96,996.62h-3.94c-2.56,7.03-20.78,13.3-23.33,20.33h3.94c2.56-7.03,20.78-13.3,23.33-20.33Z"/>
                      <path class="cls-13" d="m1099.43,996.62h-3.94c-2.56,7.03-20.78,13.3-23.33,20.33h3.94c2.56-7.03,20.78-13.3,23.33-20.33Z"/>
                    </g>
                    <g>
                      <path class="cls-39" d="m1230.36,996.66c7.22,0,13.08-1.69,13.08-3.06h-67.81c0,1.37-5.85,3.06-13.08,3.06h67.81Z"/>
                      <path class="cls-33" d="m1175.64,993.6h-4.08c0,.94-4.04,2.29-9.01,2.29h-33.39c-2.25,0-4.08.35-4.08.77h37.47c7.21,0,13.08-1.69,13.08-3.06Z"/>
                      <path class="cls-39" d="m1158.49,996.66c7.22,0,13.08-1.69,13.08-3.06h-88.21c0,1.37-5.85,3.06-13.08,3.06h88.21Z"/>
                      <path class="cls-33" d="m1083.36,993.6h-4.08c0,.94-4.04,2.29-9.01,2.29h-33.39c-2.25,0-4.08.35-4.08.77h37.47c7.22,0,13.09-1.69,13.09-3.06Z"/>
                      <path class="cls-39" d="m1066.23,996.66c7.22,0,13.08-1.69,13.08-3.06h-88.21c0,1.37-5.85,3.06-13.08,3.06h88.21Z"/>
                      <path class="cls-33" d="m991.11,993.59h-4.08c0,.94-4.04,2.29-9.01,2.29h-33.39c-2.25,0-4.08.35-4.08.77h37.47c7.22,0,13.09-1.69,13.09-3.06Z"/>
                    </g>
                    <path class="cls-10" d="m975.41,999.02v-3.13h-8.16v3.13c0,2.23-5.52,3.79-10.48,3.79h-41.11v1.55h41.11c10.45,0,18.64-2.34,18.64-5.33Z"/>
                  </g>
                  <g>
                    <path class="cls-4" d="m944.8,999.02v-3.13h-8.16v3.13c0,2.23-5.52,3.79-10.48,3.79h-37.02v1.55h37.02c10.45,0,18.64-2.34,18.64-5.33Z"/>
                    <g>
                      <path class="cls-9" d="m890.1,1011.47c2.03-1.57,4.46-3.13,6.88-4.69,2.81-1.8,5.63-3.6,7.82-5.44,1.85-1.54,3.24-3.09,3.83-4.69.01-.01.01-.03.02-.04h-76.47s-.01.03-.02.04c-.59,1.6-1.99,3.15-3.82,4.69-2.19,1.83-5.01,3.63-7.82,5.44-2.43,1.56-4.86,3.11-6.89,4.69-2.3,1.79-4.09,3.61-4.77,5.48h76.46c.68-1.87,2.48-3.69,4.78-5.48Z"/>
                      <path class="cls-9" d="m832.19,996.62h-76.47c-2.56,7.03-20.78,13.3-23.33,20.33h76.47c2.56-7.03,20.78-13.3,23.33-20.33Z"/>
                      <path class="cls-9" d="m737.16,1011.47c2.04-1.57,4.47-3.13,6.9-4.69,2.8-1.8,5.62-3.6,7.81-5.44,1.84-1.54,3.24-3.09,3.83-4.69.01-.01.01-.03.02-.04h-76.47s-.01.03-.02.04c-.59,1.6-2,3.15-3.83,4.69-2.19,1.83-5.01,3.63-7.81,5.44-2.44,1.56-4.86,3.11-6.89,4.69-2.3,1.79-4.09,3.61-4.77,5.48h76.46c.68-1.87,2.47-3.69,4.77-5.48Z"/>
                      <path class="cls-27" d="m908.64,996.66h-229.41c-.59,1.6-2,3.15-3.83,4.69h229.41c1.85-1.54,3.24-3.09,3.83-4.69Z"/>
                      <path class="cls-27" d="m896.99,1006.78h-229.4c-2.44,1.56-4.86,3.11-6.89,4.69h229.41c2.03-1.57,4.46-3.13,6.88-4.69Z"/>
                      <path class="cls-13" d="m679.25,996.62h-3.94c-2.56,7.03-20.78,13.3-23.33,20.33h3.94c2.56-7.03,20.78-13.3,23.33-20.33Z"/>
                      <path class="cls-13" d="m757.69,996.62h-3.94c-2.56,7.03-20.78,13.3-23.33,20.33h3.94c2.56-7.03,20.78-13.3,23.33-20.33Z"/>
                      <path class="cls-13" d="m834.16,996.62h-3.94c-2.56,7.03-20.78,13.3-23.33,20.33h3.94c2.56-7.03,20.78-13.3,23.33-20.33Z"/>
                    </g>
                    <g>
                      <path class="cls-39" d="m965.09,996.66c7.22,0,13.08-1.69,13.08-3.06h-67.81c0,1.37-5.85,3.06-13.08,3.06h67.81Z"/>
                      <path class="cls-33" d="m910.37,993.6h-4.08c0,.94-4.04,2.29-9.01,2.29h-33.39c-2.25,0-4.08.35-4.08.77h37.47c7.22,0,13.08-1.69,13.08-3.06Z"/>
                      <path class="cls-39" d="m893.22,996.66c7.22,0,13.08-1.69,13.08-3.06h-88.21c0,1.37-5.85,3.06-13.08,3.06h88.21Z"/>
                      <path class="cls-33" d="m818.09,993.6h-4.08c0,.94-4.04,2.29-9.01,2.29h-33.39c-2.25,0-4.08.35-4.08.77h37.47c7.22,0,13.08-1.69,13.08-3.06Z"/>
                      <path class="cls-39" d="m800.97,996.66c7.22,0,13.08-1.69,13.08-3.06h-88.21c0,1.37-5.85,3.06-13.08,3.06h88.21Z"/>
                      <path class="cls-33" d="m725.84,993.59h-4.08c0,.94-4.04,2.29-9.01,2.29h-33.39c-2.25,0-4.08.35-4.08.77h37.47c7.21,0,13.08-1.69,13.08-3.06Z"/>
                    </g>
                    <path class="cls-10" d="m710.15,999.02v-3.13h-8.16v3.13c0,2.23-5.52,3.79-10.48,3.79h-41.11v1.55h41.11c10.45,0,18.64-2.34,18.64-5.33Z"/>
                  </g>
                </g>
              </g>
              <path class="cls-16" d="m393.35,944.28l-19.61.11v-55.35h-.02c.51-8.29,1.88-17.18,3.61-26.34l8.99-.19v-6.63l-7.69.17c4.49-22.05,10.46-45.17,11.66-64.97-1.12.04-1.68.06-2.81.1,0,.04,0,.09-.01.13,0-.04,0-.09,0-.13l-52.52,1.79h0c-1.1.04-1.65.06-2.75.09h0c-17.26.59-34.42,1.17-51.45,1.76h0c-.4.01-.81.03-1.35.05h0s-50.44,1.72-50.44,1.72c-.46,7.79-1.66,25.8-3.2,33.29-1.36,6.58-2.98,13.08-4.6,19.57-.84,3.37-1.68,6.75-2.48,10.13l-16.95.37h0l-4.95.11c4.19-21.3,9.76-43.63,10.88-62.75-1.05.04-1.57.05-2.62.09,0,.05,0,.09-.01.14,0-.04,0-.1,0-.14l-49.02,1.67h0c-1.03.03-1.54.05-2.57.09h0c-15.7.54-31.3,1.07-46.8,1.6h0c-.47.02-.83.03-1.18.04-.03,0-.05,0-.08,0h0c-.38.01-.75.03-1.26.04h0s-47.14,1.61-47.14,1.61c-.43,7.53-1.55,24.95-3,32.19-1.27,6.36-2.79,12.64-4.31,18.92-.79,3.26-1.57,6.52-2.32,9.79l-9.33.21h0l-11.15.25c3.92-20.6,9.13-42.18,10.17-60.67-.98.03-1.47.05-2.45.08,0,.04,0,.09-.01.13,0-.04,0-.09,0-.13l-45.86,1.56h0c-.9.03-1.39.05-2.24.08-15.14.52-30.2,1.03-45.15,1.54-.35.01-.71.02-1.18.04h0s-44.16,1.51-44.16,1.51c-.4,7.29-1.46,24.15-2.81,31.15-1.19,6.15-2.61,12.23-4.03,18.31-.74,3.16-1.47,6.31-2.18,9.48l-14.86.33c-6.07.13-10.82,9.29-10.82,20.83v9.13l-11.72.19c-4.16.07-7.52,6.63-7.52,11.9l32.54-.44v38.32l-7.15.04-7.58.04c-9.98.06-18.08,10.36-18.08,22.98h5.77s4.28,0,4.28,0h-10.04v3.77h10.55v-3.78h.01c0-8.12,5.22-14.75,11.65-14.77l6.72-.03,29.5-.11c6.54-.02,11.88,6.64,11.88,14.86h4.23s0,0,0,0h-4.21v3.83h10.86v-3.83c0-12.83-8.34-23.22-18.55-23.16l-13.35.07-2.85.02v-23.13l216.61-2.23v24.16l-11.62.06h0l-4.54.03c-10.95.06-19.83,10.86-19.83,24.07h4.51s1.35,0,1.35,0h-5.84v3.95h11.57v-3.95h.01c0-8.5,5.72-15.44,12.77-15.47l39.76-.15c7.18-.03,13.04,6.96,13.04,15.57h3.12s-3.1,0-3.1,0v4.01h11.93v-4.01h-4.65s4.65,0,4.65,0c0-13.45-9.16-24.33-20.37-24.27l-17.79.1v-24.23l237.44-2.44v25.36l-7.1.04-5.7.03h0l-5,.03c-12.06.07-21.84,11.4-21.84,25.26h4.96s-4.95,0-4.95,0v4.14h12.74v-4.15h.01c0-8.93,6.3-16.21,14.07-16.24l43.82-.17c7.92-.03,14.38,7.31,14.38,16.35h5.12s-5.09,0-5.09,0v4.21h13.15v-4.22c0-14.12-10.1-25.55-22.47-25.49Zm-177.42-72.17c-1.23,6.39-2.16,12.85-2.56,19.47l-18.6.3v-9.75c0-9.21,3.66-15.7,6.94-15.77l15.53-.32c-.44,2.03-.92,4.04-1.31,6.08Zm-169.91-2.52c-.41,1.96-.86,3.91-1.23,5.88-1.15,6.18-2.02,12.43-2.39,18.83h0l-17.4.28v-9.43c0-8.91,3.42-15.19,6.49-15.25l6.52-.14h0l8-.17Zm-179.98,27.52v-9.14c0-8.62,3.21-14.7,6.09-14.76l13.61-.28c-.39,1.9-.81,3.78-1.15,5.69-1.08,5.98-1.9,12.03-2.24,18.22l-3.58.06h0l-4.16.07h0s-8.56.14-8.56.14Z"/>
              <g>
                <path class="cls-4" d="m333.41,359.73h7.64c1.6,0,2.9,1.3,2.9,2.9v14.21h-13.44v-14.21c0-1.6,1.3-2.9,2.9-2.9Z"/>
                <path class="cls-44" d="m355.07,391.61v102.84h-35.68v-102.84c0-7.99,5.24-14.74,12.48-17.01,1.69-.53,3.48-.82,5.35-.82,4.92,0,9.39,2,12.62,5.23,3.23,3.23,5.23,7.67,5.23,12.6Z"/>
                <path class="cls-40" d="m344.35,391.61v102.84h-24.95v-102.84c0-7.99,5.24-14.74,12.48-17.01,2.77.87,5.24,2.41,7.24,4.41,3.23,3.23,5.23,7.67,5.23,12.6Z"/>
                <rect class="cls-4" x="331.87" y="416.41" width="23.2" height="50.97"/>
                <path class="cls-46" d="m333.61,398.03h-17.89v-25.63c0-4.94,4.01-8.95,8.95-8.95h0c4.94,0,8.95,4.01,8.95,8.95v25.63Z"/>
                <rect class="cls-11" x="314.07" y="472.58" width="47.18" height="11.31"/>
                <rect class="cls-11" x="313.64" y="402.39" width="47.18" height="11.31"/>
              </g>
              <g>
                <polygon class="cls-47" points="-217.43 915.32 290.39 909.33 290.39 874.19 -217.43 883.43 -217.43 915.32"/>
                <polygon class="cls-26" points="-217.44 906.81 290.37 899.95 290.37 874.19 -217.44 883.43 -217.44 906.81"/>
                <g>
                  <path class="cls-4" d="m43.38,940.78l-22.24.14v-61.83l-6.62.12v61.76l-16.58.11c-11.24.07-20.34,12.76-20.34,28.28h7.26c0-9.99,5.86-18.14,13.08-18.17l45.45-.2c7.37-.03,13.38,8.18,13.38,18.3h7.48c0-15.79-9.38-28.57-20.86-28.49Z"/>
                  <path class="cls-10" d="m48.12,940.75l-18.25.12v-28.47l-7.47.09v-18.8l7.47-.11v-14.65l-10.67.19v61.81l-16.61.11c-11.26.07-20.38,12.76-20.38,28.3h7.27c0-10,5.87-18.15,13.11-18.18l45.52-.2c7.38-.03,13.41,8.18,13.41,18.31h7.5c0-15.81-9.39-28.59-20.9-28.52Z"/>
                  <polygon class="cls-8" points="56.79 973.98 69.02 973.98 69.02 969.27 56.79 969.28 56.79 973.98"/>
                </g>
                <g>
                  <path class="cls-4" d="m305.29,939.12l-20.08.13v-64.97l-11.73.21v64.83l-18.27.12c-12.38.08-22.4,13.39-22.4,29.68h7.99c0-10.48,6.46-19.03,14.41-19.07l50.08-.22c8.13-.04,14.75,8.58,14.75,19.21h8.25c0-16.58-10.34-30-23.01-29.92Z"/>
                  <path class="cls-10" d="m310.51,939.09l-20.12.13v-65.03l-11.76.21v64.89l-18.3.12c-12.4.08-22.45,13.4-22.45,29.71h8.01c0-10.49,6.47-19.05,14.44-19.09l50.18-.22c8.14-.04,14.78,8.59,14.78,19.23h8.27c0-16.6-10.36-30.03-23.05-29.95Z"/>
                  <polygon class="cls-8" points="320.07 973.98 333.56 973.98 333.56 969.03 320.07 969.04 320.07 973.98"/>
                  <polygon class="cls-8" points="232.81 973.98 245.88 973.98 245.88 969.11 232.81 969.12 232.81 973.98"/>
                </g>
                <g>
                  <g>
                    <path class="cls-9" d="m-37.67,810.29c-1.3,7.47-2.86,14.85-4.42,22.23-1.8,8.54-3.61,17.08-5.01,25.74-1.18,7.26-2.07,14.6-2.45,22.12,0,.06,0,.14-.01.2l49.37-.9c0-.06,0-.14.01-.2.39-7.59,1.3-15,2.49-22.33,1.43-8.74,3.27-17.37,5.11-25.99,1.59-7.45,3.18-14.9,4.51-22.44,1.51-8.58,2.68-29.24,3.13-38.18l-49.65,1.94c-.44,8.85-1.59,29.31-3.07,37.81Z"/>
                    <path class="cls-9" d="m-.19,879.68c16.67-.3,33.44-.61,50.33-.91,1.7-33.76,13.84-76.33,15.55-110.2-16.98.66-33.86,1.32-50.62,1.98-1.68,33.55-13.59,75.7-15.25,109.14Z"/>
                    <path class="cls-9" d="m62.5,807.11c-1.36,7.62-2.98,15.14-4.6,22.66-1.87,8.7-3.74,17.41-5.2,26.24-1.22,7.4-2.16,14.88-2.55,22.55,0,.07,0,.14-.01.2l51.31-.93c0-.07,0-.14.01-.21.4-7.74,1.35-15.3,2.6-22.77,1.49-8.92,3.4-17.71,5.3-26.5,1.66-7.6,3.31-15.19,4.69-22.88,1.57-8.75,2.79-29.82,3.25-38.93l-51.61,2.02c-.46,9.02-1.65,29.88-3.19,38.55Z"/>
                    <path class="cls-27" d="m-49.55,880.38l151.01-2.75c.4-7.74,1.35-15.3,2.6-22.77l-151.15,3.4c-1.18,7.26-2.07,14.6-2.45,22.12Z"/>
                    <path class="cls-27" d="m-42.09,832.52l151.44-4.16c1.66-7.6,3.31-15.19,4.69-22.88l-151.71,4.82c-1.3,7.47-2.86,14.85-4.42,22.23Z"/>
                    <path class="cls-13" d="m101.44,877.84c1.07-.02,1.6-.03,2.67-.05,1.74-34.11,14.13-77.12,15.87-111.34-1.07.04-1.61.06-2.69.11-1.74,34.21-14.12,77.19-15.86,111.29Z"/>
                    <path class="cls-13" d="m48.82,878.79c1.05-.02,1.57-.03,2.62-.05,1.7-33.77,13.85-76.35,15.56-110.23-1.05.04-1.58.06-2.63.1-1.71,33.87-13.85,76.42-15.54,110.18Z"/>
                    <path class="cls-13" d="m-1.48,879.7c1.03-.02,1.54-.03,2.57-.05,1.67-33.45,13.58-75.61,15.26-109.17-1.03.04-1.55.06-2.58.1-1.67,33.54-13.58,75.68-15.25,109.11Z"/>
                  </g>
                  <g>
                    <path class="cls-39" d="m-39.67,880.21c-4.63.08-8.38,8.12-8.38,14.57l57.07-.88c0-6.52,3.83-14.64,8.57-14.73l-8.57.16-48.69.89Z"/>
                    <path class="cls-33" d="m9.01,893.9l2.67-.04c0-4.49,2.65-10.95,5.9-11.01l22.01-.38c1.49-.03,2.7-1.71,2.7-3.75l-24.71.45c-4.73.09-8.57,8.22-8.57,14.74Z"/>
                    <path class="cls-39" d="m20.24,879.13c-4.74.09-8.58,8.21-8.58,14.74l58.41-.9c0-6.6,3.92-14.82,8.77-14.91l-8.77.16-49.83.91Z"/>
                    <path class="cls-33" d="m70.06,892.97l2.73-.04c0-4.54,2.71-11.08,6.04-11.14l22.53-.39c1.53-.03,2.76-1.73,2.76-3.8l-25.29.46c-4.84.09-8.78,8.32-8.78,14.91Z"/>
                  </g>
                  <path class="cls-10" d="m80.59,866.61v15.11l5.49-.1v-15.12c0-10.78,3.72-18.38,7.07-18.46l27.91-.67v-7.53l-27.91.7c-7.05.18-12.56,11.62-12.56,26.06Z"/>
                </g>
                <g>
                  <path class="cls-4" d="m101.25,866.19v15.17l5.53-.1v-15.18c0-10.82,3.75-18.45,7.12-18.53l25.32-.6v-7.55l-25.32.64c-7.1.18-12.66,11.67-12.66,26.16Z"/>
                  <g>
                    <path class="cls-9" d="m138.57,804.7c-1.39,7.73-3.06,15.36-4.72,22.99-1.93,8.83-3.86,17.66-5.36,26.62-1.26,7.51-2.22,15.1-2.62,22.88,0,.07,0,.14-.01.21l52.81-.96c0-.07,0-.14.01-.21.41-7.85,1.39-15.52,2.67-23.1,1.53-9.05,3.5-17.97,5.47-26.89,1.7-7.71,3.4-15.42,4.83-23.22,1.62-8.88,2.87-30.26,3.35-39.5l-53.13,2.08c-.47,9.15-1.7,30.32-3.29,39.11Z"/>
                    <path class="cls-9" d="m178.66,876.43c17.84-.32,35.79-.65,53.87-.98,1.82-34.94,14.82-79,16.65-114.06-18.19.71-36.25,1.42-54.2,2.12-1.79,34.71-14.54,78.33-16.32,112.92Z"/>
                    <path class="cls-9" d="m245.77,801.29c-1.46,7.88-3.19,15.67-4.93,23.46-2,9.01-4.01,18.02-5.57,27.16-1.31,7.66-2.31,15.4-2.73,23.34,0,.07,0,.14-.01.21l54.96-1c0-.07,0-.15.01-.21.43-8.01,1.45-15.84,2.79-23.57,1.59-9.23,3.64-18.33,5.68-27.43,1.78-7.86,3.54-15.73,5.02-23.7,1.68-9.06,2.98-30.87,3.48-40.3l-55.3,2.16c-.49,9.34-1.77,30.93-3.41,39.9Z"/>
                    <path class="cls-27" d="m125.86,877.18l161.64-2.94c.43-8.01,1.45-15.84,2.79-23.57l-161.81,3.64c-1.26,7.51-2.22,15.1-2.62,22.88Z"/>
                    <path class="cls-27" d="m133.85,827.69l162.13-4.45c1.78-7.86,3.54-15.73,5.02-23.7l-162.43,5.16c-1.39,7.73-3.06,15.36-4.72,22.99Z"/>
                    <path class="cls-13" d="m287.49,874.46c1.14-.02,1.72-.03,2.86-.05,1.86-35.31,15.14-79.84,17.01-115.28-1.15.04-1.73.07-2.88.11-1.87,35.42-15.14,79.93-16.99,115.22Z"/>
                    <path class="cls-13" d="m231.13,875.48c1.12-.02,1.68-.03,2.8-.05,1.82-34.95,14.83-79.02,16.66-114.09-1.13.04-1.69.07-2.82.11-1.83,35.05-14.83,79.1-16.65,114.03Z"/>
                    <path class="cls-13" d="m177.29,876.46c1.1-.02,1.65-.03,2.75-.05,1.78-34.6,14.54-78.23,16.33-112.95-1.11.04-1.66.06-2.76.11-1.79,34.7-14.53,78.31-16.32,112.89Z"/>
                  </g>
                  <g>
                    <path class="cls-39" d="m87.54,877.89c-4.86.09-8.8,8.32-8.8,14.93l45.95-.71c0-6.67,4-14.97,8.95-15.06l-8.95.16-37.15.68Z"/>
                    <path class="cls-33" d="m124.68,892.12l2.79-.04c0-4.59,2.77-11.2,6.17-11.26l23-.4c1.56-.03,2.82-1.75,2.82-3.84l-25.82.47c-4.94.09-8.96,8.41-8.96,15.07Z"/>
                    <path class="cls-39" d="m136.43,877c-4.95.09-8.96,8.4-8.96,15.07l61.05-.94c0-6.75,4.1-15.15,9.17-15.24l-9.17.17-52.09.95Z"/>
                    <path class="cls-33" d="m188.51,891.13l2.86-.04c0-4.64,2.83-11.33,6.32-11.39l23.56-.41c1.6-.03,2.89-1.77,2.89-3.89l-26.45.48c-5.06.09-9.18,8.51-9.18,15.25Z"/>
                    <path class="cls-39" d="m200.53,875.85c-5.07.09-9.18,8.5-9.18,15.25l62.53-.96c0-6.83,4.2-15.34,9.39-15.43l-9.39.17-53.36.97Z"/>
                    <path class="cls-33" d="m253.88,890.14l2.93-.05c0-4.7,2.9-11.47,6.47-11.53l24.14-.42c1.64-.03,2.96-1.79,2.96-3.93l-27.1.49c-5.19.09-9.4,8.62-9.4,15.44Z"/>
                  </g>
                  <path class="cls-10" d="m265.15,862.85v15.64l5.88-.1v-15.65c0-11.16,3.99-19.02,7.57-19.11l24.69-.59v-7.78l-24.69.62c-7.55.19-13.45,12.04-13.45,26.98Z"/>
                </g>
              </g>
              <g>
                <g>
                  <path class="cls-4" d="m1143.39,937.31h27.58v-84.84h16.21v84.84h25.38c17.29,0,31.35,14.06,31.35,31.35h-11.22c0-11.1-9.03-20.14-20.14-20.14h-69.17c-11.1,0-20.14,9.03-20.14,20.14h-11.22c0-17.29,14.06-31.35,31.35-31.35Z"/>
                  <path class="cls-10" d="m1136.24,937.31h27.58v-84.84h16.21v84.84h25.38c17.29,0,31.35,14.06,31.35,31.35h-11.22c0-11.1-9.03-20.14-20.14-20.14h-69.17c-11.1,0-20.14,9.03-20.14,20.14h-11.22c0-17.29,14.06-31.35,31.35-31.35Z"/>
                  <rect class="cls-8" x="1104.89" y="968.66" width="18.32" height="5.16"/>
                  <rect class="cls-8" x="1225.57" y="968.66" width="18.32" height="5.16"/>
                </g>
                <rect class="cls-47" x="681.92" y="852.47" width="498.12" height="36.91"/>
                <rect class="cls-26" x="681.94" y="852.47" width="498.1" height="27.06"/>
                <g>
                  <path class="cls-4" d="m657.82,937.31h33.7v-84.84h10.09v84.84h25.38c17.29,0,31.35,14.06,31.35,31.35h-11.22c0-11.1-9.03-20.14-20.14-20.14h-69.17c-11.1,0-20.14,9.03-20.14,20.14h-11.22c0-17.29,14.06-31.35,31.35-31.35Z"/>
                  <path class="cls-10" d="m650.68,937.31h27.58v-84.84h16.21v84.84h25.37c17.29,0,31.35,14.06,31.35,31.35h-11.22c0-11.1-9.03-20.14-20.14-20.14h-69.16c-11.1,0-20.14,9.03-20.14,20.14h-11.22c0-17.29,14.06-31.35,31.35-31.35Z"/>
                  <rect class="cls-8" x="619.32" y="968.66" width="18.32" height="5.16"/>
                  <rect class="cls-8" x="740" y="968.66" width="18.32" height="5.16"/>
                </g>
                <g>
                  <path class="cls-4" d="m923.78,937.31h36.5v-84.84h7.29v84.84h25.38c17.29,0,31.35,14.06,31.35,31.35h-11.22c0-11.1-9.03-20.14-20.14-20.14h-69.17c-11.1,0-20.14,9.03-20.14,20.14h-11.22c0-17.29,14.06-31.35,31.35-31.35Z"/>
                  <path class="cls-10" d="m1017.15,968.65h-11.21c0-11.1-9.04-20.14-20.14-20.14h-69.16c-11.1,0-20.14,9.04-20.14,20.14h-11.21c0-17.29,14.06-31.35,31.35-31.35h27.59v-47.93h16.19v47.93h25.37c17.29,0,31.35,14.06,31.35,31.35Z"/>
                  <rect class="cls-8" x="885.28" y="968.66" width="18.32" height="5.16"/>
                  <rect class="cls-8" x="1005.96" y="968.66" width="18.32" height="5.16"/>
                </g>
                <g>
                  <path class="cls-4" d="m1210.07,840.01v16.5h-8.16v-16.5c0-11.76-5.52-19.95-10.48-19.95h-37.02v-8.16h37.02c10.45,0,18.64,12.35,18.64,28.11Z"/>
                  <g>
                    <path class="cls-9" d="m1155.37,774.41c2.03,8.3,4.46,16.5,6.88,24.7,2.81,9.49,5.63,19,7.82,28.65,1.85,8.1,3.24,16.29,3.83,24.71.01.07.01.15.02.22h-76.47c-.01-.07-.01-.15-.02-.22-.59-8.41-1.99-16.61-3.82-24.71-2.19-9.66-5.01-19.16-7.82-28.65-2.43-8.2-4.86-16.4-6.89-24.7-2.3-9.44-4.09-19.02-4.77-28.88h76.46c.68,9.86,2.48,19.43,4.78,28.88Z"/>
                    <path class="cls-9" d="m1097.46,852.69h-76.47c-2.56-37.04-20.78-70.11-23.33-107.16h76.47c2.56,37.04,20.78,70.11,23.33,107.16Z"/>
                    <path class="cls-9" d="m1002.42,774.41c2.04,8.3,4.47,16.5,6.9,24.7,2.8,9.49,5.62,19,7.81,28.65,1.84,8.1,3.24,16.29,3.83,24.71.01.07.01.15.02.22h-76.47c-.01-.07-.01-.15-.02-.22-.59-8.41-2-16.61-3.83-24.71-2.19-9.66-5.01-19.16-7.81-28.65-2.44-8.2-4.86-16.4-6.89-24.7-2.3-9.44-4.09-19.02-4.77-28.88h76.46c.68,9.86,2.47,19.43,4.77,28.88Z"/>
                    <path class="cls-27" d="m1173.91,852.47h-229.41c-.59-8.41-2-16.61-3.83-24.71h229.41c1.85,8.1,3.24,16.29,3.83,24.71Z"/>
                    <path class="cls-27" d="m1162.25,799.11h-229.4c-2.44-8.2-4.86-16.4-6.89-24.7h229.41c2.03,8.3,4.46,16.5,6.88,24.7Z"/>
                    <path class="cls-13" d="m944.52,852.69h-3.94c-2.56-37.04-20.78-70.11-23.33-107.16h3.94c2.56,37.04,20.78,70.11,23.33,107.16Z"/>
                    <path class="cls-13" d="m1022.96,852.69h-3.94c-2.56-37.04-20.78-70.11-23.33-107.16h3.94c2.56,37.04,20.78,70.11,23.33,107.16Z"/>
                    <path class="cls-13" d="m1099.43,852.69h-3.94c-2.56-37.04-20.78-70.11-23.33-107.16h3.94c2.56,37.04,20.78,70.11,23.33,107.16Z"/>
                  </g>
                  <g>
                    <path class="cls-39" d="m1230.36,852.48c7.22,0,13.08,8.92,13.08,16.14h-67.81c0-7.22-5.85-16.14-13.08-16.14h67.81Z"/>
                    <path class="cls-33" d="m1175.64,868.61h-4.08c0-4.97-4.04-12.07-9.01-12.07h-33.39c-2.25,0-4.08-1.83-4.08-4.08h37.47c7.21,0,13.08,8.93,13.08,16.15Z"/>
                    <path class="cls-39" d="m1158.49,852.48c7.22,0,13.08,8.92,13.08,16.14h-88.21c0-7.22-5.85-16.14-13.08-16.14h88.21Z"/>
                    <path class="cls-33" d="m1083.36,868.61h-4.08c0-4.97-4.04-12.07-9.01-12.07h-33.39c-2.25,0-4.08-1.83-4.08-4.08h37.47c7.22,0,13.09,8.93,13.09,16.15Z"/>
                    <path class="cls-39" d="m1066.23,852.49c7.22,0,13.08,8.91,13.08,16.14h-88.21c0-7.22-5.85-16.14-13.08-16.14h88.21Z"/>
                    <path class="cls-33" d="m991.11,868.62h-4.08c0-4.97-4.04-12.07-9.01-12.07h-33.39c-2.25,0-4.08-1.83-4.08-4.08h37.47c7.22,0,13.09,8.93,13.09,16.15Z"/>
                  </g>
                  <path class="cls-10" d="m975.41,840.01v16.5h-8.16v-16.5c0-11.76-5.52-19.95-10.48-19.95h-41.11v-8.16h41.11c10.45,0,18.64,12.35,18.64,28.11Z"/>
                </g>
                <g>
                  <path class="cls-4" d="m944.8,840.01v16.5h-8.16v-16.5c0-11.76-5.52-19.95-10.48-19.95h-37.02v-8.16h37.02c10.45,0,18.64,12.35,18.64,28.11Z"/>
                  <g>
                    <path class="cls-9" d="m890.1,774.41c2.03,8.3,4.46,16.5,6.88,24.7,2.81,9.49,5.63,19,7.82,28.65,1.85,8.1,3.24,16.29,3.83,24.71.01.07.01.15.02.22h-76.47c-.01-.07-.01-.15-.02-.22-.59-8.41-1.99-16.61-3.82-24.71-2.19-9.66-5.01-19.16-7.82-28.65-2.43-8.2-4.86-16.4-6.89-24.7-2.3-9.44-4.09-19.02-4.77-28.88h76.46c.68,9.86,2.48,19.43,4.78,28.88Z"/>
                    <path class="cls-9" d="m832.19,852.69h-76.47c-2.56-37.04-20.78-70.11-23.33-107.16h76.47c2.56,37.04,20.78,70.11,23.33,107.16Z"/>
                    <path class="cls-9" d="m737.16,774.41c2.04,8.3,4.47,16.5,6.9,24.7,2.8,9.49,5.62,19,7.81,28.65,1.84,8.1,3.24,16.29,3.83,24.71.01.07.01.15.02.22h-76.47c-.01-.07-.01-.15-.02-.22-.59-8.41-2-16.61-3.83-24.71-2.19-9.66-5.01-19.16-7.81-28.65-2.44-8.2-4.86-16.4-6.89-24.7-2.3-9.44-4.09-19.02-4.77-28.88h76.46c.68,9.86,2.47,19.43,4.77,28.88Z"/>
                    <path class="cls-27" d="m908.64,852.47h-229.41c-.59-8.41-2-16.61-3.83-24.71h229.41c1.85,8.1,3.24,16.29,3.83,24.71Z"/>
                    <path class="cls-27" d="m896.99,799.11h-229.4c-2.44-8.2-4.86-16.4-6.89-24.7h229.41c2.03,8.3,4.46,16.5,6.88,24.7Z"/>
                    <path class="cls-13" d="m679.25,852.69h-3.94c-2.56-37.04-20.78-70.11-23.33-107.16h3.94c2.56,37.04,20.78,70.11,23.33,107.16Z"/>
                    <path class="cls-13" d="m757.69,852.69h-3.94c-2.56-37.04-20.78-70.11-23.33-107.16h3.94c2.56,37.04,20.78,70.11,23.33,107.16Z"/>
                    <path class="cls-13" d="m834.16,852.69h-3.94c-2.56-37.04-20.78-70.11-23.33-107.16h3.94c2.56,37.04,20.78,70.11,23.33,107.16Z"/>
                  </g>
                  <g>
                    <path class="cls-39" d="m965.09,852.48c7.22,0,13.08,8.92,13.08,16.14h-67.81c0-7.22-5.85-16.14-13.08-16.14h67.81Z"/>
                    <path class="cls-33" d="m910.37,868.61h-4.08c0-4.97-4.04-12.07-9.01-12.07h-33.39c-2.25,0-4.08-1.83-4.08-4.08h37.47c7.22,0,13.08,8.93,13.08,16.15Z"/>
                    <path class="cls-39" d="m893.22,852.48c7.22,0,13.08,8.92,13.08,16.14h-88.21c0-7.22-5.85-16.14-13.08-16.14h88.21Z"/>
                    <path class="cls-33" d="m818.09,868.61h-4.08c0-4.97-4.04-12.07-9.01-12.07h-33.39c-2.25,0-4.08-1.83-4.08-4.08h37.47c7.22,0,13.08,8.93,13.08,16.15Z"/>
                    <path class="cls-39" d="m800.97,852.49c7.22,0,13.08,8.91,13.08,16.14h-88.21c0-7.22-5.85-16.14-13.08-16.14h88.21Z"/>
                    <path class="cls-33" d="m725.84,868.62h-4.08c0-4.97-4.04-12.07-9.01-12.07h-33.39c-2.25,0-4.08-1.83-4.08-4.08h37.47c7.21,0,13.08,8.93,13.08,16.15Z"/>
                  </g>
                  <path class="cls-10" d="m710.15,840.01v16.5h-8.16v-16.5c0-11.76-5.52-19.95-10.48-19.95h-41.11v-8.16h41.11c10.45,0,18.64,12.35,18.64,28.11Z"/>
                </g>
              </g>
              <rect class="cls-48" x="-4709" y="-124.4" width="5167.24" height="1503.71"/>
            </g>
          </g>
          <g>
            <path class="cls-30" d="m1372.2,128.57v-60.09c0-3.48,3.33-6.31,7.43-6.31h467.72c4.1,0,7.43,2.82,7.43,6.31v60.09c0,3.48-3.33,6.31-7.43,6.31h-467.72c-4.1,0-7.43-2.82-7.43-6.31Z"/>
            <path class="cls-5" d="m1375.15,127.55v-58.06c0-2.66,2.54-4.82,5.68-4.82h465.33c3.14,0,5.68,2.16,5.68,4.82v58.06c0,2.66-2.54,4.82-5.68,4.82h-465.33c-3.14,0-5.68-2.16-5.68-4.82Z"/>
            <g class="cls-25">
              <path class="cls-49" d="m1848,137.89h-470.3c-5.02,0-9.09-3.45-9.09-7.71v-62.28c0-4.26,4.07-7.71,9.09-7.71h470.3c5.02,0,9.09,3.45,9.09,7.71v62.28c0,4.26-4.07,7.71-9.09,7.71Z"/>
            </g>
            <g>
              <circle class="cls-36" cx="1613.08" cy="62.15" r="21.79"/>
              <circle class="cls-49" cx="1612.61" cy="61.54" r="21.79"/>
              <g>
                <path class="cls-31" d="m1620.79,57.62c0-2.66-2.16-4.82-4.82-4.82-1.34,0-2.51.77-3.36,1.7-.84-.93-2.02-1.7-3.36-1.7-2.66,0-4.82,2.16-4.82,4.82,0,1.38.59,2.69,1.63,3.61l5.31,5.31h2.5l-6.58-6.58-.02-.02-.02-.02c-.67-.58-1.05-1.42-1.05-2.3,0-1.69,1.37-3.06,3.06-3.06,1.08,0,1.96,1,2.6,1.86l.75.98.75-.98c.66-.84,1.53-1.86,2.6-1.86,1.69,0,3.06,1.37,3.06,3.06,0,.88-.38,1.72-1.05,2.3l-.02.02-4.08,4.08,1.24,1.24,1.17-1.17,2.88-2.87c1.04-.92,1.63-2.23,1.63-3.61Z"/>
                <path class="cls-31" d="m1625.92,55.45c-.37-.91-.91-1.73-1.62-2.43l-6.49-6.49c-.7-.7-1.52-1.25-2.43-1.62-.88-.36-1.81-.54-2.77-.54s-1.89.18-2.77.54c-.91.37-1.73.91-2.43,1.62l-6.49,6.49c-.7.7-1.25,1.52-1.62,2.43-.36.88-.54,1.81-.54,2.77s.18,1.89.54,2.77c.37.91.91,1.73,1.62,2.43l3.12,3.12h2.59l-4.41-4.41c-2.15-2.15-2.15-5.66,0-7.81l6.49-6.49c1.08-1.08,2.49-1.62,3.91-1.62s2.83.54,3.91,1.62l6.49,6.49c2.15,2.15,2.15,5.66,0,7.81l-4.41,4.41h2.59l3.12-3.12c.7-.7,1.25-1.52,1.62-2.43.36-.88.54-1.81.54-2.77s-.18-1.89-.54-2.77Z"/>
                <g>
                  <path class="cls-4" d="m1603.42,75.8s-.04-.05-.04-.08l-.16-1s-.03-.04-.06-.04h-2.47s-.04.02-.06.04l-.4,1c-.04.07-.09.11-.17.11h-1.66s-.08-.01-.1-.04c-.02-.03-.02-.07,0-.12l3.24-7.56c.04-.07.09-.11.16-.11h2.05c.07,0,.11.04.13.11l1.4,7.56v.04c0,.07-.04.11-.12.11h-1.67s-.07-.01-.09-.03Zm-2.13-2.55h1.61s.06-.02.06-.07l-.47-2.88s-.02-.04-.03-.04c-.02,0-.03.02-.03.04l-1.16,2.88s-.01.07.03.07Z"/>
                  <path class="cls-4" d="m1612.07,68h1.53s.07.01.09.04c.02.03.03.06.02.1l-.93,7.56s-.02.07-.05.1c-.03.03-.06.04-.1.04h-1.54s-.07-.01-.09-.04c-.02-.03-.03-.06-.02-.1l.55-4.5s0-.04-.01-.04-.03.01-.04.03l-1.13,1.54c-.03.06-.08.09-.16.09h-.77c-.07,0-.12-.03-.15-.09l-.75-1.56s-.02-.03-.03-.03-.03.02-.03.04l-.55,4.51s-.02.07-.05.1c-.03.03-.06.04-.1.04h-1.54s-.07-.01-.09-.04c-.02-.03-.03-.06-.02-.1l.93-7.56s.01-.07.04-.1c.03-.03.06-.04.1-.04h1.52c.07,0,.12.03.15.09l1.21,2.44s.04.04.07,0l1.79-2.44c.03-.06.08-.09.16-.09Z"/>
                  <path class="cls-4" d="m1618.78,68.04s.06-.04.1-.04h1.54s.07.01.09.04c.02.03.03.06.02.1l-.93,7.56s-.02.07-.05.1c-.03.03-.06.04-.1.04h-1.54s-.07-.01-.09-.04c-.02-.03-.03-.06-.02-.1l.36-2.98s0-.06-.04-.06h-2.03s-.05.02-.07.06l-.36,2.98s-.02.07-.05.1c-.03.03-.06.04-.1.04h-1.54s-.07-.01-.09-.04c-.02-.03-.03-.06-.02-.1l.93-7.56s.01-.07.04-.1c.03-.03.06-.04.1-.04h1.53c.08,0,.12.04.12.13l-.36,2.89s.01.06.04.06h2.04s.03,0,.04-.02c.01-.01.02-.02.02-.04l.36-2.89s.02-.07.05-.1Z"/>
                  <path class="cls-4" d="m1621.45,75.27c-.46-.43-.69-1.01-.69-1.75,0-.18,0-.32.02-.41l.3-2.42c.07-.55.25-1.04.54-1.46.29-.42.67-.75,1.14-.98.47-.23.99-.35,1.57-.35.81,0,1.44.2,1.91.61.47.41.7.96.7,1.65,0,.07,0,.2-.02.38,0,.03-.02.06-.04.08-.03.03-.06.04-.1.04l-1.56.1c-.08,0-.12-.04-.11-.12,0-.04.01-.11.01-.19,0-.3-.09-.53-.26-.7-.18-.17-.41-.26-.71-.26-.33,0-.61.11-.84.32-.23.21-.37.49-.41.83l-.31,2.54s-.01.09-.01.17c0,.3.09.54.27.71.18.18.42.26.72.26.34,0,.62-.1.84-.31.23-.21.36-.48.4-.83.01-.08.06-.12.15-.12l1.53.08c.08,0,.12.04.12.11-.07.53-.25,1-.54,1.4-.29.4-.67.71-1.14.93-.47.22-.99.33-1.57.33-.8,0-1.43-.22-1.89-.65Z"/>
                </g>
              </g>
            </g>
            <g>
              <path class="cls-49" d="m1388.58,106.24c0,4.81,1.77,6.92,5.91,6.92,2,0,4.41-.6,5.95-1.77v4.58c-1.54.9-3.98,1.37-6.35,1.37-7.65,0-10.96-3.74-10.96-10.86v-2.47c0-7.12,3.31-10.86,10.96-10.86,2.37,0,4.81.5,6.35,1.37v4.58c-1.54-1.17-3.94-1.77-5.95-1.77-4.14,0-5.91,2.11-5.91,6.92v2Z"/>
              <path class="cls-49" d="m1422.73,104.17v2.1c0,7.35-3.44,11.06-10.12,11.06s-10.16-3.71-10.16-11.06v-2.1c0-7.32,3.58-11.03,10.16-11.03s10.12,3.71,10.12,11.03Zm-5.48,2v-1.87c0-4.75-1.24-6.98-4.64-6.98s-4.71,2.24-4.71,6.98v1.87c0,4.78,1.3,6.98,4.71,6.98s4.64-2.21,4.64-6.98Z"/>
              <path class="cls-49" d="m1426.4,116.93v-23.39h8.99l5.58,19.21h.23v-19.21h5.45v23.39h-9.02l-5.58-19.18h-.2v19.18h-5.45Z"/>
              <path class="cls-49" d="m1454.7,105.71c-3.24-1.44-4.34-3.21-4.34-6.45,0-3.84,2.71-6.12,8.55-6.12,2.91,0,5.88.67,7.59,1.57v4.58c-1.9-1.24-4.58-1.97-7.08-1.97s-3.61.6-3.61,2.17c0,1.2.6,2,2.21,2.71l5.18,2.27c2.97,1.3,4.34,3.21,4.34,6.35,0,3.91-2.61,6.52-8.69,6.52-3.21,0-6.15-.63-8.25-1.74v-4.54c2.17,1.3,4.98,2.11,7.75,2.11,2.41,0,3.71-.74,3.71-2.47,0-1.24-.64-1.97-2.17-2.67l-5.18-2.31Z"/>
              <path class="cls-49" d="m1471.21,93.54h15.67v4.21h-10.23v4.98h9.46v4.21h-9.46v5.81h10.49v4.18h-15.94v-23.39Z"/>
              <path class="cls-49" d="m1490.85,93.54h5.45v19.21h10.86v4.18h-16.31v-23.39Z"/>
              <path class="cls-49" d="m1510.16,93.54h5.45v8.82h7.49v-8.82h5.48v23.39h-5.48v-10.39h-7.49v10.39h-5.45v-23.39Z"/>
              <path class="cls-49" d="m1552.56,104.17v2.1c0,7.35-3.44,11.06-10.13,11.06s-10.16-3.71-10.16-11.06v-2.1c0-7.32,3.58-11.03,10.16-11.03s10.13,3.71,10.13,11.03Zm-5.48,2v-1.87c0-4.75-1.24-6.98-4.65-6.98s-4.71,2.24-4.71,6.98v1.87c0,4.78,1.3,6.98,4.71,6.98s4.65-2.21,4.65-6.98Z"/>
              <path class="cls-49" d="m1578.09,93.54l6.08,23.39h-5.55l-1.34-5.48h-7.52l-1.3,5.48h-5.55l6.05-23.39h9.12Zm-5.01,4.21l-2.34,9.52h5.58l-2.34-9.52h-.9Z"/>
              <path class="cls-49" d="m1605.35,106.27c0,7.75-3.74,10.66-11.26,10.66h-6.92v-23.39h7.12c7.45,0,11.06,2.91,11.06,10.63v2.1Zm-5.48-1.97c0-4.91-1.6-6.58-5.68-6.58h-1.54v15.04h1.27c4.18,0,5.95-1.8,5.95-6.58v-1.87Z"/>
              <path class="cls-49" d="m1635.95,116.93h-5.45v-19.18h-.23l-3.88,19.18h-7.82l-3.88-19.18h-.23v19.18h-5.45v-23.39h9.56l3.81,19.21h.2l3.81-19.21h9.56v23.39Z"/>
              <path class="cls-49" d="m1646.37,93.54v23.39h-5.38v-23.39h5.38Z"/>
              <path class="cls-49" d="m1651.38,116.93v-23.39h8.99l5.58,19.21h.23v-19.21h5.45v23.39h-9.02l-5.58-19.18h-.2v19.18h-5.45Z"/>
              <path class="cls-49" d="m1682.06,93.54v23.39h-5.38v-23.39h5.38Z"/>
              <path class="cls-49" d="m1690.41,105.71c-3.24-1.44-4.34-3.21-4.34-6.45,0-3.84,2.71-6.12,8.55-6.12,2.91,0,5.88.67,7.59,1.57v4.58c-1.9-1.24-4.58-1.97-7.08-1.97s-3.61.6-3.61,2.17c0,1.2.6,2,2.21,2.71l5.18,2.27c2.97,1.3,4.34,3.21,4.34,6.35,0,3.91-2.61,6.52-8.69,6.52-3.21,0-6.15-.63-8.25-1.74v-4.54c2.17,1.3,4.98,2.11,7.75,2.11,2.41,0,3.71-.74,3.71-2.47,0-1.24-.64-1.97-2.17-2.67l-5.18-2.31Z"/>
              <path class="cls-49" d="m1711.69,97.75h-6.45v-4.21h18.45v4.21h-6.52v19.18h-5.48v-19.18Z"/>
              <path class="cls-49" d="m1744.4,101.7c0,3.07-1.5,5.18-4.01,6.15.37.47.84,1.07,1.2,1.8l3.68,7.28h-5.55l-3.31-6.62c-.63-1.3-1.24-1.6-2.24-1.6h-2.01v8.22h-5.48v-23.39h9.39c5.11,0,8.32,2.47,8.32,7.05v1.1Zm-5.45-1.1c0-1.84-1.17-2.87-3.34-2.87h-3.44v6.82h3.44c2.17,0,3.34-1,3.34-2.84v-1.1Z"/>
              <path class="cls-49" d="m1762.78,93.54l6.08,23.39h-5.55l-1.34-5.48h-7.52l-1.3,5.48h-5.55l6.05-23.39h9.12Zm-5.01,4.21l-2.34,9.52h5.58l-2.34-9.52h-.9Z"/>
              <path class="cls-49" d="m1774.97,97.75h-6.45v-4.21h18.45v4.21h-6.52v19.18h-5.48v-19.18Z"/>
              <path class="cls-49" d="m1795.68,93.54v23.39h-5.38v-23.39h5.38Z"/>
              <path class="cls-49" d="m1814.23,116.93h-9.16l-6.05-23.39h5.55l4.61,19.21h.9l4.64-19.21h5.55l-6.05,23.39Z"/>
              <path class="cls-49" d="m1842.56,104.17v2.1c0,7.35-3.44,11.06-10.12,11.06s-10.16-3.71-10.16-11.06v-2.1c0-7.32,3.58-11.03,10.16-11.03s10.12,3.71,10.12,11.03Zm-5.48,2v-1.87c0-4.75-1.24-6.98-4.64-6.98s-4.71,2.24-4.71,6.98v1.87c0,4.78,1.3,6.98,4.71,6.98s4.64-2.21,4.64-6.98Z"/>
            </g>
          </g>
        </g>
      </g>
    </g>
  </g>
</svg>