<?xml version="1.0" encoding="UTF-8"?>
<svg xmlns="http://www.w3.org/2000/svg" viewBox="0 0 292.85 803.53">
  <defs>
    <style>
      .cls-1 {
        fill: #8ab9d3;
        opacity: .25;
      }

      .cls-2 {
        fill: #eeeefa;
      }

      .cls-3 {
        fill: #7d828a;
      }

      .cls-4 {
        fill: #f7b994;
      }

      .cls-5 {
        fill: #fff;
      }

      .cls-6 {
        fill: #ab7f54;
      }

      .cls-7 {
        fill: #54575d;
      }

      .cls-8 {
        fill: #004991;
      }

      .cls-9 {
        fill: #b27956;
      }

      .cls-10 {
        fill: #045aa0;
      }

      .cls-11 {
        fill: #fb4644;
      }

      .cls-12 {
        fill: #f2b189;
      }

      .cls-13 {
        fill: #f6b98a;
      }

      .cls-14 {
        isolation: isolate;
      }

      .cls-15 {
        fill: #42444a;
      }

      .cls-16 {
        fill: #d3d3e6;
      }

      .cls-17 {
        fill: #b3a4a5;
      }

      .cls-18 {
        fill: #e34341;
      }

      .cls-19 {
        fill: #a12220;
      }

      .cls-20 {
        fill: #fb4a48;
      }

      .cls-21 {
        opacity: .63;
      }

      .cls-22 {
        fill: #e3e3fa;
      }

      .cls-23 {
        fill: #e6a37e;
      }

      .cls-24 {
        fill: #e3946b;
      }

      .cls-25 {
        fill: #e3976f;
      }

      .cls-26 {
        fill: #4c4e54;
      }

      .cls-27 {
        fill: #feb990;
      }

      .cls-28 {
        fill: #292b30;
      }

      .cls-29 {
        fill: #57352a;
      }

      .cls-30 {
        opacity: .4;
      }

      .cls-31 {
        fill: #2f2e31;
      }

      .cls-32 {
        fill: #3a7ec1;
        mix-blend-mode: multiply;
        opacity: .2;
      }

      .cls-33 {
        fill: #b5a6a7;
      }

      .cls-34 {
        fill: #8a4c32;
      }

      .cls-35 {
        fill: #777c85;
      }

      .cls-36 {
        fill: #bf784a;
      }

      .cls-37 {
        fill: #e09f4f;
      }

      .cls-38 {
        fill: #f5ae85;
      }

      .cls-39 {
        fill: #173348;
      }

      .cls-40 {
        fill: #4d3933;
      }

      .cls-41 {
        fill: #decbcc;
      }

      .cls-42 {
        fill: #b7905b;
      }

      .cls-43 {
        fill: #e09e79;
      }

      .cls-44 {
        fill: #43454a;
      }

      .cls-45 {
        fill: #362920;
      }

      .cls-46 {
        fill: #2e3036;
      }

      .cls-47 {
        fill: #703f31;
      }

      .cls-48 {
        fill: #f29f81;
      }

      .cls-49 {
        fill: #522c2c;
      }

      .cls-50 {
        fill: #262526;
      }

      .cls-51 {
        fill: #78422b;
      }

      .cls-52 {
        opacity: .77;
      }

      .cls-53 {
        fill: #d5d5f7;
      }

      .cls-54 {
        fill: #a2623b;
      }

      .cls-55 {
        fill: #c7c7f0;
      }

      .cls-56 {
        fill: #d68262;
      }
    </style>
  </defs>
  <g class="cls-14">
    <g id="Layer_2" data-name="Layer 2">
      <g id="Camada_1" data-name="Camada 1">
        <g>
          <g>
            <path class="cls-12" d="m215.67,535.55c4.34,5.95,9.13-3.32,9.13-3.32l15.17-7.09-16.88-17.2-10.71,5.77-1.21,6.26,4.5,15.58Z"/>
            <path class="cls-25" d="m215.67,535.55l-.97-3.37c.41.17.83.4,1.28.74,6.39,4.76,8.7-2.17,8.7-2.58s7.61-5.03,7.61-5.03c0,0-9.25-15.91-9.79-16.32,0,0,4.41,3.75,9.7,8.25l7.75,7.9-15.17,7.09s-4.79,9.27-9.13,3.32Z"/>
            <g>
              <polygon class="cls-22" points="222.26 508.15 239.77 533.02 251.62 523.5 225.75 503.59 222.26 508.15"/>
              <path class="cls-26" d="m226.36,356.57c-1.2,3.55-10.02,63.8-8.53,67.31.27,1.63,32.86,17.21,30.47,34.81-2.38,17.6-23.59,45.61-23.59,45.61l28.98,28.89s44.17-72.69,38.69-89.36c-.45-5.37-18.18-43.34-18.18-43.34,0,0-2.99-8.75-4.13-10.24-1.14-1.48-9.51-5.94-10.99-9.46-1.49-3.52-5.46-20.57-23.31-25.54-5.94-.68-9.41,1.31-9.41,1.31Z"/>
            </g>
            <path class="cls-53" d="m178.38,314.85c.84,1.67,6.69,12.26,7.24,13.65.56,1.39,1.39,24.24,1.11,31.76-.28,7.52-9.2,43.46-9.2,43.46l-12.26,29.53-19.22-34.27s-21.18-79.68-19.23-85.53c1.95-5.85,10.59-.84,11.15.28.56,1.11,18.94,11.14,18.94,11.14l21.45-10.03Z"/>
            <path class="cls-55" d="m182.99,367.04c-.72.93-.65-28.72-.65-28.72l-4.06,6.65-9.74-7.14-3.57,8.6-14.93.65-4.87-8.6-5.84,6.33s-.49,6.81.97,19.31c1.46,12.5-6.98-2.76-7.3-5.19-.32-2.44-5.03-36.83-5.03-36.83,0,0,17.69,1.46,18.17,1.95s30.99-.65,30.99-.65l8.11-1.95s.49,42.03-2.27,45.59Z"/>
            <g>
              <path class="cls-34" d="m62.87,781.83c-1.18,2.83-2.59,21.7-2.59,21.7H6.73s-7.78-7.31-6.6-14.15c1.18-6.84.47-6.84,5.9-7.32,4.96-.23,13.68,3.07,13.68,3.07l11.8-10.14s9.67-13.68,18.87-7.78c9.2,5.9,12.5,14.63,12.5,14.63Z"/>
              <g>
                <path class="cls-49" d="m20.65,794.8c7.78,4.24,18.87,5.19,18.87,5.19l11.09-3.07s6.1.63,10.15.84c-.29,3.29-.48,5.77-.48,5.77H6.73s-7.48-7.05-6.64-13.77c6.66-.54,15.76,2.43,20.56,5.05Z"/>
                <path class="cls-31" d="m44.89,781.3c-5.38-.49-12.99-1.14-17.83-1.49,4.1,1.2,10.19,2.89,14.55,4.09.32.09.53.41.47.74-.06.33-.35.57-.69.54l-14.76-1.18,13.55,3.6c.34.09.55.45.46.8-.08.29-.34.49-.63.49-.05,0-.11,0-.17-.02l-18.69-4.96,1.74-1.5,11.79.94c-3.45-.97-7.14-2.01-9.67-2.77l2.39-2.05c3.39.23,8.82.69,17.6,1.49.36.03.62.35.59.71-.03.35-.32.62-.7.59Z"/>
                <path class="cls-19" d="m11.14,793.66c3.4,1.21,18.23,7.84,26.75,9.88H6.73s-5.88-5.55-6.62-11.5c2.89.2,8.18.61,11.03,1.63Z"/>
                <path class="cls-19" d="m52.35,799.32s-.12,2.48-.18,4.21h-13.53c4.56-.99,13.71-4.21,13.71-4.21Z"/>
                <path class="cls-3" d="m31.27,789.99c-.34-.09-22.04-6.35-22.04-6.35-1.13-.35,6.12,2.92,9.69,3.86,5.23,1.37,12.35,2.49,12.35,2.49Z"/>
              </g>
            </g>
            <g>
              <path class="cls-34" d="m168.56,764.37s6.6,16.99,15.57,17.46c8.97.47,19.58-3.54,20.53-3.07.94.47,5.43,3.3,5.43,3.3,0,0-5.19,12.98-15.81,16.52-.71.24-55.2,0-55.2,0,0,0,0-25.48,2.12-26.89,2.12-1.42,27.37-7.31,27.37-7.31Z"/>
              <path class="cls-49" d="m139.07,798.58s0-2.55.07-6.07l14.32-.77s11.09,4.25,20.76,4.01c9.67-.23,23.12-6.6,26.89-10.14,2.33-2.19,5.3-2.75,8.67-2.86-1.22,2.69-6.34,12.78-15.51,15.84-.71.24-55.2,0-55.2,0Z"/>
              <g>
                <path class="cls-31" d="m173.55,773.77l-14.65.49c-.32.01-.62-.23-.67-.55-.05-.33.15-.64.47-.73l12.3-3.42c.2.38.42.77.65,1.17l-7.35,2.04,8.41-.28c.27.43.55.85.84,1.28Z"/>
                <path class="cls-31" d="m173.68,778.99l-10.71.27c-.33.05-.61-.22-.66-.55-.05-.32.14-.63.45-.73l11.33-3.41c.27.37.56.74.84,1.11l-7.16,2.16c2.88-.07,6.03-.15,8.81-.22.42.45.86.87,1.3,1.27-1.19.03-2.58.07-4.21.11Z"/>
                <path class="cls-31" d="m166.87,783.88c-.07.02-.13.03-.19.03-.28,0-.54-.18-.62-.46-.1-.34.09-.71.43-.81,2.82-.87,7.72-2.36,11.68-3.53.41.35.84.69,1.27.98-3.7,1.09-8.72,2.61-12.57,3.79Z"/>
              </g>
              <path class="cls-19" d="m208.67,784.96c-2.18,4.03-6.95,11.14-14.4,13.62-.26.09-8.04.11-17.67.1,15.65-3,25.66-10.98,27.31-12.08,1.07-.71,3.13-1.28,4.76-1.65Z"/>
              <path class="cls-19" d="m153.1,798.63c.2-2.3.42-4.73.49-4.73,3.04,2.08,13.53,4.55,13.78,4.61,0,0,.2.07.46.16-5.09-.01-10.22-.03-14.72-.04Z"/>
              <path class="cls-35" d="m202.57,782.05c-.81,0-11.3,3.83-15.61,4.51-3.69.58-14.06.74-14.06.74,0,0,5.95-.1,14.63-1.92,8.68-1.82,15.04-3.33,15.04-3.33Z"/>
            </g>
            <path class="cls-51" d="m55.37,790.16c-3.76-2.41-11.62-12.25-14.13-12.87-1.56-.39-7.62-.43-11.95-.41l2.2-1.89s1.64-2.29,4.18-4.6l23.28,4.8c2.77,3.65,3.91,6.64,3.91,6.64-.49,1.18-1.02,5.13-1.47,9.35-1.44.32-3.73.46-6.03-1.02Z"/>
            <path class="cls-51" d="m140.33,774.02l10.53-5.29c6.03-1.58,13.16-3.29,16.2-4l1.8.37c.65,1.53,2.35,5.24,4.78,8.8-2.22-.27-5-.18-7.8,1.28-5.75,3-16.64,13.64-20.14,15.14-2.61,1.12-5.36,3.07-6.59,3.99.08-5.74.35-15.72,1.22-20.28Z"/>
            <g>
              <path class="cls-11" d="m170.99,327.87c-1.33,2.21-6.63,17.67-6.63,17.67l-14.14-.89-9.72-21.65,18.11,1.33,11.93-1.33.44,4.86Z"/>
              <path class="cls-18" d="m166.04,334.37c-.11-.33-4.99-5.43-8.04-5.54-3.04-.11-8.46,6.08-8.46,6.08l1.74,9.01-1.37.03-7.95-17.71,2.55-2.94,14.11,1.03,6.49-.72,4.95.44s.29.43.68,1.05l.25,2.76c-1.33,2.21-6.63,17.67-6.63,17.67.16-.32,1.79-10.85,1.68-11.17Z"/>
              <g>
                <path class="cls-20" d="m164.41,343.38c1.32,3.09,10.99,57.82,11.43,59.15.44,1.33-10.6,35.78-10.6,35.78l-25.18-48.15,9.48-47.97,14.87,1.2Z"/>
                <path class="cls-18" d="m166.99,355.21c-1.35-4.41-2.6-8.4-2.76-8.4-.35,0-12.74-1.53-13.45-.59-.52.69-3.71,11.29-5.37,16.88l4.14-20.93,14.87,1.2c.36.84,1.33,5.49,2.57,11.83Z"/>
              </g>
            </g>
            <path class="cls-46" d="m216.26,567.35c-1.39-1.04-12.13,82.49-14.21,92.19-2.08,9.7-24.96,79.02-30.15,93.58-1.39,4.51-1.71,15.98,2.1,21.18-.69-1.04-19.78-1.43-35.03,20.75.69,0-2.77-50.6-.69-58.92,2.08-8.32,19.06-109.18,19.41-134.13-1.04-.69-2.43,3.12-3.47,4.16-1.04,1.04-42.98,119.23-79.37,166.02-2.43,3.47-12.55,13.98-13.43,18.17-.22,1.02-14.29-14.7-20.18-14.35-5.89.34-13.43,2.16-13.43,2.16,0,0,37.34-59,47.4-98.51,10.05-39.51,30.15-120.62,26.34-131.01,2.43-2.08,103.99-16.24,103.99-16.24,0,0,12.12,36,10.73,34.96Z"/>
            <g>
              <g>
                <path class="cls-50" d="m173.6,541.84c.17,0,.32-.14.33-.31v-.24c0-.2,0-.36-.02-.47-.03-.18-.2-.3-.37-.27-.18.03-.3.19-.27.37.01.08.02.2.02.36v.22c0,.18.13.33.31.34h0Z"/>
                <g>
                  <path class="cls-50" d="m173.47,543.75c.17,0,.31-.13.33-.3l.05-.65c.01-.18-.12-.34-.3-.35-.16,0-.33.12-.35.3l-.05.64c-.01.18.12.34.3.35h.03Z"/>
                  <path class="cls-50" d="m161.78,585.49c-.02-.18.11-.34.29-.36.43-.05.84-.11,1.21-.2.18-.04.35.07.39.25.04.17-.07.35-.24.39-.4.1-.83.17-1.29.22h-.03c-.17,0-.31-.12-.33-.29Zm2.48-.51c-.07-.16,0-.36.17-.43.38-.16.73-.36,1.04-.58.14-.1.35-.07.46.07.1.15.07.35-.07.46-.34.25-.74.47-1.17.66-.04.02-.08.02-.13.02-.13,0-.25-.07-.3-.2Zm2.11-1.38c-.14-.11-.17-.31-.06-.46.23-.3.43-.65.57-1.02.07-.17.25-.25.42-.19.17.07.25.25.19.42-.17.43-.39.83-.66,1.18-.06.08-.16.13-.26.13-.07,0-.14-.02-.2-.07Zm1.08-2.26c-.17-.04-.28-.22-.23-.4.1-.39.2-.8.3-1.23.04-.17.21-.28.39-.24.17.04.28.22.24.39-.1.44-.2.85-.3,1.24-.04.15-.17.24-.31.24-.03,0-.05,0-.08,0Zm.59-2.47c-.18-.04-.29-.21-.25-.39.09-.4.18-.81.27-1.24.04-.18.21-.29.38-.25.18.04.29.21.25.38-.09.43-.18.84-.27,1.25-.03.15-.17.25-.32.25-.02,0-.04,0-.07,0Zm.53-2.49c-.17-.04-.29-.21-.25-.38.08-.41.16-.82.25-1.25.03-.18.2-.28.38-.26.18.04.29.21.26.38-.08.43-.16.84-.24,1.25-.03.15-.17.26-.32.26-.02,0-.04,0-.07,0Zm.49-2.49c-.18-.03-.29-.2-.26-.38l.23-1.25c.03-.18.2-.3.38-.26s.29.2.26.38l-.23,1.25c-.03.16-.17.27-.32.27-.02,0-.04,0-.06,0Zm.46-2.5c-.18-.03-.29-.2-.26-.38l.22-1.25c.03-.17.19-.29.38-.26.18.03.3.2.26.37l-.22,1.25c-.03.16-.16.27-.32.27-.02,0-.04,0-.06,0Zm.44-2.5c-.18-.03-.3-.2-.27-.37l.21-1.25c.03-.18.2-.29.37-.27.18.03.3.19.27.37l-.21,1.25c-.03.16-.16.27-.32.27-.02,0-.04,0-.05,0Zm.42-2.51c-.18-.03-.3-.2-.27-.37l.2-1.25c.03-.17.19-.31.37-.27.18.03.3.19.27.37l-.2,1.25c-.03.16-.16.27-.32.27-.02,0-.05,0-.05,0Zm.4-2.51c-.18-.03-.3-.19-.27-.37l.19-1.25c.03-.18.2-.31.37-.27.18.03.3.19.27.37l-.2,1.26c-.02.16-.16.27-.32.27,0,0-.03,0-.05,0Zm.39-2.51c-.18-.03-.3-.19-.27-.37l.19-1.26c.03-.17.18-.3.37-.27.18.03.3.19.27.37l-.19,1.26c-.02.16-.16.28-.32.28h-.05Zm.37-2.51c-.18-.03-.3-.19-.28-.37l.18-1.26c.03-.18.2-.31.37-.28.18.03.3.19.28.37l-.18,1.26c-.02.16-.16.28-.32.28-.01,0-.03,0-.05,0Zm.36-2.52c-.18-.02-.3-.19-.28-.37l.17-1.25c.02-.18.17-.31.37-.28.18.02.3.19.28.37l-.18,1.26c-.02.16-.16.28-.32.28-.01,0-.03,0-.05,0Zm.35-2.51c-.18-.03-.3-.19-.28-.37l.17-1.26c.02-.18.17-.31.37-.28.18.02.3.19.28.37l-.17,1.26c-.02.16-.16.28-.32.28h-.04Zm.05-2.9l.16-1.24c.02-.18.2-.32.37-.28.18.02.31.18.28.36l-.16,1.26-.65-.1Zm.59-2.14c-.18-.02-.3-.18-.28-.36l.15-1.26c.02-.18.17-.32.36-.28.18.02.31.18.28.36l-.15,1.26c-.02.16-.16.29-.32.29,0,0-.02,0-.04,0Zm.3-2.52c-.18-.02-.31-.18-.29-.36.05-.44.09-.86.13-1.26.02-.18.19-.33.35-.29.18.02.31.17.29.35-.04.4-.08.82-.13,1.27-.02.16-.16.29-.32.29h-.04Z"/>
                  <path class="cls-50" d="m160.72,585.85c.21,0,.45-.11.45-.33,0-.18-.15-.32-.33-.32-.04-.02-.08,0-.12,0-.18,0-.35,0-.51,0h-.01c-.18,0-.32.14-.33.31,0,.18.13.33.31.34.17,0,.35,0,.54,0Z"/>
                </g>
                <path class="cls-50" d="m159.54,585.8c.17,0,.31-.13.32-.3.01-.18-.12-.34-.3-.35-.34-.03-.55-.06-.59-.07-.17-.04-.34.07-.38.24-.04.17.05.34.22.39.07.02.36.06.7.09h.03Z"/>
              </g>
              <path class="cls-50" d="m157.59,584.98c.07-.48,6.59-47.84,6.93-49.89l-1.28-.21c-.34,2.07-6.66,47.97-6.94,49.93l1.29.18Z"/>
            </g>
            <g>
              <path class="cls-28" d="m200.9,563.77c-1.11,7.48-2.32,14.93-3.56,22.39l-3.76,22.35-4,22.3c-1.4,7.42-2.75,14.85-4.29,22.24-.77,3.7-1.46,7.41-2.29,11.09l-2.38,11.07c-1.7,7.35-3.29,14.73-5.22,22.03-.93,3.66-1.82,7.33-2.89,10.94-1.05,3.62-2.02,7.27-3.13,10.87l-3.44,10.77-3.97,10.58-.02.05h0c-.78,2.86-1.35,5.76-1.63,8.7-.28,2.93-.3,5.89-.03,8.82.27,2.93.83,5.83,1.73,8.63.9,2.79,2.14,5.48,3.83,7.87-1.6-2.45-2.74-5.16-3.53-7.96-.79-2.8-1.24-5.68-1.4-8.58-.16-2.9-.04-5.8.34-8.67.17-1.43.43-2.86.72-4.27.28-1.42.68-2.81,1.06-4.2l-.02.06,4.21-10.56,3.67-10.76c1.21-3.59,2.17-7.25,3.26-10.88,1.1-3.62,2.01-7.3,2.97-10.96,1.98-7.31,3.63-14.69,5.38-22.05l2.37-11.09c.81-3.7,1.48-7.42,2.22-11.13,1.49-7.41,2.8-14.86,4.15-22.3,1.32-7.44,2.49-14.91,3.65-22.39,1.13-7.47,2.29-14.94,3.25-22.44.98-7.49,1.93-14.99,2.77-22.5Z"/>
              <path class="cls-28" d="m121.23,569.42s.16.86-.03,2.48c-.17,1.61-.56,3.96-1.2,6.92-1.24,5.93-3.45,14.3-6.19,24.31-2.73,10.02-6.18,21.63-9.96,34.04-3.79,12.41-7.98,25.6-12.62,38.63-2.34,6.53-4.67,12.95-7.5,19.18-2.8,6.18-5.73,12.19-8.74,17.94-5.98,11.5-11.78,22.14-16.92,31.16-5.16,9.01-9.46,16.52-12.48,21.78-3.08,5.22-4.84,8.2-4.84,8.2,0,0,1.86-2.92,5.12-8.03,3.21-5.14,7.87-12.44,13.15-21.39,5.28-8.95,11.44-19.4,17.46-30.93,3.05-5.74,6.04-11.77,8.91-17.99,2.85-6.18,5.34-12.75,7.64-19.27,4.58-13.1,8.7-26.34,12.41-38.79,3.69-12.46,6.82-24.18,9.4-34.25,2.56-10.07,4.38-18.55,5.45-24.52.53-2.99.85-5.35.96-6.97.13-1.63-.06-2.49-.06-2.49Z"/>
            </g>
            <path class="cls-28" d="m181.82,589.22c-12.09-18.68-15.48-32.12-15.48-32.12,0,0-18.21,46.93-44.38,42.27-13.54-2.41-19.04-16.57-22.24-27.06,2.03-11.92,2.9-20.69,1.81-23.67,1.73-1.48,53.63-9.07,83.44-13.33l27.85,29.33s.81,4.64,1.71,10.43c-1.08,6.43-2.53,16.25-4.07,26.98-6.63,3.19-17.58,4.27-28.64-12.82Z"/>
            <path class="cls-7" d="m181.85,318.23s5.03,4.52,6.71,9.36c0-.44,47.72,17.58,50.46,31.4,4.19,21.08-18.56,77.11-31.37,98.76-2.21,5.3-3.53,14.14,0,21.65,1.52,3.23,3.1,20.06,7.53,35.38,0,0,3.44,29.82,3.74,33.23,1.04,11.54,1.43,21.8.66,28.13-.89,1.32-15.9,17.23-29.6,0-13.69-17.23-22.53-30.48-22.53-30.48,0,0-26.5,46.83-41.97,44.62-14.58-2.65-28.57-22.72-32.54-45.69-.44,0,6.48-31.17,6.48-31.17,0,0-1.77-57.87-22.09-110.44-20.32-52.57-21.13-65.05-18.04-65.93,3.09-.88,43.7-15.1,61.81-15.54.44-.44,6.1-12.92,9.63-12.04-.44.88,8.44,83.35,34.5,116.92.44.44,20.32-70.24,18.56-87.47-1.77-17.23-1.95-20.68-1.95-20.68Z"/>
            <path class="cls-26" d="m121.95,381.32l14.14-13.25-17.23-3.53,2.33-43.72c2.08-4.35,6.76-13.96,9.42-13.3-.44.88,8.57,85.28,34.63,118.86.44.44,16.7-69.4,17.12-86.71.39-16.2-.77-24.61-.77-24.61,0,0,8.65,7.05,11.13,18.55l8.75,38.43-16.79-.44,15.02,10.16s-31.29,61.13-30.85,62.45c.44,1.33,2.14,19.27,2.14,19.27l-49.03-82.17Z"/>
            <path class="cls-25" d="m71.43,586.46s9.68,4.06,9.22,7.72c-.46,3.66-7.19,9.72-8.86,7.94-1.4-1.48-1.68-8.4-1.68-8.4l1.32-7.26Z"/>
            <g>
              <g>
                <g>
                  <g>
                    <path class="cls-40" d="m40.64,600.26c.16-.97,1.47-8.53,1.47-8.53l6.59,1.08s-.72,6.88-1.19,6.85-6.88.59-6.88.59Z"/>
                    <path class="cls-40" d="m79,597.12l-.77,4.41s9.46.63,8.97.6c-.48-.03-.15-4.27-.15-4.27l-8.05-.75Z"/>
                  </g>
                  <path class="cls-47" d="m22.05,598.26c-1.99.37-10.75,2.08-12.49,14.35-1.74,12.28-3.91,60.42-3.91,60.42l101.38,10.26,6.13-68.78s1.07-9.51-5.15-10.54c-10.85-1.79-85.96-5.71-85.96-5.71Z"/>
                  <path class="cls-40" d="m100.18,613.86l-8.14,67.92,14.97,1.52.03-.24,6.11-68.54s.33-3.28-.62-6.19c-.67-.33-1.33-.68-2.06-.8-9.73-1.59-10.29,6.34-10.29,6.34Z"/>
                  <g>
                    <polygon class="cls-42" points="16.33 616.12 16.44 614.74 17.2 614.81 17.09 616.19 16.33 616.12"/>
                    <path class="cls-42" d="m18.62,616.32l.11-1.38,1.54.13-.12,1.38-1.53-.14Zm3.07.27l.11-1.37,1.54.13-.12,1.37-1.53-.13Zm3.07.27l.12-1.38,1.53.14-.11,1.37-1.54-.13Zm3.07.27l.11-1.38,1.54.13-.11,1.38-1.54-.14Zm3.07.27l.11-1.37,1.54.13-.11,1.38-1.54-.14Zm3.07.27l.12-1.38,1.54.14-.12,1.38-1.54-.14Zm3.07.28l.11-1.38,1.53.14-.11,1.38-1.53-.13Zm3.07.27l.11-1.37,1.54.14-.11,1.37-1.53-.14Zm3.07.27l.11-1.38,1.54.14-.11,1.38-1.54-.14Zm3.07.28l.11-1.38,1.54.13-.11,1.38-1.54-.13Zm3.07.27l.11-1.37,1.54.14-.11,1.37-1.53-.14Zm3.07.28l.11-1.38,1.54.13-.11,1.38-1.53-.13Zm3.07.27l.12-1.37,1.53.14-.11,1.38-1.54-.14Zm3.07.28l.12-1.38,1.54.14-.12,1.38-1.54-.14Zm3.08.27l.11-1.38,1.54.13-.12,1.38-1.53-.14Zm3.07.28l.12-1.38,1.53.14-.11,1.38-1.54-.13Zm3.07.27l.12-1.38,1.53.14-.11,1.38-1.54-.14Zm3.07.28l.11-1.38,1.53.13-.11,1.38-1.54-.13Zm3.07.27l.11-1.38,1.54.14-.11,1.37-1.53-.13Zm3.07.27l.11-1.38,1.53.14-.11,1.37-1.54-.14Zm3.07.28l.11-1.38,1.54.13-.11,1.38-1.53-.13Zm3.07.27l.11-1.38,1.54.14-.11,1.37-1.54-.14Zm3.07.27l.11-1.37,1.54.13-.12,1.38-1.53-.14Z"/>
                    <polygon class="cls-42" points="89.27 622.6 89.38 621.22 90.14 621.29 90.03 622.66 89.27 622.6"/>
                  </g>
                  <path class="cls-37" d="m90.18,621.1c-.42-.07-4.76-.78-4.76-.78l-.49,2.83,4.85.29.4-2.34Z"/>
                  <polygon class="cls-6" points="85.48 620.33 89.88 621.31 89.56 623.16 86.5 623.25 89.83 623.45 90.23 621.11 85.37 620.32 85.48 620.33"/>
                  <path class="cls-36" d="m86.16,621.9s-1.22,3.17-1.28,3.54c-.06.37,1.24,3,2.48.09l-.13-3.45-1.06-.18Z"/>
                  <polygon class="cls-36" points="37.27 667.2 56.98 668.92 57.15 672.7 36.77 670.12 37.27 667.2"/>
                  <polygon class="cls-37" points="37.27 667.2 56.36 669.45 56.26 672.59 36.77 670.12 37.27 667.2"/>
                  <path class="cls-47" d="m41.04,592.13s-.24-13.3,24.23-10.17c26.26,3.36,22.66,15.98,22.66,15.98l-9.83-.91s2.37-6.47-14.32-8.68c-15.54-2.05-13.98,4.56-13.98,4.56l-8.75-.78Z"/>
                  <path class="cls-47" d="m104.76,611.12l-9.24,69.54,9.6.66,5.68-70.04s-2.63-3.23-6.04-.16Z"/>
                </g>
                <path class="cls-54" d="m17.69,603.87s5.01.07,12.54.41c3.76.19,8.15.37,12.85.67,4.7.3,9.71.63,14.72.96,5,.39,10.01.79,14.7,1.17,4.69.38,9.07.83,12.82,1.18,7.5.75,12.48,1.37,12.48,1.37,0,0-5.01-.32-12.52-.79-7.51-.52-17.53-1.21-27.54-1.9-10.02-.75-20.02-1.51-27.53-2.07-7.51-.6-12.51-.99-12.51-.99Z"/>
                <path class="cls-54" d="m99.39,611.43s-.52,4.22-1.31,10.55c-.43,3.16-.92,6.85-1.45,10.8-.55,3.95-1.14,8.16-1.74,12.37-.62,4.21-1.25,8.41-1.84,12.36-.61,3.94-1.18,7.62-1.68,10.77-1.04,6.29-1.73,10.49-1.73,10.49,0,0,.52-4.22,1.31-10.55.42-3.16.92-6.85,1.45-10.8.56-3.95,1.15-8.16,1.74-12.37.62-4.21,1.25-8.42,1.84-12.36.62-3.94,1.19-7.62,1.68-10.77,1.04-6.3,1.73-10.5,1.73-10.5Z"/>
                <g>
                  <path class="cls-54" d="m10.29,666.41l.08-1.39.38.03-.08,1.39-.38-.03Zm.16-2.77l.08-1.39.38.03-.08,1.39-.38-.03Zm.16-2.78l.08-1.39.38.03-.08,1.39-.38-.03Zm.16-2.77l.08-1.39.38.03-.08,1.38-.38-.02Zm.16-2.78l.08-1.39.38.03-.08,1.39-.38-.03Zm.16-2.78l.08-1.38.38.02-.08,1.39-.38-.03Zm.16-2.77l.08-1.39.38.03-.08,1.38-.38-.02Zm.16-2.78l.08-1.39.38.03-.08,1.39-.38-.03Zm.16-2.77l.08-1.39.38.02-.08,1.39-.38-.02Zm.16-2.78l.08-1.39.38.03-.08,1.39-.38-.03Zm.16-2.78l.08-1.39.38.03-.08,1.39-.38-.03Zm.16-2.77l.08-1.39.38.03-.08,1.39-.38-.03Zm.16-2.78l.08-1.39.38.03-.08,1.39-.38-.03Zm.16-2.77l.08-1.38.38.03-.08,1.39-.38-.03Zm.16-2.77l.08-1.39.38.03-.08,1.39-.38-.03Zm.16-2.78l.08-1.39.38.03-.08,1.39-.38-.03Zm.16-2.77c.03-.47.05-.93.08-1.39l.38.03c-.03.46-.06.93-.08,1.39l-.38-.03Zm.18-2.78c.03-.46.07-.93.11-1.39l.38.03c-.04.46-.08.92-.11,1.38l-.38-.03Zm.24-2.77c.05-.46.1-.92.17-1.38l.38.05c-.07.46-.12.91-.17,1.37l-.38-.04Zm.75-2.7l-.37-.07v-.06c.08-.44.17-.88.26-1.31l.38.07c-.09.43-.18.86-.25,1.29v.07Zm.57-2.71l-.37-.09c.12-.46.26-.91.39-1.34l.36.1c-.14.43-.27.88-.39,1.33Zm.85-2.64l-.35-.12.09-.23c.14-.36.29-.71.46-1.06l.35.14c-.16.34-.31.69-.45,1.05l-.09.23Zm1.17-2.52l-.34-.16c.23-.42.47-.84.72-1.22l.33.17c-.25.39-.49.79-.71,1.2Zm1.5-2.36l-.32-.2c.29-.39.59-.77.9-1.12l.3.22c-.3.35-.6.72-.88,1.1Zm1.85-2.14l-.28-.24c.35-.34.72-.67,1.09-.97l.25.26c-.37.3-.72.62-1.07.96Zm2.23-1.8l-.23-.28c.42-.27.85-.52,1.29-.75l.19.3c-.43.22-.85.46-1.25.73Z"/>
                  <polygon class="cls-54" points="10.17 668.51 10.21 667.81 10.59 667.84 10.55 668.53 10.17 668.51"/>
                </g>
                <path class="cls-54" d="m87.03,677.75l.14-1.38.37.04-.14,1.38-.38-.04Zm.29-2.76c.04-.42.09-.88.14-1.38l.38.04c-.05.49-.1.96-.14,1.38l-.38-.04Zm.28-2.75l.14-1.38.38.04-.15,1.38-.38-.04Zm.29-2.76l.15-1.38.38.04-.15,1.38-.38-.04Zm.3-2.76l.15-1.38.38.04-.15,1.38-.38-.04Zm.31-2.75l.15-1.37.38.04-.15,1.38-.38-.04Zm.31-2.75l.16-1.37.38.04-.16,1.38-.38-.04Zm.31-2.75l.16-1.37.38.05-.16,1.37-.38-.04Zm.32-2.75l.16-1.37.38.04-.16,1.37-.38-.04Zm.33-2.75l.16-1.37.38.04-.16,1.38-.38-.05Zm.33-2.74l.17-1.37.38.04-.17,1.37-.38-.04Zm.34-2.74l.17-1.38.38.05-.17,1.37-.38-.04Zm.34-2.75l.17-1.37.38.05-.17,1.37-.38-.05Zm.35-2.75l.18-1.37.38.04-.18,1.38-.37-.05Zm.36-2.74l.18-1.37.38.05-.18,1.37-.38-.05Zm.37-2.74l.19-1.37.38.05-.19,1.37-.38-.05Zm.38-2.74l.2-1.37.38.05-.2,1.37-.38-.05Zm.4-2.74l.2-1.37.38.05-.2,1.37-.38-.05Zm.41-2.74c.07-.46.14-.92.21-1.37l.38.05c-.07.45-.14.91-.21,1.37l-.38-.05Zm.42-2.73c.07-.46.15-.92.22-1.37l.38.06c-.07.46-.15.91-.22,1.37l-.38-.05Zm.44-2.74c.08-.46.15-.91.23-1.37l.37.06c-.07.45-.15.9-.23,1.36l-.38-.06Zm.84-2.67l-.38-.06c.08-.46.16-.92.24-1.36l.37.06c-.08.45-.16.9-.24,1.36Zm.49-2.72l-.38-.06c.09-.46.18-.92.27-1.36l.37.07c-.08.45-.17.9-.26,1.36Zm.53-2.71l-.38-.07c.1-.45.2-.91.31-1.36l.37.08c-.11.45-.21.9-.31,1.35Zm.66-2.67l-.37-.1c.14-.46.28-.91.44-1.32l.36.12c-.15.41-.3.85-.44,1.31Zm.97-2.57l-.35-.14c.21-.44.44-.86.68-1.25l.33.18c-.24.37-.46.78-.67,1.21Zm1.48-2.33l-.31-.22c.32-.38.66-.73,1.02-1.04l.26.25c-.35.3-.67.64-.98,1.01Zm2.12-1.85l-.22-.28c.42-.26.87-.49,1.34-.69l.16.31c-.45.19-.88.41-1.28.66Zm2.67-1.13l-.11-.34c.47-.12.51-.15,1.03-.23l.54.27c-.5.07-.99.18-1.45.3Z"/>
                <path class="cls-54" d="m10.34,670.61l.05-.34,1.51.2-.04.34-1.51-.2Zm3.02.4l.05-.34,1.51.19-.04.35-1.51-.19Zm3.02.39l.04-.34,1.51.19-.04.34-1.51-.19Zm3.02.39l.04-.34,1.51.19-.04.34-1.51-.19Zm3.02.38l.04-.34,1.51.19-.05.34-1.51-.19Zm3.02.37l.04-.34c.51.06,1.01.12,1.51.18l-.04.34c-.51-.06-1.01-.12-1.51-.18Zm3.02.37l.04-.34,1.51.18-.04.35-1.52-.18Zm3.03.36l.04-.34,1.51.18-.04.34-1.51-.18Zm3.02.35l.04-.34,1.51.18-.04.34-1.52-.18Zm3.03.35l.04-.34c.5.06,1,.12,1.51.17l-.04.34c-.5-.06-1.01-.11-1.51-.17Zm3.06.35v-.35s.04,0,.04,0l1.47.16-.04.34-1.47-.16Zm2.98.34l.04-.34,1.52.16-.04.34-1.52-.16Zm3.03.33l.04-.34,1.51.16-.03.35-1.52-.16Zm3.03.32l.04-.34,1.51.16-.03.34-1.52-.16Zm3.03.32l.04-.35,1.51.16-.03.34-1.52-.16Zm3.03.31l.03-.35,1.51.15-.03.34-1.51-.15Zm3.03.31l.03-.34,1.51.15-.03.34-1.51-.15Zm3.03.3l.03-.35,1.52.15-.03.34h-.05s-1.46-.15-1.46-.15Zm3.03.29l.03-.34c.51.05,1.01.1,1.52.14l-.03.34c-.51-.05-1.01-.09-1.52-.14Zm3.03.28l.03-.34,1.52.14-.03.35-1.51-.14Zm3.03.28l.03-.34,1.52.14-.03.34-1.52-.14Zm3.03.28l.03-.34,1.52.13-.02.34-1.52-.13Zm3.04.27l.03-.34,1.52.13-.03.35-1.52-.13Zm3.03.26l.03-.35c.51.05,1.01.09,1.52.13l-.02.34c-.51-.04-1.01-.08-1.52-.13Zm3.04.25l.03-.34,1.52.13-.02.34-1.52-.12Zm3.04.25l.02-.35,1.13.09-.03.34-1.12-.09Z"/>
                <path class="cls-54" d="m95.68,679.54v-.35c.5,0,1.01,0,1.52.01v.35c-.5,0-1.01-.01-1.52,0Zm3.03.06v-.35c.52.02,1.03.05,1.54.09l-.02.34c-.5-.03-1.01-.06-1.52-.08Zm3.03.21l.03-.34c.51.05,1.02.11,1.52.17l-.04.34c-.5-.06-1.01-.11-1.51-.16Zm3.47.55c-.12-.02-.17-.1-.2-.15l-.26-.04.05-.34.34.05c.15.02.19.14.21.18,0,0-.04-.03-.09-.04l-.06.34Z"/>
              </g>
              <path class="cls-47" d="m69.47,588.96c.4.06,5.49,1.79,7.2,3.95,1.23,1.57,4.09-6.15,2.35-7.37-1.5-1.05-7.13-2.17-7.13-2.17l-2.42,5.59Z"/>
              <path class="cls-40" d="m78.99,597.16l-.27,1.12c2.76.15,5.52.11,8.26-.11.02-.28.08-.33.08-.33l.9.11s-.05-.29-.01-.5c-2.78-.28-5.58-.45-8.37-.5.19-2.39-1.14-4.79-3.16-6.37-2.02-1.59-5.96-3.46-6.01-3.47l-1,1.84c10.24,3.49,8.7,8.87,8.68,8.11l.9.11Z"/>
              <path class="cls-54" d="m73.2,586.46s.87.13,2.14.52c1.25.4,2.92,1.1,4.27,2.23.66.56,1.27,1.22,1.71,1.88.45.67.72,1.36.9,1.95.18.6.19,1.12.2,1.46,0,.36-.04.55-.04.55,0,0-.04-.2-.11-.54-.06-.34-.22-.81-.45-1.36-.24-.55-.6-1.14-1.06-1.74-.46-.59-1.01-1.18-1.65-1.7-1.26-1.04-2.77-1.84-3.93-2.38-1.17-.54-1.98-.88-1.98-.88Z"/>
            </g>
            <path class="cls-22" d="m178.63,308.21c2.03.65,3.31,4.73,3.7,8.05.39,3.33.95,10.84.36,14.39-.6,3.59-4.67,13.78-4.67,13.78l-16.63-18-4.3-.19.2-4.5s6.84.39,9.19-2.35c2.35-2.74,12.15-11.18,12.15-11.18Z"/>
            <path class="cls-22" d="m135.93,298.05c1.78.08-1.14,7.06.04,8.24s21.33,15.46,21.33,15.46l-.2,4.5s-4.7,1.56-7.83,4.11c-3.13,2.54-10.87,13.66-10.87,13.66,0,0-5-5.64-6.96-15.42-1.96-9.78-.97-21.2-.97-21.2,0,0,.39-9.55,5.45-9.34Z"/>
            <path class="cls-43" d="m181.35,282.92c-.35,2.13-1.92,29.03-1.92,29.03,0,0-10.6,10.1-13.73,11.47-3.13,1.37-11.74,1.37-15.65-.59-3.91-1.96-15.91-9.8-15.91-9.8l-3.2-29s18.34-16.76,28.12-16.95c9.78-.19,22.7,13.5,22.3,15.85Z"/>
            <path class="cls-15" d="m122.3,318.61l-2.75,45.4,16.67,3.42c.24.05.43.23.5.46.07.23,0,.49-.18.65l-13.76,12.9,46.7,79.39c-.32-4.91-.96-14.78-1.06-15.76-.13-1.41,21.04-44.17,30.45-63.09l-14.54-9.84c-.24-.16-.35-.46-.26-.74.09-.27.37-.48.64-.45l15.95.42-9.79-43.03c.43.16.92.34,1.46.55l9.79,43.01c.04.2,0,.4-.13.56-.13.16-.31.23-.52.24l-14.56-.38,13.17,8.91c.27.18.37.54.22.83-12.07,24.28-30.18,61.1-30.57,62.9.13,1.32,1.19,17.83,1.24,18.53.02.3-.17.58-.46.67-.06.02-.13.03-.19.03-.23,0-.44-.12-.56-.32l-48.35-82.2c-.16-.26-.11-.6.12-.81l13.22-12.39-15.99-3.28c-.32-.06-.54-.35-.52-.68l2.61-42.99c.09,0,.2-.01.29-.01.11-.11.55-1.26,1.19-2.89Z"/>
            <g>
              <g>
                <g>
                  <path class="cls-4" d="m49.65,537.06l1.32,13.25-5.74,11.48s-2.16,17.68-2.16,23.6c0,2.97,6.82,6.14,6.82,6.14,0,0,5.85,6.17,10.1,5.74.74.32,4.68,3.93,8.61,3.29.55.09,1.73,1.84,4.56,1.71.46-.02,3.21-1.54,3.67-2.31,0-1.83-1.64-4.51-2.91-8.23-1.28-3.72-2.23-11.59-2.23-11.59,0,0,1.81,5.21,5.85,4.57,4.04-.64,3.51-13.71,3.51-13.71,0,0-.74-18.92-1.7-20.62-.96-1.7-6.8-7.02-6.91-16.69-.11-9.67-22.78,3.35-22.78,3.35Z"/>
                  <path class="cls-25" d="m70.59,575.62c-1.43-11.34-1.1-15.63-1.08-15.8l1.3.11s-.33,4.36,1.08,15.53l-1.29.16Z"/>
                  <path class="cls-25" d="m72.21,601.42c-5.13-.85-8.86-12.27-9.86-16.6-.08-.35-.41-.57-.78-.49-.35.08-.57.43-.49.78.13.54,2.58,10.88,7.21,15.48.1-.01.21,0,.31-.01.52.09,1.61,1.61,4.08,1.69.01-.04.05-.06.06-.1.06-.35-.18-.69-.53-.75Z"/>
                  <path class="cls-25" d="m54.95,588.06c-.7-1.46-1.05-2.18-1.48-2.52-.28-.22-.69-.18-.91.1-.22.28-.18.69.1.92.21.17.69,1.17,1.11,2.06,1.06,2.23,2.73,5.7,5.54,8.67.23.01.46.02.68,0,.3.13,1.11.78,2.22,1.47.07-.24.04-.51-.17-.68-3.79-3.06-5.86-7.42-7.1-10.02Z"/>
                  <path class="cls-25" d="m49.24,587.54c-.47-1.38-.68-1.94-1.03-2.21-.29-.21-.72-.19-.94.1-.22.29-.18.67.11.89.13.17.41.98.63,1.64.34,1,.76,2.18,1.28,3.29.37.19.6.29.6.29,0,0,.84.89,2.11,1.96.08-.24.07-.5-.13-.68-1.21-1.12-2.07-3.63-2.64-5.29Z"/>
                </g>
                <path class="cls-25" d="m49.76,538.11l22.42-5.86c.15.42.25.9.26,1.47.02,1.78.28,3.37.62,4.86-6.71,1.38-19.38,4.04-22.77,4.76l-.52-5.22Z"/>
                <polygon class="cls-22" points="43.47 526.02 46.12 544.57 76.6 535.3 74.83 518.07 43.47 526.02"/>
              </g>
              <path class="cls-26" d="m65.55,339.16c-3.13-2.63-9.45-4.17-15.18,4.64-4.97,7.63-16.18,28.05-11.32,45.72.44,1.76-4.86,9.28-3.98,11.49.89,2.21,3.98,7.07,3.98,7.07l-4.86,48.6,1.77,81.28,43.73-12.37-5.74-56.1s5.74-6.63,1.76-14.14c-1.76-5.3,12.6-41.01,12.05-55.1-.63-16.24-22.21-61.08-22.21-61.08Z"/>
              <path class="cls-15" d="m69.53,468.36c.32,0,.59-.23.64-.55.05-.36-.19-.69-.55-.74l-21.24-3.14c5.83-2.04,19.91-7.01,22.76-8.44.75-.37.72-.89.67-1.1-.57-2.43-25.45-3.23-25.7-3.23-.36,0-.65.29-.65.65s.29.65.65.65c2.75,0,20.01,1.01,23.86,2.12-4.99,2.2-24.31,8.9-24.51,8.98-.28.1-.46.38-.43.68s.26.54.55.58l23.85,3.53s.07,0,.1,0Z"/>
            </g>
            <path class="cls-15" d="m222.57,427.84c.17,0,.34-.06.46-.19,11.88-16.96,18.08-36.34,17.85-38.75-.04-.36-.37-.62-.71-.58-.36.04-.62.35-.59.71.16,1.65-4.99,18.69-15.6,34.92.17-.7.36-1.47.55-2.28,2.22-9.16,6.36-26.21,6.52-30.83.01-.36-.27-.66-.63-.67-.34-.06-.66.27-.67.63-.15,4.48-4.27,21.45-6.48,30.56q-1.49,6.13-1.02,6.4c.1.06.21.08.32.08Z"/>
            <path class="cls-15" d="m169.33,461.16c-.14-4.4-.27-8.67-.86-12.75-1.21-8.08-2.29-15.66-3.32-22.16.03.04.05.09.07.13.04.05.29-.86.69-2.48.11.54.21,1.07.31,1.62,1.23,6.56,2.71,14.2,4.02,22.47.66,4.2.84,8.65,1.02,13.07.17,4.43.26,8.93.34,13.43.03,9-.08,17.98-.27,26.41-.07,4.21-.26,8.28-.44,12.14-.2,3.86-.38,7.5-.62,10.86-.2,3.36-.49,6.44-.76,9.16-.28,2.72-.58,5.09-.87,7.02-.33,1.93-.56,3.45-.89,4.44-.27,1-.42,1.53-.42,1.53,0,0,.11-.55.31-1.57.26-1,.36-2.55.59-4.48.37-3.89.65-9.48.87-16.19.25-6.72.32-14.56.43-22.96.11-8.4.12-17.37,0-26.32-.02-4.48-.07-8.96-.19-13.36Z"/>
            <path class="cls-44" d="m161.87,465.48c0,.85.69,1.54,1.54,1.54s1.55-.69,1.55-1.54-.69-1.54-1.55-1.54-1.54.69-1.54,1.54Z"/>
            <path class="cls-44" d="m161.87,500.12c0,1.04.84,1.88,1.88,1.88s1.89-.84,1.89-1.88-.85-1.89-1.89-1.89-1.88.85-1.88,1.89Z"/>
            <g>
              <g>
                <path class="cls-23" d="m188.46,255.87s5.01-2.94,6.56,0c1.55,2.94-2.25,20.37-3.63,22.45-1.38,2.07-5.18,2.25-5.18,2.25l2.25-24.69Z"/>
                <path class="cls-23" d="m124.11,256.23s-5.01-2.94-6.56,0c-1.55,2.94,2.24,20.38,3.63,22.45,1.38,2.07,5.18,2.25,5.18,2.25l-2.24-24.69Z"/>
              </g>
              <path class="cls-17" d="m188.18,271.02s2.15-9.23,2.52-16.7c.15-2.89,2.07-14.5.86-21.07-1.21-6.56-5.52-14.85-15.71-17.1-10.19-2.25-53.18,4.15-56.64,11.4-3.45,7.25-1.3,12,1.98,30.83.46,2.64,1.6,8.7,3.16,10.61,9.54,11.74,34.23,6.73,34.23,6.73l29.59-4.71Z"/>
              <g class="cls-21">
                <path class="cls-13" d="m124.36,269c-1.56-1.92-2.7-7.97-3.16-10.61-.75-4.3-1.44-7.86-2.02-10.88,7.35-4.05,15.73-10.28,15.73-10.28l42.15-1.17,14.25,12.5c-.28,2.61-.56,4.74-.61,5.77-.37,7.47-2.52,16.7-2.52,16.7l-29.59,4.71s-24.69,5-34.23-6.73Z"/>
              </g>
              <path class="cls-13" d="m158.41,225.48c.57.26,6.91.35,6.91.35,0,0,13.3,1.38,15.89,6.39.86,1.55-.35,14.85.69,16.58,1.04,1.73,4.84,8.12,5.18,10.88.35,2.76,2.42,10.19,1.38,15.88-1.04,5.7-1.9,20.89-5.18,25.55-3.28,4.66-8.46,6.22-10.53,8.29-2.07,2.07-4.66,4.15-7.25,5.18-2.59,1.04-16.06,1.21-18.47-.52-2.42-1.73-10.53-7.25-14.16-9.67-3.63-2.42-9.15-28.15-8.64-32.46.52-4.32,1.04-14.33,6.04-22.96.17-.52-3.28-14.85,1.04-20.2,4.32-5.35,21.76-5.7,27.11-3.28Z"/>
              <path class="cls-29" d="m157.39,290.6l17.58-2.51s-3.47,7.02-7.54,9.44c-4.07,2.42-15.42,4.33-21.66-.61-6.24-4.94-8.4-8.23-8.4-8.23l.32-1.23,15.71,3.04,3.98.09Z"/>
              <g>
                <g class="cls-52">
                  <path class="cls-38" d="m158.6,270.37c4.57-.15,8.47,4.58,10.33,6.06.97.77.15,5.71-.75,5.86-.9.15-3.8-2.51-4.38-2.01-.58.5-2.36,3.07-3.8,3.36-1.44.3-2.95.6-3.55.07-.59-.53-1.95-3.54-2.85-3.54s-2.12,2.65-3.47,2.2c-1.35-.45-4.29-3.31-1.79-5.66,3.77-3.54,6.03-6.23,10.26-6.36Z"/>
                </g>
                <g>
                  <path class="cls-9" d="m163.78,256.31s-.06.06-.15.19c-.09.13-.22.32-.35.58-.14.26-.28.58-.43.97-.15.38-.3.81-.44,1.29-.15.48-.27,1.01-.4,1.57-.13.56-.22,1.15-.33,1.77-.1.61-.17,1.25-.25,1.9-.07.65-.12,1.31-.16,1.97-.02.33-.04.65-.05,1-.01.32,0,.67,0,1.01.03.67.1,1.33.24,1.95.13.63.3,1.22.49,1.76.2.55.42,1.05.64,1.5.46.9.94,1.58,1.31,2.04.37.45.61.68.61.68,0,0-.19-.27-.46-.78-.27-.5-.63-1.24-.95-2.15-.17-.46-.32-.96-.45-1.49-.14-.53-.25-1.1-.32-1.7-.07-.59-.13-1.21-.12-1.83,0-.31.01-.61.04-.95.02-.31.05-.64.07-.97.05-.65.11-1.3.16-1.94.06-.64.12-1.27.18-1.88.03-.31.06-.61.09-.9.04-.29.07-.58.1-.86.06-.56.14-1.08.2-1.56.03-.24.07-.47.11-.69.04-.22.07-.43.11-.62.07-.39.15-.73.22-1,.07-.28.13-.49.19-.64.05-.15.09-.22.09-.22Z"/>
                  <path class="cls-9" d="m168.22,275.22s.19.39.39,1.1c.1.35.2.79.25,1.29.05.5.08,1.07-.02,1.67-.09.6-.29,1.22-.62,1.82-.08.14-.17.28-.26.42-.03.03-.07.09-.07.09,0,0-.02.01-.04.01-.03.02-.06.03-.1.04-.16.03-.51-.07-.82-.24-.65-.33-1.28-.85-2.03-1.32-.2-.12-.39-.24-.69-.33-.09-.02-.16-.04-.29-.04-.09-.01-.32.04-.4.09-.05.03-.09.04-.15.08l-.19.12c-.41.29-.71.58-1.03.88-.63.6-1.22,1.22-1.81,1.78-.15.14-.3.28-.44.39-.03.03-.07.06-.1.08l-.07.05s-.1.05-.13.07c-.03,0-.06.02-.09.03-.31.11-.69.18-1.05.22-.37.03-.74.03-1.08,0-.17-.01-.34-.04-.49-.08-.16-.04-.24-.08-.38-.18-.22-.15-.46-.43-.67-.67-.21-.26-.42-.52-.61-.77-.39-.51-.77-.98-1.15-1.35-.39-.37-.79-.66-1.18-.77-.39-.12-.71-.03-.9.04-.1.03-.16.08-.21.1-.05.03-.07.04-.07.04,0,0,.03,0,.07-.02.05-.01.12-.04.22-.06.19-.04.49-.05.8.11.32.14.63.45.95.84.31.4.61.89.95,1.43.17.27.35.56.55.85.1.15.21.29.34.44s.25.29.44.44c.15.13.4.27.6.33.21.07.42.12.63.15.42.07.84.08,1.26.07.43-.02.86-.07,1.34-.22l.2-.08.15-.07h.02s0-.01,0-.01l.04-.02.04-.03.08-.06c.06-.04.1-.07.15-.11.19-.14.35-.29.51-.43.63-.58,1.23-1.18,1.85-1.76.29-.28.62-.59.9-.79.02-.02.05-.04.07-.06.03-.02.09-.05.13-.07h.02s0-.01,0-.01c-.02,0,.05-.02-.04.01,0,0-.02.01-.02.01-.04,0-.06,0-.06,0-.03,0,0,0,0,0,.11.03.29.12.46.22.68.41,1.37.91,2.15,1.28.2.09.41.17.64.23.23.05.5.09.8,0,.15-.04.29-.11.41-.2.06-.04.12-.11.18-.18.05-.06.06-.09.09-.13.12-.21.19-.37.29-.55.33-.72.49-1.45.52-2.13.04-.67-.07-1.28-.19-1.8-.12-.52-.3-.95-.46-1.3-.15-.34-.31-.6-.42-.77-.11-.17-.17-.26-.17-.26Z"/>
                  <path class="cls-9" d="m150.94,282.48s-.12-.07-.34-.19c-.21-.11-.51-.27-.83-.47-.32-.21-.68-.46-.97-.77-.29-.31-.51-.68-.6-1.1-.06-.2-.08-.43-.09-.65,0-.23,0-.45.04-.68.02-.23.07-.45.11-.66.04-.21.09-.42.14-.61.09-.38.18-.71.25-.94.06-.23.09-.37.09-.37,0,0-.1.09-.28.27-.09.09-.19.19-.29.33-.11.13-.23.28-.34.46-.12.17-.23.37-.34.59-.1.22-.21.47-.28.73-.04.13-.07.27-.1.41-.03.14-.04.29-.05.44-.02.3,0,.62.08.93.08.31.21.62.39.88.17.26.39.49.62.67.46.36.95.54,1.37.63.42.09.77.11,1.02.1.24,0,.38-.02.38-.02Z"/>
                </g>
              </g>
              <path class="cls-24" d="m148.26,272.77s-.07.05-.19.15c-.13.09-.32.21-.56.38-.49.33-1.18.79-2.01,1.35-.83.56-1.79,1.22-2.82,1.91-.52.35-1.05.71-1.59,1.08-.54.36-1.09.74-1.65,1.09-.55.38-1.11.72-1.65,1.08-.56.32-1.09.69-1.63.98-.53.31-1.05.58-1.55.82-.26.11-.51.22-.76.32-.22.08-.58.27-.77.49-.43.45-.52,1.03-.48,1.46.04.45.19.8.34,1.06.15.27.33.43.44.55.13.1.19.15.19.15,0,0-.05-.07-.15-.19-.08-.13-.2-.33-.29-.59-.09-.27-.15-.61-.12-.98.03-.37.19-.76.49-1.01.18-.13.29-.18.59-.26.23-.07.54-.16.82-.25.55-.21,1.14-.43,1.7-.73.58-.28,1.15-.59,1.73-.93.56-.35,1.15-.69,1.7-1.06.56-.37,1.11-.76,1.65-1.14.54-.38,1.05-.78,1.55-1.16.5-.38.97-.77,1.41-1.14.45-.37.85-.73,1.23-1.06.75-.67,1.36-1.25,1.77-1.67.21-.2.36-.39.47-.5.1-.12.15-.19.15-.19Z"/>
              <path class="cls-24" d="m167.75,274.08s.25.22.68.6c.43.38,1.06.91,1.82,1.54.38.31.79.65,1.23,1,.44.35.9.73,1.38,1.11.49.38.98.78,1.49,1.17.51.4,1.02.8,1.54,1.2.52.4,1.03.8,1.53,1.2.5.41,1,.78,1.46,1.18.46.39.92.76,1.31,1.14.2.19.39.37.55.56.09.09.15.18.22.27l.07.12.02.03s0,.02,0,.02l.03.09c.1.25.14.41.16.61.01.1.02.19,0,.28,0,.1-.01.18-.04.27-.08.34-.27.62-.47.81s-.38.33-.51.41c-.13.08-.21.11-.21.11,0,0,.08-.01.23-.06.15-.05.37-.13.62-.3.25-.16.54-.43.72-.85.05-.1.09-.21.11-.33.04-.12.05-.24.05-.37.02-.25-.03-.56-.09-.78l-.02-.09s0-.01-.02-.07l-.02-.05c-.03-.07-.06-.14-.09-.22-.07-.12-.14-.26-.23-.37-.16-.24-.35-.45-.54-.67-.38-.44-.81-.87-1.27-1.29-.46-.42-.93-.86-1.43-1.27-.5-.42-1.01-.83-1.53-1.24-.52-.4-1.05-.79-1.57-1.19-.52-.39-1.05-.75-1.55-1.1-.5-.36-1-.68-1.47-.99-.47-.31-.93-.59-1.34-.85-.84-.52-1.55-.93-2.06-1.21-.51-.28-.8-.43-.8-.43Z"/>
              <path class="cls-2" d="m170.81,288.72s-.77,2.62-1.02,3c-.26.38-2.62,1.53-2.62,1.53l2.17-.38-.45,2.68s-5.75,4.41-12.96,4.15c-7.21-.25-11.94-4.21-11.94-4.21,0,0-.64-3.45-.45-3.45s2.43.64,2.43.64l-2.94-1.85-.64-2.36s12.83,1.98,14.69,1.98,13.73-1.72,13.73-1.72Z"/>
              <path class="cls-17" d="m157.72,228.94c2.59,0,3.97,2.94,9.32-1.73.52-.69,7.77,1.21,10.53.52,2.76-.69,11.05-16.58-9.15-20.03-1.73-1.04-8.81-5.01-12.43-5.01s-9.67,3.8-9.67,3.8c0,0-13.82.69-19.34,6.04-5.53,5.35-16.06,17.79-10.53,23.66.52.86,10.88-1.38,14.68-3.63,3.97-2.59,4.15-6.04,11.4-5.7,7.25.34,15.19,2.07,15.19,2.07Z"/>
              <path class="cls-24" d="m129.89,281.5s.04.3.14.8c.09.51.24,1.23.45,2.09.1.43.22.89.36,1.38.14.49.28,1,.45,1.52.17.52.33,1.07.53,1.61.19.55.39,1.1.61,1.65.21.55.43,1.09.66,1.63.22.54.48,1.05.71,1.55.23.5.49.97.73,1.42.24.45.49.86.72,1.24.22.38.47.71.66,1.02.2.3.39.55.56.75.32.4.52.63.52.63,0,0-.11-.28-.33-.74-.11-.23-.24-.51-.38-.84-.13-.33-.31-.69-.47-1.1-.17-.4-.35-.84-.54-1.3-.19-.46-.38-.95-.59-1.46-.4-1.01-.82-2.1-1.24-3.18-.22-.54-.43-1.08-.63-1.62-.21-.53-.41-1.06-.61-1.57-.19-.51-.4-1-.58-1.47-.18-.47-.37-.91-.53-1.31-.33-.81-.62-1.49-.83-1.96-.21-.47-.34-.74-.34-.74Z"/>
              <path class="cls-48" d="m157.59,301.3c13.82,0,19.49-13.79,19.49-13.79,0,0-2.71.76-3.06.76-.36,0-4.36,10.22-16.11,10.53h-.51c-12.96,0-19.6-11-19.71-11.32-.11-.33-1.96-.55-1.96-.55,0,0-.87,1.09,5.77,7.95,6.64,6.86,13.83,6.42,16.22,6.42h-.14Z"/>
              <path class="cls-24" d="m185.1,281.5s-.13.27-.34.74c-.21.47-.5,1.14-.83,1.96-.17.4-.35.84-.53,1.31-.19.47-.39.96-.58,1.47-.2.51-.4,1.03-.61,1.57-.2.54-.41,1.08-.63,1.62-.42,1.08-.84,2.17-1.24,3.18-.2.51-.4,1-.59,1.46-.19.46-.37.9-.54,1.3-.16.4-.34.76-.47,1.1-.14.33-.27.61-.38.84-.22.46-.33.74-.33.74,0,0,.19-.22.52-.63.16-.2.36-.45.56-.75.2-.3.44-.63.66-1.02.22-.38.48-.79.72-1.24.23-.45.5-.92.73-1.42.23-.5.49-1.01.71-1.55.23-.53.46-1.08.67-1.63.21-.55.41-1.11.61-1.65.2-.54.36-1.09.53-1.61.17-.52.31-1.04.45-1.52.14-.49.26-.95.36-1.38.21-.86.36-1.58.45-2.09.09-.51.13-.8.13-.8Z"/>
              <path class="cls-24" d="m157.85,307.18s-.06.13-.13.35c-.07.22-.17.54-.26.92-.18.76-.33,1.78-.39,2.8-.06,1.02-.03,2.04.06,2.81.04.39.1.7.15.93.05.22.09.35.09.35,0,0,.05-.13.13-.34.07-.22.17-.54.26-.92.18-.76.33-1.78.39-2.8.06-1.02.03-2.04-.06-2.81-.05-.39-.1-.7-.15-.93-.05-.22-.09-.35-.09-.35Z"/>
              <path class="cls-56" d="m177.11,287.42s-9.79,4.3-19.7,4.3-21.67-4.79-21.67-4.79c0,0,14.59,2.72,21.78,2.72s19.59-2.23,19.59-2.23Z"/>
              <path class="cls-16" d="m165.17,293.65s-8.72,3.09-16.66-.09c.09.19,8.42,5.16,16.66.09Z"/>
              <g>
                <g>
                  <path class="cls-33" d="m148.53,254.54c.37.2,4.53-3.73,1.81-5.33-.28-.17-1.34,1.72-1.78,1.61-.4-.1-.17-2.2-.72-2.24-.34-.03-.7-.04-1.1-.04-8.68,0-14.69,8.94-16.09,12.01.64.25,0,.64,3.06-1.92,3.06-2.55,12.52-5.36,14.81-4.09Z"/>
                  <g>
                    <path class="cls-5" d="m148.34,262.33c.05.16-.39,1.74-.82,1.83-.43.1-5.26-.05-5.26-.05,0,0-4.87-.29-5.11-1.01-.24-.72,4.2-2.85,5.35-2.75,1.16.1,5.59,1.2,5.84,1.98Z"/>
                    <path class="cls-39" d="m146.3,261s-.12,2.53-.49,3.19c-1.2.04-3.6.3-5.88-.29-.28-.07-.38-2.62-.38-2.62,0,0,4.53-1.46,6.75-.28Z"/>
                    <path class="cls-25" d="m148.73,264.76s-.2,0-.55-.02c-.35,0-.85-.03-1.44-.04-.59,0-1.28-.02-2.02-.03-.37,0-.75,0-1.13-.01-.39,0-.78-.01-1.16-.03-.39,0-.78-.03-1.16-.05-.38-.02-.75-.05-1.11-.08-.36-.04-.7-.07-1.03-.12-.16-.03-.32-.06-.47-.09-.15-.03-.3-.06-.43-.09-.14-.03-.27-.07-.39-.12-.13-.03-.24-.08-.35-.12-.11-.04-.2-.09-.3-.13s-.18-.08-.24-.13c-.07-.04-.14-.09-.19-.12-.05-.04-.1-.08-.13-.11-.08-.06-.11-.09-.11-.09,0,0,.02.05.06.13.04.09.11.21.23.35.05.07.13.15.2.22.08.08.17.16.27.24.2.16.45.32.73.46.28.15.59.28.93.38.34.11.7.21,1.08.29.75.15,1.57.23,2.38.26.81.02,1.62-.01,2.37-.09.75-.08,1.45-.19,2.04-.31.59-.12,1.08-.26,1.42-.36.34-.11.52-.19.52-.19Z"/>
                    <path class="cls-23" d="m149.43,265.64s-.06.06-.11.1c-.7.61-3.88,2.93-6.93,2.73-3.27-.22-6.39-3.27-6.39-3.27,0,0,2.54,2.18,6.97,2.18s6.46-1.74,6.46-1.74Z"/>
                    <path class="cls-25" d="m150.61,264.37l-.56-1.2s-2.03-3.77-7.16-3.77c-3.79,0-4.99,1.46-6.45,2.5-1.46,1.03-2.49,3.53-2.49,3.53l.69-.17s4.78-3.93,8.11-3.93c2.13,0,3.75.51,5.92,2.73.07.07,1.94.32,1.94.32Z"/>
                  </g>
                  <g>
                    <g class="cls-30">
                      <path class="cls-5" d="m142.34,256.44c.3-.01.61-.03.92-.04l-3.07.32-8.03,2.91,8.8,7.77,3.08-.94-7.09-6.66,1.79-.85,8.8,7.26,3.42-3.42s-5.77-5.69-6.58-6.42c3.35-.07,7.28-.02,7.28-.02,0,.25.67,9.49-.25,10.58-.8.95-10.23,3.58-15.88,2.55-.9-.16-1.69-.42-2.35-.78-4.79-2.69-6.97-9.91-6.97-9.91,0,0,12.6-2.18,16.12-2.35Z"/>
                    </g>
                    <path class="cls-45" d="m151.77,266.64c-.07.69,1.16-10.84.1-11.13-1.06-.29-21.44-.58-26.67,2.9.19,1.16,2.34,2.79,2.8,2.44,5.96-4.52,21.15-3.89,23.09-3.89,0,0,1.16,5.13.68,9.68Z"/>
                    <path class="cls-45" d="m136.33,269.66c-4.04-1.12-6.38-3.77-7.45-7.72-.59-2.16,2.88-4.07,2.88-4.07l-6.56.54s1.19,8.53,8.74,10.63c.34.17,2.38.62,2.38.62Z"/>
                  </g>
                </g>
                <g>
                  <path class="cls-33" d="m165.75,254.2c-.4.14-2.22-4.44-.97-5.1.28-.15,1.02,2.79,1.44,2.69.27-.06.18-3.15.51-3.19.43-.05.92-.07,1.46-.07.69,0,.89,2.14,1.55,2.24.21.03.89-2,1.09-1.96.55.11,2.46.12,2.98.29,6.38,2.19,9.31,8.9,10.47,11.43-.64.25,0,.64-3.07-1.92-3.06-2.55-12.31-5.54-15.46-4.43Z"/>
                  <g>
                    <path class="cls-5" d="m166.58,262.33c-.05.16.39,1.74.82,1.83.43.1,5.26-.05,5.26-.05,0,0,4.87-.29,5.11-1.01.24-.72-4.2-2.85-5.36-2.75-1.16.1-5.59,1.2-5.83,1.98Z"/>
                    <path class="cls-39" d="m168.38,260.92s.11,2.53.49,3.19c1.2.04,3.6.3,5.88-.29.28-.07.38-2.62.38-2.62,0,0-4.53-1.46-6.76-.28Z"/>
                    <path class="cls-25" d="m166.19,264.76s.19.09.52.19c.34.11.82.25,1.42.36.59.13,1.29.23,2.04.31.75.07,1.56.11,2.37.09.81-.03,1.62-.1,2.38-.26.38-.08.74-.18,1.08-.29.34-.11.65-.23.93-.38.28-.14.53-.3.73-.46.1-.07.19-.16.27-.24.08-.08.15-.15.2-.22.12-.14.19-.27.23-.35.04-.08.07-.13.07-.13,0,0-.04.03-.11.09-.04.03-.08.07-.13.11-.05.03-.12.08-.19.12-.07.05-.15.09-.25.13-.09.04-.18.1-.29.13-.11.04-.22.09-.35.12-.12.04-.25.08-.39.12-.14.04-.28.07-.43.09-.15.03-.31.06-.47.09-.32.05-.67.08-1.03.12-.36.03-.73.06-1.11.08-.38.02-.76.04-1.16.05-.39.01-.78.02-1.16.03-.39,0-.76,0-1.13.01-.74.01-1.43.02-2.02.03-.59,0-1.09.03-1.44.04-.35.01-.55.02-.55.02Z"/>
                    <path class="cls-23" d="m165.5,265.64s.06.06.11.1c.7.61,3.88,2.93,6.93,2.73,3.27-.22,6.39-3.27,6.39-3.27,0,0-2.54,2.18-6.97,2.18s-6.46-1.74-6.46-1.74Z"/>
                    <path class="cls-25" d="m164.31,264.37l.55-1.2s2.04-3.77,7.16-3.77c3.78,0,4.99,1.46,6.45,2.5,1.47,1.03,2.5,3.53,2.5,3.53l-.69-.17s-4.78-3.93-8.11-3.93c-2.12,0-3.75.51-5.92,2.73-.07.07-1.94.32-1.94.32Z"/>
                  </g>
                  <g class="cls-30">
                    <path class="cls-5" d="m163.26,256.36l8.4.05c.32,0,17.05,2.39,17.05,2.39,0,0-.91,3-2.84,5.86l-6.69-6.05-5.34-1.85s-9.47,1.31-9.04,1.74c.43.44,8.06,9.58,8.06,9.58l5.55-1.74-3.48-7.19h2.29l6.64,7.73,1.73-1.82c-1.02,1.42-2.29,2.77-3.85,3.64-.65.37-1.45.62-2.35.78-5.65,1.03-15.08-1.6-15.88-2.55-.92-1.09-.25-10.33-.25-10.58Z"/>
                  </g>
                  <g>
                    <path class="cls-45" d="m163.15,266.64c.07.69-1.16-10.84-.1-11.13s21.44-.58,26.67,2.9c-.2,1.16-2.34,2.79-2.8,2.44-5.96-4.52-21.15-3.89-23.09-3.89,0,0-1.16,5.13-.68,9.68Z"/>
                    <path class="cls-45" d="m178.6,269.66c4.03-1.12,6.38-3.77,7.45-7.72.59-2.16-2.89-4.07-2.89-4.07l6.56.54s-1.18,8.53-8.74,10.63c-.34.17-2.38.62-2.38.62Z"/>
                  </g>
                </g>
                <path class="cls-45" d="m162.92,260.47l.46-1.36-.23.68.23-.68-.04-.02c-1.61-.57-7.2-2.25-11.81.05l.64,1.29c4.1-2.05,9.21-.51,10.68.02l.07.02Z"/>
              </g>
              <g>
                <path class="cls-41" d="m168.43,207.7c.13.02.25.04.37.07,1.71,3.26,3.03,7.86,2.98,10.38-.05,2.99-2.38,7.43-3.92,10.36-.23.44-.44.84-.61,1.18l-.96-.49c.17-.35.39-.75.62-1.19,1.4-2.67,3.75-7.15,3.79-9.88.04-2.72-1.68-8.26-3.66-11.22.6.33,1.08.61,1.38.79Z"/>
                <path class="cls-41" d="m146.19,207.88c-.77-.41-1.51-.8-2.21-1.19.88-.1,1.55-.15,1.95-.18.25.13.51.27.77.41,4.1,2.17,8.75,4.63,11.01,7.86,2.07,2.96,3.03,7.15,2.37,10.43-.26,1.31-1.19,2.52-2,3.58-.36.47-.7.92-.95,1.33l-.92-.56c.28-.46.64-.92,1.02-1.42.75-.97,1.59-2.07,1.8-3.14.59-2.96-.31-6.9-2.2-9.6-2.11-3.02-6.64-5.41-10.63-7.53Z"/>
                <path class="cls-41" d="m123.35,216.36c.82-.05,1.63-.11,2.13-.16,4.35-.43,8.54-.11,12.48.95,3.79,1.02,7.35,2.21,9.2,5.46.72,1.26,1.28,3.67-.08,5.15l-.79-.73c.91-.99.51-2.87-.07-3.88-1.64-2.89-4.97-3.99-8.54-4.95-3.81-1.03-7.87-1.34-12.09-.92-.62.06-2.01.17-3.2.21.33-.39.65-.76.97-1.13Z"/>
                <g>
                  <path class="cls-41" d="m172.48,229.19l-.23-1.05c4.46-.96,8.47-5.35,9.35-9.83,0,.01,0,.03,0,.03.33.21.65.41.97.62-1.11,4.76-5.3,9.21-10.09,10.24Z"/>
                  <path class="cls-41" d="m181.31,232.84l-.29-1.04c3.05-.84,6.35-2.82,8.22-5.35.18.35.36.71.52,1.06-2.08,2.53-5.39,4.47-8.45,5.32Z"/>
                  <path class="cls-41" d="m117.61,237.98c-.04-.37-.07-.73-.09-1.08,2.25-.2,4.65-.98,6.22-1.68,1.6-.7,3.98-1.65,6.27-1.76.35-.01.72.02,1.06.05.57.05,1.11.1,1.45-.08l.49.96c-.62.32-1.34.25-2.04.19-.33-.03-.64-.06-.91-.04-2.11.1-4.37,1-5.89,1.67-1.75.77-4.21,1.56-6.57,1.76Z"/>
                </g>
              </g>
              <path class="cls-13" d="m129.21,240.25c-.14-2.28-.13-4.71.25-6.86.64-.27,1.2-.55,1.67-.83,3.97-2.59,4.15-6.04,11.4-5.7,7.25.34,15.19,2.07,15.19,2.07,2.59,0,3.97,2.94,9.32-1.73.38-.5,4.3.36,7.48.61,2.91.99,5.64,2.4,6.68,4.4.42.76.35,4.36.28,8.03h-52.28Z"/>
              <path class="cls-38" d="m124.5,269.39c1.2.04,2.47.3,3.72.83,4.14,1.74,6.46,5.61,5.18,8.64-1.09,2.59-4.44,3.73-7.97,2.93-.88-4.57-1.39-8.41-1.22-9.86.09-.7.17-1.56.27-2.54Z"/>
              <path class="cls-38" d="m187.55,270.22c.37-.16.74-.28,1.12-.39.14,1.95.13,3.93-.2,5.73-.29,1.57-.56,3.87-.87,6.47-2.41-.15-4.43-1.27-5.23-3.17-1.28-3.03,1.05-6.9,5.18-8.64Z"/>
            </g>
            <path class="cls-27" d="m191.41,502.87c-4.81,3.11-6.63,5.43-4.4,6.13,5.64,1.77,13.08-2.88,14.05-2.88s9.25.61,9.25.61l-11.72,1.88-13.74,9.34s-1.79,4.01,1.1,5.29c.23.1.67,4.72,2.03,5.26,5.71,2.23,16.29-4.6,16.29-4.6l13.43.23-11.11,1.61-9.14,4.44s-1.81,3.9,2.76,4.22c4.18.29,10.73-2.9,10.73-2.9,0,0,10.21,1.5,11.14,1.03,4.12-2.1-.39-27.56-4.66-31.43-3.01-2.72-13.06-3.36-15.95-2.98-4.05.53-10.07,4.75-10.07,4.75Z"/>
            <path class="cls-15" d="m275.7,461.41c.33,0,.61-.25.64-.58.04-.36-.22-.68-.58-.72l-20.13-2.17c8.22-2.23,19.93-5.39,20.86-5.55.33-.05.62-.36.6-.69q-.04-.71-11.45-1.37c-4.15-.24-9.39-.55-12.38-.79,3.8-1.2,11.77-3.37,17.48-4.93,6.66-1.82,10.46-2.85,11.02-3.13.32-.16.45-.55.29-.87-.16-.32-.55-.45-.87-.3-.51.24-5.73,1.67-10.78,3.04-20.33,5.54-20.33,5.72-20.36,6.49,0,.29.22.59.49.68.76.25,6.18.58,15.03,1.1,2.4.14,4.97.29,6.98.42-6.67,1.75-19.87,5.35-20.59,5.55-.3.08-.5.37-.48.68.03.31.27.56.58.6l23.56,2.54s.05,0,.07,0Z"/>
            <path class="cls-15" d="m87.43,409.11h.02c.29,0,.54-.21.61-.49,2.17-8.68-3.74-34.93-5.96-44.81-.35-1.55-.59-2.62-.67-3.05-.07-.35-.41-.6-.76-.52-.35.07-.59.4-.52.76.08.44.33,1.53.68,3.1,1.81,8.04,6.98,30.97,6.35,41.42-3.26-10.22-14.72-45.26-21.9-55.79-.2-.3-.61-.37-.9-.17-.3.2-.37.61-.17.9,8.15,11.96,22.46,57.75,22.6,58.21.08.27.34.46.62.46Z"/>
            <path class="cls-26" d="m131.15,503.59l-33.42-11.85c-.13-1.2-.27-2.45-.42-3.73l35.37,12.53-1.52,3.05Z"/>
          </g>
          <g>
            <g>
              <circle class="cls-32" cx="156.99" cy="105.32" r="58.35" transform="translate(36.99 251.4) rotate(-84.45)"/>
              <circle class="cls-8" cx="154.24" cy="97.16" r="58.35"/>
              <g>
                <path class="cls-8" d="m91.29,120.95c1.71-.59,1.95-1.76,1.53-3-.29-.83-.71-1.44-1.43-1.95l1.41-.48c.56.51,1,1.2,1.3,2.07.83,2.43-.05,4.08-2.3,4.85l-.69.24c-2.25.77-3.96.01-4.79-2.42-.3-.88-.37-1.69-.24-2.44l1.41-.48c-.26.84-.21,1.58.07,2.42.42,1.22,1.32,2.02,3.04,1.43l.69-.24Z"/>
                <path class="cls-8" d="m81.67,115l9.11-2.24c.41-.1.52-.3.43-.67-.07-.28-.17-.58-.32-.86l1.27-.31c.14.32.3.76.4,1.18.28,1.14-.09,1.87-1.36,2.18l-9.16,2.25-.38-1.53Z"/>
                <path class="cls-8" d="m81.97,111.68l-.24.04c-.51.09-.79-.2-.89-.77-.1-.55.06-.94.57-1.03l.24-.04c.52-.09.79.21.89.77.1.57-.05.93-.57,1.03Zm2.18-.51l-.28-1.55,7.74-1.39.28,1.55-7.74,1.39Z"/>
                <path class="cls-8" d="m93.88,99.39l.13,1.57-3.6.3c.39.49.68,1.18.75,2,.2,2.32-1.04,3.41-3.46,3.62l-.74.06c-2.42.21-3.81-.7-4.03-3.33-.11-1.29.15-2.35.71-3.35l10.25-.87Zm-6.3,5.92c1.53-.13,2.35-.69,2.22-2.17-.06-.73-.34-1.33-.74-1.75l-4.54.38c-.23.52-.32,1.09-.27,1.69.14,1.62,1.04,2.05,2.57,1.92l.76-.06Z"/>
                <path class="cls-8" d="m83.02,92.92l.07-1.58,7.06.31c.55.97.89,2.24.84,3.47-.1,2.4-1.22,3.25-3.44,3.15l-4.75-.21.07-1.58,4.62.2c1.47.06,2.12-.44,2.18-1.82.03-.58-.07-1.13-.34-1.67l-6.3-.27Z"/>
                <path class="cls-8" d="m88.2,88.4c1.52.14,2.2-.72,2.43-2.07.13-.79.07-1.59-.3-2.5l1.44.24c.25.83.29,1.67.15,2.49-.45,2.66-2.02,3.72-4.35,3.33l-.75-.13c-2.34-.4-3.46-1.91-3.06-4.28.39-2.29,1.86-2.99,3.27-2.76,1.48.25,1.94,1.18,1.7,2.58l-.53,3.08Zm-1.24-.21l.46-2.72c.11-.66-.02-1.05-.67-1.16-.82-.14-1.53.31-1.72,1.42-.21,1.24.37,2.19,1.92,2.47Z"/>
                <path class="cls-8" d="m91.11,78.4c-1.55-.57-2.04-1.68-1.33-3.62.3-.81.77-1.54,1.25-2.02l-.41-.13c-1.24-.4-1.92-.13-2.45,1.31-.3.81-.35,1.75-.13,2.57l-1.38-.5c-.11-.81-.04-1.71.35-2.78.8-2.2,2.16-2.82,4.08-2.12l3.91,1.42c.26,1.16.13,2.44-.31,3.65-.86,2.35-2.02,2.79-3.59,2.22Zm2.65-4.64l-1.67-.61c-.45.43-.79,1.05-1.01,1.67-.46,1.27-.24,1.82.57,2.12.81.3,1.41-.02,1.85-1.23.24-.66.34-1.36.26-1.94Z"/>
                <path class="cls-8" d="m102.24,67.01l-.72,1.41-3.22-1.65c.07.62-.05,1.36-.42,2.09-1.06,2.07-2.69,2.34-4.85,1.23l-.66-.34c-2.16-1.11-2.86-2.61-1.65-4.96.59-1.15,1.37-1.91,2.38-2.47l9.15,4.7Zm-8.47,1.68c1.37.7,2.36.66,3.04-.66.33-.65.41-1.31.3-1.88l-4.05-2.08c-.47.32-.85.76-1.12,1.29-.74,1.45-.2,2.29,1.16,2.99l.68.35Z"/>
                <path class="cls-8" d="m96.45,55.77l.89-1.3,5.82,4c-.04,1.11-.43,2.37-1.13,3.39-1.36,1.98-2.76,2.1-4.58.85l-3.92-2.69.89-1.3,3.8,2.62c1.21.83,2.03.75,2.81-.39.33-.48.54-.99.6-1.6l-5.19-3.57Z"/>
                <path class="cls-8" d="m97.23,51.12l-.19-.16c-.4-.33-.36-.73.01-1.18.36-.43.76-.55,1.16-.22l.19.16c.41.34.35.75-.01,1.18-.37.44-.75.56-1.16.22Zm1.79,1.34l1.01-1.21,6.03,5.05-1.01,1.21-6.03-5.05Z"/>
                <path class="cls-8" d="m105.09,46.93c.3-1.11.84-2.06,1.81-2.91,1.99-1.76,3.61-1.44,5.22.38l.49.56c1.61,1.82,1.74,3.47,0,5-.62.54-1.3.84-1.92.92l2.39,2.71-1.19,1.04-6.8-7.72Zm5.84-1.48c-1.01-1.15-1.95-1.48-3.18-.4-.45.39-.78.87-.97,1.4l3.01,3.42c.58-.03,1.21-.28,1.75-.75,1.12-.98.91-1.96-.1-3.11l-.5-.57Z"/>
                <path class="cls-8" d="m114.33,45.13c-.94-1.36-.7-2.55,1-3.72.71-.49,1.52-.82,2.19-.92l-.25-.34c-.78-1.05-1.49-1.22-2.75-.34-.71.49-1.29,1.23-1.59,2.02l-.84-1.21c.38-.73.96-1.42,1.89-2.07,1.92-1.33,3.39-1.06,4.55.63l2.37,3.42c-.46,1.1-1.3,2.07-2.36,2.8-2.06,1.43-3.26,1.11-4.21-.26Zm4.84-2.27l-1.01-1.46c-.62.1-1.25.41-1.79.78-1.11.77-1.25,1.35-.75,2.06s1.16.8,2.22.06c.57-.4,1.06-.92,1.33-1.44Z"/>
                <path class="cls-8" d="m124.89,34.63c-.96-.06-1.79.08-2.61.52-.5.26-.96.66-1.27,1.13l2.94,5.58-1.4.74-3.29-6.25c.58-.96,1.47-1.89,2.56-2.47.82-.43,1.58-.61,2.37-.58l.7,1.33Z"/>
                <path class="cls-8" d="m126.93,37.55c-.61-1.54-.09-2.64,1.83-3.4.81-.32,1.67-.45,2.34-.4l-.17-.39c-.52-1.2-1.17-1.53-2.6-.97-.8.32-1.54.9-2.01,1.61l-.54-1.37c.54-.62,1.25-1.16,2.31-1.58,2.17-.86,3.54-.25,4.29,1.65l1.52,3.87c-.7.96-1.74,1.71-2.94,2.19-2.33.92-3.42.34-4.04-1.22Zm5.23-1.1l-.65-1.65c-.62-.05-1.31.11-1.92.35-1.26.49-1.52,1.02-1.21,1.83.32.81.95,1.05,2.15.57.65-.26,1.24-.65,1.62-1.1Z"/>
                <path class="cls-8" d="m139.56,32.18c.36,1.77,1.49,2.16,2.77,1.91.86-.17,1.53-.51,2.12-1.15l.29,1.46c-.58.49-1.32.84-2.23,1.02-2.52.51-4.04-.58-4.51-2.92l-.14-.71c-.47-2.34.51-3.93,3.03-4.43.91-.18,1.72-.14,2.45.08l.29,1.46c-.8-.37-1.54-.42-2.4-.25-1.27.25-2.18,1.04-1.82,2.83l.14.71Z"/>
                <path class="cls-8" d="m145.39,30.32c-.18-2.36.97-3.84,3.39-4.02,2.42-.19,3.79,1.1,3.97,3.46l.05.73c.18,2.36-.97,3.84-3.39,4.02-2.42.19-3.79-1.1-3.97-3.46l-.06-.73Zm5.78-.46c-.13-1.67-1.03-2.33-2.3-2.23-1.26.1-2.03.9-1.91,2.55l.06.76c.13,1.67,1.03,2.33,2.31,2.23,1.26-.1,2.03-.9,1.9-2.55l-.06-.76Z"/>
                <path class="cls-8" d="m155.83,34.13l-1.58-.08.38-7.05c.97-.54,2.25-.87,3.48-.8,2.4.13,3.27,1.25,3.15,3.47l-.25,4.75-1.58-.08.25-4.61c.08-1.47-.45-2.12-1.83-2.2-.58-.03-1.13.06-1.67.32l-.33,6.3Z"/>
                <path class="cls-8" d="m167.57,35.51l.83-4.54c.26-1.42.02-2.13-1.35-2.38-.63-.12-1.38.04-1.9.33l-1.09,5.94-1.55-.28,2-10.9,1.55.29-.67,3.63c.62-.26,1.49-.39,2.3-.24,2.07.38,2.69,1.57,2.28,3.77l-.86,4.67-1.55-.29Z"/>
                <path class="cls-8" d="m172.75,33.53c-.34,1.49.41,2.28,1.71,2.69.77.24,1.57.29,2.52.05l-.44,1.39c-.85.13-1.69.05-2.49-.2-2.58-.82-3.41-2.52-2.69-4.77l.23-.72c.72-2.26,2.38-3.17,4.66-2.44,2.22.7,2.71,2.26,2.28,3.62-.45,1.43-1.43,1.76-2.79,1.33l-2.98-.95Zm.38-1.2l2.64.84c.64.2,1.04.12,1.24-.5.25-.8-.1-1.56-1.17-1.9-1.2-.38-2.22.06-2.71,1.56Z"/>
                <path class="cls-8" d="m180.68,35.94c-.74,1.65-.05,2.63,1.14,3.16.8.36,1.53.48,2.4.3l-.61,1.36c-.76.06-1.56-.09-2.41-.47-2.34-1.06-2.94-2.83-1.96-5l.3-.66c.98-2.17,2.71-2.89,5.05-1.83.84.38,1.48.89,1.94,1.49l-.61,1.36c-.44-.76-1.01-1.24-1.81-1.6-1.18-.53-2.38-.42-3.13,1.24l-.3.66Z"/>
                <path class="cls-8" d="m187.27,39.62c-.68,1.36-.14,2.31,1.03,3.02.69.42,1.45.65,2.44.64l-.75,1.25c-.86-.08-1.65-.34-2.37-.78-2.31-1.4-2.72-3.24-1.5-5.27l.39-.65c1.23-2.03,3.05-2.52,5.1-1.28,1.99,1.2,2.1,2.83,1.37,4.05-.78,1.29-1.81,1.37-3.03.64l-2.68-1.62Zm.65-1.08l2.36,1.43c.57.35.99.37,1.32-.19.43-.71.27-1.54-.69-2.12-1.08-.65-2.17-.46-3,.88Z"/>
                <path class="cls-8" d="m199.43,44.68c-.34-.9-.82-1.6-1.56-2.16-.45-.34-1-.6-1.56-.69l-3.85,4.99-1.25-.97,4.32-5.59c1.11.13,2.34.56,3.31,1.31.73.57,1.21,1.19,1.51,1.92l-.92,1.19Z"/>
                <path class="cls-8" d="m202.01,49.26c1.75-1.59,3.62-1.59,5.26.21,1.63,1.8,1.46,3.66-.29,5.25l-.54.49c-1.75,1.59-3.62,1.59-5.26-.21s-1.46-3.66.29-5.25l.54-.49Zm3.91,4.28c1.24-1.12,1.2-2.24.35-3.19-.85-.93-1.96-1.05-3.18.06l-.56.51c-1.24,1.12-1.2,2.24-.35,3.19.85.93,1.96,1.05,3.18-.06l.56-.51Z"/>
                <path class="cls-8" d="m218.59,60.6l-7.57,8.03-.94-1.56,1.99-2.06-2-3.3-2.73.82-.94-1.56,10.61-3,1.59,2.62Zm-7.13.69l1.62,2.68,3.61-3.75-.24-.4-4.98,1.47Z"/>
                <path class="cls-8" d="m211.99,70.86l-.63-1.45,6.48-2.81c.92.63,1.78,1.63,2.27,2.76.95,2.2.33,3.48-1.7,4.36l-4.36,1.89-.63-1.45,4.24-1.84c1.35-.59,1.7-1.35,1.15-2.62-.23-.53-.56-.98-1.03-1.36l-5.78,2.51Z"/>
                <path class="cls-8" d="m222.15,75.2l2.23-.7.47,1.51-2.23.7.69,2.2-1.28.4-.69-2.2-4.06,1.27c-.75.24-1,.57-.78,1.26.14.46.34.85.63,1.2l-1.23.39c-.3-.35-.59-.93-.77-1.49-.49-1.55.2-2.4,1.64-2.85l4.1-1.29-.42-1.33,1.28-.4.42,1.33Z"/>
                <path class="cls-8" d="m220.24,81.04c2.33-.46,3.93.52,4.39,2.9.47,2.39-.65,3.89-2.97,4.34l-.71.14c-2.33.46-3.93-.52-4.39-2.9-.47-2.39.65-3.89,2.97-4.34l.72-.14Zm1.13,5.69c1.64-.32,2.19-1.3,1.95-2.55-.24-1.24-1.13-1.92-2.76-1.6l-.75.15c-1.64.32-2.19,1.3-1.95,2.55.24,1.24,1.13,1.92,2.76,1.6l.75-.15Zm6.88-2.75l-.45.57c-.45.57-.94,1.14-1.5,1.61l-.66-.58,1.35-2.07-2.03-1.42.38-.8c.7.24,1.38.57,1.99.93l.63.36.28,1.42Z"/>
                <path class="cls-8" d="m217.67,91.88l-.1-1.58,7.04-.44c.65.9,1.12,2.14,1.2,3.36.15,2.39-.87,3.39-3.08,3.52l-4.74.3-.1-1.58,4.61-.29c1.47-.09,2.06-.69,1.97-2.07-.04-.58-.19-1.11-.51-1.63l-6.29.4Z"/>
                <path class="cls-8" d="m225.76,99.14l-.05,1.58-7.86-.25.05-1.58,7.86.25Zm2.24-.05h.24c.52.02.73.36.71.94-.02.56-.26.9-.77.89h-.24c-.53-.02-.73-.38-.71-.94.02-.58.24-.9.77-.89Z"/>
                <path class="cls-8" d="m222.13,102.58c2.35.3,3.56,1.72,3.25,4.13-.31,2.41-1.84,3.49-4.19,3.19l-.72-.09c-2.35-.3-3.56-1.72-3.25-4.13.31-2.41,1.84-3.49,4.19-3.19l.72.09Zm-.72,5.76c1.66.21,2.49-.54,2.65-1.81.16-1.25-.47-2.17-2.12-2.38l-.75-.1c-1.66-.21-2.49.54-2.65,1.81-.16,1.25.47,2.17,2.12,2.38l.75.1Z"/>
              </g>
              <circle class="cls-5" cx="153.75" cy="96.61" r="50.88"/>
              <path class="cls-1" d="m182.68,96.67c-.2-2.35-2.08-4.28-4.44-4.35-2.79-.09-4.97,2.29-4.74,4.99l-.3-3.56c-.2-2.35-2.08-4.27-4.43-4.35-2.79-.09-4.97,2.28-4.75,4.97l-.23-2.69c-.21-2.44-2.23-4.41-4.68-4.36-2.6.05-4.61,2.25-4.51,4.79l-1.12-13.34c-.2-2.35-2.08-4.28-4.44-4.35-2.79-.09-4.97,2.29-4.74,4.99l2.82,33.5-10.76-10.45c-1.69-1.64-4.38-1.86-6.21-.37-2.16,1.76-2.25,4.99-.31,6.87l9.36,9.09,10.6,10.29.34,4.07.29,3.46c.04.44.23.83.51,1.12.08.08.17.16.27.23.1.07.2.12.31.17.16.07.33.12.51.14.12.01.24.02.37,0l25.99-2.19c.5-.04.94-.28,1.24-.64.06-.07.11-.15.16-.22l.07-.12c.04-.07.07-.15.1-.23l.05-.18c.04-.18.06-.38.04-.57l-.31-3.73s.6-.62,1.34-2.01l.07-.13c.09-.17.18-.36.27-.55.05-.1.09-.2.14-.31l.04-.1c.07-.16.14-.32.21-.49v-.03c.25-.58.49-1.24.72-1.99.38-1.26.65-2.55.82-3.85.02-.13.03-.26.05-.4.15-1.33.19-2.67.13-4.01l-.19-4.25-.55-12.56-.1-2.3Z"/>
              <path class="cls-10" d="m179.34,93.5c-.2-2.35-2.08-4.28-4.44-4.35-2.79-.09-4.97,2.29-4.74,4.99l-.3-3.56c-.2-2.35-2.08-4.27-4.43-4.35-2.79-.09-4.97,2.28-4.75,4.97l-.23-2.69c-.21-2.44-2.23-4.41-4.68-4.36-2.6.05-4.61,2.25-4.51,4.79l-1.12-13.34c-.2-2.35-2.08-4.28-4.44-4.35-2.79-.09-4.97,2.29-4.74,4.99l2.82,33.5-10.76-10.45c-1.69-1.64-4.38-1.86-6.21-.37-2.16,1.76-2.25,4.99-.31,6.88l9.36,9.09,10.6,10.29.34,4.07.29,3.46c.04.44.23.83.51,1.12.08.08.17.16.27.22.1.07.2.12.31.17.16.07.33.12.51.14.12.01.24.02.37,0l25.99-2.19c.5-.04.94-.28,1.24-.64.06-.07.11-.15.16-.22l.07-.12c.04-.07.07-.15.1-.23l.05-.18c.04-.18.06-.38.04-.57l-.31-3.73s.6-.62,1.34-2.01l.07-.13c.09-.17.18-.36.27-.55.05-.1.09-.2.14-.31l.05-.1c.07-.16.14-.32.21-.49v-.03c.25-.58.49-1.24.72-1.99.38-1.26.65-2.55.82-3.85.02-.13.03-.26.05-.4.15-1.33.19-2.67.13-4.01l-.19-4.25-.55-12.56-.1-2.3Z"/>
              <path class="cls-8" d="m144.29,63.11c.52-.04.91-.5.87-1.03l-.48-5.72c-.04-.52-.5-.91-1.03-.87s-.91.5-.87,1.03l.48,5.72c.04.52.5.91,1.03.87Z"/>
              <path class="cls-8" d="m155.71,72.76c.04.52.5.91,1.03.87l5.72-.48c.52-.04.91-.5.87-1.03s-.5-.91-1.03-.87l-5.72.48c-.52.04-.91.5-.87,1.03Z"/>
              <path class="cls-8" d="m128.06,76.04l5.72-.48c.52-.04.91-.5.87-1.03s-.5-.91-1.03-.87l-5.72.48c-.52.04-.91.5-.87,1.03s.5.91,1.03.87Z"/>
              <path class="cls-8" d="m152,65.57c.2.17.45.24.69.22s.48-.13.65-.33l3.7-4.38c.34-.4.29-1-.11-1.34-.4-.34-1-.29-1.34.11l-3.7,4.38c-.34.4-.29,1,.11,1.34Z"/>
              <path class="cls-8" d="m134.12,87.78c.24-.02.48-.13.65-.33l3.7-4.38c.34-.4.29-1-.11-1.34-.4-.34-1-.29-1.34.11l-3.7,4.38c-.34.4-.29,1,.11,1.34.2.17.45.24.69.22Z"/>
              <path class="cls-8" d="m135.76,66.94c.2.17.45.24.69.22s.48-.13.65-.33c.34-.4.29-1-.11-1.34l-4.38-3.7c-.4-.34-1-.29-1.34.11-.34.4-.29,1,.11,1.34l4.39,3.7Z"/>
              <path class="cls-8" d="m148.5,63.61c.13.04.25.06.38.05.37-.03.7-.28.82-.65l1.8-5.45c.16-.5-.11-1.04-.6-1.2-.5-.16-1.04.11-1.2.6l-1.8,5.45c-.16.5.11,1.04.6,1.2Z"/>
              <path class="cls-8" d="m156.42,76.36c-.5-.16-1.04.11-1.2.6-.16.5.11,1.04.6,1.2l5.45,1.8c.13.04.25.06.38.05.37-.03.7-.28.82-.65.17-.5-.11-1.04-.6-1.2l-5.45-1.8Z"/>
              <path class="cls-8" d="m128.49,69.13l5.45,1.8c.13.04.25.06.38.05.37-.03.7-.28.82-.65.16-.5-.11-1.04-.6-1.2l-5.45-1.8c-.5-.16-1.04.11-1.2.6-.16.5.11,1.04.6,1.2Z"/>
              <path class="cls-8" d="m154.62,68.89c.18.36.55.55.93.52.12,0,.24-.04.35-.1l5.13-2.58c.47-.24.66-.81.42-1.28-.24-.47-.81-.66-1.28-.42l-5.13,2.58c-.47.24-.66.81-.42,1.28Z"/>
              <path class="cls-8" d="m135.73,78.4c-.24-.47-.81-.66-1.28-.42l-5.13,2.58c-.47.24-.66.81-.42,1.28.18.36.55.55.93.52.12,0,.24-.04.35-.1l5.13-2.58c.47-.24.66-.81.42-1.28Z"/>
              <path class="cls-8" d="m139.15,63.78c.18.36.55.55.93.52.12,0,.24-.04.35-.1.47-.24.66-.81.42-1.28l-2.58-5.13c-.24-.47-.81-.66-1.28-.42-.47.24-.66.81-.42,1.28l2.58,5.13Z"/>
              <path class="cls-8" d="m167.71,116.38c-5.21,2.77-11.56,4.34-17.82,3.84-5.41-.38-9.97-2.43-14.02-5.35l10.6,10.29.34,4.07.29,3.46c.04.44.23.83.51,1.12.08.08.17.16.27.22.1.07.2.12.31.17.16.07.33.12.51.14.12.01.24.02.37,0l25.99-2.19c.5-.04.94-.28,1.24-.64.06-.07.11-.15.16-.22l.07-.12c.04-.07.07-.15.1-.23.08-.23.12-.49.1-.75l-.31-3.73s.6-.62,1.34-2.01l.07-.13c.09-.17.18-.36.27-.55.05-.1.09-.2.14-.31l.05-.1c.07-.16.14-.32.21-.49v-.03c.25-.58.49-1.24.72-1.99.38-1.26.65-2.55.82-3.85.02-.13.03-.26.05-.4.15-1.33.19-2.67.13-4.01l-.19-4.25-.55-12.56c-1.61,8.2-4.23,16.53-11.74,20.58Z"/>
            </g>
            <path class="cls-8" d="m159.46,192.24l17.62-31.31c1.3-2.31-.39-5.15-3.03-5.12l-18.37,3.49-17.55-3.09c-2.65.03-4.27,2.91-2.92,5.19l18.3,30.91c1.35,2.28,4.65,2.24,5.95-.07Z"/>
          </g>
        </g>
      </g>
    </g>
  </g>
</svg>