<?xml version="1.0" encoding="UTF-8"?><svg id="Layer_2" xmlns="http://www.w3.org/2000/svg" viewBox="0 0 55.94 57.01"><defs><style>.cls-1{fill:#fff;}.cls-2{fill:#8d30a3;}</style></defs><g id="Camada_1"><g><path class="cls-2" d="m17.04,57.01h31.88l7.03-7.03V4.49h-21.23L30.23,0H7.03L0,7.03v49.98h17.04Zm-14.7-11.06l8.73,8.73H2.33v-8.73Z"/><path class="cls-1" d="m38.52,21.62c-.4,2.08-1.84,3.72-3.95,4.35,2.21.54,3.55,2.44,3.01,5.16l-.2,1.11c-.74,3.72-3.82,6.23-9.14,6.23h-9.91l4.55-23.45h9.45c5.12,0,7.07,2.11,6.43,5.36l-.23,1.24Zm-6.3,9.31c.37-1.84-.7-2.65-3.32-2.65h-3.15l-1.17,6h3.28c2.61,0,3.85-.74,4.25-2.71l.1-.64Zm.94-9.61c.3-1.57-.67-2.11-2.88-2.11h-2.78l-1,5.16h2.65c2.21,0,3.55-.7,3.88-2.41l.13-.64Z"/></g></g></svg>