<?xml version="1.0" encoding="UTF-8"?><svg id="Layer_2" xmlns="http://www.w3.org/2000/svg" viewBox="0 0 1434.13 181.23"><defs><style>.cls-1{fill:#fff;}.cls-2{fill:#8d5da7;fill-rule:evenodd;}</style></defs><g id="Camada_1"><g><path class="cls-2" d="m8.83,162.24h1412.11l4.35-3.85V18.99H8.83M0,10.38L10.66,0h142.67l10.66,10.38h8.18l-10.66-10.38h8.18l10.66,10.38h8.18l-10.66-10.38h8.18l10.66,10.38h8.18l-10.66-10.38h8.18l10.66,10.38h8.18l-10.66-10.38h8.18l10.66,10.38h8.18l-10.66-10.38h8.18l10.66,10.38h8.18l-10.66-10.38h8.18l10.66,10.38h8.18l-8.9-8.67h8.18l8.9,8.67h8.18l-6.49-6.33h8.18l6.49,6.33h1139.27v104.16h0v47.42l-19.78,19.28H154.02l-10.66-10.38h-26.09l-7.39,7.2H6.68l-6.68-6.4v-4.24m3.53,0h1420.01l7.06-6.88v-43.6h0s0-103.1,0-103.1H3.53m7.07,6.89h1412.93v93.83h0v43.09l-3.27,2.89H10.6m-6.39,10.33h108.06l-3.86,3.76H8.12l-3.92-3.76h0ZM88.4,10.38h70.58l-7.12-6.94h-56.33l-7.12,6.94h0Zm214.61,167.4h-44.08l-7.12-6.94h44.08l7.12,6.94h0Zm1109.87,0H306.55l-7.12-6.94h1120.58l-7.12,6.94h0Z"/><rect class="cls-1" x="647.5" y="-615.74" width="139.25" height="1412.65" transform="translate(807.7 -626.54) rotate(90)"/></g></g></svg>