<?xml version="1.0" encoding="UTF-8"?>
<svg xmlns="http://www.w3.org/2000/svg" viewBox="0 0 462.05 589.52">
  <defs>
    <style>
      .cls-1 {
        fill: #8ab9d3;
        opacity: .25;
      }

      .cls-2, .cls-3 {
        fill: #fff;
      }

      .cls-4 {
        fill: #004991;
      }

      .cls-5 {
        fill: #045aa0;
      }

      .cls-6, .cls-7 {
        opacity: .5;
      }

      .cls-8 {
        opacity: .6;
      }

      .cls-9 {
        isolation: isolate;
      }

      .cls-10, .cls-11, .cls-3, .cls-12 {
        opacity: .2;
      }

      .cls-13 {
        opacity: .4;
      }

      .cls-14 {
        fill: #007cff;
      }

      .cls-15 {
        opacity: .3;
      }

      .cls-11 {
        fill: #3a7ec1;
      }

      .cls-11, .cls-7 {
        mix-blend-mode: multiply;
      }

      .cls-16 {
        fill: #f9f9f9;
      }

      .cls-17, .cls-12 {
        fill: #011d33;
      }

      .cls-18 {
        opacity: .14;
      }

      .cls-19 {
        fill: #e5a755;
      }

      .cls-20 {
        fill: #1a2e35;
      }

      .cls-21 {
        fill: #b7043c;
      }
    </style>
  </defs>
  <g class="cls-9">
    <g id="Layer_2" data-name="Layer 2">
      <g id="Camada_1" data-name="Camada 1">
        <g>
          <g>
            <path class="cls-17" d="m424.79,229.44c-4.03.31-8.08-.44-11.82-2.23l-10.77-5.16c-11.59-5.55-16.5-19.49-10.96-31.08h0c5.55-11.59,19.49-16.5,31.08-10.95l10.77,5.16c5.61,2.69,9.84,7.4,11.91,13.27,2.07,5.87,1.73,12.19-.96,17.81-2.69,5.61-7.4,9.84-13.27,11.91-1.96.69-3.97,1.11-5.99,1.27Zm-13.4-39.98c-4.01.31-7.75,2.69-9.6,6.56h0c-2.77,5.78-.32,12.73,5.46,15.49l10.77,5.16c2.8,1.34,5.95,1.51,8.88.48,2.93-1.03,5.27-3.14,6.61-5.94,1.34-2.8,1.51-5.95.48-8.88-1.03-2.93-3.14-5.28-5.94-6.61l-10.77-5.16c-1.9-.91-3.93-1.26-5.89-1.1Zm-14.87,4.04h.02s-.02,0-.02,0Z"/>
            <g class="cls-13">
              <path class="cls-17" d="m424.79,229.44c-4.03.31-8.08-.44-11.82-2.23l-10.77-5.16c-11.59-5.55-16.5-19.49-10.96-31.08h0c5.55-11.59,19.49-16.5,31.08-10.95l10.77,5.16c5.61,2.69,9.84,7.4,11.91,13.27,2.07,5.87,1.73,12.19-.96,17.81-2.69,5.61-7.4,9.84-13.27,11.91-1.96.69-3.97,1.11-5.99,1.27Zm-13.4-39.98c-4.01.31-7.75,2.69-9.6,6.56h0c-2.77,5.78-.32,12.73,5.46,15.49l10.77,5.16c2.8,1.34,5.95,1.51,8.88.48,2.93-1.03,5.27-3.14,6.61-5.94,1.34-2.8,1.51-5.95.48-8.88-1.03-2.93-3.14-5.28-5.94-6.61l-10.77-5.16c-1.9-.91-3.93-1.26-5.89-1.1Zm-14.87,4.04h.02s-.02,0-.02,0Z"/>
            </g>
            <path class="cls-17" d="m433.35,258.68c-1.15.09-2.31.09-3.48,0h0c-6.21-.44-11.88-3.27-15.96-7.97-4.08-4.7-6.09-10.71-5.65-16.91l.84-11.91c.44-6.21,3.27-11.88,7.97-15.96,4.7-4.08,10.71-6.08,16.92-5.65,6.21.44,11.87,3.27,15.95,7.97,4.08,4.7,6.09,10.71,5.65,16.92l-.84,11.91c-.44,6.21-3.27,11.88-7.97,15.96-3.81,3.31-8.49,5.26-13.43,5.64Zm-1.92-46.72c-2.46.19-4.79,1.16-6.69,2.81-2.34,2.03-3.75,4.86-3.97,7.95l-.84,11.91c-.22,3.09.78,6.09,2.81,8.43,2.03,2.34,4.86,3.75,7.95,3.97h0c3.09.21,6.09-.78,8.43-2.82,2.34-2.03,3.75-4.86,3.97-7.95l.84-11.91c.22-3.1-.78-6.09-2.81-8.43-2.03-2.34-4.86-3.75-7.95-3.97-.58-.04-1.16-.04-1.74,0Z"/>
            <g class="cls-8">
              <path class="cls-17" d="m433.35,258.68c-1.15.09-2.31.09-3.48,0h0c-6.21-.44-11.88-3.27-15.96-7.97-4.08-4.7-6.09-10.71-5.65-16.91l.84-11.91c.44-6.21,3.27-11.88,7.97-15.96,4.7-4.08,10.71-6.08,16.92-5.65,6.21.44,11.87,3.27,15.95,7.97,4.08,4.7,6.09,10.71,5.65,16.92l-.84,11.91c-.44,6.21-3.27,11.88-7.97,15.96-3.81,3.31-8.49,5.26-13.43,5.64Zm-1.92-46.72c-2.46.19-4.79,1.16-6.69,2.81-2.34,2.03-3.75,4.86-3.97,7.95l-.84,11.91c-.22,3.09.78,6.09,2.81,8.43,2.03,2.34,4.86,3.75,7.95,3.97h0c3.09.21,6.09-.78,8.43-2.82,2.34-2.03,3.75-4.86,3.97-7.95l.84-11.91c.22-3.1-.78-6.09-2.81-8.43-2.03-2.34-4.86-3.75-7.95-3.97-.58-.04-1.16-.04-1.74,0Z"/>
            </g>
            <g>
              <path class="cls-17" d="m40.15,270.94c-5.49.43-11.14-1.08-15.86-4.65h0c-4.96-3.76-8.16-9.23-9.01-15.39-.85-6.17.76-12.29,4.52-17.26l7.21-9.51c7.76-10.24,22.41-12.25,32.65-4.49,10.24,7.76,12.25,22.41,4.49,32.64l-7.21,9.52c-4.19,5.52-10.37,8.65-16.79,9.14Zm4.54-44.31c-3.2.25-6.28,1.81-8.37,4.56l-7.21,9.51c-1.88,2.47-2.67,5.53-2.25,8.6.42,3.07,2.02,5.8,4.49,7.67h0c5.1,3.87,12.4,2.86,16.27-2.24l7.21-9.51c3.87-5.1,2.86-12.4-2.24-16.27-2.35-1.78-5.17-2.53-7.9-2.32Z"/>
              <g class="cls-8">
                <path class="cls-17" d="m40.15,270.94c-5.49.43-11.14-1.08-15.86-4.65h0c-4.96-3.76-8.16-9.23-9.01-15.39-.85-6.17.76-12.29,4.52-17.26l7.21-9.51c7.76-10.24,22.41-12.25,32.65-4.49,10.24,7.76,12.25,22.41,4.49,32.64l-7.21,9.52c-4.19,5.52-10.37,8.65-16.79,9.14Zm4.54-44.31c-3.2.25-6.28,1.81-8.37,4.56l-7.21,9.51c-1.88,2.47-2.67,5.53-2.25,8.6.42,3.07,2.02,5.8,4.49,7.67h0c5.1,3.87,12.4,2.86,16.27-2.24l7.21-9.51c3.87-5.1,2.86-12.4-2.24-16.27-2.35-1.78-5.17-2.53-7.9-2.32Z"/>
              </g>
            </g>
            <rect class="cls-17" x="41.46" y="14.99" width="350.32" height="557.36" rx="5.01" ry="5.01" transform="translate(-21.97 17.56) rotate(-4.42)"/>
            <rect class="cls-17" x="54.43" y="24.55" width="343.7" height="535.61" transform="translate(-21.84 18.3) rotate(-4.42)"/>
            <path class="cls-17" d="m81.45,12.29h340.3c2.76,0,5.01,2.24,5.01,5.01v547.34c0,2.76-2.24,5.01-5.01,5.01H81.45c-2.76,0-5.01-2.24-5.01-5.01V17.3c0-2.76,2.24-5.01,5.01-5.01Z" transform="translate(-21.66 20.24) rotate(-4.42)"/>
            <path class="cls-17" d="m81.45,12.29h340.3c2.76,0,5.01,2.24,5.01,5.01v547.34c0,2.76-2.24,5.01-5.01,5.01H81.45c-2.76,0-5.01-2.24-5.01-5.01V17.3c0-2.76,2.24-5.01,5.01-5.01Z" transform="translate(-21.66 20.24) rotate(-4.42)"/>
            <polygon class="cls-12" points="45.67 37.7 75.68 441.42 43.34 37.88 45.67 37.7"/>
            <polygon class="cls-12" points="90.42 571.45 53.96 84.37 92.75 571.27 90.42 571.45"/>
            <polygon class="cls-17" points="39.67 203.98 8.02 192.32 0 88.54 29.49 72.16 39.67 203.98"/>
            <g class="cls-8">
              <g>
                <path class="cls-17" d="m172.54,261.97c-.68,1.1-1.82,1.73-2.89,2.35,0,0,0,0-.01,0,0,.05,0,.09,0,.14-.35,1.67-1.25,3.23-2.67,4.02-1.08.6-2.31.64-3.5.26-.13.19-.27.37-.43.53-.21.2-.44.4-.71.52-.36.16-.69.23-1.1.24-.27,0-.54-.16-.75-.36-.16-.16-.25-.37-.3-.58l-17.49,10.1-37.11-64.24,77.67-44.87c.01-.12.03-.25.04-.37,0-.07.01-.15.02-.22,0,0,0,0,0,0,0-.01,0,0,0-.03.02-.28.03-.57.04-.85.01-.63,0-1.27-.06-1.91-.03-.33-.08-.66-.12-.99,0-.02,0,0,0-.02,0-.02,0-.02-.01-.07-.01-.07-.03-.14-.04-.21-.02-.09-.04-.17-.06-.26l-17.59,10.16c-.08.2-.15.42-.24.62-.95,2.3-3.46,3.26-5.85,2.89l-59.34,34.28,3.2,5.54c-.11-.54.24-1.05.7-1.17.56-.16,1.11.31,1.32.87.3.83.72,1.66,1.18,2.48.04-.05.08-.09.12-.14.35-.43,1.07-.36,1.48.07.25.27.35.6.33.93.39.19.66.61.71,1.07.15,1.34.58,2.68.94,4.01.4,1.47.71,2.97.7,4.47,0,.11-.03.2-.05.3l26.38,45.67c.55.26,1.08.56,1.56.95,1.22.98,2.08,2.29,2.46,3.82.15.62-.14,1.05-.57,1.22l1.02,1.77,133.14-76.91c.6-1.1,1.22-2.19,1.77-3.31.55-1.11,1.01-2.28,1.29-3.51l-105.19,60.77Z"/>
                <path class="cls-17" d="m382.4,138.29s-.04-.23-.03-.27c0,0,0,0,0-.01-.07-.34-.16-.67-.27-1.01-.21-.65-.46-1.3-.62-1.96-.1-.41,0-.78.24-1.03l-29.97-51.88s0,0-.01,0c-.76.12-1.56.02-2.25-.51-.66-.5-1.18-1.16-1.74-1.78-.43-.47-.46-1.14-.09-1.58.35-.42,1.08-.37,1.48.07.19.21.37.42.56.62-.04-.2-.08-.4-.12-.6l-4.07-7.05-67.16,38.8c.1.41,0,.85-.43,1.1-.43.25-.86.12-1.16-.17l-7.09,4.1s0,.02,0,.03c.04.14.04.28,0,.42-.07.31-.18.6-.33.87-.09.16-.18.32-.25.49,0,.01,0,.02,0,.03-.06.29-.23.5-.45.65-.23.15-.52.15-.79.07-.14-.04-.26-.11-.37-.21-.12-.09-.22-.2-.3-.34-.08-.13-.13-.28-.15-.43,0-.02,0-.04,0-.06l-82.18,47.48c.06.1.12.2.15.31.29,1.22.42,2.46.44,3.7.22.06.39.22.53.4l158.36-91.48,37.11,64.24-101.37,58.56c-.1,2.2-.82,4.18-1.76,6.07l2.73-1.58c0-.08-.02-.16-.01-.24v.05c0-.05,0-.11-.01-.16-.03-.12-.06-.24-.11-.36-.09-.19-.18-.38-.29-.56-.16-.27-.19-.56-.15-.85.05-.29.23-.51.45-.65,0,0,.01,0,.02,0,0-.31.13-.6.45-.79.46-.27.91-.09,1.22.25.05,0,.09-.02.14-.01.39.03.78.14,1.16.27.28.09.5.3.66.55.07.12.11.25.14.38l99.95-57.74c-.42-.35-.5-.95-.33-1.41.31-.86.73-1.67,1.2-2.44l-1.03-1.78c0,.06.02.11.02.17,0,.62-.41,1.06-1,1.05-.54,0-1.1-.59-1.1-1.17,0-.2,0-.4-.03-.6Z"/>
              </g>
              <g>
                <path class="cls-17" d="m138.36,241.26c2.64,4.63,5.5,5.68,9.49,3.4,1.93-1.1,3.91-3,4.75-4.97l2.51,4.4c-.98,1.71-3.07,3.5-5.35,4.8-7.36,4.2-12.59,2.42-16.5-4.42l-1.36-2.38c-3.91-6.84-2.78-12.26,4.58-16.46,2.28-1.3,4.9-2.16,6.86-2.17l2.51,4.4c-2.12-.28-4.76.46-6.69,1.56-3.98,2.28-4.53,5.27-1.89,9.9l1.1,1.93Z"/>
                <path class="cls-17" d="m170.06,220.51l1.16,2.02c4.04,7.07,2.76,12.53-3.66,16.2-6.49,3.71-11.81,2.01-15.84-5.06l-1.16-2.02c-4.02-7.04-2.62-12.57,3.71-16.18,6.27-3.58,11.77-1.99,15.79,5.04Zm-4.17,4.94l-1.03-1.8c-2.61-4.56-5.02-6.04-8.3-4.16-3.28,1.87-3.3,4.74-.7,9.3l1.03,1.8c2.62,4.6,5.09,6,8.37,4.13,3.28-1.87,3.26-4.67.63-9.27Z"/>
                <path class="cls-17" d="m180.61,230.77l-12.85-22.49,8.64-4.94,15.92,15.41.23-.13-10.55-18.48,5.24-2.99,12.85,22.49-8.68,4.95-15.9-15.38-.19.11,10.53,18.44-5.24,2.99Z"/>
                <path class="cls-17" d="m191.76,194.57l15.07-8.61,2.31,4.05-9.83,5.62,3.03,5.3,9.16-5.23,2.31,4.05-9.16,5.23,5.19,9.09-5.24,2.99-12.85-22.49Z"/>
                <path class="cls-17" d="m215.86,180.81l12.85,22.49-5.17,2.95-12.85-22.49,5.17-2.95Z"/>
                <path class="cls-17" d="m245.15,180.31c4.26,7.45,2.26,12.3-4.97,16.43l-6.65,3.8-12.85-22.49,6.84-3.91c7.17-4.09,12.23-3.28,16.47,4.14l1.16,2.02Zm-6.35,1.11c-2.7-4.72-5.16-5.45-9.08-3.21l-1.48.84,8.26,14.46,1.22-.7c4.02-2.29,4.73-5,2.1-9.6l-1.03-1.8Z"/>
                <path class="cls-17" d="m241.69,166.06l15.07-8.61,2.31,4.05-9.83,5.62,2.73,4.79,9.09-5.19,2.31,4.05-9.09,5.19,3.19,5.59,10.09-5.76,2.29,4.02-15.33,8.75-12.85-22.49Z"/>
                <path class="cls-17" d="m273.43,177.76l-12.85-22.49,8.64-4.94,15.92,15.41.22-.13-10.55-18.48,5.24-2.99,12.85,22.49-8.68,4.96-15.9-15.38-.19.11,10.53,18.44-5.24,2.99Z"/>
                <path class="cls-17" d="m295.83,151.33c2.64,4.63,5.5,5.68,9.49,3.4,1.93-1.1,3.91-3,4.75-4.97l2.51,4.4c-.98,1.71-3.07,3.5-5.35,4.8-7.36,4.2-12.59,2.42-16.5-4.42l-1.36-2.38c-3.91-6.84-2.78-12.26,4.58-16.46,2.28-1.3,4.9-2.16,6.86-2.17l2.51,4.4c-2.12-.28-4.76.46-6.69,1.56-3.98,2.28-4.53,5.27-1.89,9.9l1.1,1.93Z"/>
                <path class="cls-17" d="m309.29,127.45l12.85,22.49-5.17,2.95-12.85-22.49,5.17-2.95Z"/>
                <path class="cls-17" d="m327.09,117.28l18.69,19.15-5.33,3.05-4.29-4.54-7.23,4.13,1.76,5.98-5.33,3.05-7.03-25.81,8.77-5.01Zm-2.51,6.8l2.98,10.44,5.37-3.06-7.48-7.87-.87.5Z"/>
                <path class="cls-17" d="m335.83,112.29l5.24-2.99,10.55,18.48,10.44-5.96,2.29,4.02-15.68,8.96-12.85-22.49Z"/>
              </g>
            </g>
            <polygon class="cls-12" points="78.76 572.35 53.11 225.2 81.09 572.17 78.76 572.35"/>
            <g>
              <g>
                <path class="cls-17" d="m47.14,298.31c-1.21.09-2.44.04-3.67-.18-3.83-.68-7.18-2.8-9.41-5.99l-16.87-24.07c-4.61-6.58-3.01-15.69,3.57-20.3,3.19-2.24,7.06-3.1,10.89-2.42,3.83.68,7.17,2.8,9.41,5.99l16.87,24.07c2.23,3.19,3.09,7.05,2.42,10.89-.68,3.83-2.8,7.18-5.99,9.41-2.17,1.52-4.65,2.4-7.22,2.6Zm-18.25-41.48c-.42.03-.92.16-1.42.51-1.3.91-1.62,2.72-.71,4.02l16.87,24.07c.6.85,1.42,1.11,1.86,1.19.44.07,1.3.11,2.16-.48h0c.85-.6,1.11-1.42,1.18-1.86.08-.44.12-1.3-.48-2.15l-16.87-24.07c-.6-.85-1.42-1.11-1.86-1.19-.18-.03-.44-.06-.73-.04Z"/>
                <path class="cls-17" d="m105.88,333.43c-2.52.19-5.12-.27-7.55-1.46l-26.36-13.03c-3.49-1.72-6.1-4.7-7.35-8.39-1.25-3.69-.99-7.64.74-11.13,1.72-3.49,4.7-6.1,8.39-7.34,3.69-1.25,7.64-.98,11.13.74l26.35,13.02c7.2,3.56,10.17,12.32,6.61,19.52-2.36,4.77-7.01,7.69-11.97,8.07Zm-27.66-30.43c-.29.02-.54.08-.71.14-.42.14-1.2.52-1.66,1.45-.46.93-.29,1.78-.15,2.2.14.42.52,1.2,1.45,1.66l26.36,13.03c1.42.7,3.16.12,3.86-1.31.71-1.43.12-3.16-1.31-3.87l-26.35-13.02c-.55-.27-1.07-.32-1.49-.29Z"/>
                <path class="cls-17" d="m173.46,348.32c-1.2.09-2.41.04-3.62-.17l-28.97-4.99c-7.92-1.36-13.25-8.92-11.89-16.83.66-3.84,2.78-7.19,5.96-9.43,3.18-2.25,7.04-3.12,10.88-2.46l28.97,4.99c3.84.66,7.19,2.78,9.43,5.96,2.25,3.18,3.12,7.04,2.46,10.88-.66,3.84-2.78,7.19-5.95,9.43-2.18,1.53-4.67,2.43-7.26,2.63Zm-30.35-22.4c-.67.05-1.16.33-1.44.52-.36.26-1,.84-1.18,1.86-.27,1.57.78,3.06,2.35,3.34l28.97,4.99c1.02.18,1.79-.23,2.15-.49.36-.26,1-.84,1.18-1.87h0c.18-1.02-.23-1.79-.49-2.15-.26-.36-.84-1-1.87-1.18l-28.97-4.99c-.26-.04-.5-.05-.72-.03Z"/>
                <path class="cls-17" d="m241.24,351.51c-.46.04-.92.05-1.38.04l-29.39-.47c-3.89-.06-7.53-1.63-10.24-4.43-2.71-2.8-4.16-6.48-4.1-10.37.06-3.89,1.64-7.53,4.43-10.23,2.8-2.71,6.48-4.17,10.37-4.1l29.39.47c8.04.13,14.47,6.77,14.34,14.8-.06,3.89-1.64,7.53-4.43,10.23-2.46,2.39-5.61,3.8-8.99,4.06Zm-30.77-17.88c-.89.07-1.48.52-1.78.8-.32.31-.86.99-.88,2.02-.02,1.04.5,1.74.81,2.05.31.32.99.86,2.02.88l29.4.47c1.06.02,1.73-.5,2.05-.81.32-.31.86-.99.88-2.03,0,0,0,0,0,0,.03-1.59-1.25-2.9-2.84-2.93l-29.39-.47c-.1,0-.19,0-.28,0Z"/>
              </g>
              <g class="cls-13">
                <path class="cls-17" d="m47.14,298.31c-1.21.09-2.44.04-3.67-.18-3.83-.68-7.18-2.8-9.41-5.99l-16.87-24.07c-4.61-6.58-3.01-15.69,3.57-20.3,3.19-2.24,7.06-3.1,10.89-2.42,3.83.68,7.17,2.8,9.41,5.99l16.87,24.07c2.23,3.19,3.09,7.05,2.42,10.89-.68,3.83-2.8,7.18-5.99,9.41-2.17,1.52-4.65,2.4-7.22,2.6Zm-18.25-41.48c-.42.03-.92.16-1.42.51-1.3.91-1.62,2.72-.71,4.02l16.87,24.07c.6.85,1.42,1.11,1.86,1.19.44.07,1.3.11,2.16-.48h0c.85-.6,1.11-1.42,1.18-1.86.08-.44.12-1.3-.48-2.15l-16.87-24.07c-.6-.85-1.42-1.11-1.86-1.19-.18-.03-.44-.06-.73-.04Z"/>
                <path class="cls-17" d="m105.88,333.43c-2.52.19-5.12-.27-7.55-1.46l-26.36-13.03c-3.49-1.72-6.1-4.7-7.35-8.39-1.25-3.69-.99-7.64.74-11.13,1.72-3.49,4.7-6.1,8.39-7.34,3.69-1.25,7.64-.98,11.13.74l26.35,13.02c7.2,3.56,10.17,12.32,6.61,19.52-2.36,4.77-7.01,7.69-11.97,8.07Zm-27.66-30.43c-.29.02-.54.08-.71.14-.42.14-1.2.52-1.66,1.45-.46.93-.29,1.78-.15,2.2.14.42.52,1.2,1.45,1.66l26.36,13.03c1.42.7,3.16.12,3.86-1.31.71-1.43.12-3.16-1.31-3.87l-26.35-13.02c-.55-.27-1.07-.32-1.49-.29Z"/>
                <path class="cls-17" d="m173.46,348.32c-1.2.09-2.41.04-3.62-.17l-28.97-4.99c-7.92-1.36-13.25-8.92-11.89-16.83.66-3.84,2.78-7.19,5.96-9.43,3.18-2.25,7.04-3.12,10.88-2.46l28.97,4.99c3.84.66,7.19,2.78,9.43,5.96,2.25,3.18,3.12,7.04,2.46,10.88-.66,3.84-2.78,7.19-5.95,9.43-2.18,1.53-4.67,2.43-7.26,2.63Zm-30.35-22.4c-.67.05-1.16.33-1.44.52-.36.26-1,.84-1.18,1.86-.27,1.57.78,3.06,2.35,3.34l28.97,4.99c1.02.18,1.79-.23,2.15-.49.36-.26,1-.84,1.18-1.87h0c.18-1.02-.23-1.79-.49-2.15-.26-.36-.84-1-1.87-1.18l-28.97-4.99c-.26-.04-.5-.05-.72-.03Z"/>
                <path class="cls-17" d="m241.24,351.51c-.46.04-.92.05-1.38.04l-29.39-.47c-3.89-.06-7.53-1.63-10.24-4.43-2.71-2.8-4.16-6.48-4.1-10.37.06-3.89,1.64-7.53,4.43-10.23,2.8-2.71,6.48-4.17,10.37-4.1l29.39.47c8.04.13,14.47,6.77,14.34,14.8-.06,3.89-1.64,7.53-4.43,10.23-2.46,2.39-5.61,3.8-8.99,4.06Zm-30.77-17.88c-.89.07-1.48.52-1.78.8-.32.31-.86.99-.88,2.02-.02,1.04.5,1.74.81,2.05.31.32.99.86,2.02.88l29.4.47c1.06.02,1.73-.5,2.05-.81.32-.31.86-.99.88-2.03,0,0,0,0,0,0,.03-1.59-1.25-2.9-2.84-2.93l-29.39-.47c-.1,0-.19,0-.28,0Z"/>
              </g>
              <g>
                <path class="cls-17" d="m66.98,323.81c-5.49.42-11.14-1.08-15.86-4.65l-9.51-7.21c-4.96-3.76-8.16-9.22-9.01-15.39-.85-6.17.76-12.29,4.51-17.25,3.76-4.96,9.23-8.16,15.39-9.01,6.19-.84,12.29.76,17.25,4.52l9.51,7.21c4.96,3.76,8.16,9.22,9.01,15.39.85,6.16-.76,12.29-4.51,17.25t0,0c-4.19,5.52-10.37,8.65-16.79,9.14Zm-12.17-42.01c-.23.02-.47.04-.7.08-3.07.42-5.8,2.02-7.67,4.49-1.87,2.47-2.67,5.52-2.25,8.6.42,3.07,2.02,5.8,4.49,7.67l9.51,7.22c5.1,3.87,12.4,2.86,16.27-2.24h0c1.87-2.47,2.67-5.53,2.25-8.6-.42-3.07-2.02-5.8-4.49-7.67l-9.51-7.21c-2.28-1.73-5.06-2.54-7.9-2.33Zm24.31,29.34h.02s-.02,0-.02,0Z"/>
                <path class="cls-17" d="m131.67,347.82c-2.55.2-5.18-.03-7.8-.73l-11.53-3.09c-6.01-1.61-11.04-5.46-14.15-10.85-3.11-5.39-3.94-11.67-2.33-17.68,1.61-6.01,5.46-11.04,10.85-14.15,5.39-3.11,11.67-3.94,17.68-2.33l11.53,3.09c12.41,3.32,19.81,16.12,16.49,28.53h0c-2.62,9.8-11.15,16.47-20.74,17.21Zm-14.21-37.91c-1.71.13-3.38.64-4.91,1.53-2.69,1.55-4.61,4.06-5.41,7.05-.8,3-.39,6.13,1.16,8.81,1.55,2.69,4.06,4.61,7.05,5.41l11.53,3.09c6.18,1.65,12.57-2.03,14.22-8.22h0c1.66-6.19-2.03-12.57-8.22-14.22l-11.53-3.09c-1.29-.35-2.61-.47-3.91-.37Z"/>
                <path class="cls-17" d="m198.96,358.2c-1.38.11-2.79.09-4.21-.06l-11.88-1.23c-12.78-1.33-22.1-12.8-20.77-25.58.64-6.19,3.66-11.76,8.49-15.68,4.83-3.92,10.9-5.74,17.09-5.09l11.87,1.23c6.19.64,11.76,3.66,15.68,8.49,3.92,4.83,5.73,10.9,5.09,17.09h0c-1.18,11.35-10.37,19.98-21.37,20.83Zm-14.6-36.05c-2.33.18-4.55,1.06-6.4,2.56-2.41,1.95-3.91,4.73-4.23,7.82-.66,6.37,3.98,12.09,10.35,12.75l11.87,1.23c6.37.66,12.09-3.99,12.75-10.35.32-3.08-.58-6.11-2.54-8.52-1.96-2.41-4.73-3.91-7.82-4.23l-11.87-1.23c-.71-.07-1.42-.08-2.12-.03Zm30.16,14.62h.02s-.02,0-.02,0Z"/>
              </g>
              <g class="cls-8">
                <path class="cls-17" d="m66.98,323.81c-5.49.42-11.14-1.08-15.86-4.65l-9.51-7.21c-4.96-3.76-8.16-9.22-9.01-15.39-.85-6.17.76-12.29,4.51-17.25,3.76-4.96,9.23-8.16,15.39-9.01,6.19-.84,12.29.76,17.25,4.52l9.51,7.21c4.96,3.76,8.16,9.22,9.01,15.39.85,6.16-.76,12.29-4.51,17.25t0,0c-4.19,5.52-10.37,8.65-16.79,9.14Zm-12.17-42.01c-.23.02-.47.04-.7.08-3.07.42-5.8,2.02-7.67,4.49-1.87,2.47-2.67,5.52-2.25,8.6.42,3.07,2.02,5.8,4.49,7.67l9.51,7.22c5.1,3.87,12.4,2.86,16.27-2.24h0c1.87-2.47,2.67-5.53,2.25-8.6-.42-3.07-2.02-5.8-4.49-7.67l-9.51-7.21c-2.28-1.73-5.06-2.54-7.9-2.33Zm24.31,29.34h.02s-.02,0-.02,0Z"/>
                <path class="cls-17" d="m131.67,347.82c-2.55.2-5.18-.03-7.8-.73l-11.53-3.09c-6.01-1.61-11.04-5.46-14.15-10.85-3.11-5.39-3.94-11.67-2.33-17.68,1.61-6.01,5.46-11.04,10.85-14.15,5.39-3.11,11.67-3.94,17.68-2.33l11.53,3.09c12.41,3.32,19.81,16.12,16.49,28.53h0c-2.62,9.8-11.15,16.47-20.74,17.21Zm-14.21-37.91c-1.71.13-3.38.64-4.91,1.53-2.69,1.55-4.61,4.06-5.41,7.05-.8,3-.39,6.13,1.16,8.81,1.55,2.69,4.06,4.61,7.05,5.41l11.53,3.09c6.18,1.65,12.57-2.03,14.22-8.22h0c1.66-6.19-2.03-12.57-8.22-14.22l-11.53-3.09c-1.29-.35-2.61-.47-3.91-.37Z"/>
                <path class="cls-17" d="m198.96,358.2c-1.38.11-2.79.09-4.21-.06l-11.88-1.23c-12.78-1.33-22.1-12.8-20.77-25.58.64-6.19,3.66-11.76,8.49-15.68,4.83-3.92,10.9-5.74,17.09-5.09l11.87,1.23c6.19.64,11.76,3.66,15.68,8.49,3.92,4.83,5.73,10.9,5.09,17.09h0c-1.18,11.35-10.37,19.98-21.37,20.83Zm-14.6-36.05c-2.33.18-4.55,1.06-6.4,2.56-2.41,1.95-3.91,4.73-4.23,7.82-.66,6.37,3.98,12.09,10.35,12.75l11.87,1.23c6.37.66,12.09-3.99,12.75-10.35.32-3.08-.58-6.11-2.54-8.52-1.96-2.41-4.73-3.91-7.82-4.23l-11.87-1.23c-.71-.07-1.42-.08-2.12-.03Zm30.16,14.62h.02s-.02,0-.02,0Z"/>
              </g>
            </g>
            <g>
              <g>
                <path class="cls-17" d="m304.84,348.97c-3.48.27-6.91-.71-9.75-2.8-3.13-2.31-5.18-5.7-5.76-9.55-.58-3.85.37-7.69,2.68-10.83,2.31-3.13,5.7-5.18,9.55-5.76l29.06-4.4c7.95-1.23,15.39,4.29,16.59,12.23.58,3.85-.37,7.7-2.68,10.83-2.31,3.13-5.7,5.18-9.55,5.76l-29.06,4.4c-.36.06-.72.1-1.08.12Zm27.74-21.81c-.07,0-.14.01-.21.02l-29.06,4.4c-1.03.15-1.63.78-1.89,1.14-.26.36-.68,1.12-.53,2.14.16,1.03.78,1.63,1.14,1.89.36.26,1.11.69,2.14.53l29.06-4.4c1.03-.16,1.63-.78,1.89-1.14.27-.36.69-1.12.53-2.14h0c-.23-1.5-1.58-2.56-3.07-2.44Z"/>
                <path class="cls-17" d="m366.42,329.69c-4.77.37-9.63-1.61-12.74-5.7-4.87-6.39-3.62-15.55,2.77-20.42l23.39-17.81c6.39-4.86,15.55-3.63,20.42,2.77,4.87,6.39,3.63,15.55-2.77,20.42l-23.39,17.81c-2.31,1.76-4.98,2.72-7.68,2.93Zm22.02-35.21c-.44.03-.99.18-1.52.58l-23.39,17.81c-1.27.97-1.51,2.78-.55,4.04.96,1.27,2.78,1.51,4.04.55l23.39-17.81c1.27-.97,1.51-2.78.55-4.04-.63-.83-1.47-1.05-1.91-1.11-.16-.02-.37-.04-.62-.02Z"/>
                <path class="cls-17" d="m415.79,281.75c-3.35.26-6.8-.63-9.72-2.76-6.49-4.75-7.9-13.89-3.16-20.37l17.36-23.72c4.75-6.48,13.88-7.9,20.36-3.16h0c6.48,4.75,7.9,13.88,3.16,20.37l-17.36,23.72c-2.61,3.57-6.55,5.6-10.65,5.92Zm16.03-41.12c-.81.06-1.59.46-2.11,1.17l-17.36,23.72c-.94,1.28-.66,3.09.63,4.03,1.29.94,3.09.66,4.03-.63l17.36-23.72c.94-1.28.66-3.09-.63-4.03-.58-.42-1.26-.6-1.92-.55Z"/>
              </g>
              <g class="cls-13">
                <path class="cls-17" d="m304.84,348.97c-3.48.27-6.91-.71-9.75-2.8-3.13-2.31-5.18-5.7-5.76-9.55-.58-3.85.37-7.69,2.68-10.83,2.31-3.13,5.7-5.18,9.55-5.76l29.06-4.4c7.95-1.23,15.39,4.29,16.59,12.23.58,3.85-.37,7.7-2.68,10.83-2.31,3.13-5.7,5.18-9.55,5.76l-29.06,4.4c-.36.06-.72.1-1.08.12Zm27.74-21.81c-.07,0-.14.01-.21.02l-29.06,4.4c-1.03.15-1.63.78-1.89,1.14-.26.36-.68,1.12-.53,2.14.16,1.03.78,1.63,1.14,1.89.36.26,1.11.69,2.14.53l29.06-4.4c1.03-.16,1.63-.78,1.89-1.14.27-.36.69-1.12.53-2.14h0c-.23-1.5-1.58-2.56-3.07-2.44Z"/>
                <path class="cls-17" d="m366.42,329.69c-4.77.37-9.63-1.61-12.74-5.7-4.87-6.39-3.62-15.55,2.77-20.42l23.39-17.81c6.39-4.86,15.55-3.63,20.42,2.77,4.87,6.39,3.63,15.55-2.77,20.42l-23.39,17.81c-2.31,1.76-4.98,2.72-7.68,2.93Zm22.02-35.21c-.44.03-.99.18-1.52.58l-23.39,17.81c-1.27.97-1.51,2.78-.55,4.04.96,1.27,2.78,1.51,4.04.55l23.39-17.81c1.27-.97,1.51-2.78.55-4.04-.63-.83-1.47-1.05-1.91-1.11-.16-.02-.37-.04-.62-.02Z"/>
                <path class="cls-17" d="m415.79,281.75c-3.35.26-6.8-.63-9.72-2.76-6.49-4.75-7.9-13.89-3.16-20.37l17.36-23.72c4.75-6.48,13.88-7.9,20.36-3.16h0c6.48,4.75,7.9,13.88,3.16,20.37l-17.36,23.72c-2.61,3.57-6.55,5.6-10.65,5.92Zm16.03-41.12c-.81.06-1.59.46-2.11,1.17l-17.36,23.72c-.94,1.28-.66,3.09.63,4.03,1.29.94,3.09.66,4.03-.63l17.36-23.72c.94-1.28.66-3.09-.63-4.03-.58-.42-1.26-.6-1.92-.55Z"/>
              </g>
              <g>
                <path class="cls-17" d="m346.63,351.05c-3.08.24-6.2-.14-9.22-1.16-5.9-1.98-10.67-6.14-13.44-11.72-2.77-5.57-3.2-11.89-1.22-17.79,1.98-5.9,6.15-10.67,11.72-13.44l10.69-5.31c5.57-2.77,11.89-3.2,17.79-1.22,5.9,1.98,10.67,6.14,13.44,11.72h0c5.72,11.51,1,25.52-10.5,31.24l-10.69,5.31c-2.73,1.35-5.63,2.15-8.57,2.37Zm8.01-40.14c-1.47.11-2.91.51-4.27,1.19l-10.69,5.31c-2.78,1.38-4.85,3.76-5.84,6.7-.99,2.94-.77,6.09.61,8.87s3.76,4.85,6.7,5.84c2.94.99,6.09.77,8.87-.61l10.69-5.31c5.74-2.85,8.08-9.83,5.24-15.57h0c-1.38-2.78-3.76-4.85-6.7-5.84-1.5-.51-3.06-.7-4.6-.58Z"/>
                <path class="cls-17" d="m398.83,309.57c-6.06.47-12.3-1.42-17.21-5.74-4.67-4.12-7.45-9.81-7.84-16.02-.39-6.21,1.66-12.2,5.78-16.87l7.9-8.96c8.5-9.64,23.25-10.56,32.89-2.07,4.67,4.12,7.45,9.81,7.84,16.02.39,6.21-1.66,12.2-5.78,16.87l-7.9,8.96c-4.17,4.73-9.84,7.36-15.68,7.81Zm5.2-43.75c-2.91.22-5.74,1.54-7.82,3.89l-7.9,8.96c-2.05,2.33-3.07,5.31-2.88,8.41.19,3.1,1.58,5.93,3.91,7.98,4.8,4.24,12.16,3.77,16.39-1.03l7.9-8.96c2.05-2.33,3.07-5.31,2.88-8.41-.19-3.1-1.58-5.93-3.91-7.98-2.45-2.16-5.56-3.09-8.58-2.86Z"/>
              </g>
              <g class="cls-8">
                <path class="cls-17" d="m346.63,351.05c-3.08.24-6.2-.14-9.22-1.16-5.9-1.98-10.67-6.14-13.44-11.72-2.77-5.57-3.2-11.89-1.22-17.79,1.98-5.9,6.15-10.67,11.72-13.44l10.69-5.31c5.57-2.77,11.89-3.2,17.79-1.22,5.9,1.98,10.67,6.14,13.44,11.72h0c5.72,11.51,1,25.52-10.5,31.24l-10.69,5.31c-2.73,1.35-5.63,2.15-8.57,2.37Zm8.01-40.14c-1.47.11-2.91.51-4.27,1.19l-10.69,5.31c-2.78,1.38-4.85,3.76-5.84,6.7-.99,2.94-.77,6.09.61,8.87s3.76,4.85,6.7,5.84c2.94.99,6.09.77,8.87-.61l10.69-5.31c5.74-2.85,8.08-9.83,5.24-15.57h0c-1.38-2.78-3.76-4.85-6.7-5.84-1.5-.51-3.06-.7-4.6-.58Z"/>
                <path class="cls-17" d="m398.83,309.57c-6.06.47-12.3-1.42-17.21-5.74-4.67-4.12-7.45-9.81-7.84-16.02-.39-6.21,1.66-12.2,5.78-16.87l7.9-8.96c8.5-9.64,23.25-10.56,32.89-2.07,4.67,4.12,7.45,9.81,7.84,16.02.39,6.21-1.66,12.2-5.78,16.87l-7.9,8.96c-4.17,4.73-9.84,7.36-15.68,7.81Zm5.2-43.75c-2.91.22-5.74,1.54-7.82,3.89l-7.9,8.96c-2.05,2.33-3.07,5.31-2.88,8.41.19,3.1,1.58,5.93,3.91,7.98,4.8,4.24,12.16,3.77,16.39-1.03l7.9-8.96c2.05-2.33,3.07-5.31,2.88-8.41-.19-3.1-1.58-5.93-3.91-7.98-2.45-2.16-5.56-3.09-8.58-2.86Z"/>
              </g>
            </g>
            <g>
              <path class="cls-17" d="m321.5,377.81l-14.55,1.12-3.45-44.66c-1.32-17.07-16.28-29.89-33.35-28.57-17.07,1.32-29.89,16.28-28.57,33.35l3.45,44.66-14.55,1.12-3.45-44.66c-1.94-25.1,16.9-47.09,42-49.03,25.1-1.94,47.09,16.9,49.03,42l3.45,44.66Z"/>
              <g class="cls-15">
                <path class="cls-17" d="m321.5,377.81l-14.55,1.12-3.45-44.66c-1.32-17.07-16.28-29.89-33.35-28.57-17.07,1.32-29.89,16.28-28.57,33.35l3.45,44.66-14.55,1.12-3.45-44.66c-1.94-25.1,16.9-47.09,42-49.03,25.1-1.94,47.09,16.9,49.03,42l3.45,44.66Z"/>
              </g>
              <path class="cls-17" d="m335.91,365.26l5.64,73.07c.36,4.69-3.13,8.76-7.81,9.12l-107.45,8.3c-4.66.36-8.73-3.13-9.09-7.82l-5.64-73.07c-.36-4.69,3.13-8.76,7.79-9.12l107.45-8.3c4.69-.36,8.76,3.13,9.12,7.82Z"/>
              <path class="cls-12" d="m335.91,365.26l5.64,73.07c.36,4.69-3.13,8.76-7.81,9.12l-78.32,6.05c-4.66.36-8.76-3.13-9.12-7.82l-5.64-73.07c-.36-4.69,3.16-8.76,7.81-9.12l78.32-6.05c4.69-.36,8.76,3.13,9.12,7.82Z"/>
              <path class="cls-17" d="m303.98,395.26c-.7-9.01-7.34-15.84-14.85-15.26s-13.03,8.35-12.33,17.36c.54,7,4.7,12.64,10.04,14.55l.79,19.47,10.87-.84-3.1-18.95c5.48-2.42,9.15-8.92,8.57-16.33Z"/>
            </g>
            <g>
              <path class="cls-17" d="m430.73,258.69c-.28.02-.57.03-.87,0-6.21-.44-11.88-3.27-15.96-7.97-4.08-4.7-6.09-10.71-5.65-16.91l.84-11.91c.44-6.21,3.27-11.88,7.97-15.96,4.7-4.08,10.71-6.08,16.92-5.65,3.22.23,5.64,3.02,5.42,6.24-.23,3.22-3.01,5.66-6.24,5.42-3.09-.21-6.09.78-8.43,2.82-2.34,2.03-3.75,4.86-3.97,7.95l-.84,11.91c-.22,3.09.78,6.09,2.81,8.43,2.03,2.34,4.86,3.75,7.95,3.97,3.22.23,5.65,3.02,5.42,6.24-.21,2.93-2.53,5.2-5.37,5.41Z"/>
              <g class="cls-8">
                <path class="cls-17" d="m430.73,258.69c-.28.02-.57.03-.87,0-6.21-.44-11.88-3.27-15.96-7.97-4.08-4.7-6.09-10.71-5.65-16.91l.84-11.91c.44-6.21,3.27-11.88,7.97-15.96,4.7-4.08,10.71-6.08,16.92-5.65,3.22.23,5.64,3.02,5.42,6.24-.23,3.22-3.01,5.66-6.24,5.42-3.09-.21-6.09.78-8.43,2.82-2.34,2.03-3.75,4.86-3.97,7.95l-.84,11.91c-.22,3.09.78,6.09,2.81,8.43,2.03,2.34,4.86,3.75,7.95,3.97,3.22.23,5.65,3.02,5.42,6.24-.21,2.93-2.53,5.2-5.37,5.41Z"/>
              </g>
              <g>
                <path class="cls-17" d="m329.65,341.4c-2.31.18-4.59-1.03-5.69-3.23-2.77-5.57-3.2-11.89-1.22-17.79,1.98-5.9,6.15-10.67,11.72-13.44l10.69-5.31c5.57-2.77,11.89-3.2,17.79-1.22,5.9,1.98,10.67,6.14,13.44,11.72,1.44,2.89.26,6.4-2.63,7.83-2.89,1.44-6.4.26-7.83-2.63-1.38-2.78-3.76-4.85-6.7-5.84-2.94-.99-6.09-.78-8.87.61l-10.69,5.31c-2.78,1.38-4.85,3.76-5.84,6.7-.99,2.94-.77,6.09.61,8.87,1.44,2.89.26,6.4-2.63,7.83-.69.34-1.42.54-2.15.59Z"/>
                <path class="cls-17" d="m385.94,305.27c-1.52.12-3.08-.35-4.32-1.44-4.67-4.12-7.45-9.81-7.84-16.02-.39-6.21,1.66-12.2,5.78-16.87l7.9-8.96c8.5-9.64,23.25-10.56,32.89-2.07,2.42,2.13,2.65,5.83.52,8.25-2.13,2.42-5.83,2.66-8.25.52-4.8-4.24-12.16-3.77-16.39,1.03l-7.9,8.96c-2.05,2.33-3.07,5.31-2.88,8.41.19,3.1,1.58,5.93,3.91,7.98,2.42,2.13,2.65,5.83.52,8.25-1.05,1.19-2.47,1.85-3.93,1.96Z"/>
              </g>
              <g class="cls-8">
                <path class="cls-17" d="m329.65,341.4c-2.31.18-4.59-1.03-5.69-3.23-2.77-5.57-3.2-11.89-1.22-17.79,1.98-5.9,6.15-10.67,11.72-13.44l10.69-5.31c5.57-2.77,11.89-3.2,17.79-1.22,5.9,1.98,10.67,6.14,13.44,11.72,1.44,2.89.26,6.4-2.63,7.83-2.89,1.44-6.4.26-7.83-2.63-1.38-2.78-3.76-4.85-6.7-5.84-2.94-.99-6.09-.78-8.87.61l-10.69,5.31c-2.78,1.38-4.85,3.76-5.84,6.7-.99,2.94-.77,6.09.61,8.87,1.44,2.89.26,6.4-2.63,7.83-.69.34-1.42.54-2.15.59Z"/>
                <path class="cls-17" d="m385.94,305.27c-1.52.12-3.08-.35-4.32-1.44-4.67-4.12-7.45-9.81-7.84-16.02-.39-6.21,1.66-12.2,5.78-16.87l7.9-8.96c8.5-9.64,23.25-10.56,32.89-2.07,2.42,2.13,2.65,5.83.52,8.25-2.13,2.42-5.83,2.66-8.25.52-4.8-4.24-12.16-3.77-16.39,1.03l-7.9,8.96c-2.05,2.33-3.07,5.31-2.88,8.41.19,3.1,1.58,5.93,3.91,7.98,2.42,2.13,2.65,5.83.52,8.25-1.05,1.19-2.47,1.85-3.93,1.96Z"/>
              </g>
              <g>
                <path class="cls-17" d="m366.42,329.69c-4.77.37-9.63-1.61-12.74-5.7-1.95-2.57-1.46-6.23,1.11-8.19,2.57-1.96,6.23-1.46,8.19,1.11.63.83,1.47,1.05,1.91,1.11.44.05,1.31.06,2.14-.56l23.39-17.81c1.27-.97,1.51-2.78.55-4.04-1.95-2.57-1.46-6.23,1.11-8.19,2.57-1.96,6.23-1.46,8.19,1.11,4.87,6.39,3.63,15.55-2.77,20.42l-23.39,17.81c-2.31,1.76-4.98,2.72-7.68,2.93Z"/>
                <path class="cls-17" d="m415.79,281.75c-3.35.26-6.8-.63-9.72-2.76-2.61-1.91-3.17-5.56-1.27-8.17,1.9-2.61,5.56-3.17,8.17-1.27,1.28.94,3.09.66,4.03-.62l17.36-23.72c.94-1.28.66-3.09-.63-4.03-2.61-1.91-3.17-5.56-1.26-8.17,1.91-2.6,5.57-3.17,8.17-1.26,6.48,4.75,7.9,13.88,3.16,20.36l-17.36,23.72c-2.61,3.57-6.55,5.6-10.65,5.92Z"/>
                <path class="cls-17" d="m304.84,348.97c-3.48.27-6.91-.71-9.75-2.8-3.13-2.31-5.18-5.7-5.76-9.55-.48-3.19,1.71-6.17,4.9-6.65,3.19-.5,6.17,1.71,6.65,4.9.16,1.03.78,1.63,1.14,1.89.36.26,1.11.69,2.14.53l29.06-4.4c1.03-.16,1.63-.78,1.89-1.14.27-.36.69-1.12.53-2.14-.48-3.19,1.71-6.17,4.9-6.65,3.2-.49,6.17,1.71,6.65,4.9.58,3.85-.37,7.7-2.68,10.83-2.31,3.13-5.7,5.18-9.55,5.76l-29.06,4.4c-.36.06-.72.1-1.08.12Z"/>
              </g>
              <g class="cls-6">
                <path class="cls-17" d="m366.42,329.69c-4.77.37-9.63-1.61-12.74-5.7-1.95-2.57-1.46-6.23,1.11-8.19,2.57-1.96,6.23-1.46,8.19,1.11.63.83,1.47,1.05,1.91,1.11.44.05,1.31.06,2.14-.56l23.39-17.81c1.27-.97,1.51-2.78.55-4.04-1.95-2.57-1.46-6.23,1.11-8.19,2.57-1.96,6.23-1.46,8.19,1.11,4.87,6.39,3.63,15.55-2.77,20.42l-23.39,17.81c-2.31,1.76-4.98,2.72-7.68,2.93Z"/>
                <path class="cls-17" d="m415.79,281.75c-3.35.26-6.8-.63-9.72-2.76-2.61-1.91-3.17-5.56-1.27-8.17,1.9-2.61,5.56-3.17,8.17-1.27,1.28.94,3.09.66,4.03-.62l17.36-23.72c.94-1.28.66-3.09-.63-4.03-2.61-1.91-3.17-5.56-1.26-8.17,1.91-2.6,5.57-3.17,8.17-1.26,6.48,4.75,7.9,13.88,3.16,20.36l-17.36,23.72c-2.61,3.57-6.55,5.6-10.65,5.92Z"/>
                <path class="cls-17" d="m304.84,348.97c-3.48.27-6.91-.71-9.75-2.8-3.13-2.31-5.18-5.7-5.76-9.55-.48-3.19,1.71-6.17,4.9-6.65,3.19-.5,6.17,1.71,6.65,4.9.16,1.03.78,1.63,1.14,1.89.36.26,1.11.69,2.14.53l29.06-4.4c1.03-.16,1.63-.78,1.89-1.14.27-.36.69-1.12.53-2.14-.48-3.19,1.71-6.17,4.9-6.65,3.2-.49,6.17,1.71,6.65,4.9.58,3.85-.37,7.7-2.68,10.83-2.31,3.13-5.7,5.18-9.55,5.76l-29.06,4.4c-.36.06-.72.1-1.08.12Z"/>
              </g>
            </g>
            <path class="cls-17" d="m439.23,219.56c-.99.08-2.01-.1-2.97-.56-2.91-1.39-4.14-4.88-2.75-7.8,1.34-2.8,1.51-5.95.48-8.87-1.03-2.93-3.14-5.28-5.94-6.61-2.91-1.39-4.14-4.88-2.75-7.79,1.39-2.91,4.89-4.14,7.79-2.75,5.61,2.69,9.85,7.4,11.92,13.27,2.07,5.87,1.73,12.19-.96,17.81-.94,1.95-2.81,3.15-4.83,3.3Z"/>
            <g class="cls-6">
              <path class="cls-17" d="m439.23,219.56c-.99.08-2.01-.1-2.97-.56-2.91-1.39-4.14-4.88-2.75-7.8,1.34-2.8,1.51-5.95.48-8.87-1.03-2.93-3.14-5.28-5.94-6.61-2.91-1.39-4.14-4.88-2.75-7.79,1.39-2.91,4.89-4.14,7.79-2.75,5.61,2.69,9.85,7.4,11.92,13.27,2.07,5.87,1.73,12.19-.96,17.81-.94,1.95-2.81,3.15-4.83,3.3Z"/>
            </g>
            <g>
              <g>
                <path class="cls-17" d="m66.98,323.81c-5.49.42-11.14-1.08-15.86-4.65l-9.51-7.21c-4.96-3.76-8.16-9.22-9.01-15.39-.85-6.17.76-12.29,4.51-17.25,1.95-2.57,5.61-3.08,8.19-1.12,2.57,1.95,3.08,5.61,1.13,8.19-1.87,2.47-2.67,5.52-2.25,8.6.42,3.07,2.02,5.8,4.49,7.67l9.51,7.22c5.1,3.87,12.4,2.86,16.27-2.24,1.95-2.57,5.62-3.08,8.19-1.13,2.57,1.95,3.08,5.61,1.12,8.19-4.19,5.52-10.37,8.65-16.79,9.14Z"/>
                <path class="cls-17" d="m131.67,347.82c-2.55.2-5.18-.03-7.8-.73l-11.53-3.09c-6.01-1.61-11.04-5.46-14.15-10.85-3.11-5.39-3.94-11.67-2.33-17.68.83-3.12,4.04-4.96,7.16-4.13,3.12.83,4.97,4.04,4.13,7.16-.8,3-.39,6.13,1.16,8.81,1.55,2.69,4.06,4.61,7.05,5.41l11.53,3.09c6.18,1.65,12.57-2.03,14.22-8.22.83-3.12,4.04-4.97,7.16-4.13,3.12.83,4.97,4.04,4.13,7.16-2.62,9.8-11.15,16.47-20.74,17.21Z"/>
                <path class="cls-17" d="m198.96,358.2c-1.38.11-2.79.09-4.21-.06l-11.88-1.23c-12.78-1.33-22.1-12.8-20.77-25.58.33-3.21,3.2-5.55,6.42-5.21,3.21.33,5.54,3.21,5.21,6.41-.66,6.37,3.98,12.09,10.35,12.75l11.87,1.23c6.37.66,12.09-3.99,12.75-10.35.33-3.21,3.2-5.55,6.42-5.21,3.21.33,5.54,3.21,5.21,6.42-1.18,11.35-10.37,19.98-21.37,20.83Z"/>
              </g>
              <g>
                <path class="cls-17" d="m66.98,323.81c-5.49.42-11.14-1.08-15.86-4.65l-9.51-7.21c-4.96-3.76-8.16-9.22-9.01-15.39-.85-6.17.76-12.29,4.51-17.25,1.95-2.57,5.61-3.08,8.19-1.12,2.57,1.95,3.08,5.61,1.13,8.19-1.87,2.47-2.67,5.52-2.25,8.6.42,3.07,2.02,5.8,4.49,7.67l9.51,7.22c5.1,3.87,12.4,2.86,16.27-2.24,1.95-2.57,5.62-3.08,8.19-1.13,2.57,1.95,3.08,5.61,1.12,8.19-4.19,5.52-10.37,8.65-16.79,9.14Z"/>
                <path class="cls-17" d="m131.67,347.82c-2.55.2-5.18-.03-7.8-.73l-11.53-3.09c-6.01-1.61-11.04-5.46-14.15-10.85-3.11-5.39-3.94-11.67-2.33-17.68.83-3.12,4.04-4.96,7.16-4.13,3.12.83,4.97,4.04,4.13,7.16-.8,3-.39,6.13,1.16,8.81,1.55,2.69,4.06,4.61,7.05,5.41l11.53,3.09c6.18,1.65,12.57-2.03,14.22-8.22.83-3.12,4.04-4.97,7.16-4.13,3.12.83,4.97,4.04,4.13,7.16-2.62,9.8-11.15,16.47-20.74,17.21Z"/>
                <path class="cls-17" d="m198.96,358.2c-1.38.11-2.79.09-4.21-.06l-11.88-1.23c-12.78-1.33-22.1-12.8-20.77-25.58.33-3.21,3.2-5.55,6.42-5.21,3.21.33,5.54,3.21,5.21,6.41-.66,6.37,3.98,12.09,10.35,12.75l11.87,1.23c6.37.66,12.09-3.99,12.75-10.35.33-3.21,3.2-5.55,6.42-5.21,3.21.33,5.54,3.21,5.21,6.42-1.18,11.35-10.37,19.98-21.37,20.83Z"/>
              </g>
              <g class="cls-8">
                <path class="cls-17" d="m66.98,323.81c-5.49.42-11.14-1.08-15.86-4.65l-9.51-7.21c-4.96-3.76-8.16-9.22-9.01-15.39-.85-6.17.76-12.29,4.51-17.25,1.95-2.57,5.61-3.08,8.19-1.12,2.57,1.95,3.08,5.61,1.13,8.19-1.87,2.47-2.67,5.52-2.25,8.6.42,3.07,2.02,5.8,4.49,7.67l9.51,7.22c5.1,3.87,12.4,2.86,16.27-2.24,1.95-2.57,5.62-3.08,8.19-1.13,2.57,1.95,3.08,5.61,1.12,8.19-4.19,5.52-10.37,8.65-16.79,9.14Z"/>
                <path class="cls-17" d="m131.67,347.82c-2.55.2-5.18-.03-7.8-.73l-11.53-3.09c-6.01-1.61-11.04-5.46-14.15-10.85-3.11-5.39-3.94-11.67-2.33-17.68.83-3.12,4.04-4.96,7.16-4.13,3.12.83,4.97,4.04,4.13,7.16-.8,3-.39,6.13,1.16,8.81,1.55,2.69,4.06,4.61,7.05,5.41l11.53,3.09c6.18,1.65,12.57-2.03,14.22-8.22.83-3.12,4.04-4.97,7.16-4.13,3.12.83,4.97,4.04,4.13,7.16-2.62,9.8-11.15,16.47-20.74,17.21Z"/>
                <path class="cls-17" d="m198.96,358.2c-1.38.11-2.79.09-4.21-.06l-11.88-1.23c-12.78-1.33-22.1-12.8-20.77-25.58.33-3.21,3.2-5.55,6.42-5.21,3.21.33,5.54,3.21,5.21,6.41-.66,6.37,3.98,12.09,10.35,12.75l11.87,1.23c6.37.66,12.09-3.99,12.75-10.35.33-3.21,3.2-5.55,6.42-5.21,3.21.33,5.54,3.21,5.21,6.42-1.18,11.35-10.37,19.98-21.37,20.83Z"/>
              </g>
              <g>
                <path class="cls-17" d="m51.46,296.75c-1.99.15-4.01-.72-5.24-2.48-1.85-2.64-1.21-6.29,1.43-8.14.85-.6,1.11-1.42,1.18-1.86.08-.44.12-1.3-.48-2.15l-16.87-24.07c-.6-.85-1.42-1.11-1.86-1.19-.44-.08-1.3-.12-2.15.48-2.64,1.85-6.29,1.21-8.14-1.43-1.85-2.64-1.21-6.29,1.43-8.14,3.19-2.24,7.05-3.09,10.89-2.42,3.83.68,7.17,2.8,9.41,5.99l16.87,24.07c2.23,3.19,3.09,7.05,2.42,10.89-.68,3.83-2.8,7.18-5.99,9.41-.89.62-1.89.96-2.9,1.04Z"/>
                <path class="cls-17" d="m113.05,328.6c-1.01.08-2.06-.11-3.03-.59-2.89-1.43-4.08-4.93-2.65-7.83.71-1.43.12-3.16-1.31-3.87l-26.35-13.02c-.93-.46-1.78-.29-2.2-.15-.42.14-1.2.52-1.66,1.45-1.43,2.89-4.94,4.08-7.83,2.65-2.89-1.43-4.08-4.93-2.65-7.83,1.72-3.49,4.7-6.1,8.39-7.35,3.69-1.25,7.64-.98,11.13.74l26.35,13.02c7.2,3.56,10.17,12.32,6.61,19.52-.95,1.92-2.81,3.09-4.79,3.24Z"/>
                <path class="cls-17" d="m181.36,341.09c-.47.04-.96.01-1.45-.07-3.18-.55-5.32-3.57-4.77-6.75.18-1.02-.23-1.79-.49-2.15-.26-.36-.84-1-1.87-1.18l-28.97-4.99c-1.03-.17-1.79.23-2.15.49-.36.26-1,.84-1.18,1.86l-11.52-1.98c.66-3.84,2.78-7.19,5.96-9.43,3.18-2.25,7.04-3.12,10.88-2.46l28.97,4.99c3.84.66,7.19,2.78,9.43,5.96,2.25,3.18,3.12,7.04,2.46,10.88-.46,2.69-2.7,4.63-5.3,4.84Z"/>
                <path class="cls-17" d="m249.28,342.95c-.18.01-.37.02-.55.02-3.23-.05-5.8-2.71-5.75-5.94.03-1.59-1.25-2.9-2.84-2.93l-29.39-.47c-1.04,0-1.73.5-2.05.81-.32.31-.86.99-.88,2.02-.05,3.23-2.71,5.81-5.94,5.75-3.23-.05-5.8-2.71-5.75-5.93.06-3.89,1.64-7.53,4.43-10.24,2.8-2.71,6.48-4.17,10.37-4.1l29.39.47c8.04.13,14.47,6.77,14.34,14.8-.05,3.04-2.41,5.5-5.39,5.73Z"/>
              </g>
              <g class="cls-6">
                <path class="cls-17" d="m51.46,296.75c-1.99.15-4.01-.72-5.24-2.48-1.85-2.64-1.21-6.29,1.43-8.14.85-.6,1.11-1.42,1.18-1.86.08-.44.12-1.3-.48-2.15l-16.87-24.07c-.6-.85-1.42-1.11-1.86-1.19-.44-.08-1.3-.12-2.15.48-2.64,1.85-6.29,1.21-8.14-1.43-1.85-2.64-1.21-6.29,1.43-8.14,3.19-2.24,7.05-3.09,10.89-2.42,3.83.68,7.17,2.8,9.41,5.99l16.87,24.07c2.23,3.19,3.09,7.05,2.42,10.89-.68,3.83-2.8,7.18-5.99,9.41-.89.62-1.89.96-2.9,1.04Z"/>
                <path class="cls-17" d="m113.05,328.6c-1.01.08-2.06-.11-3.03-.59-2.89-1.43-4.08-4.93-2.65-7.83.71-1.43.12-3.16-1.31-3.87l-26.35-13.02c-.93-.46-1.78-.29-2.2-.15-.42.14-1.2.52-1.66,1.45-1.43,2.89-4.94,4.08-7.83,2.65-2.89-1.43-4.08-4.93-2.65-7.83,1.72-3.49,4.7-6.1,8.39-7.35,3.69-1.25,7.64-.98,11.13.74l26.35,13.02c7.2,3.56,10.17,12.32,6.61,19.52-.95,1.92-2.81,3.09-4.79,3.24Z"/>
                <path class="cls-17" d="m181.36,341.09c-.47.04-.96.01-1.45-.07-3.18-.55-5.32-3.57-4.77-6.75.18-1.02-.23-1.79-.49-2.15-.26-.36-.84-1-1.87-1.18l-28.97-4.99c-1.03-.17-1.79.23-2.15.49-.36.26-1,.84-1.18,1.86l-11.52-1.98c.66-3.84,2.78-7.19,5.96-9.43,3.18-2.25,7.04-3.12,10.88-2.46l28.97,4.99c3.84.66,7.19,2.78,9.43,5.96,2.25,3.18,3.12,7.04,2.46,10.88-.46,2.69-2.7,4.63-5.3,4.84Z"/>
                <path class="cls-17" d="m249.28,342.95c-.18.01-.37.02-.55.02-3.23-.05-5.8-2.71-5.75-5.94.03-1.59-1.25-2.9-2.84-2.93l-29.39-.47c-1.04,0-1.73.5-2.05.81-.32.31-.86.99-.88,2.02-.05,3.23-2.71,5.81-5.94,5.75-3.23-.05-5.8-2.71-5.75-5.93.06-3.89,1.64-7.53,4.43-10.24,2.8-2.71,6.48-4.17,10.37-4.1l29.39.47c8.04.13,14.47,6.77,14.34,14.8-.05,3.04-2.41,5.5-5.39,5.73Z"/>
              </g>
              <path class="cls-17" d="m28.27,267.46c-1.38.11-2.79-.27-3.98-1.17-4.96-3.76-8.16-9.23-9.01-15.39-.85-6.17.76-12.29,4.52-17.26,1.95-2.57,5.61-3.08,8.19-1.12,2.57,1.95,3.08,5.61,1.13,8.19-1.88,2.47-2.67,5.53-2.25,8.6.42,3.07,2.02,5.8,4.49,7.67,2.57,1.95,3.08,5.61,1.13,8.19-1.05,1.39-2.6,2.17-4.21,2.3Z"/>
              <g class="cls-8">
                <path class="cls-17" d="m28.27,267.46c-1.38.11-2.79-.27-3.98-1.17-4.96-3.76-8.16-9.23-9.01-15.39-.85-6.17.76-12.29,4.52-17.26,1.95-2.57,5.61-3.08,8.19-1.12,2.57,1.95,3.08,5.61,1.13,8.19-1.88,2.47-2.67,5.53-2.25,8.6.42,3.07,2.02,5.8,4.49,7.67,2.57,1.95,3.08,5.61,1.13,8.19-1.05,1.39-2.6,2.17-4.21,2.3Z"/>
              </g>
            </g>
          </g>
          <g>
            <g>
              <path class="cls-20" d="m431.2,234.32c-4.03.31-8.08-.44-11.82-2.23l-10.77-5.16c-11.59-5.55-16.5-19.49-10.96-31.08h0c5.55-11.59,19.49-16.5,31.08-10.95l10.77,5.16c5.61,2.69,9.84,7.4,11.91,13.27,2.07,5.87,1.73,12.19-.96,17.81-2.69,5.61-7.4,9.84-13.27,11.91-1.96.69-3.97,1.11-5.99,1.27Zm-13.4-39.98c-4.01.31-7.75,2.69-9.6,6.56h0c-2.77,5.78-.32,12.73,5.46,15.49l10.77,5.16c2.8,1.34,5.95,1.51,8.88.48,2.93-1.03,5.27-3.14,6.61-5.94,1.34-2.8,1.51-5.95.48-8.88-1.03-2.93-3.14-5.28-5.94-6.61l-10.77-5.16c-1.9-.91-3.93-1.26-5.89-1.1Zm-14.87,4.04h.02s-.02,0-.02,0Z"/>
              <g class="cls-13">
                <path class="cls-2" d="m431.2,234.32c-4.03.31-8.08-.44-11.82-2.23l-10.77-5.16c-11.59-5.55-16.5-19.49-10.96-31.08h0c5.55-11.59,19.49-16.5,31.08-10.95l10.77,5.16c5.61,2.69,9.84,7.4,11.91,13.27,2.07,5.87,1.73,12.19-.96,17.81-2.69,5.61-7.4,9.84-13.27,11.91-1.96.69-3.97,1.11-5.99,1.27Zm-13.4-39.98c-4.01.31-7.75,2.69-9.6,6.56h0c-2.77,5.78-.32,12.73,5.46,15.49l10.77,5.16c2.8,1.34,5.95,1.51,8.88.48,2.93-1.03,5.27-3.14,6.61-5.94,1.34-2.8,1.51-5.95.48-8.88-1.03-2.93-3.14-5.28-5.94-6.61l-10.77-5.16c-1.9-.91-3.93-1.26-5.89-1.1Zm-14.87,4.04h.02s-.02,0-.02,0Z"/>
              </g>
              <path class="cls-20" d="m439.76,263.56c-1.15.09-2.31.09-3.48,0h0c-6.21-.44-11.88-3.27-15.96-7.97-4.08-4.7-6.09-10.71-5.65-16.91l.84-11.91c.44-6.21,3.27-11.88,7.97-15.96,4.7-4.08,10.71-6.08,16.92-5.65,6.21.44,11.87,3.27,15.95,7.97,4.08,4.7,6.09,10.71,5.65,16.92l-.84,11.91c-.44,6.21-3.27,11.88-7.97,15.96-3.81,3.31-8.49,5.26-13.43,5.64Zm-1.92-46.72c-2.46.19-4.79,1.16-6.69,2.81-2.34,2.03-3.75,4.86-3.97,7.95l-.84,11.91c-.22,3.09.78,6.09,2.81,8.43,2.03,2.34,4.86,3.75,7.95,3.97h0c3.09.21,6.09-.78,8.43-2.82,2.34-2.03,3.75-4.86,3.97-7.95l.84-11.91c.22-3.1-.78-6.09-2.81-8.43-2.03-2.34-4.86-3.75-7.95-3.97-.58-.04-1.16-.04-1.74,0Z"/>
              <g class="cls-8">
                <path class="cls-2" d="m439.76,263.56c-1.15.09-2.31.09-3.48,0h0c-6.21-.44-11.88-3.27-15.96-7.97-4.08-4.7-6.09-10.71-5.65-16.91l.84-11.91c.44-6.21,3.27-11.88,7.97-15.96,4.7-4.08,10.71-6.08,16.92-5.65,6.21.44,11.87,3.27,15.95,7.97,4.08,4.7,6.09,10.71,5.65,16.92l-.84,11.91c-.44,6.21-3.27,11.88-7.97,15.96-3.81,3.31-8.49,5.26-13.43,5.64Zm-1.92-46.72c-2.46.19-4.79,1.16-6.69,2.81-2.34,2.03-3.75,4.86-3.97,7.95l-.84,11.91c-.22,3.09.78,6.09,2.81,8.43,2.03,2.34,4.86,3.75,7.95,3.97h0c3.09.21,6.09-.78,8.43-2.82,2.34-2.03,3.75-4.86,3.97-7.95l.84-11.91c.22-3.1-.78-6.09-2.81-8.43-2.03-2.34-4.86-3.75-7.95-3.97-.58-.04-1.16-.04-1.74,0Z"/>
              </g>
              <g>
                <path class="cls-20" d="m46.56,275.82c-5.49.43-11.14-1.08-15.86-4.65h0c-4.96-3.76-8.16-9.23-9.01-15.39-.85-6.17.76-12.29,4.52-17.26l7.21-9.51c7.76-10.24,22.41-12.25,32.65-4.49,10.24,7.76,12.25,22.41,4.49,32.64l-7.21,9.52c-4.19,5.52-10.37,8.65-16.79,9.14Zm4.54-44.31c-3.2.25-6.28,1.81-8.37,4.56l-7.21,9.51c-1.88,2.47-2.67,5.53-2.25,8.6.42,3.07,2.02,5.8,4.49,7.67h0c5.1,3.87,12.4,2.86,16.27-2.24l7.21-9.51c3.87-5.1,2.86-12.4-2.24-16.27-2.35-1.78-5.17-2.53-7.9-2.32Z"/>
                <g class="cls-8">
                  <path class="cls-2" d="m46.56,275.82c-5.49.43-11.14-1.08-15.86-4.65h0c-4.96-3.76-8.16-9.23-9.01-15.39-.85-6.17.76-12.29,4.52-17.26l7.21-9.51c7.76-10.24,22.41-12.25,32.65-4.49,10.24,7.76,12.25,22.41,4.49,32.64l-7.21,9.52c-4.19,5.52-10.37,8.65-16.79,9.14Zm4.54-44.31c-3.2.25-6.28,1.81-8.37,4.56l-7.21,9.51c-1.88,2.47-2.67,5.53-2.25,8.6.42,3.07,2.02,5.8,4.49,7.67h0c5.1,3.87,12.4,2.86,16.27-2.24l7.21-9.51c3.87-5.1,2.86-12.4-2.24-16.27-2.35-1.78-5.17-2.53-7.9-2.32Z"/>
                </g>
              </g>
              <path class="cls-19" d="m52.88,19.87h340.3c2.76,0,5.01,2.24,5.01,5.01v547.34c0,2.76-2.24,5.01-5.01,5.01H52.88c-2.76,0-5.01-2.24-5.01-5.01V24.88c0-2.76,2.24-5.01,5.01-5.01Z" transform="translate(-22.33 18.06) rotate(-4.42)"/>
              <rect class="cls-2" x="60.84" y="29.43" width="343.7" height="535.61" transform="translate(-22.2 18.8) rotate(-4.42)"/>
              <path class="cls-14" d="m87.86,17.17h340.3c2.76,0,5.01,2.24,5.01,5.01v547.34c0,2.76-2.24,5.01-5.01,5.01H87.86c-2.76,0-5.01-2.24-5.01-5.01V22.18c0-2.76,2.24-5.01,5.01-5.01Z" transform="translate(-22.02 20.75) rotate(-4.42)"/>
              <path class="cls-19" d="m87.86,17.17h340.3c2.76,0,5.01,2.24,5.01,5.01v547.34c0,2.76-2.24,5.01-5.01,5.01H87.86c-2.76,0-5.01-2.24-5.01-5.01V22.18c0-2.76,2.24-5.01,5.01-5.01Z" transform="translate(-22.02 20.75) rotate(-4.42)"/>
              <polygon class="cls-10" points="52.08 42.58 82.09 446.3 49.75 42.76 52.08 42.58"/>
              <polygon class="cls-10" points="96.82 576.33 60.37 89.25 99.16 576.15 96.82 576.33"/>
              <polygon class="cls-19" points="46.08 208.86 14.43 197.2 6.41 93.42 35.89 77.04 46.08 208.86"/>
              <g class="cls-8">
                <g>
                  <path class="cls-2" d="m178.95,266.85c-.68,1.1-1.82,1.73-2.89,2.35,0,0,0,0-.01,0,0,.05,0,.09,0,.14-.35,1.67-1.25,3.23-2.67,4.02-1.08.6-2.31.64-3.5.26-.13.19-.27.37-.43.53-.21.2-.44.4-.71.52-.36.16-.69.23-1.1.24-.27,0-.54-.16-.75-.36-.16-.16-.25-.37-.3-.58l-17.49,10.1-37.11-64.24,77.67-44.87c.01-.12.03-.25.04-.37,0-.07.01-.15.02-.22,0,0,0,0,0,0,0-.01,0,0,0-.03.02-.28.03-.57.04-.85.01-.63,0-1.27-.06-1.91-.03-.33-.08-.66-.12-.99,0-.02,0,0,0-.02,0-.02,0-.02-.01-.07-.01-.07-.03-.14-.04-.21-.02-.09-.04-.17-.06-.26l-17.59,10.16c-.08.2-.15.42-.24.62-.95,2.3-3.46,3.26-5.85,2.89l-59.34,34.28,3.2,5.54c-.11-.54.24-1.05.7-1.17.56-.16,1.11.31,1.32.87.3.83.72,1.66,1.18,2.48.04-.05.08-.09.12-.14.35-.43,1.07-.36,1.48.07.25.27.35.6.33.93.39.19.66.61.71,1.07.15,1.34.58,2.68.94,4.01.4,1.47.71,2.97.7,4.47,0,.11-.03.2-.05.3l26.38,45.67c.55.26,1.08.56,1.56.95,1.22.98,2.08,2.29,2.46,3.82.15.62-.14,1.05-.57,1.22l1.02,1.77,133.14-76.91c.6-1.1,1.22-2.19,1.77-3.31.55-1.11,1.01-2.28,1.29-3.51l-105.19,60.77Z"/>
                  <path class="cls-2" d="m388.81,143.17s-.04-.23-.03-.27c0,0,0,0,0-.01-.07-.34-.16-.67-.27-1.01-.21-.65-.46-1.3-.62-1.96-.1-.41,0-.78.24-1.03l-29.97-51.88s0,0-.01,0c-.76.12-1.56.02-2.25-.51-.66-.5-1.18-1.16-1.74-1.78-.43-.47-.46-1.14-.09-1.58.35-.42,1.08-.37,1.48.07.19.21.37.42.56.62-.04-.2-.08-.4-.12-.6l-4.07-7.05-67.16,38.8c.1.41,0,.85-.43,1.1-.43.25-.86.12-1.16-.17l-7.09,4.1s0,.02,0,.03c.04.14.04.28,0,.42-.07.31-.18.6-.33.87-.09.16-.18.32-.25.49,0,.01,0,.02,0,.03-.06.29-.23.5-.45.65-.23.15-.52.15-.79.07-.14-.04-.26-.11-.37-.21-.12-.09-.22-.2-.3-.34-.08-.13-.13-.28-.15-.43,0-.02,0-.04,0-.06l-82.18,47.48c.06.1.12.2.15.31.29,1.22.42,2.46.44,3.7.22.06.39.22.53.4l158.36-91.48,37.11,64.24-101.37,58.56c-.1,2.2-.82,4.18-1.76,6.07l2.73-1.58c0-.08-.02-.16-.01-.24v.05c0-.05,0-.11-.01-.16-.03-.12-.06-.24-.11-.36-.09-.19-.18-.38-.29-.56-.16-.27-.19-.56-.15-.85.05-.29.23-.51.45-.65,0,0,.01,0,.02,0,0-.31.13-.6.45-.79.46-.27.91-.09,1.22.25.05,0,.09-.02.14-.01.39.03.78.14,1.16.27.28.09.5.3.66.55.07.12.11.25.14.38l99.95-57.74c-.42-.35-.5-.95-.33-1.41.31-.86.73-1.67,1.2-2.44l-1.03-1.78c0,.06.02.11.02.17,0,.62-.41,1.06-1,1.05-.54,0-1.1-.59-1.1-1.17,0-.2,0-.4-.03-.6Z"/>
                </g>
                <g>
                  <path class="cls-2" d="m144.77,246.14c2.64,4.63,5.5,5.68,9.49,3.4,1.93-1.1,3.91-3,4.75-4.97l2.51,4.4c-.98,1.71-3.07,3.5-5.35,4.8-7.36,4.2-12.59,2.42-16.5-4.42l-1.36-2.38c-3.91-6.84-2.78-12.26,4.58-16.46,2.28-1.3,4.9-2.16,6.86-2.17l2.51,4.4c-2.12-.28-4.76.46-6.69,1.56-3.98,2.28-4.53,5.27-1.89,9.9l1.1,1.93Z"/>
                  <path class="cls-2" d="m176.47,225.39l1.16,2.02c4.04,7.07,2.76,12.53-3.66,16.2-6.49,3.71-11.81,2.01-15.84-5.06l-1.16-2.02c-4.02-7.04-2.62-12.57,3.71-16.18,6.27-3.58,11.77-1.99,15.79,5.04Zm-4.17,4.94l-1.03-1.8c-2.61-4.56-5.02-6.04-8.3-4.16-3.28,1.87-3.3,4.74-.7,9.3l1.03,1.8c2.62,4.6,5.09,6,8.37,4.13,3.28-1.87,3.26-4.67.63-9.27Z"/>
                  <path class="cls-2" d="m187.02,235.65l-12.85-22.49,8.64-4.94,15.92,15.41.23-.13-10.55-18.48,5.24-2.99,12.85,22.49-8.68,4.95-15.9-15.38-.19.11,10.53,18.44-5.24,2.99Z"/>
                  <path class="cls-2" d="m198.17,199.45l15.07-8.61,2.31,4.05-9.83,5.62,3.03,5.3,9.16-5.23,2.31,4.05-9.16,5.23,5.19,9.09-5.24,2.99-12.85-22.49Z"/>
                  <path class="cls-2" d="m222.27,185.69l12.85,22.49-5.17,2.95-12.85-22.49,5.17-2.95Z"/>
                  <path class="cls-2" d="m251.56,185.2c4.26,7.45,2.26,12.3-4.97,16.43l-6.65,3.8-12.85-22.49,6.84-3.91c7.17-4.09,12.23-3.28,16.47,4.14l1.16,2.02Zm-6.35,1.11c-2.7-4.72-5.16-5.45-9.08-3.21l-1.48.84,8.26,14.46,1.22-.7c4.02-2.29,4.73-5,2.1-9.6l-1.03-1.8Z"/>
                  <path class="cls-2" d="m248.1,170.94l15.07-8.61,2.31,4.05-9.83,5.62,2.73,4.79,9.09-5.19,2.31,4.05-9.09,5.19,3.19,5.59,10.09-5.76,2.29,4.02-15.33,8.75-12.85-22.49Z"/>
                  <path class="cls-2" d="m279.84,182.64l-12.85-22.49,8.64-4.94,15.92,15.41.22-.13-10.55-18.48,5.24-2.99,12.85,22.49-8.68,4.96-15.9-15.38-.19.11,10.53,18.44-5.24,2.99Z"/>
                  <path class="cls-2" d="m302.24,156.21c2.64,4.63,5.5,5.68,9.49,3.4,1.93-1.1,3.91-3,4.75-4.97l2.51,4.4c-.98,1.71-3.07,3.5-5.35,4.8-7.36,4.2-12.59,2.42-16.5-4.42l-1.36-2.38c-3.91-6.84-2.78-12.26,4.58-16.46,2.28-1.3,4.9-2.16,6.86-2.17l2.51,4.4c-2.12-.28-4.76.46-6.69,1.56-3.98,2.28-4.53,5.27-1.89,9.9l1.1,1.93Z"/>
                  <path class="cls-2" d="m315.7,132.33l12.85,22.49-5.17,2.95-12.85-22.49,5.17-2.95Z"/>
                  <path class="cls-2" d="m333.5,122.16l18.69,19.15-5.33,3.05-4.29-4.54-7.23,4.13,1.76,5.98-5.33,3.05-7.03-25.81,8.77-5.01Zm-2.51,6.8l2.98,10.44,5.37-3.06-7.48-7.87-.87.5Z"/>
                  <path class="cls-2" d="m342.24,117.17l5.24-2.99,10.55,18.48,10.44-5.96,2.29,4.02-15.68,8.96-12.85-22.49Z"/>
                </g>
              </g>
              <polygon class="cls-10" points="85.16 577.23 59.52 230.08 87.49 577.05 85.16 577.23"/>
              <g>
                <g>
                  <path class="cls-20" d="m53.55,303.19c-1.21.09-2.44.04-3.67-.18-3.83-.68-7.18-2.8-9.41-5.99l-16.87-24.07c-4.61-6.58-3.01-15.69,3.57-20.3,3.19-2.24,7.06-3.1,10.89-2.42,3.83.68,7.17,2.8,9.41,5.99l16.87,24.07c2.23,3.19,3.09,7.05,2.42,10.89-.68,3.83-2.8,7.18-5.99,9.41-2.17,1.52-4.65,2.4-7.22,2.6Zm-18.25-41.48c-.42.03-.92.16-1.42.51-1.3.91-1.62,2.72-.71,4.02l16.87,24.07c.6.85,1.42,1.11,1.86,1.19.44.07,1.3.11,2.16-.48h0c.85-.6,1.11-1.42,1.18-1.86.08-.44.12-1.3-.48-2.15l-16.87-24.07c-.6-.85-1.42-1.11-1.86-1.19-.18-.03-.44-.06-.73-.04Z"/>
                  <path class="cls-20" d="m112.29,338.31c-2.52.19-5.12-.27-7.55-1.46l-26.36-13.03c-3.49-1.72-6.1-4.7-7.35-8.39-1.25-3.69-.99-7.64.74-11.13,1.72-3.49,4.7-6.1,8.39-7.34,3.69-1.25,7.64-.98,11.13.74l26.35,13.02c7.2,3.56,10.17,12.32,6.61,19.52-2.36,4.77-7.01,7.69-11.97,8.07Zm-27.66-30.43c-.29.02-.54.08-.71.14-.42.14-1.2.52-1.66,1.45-.46.93-.29,1.78-.15,2.2.14.42.52,1.2,1.45,1.66l26.36,13.03c1.42.7,3.16.12,3.86-1.31.71-1.43.12-3.16-1.31-3.87l-26.35-13.02c-.55-.27-1.07-.32-1.49-.29Z"/>
                  <path class="cls-20" d="m179.87,353.2c-1.2.09-2.41.04-3.62-.17l-28.97-4.99c-7.92-1.36-13.25-8.92-11.89-16.83.66-3.84,2.78-7.19,5.96-9.43,3.18-2.25,7.04-3.12,10.88-2.46l28.97,4.99c3.84.66,7.19,2.78,9.43,5.96,2.25,3.18,3.12,7.04,2.46,10.88-.66,3.84-2.78,7.19-5.95,9.43-2.18,1.53-4.67,2.43-7.26,2.63Zm-30.35-22.4c-.67.05-1.16.33-1.44.52-.36.26-1,.84-1.18,1.86-.27,1.57.78,3.06,2.35,3.34l28.97,4.99c1.02.18,1.79-.23,2.15-.49.36-.26,1-.84,1.18-1.87h0c.18-1.02-.23-1.79-.49-2.15-.26-.36-.84-1-1.87-1.18l-28.97-4.99c-.26-.04-.5-.05-.72-.03Z"/>
                  <path class="cls-20" d="m247.65,356.39c-.46.04-.92.05-1.38.04l-29.39-.47c-3.89-.06-7.53-1.63-10.24-4.43-2.71-2.8-4.16-6.48-4.1-10.37.06-3.89,1.64-7.53,4.43-10.23,2.8-2.71,6.48-4.17,10.37-4.1l29.39.47c8.04.13,14.47,6.77,14.34,14.8-.06,3.89-1.64,7.53-4.43,10.23-2.46,2.39-5.61,3.8-8.99,4.06Zm-30.77-17.88c-.89.07-1.48.52-1.78.8-.32.31-.86.99-.88,2.02-.02,1.04.5,1.74.81,2.05.31.32.99.86,2.02.88l29.4.47c1.06.02,1.73-.5,2.05-.81.32-.31.86-.99.88-2.03,0,0,0,0,0,0,.03-1.59-1.25-2.9-2.84-2.93l-29.39-.47c-.1,0-.19,0-.28,0Z"/>
                </g>
                <g class="cls-13">
                  <path class="cls-2" d="m53.55,303.19c-1.21.09-2.44.04-3.67-.18-3.83-.68-7.18-2.8-9.41-5.99l-16.87-24.07c-4.61-6.58-3.01-15.69,3.57-20.3,3.19-2.24,7.06-3.1,10.89-2.42,3.83.68,7.17,2.8,9.41,5.99l16.87,24.07c2.23,3.19,3.09,7.05,2.42,10.89-.68,3.83-2.8,7.18-5.99,9.41-2.17,1.52-4.65,2.4-7.22,2.6Zm-18.25-41.48c-.42.03-.92.16-1.42.51-1.3.91-1.62,2.72-.71,4.02l16.87,24.07c.6.85,1.42,1.11,1.86,1.19.44.07,1.3.11,2.16-.48h0c.85-.6,1.11-1.42,1.18-1.86.08-.44.12-1.3-.48-2.15l-16.87-24.07c-.6-.85-1.42-1.11-1.86-1.19-.18-.03-.44-.06-.73-.04Z"/>
                  <path class="cls-2" d="m112.29,338.31c-2.52.19-5.12-.27-7.55-1.46l-26.36-13.03c-3.49-1.72-6.1-4.7-7.35-8.39-1.25-3.69-.99-7.64.74-11.13,1.72-3.49,4.7-6.1,8.39-7.34,3.69-1.25,7.64-.98,11.13.74l26.35,13.02c7.2,3.56,10.17,12.32,6.61,19.52-2.36,4.77-7.01,7.69-11.97,8.07Zm-27.66-30.43c-.29.02-.54.08-.71.14-.42.14-1.2.52-1.66,1.45-.46.93-.29,1.78-.15,2.2.14.42.52,1.2,1.45,1.66l26.36,13.03c1.42.7,3.16.12,3.86-1.31.71-1.43.12-3.16-1.31-3.87l-26.35-13.02c-.55-.27-1.07-.32-1.49-.29Z"/>
                  <path class="cls-2" d="m179.87,353.2c-1.2.09-2.41.04-3.62-.17l-28.97-4.99c-7.92-1.36-13.25-8.92-11.89-16.83.66-3.84,2.78-7.19,5.96-9.43,3.18-2.25,7.04-3.12,10.88-2.46l28.97,4.99c3.84.66,7.19,2.78,9.43,5.96,2.25,3.18,3.12,7.04,2.46,10.88-.66,3.84-2.78,7.19-5.95,9.43-2.18,1.53-4.67,2.43-7.26,2.63Zm-30.35-22.4c-.67.05-1.16.33-1.44.52-.36.26-1,.84-1.18,1.86-.27,1.57.78,3.06,2.35,3.34l28.97,4.99c1.02.18,1.79-.23,2.15-.49.36-.26,1-.84,1.18-1.87h0c.18-1.02-.23-1.79-.49-2.15-.26-.36-.84-1-1.87-1.18l-28.97-4.99c-.26-.04-.5-.05-.72-.03Z"/>
                  <path class="cls-2" d="m247.65,356.39c-.46.04-.92.05-1.38.04l-29.39-.47c-3.89-.06-7.53-1.63-10.24-4.43-2.71-2.8-4.16-6.48-4.1-10.37.06-3.89,1.64-7.53,4.43-10.23,2.8-2.71,6.48-4.17,10.37-4.1l29.39.47c8.04.13,14.47,6.77,14.34,14.8-.06,3.89-1.64,7.53-4.43,10.23-2.46,2.39-5.61,3.8-8.99,4.06Zm-30.77-17.88c-.89.07-1.48.52-1.78.8-.32.31-.86.99-.88,2.02-.02,1.04.5,1.74.81,2.05.31.32.99.86,2.02.88l29.4.47c1.06.02,1.73-.5,2.05-.81.32-.31.86-.99.88-2.03,0,0,0,0,0,0,.03-1.59-1.25-2.9-2.84-2.93l-29.39-.47c-.1,0-.19,0-.28,0Z"/>
                </g>
                <g>
                  <path class="cls-20" d="m73.39,328.69c-5.49.42-11.14-1.08-15.86-4.65l-9.51-7.21c-4.96-3.76-8.16-9.22-9.01-15.39-.85-6.17.76-12.29,4.51-17.25,3.76-4.96,9.23-8.16,15.39-9.01,6.19-.84,12.29.76,17.25,4.52l9.51,7.21c4.96,3.76,8.16,9.22,9.01,15.39.85,6.16-.76,12.29-4.51,17.25t0,0c-4.19,5.52-10.37,8.65-16.79,9.14Zm-12.17-42.01c-.23.02-.47.04-.7.08-3.07.42-5.8,2.02-7.67,4.49-1.87,2.47-2.67,5.52-2.25,8.6.42,3.07,2.02,5.8,4.49,7.67l9.51,7.22c5.1,3.87,12.4,2.86,16.27-2.24h0c1.87-2.47,2.67-5.53,2.25-8.6-.42-3.07-2.02-5.8-4.49-7.67l-9.51-7.21c-2.28-1.73-5.06-2.54-7.9-2.33Zm24.31,29.34h.02s-.02,0-.02,0Z"/>
                  <path class="cls-20" d="m138.08,352.7c-2.55.2-5.18-.03-7.8-.73l-11.53-3.09c-6.01-1.61-11.04-5.46-14.15-10.85-3.11-5.39-3.94-11.67-2.33-17.68,1.61-6.01,5.46-11.04,10.85-14.15,5.39-3.11,11.67-3.94,17.68-2.33l11.53,3.09c12.41,3.32,19.81,16.12,16.49,28.53h0c-2.62,9.8-11.15,16.47-20.74,17.21Zm-14.21-37.91c-1.71.13-3.38.64-4.91,1.53-2.69,1.55-4.61,4.06-5.41,7.05-.8,3-.39,6.13,1.16,8.81,1.55,2.69,4.06,4.61,7.05,5.41l11.53,3.09c6.18,1.65,12.57-2.03,14.22-8.22h0c1.66-6.19-2.03-12.57-8.22-14.22l-11.53-3.09c-1.29-.35-2.61-.47-3.91-.37Z"/>
                  <path class="cls-20" d="m205.37,363.08c-1.38.11-2.79.09-4.21-.06l-11.88-1.23c-12.78-1.33-22.1-12.8-20.77-25.58.64-6.19,3.66-11.76,8.49-15.68,4.83-3.92,10.9-5.74,17.09-5.09l11.87,1.23c6.19.64,11.76,3.66,15.68,8.49,3.92,4.83,5.73,10.9,5.09,17.09h0c-1.18,11.35-10.37,19.98-21.37,20.83Zm-14.6-36.05c-2.33.18-4.55,1.06-6.4,2.56-2.41,1.95-3.91,4.73-4.23,7.82-.66,6.37,3.98,12.09,10.35,12.75l11.87,1.23c6.37.66,12.09-3.99,12.75-10.35.32-3.08-.58-6.11-2.54-8.52-1.96-2.41-4.73-3.91-7.82-4.23l-11.87-1.23c-.71-.07-1.42-.08-2.12-.03Zm30.16,14.62h.02s-.02,0-.02,0Z"/>
                </g>
                <g class="cls-8">
                  <path class="cls-2" d="m73.39,328.69c-5.49.42-11.14-1.08-15.86-4.65l-9.51-7.21c-4.96-3.76-8.16-9.22-9.01-15.39-.85-6.17.76-12.29,4.51-17.25,3.76-4.96,9.23-8.16,15.39-9.01,6.19-.84,12.29.76,17.25,4.52l9.51,7.21c4.96,3.76,8.16,9.22,9.01,15.39.85,6.16-.76,12.29-4.51,17.25t0,0c-4.19,5.52-10.37,8.65-16.79,9.14Zm-12.17-42.01c-.23.02-.47.04-.7.08-3.07.42-5.8,2.02-7.67,4.49-1.87,2.47-2.67,5.52-2.25,8.6.42,3.07,2.02,5.8,4.49,7.67l9.51,7.22c5.1,3.87,12.4,2.86,16.27-2.24h0c1.87-2.47,2.67-5.53,2.25-8.6-.42-3.07-2.02-5.8-4.49-7.67l-9.51-7.21c-2.28-1.73-5.06-2.54-7.9-2.33Zm24.31,29.34h.02s-.02,0-.02,0Z"/>
                  <path class="cls-2" d="m138.08,352.7c-2.55.2-5.18-.03-7.8-.73l-11.53-3.09c-6.01-1.61-11.04-5.46-14.15-10.85-3.11-5.39-3.94-11.67-2.33-17.68,1.61-6.01,5.46-11.04,10.85-14.15,5.39-3.11,11.67-3.94,17.68-2.33l11.53,3.09c12.41,3.32,19.81,16.12,16.49,28.53h0c-2.62,9.8-11.15,16.47-20.74,17.21Zm-14.21-37.91c-1.71.13-3.38.64-4.91,1.53-2.69,1.55-4.61,4.06-5.41,7.05-.8,3-.39,6.13,1.16,8.81,1.55,2.69,4.06,4.61,7.05,5.41l11.53,3.09c6.18,1.65,12.57-2.03,14.22-8.22h0c1.66-6.19-2.03-12.57-8.22-14.22l-11.53-3.09c-1.29-.35-2.61-.47-3.91-.37Z"/>
                  <path class="cls-2" d="m205.37,363.08c-1.38.11-2.79.09-4.21-.06l-11.88-1.23c-12.78-1.33-22.1-12.8-20.77-25.58.64-6.19,3.66-11.76,8.49-15.68,4.83-3.92,10.9-5.74,17.09-5.09l11.87,1.23c6.19.64,11.76,3.66,15.68,8.49,3.92,4.83,5.73,10.9,5.09,17.09h0c-1.18,11.35-10.37,19.98-21.37,20.83Zm-14.6-36.05c-2.33.18-4.55,1.06-6.4,2.56-2.41,1.95-3.91,4.73-4.23,7.82-.66,6.37,3.98,12.09,10.35,12.75l11.87,1.23c6.37.66,12.09-3.99,12.75-10.35.32-3.08-.58-6.11-2.54-8.52-1.96-2.41-4.73-3.91-7.82-4.23l-11.87-1.23c-.71-.07-1.42-.08-2.12-.03Zm30.16,14.62h.02s-.02,0-.02,0Z"/>
                </g>
              </g>
              <g>
                <g>
                  <path class="cls-20" d="m311.25,353.85c-3.48.27-6.91-.71-9.75-2.8-3.13-2.31-5.18-5.7-5.76-9.55-.58-3.85.37-7.69,2.68-10.83,2.31-3.13,5.7-5.18,9.55-5.76l29.06-4.4c7.95-1.23,15.39,4.29,16.59,12.23.58,3.85-.37,7.7-2.68,10.83-2.31,3.13-5.7,5.18-9.55,5.76l-29.06,4.4c-.36.06-.72.1-1.08.12Zm27.74-21.81c-.07,0-.14.01-.21.02l-29.06,4.4c-1.03.15-1.63.78-1.89,1.14-.26.36-.68,1.12-.53,2.14.16,1.03.78,1.63,1.14,1.89.36.26,1.11.69,2.14.53l29.06-4.4c1.03-.16,1.63-.78,1.89-1.14.27-.36.69-1.12.53-2.14h0c-.23-1.5-1.58-2.56-3.07-2.44Z"/>
                  <path class="cls-20" d="m372.83,334.57c-4.77.37-9.63-1.61-12.74-5.7-4.87-6.39-3.62-15.55,2.77-20.42l23.39-17.81c6.39-4.86,15.55-3.63,20.42,2.77,4.87,6.39,3.63,15.55-2.77,20.42l-23.39,17.81c-2.31,1.76-4.98,2.72-7.68,2.93Zm22.02-35.21c-.44.03-.99.18-1.52.58l-23.39,17.81c-1.27.97-1.51,2.78-.55,4.04.96,1.27,2.78,1.51,4.04.55l23.39-17.81c1.27-.97,1.51-2.78.55-4.04-.63-.83-1.47-1.05-1.91-1.11-.16-.02-.37-.04-.62-.02Z"/>
                  <path class="cls-20" d="m422.2,286.63c-3.35.26-6.8-.63-9.72-2.76-6.49-4.75-7.9-13.89-3.16-20.37l17.36-23.72c4.75-6.48,13.88-7.9,20.36-3.16h0c6.48,4.75,7.9,13.88,3.16,20.37l-17.36,23.72c-2.61,3.57-6.55,5.6-10.65,5.92Zm16.03-41.12c-.81.06-1.59.46-2.11,1.17l-17.36,23.72c-.94,1.28-.66,3.09.63,4.03,1.29.94,3.09.66,4.03-.63l17.36-23.72c.94-1.28.66-3.09-.63-4.03-.58-.42-1.26-.6-1.92-.55Z"/>
                </g>
                <g class="cls-13">
                  <path class="cls-2" d="m311.25,353.85c-3.48.27-6.91-.71-9.75-2.8-3.13-2.31-5.18-5.7-5.76-9.55-.58-3.85.37-7.69,2.68-10.83,2.31-3.13,5.7-5.18,9.55-5.76l29.06-4.4c7.95-1.23,15.39,4.29,16.59,12.23.58,3.85-.37,7.7-2.68,10.83-2.31,3.13-5.7,5.18-9.55,5.76l-29.06,4.4c-.36.06-.72.1-1.08.12Zm27.74-21.81c-.07,0-.14.01-.21.02l-29.06,4.4c-1.03.15-1.63.78-1.89,1.14-.26.36-.68,1.12-.53,2.14.16,1.03.78,1.63,1.14,1.89.36.26,1.11.69,2.14.53l29.06-4.4c1.03-.16,1.63-.78,1.89-1.14.27-.36.69-1.12.53-2.14h0c-.23-1.5-1.58-2.56-3.07-2.44Z"/>
                  <path class="cls-2" d="m372.83,334.57c-4.77.37-9.63-1.61-12.74-5.7-4.87-6.39-3.62-15.55,2.77-20.42l23.39-17.81c6.39-4.86,15.55-3.63,20.42,2.77,4.87,6.39,3.63,15.55-2.77,20.42l-23.39,17.81c-2.31,1.76-4.98,2.72-7.68,2.93Zm22.02-35.21c-.44.03-.99.18-1.52.58l-23.39,17.81c-1.27.97-1.51,2.78-.55,4.04.96,1.27,2.78,1.51,4.04.55l23.39-17.81c1.27-.97,1.51-2.78.55-4.04-.63-.83-1.47-1.05-1.91-1.11-.16-.02-.37-.04-.62-.02Z"/>
                  <path class="cls-2" d="m422.2,286.63c-3.35.26-6.8-.63-9.72-2.76-6.49-4.75-7.9-13.89-3.16-20.37l17.36-23.72c4.75-6.48,13.88-7.9,20.36-3.16h0c6.48,4.75,7.9,13.88,3.16,20.37l-17.36,23.72c-2.61,3.57-6.55,5.6-10.65,5.92Zm16.03-41.12c-.81.06-1.59.46-2.11,1.17l-17.36,23.72c-.94,1.28-.66,3.09.63,4.03,1.29.94,3.09.66,4.03-.63l17.36-23.72c.94-1.28.66-3.09-.63-4.03-.58-.42-1.26-.6-1.92-.55Z"/>
                </g>
                <g>
                  <path class="cls-20" d="m353.04,355.93c-3.08.24-6.2-.14-9.22-1.16-5.9-1.98-10.67-6.14-13.44-11.72-2.77-5.57-3.2-11.89-1.22-17.79,1.98-5.9,6.15-10.67,11.72-13.44l10.69-5.31c5.57-2.77,11.89-3.2,17.79-1.22,5.9,1.98,10.67,6.14,13.44,11.72h0c5.72,11.51,1,25.52-10.5,31.24l-10.69,5.31c-2.73,1.35-5.63,2.15-8.57,2.37Zm8.01-40.14c-1.47.11-2.91.51-4.27,1.19l-10.69,5.31c-2.78,1.38-4.85,3.76-5.84,6.7-.99,2.94-.77,6.09.61,8.87s3.76,4.85,6.7,5.84c2.94.99,6.09.77,8.87-.61l10.69-5.31c5.74-2.85,8.08-9.83,5.24-15.57h0c-1.38-2.78-3.76-4.85-6.7-5.84-1.5-.51-3.06-.7-4.6-.58Z"/>
                  <path class="cls-20" d="m405.24,314.45c-6.06.47-12.3-1.42-17.21-5.74-4.67-4.12-7.45-9.81-7.84-16.02-.39-6.21,1.66-12.2,5.78-16.87l7.9-8.96c8.5-9.64,23.25-10.56,32.89-2.07,4.67,4.12,7.45,9.81,7.84,16.02.39,6.21-1.66,12.2-5.78,16.87l-7.9,8.96c-4.17,4.73-9.84,7.36-15.68,7.81Zm5.2-43.75c-2.91.22-5.74,1.54-7.82,3.89l-7.9,8.96c-2.05,2.33-3.07,5.31-2.88,8.41.19,3.1,1.58,5.93,3.91,7.98,4.8,4.24,12.16,3.77,16.39-1.03l7.9-8.96c2.05-2.33,3.07-5.31,2.88-8.41-.19-3.1-1.58-5.93-3.91-7.98-2.45-2.16-5.56-3.09-8.58-2.86Z"/>
                </g>
                <g class="cls-8">
                  <path class="cls-2" d="m353.04,355.93c-3.08.24-6.2-.14-9.22-1.16-5.9-1.98-10.67-6.14-13.44-11.72-2.77-5.57-3.2-11.89-1.22-17.79,1.98-5.9,6.15-10.67,11.72-13.44l10.69-5.31c5.57-2.77,11.89-3.2,17.79-1.22,5.9,1.98,10.67,6.14,13.44,11.72h0c5.72,11.51,1,25.52-10.5,31.24l-10.69,5.31c-2.73,1.35-5.63,2.15-8.57,2.37Zm8.01-40.14c-1.47.11-2.91.51-4.27,1.19l-10.69,5.31c-2.78,1.38-4.85,3.76-5.84,6.7-.99,2.94-.77,6.09.61,8.87s3.76,4.85,6.7,5.84c2.94.99,6.09.77,8.87-.61l10.69-5.31c5.74-2.85,8.08-9.83,5.24-15.57h0c-1.38-2.78-3.76-4.85-6.7-5.84-1.5-.51-3.06-.7-4.6-.58Z"/>
                  <path class="cls-2" d="m405.24,314.45c-6.06.47-12.3-1.42-17.21-5.74-4.67-4.12-7.45-9.81-7.84-16.02-.39-6.21,1.66-12.2,5.78-16.87l7.9-8.96c8.5-9.64,23.25-10.56,32.89-2.07,4.67,4.12,7.45,9.81,7.84,16.02.39,6.21-1.66,12.2-5.78,16.87l-7.9,8.96c-4.17,4.73-9.84,7.36-15.68,7.81Zm5.2-43.75c-2.91.22-5.74,1.54-7.82,3.89l-7.9,8.96c-2.05,2.33-3.07,5.31-2.88,8.41.19,3.1,1.58,5.93,3.91,7.98,4.8,4.24,12.16,3.77,16.39-1.03l7.9-8.96c2.05-2.33,3.07-5.31,2.88-8.41-.19-3.1-1.58-5.93-3.91-7.98-2.45-2.16-5.56-3.09-8.58-2.86Z"/>
                </g>
              </g>
              <g>
                <path class="cls-20" d="m327.91,382.69l-14.55,1.12-3.45-44.66c-1.32-17.07-16.28-29.89-33.35-28.57-17.07,1.32-29.89,16.28-28.57,33.35l3.45,44.66-14.55,1.12-3.45-44.66c-1.94-25.1,16.9-47.09,42-49.03,25.1-1.94,47.09,16.9,49.03,42l3.45,44.66Z"/>
                <g class="cls-15">
                  <path class="cls-2" d="m327.91,382.69l-14.55,1.12-3.45-44.66c-1.32-17.07-16.28-29.89-33.35-28.57-17.07,1.32-29.89,16.28-28.57,33.35l3.45,44.66-14.55,1.12-3.45-44.66c-1.94-25.1,16.9-47.09,42-49.03,25.1-1.94,47.09,16.9,49.03,42l3.45,44.66Z"/>
                </g>
                <path class="cls-20" d="m342.32,370.14l5.64,73.07c.36,4.69-3.13,8.76-7.81,9.12l-107.45,8.3c-4.66.36-8.73-3.13-9.09-7.82l-5.64-73.07c-.36-4.69,3.13-8.76,7.79-9.12l107.45-8.3c4.69-.36,8.76,3.13,9.12,7.82Z"/>
                <path class="cls-3" d="m342.32,370.14l5.64,73.07c.36,4.69-3.13,8.76-7.81,9.12l-78.32,6.05c-4.66.36-8.76-3.13-9.12-7.82l-5.64-73.07c-.36-4.69,3.16-8.76,7.81-9.12l78.32-6.05c4.69-.36,8.76,3.13,9.12,7.82Z"/>
                <path class="cls-20" d="m310.39,400.14c-.7-9.01-7.34-15.84-14.85-15.26-7.51.58-13.03,8.35-12.33,17.36.54,7,4.7,12.64,10.04,14.55l.79,19.47,10.87-.84-3.1-18.95c5.48-2.42,9.15-8.92,8.57-16.33Z"/>
              </g>
              <g>
                <path class="cls-20" d="m437.14,263.57c-.28.02-.57.03-.87,0-6.21-.44-11.88-3.27-15.96-7.97-4.08-4.7-6.09-10.71-5.65-16.91l.84-11.91c.44-6.21,3.27-11.88,7.97-15.96,4.7-4.08,10.71-6.08,16.92-5.65,3.22.23,5.64,3.02,5.42,6.24-.23,3.22-3.01,5.66-6.24,5.42-3.09-.21-6.09.78-8.43,2.82-2.34,2.03-3.75,4.86-3.97,7.95l-.84,11.91c-.22,3.09.78,6.09,2.81,8.43,2.03,2.34,4.86,3.75,7.95,3.97,3.22.23,5.65,3.02,5.42,6.24-.21,2.93-2.53,5.2-5.37,5.41Z"/>
                <g class="cls-8">
                  <path class="cls-2" d="m437.14,263.57c-.28.02-.57.03-.87,0-6.21-.44-11.88-3.27-15.96-7.97-4.08-4.7-6.09-10.71-5.65-16.91l.84-11.91c.44-6.21,3.27-11.88,7.97-15.96,4.7-4.08,10.71-6.08,16.92-5.65,3.22.23,5.64,3.02,5.42,6.24-.23,3.22-3.01,5.66-6.24,5.42-3.09-.21-6.09.78-8.43,2.82-2.34,2.03-3.75,4.86-3.97,7.95l-.84,11.91c-.22,3.09.78,6.09,2.81,8.43,2.03,2.34,4.86,3.75,7.95,3.97,3.22.23,5.65,3.02,5.42,6.24-.21,2.93-2.53,5.2-5.37,5.41Z"/>
                </g>
                <g>
                  <path class="cls-20" d="m336.06,346.28c-2.31.18-4.59-1.03-5.69-3.23-2.77-5.57-3.2-11.89-1.22-17.79,1.98-5.9,6.15-10.67,11.72-13.44l10.69-5.31c5.57-2.77,11.89-3.2,17.79-1.22,5.9,1.98,10.67,6.14,13.44,11.72,1.44,2.89.26,6.4-2.63,7.83-2.89,1.44-6.4.26-7.83-2.63-1.38-2.78-3.76-4.85-6.7-5.84-2.94-.99-6.09-.78-8.87.61l-10.69,5.31c-2.78,1.38-4.85,3.76-5.84,6.7-.99,2.94-.77,6.09.61,8.87,1.44,2.89.26,6.4-2.63,7.83-.69.34-1.42.54-2.15.59Z"/>
                  <path class="cls-20" d="m392.35,310.15c-1.52.12-3.08-.35-4.32-1.44-4.67-4.12-7.45-9.81-7.84-16.02-.39-6.21,1.66-12.2,5.78-16.87l7.9-8.96c8.5-9.64,23.25-10.56,32.89-2.07,2.42,2.13,2.65,5.83.52,8.25-2.13,2.42-5.83,2.66-8.25.52-4.8-4.24-12.16-3.77-16.39,1.03l-7.9,8.96c-2.05,2.33-3.07,5.31-2.88,8.41.19,3.1,1.58,5.93,3.91,7.98,2.42,2.13,2.65,5.83.52,8.25-1.05,1.19-2.47,1.85-3.93,1.96Z"/>
                </g>
                <g class="cls-8">
                  <path class="cls-2" d="m336.06,346.28c-2.31.18-4.59-1.03-5.69-3.23-2.77-5.57-3.2-11.89-1.22-17.79,1.98-5.9,6.15-10.67,11.72-13.44l10.69-5.31c5.57-2.77,11.89-3.2,17.79-1.22,5.9,1.98,10.67,6.14,13.44,11.72,1.44,2.89.26,6.4-2.63,7.83-2.89,1.44-6.4.26-7.83-2.63-1.38-2.78-3.76-4.85-6.7-5.84-2.94-.99-6.09-.78-8.87.61l-10.69,5.31c-2.78,1.38-4.85,3.76-5.84,6.7-.99,2.94-.77,6.09.61,8.87,1.44,2.89.26,6.4-2.63,7.83-.69.34-1.42.54-2.15.59Z"/>
                  <path class="cls-2" d="m392.35,310.15c-1.52.12-3.08-.35-4.32-1.44-4.67-4.12-7.45-9.81-7.84-16.02-.39-6.21,1.66-12.2,5.78-16.87l7.9-8.96c8.5-9.64,23.25-10.56,32.89-2.07,2.42,2.13,2.65,5.83.52,8.25-2.13,2.42-5.83,2.66-8.25.52-4.8-4.24-12.16-3.77-16.39,1.03l-7.9,8.96c-2.05,2.33-3.07,5.31-2.88,8.41.19,3.1,1.58,5.93,3.91,7.98,2.42,2.13,2.65,5.83.52,8.25-1.05,1.19-2.47,1.85-3.93,1.96Z"/>
                </g>
                <g>
                  <path class="cls-20" d="m372.83,334.57c-4.77.37-9.63-1.61-12.74-5.7-1.95-2.57-1.46-6.23,1.11-8.19,2.57-1.96,6.23-1.46,8.19,1.11.63.83,1.47,1.05,1.91,1.11.44.05,1.31.06,2.14-.56l23.39-17.81c1.27-.97,1.51-2.78.55-4.04-1.95-2.57-1.46-6.23,1.11-8.19,2.57-1.96,6.23-1.46,8.19,1.11,4.87,6.39,3.63,15.55-2.77,20.42l-23.39,17.81c-2.31,1.76-4.98,2.72-7.68,2.93Z"/>
                  <path class="cls-20" d="m422.2,286.63c-3.35.26-6.8-.63-9.72-2.76-2.61-1.91-3.17-5.56-1.27-8.17,1.9-2.61,5.56-3.17,8.17-1.27,1.28.94,3.09.66,4.03-.62l17.36-23.72c.94-1.28.66-3.09-.63-4.03-2.61-1.91-3.17-5.56-1.26-8.17,1.91-2.6,5.57-3.17,8.17-1.26,6.48,4.75,7.9,13.88,3.16,20.36l-17.36,23.72c-2.61,3.57-6.55,5.6-10.65,5.92Z"/>
                  <path class="cls-20" d="m311.25,353.85c-3.48.27-6.91-.71-9.75-2.8-3.13-2.31-5.18-5.7-5.76-9.55-.48-3.19,1.71-6.17,4.9-6.65,3.19-.5,6.17,1.71,6.65,4.9.16,1.03.78,1.63,1.14,1.89.36.26,1.11.69,2.14.53l29.06-4.4c1.03-.16,1.63-.78,1.89-1.14.27-.36.69-1.12.53-2.14-.48-3.19,1.71-6.17,4.9-6.65,3.2-.49,6.17,1.71,6.65,4.9.58,3.85-.37,7.7-2.68,10.83-2.31,3.13-5.7,5.18-9.55,5.76l-29.06,4.4c-.36.06-.72.1-1.08.12Z"/>
                </g>
                <g class="cls-6">
                  <path class="cls-2" d="m372.83,334.57c-4.77.37-9.63-1.61-12.74-5.7-1.95-2.57-1.46-6.23,1.11-8.19,2.57-1.96,6.23-1.46,8.19,1.11.63.83,1.47,1.05,1.91,1.11.44.05,1.31.06,2.14-.56l23.39-17.81c1.27-.97,1.51-2.78.55-4.04-1.95-2.57-1.46-6.23,1.11-8.19,2.57-1.96,6.23-1.46,8.19,1.11,4.87,6.39,3.63,15.55-2.77,20.42l-23.39,17.81c-2.31,1.76-4.98,2.72-7.68,2.93Z"/>
                  <path class="cls-2" d="m422.2,286.63c-3.35.26-6.8-.63-9.72-2.76-2.61-1.91-3.17-5.56-1.27-8.17,1.9-2.61,5.56-3.17,8.17-1.27,1.28.94,3.09.66,4.03-.62l17.36-23.72c.94-1.28.66-3.09-.63-4.03-2.61-1.91-3.17-5.56-1.26-8.17,1.91-2.6,5.57-3.17,8.17-1.26,6.48,4.75,7.9,13.88,3.16,20.36l-17.36,23.72c-2.61,3.57-6.55,5.6-10.65,5.92Z"/>
                  <path class="cls-2" d="m311.25,353.85c-3.48.27-6.91-.71-9.75-2.8-3.13-2.31-5.18-5.7-5.76-9.55-.48-3.19,1.71-6.17,4.9-6.65,3.19-.5,6.17,1.71,6.65,4.9.16,1.03.78,1.63,1.14,1.89.36.26,1.11.69,2.14.53l29.06-4.4c1.03-.16,1.63-.78,1.89-1.14.27-.36.69-1.12.53-2.14-.48-3.19,1.71-6.17,4.9-6.65,3.2-.49,6.17,1.71,6.65,4.9.58,3.85-.37,7.7-2.68,10.83-2.31,3.13-5.7,5.18-9.55,5.76l-29.06,4.4c-.36.06-.72.1-1.08.12Z"/>
                </g>
              </g>
              <path class="cls-20" d="m445.64,224.44c-.99.08-2.01-.1-2.97-.56-2.91-1.39-4.14-4.88-2.75-7.8,1.34-2.8,1.51-5.95.48-8.87-1.03-2.93-3.14-5.28-5.94-6.61-2.91-1.39-4.14-4.88-2.75-7.79,1.39-2.91,4.89-4.14,7.79-2.75,5.61,2.69,9.85,7.4,11.92,13.27,2.07,5.87,1.73,12.19-.96,17.81-.94,1.95-2.81,3.15-4.83,3.3Z"/>
              <g class="cls-6">
                <path class="cls-2" d="m445.64,224.44c-.99.08-2.01-.1-2.97-.56-2.91-1.39-4.14-4.88-2.75-7.8,1.34-2.8,1.51-5.95.48-8.87-1.03-2.93-3.14-5.28-5.94-6.61-2.91-1.39-4.14-4.88-2.75-7.79,1.39-2.91,4.89-4.14,7.79-2.75,5.61,2.69,9.85,7.4,11.92,13.27,2.07,5.87,1.73,12.19-.96,17.81-.94,1.95-2.81,3.15-4.83,3.3Z"/>
              </g>
              <g>
                <g>
                  <path class="cls-20" d="m73.39,328.69c-5.49.42-11.14-1.08-15.86-4.65l-9.51-7.21c-4.96-3.76-8.16-9.22-9.01-15.39-.85-6.17.76-12.29,4.51-17.25,1.95-2.57,5.61-3.08,8.19-1.12,2.57,1.95,3.08,5.61,1.13,8.19-1.87,2.47-2.67,5.52-2.25,8.6.42,3.07,2.02,5.8,4.49,7.67l9.51,7.22c5.1,3.87,12.4,2.86,16.27-2.24,1.95-2.57,5.62-3.08,8.19-1.13,2.57,1.95,3.08,5.61,1.12,8.19-4.19,5.52-10.37,8.65-16.79,9.14Z"/>
                  <path class="cls-20" d="m138.08,352.7c-2.55.2-5.18-.03-7.8-.73l-11.53-3.09c-6.01-1.61-11.04-5.46-14.15-10.85-3.11-5.39-3.94-11.67-2.33-17.68.83-3.12,4.04-4.96,7.16-4.13,3.12.83,4.97,4.04,4.13,7.16-.8,3-.39,6.13,1.16,8.81,1.55,2.69,4.06,4.61,7.05,5.41l11.53,3.09c6.18,1.65,12.57-2.03,14.22-8.22.83-3.12,4.04-4.97,7.16-4.13,3.12.83,4.97,4.04,4.13,7.16-2.62,9.8-11.15,16.47-20.74,17.21Z"/>
                  <path class="cls-20" d="m205.37,363.08c-1.38.11-2.79.09-4.21-.06l-11.88-1.23c-12.78-1.33-22.1-12.8-20.77-25.58.33-3.21,3.2-5.55,6.42-5.21,3.21.33,5.54,3.21,5.21,6.41-.66,6.37,3.98,12.09,10.35,12.75l11.87,1.23c6.37.66,12.09-3.99,12.75-10.35.33-3.21,3.2-5.55,6.42-5.21,3.21.33,5.54,3.21,5.21,6.42-1.18,11.35-10.37,19.98-21.37,20.83Z"/>
                </g>
                <g>
                  <path class="cls-20" d="m73.39,328.69c-5.49.42-11.14-1.08-15.86-4.65l-9.51-7.21c-4.96-3.76-8.16-9.22-9.01-15.39-.85-6.17.76-12.29,4.51-17.25,1.95-2.57,5.61-3.08,8.19-1.12,2.57,1.95,3.08,5.61,1.13,8.19-1.87,2.47-2.67,5.52-2.25,8.6.42,3.07,2.02,5.8,4.49,7.67l9.51,7.22c5.1,3.87,12.4,2.86,16.27-2.24,1.95-2.57,5.62-3.08,8.19-1.13,2.57,1.95,3.08,5.61,1.12,8.19-4.19,5.52-10.37,8.65-16.79,9.14Z"/>
                  <path class="cls-20" d="m138.08,352.7c-2.55.2-5.18-.03-7.8-.73l-11.53-3.09c-6.01-1.61-11.04-5.46-14.15-10.85-3.11-5.39-3.94-11.67-2.33-17.68.83-3.12,4.04-4.96,7.16-4.13,3.12.83,4.97,4.04,4.13,7.16-.8,3-.39,6.13,1.16,8.81,1.55,2.69,4.06,4.61,7.05,5.41l11.53,3.09c6.18,1.65,12.57-2.03,14.22-8.22.83-3.12,4.04-4.97,7.16-4.13,3.12.83,4.97,4.04,4.13,7.16-2.62,9.8-11.15,16.47-20.74,17.21Z"/>
                  <path class="cls-20" d="m205.37,363.08c-1.38.11-2.79.09-4.21-.06l-11.88-1.23c-12.78-1.33-22.1-12.8-20.77-25.58.33-3.21,3.2-5.55,6.42-5.21,3.21.33,5.54,3.21,5.21,6.41-.66,6.37,3.98,12.09,10.35,12.75l11.87,1.23c6.37.66,12.09-3.99,12.75-10.35.33-3.21,3.2-5.55,6.42-5.21,3.21.33,5.54,3.21,5.21,6.42-1.18,11.35-10.37,19.98-21.37,20.83Z"/>
                </g>
                <g class="cls-8">
                  <path class="cls-2" d="m73.39,328.69c-5.49.42-11.14-1.08-15.86-4.65l-9.51-7.21c-4.96-3.76-8.16-9.22-9.01-15.39-.85-6.17.76-12.29,4.51-17.25,1.95-2.57,5.61-3.08,8.19-1.12,2.57,1.95,3.08,5.61,1.13,8.19-1.87,2.47-2.67,5.52-2.25,8.6.42,3.07,2.02,5.8,4.49,7.67l9.51,7.22c5.1,3.87,12.4,2.86,16.27-2.24,1.95-2.57,5.62-3.08,8.19-1.13,2.57,1.95,3.08,5.61,1.12,8.19-4.19,5.52-10.37,8.65-16.79,9.14Z"/>
                  <path class="cls-2" d="m138.08,352.7c-2.55.2-5.18-.03-7.8-.73l-11.53-3.09c-6.01-1.61-11.04-5.46-14.15-10.85-3.11-5.39-3.94-11.67-2.33-17.68.83-3.12,4.04-4.96,7.16-4.13,3.12.83,4.97,4.04,4.13,7.16-.8,3-.39,6.13,1.16,8.81,1.55,2.69,4.06,4.61,7.05,5.41l11.53,3.09c6.18,1.65,12.57-2.03,14.22-8.22.83-3.12,4.04-4.97,7.16-4.13,3.12.83,4.97,4.04,4.13,7.16-2.62,9.8-11.15,16.47-20.74,17.21Z"/>
                  <path class="cls-2" d="m205.37,363.08c-1.38.11-2.79.09-4.21-.06l-11.88-1.23c-12.78-1.33-22.1-12.8-20.77-25.58.33-3.21,3.2-5.55,6.42-5.21,3.21.33,5.54,3.21,5.21,6.41-.66,6.37,3.98,12.09,10.35,12.75l11.87,1.23c6.37.66,12.09-3.99,12.75-10.35.33-3.21,3.2-5.55,6.42-5.21,3.21.33,5.54,3.21,5.21,6.42-1.18,11.35-10.37,19.98-21.37,20.83Z"/>
                </g>
                <g>
                  <path class="cls-20" d="m57.86,301.63c-1.99.15-4.01-.72-5.24-2.48-1.85-2.64-1.21-6.29,1.43-8.14.85-.6,1.11-1.42,1.18-1.86.08-.44.12-1.3-.48-2.15l-16.87-24.07c-.6-.85-1.42-1.11-1.86-1.19-.44-.08-1.3-.12-2.15.48-2.64,1.85-6.29,1.21-8.14-1.43-1.85-2.64-1.21-6.29,1.43-8.14,3.19-2.24,7.05-3.09,10.89-2.42,3.83.68,7.17,2.8,9.41,5.99l16.87,24.07c2.23,3.19,3.09,7.05,2.42,10.89-.68,3.83-2.8,7.18-5.99,9.41-.89.62-1.89.96-2.9,1.04Z"/>
                  <path class="cls-20" d="m119.46,333.48c-1.01.08-2.06-.11-3.03-.59-2.89-1.43-4.08-4.93-2.65-7.83.71-1.43.12-3.16-1.31-3.87l-26.35-13.02c-.93-.46-1.78-.29-2.2-.15-.42.14-1.2.52-1.66,1.45-1.43,2.89-4.94,4.08-7.83,2.65-2.89-1.43-4.08-4.93-2.65-7.83,1.72-3.49,4.7-6.1,8.39-7.35,3.69-1.25,7.64-.98,11.13.74l26.35,13.02c7.2,3.56,10.17,12.32,6.61,19.52-.95,1.92-2.81,3.09-4.79,3.24Z"/>
                  <path class="cls-20" d="m187.77,345.97c-.47.04-.96.01-1.45-.07-3.18-.55-5.32-3.57-4.77-6.75.18-1.02-.23-1.79-.49-2.15-.26-.36-.84-1-1.87-1.18l-28.97-4.99c-1.03-.17-1.79.23-2.15.49-.36.26-1,.84-1.18,1.86l-11.52-1.98c.66-3.84,2.78-7.19,5.96-9.43,3.18-2.25,7.04-3.12,10.88-2.46l28.97,4.99c3.84.66,7.19,2.78,9.43,5.96,2.25,3.18,3.12,7.04,2.46,10.88-.46,2.69-2.7,4.63-5.3,4.84Z"/>
                  <path class="cls-20" d="m255.69,347.83c-.18.01-.37.02-.55.02-3.23-.05-5.8-2.71-5.75-5.94.03-1.59-1.25-2.9-2.84-2.93l-29.39-.47c-1.04,0-1.73.5-2.05.81-.32.31-.86.99-.88,2.02-.05,3.23-2.71,5.81-5.94,5.75-3.23-.05-5.8-2.71-5.75-5.93.06-3.89,1.64-7.53,4.43-10.24,2.8-2.71,6.48-4.17,10.37-4.1l29.39.47c8.04.13,14.47,6.77,14.34,14.8-.05,3.04-2.41,5.5-5.39,5.73Z"/>
                </g>
                <g class="cls-6">
                  <path class="cls-2" d="m57.86,301.63c-1.99.15-4.01-.72-5.24-2.48-1.85-2.64-1.21-6.29,1.43-8.14.85-.6,1.11-1.42,1.18-1.86.08-.44.12-1.3-.48-2.15l-16.87-24.07c-.6-.85-1.42-1.11-1.86-1.19-.44-.08-1.3-.12-2.15.48-2.64,1.85-6.29,1.21-8.14-1.43-1.85-2.64-1.21-6.29,1.43-8.14,3.19-2.24,7.05-3.09,10.89-2.42,3.83.68,7.17,2.8,9.41,5.99l16.87,24.07c2.23,3.19,3.09,7.05,2.42,10.89-.68,3.83-2.8,7.18-5.99,9.41-.89.62-1.89.96-2.9,1.04Z"/>
                  <path class="cls-2" d="m119.46,333.48c-1.01.08-2.06-.11-3.03-.59-2.89-1.43-4.08-4.93-2.65-7.83.71-1.43.12-3.16-1.31-3.87l-26.35-13.02c-.93-.46-1.78-.29-2.2-.15-.42.14-1.2.52-1.66,1.45-1.43,2.89-4.94,4.08-7.83,2.65-2.89-1.43-4.08-4.93-2.65-7.83,1.72-3.49,4.7-6.1,8.39-7.35,3.69-1.25,7.64-.98,11.13.74l26.35,13.02c7.2,3.56,10.17,12.32,6.61,19.52-.95,1.92-2.81,3.09-4.79,3.24Z"/>
                  <path class="cls-2" d="m187.77,345.97c-.47.04-.96.01-1.45-.07-3.18-.55-5.32-3.57-4.77-6.75.18-1.02-.23-1.79-.49-2.15-.26-.36-.84-1-1.87-1.18l-28.97-4.99c-1.03-.17-1.79.23-2.15.49-.36.26-1,.84-1.18,1.86l-11.52-1.98c.66-3.84,2.78-7.19,5.96-9.43,3.18-2.25,7.04-3.12,10.88-2.46l28.97,4.99c3.84.66,7.19,2.78,9.43,5.96,2.25,3.18,3.12,7.04,2.46,10.88-.46,2.69-2.7,4.63-5.3,4.84Z"/>
                  <path class="cls-2" d="m255.69,347.83c-.18.01-.37.02-.55.02-3.23-.05-5.8-2.71-5.75-5.94.03-1.59-1.25-2.9-2.84-2.93l-29.39-.47c-1.04,0-1.73.5-2.05.81-.32.31-.86.99-.88,2.02-.05,3.23-2.71,5.81-5.94,5.75-3.23-.05-5.8-2.71-5.75-5.93.06-3.89,1.64-7.53,4.43-10.24,2.8-2.71,6.48-4.17,10.37-4.1l29.39.47c8.04.13,14.47,6.77,14.34,14.8-.05,3.04-2.41,5.5-5.39,5.73Z"/>
                </g>
                <path class="cls-20" d="m34.68,272.34c-1.38.11-2.79-.27-3.98-1.17-4.96-3.76-8.16-9.23-9.01-15.39-.85-6.17.76-12.29,4.52-17.26,1.95-2.57,5.61-3.08,8.19-1.12,2.57,1.95,3.08,5.61,1.13,8.19-1.88,2.47-2.67,5.53-2.25,8.6.42,3.07,2.02,5.8,4.49,7.67,2.57,1.95,3.08,5.61,1.13,8.19-1.05,1.39-2.6,2.17-4.21,2.3Z"/>
                <g class="cls-8">
                  <path class="cls-2" d="m34.68,272.34c-1.38.11-2.79-.27-3.98-1.17-4.96-3.76-8.16-9.23-9.01-15.39-.85-6.17.76-12.29,4.52-17.26,1.95-2.57,5.61-3.08,8.19-1.12,2.57,1.95,3.08,5.61,1.13,8.19-1.88,2.47-2.67,5.53-2.25,8.6.42,3.07,2.02,5.8,4.49,7.67,2.57,1.95,3.08,5.61,1.13,8.19-1.05,1.39-2.6,2.17-4.21,2.3Z"/>
                </g>
              </g>
              <g class="cls-7">
                <circle class="cls-18" cx="119.83" cy="90.56" r="38.8"/>
                <circle class="cls-21" cx="118.9" cy="89.54" r="38.8"/>
                <g>
                  <path class="cls-16" d="m132.68,81.13c-.48-4.71-4.7-8.15-9.41-7.67-2.37.24-4.31,1.82-5.64,3.62-1.66-1.5-3.88-2.65-6.25-2.41-4.71.48-8.15,4.7-7.67,9.41.25,2.44,1.54,4.66,3.54,6.1l10.36,8.45,4.42-.45-12.84-10.47-.04-.03-.04-.03c-1.29-.91-2.12-2.33-2.27-3.89-.3-2.99,1.88-5.66,4.87-5.97,1.91-.19,3.66,1.41,4.95,2.83l1.51,1.6,1.15-1.87c1.03-1.6,2.37-3.58,4.28-3.77,2.99-.3,5.66,1.88,5.97,4.87.16,1.56-.37,3.12-1.45,4.27l-.04.04-6.5,7.96,2.42,1.97,1.86-2.27,4.58-5.59c1.67-1.81,2.49-4.24,2.24-6.69Z"/>
                  <path class="cls-16" d="m141.38,76.37c-.82-1.55-1.93-2.9-3.3-4.02l-12.67-10.33c-1.37-1.12-2.92-1.93-4.6-2.42-1.63-.47-3.31-.63-5-.46-1.69.17-3.31.66-4.81,1.45-1.55.82-2.9,1.93-4.02,3.3l-10.33,12.67c-1.12,1.37-1.93,2.92-2.42,4.6-.47,1.63-.63,3.31-.46,5,.17,1.69.66,3.31,1.45,4.81.82,1.55,1.93,2.9,3.3,4.02l6.08,4.96,4.59-.47-8.61-7.03c-4.2-3.43-4.83-9.64-1.4-13.84l10.33-12.67c1.71-2.1,4.12-3.31,6.63-3.56,2.51-.25,5.11.45,7.21,2.16l12.67,10.33c4.2,3.43,4.83,9.64,1.4,13.84l-7.03,8.61,4.59-.47,4.96-6.08c1.12-1.37,1.93-2.92,2.43-4.6.47-1.63.63-3.31.46-5s-.66-3.31-1.45-4.81Z"/>
                  <g>
                    <path class="cls-2" d="m105.17,116.46s-.07-.08-.09-.13l-.46-1.74s-.07-.07-.11-.07l-4.38.44s-.07.03-.09.09l-.53,1.84c-.05.14-.15.22-.28.23l-2.93.3c-.08,0-.14,0-.18-.05-.04-.04-.04-.11-.01-.21l4.39-13.98c.05-.14.14-.21.26-.23l3.63-.37c.12-.01.2.05.26.17l3.84,13.15v.08c.02.13-.04.21-.19.22l-2.95.3c-.07,0-.12,0-.16-.04Zm-4.22-4.14l2.85-.29c.07,0,.1-.05.09-.13l-1.35-5.01c-.02-.05-.04-.07-.07-.06-.03,0-.04.03-.05.08l-1.54,5.3c-.03.08,0,.12.07.11Z"/>
                    <path class="cls-2" d="m119.09,101.09l2.72-.28c.07,0,.12.01.17.05.04.04.06.1.06.16l-.29,13.57c0,.07-.03.13-.07.18-.04.05-.1.08-.16.09l-2.74.28c-.07,0-.12-.01-.17-.05-.04-.04-.06-.1-.06-.16l.16-8.07c0-.05,0-.08-.03-.08s-.05.03-.07.07l-1.72,2.94c-.04.11-.13.17-.26.19l-1.37.14c-.12.01-.21-.03-.27-.13l-1.61-2.62s-.04-.06-.07-.05-.04.03-.05.09l-.16,8.09c0,.07-.03.13-.07.18-.04.05-.1.08-.16.09l-2.74.28c-.07,0-.12-.01-.17-.05-.04-.04-.06-.1-.06-.16l.29-13.57c0-.07.01-.12.06-.18.05-.05.11-.08.17-.09l2.7-.27c.13-.01.22.03.27.13l2.58,4.1c.05.08.09.07.12-.01l2.73-4.64c.04-.11.13-.17.26-.19Z"/>
                    <path class="cls-2" d="m130.98,99.95c.04-.05.1-.08.16-.09l2.74-.28c.07,0,.12.01.17.05.04.04.06.1.06.16l-.29,13.57c0,.07-.03.13-.07.18-.04.05-.1.08-.16.09l-2.74.28c-.07,0-.12-.01-.17-.05-.04-.04-.06-.1-.06-.16l.1-5.34c.02-.07-.01-.1-.09-.09l-3.59.36c-.05,0-.09.04-.11.11l-.1,5.34c0,.07-.03.13-.07.18-.04.05-.1.08-.16.09l-2.74.28c-.07,0-.12-.01-.17-.05-.04-.04-.06-.1-.06-.16l.29-13.57c0-.07.01-.12.06-.18.05-.05.11-.08.17-.09l2.72-.28c.15-.01.23.06.24.22l-.12,5.18c0,.07.04.1.09.09l3.61-.37s.05-.01.07-.04c.02-.02.03-.05.02-.07l.12-5.18c0-.07.03-.13.07-.18Z"/>
                    <path class="cls-2" d="m137.01,112.29c-.9-.68-1.41-1.67-1.54-2.97-.03-.32-.04-.56-.03-.74l.1-4.34c.02-.99.25-1.88.69-2.68.44-.8,1.05-1.45,1.85-1.94.79-.49,1.69-.79,2.71-.9,1.43-.14,2.59.1,3.49.74.9.64,1.41,1.57,1.54,2.8.01.13.02.36.03.68,0,.05-.02.11-.06.16-.05.05-.11.08-.17.09l-2.74.46c-.15.01-.22-.05-.22-.2,0-.08,0-.19-.01-.34-.05-.53-.25-.93-.59-1.2-.34-.27-.78-.38-1.3-.33-.58.06-1.06.3-1.43.72-.37.42-.57.94-.58,1.55l-.1,4.56c0,.07,0,.17.01.3.05.53.25.93.6,1.21.35.28.79.39,1.32.34.59-.06,1.07-.3,1.44-.71.37-.41.55-.92.55-1.54.01-.15.09-.23.24-.24l2.73-.14c.15-.01.22.04.24.18-.02.95-.26,1.81-.7,2.57-.44.77-1.06,1.39-1.84,1.86-.79.47-1.69.76-2.73.87-1.41.14-2.57-.13-3.47-.81Z"/>
                  </g>
                </g>
              </g>
            </g>
            <g>
              <g>
                <circle class="cls-11" cx="306.78" cy="520.02" r="42.69" transform="translate(-46.46 30.37) rotate(-5.27)"/>
                <circle class="cls-4" cx="303.68" cy="514.54" r="42.69"/>
              </g>
              <g>
                <path class="cls-5" d="m258.49,534.01c1.23-.49,1.37-1.35,1.02-2.24-.24-.6-.56-1.03-1.11-1.38l1.01-.4c.43.36.77.84,1.02,1.47.69,1.75.1,2.98-1.52,3.62l-.5.2c-1.62.64-2.89.14-3.58-1.61-.25-.63-.33-1.22-.26-1.77l1.01-.4c-.16.62-.1,1.16.13,1.76.35.88,1.03,1.43,2.27.94l.5-.2Z"/>
                <path class="cls-5" d="m251.25,529.98l6.59-1.94c.3-.09.37-.24.29-.5-.06-.2-.15-.42-.26-.62l.92-.27c.11.23.24.54.33.85.24.82,0,1.37-.92,1.64l-6.62,1.95-.33-1.11Z"/>
                <path class="cls-5" d="m251.36,527.52l-.17.04c-.37.08-.58-.12-.68-.53-.09-.4.01-.69.38-.77l.17-.04c.38-.09.59.13.68.53.09.41,0,.69-.38.77Zm1.57-.45l-.26-1.13,5.61-1.27.26,1.13-5.61,1.27Z"/>
                <path class="cls-5" d="m259.67,518.16l.15,1.15-2.62.34c.3.34.54.84.61,1.43.22,1.69-.65,2.53-2.41,2.76l-.54.07c-1.76.23-2.81-.38-3.06-2.3-.12-.94.03-1.72.41-2.47l7.46-.97Zm-4.41,4.53c1.11-.15,1.7-.58,1.55-1.66-.07-.53-.29-.96-.6-1.26l-3.31.43c-.15.39-.2.81-.14,1.24.15,1.18.83,1.46,1.94,1.32l.55-.07Z"/>
                <path class="cls-5" d="m251.51,513.78v-1.16s5.17-.01,5.17-.01c.44.69.73,1.61.73,2.51,0,1.76-.78,2.41-2.41,2.42h-3.48s0-1.15,0-1.15h3.38c1.08,0,1.53-.4,1.53-1.41,0-.42-.09-.82-.3-1.21h-4.61Z"/>
                <path class="cls-5" d="m255.16,510.28c1.11.05,1.59-.6,1.71-1.59.07-.58,0-1.16-.3-1.82l1.06.13c.21.6.26,1.21.19,1.81-.24,1.96-1.35,2.79-3.07,2.57l-.55-.07c-1.72-.21-2.59-1.28-2.38-3.03.21-1.69,1.26-2.25,2.3-2.12,1.09.13,1.46.8,1.33,1.83l-.28,2.27Zm-.91-.11l.25-2.01c.06-.49-.05-.77-.52-.83-.61-.08-1.11.28-1.21,1.09-.11.92.34,1.59,1.49,1.74Z"/>
                <path class="cls-5" d="m256.96,502.86c-1.16-.36-1.55-1.16-1.09-2.6.19-.6.51-1.15.85-1.51l-.3-.08c-.92-.25-1.41-.04-1.75,1.04-.19.6-.2,1.29,0,1.88l-1.03-.32c-.1-.59-.08-1.25.17-2.04.51-1.63,1.48-2.13,2.92-1.68l2.9.91c.23.84.17,1.78-.11,2.68-.55,1.75-1.38,2.1-2.55,1.74Zm1.78-3.48l-1.24-.39c-.31.33-.54.8-.68,1.25-.3.94-.12,1.34.49,1.53.6.19,1.03-.06,1.31-.96.15-.49.2-1.01.12-1.43Z"/>
                <path class="cls-5" d="m264.72,494.17l-.48,1.05-2.4-1.1c.08.45,0,.99-.24,1.54-.71,1.55-1.89,1.8-3.5,1.06l-.5-.23c-1.62-.74-2.17-1.82-1.37-3.57.39-.86.94-1.44,1.66-1.88l6.84,3.13Zm-6.14,1.5c1.02.47,1.74.41,2.2-.58.22-.49.26-.97.16-1.38l-3.03-1.39c-.33.25-.6.58-.78.98-.5,1.08-.07,1.68.95,2.15l.51.23Z"/>
                <path class="cls-5" d="m260.15,486.11l.61-.98,4.38,2.74c0,.81-.24,1.75-.72,2.51-.93,1.49-1.95,1.63-3.33.77l-2.95-1.84.61-.98,2.87,1.79c.91.57,1.51.48,2.04-.38.22-.36.36-.75.39-1.19l-3.91-2.45Z"/>
                <path class="cls-5" d="m260.56,482.7l-.14-.11c-.3-.23-.28-.53-.03-.86.25-.33.54-.43.84-.2l.14.11c.31.24.28.53.03.86-.26.33-.53.43-.84.2Zm1.35.92l.7-.92,4.57,3.5-.7.92-4.57-3.5Z"/>
                <path class="cls-5" d="m266.21,479.36c.18-.82.55-1.53,1.23-2.18,1.4-1.35,2.6-1.16,3.83.12l.38.39c1.23,1.28,1.38,2.48.15,3.66-.43.42-.93.66-1.38.73l1.83,1.91-.83.8-5.21-5.43Zm4.22-1.26c-.78-.81-1.47-1.02-2.34-.19-.31.3-.54.66-.67,1.05l2.31,2.41c.43-.04.88-.24,1.25-.6.79-.75.6-1.46-.17-2.27l-.38-.4Z"/>
                <path class="cls-5" d="m272.88,477.78c-.74-.96-.59-1.84.61-2.76.5-.38,1.09-.65,1.57-.75l-.2-.24c-.61-.74-1.13-.84-2.02-.16-.5.38-.9.94-1.09,1.53l-.65-.86c.26-.54.65-1.07,1.31-1.58,1.36-1.04,2.44-.88,3.35.31l1.85,2.42c-.3.82-.88,1.55-1.63,2.13-1.46,1.11-2.34.92-3.08-.05Zm3.46-1.82l-.79-1.03c-.45.09-.9.34-1.28.63-.79.6-.87,1.02-.48,1.53.38.5.88.55,1.63-.03.41-.31.75-.71.92-1.1Z"/>
                <path class="cls-5" d="m280.31,469.74c-.7-.01-1.31.12-1.89.46-.35.21-.68.51-.9.87l2.32,3.98-1,.58-2.6-4.46c.39-.72,1.02-1.43,1.8-1.88.59-.34,1.14-.5,1.72-.5l.55.95Z"/>
                <path class="cls-5" d="m281.89,471.81c-.49-1.11-.15-1.93,1.23-2.54.58-.26,1.21-.38,1.7-.37l-.14-.28c-.42-.86-.91-1.08-1.93-.63-.58.26-1.1.71-1.42,1.24l-.44-.99c.37-.47.88-.89,1.64-1.23,1.56-.7,2.58-.29,3.19,1.08l1.24,2.78c-.48.73-1.22,1.31-2.08,1.69-1.68.74-2.5.35-2.99-.76Zm3.79-.97l-.53-1.19c-.46-.02-.96.12-1.39.31-.9.4-1.08.8-.82,1.38.26.58.73.73,1.59.35.47-.21.89-.52,1.15-.85Z"/>
                <path class="cls-5" d="m293.76,469.5l-1.77.43-3.13-5.17,1.18-.28,2.53,4.31.17-.04.29-4.99,1.17-.28-.43,6.03Z"/>
                <path class="cls-5" d="m296.59,466.61c.22,1.09.96,1.4,1.95,1.28.58-.07,1.13-.28,1.69-.73l.13,1.06c-.53.34-1.11.55-1.72.62-1.96.23-3.03-.65-3.23-2.37l-.07-.55c-.2-1.72.63-2.83,2.37-3.03,1.69-.2,2.49.69,2.61,1.73.13,1.09-.42,1.61-1.46,1.73l-2.27.27Zm-.11-.92l2.01-.24c.49-.06.73-.23.68-.71-.07-.61-.53-1.01-1.35-.91-.92.11-1.46.71-1.33,1.86Z"/>
                <path class="cls-5" d="m305.93,464.06c-.6-.36-1.19-.55-1.87-.55-.41,0-.84.1-1.21.3l.02,4.61h-1.16s-.02-5.16-.02-5.16c.7-.42,1.6-.73,2.5-.73.68,0,1.23.14,1.73.43v1.1Z"/>
                <path class="cls-5" d="m309.24,466.88c.2-1.19.94-1.69,2.43-1.44.62.1,1.21.35,1.62.63l.04-.31c.12-.95-.16-1.4-1.27-1.59-.62-.1-1.3-.02-1.87.25l.18-1.06c.57-.19,1.23-.26,2.05-.12,1.69.28,2.32,1.18,2.07,2.65l-.5,3c-.8.34-1.74.42-2.67.26-1.81-.3-2.28-1.08-2.08-2.28Zm3.7,1.28l.21-1.28c-.37-.27-.86-.43-1.34-.5-.98-.16-1.34.07-1.45.69-.1.62.2,1.01,1.13,1.17.5.08,1.03.06,1.43-.08Z"/>
                <path class="cls-5" d="m317.18,461.92l1.11.33-.76,2.53c.44-.14.98-.15,1.56.03,1.63.49,2.04,1.62,1.53,3.32l-.16.52c-.51,1.7-1.49,2.41-3.35,1.85-.9-.27-1.56-.73-2.09-1.38l2.16-7.21Zm2.34,5.87c.32-1.07.16-1.78-.88-2.1-.5-.15-.99-.12-1.39.04l-.96,3.19c.29.3.66.51,1.07.63,1.15.34,1.67-.16,1.99-1.24l.16-.53Z"/>
                <path class="cls-5" d="m326.17,469.18c-.41-.57-.87-.98-1.49-1.25-.38-.16-.81-.24-1.23-.2l-1.83,4.23-1.06-.46,2.05-4.75c.81-.11,1.76-.03,2.58.33.62.27,1.08.62,1.42,1.08l-.44,1.01Z"/>
                <path class="cls-5" d="m327.87,468.53l1.02.54-2.71,5.08-1.02-.54,2.71-5.08Zm.69-1.48l.08-.16c.18-.33.47-.37.84-.17.36.19.51.46.33.79l-.08.16c-.18.34-.48.36-.84.17-.37-.2-.51-.45-.33-.79Z"/>
                <path class="cls-5" d="m333.34,473.44c-.31-.63-.7-1.11-1.27-1.48-.35-.22-.76-.37-1.18-.4l-2.49,3.88-.97-.62,2.79-4.35c.82.02,1.74.26,2.49.75.57.37.96.79,1.22,1.3l-.59.92Z"/>
                <path class="cls-5" d="m335.52,476.63c1.18-1.27,2.54-1.39,3.85-.18s1.29,2.58.12,3.85l-.36.39c-1.18,1.27-2.54,1.39-3.85.18-1.31-1.21-1.3-2.58-.12-3.85l.36-.39Zm3.12,2.87c.83-.9.74-1.71.05-2.35-.68-.63-1.5-.64-2.32.25l-.38.41c-.83.9-.73,1.71-.05,2.35.68.63,1.5.64,2.32-.25l.38-.41Z"/>
                <path class="cls-5" d="m342.32,484.45c-1.05.8-.95,1.67-.37,2.43.39.51.82.84,1.44,1.03l-.87.66c-.51-.23-.97-.6-1.39-1.14-1.14-1.49-.91-2.84.48-3.9l.42-.32c1.39-1.06,2.75-.92,3.89.57.41.54.65,1.09.73,1.64l-.87.66c-.02-.64-.22-1.15-.61-1.66-.57-.75-1.38-1.1-2.44-.29l-.42.32Z"/>
                <path class="cls-5" d="m344.24,488.42c1.05-.61,1.9-.36,2.66.94.32.55.51,1.16.55,1.65l.26-.17c.81-.51.98-1.02.41-1.99-.32-.55-.82-1.01-1.39-1.27l.93-.54c.51.32.98.78,1.4,1.5.86,1.48.57,2.53-.72,3.29l-2.63,1.53c-.77-.4-1.43-1.07-1.91-1.88-.92-1.58-.62-2.44.43-3.05Zm1.38,3.66l1.12-.65c-.03-.46-.22-.94-.47-1.35-.5-.85-.91-.99-1.46-.67-.55.32-.65.8-.17,1.62.26.44.61.83.97,1.05Z"/>
                <path class="cls-5" d="m348.12,498.77c-.7-.46-1.23-1.06-1.6-1.93-.76-1.78-.17-2.84,1.47-3.53l.5-.21c1.64-.7,2.81-.41,3.47,1.15.23.55.29,1.1.2,1.55l2.43-1.04.45,1.06-6.92,2.94Zm.31-4.4c-1.03.44-1.47,1.02-1.01,2.12.17.4.42.74.75,1l3.07-1.31c.11-.41.09-.9-.12-1.39-.43-1-1.15-1.08-2.18-.64l-.51.22Z"/>
                <path class="cls-5" d="m350.43,500.32c-1.05.39-1.23,1.17-.96,2.13.16.57.45,1.07.98,1.56l-1.03.29c-.42-.47-.71-1.01-.88-1.6-.54-1.9.16-3.1,1.83-3.57l.53-.15c1.67-.47,2.89.18,3.37,1.87.46,1.64-.29,2.57-1.3,2.85-1.06.3-1.65-.17-1.94-1.17l-.62-2.2Zm.89-.25l.55,1.95c.13.47.34.69.8.56.59-.17.91-.69.69-1.48-.25-.89-.93-1.33-2.05-1.03Z"/>
                <path class="cls-5" d="m351.16,505.12c1.2-.18,1.9.36,2.12,1.86.09.63.04,1.26-.1,1.73l.31-.06c.94-.18,1.28-.59,1.11-1.7-.09-.63-.39-1.24-.82-1.7l1.07-.16c.35.49.62,1.08.75,1.91.26,1.69-.4,2.56-1.88,2.79l-3.01.46c-.57-.65-.94-1.52-1.08-2.45-.27-1.81.32-2.5,1.53-2.68Zm-.07,3.91l1.29-.19c.14-.44.14-.95.07-1.42-.15-.98-.48-1.25-1.11-1.16-.63.09-.9.51-.76,1.44.08.51.26.99.52,1.34Z"/>
                <path class="cls-5" d="m350.95,516.17c-.48-.69-.76-1.44-.78-2.38-.05-1.93.89-2.7,2.67-2.75h.54c1.78-.06,2.76.64,2.81,2.34.02.6-.14,1.13-.38,1.51l2.65-.07.03,1.16-7.52.19Zm1.91-3.97c-1.12.03-1.75.41-1.72,1.6.01.43.12.84.33,1.2l3.33-.08c.26-.34.41-.8.4-1.33-.03-1.09-.67-1.43-1.79-1.4h-.56Z"/>
                <path class="cls-5" d="m353.47,517.4c1.73.18,2.64,1.2,2.45,2.97-.19,1.77-1.29,2.58-3.01,2.4l-.53-.06c-1.73-.18-2.63-1.2-2.45-2.97.19-1.77,1.29-2.58,3.01-2.4l.53.06Zm-.43,4.23c1.22.13,1.81-.44,1.91-1.37.1-.92-.38-1.58-1.59-1.71l-.55-.06c-1.22-.13-1.81.44-1.91,1.37-.1.92.38,1.58,1.59,1.71l.55.06Z"/>
              </g>
              <circle class="cls-2" cx="303.25" cy="514.21" r="37.22"/>
              <g>
                <path class="cls-1" d="m324.05,510.28c-.46-1.66-2.08-2.79-3.79-2.52-2.02.32-3.26,2.32-2.72,4.23l-.7-2.52c-.46-1.66-2.08-2.79-3.78-2.52-2.01.32-3.26,2.32-2.73,4.22l-.53-1.9c-.48-1.73-2.21-2.86-3.96-2.49-1.86.39-3.01,2.25-2.58,4.06l-2.64-9.43c-.46-1.66-2.08-2.79-3.79-2.52-2.02.32-3.26,2.32-2.72,4.23l6.63,23.69-9.17-6.03c-1.44-.95-3.4-.74-4.51.59-1.31,1.56-.93,3.89.72,4.98l7.97,5.25,9.03,5.94.81,2.88.68,2.44c.09.31.28.56.52.73.07.05.14.09.22.13.08.03.16.06.24.08.13.03.26.04.39.03.09,0,.18-.02.27-.05l18.38-5.14c.35-.1.63-.33.8-.63.03-.06.06-.12.08-.18l.03-.1c.02-.06.03-.12.04-.18v-.14c.02-.14,0-.28-.03-.42l-.74-2.64s.34-.52.68-1.63l.03-.1c.04-.14.08-.28.12-.43.02-.08.04-.16.06-.24l.02-.08c.03-.12.06-.25.08-.38v-.02c.1-.45.18-.96.24-1.53.1-.96.12-1.92.06-2.88,0-.1-.01-.19-.02-.29-.08-.98-.23-1.95-.45-2.9l-.72-3.03-2.12-8.95-.39-1.64Z"/>
                <path class="cls-5" d="m321.22,508.46c-.46-1.66-2.08-2.79-3.79-2.52-2.02.32-3.26,2.32-2.72,4.23l-.7-2.52c-.46-1.66-2.08-2.79-3.78-2.52-2.01.32-3.26,2.32-2.73,4.22l-.53-1.9c-.48-1.73-2.21-2.86-3.96-2.49-1.86.39-3.01,2.25-2.58,4.06l-2.64-9.43c-.46-1.66-2.08-2.79-3.79-2.52-2.02.32-3.26,2.32-2.72,4.23l6.63,23.69-9.17-6.03c-1.44-.95-3.4-.74-4.51.59-1.31,1.56-.93,3.89.72,4.98l7.97,5.25,9.03,5.94.81,2.88.68,2.44c.09.31.28.56.52.73.07.05.14.09.22.12.08.03.16.06.24.08.13.03.26.04.39.03.09,0,.18-.02.27-.05l18.38-5.14c.35-.1.63-.33.8-.63.03-.06.06-.12.08-.18l.03-.1c.02-.06.03-.12.04-.18v-.14c.02-.14,0-.28-.03-.42l-.74-2.64s.34-.52.68-1.63l.03-.1c.04-.14.08-.28.12-.43.02-.08.04-.16.06-.24l.02-.08c.03-.12.06-.25.08-.38v-.02c.1-.45.18-.96.24-1.53.1-.96.12-1.92.06-2.88,0-.1-.01-.19-.02-.29-.08-.98-.23-1.95-.45-2.9l-.72-3.03-2.12-8.95-.39-1.64Z"/>
                <path class="cls-4" d="m291.86,491.43c.37-.1.59-.49.48-.86l-1.13-4.04c-.1-.37-.49-.59-.86-.48s-.59.49-.48.86l1.13,4.04c.1.37.49.59.86.48Z"/>
                <path class="cls-4" d="m301.39,496.8c.1.37.49.59.86.48l4.04-1.13c.37-.1.59-.49.48-.86s-.49-.59-.86-.48l-4.04,1.13c-.37.1-.59.49-.48.86Z"/>
                <path class="cls-4" d="m281.97,502.96l4.04-1.13c.37-.1.59-.49.48-.86s-.49-.59-.86-.48l-4.04,1.13c-.37.1-.59.49-.48.86s.49.59.86.48Z"/>
                <path class="cls-4" d="m297.74,492.14c.17.09.36.11.53.06s.32-.16.42-.33l2.06-3.66c.19-.33.07-.76-.26-.95-.33-.19-.76-.07-.95.26l-2.06,3.66c-.19.33-.07.76.26.95Z"/>
                <path class="cls-4" d="m287.93,510.56c.17-.05.32-.16.42-.33l2.06-3.66c.19-.33.07-.76-.26-.95-.33-.19-.76-.07-.95.26l-2.06,3.66c-.19.33-.07.76.26.95.17.09.36.11.53.06Z"/>
                <path class="cls-4" d="m286.25,495.35c.17.09.36.11.53.06s.32-.16.42-.33c.19-.33.07-.76-.26-.95l-3.66-2.06c-.33-.19-.76-.07-.95.27-.19.33-.07.76.26.95l3.66,2.06Z"/>
                <path class="cls-4" d="m294.95,491.21c.1.01.19,0,.28-.02.26-.07.47-.29.5-.58l.55-4.16c.05-.38-.22-.73-.6-.78-.38-.05-.73.22-.78.6l-.55,4.16c-.05.38.22.73.6.78Z"/>
                <path class="cls-4" d="m302.39,499.29c-.38-.05-.73.22-.78.6-.05.38.22.73.6.78l4.16.55c.1.01.19,0,.28-.02.26-.07.46-.29.5-.58.05-.38-.22-.73-.6-.78l-4.16-.55Z"/>
                <path class="cls-4" d="m281.33,497.93l4.16.55c.1.01.19,0,.28-.02.26-.07.46-.29.5-.58.05-.38-.22-.73-.6-.78l-4.16-.55c-.38-.05-.73.22-.78.6-.05.38.22.73.6.78Z"/>
                <path class="cls-4" d="m300.08,494.17c.18.23.47.32.74.25.08-.02.16-.06.24-.12l3.33-2.56c.3-.23.36-.67.13-.98-.23-.3-.67-.36-.98-.13l-3.33,2.56c-.3.23-.36.67-.13.98Z"/>
                <path class="cls-4" d="m287.81,503.59c-.23-.3-.67-.36-.97-.13l-3.33,2.56c-.3.23-.36.67-.13.97.18.23.47.32.74.25.08-.02.16-.06.24-.12l3.33-2.56c.3-.23.36-.67.13-.97Z"/>
                <path class="cls-4" d="m288.25,492.62c.18.23.47.32.74.25.08-.02.16-.06.24-.12.3-.23.36-.67.13-.97l-2.56-3.33c-.23-.3-.67-.36-.98-.13-.3.23-.36.67-.13.97l2.56,3.33Z"/>
                <path class="cls-4" d="m316,526.5c-3.36,2.71-7.71,4.71-12.28,5.2-3.94.47-7.5-.37-10.81-1.92l9.03,5.94.81,2.88.68,2.44c.09.31.28.56.52.73.07.05.14.09.22.12.08.03.16.06.24.08.13.03.26.04.39.03.09,0,.18-.02.27-.05l18.38-5.14c.35-.1.63-.33.8-.63.03-.06.06-.12.08-.18l.03-.1c.02-.06.03-.12.04-.18.03-.18.02-.37-.03-.55l-.74-2.64s.34-.52.68-1.63l.03-.1c.04-.14.08-.28.12-.43.02-.08.04-.16.06-.24l.02-.08c.03-.12.06-.25.08-.38v-.02c.1-.45.18-.96.24-1.53.1-.96.12-1.92.06-2.88,0-.1-.01-.19-.02-.29-.08-.98-.23-1.95-.45-2.9l-.72-3.03-2.12-8.95c-.03,6.11-.77,12.46-5.61,16.4Z"/>
              </g>
            </g>
          </g>
        </g>
      </g>
    </g>
  </g>
</svg>