<?xml version="1.0" encoding="UTF-8"?>
<svg xmlns="http://www.w3.org/2000/svg" viewBox="0 0 205.46 846.32">
  <defs>
    <style>
      .cls-1 {
        fill: #8ab9d3;
        opacity: .25;
      }

      .cls-2 {
        fill: #272733;
      }

      .cls-3 {
        fill: #54657d;
      }

      .cls-4 {
        fill: #f7b994;
      }

      .cls-5 {
        fill: #e8b994;
      }

      .cls-6 {
        fill: #fff;
      }

      .cls-7 {
        fill: #e0966e;
      }

      .cls-8 {
        fill: #54575d;
      }

      .cls-9 {
        fill: #004991;
      }

      .cls-10 {
        fill: #d9905d;
      }

      .cls-11 {
        fill: #637794;
      }

      .cls-12 {
        fill: #045aa0;
      }

      .cls-13 {
        fill: #9c96aa;
      }

      .cls-14 {
        fill: #a3caff;
      }

      .cls-15 {
        isolation: isolate;
      }

      .cls-16 {
        fill: #422412;
      }

      .cls-17 {
        fill: #42444a;
      }

      .cls-18 {
        fill: #472f20;
      }

      .cls-19 {
        fill: #fb4a48;
      }

      .cls-20 {
        fill: #e38661;
      }

      .cls-21 {
        fill: #473930;
      }

      .cls-22 {
        fill: #e3976f;
      }

      .cls-23 {
        fill: #d18555;
      }

      .cls-24 {
        fill: #4c4e54;
      }

      .cls-25 {
        fill: #292b30;
      }

      .cls-26 {
        fill: #0a0705;
      }

      .cls-27 {
        fill: #3a7ec1;
        mix-blend-mode: multiply;
        opacity: .2;
      }

      .cls-28 {
        fill: #1a1f26;
      }

      .cls-29 {
        fill: #b5d5ff;
      }

      .cls-30 {
        fill: #573016;
      }

      .cls-31 {
        fill: #161b21;
      }

      .cls-32 {
        fill: #e2d9f6;
      }

      .cls-33 {
        fill: #f6b08e;
      }

      .cls-34 {
        fill: #8fb5e8;
      }

      .cls-35 {
        fill: #422512;
      }

      .cls-36 {
        fill: #52311d;
      }

      .cls-37 {
        fill: #2e3036;
      }

      .cls-38 {
        fill: #472712;
      }

      .cls-39 {
        fill: #edd6ff;
      }

      .cls-40 {
        fill: #231f20;
      }

      .cls-41 {
        fill: #222933;
      }

      .cls-42 {
        fill: #3d3d4f;
      }

      .cls-43 {
        fill: #f6ac79;
      }
    </style>
  </defs>
  <g class="cls-15">
    <g id="Layer_2" data-name="Layer 2">
      <g id="Camada_1" data-name="Camada 1">
        <g>
          <g>
            <path class="cls-43" d="m159.03,534.58c-.75.5-4.51,8.02-4.51,7.26s-7.76-18.53-7.76-18.53l4.51-6.51,7.76,17.78Z"/>
            <g>
              <path class="cls-41" d="m55.72,824.49c1,.94,11.46,10.54,18.93,11.11,7.47.57,23.84-3.76,28.32-3.2,2.74.38,3.73,2.64,3.73,2.64,0,0-26.82,10.54-29.56,10.73-2.74.19-19.18-1.88-19.18-1.88l-.25,1.13-21.67,1.32s-1.25-7.15,0-8.28c1.25-1.13,19.67-13.55,19.67-13.55Z"/>
              <path class="cls-28" d="m55.72,824.49s-19.26,12.12-19.67,13.55c-.25.86.03,3.54.25,5.66,6.84-.75,6.09-1.06,8.16-1.94,4.76-2.03,7.52-6.29,10.96-9.4,1.59-1.44,2.67-3.17,3.83-4.83-1.88-1.52-3.21-2.74-3.53-3.04Z"/>
              <path class="cls-31" d="m56.21,841.24s-12.74,1.51-20.52,2.52c.16,1.43.35,2.56.35,2.56l21.67-1.32.25-1.13s16.44,2.07,19.18,1.88c2.74-.19,29.56-10.73,29.56-10.73,0,0-.24-.55-.81-1.15-7.65,4-25.97,9.37-28.5,9.81-3.24.57-21.17-2.45-21.17-2.45Z"/>
              <g>
                <path class="cls-31" d="m63.3,830.56l-4.84,2.41c1.06-.96,2.38-2.14,3.65-3.26-.24-.17-.48-.35-.71-.52-2.7,2.37-5.6,5.04-5.8,5.23-.15.14-.15.35.02.49.16.13.43.16.63.06l7.82-3.89c-.26-.17-.51-.34-.75-.52Z"/>
                <path class="cls-31" d="m60.77,836.44l5.83-3.8c-.27-.15-.54-.31-.8-.46l-2.67,1.74,2-2.16c-.25-.16-.51-.32-.76-.48l-4.34,4.66c-.14.15-.11.36.07.49.18.12.46.13.66,0Z"/>
                <path class="cls-31" d="m66.91,832.82l-3.15,4.09c-.12.16-.07.36.12.48.19.12.47.11.64-.02l4.78-3.34c-.29-.13-.58-.26-.87-.41l-2.15,1.5,1.44-1.87c-.27-.14-.54-.28-.81-.43Z"/>
                <path class="cls-31" d="m68.53,838.78s.09.01.13.01c.22,0,.41-.11.47-.27l1.46-3.93c-.29-.11-.59-.24-.89-.37l-1.52,4.09c-.07.2.08.41.34.46Z"/>
              </g>
              <path class="cls-3" d="m81.63,837.4s10.87,1.88,18.41-3.09c-.08-.06-18.41,3.09-18.41,3.09Z"/>
            </g>
            <g>
              <path class="cls-41" d="m136.59,829.49c0,.74,2.6,4.99,2.6,4.99h15.14v-2.4s14.67,3.14,18.21,3.7,24.13-2.59,32.64-11.28c.71-.55.23-2.59-3.08-2.22-3.31.37-17.26,6.47-26.49,5.18l-27.67-13.49-11.35,15.53Z"/>
              <path class="cls-31" d="m205.18,824.5c.34-.27.4-.88,0-1.4-8.04,6.39-25.42,10.7-30.51,11.02-5.91.37-20.58-3.88-20.58-3.88l-16.45,1.59c.72,1.31,1.55,2.67,1.55,2.67h15.14v-2.4s14.67,3.14,18.21,3.7,24.13-2.59,32.64-11.28Z"/>
              <g>
                <path class="cls-31" d="m156.48,818.12l-2.5,1.81,1.54-2.28-.8-.39-2.87,4.23c-.11.16-.05.36.13.46.18.1.44.09.6-.02l4.71-3.42-.82-.4Z"/>
                <path class="cls-31" d="m165.11,822.34l-1.96,3.88c-.1.19.02.4.26.47.06.02.11.03.17.03.19,0,.36-.09.44-.23l1.9-3.75-.81-.39Z"/>
                <path class="cls-31" d="m156.61,823.42l4.21-3.17-.82-.4-2.7,2.03,1.15-2.78-.82-.4-1.8,4.35c-.07.16.02.33.2.42.19.09.42.07.58-.05Z"/>
                <path class="cls-31" d="m161.39,820.52l-1.99,4.55c-.07.16,0,.34.2.43.19.1.43.07.58-.06l4.26-3.44-.81-.4-2.66,2.15,1.24-2.84-.82-.4Z"/>
              </g>
              <path class="cls-11" d="m180.9,829.35s9.89-.33,17.8-4.56c0,0-16.65,4.8-17.8,4.56Z"/>
            </g>
            <g>
              <path class="cls-37" d="m96.22,571.23c.15,1.54,9.73,127.23,10.48,135.08.18,1.92-1.51,32.75,1.29,43.08,13.07,48.14,21.48,70.13,28.27,81.16.69.9,10.09-7.44,12.73-17.52,0,.88-4.49-29.25-4.49-29.25,0,0-11.97-80.82-9.73-94.67,2.25-13.85,14.22-107.02,14.6-117.5,0-4.86,6.36-17.21,9.35-20.21,0-1.13-4.05-14.2-7.33-21.51-1.06-2.37-1.47-5.32-1.51-5.38-1.85-3.62-40.94-.8-40.94-.8,0,0-13.84,36.3-12.72,47.52Z"/>
              <path class="cls-25" d="m109.85,641.43c.39-1.16,9.93-73.76,9.93-73.76l-11.86-2.6-10.32,23.75c1.85,24,5.14,67.08,7.24,94,1.98-16.72,4.77-40.62,5.02-41.39Z"/>
              <path class="cls-37" d="m62.55,554.76c-2.66.6-14.97,133.96-15.72,135.83-.75,1.87-13.94,25.71-16.91,42.33-4.79,26.84,3.58,98.76,5.83,108.86-.37-1.5,20.33-15.62,20.33-15.62,0,0,.32-15.54,1.6-25.94,0,.38,5.24-72.97,8.61-81.57,3.37-8.61,34.8-92.8,43.03-119.37,8.23-26.57,9.35-32.55,9.35-32.55,0,0-12.72-21.7-56.13-11.97Z"/>
              <path class="cls-37" d="m118.67,566.74c1.12.37,32.55-9.36,32.55-9.36l-1.58-36.6s-60.91,4.05-73.26-1.19l-12.72-5.99s-4.49,41.91-1.87,45.28c2.62,3.37,56.88,7.86,56.88,7.86Z"/>
            </g>
            <path class="cls-4" d="m71.54,281.43c.28,1.49,1.02,20.94,1.02,20.94,0,0,20.86,19.11,31.23,18.71,4.21-.16,8.43-5.98,8.8-8.43.61-4.07-1.49-9.2-1.49-14.99,0-14.54-3.35-25.43-3.35-25.43,0,0-40.37-12.76-36.21,9.2Z"/>
            <path class="cls-25" d="m61.56,558.25c-1.18,6.38-2.93,20.87-4.81,38,10.4-18.99,30.8-57.52,32.77-71.06.18.18.64-1.67.88-3.36-6.23-.4-11.29-1.1-14-2.25l-.58-.28-14.78,34.03c.06,2.23.21,3.99.53,4.91Z"/>
            <path class="cls-24" d="m155.38,347.7c1.6.27,12.61,11.46,14.33,25.22,1.72,13.75-4.01,30.95-3.44,38.4.57,7.45,2.37,48.22,4.16,55.06,2.87,10.95,19.34,41.79-9.89,72.74-1.15.57-5.18-14.23-7.66-17.8-1.13-1.62-2.66-63.58-2.66-63.58l-10.32-102.01s5.16-9.74,15.47-8.02Z"/>
            <path class="cls-14" d="m67.64,323.25s30.2,107.1,28.99,119.59c-1.21,12.48-24.56,70.87-24.56,70.87,0,0,70.22,12.54,77.59,7.08,7.37-5.47-4.36-127.13-4.36-127.13l-22.93-72.94-17.66.15-36.75.74-.31,1.64Z"/>
            <g>
              <path class="cls-17" d="m151.49,455.76c.58,0,9.76.97,17.77,1.83-.04-.39-.07-.75-.11-1.15-6.43-.69-16.95-1.81-17.67-1.81v1.14Z"/>
              <path class="cls-17" d="m171.63,470.18l-16.05-1.08,14.42-5.08c-.05-.36-.11-.74-.16-1.15l-17.24,6.08c-.25.09-.41.34-.37.61.04.27.26.48.52.49l19.28,1.3c-.14-.4-.27-.79-.4-1.17Z"/>
              <path class="cls-17" d="m169.63,461.14c-4.1.13-9.6.31-13.82.45,3.83-.76,8.91-1.74,13.58-2.64-.04-.36-.07-.76-.11-1.14-12,2.29-16.95,3.25-18.96,3.79.01.4.02.84.03,1.3,2.94-.08,12.94-.4,19.39-.62-.04-.34-.08-.76-.13-1.13Z"/>
            </g>
            <path class="cls-34" d="m75.11,322.79c.39,1.18,9.4,21.04,11.57,22.02,1.37,0,8.08-13.18,8.08-13.18l5.9,8.25,8.06,21.22.78-23.78,2.36-12.77,9.89,10.56,1.59.61,18,53.48-13.56-58.16-19.45-12.77-4.72,3.14-23.78-1.37-4.71,2.75Z"/>
            <path class="cls-34" d="m140.04,520.69s7.24-2.48,11.14-4c.34-1.92.56-4.46.71-7.47-6.62,4.86-20.01,8.14-20.01,8.14l8.17,3.32Z"/>
            <path class="cls-34" d="m101.63,409.56c0,1.36,7.82,32.28-2.38,75.77-3.4,13.59-5.82,19.35-5.82,19.35,0,0-4.55,3.35-3.35,6.35,1.26,3.15,29.9,7.27,29.9,7.27,0,0-4.42,2.04-12.57,2.04s-32.62-6.8-32.62-6.8l19.71-80.53,7.13-23.44Z"/>
            <path class="cls-17" d="m160.86,534.4s-5.97-11.27-6.8-12.44l-.65.23c2.49,4.63,6.07,17.46,7.14,16.92.06-.06.11-.12.16-.18.8-2.16.15-4.53.15-4.53Z"/>
            <path class="cls-42" d="m76.84,513.26s31,5.28,47.66,4.83c27.13-.75,26.74-4.13,26.74-4.13,0,0-.53,10.25-1.08,10.59-2.68,1.66-17.02,3.66-29.05,3.48-12.03-.18-45.27-5.27-45.27-5.27l.99-9.49Z"/>
            <path class="cls-8" d="m70.4,308.05c-3.11,0-6.13,10.43-6.13,10.43,0,0-16.73,13.12-28.59,20.75-3.82,2.46-6.34,3.48-8.37,4.34-8.69,3.67-15.45,6.95-17.48,12.16-2.7,6.94,8.6,39.54,18.34,53.3,9.74,13.75,34.96,42.98,35.53,56.16.57,13.18-38.4,93.99-37.83,93.41.57-.57,9.17,14.33,9.17,14.33l-6.88,18.34,22.93,8.02s49.29-123.22,51-140.41c1.72-17.19,4.01-27.51,1.72-41.84-1.94-12.11-23.53-81.95-30.16-103.27-1.22-3.91-1.63-5.72-3.25-5.72Z"/>
            <path class="cls-17" d="m47.97,509.74c-4.59,10.62-9.43,21.33-13.42,30,4.16,4.9,8.48,10.14,8.48,10.14l2.03-7.22,10.38,11.74,5.42-4.06,2.93,5.19s2.14-2.97,5.03-1.43c2.09-5.4,4.25-11.04,6.43-16.75l-27.29-27.59Z"/>
            <polygon class="cls-14" points="153.15 520.65 159.97 532.69 157.97 536.03 151.28 524.26 153.15 520.65"/>
            <path class="cls-24" d="m103.81,417.05c-1.94-12.11-23.53-81.95-30.16-103.27-1.22-3.91-1.63-5.72-3.25-5.72-3.11,0-6.13,10.43-6.13,10.43,0,0-.4.31-1.05.82.39,12.95,1.03,30.54,1.03,30.54l15.68-.91-12.55,14.32s27.17,49.39,31.35,61.4c2.51,7.23,4.35,12.01,5.19,17.91.94-8.76,1.36-16.32-.11-25.51Z"/>
            <path class="cls-17" d="m63.6,463.91l-.1.02c.06.42.17.87.18,1.25.05,1.11-.21,2.75-.67,4.74-.24,14.82-9.13,47.33-26.53,97-1.67,4.77-1.73,4.95-1.73,5.15l1.13.09c.06-.25.74-2.19,1.67-4.86,20.23-57.71,28.99-92.5,26.05-103.39Z"/>
            <g>
              <path class="cls-43" d="m91.45,541.07l-14.38-15.93-19.79,10.52,6.8,10.98s3.71-.46,7.73-2.17c.16.15,2.47,3.09,2.63,4.64.15,1.55-1.15,5.91-.22,8.85.93,2.94,3.47,8.16,3.47,8.16,0,0,10.98-4.79,13.76-25.05Z"/>
              <path class="cls-10" d="m85.9,534.92l-1.36-1.51c-4.84,1.3-15.95,7.65-15.95,7.65,0,0-1.84,3.04-1.99,5.09,1.42-.33,3.27-.86,5.22-1.68.07.07.63.78,1.22,1.65,4.82-2.91,10.76-8.49,12.87-11.2Z"/>
              <path class="cls-10" d="m91.45,541.07l-.42-.47c-1.41,4.43-3.86,12.97-4.96,14.51-1.49,2.09-7.47,5.83-7.47,5.83,0,0-1.64-6.24-1.04-9.98.6-3.73-3.07-8.93-3.07-8.93l-2.17-.67-3.88,1.49s.32,1.12.71,2.59c.85-.27,1.74-.58,2.66-.97.16.15,2.47,3.09,2.63,4.64.15,1.55-1.15,5.91-.22,8.85.93,2.94,3.47,8.16,3.47,8.16,0,0,10.98-4.79,13.76-25.05Z"/>
              <path class="cls-14" d="m77.07,525.14l-19.79,10.52,6.8,10.98s3.71-.46,7.73-2.17c0,0,.05.06.09.1,5.64-3.03,10.4-7.12,13.54-10.16l-8.37-9.27Z"/>
            </g>
            <path class="cls-17" d="m25.21,404.34c.99,1.7,1.98,3.31,2.95,4.68,7.25,10.24,23.07,29.04,30.92,43.43-1.79-20.59-5.45-58.44-7.99-59.31-16.55-5.64-23.36,1.94-25.88,11.2Z"/>
            <path class="cls-8" d="m120.44,317.45l6.04,21.34s18.62,52.58,20.78,86.89c-.23,3.96,11.56-43.59,10.99-57.35-.57-13.75-2.87-20.63-2.87-20.63,0,0-19.28-15.74-22.93-18.34-5.48-3.92-10.28-9.42-12.01-11.91Z"/>
            <path class="cls-17" d="m139.91,383.98s8.57,33.26,10.01,40.02c4.15,19.54,14.52,69.08,9.28,90.98-2.67,11.16-9.25,11.9-9.25,11.9,0,0-2.58-96.15-3.34-103.81-.76-7.66-6.7-39.09-6.7-39.09Z"/>
            <path class="cls-24" d="m146.37,395.94c-.64-6.86-2.35-42.33-2.35-42.33l-10.29-5.24,9.86-.64s-4.73-8.84-8.92-16.69c-.95-.74-1.73-1.33-2.21-1.68-5.48-3.92-10.21-9.28-11.94-11.77l5.97,21.2s18.19,53.95,20.14,84.51c-.05.91.56-.78,1.53-4.06-.49-6.85-1.33-18.58-1.78-23.3Z"/>
            <polygon class="cls-25" points="119.59 568.55 118.46 568.39 123.54 528.75 124.66 528.9 119.59 568.55"/>
            <path class="cls-24" d="m12.97,351.43c-1.72,1.15-14.04,18.91-12.89,30.37,1.15,11.46,1.15,15.19,1.15,15.19,0,0-1.72,54.44-.57,59.03,1.15,4.58,4.94,15.42,4.94,17.72s2.33,10.97,3.38,14.8c.81,2.98,7.73,25.94,23.2,38.54,12.03,11.46,19.48,20.63,19.48,20.63,0,0,27.95-16.02,29.67-17.73.36.16-31.21-39.3-33.68-48.75-2.42-9.26-2.9-14.86-5.73-18.34.57-1.72,12.94-58.86,11.46-67.62-2.74-16.28-15.76-36.68-22.06-40.12-6.3-3.44-18.34-3.73-18.34-3.73Z"/>
            <path class="cls-17" d="m67.37,363.24l13.81-14.99-16.94,1.58c.02-9.98.09-27.26.22-31.99-.12.37-.2.64-.2.64,0,0-.38.3-.96.75-.15,7.9-.19,30.12-.19,31.23v.62l15.24-1.42-12.39,13.45.23.37c.38.61,37.9,61.01,37.17,82.67h.16c.21-1.79.4-3.53.57-5.22-3.78-24.08-33.5-72.52-36.71-77.68Z"/>
            <path class="cls-19" d="m92.85,326.46l9.01,12.98,8.94-2.7s4.11-14.11,1.85-15.89c-1.06-.83-7.99-.04-12.48.71-4.49.75-7.31,4.9-7.31,4.9Z"/>
            <path class="cls-19" d="m101.95,339.21c21.63,85.66,18.54,100.99,15.69,144.15,0,0,9.56,16.58,12.48,16.41,3.31-.2,10.34-18.55,10.34-18.55,0,0,2.02-33.74-10.7-82.39-12.72-48.64-19.12-62.08-19.12-62.08l-8.7,2.46Z"/>
            <path class="cls-25" d="m69.9,571.17l-.38-1.07c3.89-1.39,12.34-7.54,16.67-12.72,4.15-4.98,7.22-31.02,7.24-32.11h1.14c0,1.06-3.06,27.51-7.5,32.84-4.43,5.32-13.13,11.63-17.15,13.07Z"/>
            <g>
              <path class="cls-36" d="m122.79,519.12s12.79.68,12.74.76l-12.74-.76Z"/>
              <g>
                <polygon class="cls-13" points="137.13 522.94 132.99 523.15 133.03 522.17 137.27 521.67 137.13 522.94"/>
                <g>
                  <path class="cls-2" d="m136.56,519.48c-.19-.03-12.87.16-12.87.16l-.25,8.76-2.33-10.67,16-.11-.55,1.85Z"/>
                  <polygon class="cls-2" points="136.32 524.13 132.79 523.17 136.54 522.86 136.32 524.13"/>
                  <g>
                    <path class="cls-13" d="m138.19,516.9l-17.98-.18c-.02.67.44,12.57.44,12.57l17.2-1.27.33-11.13Zm-14.92,11.23l-.2-9.17,13.08-.35v7.94s-12.88,1.58-12.88,1.58Z"/>
                    <g>
                      <path class="cls-32" d="m137.57,517.96c.05-.2-15.51-.07-15.51-.07l14.09.72v7.94s-13.28,1.23-13.28,1.23l-.14-4.28-.48-4.87-.53,9.95s15.45-1.25,15.48-1.37c.03-.12.32-9.06.37-9.26Z"/>
                      <polygon class="cls-32" points="137.35 521.91 133.17 522.32 133.27 522.91 137.1 522.66 137.35 521.91"/>
                    </g>
                  </g>
                </g>
              </g>
            </g>
            <path class="cls-29" d="m72.35,301.7c.41-.16,13.01,11.99,23.54,17,3.28,1.56,6.14.93,8.59.52,0,.11.59,1.52.14,1.84-3.12,2.28-16.32,10-17.83,20.03-2.89-1.6-16.4-31.06-16.4-31.06,0,0-.11-7.52,1.95-8.33Z"/>
            <path class="cls-29" d="m104.55,320.94c-.24.01-.42-1.5-.28-1.71.21-.32,2.9-1.19,3.19-1.49,1.72-1.76,3.67-3.84,4.32-5.08,1.31-2.48-.46-7.17-1.06-13.23.24-.5,1.67.34,1.7.43.64,1.7,2.41,6.38,3.33,8.44,1.21,2.7,5.53,10.27,5.53,10.27,0,0,3.29,13.5,2.43,16.65,0,.29-2,.08-2,.08,0,0-1.91-15.06-17.18-14.36Z"/>
            <path class="cls-17" d="m148.71,417.32c-1.94-21.86-3.54-63.59-3.56-64.08v-.33s-8.25-4.21-8.25-4.21l7.99-.76-.46-.77c-2.79-4.61-6.28-10.49-9.38-15.83-.99-.78-1.8-1.39-2.35-1.79,3.96,6.91,8.62,14.68,10.29,17.43l-10.07.96,11.11,5.68c.16,4.21,1.85,46.71,3.82,66.67.26-.85.55-1.84.87-2.96Z"/>
            <path class="cls-17" d="m53.38,401.19l-.95-.94c-.22-.22-.21-.4-.18-1.41,0-.04,0-.07,0-.1-.58-14.28-17.72-31.89-21.23-35.35l-.15-.14.81-.81.14.14c4.2,4.15,16.17,16.71,20.21,29.11-1.25-14.39-7.32-27.7-12.61-36.86l.99-.57c6.2,10.75,13.48,27.18,12.97,44.46.01.38.02.76,0,1.14l-.03,1.33Z"/>
            <path class="cls-17" d="m41.7,463.42c-4.38-1.72-15.14-5.28-20.42-.93l-.72-.88c5.74-4.72,16.98-1.05,21.56.75l-.42,1.05Z"/>
            <path class="cls-17" d="m54.3,533.01c-1.01,1.67-2.85,2.42-4.11,1.66-1.26-.76-1.46-2.73-.45-4.41,1.01-1.67,2.85-2.42,4.11-1.66,1.26.76,1.46,2.73.44,4.41Z"/>
            <path class="cls-25" d="m35.21,834.53c4.42-6.44,12.25-16.34,14.99-18.45l-.69-.9c-2.32,1.79-9.62,10.64-14.35,17.37.01.69.03,1.35.05,1.98Z"/>
            <path class="cls-25" d="m43.73,813.5l.77.83c3.05-2.84,9.62-11.42,13.41-17.14.05-.68.11-1.5.18-2.38-3.29,5.27-10.86,15.42-14.36,18.69Z"/>
            <path class="cls-25" d="m133.68,824.82c2.52-6.42,7.1-16.83,10.4-22.06l-.96-.61c-2.78,4.42-7.28,14.2-10.02,21.04.2.56.4,1.11.59,1.63Z"/>
            <path class="cls-25" d="m143.95,780.01c-.13-.93-.29-2.03-.47-3.26-2.41,11.46-5.21,23.17-6.99,26.89l1.03.49c1.87-3.92,4.54-15.34,6.43-24.12Z"/>
            <path class="cls-37" d="m98.74,526.35l1.49-9.8c-1.91-.22-3.78-.44-5.59-.67l-.16,9.62c1.47.22,2.74.63,4.26.85Z"/>
            <path class="cls-17" d="m152.71,404.48l-.63-.1-.26-.23.1-.34c2.63-9.02,4.59-31.73,1.94-44.62l1.11-.23c2.13,10.32,1.32,26.87-.42,37.85,2.38-7.56,5.54-20.1,5.36-30.75l1.14-.02c.27,15.74-7.07,37.89-8.33,38.46Z"/>
            <path class="cls-22" d="m71.34,279.94c.05.48.1.97.2,1.49.28,1.49,1.02,20.94,1.02,20.94,0,0,4,3.67,9.37,7.75,4.23,1.6,8.91,2.52,13.63,1.82,7.16-1.06,12.75-3.09,16.68-4.93-.47-2.85-1.15-5.97-1.15-9.35,0-6.75-.72-12.65-1.5-17.11l-35.45-6.65s-1.24,2.55-2.81,6.03Z"/>
            <g>
              <g>
                <polygon class="cls-38" points="127.54 269.38 129.7 281.7 127.54 283.7 126.16 282.77 126.16 285.39 120.92 287.55 120.77 268.92 127.54 269.38"/>
                <path class="cls-38" d="m57.49,269.23c.31.77,1.23,14.63,1.23,14.63l2,.92,1.08-1.85.62,2.77,4.77,1.23,3.23-21.71-12.93,4Z"/>
              </g>
              <path class="cls-30" d="m100.45,215.03s2-8.01,10.01-8.01,13.09,6.93,13.55,7.85c.46.92,4.93,14.93,14.01,25.09,1.85,2.93,1.54,12.01-3.85,19.25-1.39,2.31-1.23,11.24-1.23,11.24l-2,1.85-1.54-1.69.15,2.46s-8.01,1.69-8.78,1.54-3.08-35.41-12.62-39.87c-9.55-4.47-7.7-19.71-7.7-19.71Z"/>
              <g>
                <path class="cls-16" d="m134.84,258.25c-5.26-4.36-9.49-13.06-13.28-20.89-3.26-6.72-6.07-12.52-8.96-14.14-2.23-1.25-4.29-1.59-6.12-.98-2.65.87-3.79,3.38-3.84,3.48l1,.45s1.01-2.18,3.2-2.9c1.52-.5,3.29-.19,5.24.9,2.58,1.45,5.46,7.38,8.51,13.66,3.86,7.96,8.16,16.8,13.64,21.31.22-.29.43-.59.63-.89Z"/>
                <path class="cls-16" d="m138.87,247.44c-5.06-1.93-11.08-6.17-15.4-16.39-6.51-15.39-12.26-14.98-13.03-14.85-6.18.03-8.33,4.83-8.42,5.03l1,.44c.08-.18,1.99-4.38,7.48-4.38h.12c.05-.02,5.43-.98,11.85,14.19,4.55,10.76,10.94,15.12,16.24,17.08.07-.38.12-.75.16-1.12Z"/>
                <path class="cls-16" d="m138.01,239.97c-.26-.29-.52-.59-.77-.88-1.09-.45-2.29-.96-3.62-1.57-6.12-2.81-8.57-9.66-10.73-15.71-2.12-5.93-4.12-11.54-9.34-11.54-10.07,0-12.28,5.23-12.37,5.45l1.01.41s2.02-4.77,11.35-4.77c4.45,0,6.24,5.01,8.31,10.81,2.23,6.25,4.76,13.33,11.3,16.33,1.99.91,3.71,1.64,5.21,2.21-.11-.28-.23-.52-.37-.74Z"/>
              </g>
              <path class="cls-22" d="m59.65,270.15s-1.23,6.78,4.46,7.54c.46.15,2.31-7.54,2.31-7.54h-6.78Z"/>
              <path class="cls-22" d="m126.46,270.15s1.23,6.78-4.46,7.54c-.46.15-2.31-7.54-2.31-7.54h6.77Z"/>
              <path class="cls-30" d="m67.19,273.54c-.62-.15-5.39.46-8.01-1.08-2.62-1.54,7.08-20.32,7.08-20.32l.92,21.4Z"/>
              <path class="cls-4" d="m103.64,227.55c1.31.2,16.73,5.82,18.18,21.82,1.46,16,.73,30.54.73,30.54,0,0,0,8-3.64,12.73-2.22,2.89-6.95,7.81-10.29,11.2-2.14,2.17-2.55,3.1-3.71,3.71-4.78,2.53-16.72,3.32-21.63-.66-.59-.48-1.22-.98-1.85-1.54-7.53-6.61-16.52-18.53-16.52-18.53,0,0-1.45-6.18-.36-13.82,1.09-7.64,1.82-34.55,5.64-38.18,3.82-3.64,16.55-9.82,33.46-7.27Z"/>
              <g>
                <g>
                  <path class="cls-33" d="m112.38,274.53c-1.44,3.67-.54,7.45,2.02,8.46,2.56,1,5.8-1.15,7.24-4.82,1.44-3.67.54-7.45-2.02-8.46-2.56-1-5.8,1.16-7.24,4.82Z"/>
                  <path class="cls-33" d="m75.26,275.94c1.17,3.61.08,7.19-2.44,8.01-2.51.81-5.5-1.45-6.67-5.06-1.17-3.61-.08-7.19,2.44-8.01,2.52-.81,5.5,1.45,6.67,5.06Z"/>
                </g>
                <path class="cls-5" d="m122.55,279.91s.15-2.94.18-7.64c-1.9,3.21-4.83,8.87-5.86,9.98-1.5,1.62-2.32.81-4.05-.93-1.74-1.74-10.54-2.2-10.54-2.2,0,0-4.29,3.13-7.53,3.36-3.24.23-7.76-3.13-7.76-3.13,0,0-10.89,2.08-12.74,3.24-1.85,1.16-2.66,1.16-3.71.58-.91-.5-4.99-6.74-6.17-8.71-.73,6.95.54,12.35.54,12.35,0,0,8.99,11.92,16.52,18.53.63.55,1.26,1.05,1.85,1.54,4.91,3.99,16.85,3.19,21.63.66,1.16-.61,1.57-1.55,3.71-3.71,3.35-3.39,8.07-8.31,10.29-11.2,3.64-4.73,3.64-12.73,3.64-12.73Z"/>
                <path class="cls-4" d="m94.42,305.3c5.99,0,8.57-7.64,7.41-7.88-1.16-.23-6.56.72-7.66.69-1.67-.03-6.14-.93-7.3-.69-1.16.23,1.69,7.88,7.54,7.88Z"/>
              </g>
              <g>
                <path class="cls-35" d="m88.78,251.89c.26-.04-.34-6.41-.61-6.32s-.95,1.56-.95,1.56l-1.99-.17s-11.51-1.39-12.21-1.21c-.69.17-6.32,6.41-6.93,8.05.26.09.61.35.61.35,0,0,4.85-3.46,7.62-3.46s12.21.95,12.21.95l.69-.17s-.17.69,1.56.43Z"/>
                <g>
                  <path class="cls-6" d="m84.04,256.84c.13.33-.21,2.27-.92,3.12-.71.85-5.31.71-5.31.71l-2.6-.12s-3.49-.23-3.85-2.5c-.35-2.27,1.56-5.31,4.6-5.45,3.05-.14,6.51.28,8.07,4.25Z"/>
                  <path class="cls-18" d="m80.1,260.67s-1.68.11-2.27.11c-.66,0-2.62-.24-2.62-.24-1.21-.81-2.02-2.2-2.02-3.78,0-2.5,2.02-4.53,4.5-4.53s4.5,2.03,4.5,4.53c0,1.58-.88,3.09-2.1,3.9Z"/>
                  <path class="cls-22" d="m83.9,260.67s-2.41,1.91-4.46,2.26c-2.05.36-7.79-.14-8.99-4.25,0-.28,1.84,3.19,7.72,2.97,4.32-.21,5.74-.99,5.74-.99Z"/>
                  <path class="cls-22" d="m85.31,259.46s-.43-4.18-1.27-5.59c-.85-1.42-5.67-3.97-9.84-2.34-4.18,1.63-4.89,4.03-5.31,6.16.07-.07,1.04.1,1.04.1,0,0,.87-4.14,8.73-4.14,3.89,0,5.45,4.53,5.8,6.73.07.14.85-.92.85-.92Z"/>
                  <g>
                    <path class="cls-26" d="m75.91,256.83c0,1,.81,1.8,1.8,1.8s1.8-.81,1.8-1.8-.81-1.8-1.8-1.8-1.8.81-1.8,1.8Z"/>
                    <path class="cls-40" d="m77.71,258.82c-1.09,0-1.98-.89-1.98-1.99s.89-1.98,1.98-1.98,1.99.89,1.99,1.98-.89,1.99-1.99,1.99Zm0-3.61c-.89,0-1.62.73-1.62,1.62s.73,1.62,1.62,1.62,1.62-.73,1.62-1.62-.73-1.62-1.62-1.62Z"/>
                  </g>
                  <path class="cls-6" d="m78.3,255.48c0,.5.4.9.9.9s.9-.4.9-.9-.4-.9-.9-.9-.9.4-.9.9Z"/>
                </g>
              </g>
              <path class="cls-33" d="m94.3,266.87c-3.59.35-6.66,8.18-7.45,11.9.14.47,4.23,3.68,7.8,3.64,3.58-.04,7.57-3.64,7.57-3.64,0,0-4.81-12.2-7.92-11.9Z"/>
              <g>
                <path class="cls-23" d="m89.35,249.83s.13.34.35.95c.21.61.5,1.48.81,2.54.15.53.32,1.1.48,1.71.16.61.34,1.25.49,1.93.15.67.33,1.36.46,2.07.15.71.29,1.43.43,2.15.13.72.24,1.45.35,2.17.12.71.18,1.43.28,2.11.09.69.13,1.35.19,1.98.05.63.07,1.23.09,1.79.03.55,0,1.06,0,1.51,0,.45-.02.84-.05,1.16-.04.65-.08,1.01-.08,1.01,0,0-.06-.37-.14-1-.03-.32-.08-.7-.15-1.15-.07-.44-.14-.94-.22-1.48-.08-.54-.18-1.13-.28-1.75-.1-.62-.22-1.27-.33-1.94-.24-1.35-.48-2.79-.75-4.22-.12-.72-.25-1.44-.38-2.15-.13-.71-.25-1.4-.37-2.08-.12-.68-.23-1.33-.34-1.95-.11-.62-.21-1.21-.3-1.75-.36-2.17-.55-3.63-.55-3.63Z"/>
                <path class="cls-23" d="m100.22,273.35s.02.03.06.1c.04.07.11.15.18.27.16.23.38.55.63.95.25.4.53.87.79,1.4.13.27.27.54.39.83.13.29.24.59.34.91.02.08.04.16.07.25.02.09.04.16.06.27l.02.15v.08s0,.11,0,.11c0,.07-.01.15-.03.22h0s-.05.17-.03.09h0s0,.02,0,.02v.03s-.04.05-.04.05l-.03.05-.06.09c-.04.06-.08.11-.13.17-.05.06-.08.08-.11.11l-.1.09c-.14.11-.27.21-.4.29-.27.17-.53.31-.78.43-.25.12-.49.22-.72.3-.45.17-.83.28-1.1.35-.27.07-.43.09-.43.09,0,0,.12-.11.34-.28s.52-.42.9-.7c.37-.29.8-.61,1.22-.96.2-.16.42-.4.44-.45.02.04-.03-.28-.12-.54-.08-.27-.18-.56-.28-.84-.1-.28-.2-.57-.29-.84-.19-.55-.36-1.07-.48-1.52-.13-.46-.21-.85-.26-1.12-.05-.28-.04-.44-.04-.44Z"/>
                <path class="cls-23" d="m88.85,273.35s0,.16-.04.44c-.05.28-.13.67-.26,1.12-.12.46-.29.98-.48,1.52-.1.27-.19.55-.29.84-.1.28-.2.57-.28.84-.08.26-.14.58-.11.54.02.04.24.28.44.45.42.35.85.67,1.22.96.37.28.68.53.9.7.22.18.34.28.34.28,0,0-.16-.02-.43-.09-.27-.07-.66-.17-1.1-.35-.22-.09-.47-.18-.72-.3s-.51-.25-.77-.43c-.13-.08-.27-.18-.4-.29l-.1-.09s-.06-.05-.11-.11c-.04-.05-.09-.11-.13-.17l-.06-.09-.03-.05-.03-.05v-.03s-.02-.01-.02-.01h0c.02.07-.04-.11-.04-.11h0c-.01-.06-.02-.13-.03-.21v-.11s0-.08,0-.08l.02-.15c.01-.11.04-.18.06-.27.02-.09.04-.17.07-.25.1-.32.21-.62.34-.91.12-.29.25-.57.39-.83.27-.53.54-1,.8-1.4.25-.4.47-.72.63-.95.07-.11.14-.2.18-.27.04-.06.06-.1.06-.1Z"/>
                <path class="cls-23" d="m99.21,278.13s-.04.03-.11.1c-.04.03-.08.07-.13.12-.04.05-.09.11-.15.17-.11.12-.23.3-.37.49-.13.19-.28.42-.44.67-.31.5-.68,1.09-1.17,1.7-.26.3-.53.61-.92.87-.37.26-.85.48-1.39.49h0s-.07,0-.06,0h-.03s-.04,0-.04,0h-.07s-.15-.02-.15-.02c-.04,0-.11-.02-.18-.04l-.2-.06c-.14-.04-.25-.09-.35-.15-.1-.06-.21-.11-.3-.17-.39-.25-.67-.55-.94-.83-.52-.58-.92-1.14-1.27-1.61-.18-.23-.34-.44-.5-.61-.07-.09-.16-.16-.22-.24s-.14-.14-.2-.19c-.07-.05-.12-.1-.18-.14-.06-.04-.1-.06-.14-.09-.08-.05-.12-.08-.12-.08,0,0,.05,0,.14.02s.24.03.41.1c.09.03.18.07.28.12.1.05.21.1.31.17.22.13.45.3.68.5.48.39.97.89,1.5,1.36.27.22.54.46.82.62.07.05.14.07.21.11.07.03.14.07.19.08l.08.03s.05.02.11.03h.15s.07.02.07.02h.04s.02,0,.02,0h0s-.1,0-.05,0h0c.26,0,.53-.11.81-.28.28-.16.54-.41.79-.64.5-.49.96-1.02,1.4-1.43.21-.22.42-.4.62-.56.19-.16.37-.28.54-.37.08-.04.15-.08.22-.11.06-.02.12-.04.16-.06.09-.03.14-.04.14-.04Z"/>
              </g>
              <path class="cls-22" d="m109.51,298.78s.14-.24.39-.66c.24-.42.59-1.01,1.01-1.72.2-.35.43-.74.66-1.15.23-.41.47-.84.72-1.29.24-.45.49-.91.74-1.39.25-.47.51-.95.74-1.44.25-.48.48-.97.71-1.46.24-.48.46-.96.66-1.42.21-.46.4-.92.59-1.35.09-.21.19-.42.27-.63.08-.2.16-.4.24-.59.16-.38.3-.73.43-1.04.11-.31.22-.59.31-.81.18-.45.29-.71.29-.71,0,0-.02.28-.08.76-.03.24-.07.54-.12.87-.06.33-.14.71-.23,1.12-.04.2-.09.42-.14.64-.06.22-.13.44-.2.67-.14.46-.27.95-.47,1.43-.19.49-.36,1-.59,1.5-.22.51-.45,1.01-.7,1.51-.25.5-.52.99-.79,1.46-.26.48-.57.93-.84,1.37-.28.44-.58.85-.86,1.24-.28.39-.56.74-.83,1.06-.26.33-.52.61-.74.86-.23.25-.43.46-.61.63-.34.34-.56.52-.56.52Z"/>
              <path class="cls-22" d="m77.95,298.78s-.22-.18-.56-.52c-.17-.17-.38-.38-.61-.63-.23-.25-.48-.54-.74-.86-.27-.32-.55-.68-.83-1.06-.28-.39-.58-.8-.86-1.24-.27-.45-.58-.89-.84-1.37-.27-.48-.54-.96-.79-1.46-.26-.5-.49-1-.7-1.51-.23-.5-.4-1.01-.59-1.5-.19-.49-.33-.97-.47-1.43-.07-.23-.13-.45-.2-.67-.05-.22-.1-.43-.14-.64-.09-.41-.17-.78-.23-1.12-.05-.34-.09-.63-.12-.87-.06-.48-.08-.76-.08-.76,0,0,.11.26.29.71.09.22.2.5.31.81.13.31.27.66.43,1.04.08.19.16.39.24.59.09.2.18.41.27.63.19.43.38.89.59,1.35.21.46.43.94.66,1.42.23.48.46.98.71,1.46.23.49.48.97.74,1.44.25.47.5.94.74,1.39.25.45.49.88.72,1.29.23.41.45.79.66,1.15.42.71.76,1.31,1.01,1.72.25.42.39.66.39.66Z"/>
              <g>
                <path class="cls-35" d="m98.63,251.89c-.26-.04.35-6.41.61-6.32.26.09.95,1.56.95,1.56l.69-1.47,1.3,1.3s11.51-1.39,12.21-1.21c.69.17,6.32,6.41,6.93,8.05-.26.09-.61.35-.61.35,0,0-4.85-3.46-7.62-3.46s-12.21.95-12.21.95l-.69-.17s.17.69-1.56.43Z"/>
                <g>
                  <path class="cls-6" d="m103.37,256.84c-.13.33.21,2.27.92,3.12.71.85,5.31.71,5.31.71l2.6-.12s3.49-.23,3.85-2.5-1.56-5.31-4.6-5.45c-3.04-.14-6.51.28-8.07,4.25Z"/>
                  <path class="cls-18" d="m107.31,260.67s1.68.11,2.27.11c.66,0,2.62-.24,2.62-.24,1.22-.81,2.02-2.2,2.02-3.78,0-2.5-2.02-4.53-4.5-4.53s-4.5,2.03-4.5,4.53c0,1.58.88,3.09,2.1,3.9Z"/>
                  <path class="cls-22" d="m103.51,260.67s2.41,1.91,4.46,2.26c2.05.36,7.79-.14,8.99-4.25,0-.28-1.84,3.19-7.72,2.97-4.32-.21-5.74-.99-5.74-.99Z"/>
                  <path class="cls-22" d="m102.1,259.46s.42-4.18,1.27-5.59c.85-1.42,5.66-3.97,9.84-2.34,4.18,1.63,4.89,4.03,5.31,6.16-.07-.07-1.04.1-1.04.1,0,0-.87-4.14-8.73-4.14-3.89,0-5.45,4.53-5.81,6.73-.07.14-.85-.92-.85-.92Z"/>
                  <g>
                    <path class="cls-26" d="m111.5,256.83c0,1-.81,1.8-1.8,1.8s-1.8-.81-1.8-1.8.81-1.8,1.8-1.8,1.8.81,1.8,1.8Z"/>
                    <path class="cls-40" d="m109.7,258.82c-1.09,0-1.98-.89-1.98-1.99s.89-1.98,1.98-1.98,1.98.89,1.98,1.98-.89,1.99-1.98,1.99Zm0-3.61c-.89,0-1.62.73-1.62,1.62s.73,1.62,1.62,1.62,1.62-.73,1.62-1.62-.73-1.62-1.62-1.62Z"/>
                  </g>
                  <circle class="cls-6" cx="111.58" cy="255.48" r=".9"/>
                </g>
              </g>
              <g>
                <path class="cls-21" d="m77.3,283.74v1.25l11.46,8.19s7.53.58,7.94.67,12.38-7.28,12.38-7.28l1.5-2.17-6.86.92-9.37.92-17.06-2.51Z"/>
                <path class="cls-6" d="m80.97,284.73c.19.47,1.02,4.19,1.02,4.19,0,0,8.1,5.31,11.92,5.31s11.54-5.03,11.54-5.03c0,0,.47-4.93.37-4.65-.09.28-9.68,1.49-9.96,1.58-.28.09-14.9-1.4-14.9-1.4Z"/>
                <path class="cls-7" d="m111.92,283.36c-.19.37-2.85,4.47-4.53,6.15-1.68,1.68-7.04,5.81-12.4,6.45l-.52.04c-5.12,0-12.1-4.56-13.78-6.24s-4.94-6.14-5.12-6.52c0,0,2.49,1.47,2.62,1.79.08.19,3.25,2.2,7.3,4.47,2.58,1.44,5.35,3.55,8.44,3.55,3.29,0,5.82-2.19,8.37-3.75,3.63-2.22,6.69-4.06,6.69-4.06l2.92-1.88Z"/>
                <path class="cls-39" d="m85.59,288.45c.28,0,6.12,1.39,8.42,1.25.21-.14.28-1.25.28-1.25l.35,1.18s5.92-.69,7.24-1.11c-.21.14-4.24,2.09-7.79,2.02-3.55-.07-8.49-2.09-8.49-2.09Z"/>
                <path class="cls-20" d="m75.63,283.21c-.46-.12,2.56,1.82,2.56,1.82,0,0,10.02,2.32,16.56,2.32s14.17-2.06,14.17-2.06c0,0,2.87-1.75,3.02-1.95.27-.36-10.12,1.26-14.34,1.26-.32.11-2.32,1.06-6.01.21,0,0-8.58.29-15.96-1.61Z"/>
              </g>
              <g>
                <path class="cls-30" d="m101.83,211.49c-.34-.56-2.93-5.54-10.78-5.54s-18.78,15.4-25.71,19.4c-6.93,4-15.4,12.47-15.4,18.17s2.77,8.62,3.39,10.01c.62,1.39,1.69,6.31,1.23,8.47-.46,2.16-3.23,5.39-3.23,5.39l2.62,3.08s1.85-2.31,1.85-1.85-.62,2.93-.62,2.93l3.7,1.69,1.39-.77s5.08-12.01,5.7-13.7c.31-.15,22.17-3.85,38.49-30.48.16-.92,1.54-9.85-2.62-16.78Z"/>
                <g>
                  <path class="cls-16" d="m104.79,223.81c-4.57,2.02-14.48,6.88-20.86,13.42-.74.76-1.5,1.56-2.28,2.38-6.67,7.01-14.72,15.46-27.36,17.5.07.35.12.7.18,1.06,13.08-2.16,21.53-11.03,27.97-17.81.78-.82,1.53-1.61,2.27-2.37,6.07-6.22,15.4-10.89,20.05-12.98.02-.38.03-.78.03-1.2Z"/>
                  <path class="cls-16" d="m91.79,222.02c-5.02,3.31-10.81,8.64-15.91,13.34-4.11,3.79-8,7.37-10.89,9.36-5.17,3.56-9.04,5.98-13.15,6.26.21.38.41.72.6,1.03,4.2-.47,8.18-2.96,13.17-6.39,2.95-2.03,6.86-5.64,11.01-9.46,5.07-4.68,10.82-9.98,15.77-13.24,6.09-4.01,10.26-3.42,12.21-2.7-.04-.39-.1-.79-.16-1.2-2.37-.7-6.69-.94-12.65,2.99Z"/>
                  <path class="cls-16" d="m103.55,215.28c-.17-.53-.37-1.06-.6-1.59-2.95-1.47-6.63-2.29-10.2-1.15-4.76,1.52-12.64,7.9-27.21,22.01-4.98,4.82-10.16,7.45-15.49,7.86-.06.38-.1.75-.1,1.1h0c5.64-.38,11.11-3.11,16.35-8.18,14.43-13.98,22.19-20.29,26.78-21.75,3.85-1.23,7.8.13,10.47,1.7Z"/>
                </g>
              </g>
            </g>
          </g>
          <g>
            <g>
              <circle class="cls-27" cx="99.88" cy="110.13" r="58.35" transform="translate(-19.38 198.9) rotate(-84.45)"/>
              <circle class="cls-9" cx="97.13" cy="101.97" r="58.35"/>
              <g>
                <path class="cls-9" d="m31.92,118.11c1.77-.38,2.15-1.52,1.87-2.79-.18-.86-.53-1.52-1.18-2.11l1.46-.31c.5.58.85,1.31,1.05,2.21.54,2.51-.53,4.04-2.86,4.54l-.71.15c-2.33.5-3.94-.46-4.48-2.97-.19-.91-.17-1.72.05-2.45l1.46-.31c-.36.81-.4,1.55-.21,2.41.27,1.26,1.07,2.16,2.85,1.78l.71-.15Z"/>
                <path class="cls-9" d="m23.07,111.05l9.31-1.14c.42-.05.55-.24.51-.61-.04-.29-.1-.6-.22-.89l1.3-.16c.1.34.2.79.26,1.22.14,1.16-.31,1.84-1.61,2l-9.36,1.15-.19-1.57Z"/>
                <path class="cls-9" d="m23.76,107.79h-.24c-.52.04-.76-.28-.79-.85-.03-.56.17-.92.69-.95h.24c.53-.05.76.29.79.85.03.58-.16.92-.69.95Zm2.22-.25l-.09-1.58,7.85-.46.09,1.58-7.85.46Z"/>
                <path class="cls-9" d="m37.05,97l-.05,1.58-3.61-.12c.33.53.54,1.25.51,2.07-.08,2.32-1.43,3.27-3.86,3.18l-.74-.03c-2.43-.08-3.7-1.15-3.61-3.79.04-1.29.43-2.31,1.1-3.25l10.28.35Zm-6.96,5.13c1.53.05,2.42-.4,2.47-1.89.03-.73-.18-1.36-.53-1.83l-4.55-.16c-.29.49-.45,1.05-.47,1.64-.06,1.62.79,2.16,2.33,2.21l.76.03Z"/>
                <path class="cls-9" d="m27.03,89.29l.25-1.56,6.97,1.14c.43,1.02.62,2.33.42,3.55-.39,2.37-1.6,3.08-3.79,2.72l-4.69-.77.26-1.56,4.56.75c1.45.24,2.16-.19,2.38-1.55.09-.57.06-1.13-.14-1.7l-6.22-1.02Z"/>
                <path class="cls-9" d="m32.71,85.42c1.49.31,2.27-.45,2.66-1.76.23-.77.26-1.57,0-2.52l1.4.41c.14.85.09,1.69-.15,2.49-.77,2.59-2.45,3.46-4.72,2.79l-.73-.22c-2.27-.67-3.21-2.31-2.53-4.61.66-2.23,2.21-2.75,3.58-2.35,1.44.43,1.79,1.4,1.38,2.77l-.89,3Zm-1.21-.36l.78-2.65c.19-.64.1-1.05-.52-1.23-.8-.24-1.56.13-1.88,1.2-.36,1.21.1,2.22,1.61,2.68Z"/>
                <path class="cls-9" d="m36.79,75.83c-1.48-.75-1.82-1.91-.89-3.75.39-.77.95-1.44,1.48-1.85l-.38-.18c-1.19-.55-1.89-.36-2.58,1.01-.39.77-.55,1.69-.43,2.54l-1.31-.66c0-.82.16-1.7.68-2.72,1.06-2.09,2.48-2.54,4.31-1.62l3.71,1.88c.12,1.18-.16,2.44-.74,3.59-1.13,2.23-2.33,2.53-3.83,1.77Zm3.18-4.3l-1.58-.8c-.5.38-.91.95-1.2,1.54-.61,1.21-.46,1.78.32,2.17.77.39,1.4.15,1.99-1,.32-.62.5-1.31.48-1.9Z"/>
                <path class="cls-9" d="m49.19,65.84l-.88,1.31-3-2.02c0,.62-.21,1.34-.67,2.02-1.3,1.93-2.95,2.01-4.96.65l-.62-.42c-2.02-1.36-2.53-2.93-1.05-5.12.72-1.07,1.59-1.73,2.65-2.17l8.53,5.75Zm-8.61.66c1.27.86,2.26.94,3.09-.3.41-.6.57-1.25.52-1.83l-3.78-2.55c-.51.26-.93.65-1.27,1.14-.91,1.35-.47,2.25.8,3.1l.63.42Z"/>
                <path class="cls-9" d="m44.78,54l1.04-1.19,5.3,4.66c-.18,1.1-.71,2.31-1.53,3.23-1.58,1.8-2.99,1.76-4.65.3l-3.57-3.14,1.04-1.19,3.47,3.05c1.11.97,1.92.98,2.84-.05.38-.43.65-.92.79-1.51l-4.73-4.16Z"/>
                <path class="cls-9" d="m46.1,49.47l-.17-.18c-.35-.38-.27-.77.15-1.17.41-.38.82-.46,1.17-.08l.17.18c.36.39.25.78-.15,1.17-.42.4-.81.47-1.17.08Zm1.62,1.54l1.15-1.08,5.39,5.73-1.15,1.08-5.39-5.73Z"/>
                <path class="cls-9" d="m54.41,46.25c.42-1.07,1.08-1.94,2.14-2.67,2.19-1.51,3.75-1,5.13,1l.42.61c1.38,2,1.31,3.65-.6,4.97-.68.47-1.39.68-2.02.69l2.05,2.98-1.3.9-5.83-8.47Zm5.97-.78c-.87-1.26-1.76-1.7-3.11-.77-.49.34-.87.77-1.13,1.28l2.58,3.75c.58.04,1.24-.13,1.83-.54,1.23-.84,1.13-1.83.26-3.1l-.43-.63Z"/>
                <path class="cls-9" d="m63.8,45.56c-.78-1.46-.39-2.61,1.44-3.58.76-.41,1.61-.63,2.28-.66l-.21-.37c-.65-1.13-1.34-1.39-2.69-.67-.77.41-1.43,1.07-1.82,1.82l-.69-1.3c.47-.68,1.12-1.3,2.12-1.83,2.07-1.09,3.49-.65,4.45,1.16l1.95,3.67c-.59,1.03-1.54,1.9-2.68,2.5-2.21,1.17-3.37.72-4.15-.76Zm5.07-1.68l-.83-1.57c-.62.02-1.29.25-1.87.56-1.19.63-1.4,1.19-.99,1.95.41.76,1.06.93,2.2.33.62-.33,1.16-.79,1.49-1.27Z"/>
                <path class="cls-9" d="m75.53,36.39c-.94-.17-1.79-.13-2.65.2-.53.2-1.03.54-1.4.98l2.25,5.88-1.48.56-2.53-6.59c.69-.88,1.69-1.7,2.84-2.14.87-.33,1.64-.42,2.42-.29l.54,1.4Z"/>
                <path class="cls-9" d="m77.21,39.53c-.42-1.6.22-2.63,2.22-3.16.84-.22,1.71-.24,2.37-.12l-.12-.41c-.38-1.25-.98-1.66-2.47-1.27-.84.22-1.63.71-2.19,1.36l-.37-1.42c.61-.55,1.38-1.01,2.49-1.29,2.26-.59,3.54.17,4.06,2.15l1.05,4.02c-.81.87-1.93,1.49-3.18,1.82-2.42.64-3.44-.07-3.86-1.69Zm5.32-.47l-.45-1.72c-.61-.12-1.31-.05-1.95.12-1.31.34-1.63.84-1.41,1.67.22.84.82,1.15,2.07.82.67-.18,1.31-.5,1.74-.9Z"/>
                <path class="cls-9" d="m90.38,35.7c.14,1.8,1.22,2.33,2.52,2.22.88-.07,1.57-.32,2.25-.89l.12,1.48c-.64.42-1.41.68-2.33.75-2.56.2-3.94-1.06-4.13-3.44l-.06-.73c-.19-2.38.97-3.84,3.53-4.04.92-.07,1.73.06,2.42.37l.12,1.48c-.75-.46-1.48-.6-2.36-.53-1.29.1-2.29.78-2.14,2.59l.06.73Z"/>
                <path class="cls-9" d="m96.39,34.54c.1-2.37,1.42-3.7,3.85-3.59s3.63,1.54,3.53,3.9l-.03.73c-.1,2.37-1.42,3.7-3.85,3.59-2.43-.1-3.63-1.54-3.53-3.9l.03-.73Zm5.8.23c.07-1.67-.75-2.43-2.02-2.49-1.26-.05-2.13.66-2.2,2.31l-.03.76c-.07,1.67.75,2.43,2.02,2.49,1.26.05,2.13-.66,2.2-2.31l.03-.76Z"/>
                <path class="cls-9" d="m106.3,39.56l-1.56-.27,1.21-6.96c1.03-.42,2.34-.6,3.55-.39,2.36.41,3.09,1.63,2.71,3.82l-.81,4.68-1.56-.27.79-4.55c.25-1.45-.19-2.16-1.56-2.4-.57-.1-1.13-.07-1.7.12l-1.08,6.21Z"/>
                <path class="cls-9" d="m117.8,42.33l1.37-4.41c.43-1.38.27-2.11-1.06-2.52-.61-.19-1.38-.12-1.92.1l-1.79,5.77-1.51-.47,3.28-10.59,1.51.47-1.09,3.52c.64-.18,1.53-.21,2.31.03,2.01.62,2.48,1.88,1.82,4.01l-1.41,4.54-1.51-.47Z"/>
                <path class="cls-9" d="m123.18,40.97c-.52,1.43.13,2.31,1.38,2.88.73.33,1.52.47,2.5.35l-.6,1.33c-.86.03-1.69-.15-2.45-.49-2.46-1.12-3.09-2.9-2.11-5.06l.31-.69c.98-2.16,2.74-2.86,4.92-1.87,2.12.96,2.42,2.57,1.83,3.87-.62,1.37-1.63,1.58-2.93.99l-2.85-1.29Zm.52-1.15l2.52,1.14c.61.28,1.02.25,1.29-.35.34-.76.09-1.56-.93-2.03-1.15-.52-2.21-.2-2.88,1.23Z"/>
                <path class="cls-9" d="m130.77,44.3c-.93,1.55-.37,2.6.75,3.28.75.46,1.47.66,2.35.58l-.77,1.27c-.76-.03-1.54-.27-2.33-.75-2.2-1.33-2.58-3.16-1.35-5.2l.38-.62c1.23-2.04,3.03-2.55,5.23-1.22.79.48,1.37,1.06,1.75,1.71l-.77,1.27c-.34-.81-.85-1.35-1.61-1.81-1.1-.67-2.31-.7-3.25.86l-.38.62Z"/>
                <path class="cls-9" d="m136.87,48.75c-.84,1.27-.41,2.28.67,3.12.63.5,1.37.82,2.34.92l-.9,1.15c-.84-.18-1.6-.54-2.26-1.05-2.13-1.66-2.32-3.54-.86-5.41l.47-.6c1.46-1.87,3.33-2.14,5.22-.67,1.83,1.43,1.75,3.06.87,4.19-.93,1.18-1.96,1.15-3.08.27l-2.47-1.92Zm.78-.99l2.18,1.7c.53.41.93.48,1.34-.04.51-.66.45-1.49-.43-2.19-.99-.78-2.1-.71-3.08.52Z"/>
                <path class="cls-9" d="m148.35,55.21c-.23-.93-.63-1.68-1.29-2.33-.4-.39-.92-.71-1.47-.87l-4.42,4.5-1.13-1.11,4.95-5.04c1.09.26,2.25.83,3.13,1.69.66.65,1.06,1.32,1.28,2.08l-1.05,1.07Z"/>
                <path class="cls-9" d="m150.37,60.07c1.93-1.37,3.79-1.15,5.19.83,1.41,1.98,1.01,3.81-.92,5.18l-.59.42c-1.93,1.37-3.79,1.15-5.19-.83-1.41-1.98-1.02-3.81.91-5.18l.59-.42Zm3.38,4.72c1.36-.97,1.46-2.08.72-3.12-.73-1.03-1.82-1.28-3.17-.32l-.62.44c-1.36.97-1.46,2.08-.72,3.12.73,1.03,1.82,1.27,3.17.31l.62-.44Z"/>
                <path class="cls-9" d="m155.81,77.69l-1.27-2.79,8.47-7.07.75,1.66-7.38,6,.2.43,9.38-1.6.75,1.66-10.89,1.72Z"/>
                <path class="cls-9" d="m159.28,79.64c1.58-.49,2.64.1,3.25,2.08.26.83.32,1.7.22,2.36l.4-.14c1.23-.43,1.61-1.06,1.16-2.52-.26-.83-.78-1.6-1.45-2.12l1.41-.44c.58.58,1.07,1.34,1.4,2.43.69,2.23-.01,3.55-1.97,4.16l-3.97,1.23c-.91-.77-1.58-1.86-1.96-3.09-.74-2.39-.08-3.44,1.51-3.94Zm.71,5.3l1.7-.53c.09-.62-.01-1.32-.21-1.94-.4-1.29-.91-1.59-1.73-1.34s-1.11.87-.73,2.1c.21.67.56,1.29.97,1.7Z"/>
                <path class="cls-9" d="m170.49,87.84l-9.19,1.92c-.42.09-.53.28-.45.65.06.28.15.59.29.87l-1.28.27c-.13-.33-.27-.77-.36-1.2-.24-1.14.15-1.86,1.43-2.13l9.23-1.93.32,1.55Z"/>
                <path class="cls-9" d="m167.98,92.17l2.32-.3.2,1.57-2.32.3.29,2.29-1.32.17-.29-2.29-4.22.54c-.78.1-1.08.38-.99,1.11.06.48.19.89.41,1.29l-1.28.17c-.23-.4-.42-1.02-.5-1.6-.21-1.61.62-2.33,2.11-2.52l4.26-.55-.18-1.39,1.33-.17.18,1.39Z"/>
                <path class="cls-9" d="m163.97,99.17c-1.52.15-2.03,1.12-2,2.49.02.8.23,1.57.76,2.4l-1.46.03c-.4-.77-.6-1.58-.61-2.42-.06-2.7,1.28-4.04,3.65-4.09l.76-.02c2.37-.05,3.76,1.23,3.81,3.62.05,2.32-1.26,3.29-2.69,3.32-1.5.03-2.13-.79-2.16-2.22l-.07-3.13Zm1.26-.03l.06,2.76c.01.67.22,1.03.87,1.01.83-.02,1.45-.59,1.42-1.72-.03-1.26-.77-2.08-2.35-2.06Z"/>
                <path class="cls-9" d="m166.2,112.17c.58-.77.91-1.55.99-2.47.05-.56-.03-1.16-.25-1.69l-6.27-.59.15-1.57,7.03.66c.48,1.01.78,2.27.66,3.49-.09.92-.35,1.66-.81,2.3l-1.5-.14Z"/>
              </g>
              <circle class="cls-6" cx="96.64" cy="101.42" r="50.88"/>
              <path class="cls-1" d="m125.57,101.48c-.2-2.35-2.08-4.28-4.44-4.35-2.79-.09-4.97,2.29-4.74,4.99l-.3-3.56c-.2-2.35-2.08-4.27-4.43-4.35-2.79-.09-4.97,2.28-4.75,4.97l-.23-2.69c-.21-2.44-2.23-4.41-4.68-4.36-2.6.05-4.61,2.25-4.51,4.79l-1.12-13.34c-.2-2.35-2.08-4.28-4.44-4.35-2.79-.09-4.97,2.29-4.74,4.99l2.82,33.5-10.76-10.45c-1.69-1.64-4.38-1.86-6.21-.37-2.16,1.76-2.25,4.99-.31,6.87l9.36,9.09,10.6,10.29.34,4.07.29,3.46c.04.44.23.83.51,1.12.08.08.17.16.27.23.1.07.2.12.31.17.16.07.33.12.51.14.12.01.24.02.37,0l25.99-2.19c.5-.04.94-.28,1.24-.64.06-.07.11-.15.16-.22l.07-.12c.04-.07.07-.15.1-.23l.05-.18c.04-.18.06-.38.04-.57l-.31-3.73s.6-.62,1.34-2.01l.07-.13c.09-.17.18-.36.27-.55.05-.1.09-.2.14-.31l.04-.1c.07-.16.14-.32.21-.49v-.03c.25-.58.49-1.24.72-1.99.38-1.26.65-2.55.82-3.85.02-.13.03-.26.05-.4.15-1.33.19-2.67.13-4.01l-.19-4.25-.55-12.56-.1-2.3Z"/>
              <path class="cls-12" d="m122.24,98.31c-.2-2.35-2.08-4.28-4.44-4.35-2.79-.09-4.97,2.29-4.74,4.99l-.3-3.56c-.2-2.35-2.08-4.27-4.43-4.35-2.79-.09-4.97,2.28-4.75,4.97l-.23-2.69c-.21-2.44-2.23-4.41-4.68-4.36-2.6.05-4.61,2.25-4.51,4.79l-1.12-13.34c-.2-2.35-2.08-4.28-4.44-4.35-2.79-.09-4.97,2.29-4.74,4.99l2.82,33.5-10.76-10.45c-1.69-1.64-4.38-1.86-6.21-.37-2.16,1.76-2.25,4.99-.31,6.88l9.36,9.09,10.6,10.29.34,4.07.29,3.46c.04.44.23.83.51,1.12.08.08.17.16.27.22.1.07.2.12.31.17.16.07.33.12.51.14.12.01.24.02.37,0l25.99-2.19c.5-.04.94-.28,1.24-.64.06-.07.11-.15.16-.22l.07-.12c.04-.07.07-.15.1-.23l.05-.18c.04-.18.06-.38.04-.57l-.31-3.73s.6-.62,1.34-2.01l.07-.13c.09-.17.18-.36.27-.55.05-.1.09-.2.14-.31l.05-.1c.07-.16.14-.32.21-.49v-.03c.25-.58.49-1.24.72-1.99.38-1.26.65-2.55.82-3.85.02-.13.03-.26.05-.4.15-1.33.19-2.67.13-4.01l-.19-4.25-.55-12.56-.1-2.3Z"/>
              <path class="cls-9" d="m87.19,67.92c.52-.04.91-.5.87-1.03l-.48-5.72c-.04-.52-.5-.91-1.03-.87s-.91.5-.87,1.03l.48,5.72c.04.52.5.91,1.03.87Z"/>
              <path class="cls-9" d="m98.61,77.57c.04.52.5.91,1.03.87l5.72-.48c.52-.04.91-.5.87-1.03s-.5-.91-1.03-.87l-5.72.48c-.52.04-.91.5-.87,1.03Z"/>
              <path class="cls-9" d="m70.95,80.85l5.72-.48c.52-.04.91-.5.87-1.03s-.5-.91-1.03-.87l-5.72.48c-.52.04-.91.5-.87,1.03s.5.91,1.03.87Z"/>
              <path class="cls-9" d="m94.9,70.38c.2.17.45.24.69.22s.48-.13.65-.33l3.7-4.38c.34-.4.29-1-.11-1.34-.4-.34-1-.29-1.34.11l-3.7,4.38c-.34.4-.29,1,.11,1.34Z"/>
              <path class="cls-9" d="m77.01,92.59c.24-.02.48-.13.65-.33l3.7-4.38c.34-.4.29-1-.11-1.34-.4-.34-1-.29-1.34.11l-3.7,4.38c-.34.4-.29,1,.11,1.34.2.17.45.24.69.22Z"/>
              <path class="cls-9" d="m78.66,71.75c.2.17.45.24.69.22s.48-.13.65-.33c.34-.4.29-1-.11-1.34l-4.38-3.7c-.4-.34-1-.29-1.34.11-.34.4-.29,1,.11,1.34l4.39,3.7Z"/>
              <path class="cls-9" d="m91.39,68.42c.13.04.25.06.38.05.37-.03.7-.28.82-.65l1.8-5.45c.16-.5-.11-1.04-.6-1.2-.5-.16-1.04.11-1.2.6l-1.8,5.45c-.16.5.11,1.04.6,1.2Z"/>
              <path class="cls-9" d="m99.31,81.17c-.5-.16-1.04.11-1.2.6-.16.5.11,1.04.6,1.2l5.45,1.8c.13.04.25.06.38.05.37-.03.7-.28.82-.65.17-.5-.11-1.04-.6-1.2l-5.45-1.8Z"/>
              <path class="cls-9" d="m71.38,73.94l5.45,1.8c.13.04.25.06.38.05.37-.03.7-.28.82-.65.16-.5-.11-1.04-.6-1.2l-5.45-1.8c-.5-.16-1.04.11-1.2.6-.16.5.11,1.04.6,1.2Z"/>
              <path class="cls-9" d="m97.52,73.71c.18.36.55.55.93.52.12,0,.24-.04.35-.1l5.13-2.58c.47-.24.66-.81.42-1.28-.24-.47-.81-.66-1.28-.42l-5.13,2.58c-.47.24-.66.81-.42,1.28Z"/>
              <path class="cls-9" d="m78.63,83.21c-.24-.47-.81-.66-1.28-.42l-5.13,2.58c-.47.24-.66.81-.42,1.28.18.36.55.55.93.52.12,0,.24-.04.35-.1l5.13-2.58c.47-.24.66-.81.42-1.28Z"/>
              <path class="cls-9" d="m82.04,68.59c.18.36.55.55.93.52.12,0,.24-.04.35-.1.47-.24.66-.81.42-1.28l-2.58-5.13c-.24-.47-.81-.66-1.28-.42-.47.24-.66.81-.42,1.28l2.58,5.13Z"/>
              <path class="cls-9" d="m110.6,121.19c-5.21,2.77-11.56,4.34-17.82,3.84-5.41-.38-9.97-2.43-14.02-5.35l10.6,10.29.34,4.07.29,3.46c.04.44.23.83.51,1.12.08.08.17.16.27.22.1.07.2.12.31.17.16.07.33.12.51.14.12.01.24.02.37,0l25.99-2.19c.5-.04.94-.28,1.24-.64.06-.07.11-.15.16-.22l.07-.12c.04-.07.07-.15.1-.23.08-.23.12-.49.1-.75l-.31-3.73s.6-.62,1.34-2.01l.07-.13c.09-.17.18-.36.27-.55.05-.1.09-.2.14-.31l.05-.1c.07-.16.14-.32.21-.49v-.03c.25-.58.49-1.24.72-1.99.38-1.26.65-2.55.82-3.85.02-.13.03-.26.05-.4.15-1.33.19-2.67.13-4.01l-.19-4.25-.55-12.56c-1.61,8.2-4.23,16.53-11.74,20.58Z"/>
            </g>
            <path class="cls-9" d="m102.36,197.05l17.62-31.31c1.3-2.31-.39-5.15-3.03-5.12l-18.37,3.49-17.55-3.09c-2.65.03-4.27,2.91-2.92,5.19l18.3,30.91c1.35,2.28,4.65,2.24,5.95-.07Z"/>
          </g>
        </g>
      </g>
    </g>
  </g>
</svg>