<?xml version="1.0" encoding="UTF-8"?><svg xmlns="http://www.w3.org/2000/svg" viewBox="0 0 151.63 693.16"><defs><style>.cls-1{fill:#8ab9d3;opacity:.25;}.cls-2{fill:#c7d4eb;}.cls-3{fill:#f7b994;}.cls-4{fill:#fff;}.cls-5{fill:#e0966e;}.cls-6{fill:#004991;}.cls-7{fill:#fffffd;}.cls-8{fill:#d9905d;}.cls-9{fill:#045aa0;}.cls-10{fill:#40293d;}.cls-11{fill:#f8ba95;}.cls-12{isolation:isolate;}.cls-13{fill:#5fa3a8;}.cls-14{fill:#472f20;}.cls-15{fill:#9fc7c1;}.cls-16{fill:#73576e;}.cls-17{fill:#85697f;}.cls-18{fill:#583017;}.cls-19{fill:#7a5d75;}.cls-20{fill:#6d8687;}.cls-21{fill:#e38661;}.cls-22{fill:#473930;}.cls-23{fill:#e3976f;}.cls-24{fill:#cbf5ee;}.cls-25{fill:#d18555;}.cls-26{fill:#4d868f;}.cls-27{fill:#3a7ec1;mix-blend-mode:multiply;opacity:.2;}.cls-28{fill:#b5d5ff;}.cls-29{fill:#80657a;}.cls-30{fill:#54939c;}.cls-31{fill:#7d8bb0;}.cls-32{fill:#5b5f66;}.cls-33{fill:#e9f3ff;}.cls-34{fill:#86d1c4;}.cls-35{fill:#171e42;}.cls-36{fill:#467a82;}.cls-37{fill:#bbc7d6;}.cls-38{fill:#4a3047;}.cls-39{fill:#f6b08e;}.cls-40{fill:#508c94;}.cls-41{fill:#422512;}.cls-42{fill:#dfecfe;}.cls-43{fill:#454545;}.cls-44{fill:#edd6ff;}.cls-45{fill:#d4e2fa;}.cls-46{fill:#ffa897;}.cls-47{fill:#231f20;}.cls-48{fill:#f6ac79;}</style></defs><g class="cls-12"><g id="Layer_2"><g id="Camada_1"><g><g><g><g><path class="cls-48" d="m135.47,446.67c-.64.41-6.22,7.96-6.2,7.32.01-.64-3.88-17.14-3.88-17.14l3.9-5.45,6.18,15.27Z"/><g><path class="cls-45" d="m138.28,289.77c1.34.26,7.92,7.88,9.11,19.61,1.19,11.73-3.93,26.24-3.59,32.59.34,6.35,1.1,41.05,2.48,46.91,1.96,8.32,11.54,32.01-3.87,55.25-1.95,2.94-5.26,2.28-5.26,2.28-4.49-4.02-6.76-13.51-8.77-16.59-.39-.6,1.54-5.3,1.38-16.66-.21-14.96-.26-32.01-.26-32.01l-6.77-86.96s6.94-6.07,15.56-4.41Z"/><path class="cls-37" d="m137.15,446.41c-4.49-4.02-6.76-13.51-8.77-16.59-.16-.25.08-1.27.41-3.14l9.94,10.4c.16.46,1.39,4.78,2.02,8.65-1.75,1.04-3.6.68-3.6.68Z"/><g><path class="cls-28" d="m135.84,448.34l-7.84-19.7,1.37-6.2s9.08,8.4,10.59,19.78c-.14.24-4.12,6.12-4.12,6.12Z"/><g><path class="cls-4" d="m133.99,438.22l.59-.25c.21.5.41,1,.61,1.48l.02.05-.6.22.27-.15-.28.12c-.2-.49-.4-.98-.6-1.47Z"/><path class="cls-4" d="m134.95,440.59l.59-.25c.2.5.39.98.57,1.46h0s.04.09.04.09l-.6.22.28-.15-.3.12c-.18-.48-.38-.98-.58-1.48Z"/><path class="cls-4" d="m132.99,435.88l.58-.26c.22.49.43.98.64,1.47l.03.06-.59.24.28-.18-.3.13c-.21-.49-.42-.98-.63-1.46Z"/><path class="cls-4" d="m131.93,433.56l.57-.28c.22.47.44.94.66,1.42h0s.05.1.05.1l-.58.24.27-.17-.29.14c-.22-.49-.44-.97-.67-1.44Z"/><path class="cls-4" d="m128.32,427.25l.1-.46.22-.19c.31.38.63.82.96,1.32h0l.02.03-.54.34.22-.17-.22.15c-.26-.39-.51-.71-.75-1.03Z"/><path class="cls-4" d="m131.52,432.7h0c-.24-.48-.48-.96-.71-1.41l.56-.31c.24.46.48.94.73,1.44l-.04.02.03-.02-.54.35-.03-.06Z"/><path class="cls-4" d="m137.59,445.76c-.15.22-.3.44-.44.65l-.38-1.05.6-.23.22.62Z"/><path class="cls-4" d="m135.87,442.96l.6-.23c.2.52.39,1.02.56,1.5l.02.05-.59.24.28-.18-.32.12c-.17-.47-.36-.97-.56-1.49Z"/><path class="cls-4" d="m130.36,430.44c-.27-.48-.53-.94-.79-1.37l.54-.34c.27.44.53.9.8,1.4l-.08.05.09-.04-.53.35-.02-.05Z"/></g></g><g><path class="cls-37" d="m130.6,379.49c.49.01,8.17,1.01,14.87,1.9-.02-.33-.05-.64-.07-.98-5.38-.71-14.17-1.87-14.78-1.88l-.02.97Z"/><path class="cls-37" d="m147.21,392.15l-13.43-1.23,12.19-4.05c-.04-.31-.08-.63-.12-.98l-14.57,4.84c-.21.07-.35.28-.32.51.02.23.21.41.43.43l16.13,1.48c-.11-.35-.21-.67-.31-1Z"/><path class="cls-37" d="m145.7,384.41c-3.44.04-8.05.08-11.59.11,3.23-.57,7.5-1.31,11.43-1.99-.02-.31-.05-.65-.07-.97-10.1,1.72-14.27,2.44-15.96,2.85,0,.34,0,.72,0,1.1,2.46-.01,10.85-.1,16.27-.15-.03-.29-.06-.65-.08-.97Z"/></g></g></g><path class="cls-35" d="m97.17,250.21c-7.93-5.31-18.23-5.99-30.64-2.03-9.49,3.31-15.64,8.84-18.22,16.42l-1.95-.67c2.8-8.21,9.38-14.16,19.52-17.69,13.05-4.18,23.95-3.42,32.43,2.26l-1.14,1.71Z"/><g><g><g><g><g><g><g><path class="cls-46" d="m88.74,666.13c-.2-.23-.46-.42-.68-.64-.67-.63-1.46-1.17-2.36-1.63-.36-.19-.71-.37-1.11-.52-1.34-.5-2.83-.86-4.66-.86h-1.44c-6.4,0-11.63,4.08-11.63,9.07,0,.95-.23,2.04-.46,3.12-.49,2.21-.94,3.94-.94,3.94,0,0,24.89,1,26.29-2.09.49-1.09.36-6.61-3-10.4Z"/><g><path class="cls-16" d="m119.86,680.26c-21.98-1.95-26.68-8.02-26.68-8.02,0,0-11.19.47-12.25.57-3.58.34-1.78,5.26-1.78,5.26,0,0-13.41-.13-13.4-.57h-.04s-1.13,1.69-1.13,3.73v5.98c0,2.05,1.41,3.73,3.13,3.73h57.79c1.72,0,2.32,0,2.24-3.73-.07-3.44.11-6.24-7.88-6.95Z"/><rect class="cls-10" x="64.59" y="690.13" width="64.27" height="2.07" transform="translate(193.44 1382.34) rotate(180)"/></g></g><path class="cls-29" d="m127.44,684.37c-5.44.21-17.08-.5-17.08-.5l-27.43-4.13s-2.27-3.17-2.7-6.55c.25-.11.35-.35.7-.38,1.06-.1,12.25-.57,12.25-.57,0,0,4.7,6.07,26.68,8.02,5.6.5,7.11,2.06,7.58,4.11Z"/></g><path class="cls-40" d="m121.34,448.24c3.77,6.7,3.96,14.31,3.84,14.78-1.74,6.56-19.66,93.23-20.25,99.12-.59,5.9-13.1,109.33-13.1,109.33l-22.54.19s-2.52-69.32-1.33-81.16c1.19-11.85,7.44-34.97,10.38-53.28,3.16-19.67,1.51-51.26,6.84-75.18,5.33-23.91,31.75-21.65,36.17-13.81Z"/></g><g><path class="cls-26" d="m121.34,448.24c-4.42-7.84-30.84-10.11-36.17,13.81-5.33,23.91-3.68,55.51-6.84,75.18-2.31,14.37-6.62,31.64-8.96,44.16,1.95,1.82,4.11,3.09,6.5,3.59,9.22,1.94,19.74-7.02,29.05-22.73,0-.02.01-.08.01-.1.59-5.89,18.5-92.56,20.25-99.12.12-.47-.06-8.07-3.84-14.78Z"/><g><g><path class="cls-46" d="m69.5,667.09c-.2-.23-.46-.42-.68-.64-.67-.63-1.46-1.17-2.36-1.63-.36-.19-.71-.37-1.11-.52-1.34-.5-2.83-.86-4.66-.86h-1.44c-6.4,0-11.63,4.08-11.63,9.07,0,.95-.23,2.05-.46,3.12-.49,2.21-.94,3.94-.94,3.94,0,0,24.89,1,26.29-2.09.5-1.09.36-6.61-3-10.4Z"/><g><path class="cls-19" d="m100.62,681.21c-21.98-1.95-26.68-8.02-26.68-8.02,0,0-11.19.47-12.25.57-3.58.34-1.78,5.26-1.78,5.26,0,0-13.41-.14-13.4-.57h-.04s-1.13,1.69-1.13,3.73v5.98c0,2.05,1.41,3.73,3.13,3.73h57.79c1.72,0,2.32,0,2.24-3.73-.07-3.44.11-6.24-7.88-6.95Z"/><rect class="cls-38" x="45.35" y="691.09" width="64.27" height="2.07" transform="translate(154.96 1384.25) rotate(180)"/></g></g><path class="cls-17" d="m108.21,685.33c-5.44.21-17.08-.5-17.08-.5l-27.43-4.13s-2.26-3.17-2.7-6.55c.26-.11.35-.35.7-.38,1.07-.1,12.25-.58,12.25-.58,0,0,4.69,6.07,26.68,8.02,5.6.5,7.11,2.06,7.58,4.11Z"/></g><path class="cls-30" d="m102.71,471.29c-4.56,22.44-22.65,92.5-23.8,104.86-.98,10.54-7.63,92.98-6.58,95.52,0,.37-26.75,0-26.75,0,0,0-.74-62.29.34-79.59.76-12.15,11.92-28.08,12.21-34.3.3-6.22-.81-108.69-.81-108.69,0,0,6.74-12.57,27.45-6.55,19.86,5.77,17.93,28.75,17.93,28.75Z"/></g></g><g><path class="cls-30" d="m58.38,432.76s-10.93,23.5.08,36.31c3.3.77,44.25,2.22,44.25,2.22l22.46-8.27,3.52-30.26H58.38Z"/><path class="cls-26" d="m57.33,439.51v9.58s1.11,102.47.81,108.69c-.02.36-.18.85-.27,1.27,8.12-.01,19.64.17,19.64.17l-2.65-.18,14.7-118.61c-1.26-.18-32.24-.93-32.24-.93Z"/></g><g><path class="cls-13" d="m125.94,357.18c0-5.17,12.68-32.2,12.26-62.1-6.28-12.92-24.36-19.79-29.61-23.93-4.96-4.96-9.97-11.07-9.97-11.07.51,1.13-18.47-8.35-18.47-8.35l-15.79,4.52s-6.78,4.84-11.52,9c-8.18,7.18-29.54,17.72-36.55,23.63-7.02,5.91,2.95,29.91,2.95,29.91,0,0,31.2,51.63,40.76,71.02,6.34,12.86-2.82,75.32-2.82,75.32l65.58,1.45c1.36-2.06,3.19-104.23,3.19-109.4Z"/><g><path class="cls-11" d="m80.63,250c-10.51-.12-21.98,8.7-21.98,8.7,0,0,34.81,44.59,36.98,44.59-.02-1.27,5.47-30.48,5.47-41.15-2.82-3.08-11.75-12.04-20.47-12.14Z"/><path class="cls-42" d="m95.63,303.29c-.01-.82,2.23-13.12,3.85-24.66h-25.05c9.52,11.88,20.04,24.66,21.2,24.66Z"/></g><g><path class="cls-26" d="m86.39,344.45c-1.58-32.7-21.03-73.4-20.78-74.38l-5.35-10.8c-.16.12-.35.28-.52.4l5.34,205.62,18.68.41c.9-20.22,3.99-93.21,2.63-121.26Z"/><path class="cls-26" d="m126.63,353.78c.75-2.72,2.05-6.61,3.55-11.46.56-1.82,1.15-3.78,1.74-5.84.23-.81.46-1.68.69-2.53.49-1.81.98-3.71,1.45-5.66.19-.78.38-1.53.56-2.33.03-.13.05-.27.08-.41-.4-13.24-.77-25.94-1.09-36.94h0c-6.68-7.37-16.6-12.23-22.21-15.6-.11-.07-.24-.14-.35-.21-.96-.59-1.82-1.14-2.46-1.64-1.51-1.51-2.97-3.09-4.35-4.61-.46-.51-.8-.89-1.23-1.37-.94-1.06-1.73-1.95-2.41-2.76-.1-.12-.27-.3-.36-.41-.18,1.56-.23,3.18-.09,4.85.24,2.94,6.19,52.29,6.74,61.99.49,8.5-1.14,112.87-1.47,137.35l16.97.38c1.39-13.73,3.56-104.57,3.56-109.39,0-.59.21-1.55.5-2.67.06-.23.12-.47.19-.73Z"/></g></g></g><path class="cls-36" d="m51.67,468.86s2.4.91,6.17,2.1h61.45c1.69-2.32,1.57-4.37,1.57-4.37l-.05-1.29H51.86l-.19,3.56Z"/><g><path class="cls-11" d="m97.89,230.85c-.22.94-1.91,21.92-2.22,23.66-.32,1.75,3.14,15.41-13.37,16.29-16.5.88-17.7-13.7-17.94-14.56-.24-.86-1.57-22.38-1.57-22.38,0,0,12.55-12.86,16.36-12.7,3.81.16,19.22,7.62,18.74,9.69Z"/><path class="cls-23" d="m80.55,263.93c3.09.05,10.42-3.01,15.2-6.66-.04-1.32-.15-2.37-.08-2.76.32-1.74,2.01-22.72,2.22-23.66.05-.23-.15-.56-.47-.91-.1-.11-.25-.24-.39-.37-.29-.26-.63-.55-1.04-.85-.22-.16-.44-.32-.69-.48-.48-.32-1.02-.65-1.59-.99-.25-.15-.47-.29-.73-.44-.03-.02-.06-.03-.09-.05-6.92-.44-14.29-.9-20.98-1.33-.16.14-.33.28-.49.42-.88.74-1.76,1.49-2.6,2.25-.25.23-.49.45-.74.67-.76.69-1.49,1.37-2.13,1.99-.2.19-.41.39-.6.57-.6.58-1.14,1.1-1.54,1.51-.1.1-.26.25-.35.34-.36.36-.67.67-.67.67,0,0,1.1,17.77,1.48,21.54,5.52,3.58,13.73,8.49,16.28,8.53Z"/></g></g><g><g><g><g><path class="cls-42" d="m110.67,332.44c-1.23-31.69-9.57-70.29-9.57-70.29,3.12,2.1,19.16,14.45,34.41,25.29,10.21,16.91-2.37,53.19-2.37,53.19l-1.47,38.77-1.19,54-4.74,120.4h-27.7s17.62-115.36,12.62-221.36Z"/><path class="cls-42" d="m16.11,326.1c-9.62-28.47-3.08-36.48-3.08-36.48,0,0,36.42-27.06,46.68-31.47-.16,1.09,17.32,48.65,20.6,79.05.84,7.74,3.15,22.6,3.21,41.01.19,63.71-11.57,175.59-11.57,175.59h-34.16s15.39-141.65,11.26-165.01c-4.13-23.36-29.58-52.78-32.93-62.69Z"/></g><path class="cls-45" d="m131.08,406.55s-16,112.29-22.35,147.25h11.4c1.84-14.27,5.26-41.81,8.48-72.74l1.88-47.66.59-26.85h0Z"/><path class="cls-37" d="m49.41,391.81c.03.28.04.6.07.89,0,0,0,.02.01.02-.02-.27-.05-.63-.08-.92Z"/></g><path class="cls-37" d="m59.41,259.67s17.61,47.12,20.89,77.53c1.03,9.56,2.14,24.46,3.21,41.01-2.83-5.14-26.38-76.25-26.38-76.25l7.88-4.5-10.62-1.62-2.88-32.55,7.91-3.61Z"/><g><path class="cls-45" d="m59.71,258.15s17.32,48.65,20.6,79.05c1.01,9.32,3.21,27.43,3.13,39.76l-23.64-73.81,8-5.87-11.38-3.16s-3.24-19.06-4.99-31.32l8.28-4.65Z"/><g><polygon class="cls-37" points="108.42 267.44 121.41 293.8 113.69 297.93 121.1 301.25 122.68 301.96 111.23 375.68 120.01 303.94 113.23 300.72 111.71 292.6 116.49 291.09 108.42 267.44"/><path class="cls-45" d="m108.42,267.44l10.6,25.82-5.33,4.67,7.14,3.94s-4.62,59.12-9.28,75.08c-.27-12.77-.43-32.06-.96-46.34-1.23-31.69-11.06-70.11-11.06-70.11,1.89,1.46,4.25,3.51,8.9,6.94Z"/></g></g></g><g><path class="cls-2" d="m50.37,444.03s10.79-7.38,21.25-3.8c0,0-12.36,7.38-21.25,3.8Z"/><path class="cls-33" d="m71.61,440.23s.23,32.23.47,34.01c.24,1.79-2.74,5.84-6.31,6.44-3.58.6-10.37,1.19-10.37,1.19,0,0-4.87-2.62-4.88-5.96,0-3.34-.15-31.89-.15-31.89l21.25-3.8Z"/></g></g></g><g><g><path class="cls-15" d="m120.54,312.52c1.22-1.77,1.76-4.04,1.29-6.14-.47-2.1-1.99-3.98-4.01-4.72-2.02-.75-4.48-.26-5.96,1.31-2,2.13-1.81,5.6-.49,8.2.56,1.11,1.32,2.14,2.33,2.86,1.01.72,2.29,1.11,3.51.89,1.38-.25,2.53-1.24,3.33-2.4Z"/><path class="cls-20" d="m119.2,302.39c-.57-.1-.95-.11-.95-.11,0,0-4.56,1.97-2.09,7.33.16.36,1.12,3.18,1.82,5.07,1.04-.42,1.91-1.23,2.55-2.16,1.22-1.77,1.76-4.04,1.29-6.14-.36-1.59-1.31-3.04-2.62-3.98Z"/><path class="cls-34" d="m117.02,303.37c-.67,1.14-.83,2.58-.42,3.84.41,1.26,1.38,2.33,2.6,2.85,1.6.69,3.71.3,4.65-1.16.84-1.32.56-3.08-.13-4.48-.8-1.63-2.42-3.12-4.22-2.86-1.05.15-1.95.89-2.48,1.81Z"/><path class="cls-31" d="m111.86,302.97c-2,2.13-1.81,5.6-.49,8.2.56,1.11,1.32,2.14,2.33,2.86.92.66,2.07,1.04,3.19.93,0,0-.01,0-.02-.01-1.8-1.08-3.33-2.66-4.17-4.59-.84-1.93-.93-4.2-.08-6.12.53-1.18,1.43-2.2,2.53-2.87-1.24.15-2.43.69-3.29,1.6Z"/><path class="cls-4" d="m112.29,304.17c-1.03,1.83-.75,4.2.08,6.12.76,1.75,2.1,3.25,3.76,4.17-1.48-1.05-2.71-2.45-3.43-4.1-.84-1.93-.93-4.2-.08-6.12.36-.81.91-1.53,1.57-2.13-.66.44-1.32,1.05-1.9,2.06Z"/><path class="cls-24" d="m120.76,301.66c-.4-.12-.82-.16-1.26-.1-1.05.15-1.95.89-2.48,1.81-.67,1.14-.83,2.58-.42,3.84.41,1.26,1.38,2.33,2.6,2.85.65.28,1.39.37,2.1.3-1.06-.47-2-1.2-2.62-2.17-.89-1.37-1.08-3.23-.31-4.67.49-.92,1.39-1.6,2.39-1.86Z"/><path class="cls-4" d="m117.96,303.3c-.94,1.34-.58,3.3.31,4.67.55.85,1.35,1.5,2.25,1.97-.73-.45-1.37-1.03-1.83-1.75-.89-1.37-1.08-3.23-.31-4.67.34-.63.89-1.15,1.52-1.5-.69.18-1.39.51-1.93,1.28Z"/><path class="cls-4" d="m115.3,305.82c.18.04-2.26.45-3.17.07.02-.13.38-1.47.6-1.88-.1.22.96,1.49,2.58,1.81Z"/></g><g><g><path class="cls-35" d="m52.49,301.02c.61,1.06.95,1.58,1.82,2.99l.77-.48.73-.54c-.8-1.3-1.18-1.9-1.74-2.87,0,0-.86-1.59-1.01-1.25-.16.36-.76,1.55-.57,2.15Z"/><path class="cls-35" d="m62.39,323.44c-3.36-2.71-6.19-6.17-8.19-10.01-.89-1.7-2-4.26-1.43-6.85.32-1.44,1.31-2.8,2.6-3.55,1.06-.61,2.23-.77,3.3-.43,1.4.44,2.34,1.57,3.15,2.72,2.74,3.89,4.77,8.4,5.86,13.03l-1.78.16c-1.04-4.41-2.95-8.45-5.56-12.16-.63-.89-1.33-1.75-2.22-2.03-.74-.23-1.41.02-1.85.27-.85.49-1.53,1.42-1.74,2.37-.44,2.01.51,4.17,1.27,5.62,1.88,3.61,4.31,6.7,7.48,9.26l-.9,1.58Z"/><g><path class="cls-31" d="m78.68,339.37c-.81.54-1.74.89-2.73.96-1.86.13-3.83-.64-5.42-2.12-1.48-1.38-2.46-3.17-3.14-4.58-.54-1.11-1.02-2.22-1.48-3.3-1.13-2.63-2.2-5.11-4.02-7.32l1.4-1.15c1.99,2.41,3.1,5.01,4.28,7.76.45,1.06.92,2.15,1.44,3.22.61,1.26,1.48,2.87,2.74,4.04,1.22,1.14,2.7,1.74,4.06,1.64,2.08-.15,3.9-2.18,3.81-4.27l1.81-.07c.08,2.07-1.07,4.06-2.76,5.19Z"/><path class="cls-34" d="m67.3,330.45c.45,1.06.92,2.15,1.44,3.22.61,1.26,1.48,2.87,2.74,4.04,1.22,1.14,2.7,1.74,4.06,1.64,2.08-.15,5.11-1.98,4.73-5.13l-.64.03c.09,2.09-1.73,4.12-3.81,4.27-1.36.1-2.84-.5-4.06-1.64-1.26-1.17-2.13-2.78-2.74-4.04-.52-1.07-.99-2.17-1.44-3.22-1.18-2.75-2.3-5.35-4.28-7.76l-.78.64c1.88,2.36,3.67,5.35,4.79,7.96Z"/><path class="cls-31" d="m74.1,343.57s-.1.06-.15.1c-1.03.64-2.18.79-3.23.43l.59-1.71c.67.23,1.29-.01,1.69-.26.84-.52,1.48-1.5,1.61-2.46.26-1.94-.73-4-1.54-5.65-1.23-2.52-2.44-5.21-3.61-7.81-1.16-2.59-2.37-5.27-3.59-7.77l1.63-.79c1.23,2.52,2.44,5.21,3.61,7.81,1.16,2.59,2.37,5.27,3.59,7.76.91,1.87,2.05,4.2,1.71,6.68-.2,1.45-1.07,2.84-2.3,3.66Z"/><path class="cls-34" d="m73.62,342.49c.84-.52,1.48-1.5,1.61-2.46.26-1.94-.74-4-1.54-5.65-1.23-2.52-2.44-5.21-3.61-7.81-1.08-2.4-2.6-5.86-3.78-8.34l-.43.21c1.22,2.5,2.42,5.17,3.59,7.77,1.17,2.6,2.38,5.29,3.61,7.81.81,1.65,1.8,3.7,1.54,5.65-.13.96-.77,1.94-1.61,2.46-.4.25-1.02.49-1.69.26l-.14.4c.74.15,2.09-.07,2.45-.29Z"/></g></g><g><g><path class="cls-43" d="m82.21,333.02c-.31,1.41-1.17,2.01-1.84,1.9-.72-.12-1.09-.94-1.25-2.18-.21-1.64.89-2.13,1.77-2.02.88.11,1.67.73,1.32,2.29Z"/><path class="cls-32" d="m80.94,330.73s-.03,0-.05-.01c-.87-.11-1.98.38-1.77,2.02,0,.01,0,.02,0,.03.18.53.57.91,1.05.94.69.04,1.3-.65,1.35-1.54.04-.61-.21-1.15-.59-1.44Z"/></g><g><path class="cls-43" d="m69.77,344.84c1.44-.07,2.18-.83,2.18-1.51,0-.73-.75-1.23-1.94-1.59-1.58-.48-2.25.53-2.28,1.41-.04.88.45,1.77,2.05,1.68Z"/><path class="cls-32" d="m67.73,343.21s0-.03,0-.05c.04-.88.7-1.89,2.28-1.41.01,0,.02,0,.03,0,.49.26.81.71.76,1.19-.07.69-.85,1.17-1.74,1.08-.61-.07-1.1-.4-1.33-.82Z"/></g></g></g><g><path class="cls-35" d="m118.84,301.59l-2.06.11c-1.57-26.5-8.17-43.83-19.61-51.5l1.14-1.71c12.01,8.05,18.92,25.91,20.53,53.09Z"/><path class="cls-35" d="m54.21,304.08c-.57-.91-13.88-22.51-7.84-40.15l1.95.67c-5.73,16.7,7.5,38.17,7.64,38.39l-1.75,1.09Z"/></g></g><g><g><g><path class="cls-48" d="m67.13,451.04l-10.65-14.5-17.4,7.1s5.48,1.89,11.38,8.58c.12.14,1.8,2.79,1.8,4.09,0,1.3-1.46,4.83-.93,7.36.53,2.53,2.2,7.1,2.2,7.1,0,0,9.57-3.07,13.6-19.73Z"/><path class="cls-8" d="m54.7,458.11c-.82,3.06.02,8.41.02,8.41,0,0,5.3-2.61,6.73-4.23,1.04-1.19,3.81-8.1,5.36-11.68l.31.42c-4.04,16.66-13.6,19.73-13.6,19.73,0,0-1.68-4.57-2.2-7.1-.52-2.53.93-6.06.93-7.36,0-.17-.03-.37-.08-.58-.02-.07-.04-.14-.06-.21-.05-.15-.09-.3-.15-.46-.03-.07-.06-.14-.09-.21-.07-.17-.15-.35-.23-.52-.02-.04-.04-.08-.06-.12-.1-.21-.21-.41-.31-.61h0s0,0,0,0c-.19-.35-.36-.66-.51-.89h0s0,0,0,0c0,0,0,0,0,0-.15-.25-.27-.43-.3-.46-.91-1.04-1.8-1.92-2.68-2.73.17-.24,7.4,6.83,6.92,8.63Z"/></g><g><path class="cls-45" d="m38.12,427.85c.7-.15,1.6-.35,2.69-.56,3.3-.64,6.55-1.45,9.77-2.35,5,8.95,9.15,16.07,9.03,16.01-1.58,1.29-14.53,11.71-14.53,11.71,0,0-8.84-8.44-17.09-17.56,3.44-2.34,6.83-4.78,10.12-7.24Z"/><g><polygon class="cls-28" points="59.62 440.93 53.38 429.89 36.64 444.25 45.09 452.64 59.62 440.93"/><path class="cls-7" d="m41.87,445.21c-.09.84.53,1.6,1.37,1.68.84.09,1.6-.53,1.68-1.37.09-.84-.53-1.6-1.37-1.68-.84-.09-1.6.53-1.68,1.37Z"/></g></g></g><path class="cls-45" d="m58.34,435.87l-23.61,13.69c-3.43-1.23-30.71-30.03-34.54-56.8-1.64-2.25,7.52-85.79,7.52-85.79,0,0,4.44-22.74,11.15-21.4,6.71,1.34,20.29-2.1,29.57,38.39.3,10.72-14.89,57.72-14.89,57.72,0,0,15.15,42.13,24.79,54.19Z"/><path class="cls-33" d="m67.61,446.34c.06-.86,6.41,11.63,7.55,15.87,1.23,4.56,2,18.77,2,18.77,0,0-12.26,12.25-25.06,6.88-.04-.43-3.82-15.58-3.82-15.58,0,0,17.8-3.12,19.33-25.95Z"/></g></g><g><path class="cls-18" d="m105.31,184.79c-.05.26-10.75,6.71-25.36,6.71s-21.63-5.19-21.63-5.19c0,0-1.91-1.76-1.2-3.75.72-2,2.63-6.39,9.02-6.39.2-.2,5.19-10.3,16.12-4.23.08.08,14.61-9.1,18.36,6.79.32.16,5.85.56,4.68,6.07Z"/><path class="cls-18" d="m56.32,209.2s1.09-17.55,2.66-22.44c1.57-4.89,4.65-10.58,21.52-10.58s17.61,5.71,20.04,7.88c2.43,2.17,3.38,9.77,3.14,26.9-.81-.24-47.36-1.77-47.36-1.77Z"/><g><path class="cls-23" d="m101.92,224.78c.16.27,2.56.08,3.87-3.1.65-2.14,1.85-11.63,1.85-11.63,0,0-.65-2.73-3.87-1.42-.98.33-2.37.99-2.37.99l.51,15.16Z"/><path class="cls-23" d="m58.47,224.78c-.16.27-2.56.08-3.87-3.1-.65-2.14-1.85-11.63-1.85-11.63,0,0,.66-2.73,3.87-1.42.98.33,2.37.99,2.37.99l-.51,15.16Z"/></g><g><path class="cls-3" d="m87.64,185.38c.73.11,9.13,1.53,11.6,5.62,2.21,3.66,2.58,14.71,2.59,16.31.11,10.4.54,18.86.54,18.86,0,0,0,6.23-2.83,9.91-1.73,2.25-5.41,6.08-8.02,8.72-1.66,1.69-1.99,2.41-2.89,2.89-3.73,1.97-13.03,2.59-16.85-.52-.46-.37-.95-.77-1.44-1.2-5.87-5.15-12.87-14.43-12.87-14.43,0,0-1.13-4.82-.28-10.76.85-5.95,1.42-26.91,4.39-29.74,2.97-2.83,12.89-7.65,26.06-5.66Z"/><g><g><path class="cls-39" d="m94.45,221.97c-1.12,2.86-.42,5.81,1.57,6.59,1.99.78,4.52-.9,5.64-3.76,1.12-2.86.42-5.81-1.57-6.59-1.99-.78-4.52.9-5.64,3.76Z"/><path class="cls-39" d="m65.53,223.07c.91,2.81.06,5.6-1.9,6.24-1.96.63-4.29-1.13-5.2-3.94-.91-2.81-.06-5.6,1.9-6.24,1.96-.63,4.29,1.13,5.2,3.94Z"/></g><path class="cls-3" d="m80.46,245.95c4.67,0,6.68-5.95,5.77-6.14-.9-.18-5.11.56-5.97.54-1.3-.03-4.78-.72-5.68-.54-.9.18,1.32,6.14,5.88,6.14Z"/></g><path class="cls-18" d="m103.15,207.63l-1.94-8.85.96,21.69c-.72,4.89-2.97,8.68-5.14,8.5-1.32-3.55-10.73-3.42-10.73-3.42h-11.44s-7.03-.77-11.02,2.81c-2.16.18-4.13-2.99-4.85-7.88l-.7-12.54-1.42.33s-1.12,29.96-.04,33.22c1.02,3.08,6.08,13.75,22.29,14.92.32.04,2.55.04,2.91,0,16.21-1.17,21.27-11.84,22.29-14.92,1.08-3.26-1.18-33.86-1.18-33.86Z"/><g><path class="cls-41" d="m76.06,204.34c.2-.03-.27-4.99-.47-4.92-.2.07-.74,1.21-.74,1.21l-1.55-.13s-8.97-1.08-9.51-.94c-.54.14-4.92,4.99-5.4,6.27.2.07.47.27.47.27,0,0,3.78-2.7,5.93-2.7s9.51.74,9.51.74l.54-.13s-.13.54,1.21.34Z"/><g><path class="cls-4" d="m72.37,208.2c.1.26-.17,1.76-.72,2.43-.55.66-4.14.55-4.14.55l-2.02-.09s-2.72-.18-3-1.95c-.28-1.76,1.21-4.14,3.59-4.25,2.37-.11,5.07.22,6.29,3.31Z"/><path class="cls-14" d="m69.31,211.18s-1.31.09-1.77.09c-.51,0-2.04-.18-2.04-.18-.94-.63-1.57-1.71-1.57-2.94,0-1.95,1.57-3.53,3.51-3.53s3.51,1.58,3.51,3.53c0,1.23-.69,2.41-1.63,3.04Z"/><path class="cls-23" d="m72.26,211.17s-1.88,1.49-3.48,1.77c-1.6.28-6.07-.11-7-3.31,0-.22,1.43,2.48,6.01,2.32,3.36-.17,4.47-.77,4.47-.77Z"/><path class="cls-23" d="m73.37,210.24s-.33-3.25-.99-4.36c-.66-1.1-4.41-3.09-7.67-1.82-3.25,1.27-3.81,3.14-4.14,4.8.05-.05.81.08.81.08,0,0,.68-3.23,6.8-3.23,3.03,0,4.25,3.53,4.52,5.24.05.11.66-.72.66-.72Z"/><path class="cls-47" d="m67.44,206.93c-.7,0-1.26.57-1.26,1.26s.57,1.26,1.26,1.26,1.26-.57,1.26-1.26-.57-1.26-1.26-1.26Z"/><path class="cls-4" d="m67.9,207.13c0,.39.31.7.7.7s.7-.31.7-.7-.31-.7-.7-.7-.7.31-.7.7Z"/></g></g><path class="cls-39" d="m80.37,216.01c-2.8.27-5.19,6.38-5.8,9.27.11.37,3.29,2.87,6.08,2.83,2.78-.03,5.9-2.83,5.9-2.83,0,0-3.74-9.5-6.17-9.27Z"/><g><path class="cls-25" d="m76.51,202.73s.11.27.27.74c.17.47.39,1.16.63,1.98.12.41.25.86.37,1.34.12.48.26.98.38,1.5.12.52.26,1.06.36,1.61.12.55.22,1.11.33,1.68.1.56.19,1.13.28,1.69.1.56.14,1.11.22,1.64.07.53.1,1.05.15,1.55.04.49.05.96.07,1.39.02.43,0,.83,0,1.18,0,.35-.02.66-.04.91-.04.5-.06.79-.06.79,0,0-.04-.29-.11-.78-.03-.25-.07-.55-.12-.89-.05-.34-.11-.73-.17-1.15-.07-.42-.14-.88-.22-1.36-.08-.48-.17-.99-.26-1.52-.19-1.05-.37-2.17-.59-3.29-.1-.56-.19-1.12-.3-1.67-.1-.55-.19-1.09-.29-1.62-.09-.53-.18-1.04-.26-1.52-.09-.48-.16-.94-.23-1.36-.28-1.69-.43-2.83-.43-2.83Z"/><path class="cls-25" d="m84.98,221.06s.02.03.05.08c.03.05.08.12.14.21.12.18.3.43.49.74.2.31.41.68.62,1.09.1.21.21.42.3.65.1.22.19.46.26.71.02.06.04.13.05.2.02.07.03.13.04.21l.02.12v.06s0,.09,0,.09c0,.06-.01.11-.02.17h0s-.04.13-.02.07h0s0,.01,0,.01v.02s-.03.04-.03.04l-.02.04-.05.07s-.07.09-.1.13c-.04.05-.06.06-.09.09l-.08.07c-.11.09-.21.16-.31.23-.21.13-.41.24-.6.33-.19.09-.38.17-.56.24-.35.13-.65.22-.86.27-.21.05-.34.07-.34.07,0,0,.09-.08.26-.22.17-.14.41-.33.7-.55.29-.22.63-.47.95-.75.15-.13.33-.31.34-.35.02.03-.02-.21-.09-.42-.06-.21-.14-.44-.22-.66-.08-.22-.15-.44-.23-.65-.15-.43-.28-.83-.37-1.19-.1-.35-.17-.66-.2-.88-.04-.22-.03-.34-.03-.34Z"/><path class="cls-25" d="m76.12,221.06s0,.12-.03.34c-.04.22-.1.52-.2.88-.1.36-.23.76-.37,1.19-.07.21-.15.43-.23.65-.08.22-.16.44-.22.66-.07.2-.11.45-.09.42.01.03.19.22.34.35.32.27.67.52.95.75.29.22.53.41.7.55.17.14.26.22.26.22,0,0-.13-.02-.34-.07-.21-.05-.51-.14-.86-.27-.17-.07-.36-.14-.56-.24s-.4-.2-.6-.33c-.1-.07-.21-.14-.31-.23l-.08-.07s-.05-.04-.09-.09c-.04-.04-.07-.09-.1-.13l-.05-.07-.02-.04-.02-.04v-.02s-.01-.01-.01-.01h0c.02.05-.03-.08-.02-.07h0c0-.06-.02-.12-.02-.18v-.09s0-.06,0-.06v-.12c.02-.08.04-.14.06-.21.02-.07.03-.14.05-.2.08-.25.17-.49.26-.71.1-.23.2-.44.3-.65.21-.41.42-.78.62-1.09.19-.31.37-.57.49-.74.06-.09.11-.16.14-.21.03-.05.05-.08.05-.08Z"/><path class="cls-25" d="m84.19,224.78s-.03.03-.08.08c-.03.02-.06.06-.1.09-.03.04-.07.08-.12.13-.08.09-.18.23-.29.38-.11.15-.22.33-.34.52-.25.39-.53.85-.92,1.32-.2.23-.42.47-.71.68-.29.2-.66.37-1.08.38h0s-.06,0-.05,0h0s-.01,0-.01,0h-.03s-.06,0-.06,0h-.11s-.09-.03-.14-.04l-.16-.05c-.11-.03-.19-.07-.27-.12-.08-.04-.17-.08-.23-.14-.3-.19-.52-.42-.73-.64-.41-.45-.71-.89-.99-1.25-.14-.18-.27-.34-.39-.48-.06-.07-.12-.13-.17-.18-.05-.06-.11-.11-.16-.15-.05-.04-.1-.08-.14-.11-.04-.03-.08-.05-.11-.07-.06-.04-.1-.06-.1-.06,0,0,.04,0,.11.01.07,0,.19.02.32.08.07.02.14.05.22.09.08.04.16.08.24.14.17.1.35.23.53.39.37.3.75.69,1.17,1.06.21.17.42.36.64.48.05.04.11.06.16.08.06.03.11.05.15.06.02,0,.04.01.06.02.02,0,.04.02.08.02h.11s.06.02.06.02h.03s.01,0,.01,0h0s-.08,0-.04,0h0c.2,0,.41-.09.63-.22.22-.13.42-.32.62-.5.39-.38.75-.79,1.09-1.12.17-.17.33-.31.48-.44.15-.12.29-.22.42-.29.06-.04.12-.07.17-.09.05-.02.09-.03.13-.04.07-.02.11-.04.11-.04Z"/></g><g><path class="cls-41" d="m83.74,204.34c-.2-.03.27-4.99.47-4.92.2.07.74,1.21.74,1.21l.54-1.15,1.01,1.01s8.97-1.08,9.51-.94c.54.14,4.92,4.99,5.4,6.27-.2.07-.47.27-.47.27,0,0-3.78-2.7-5.93-2.7s-9.51.74-9.51.74l-.54-.13s.14.54-1.21.34Z"/><g><path class="cls-4" d="m87.43,208.2c-.1.26.17,1.76.72,2.43.55.66,4.14.55,4.14.55l2.02-.09s2.72-.18,3-1.95-1.21-4.14-3.59-4.25c-2.37-.11-5.07.22-6.29,3.31Z"/><path class="cls-14" d="m90.5,211.18s1.31.09,1.77.09c.51,0,2.04-.18,2.04-.18.95-.63,1.57-1.71,1.57-2.94,0-1.95-1.57-3.53-3.51-3.53s-3.51,1.58-3.51,3.53c0,1.23.69,2.41,1.63,3.04Z"/><path class="cls-23" d="m87.54,211.17s1.88,1.49,3.47,1.77c1.6.28,6.07-.11,7-3.31,0-.22-1.43,2.48-6.01,2.32-3.36-.17-4.47-.77-4.47-.77Z"/><path class="cls-23" d="m86.44,210.24s.33-3.25.99-4.36c.66-1.1,4.41-3.09,7.67-1.82,3.25,1.27,3.81,3.14,4.14,4.8-.06-.05-.81.08-.81.08,0,0-.68-3.23-6.8-3.23-3.03,0-4.25,3.53-4.52,5.24-.05.11-.66-.72-.66-.72Z"/><path class="cls-47" d="m92.36,206.93c-.7,0-1.26.57-1.26,1.26s.57,1.26,1.26,1.26,1.26-.57,1.26-1.26-.57-1.26-1.26-1.26Z"/><path class="cls-4" d="m94.53,207.13c0,.39-.31.7-.7.7s-.7-.31-.7-.7.31-.7.7-.7.7.31.7.7Z"/></g></g><g><path class="cls-22" d="m67.12,229.15v.98l8.92,6.38s5.86.46,6.19.52c.33.07,9.64-5.67,9.64-5.67l1.17-1.69-5.34.72-7.3.72-13.29-1.96Z"/><path class="cls-4" d="m69.98,229.92c.15.36.8,3.26.8,3.26,0,0,6.31,4.13,9.28,4.13s8.99-3.92,8.99-3.92c0,0,.36-3.84.29-3.63-.07.22-7.54,1.16-7.76,1.23-.22.07-11.61-1.09-11.61-1.09Z"/><path class="cls-5" d="m94.09,228.85c-.15.29-2.22,3.49-3.53,4.79-1.31,1.31-5.48,4.52-9.66,5.02l-.4.03c-3.99,0-9.43-3.55-10.74-4.86-1.3-1.31-3.84-4.79-3.99-5.08,0,0,1.94,1.14,2.04,1.39.06.15,2.53,1.72,5.69,3.48,2,1.12,4.16,2.77,6.57,2.77,2.57,0,4.53-1.7,6.52-2.92,2.83-1.73,5.21-3.16,5.21-3.16l2.28-1.47Z"/><path class="cls-44" d="m73.58,232.82c.22,0,4.77,1.08,6.56.98.16-.11.22-.98.22-.98l.27.92s4.61-.54,5.64-.87c-.16.11-3.31,1.63-6.07,1.57-2.77-.05-6.61-1.63-6.61-1.63Z"/><path class="cls-21" d="m65.82,228.74c-.36-.09,2,1.42,2,1.42,0,0,7.81,1.81,12.9,1.81s11.04-1.6,11.04-1.6c0,0,2.24-1.37,2.35-1.52.21-.28-7.89.98-11.17.98-.25.08-1.81.82-4.68.16,0,0-6.68.23-12.43-1.25Z"/></g></g><path class="cls-18" d="m102.05,182.84c.19,1.88-4.53,8.15-23.38,8.15s-22.29-7.61-21.2-9.06c1.09-1.45,2.54-.18,3.26-3.44.72-3.26,2.54-5.8,6.16-4.89,2.9.36,5.25-9.6,14.86-8.15,1.81,1.09.36,2.72.72,2.9.36.18,9.24-3.62,11.24-.36,1.99,3.26-.18,4.71-.18,4.71,0,0,8.7,1.09,7.25,4.17-1.45,3.08-2.9,4.53-1.99,4.89.91.36,3.08-.72,3.26,1.09Z"/><path class="cls-18" d="m103.15,208.19s-.91,8.38-1.15,8.38c-.01,0-.14-7.16-.14-7.16l1.29-1.22Z"/></g></g><g><g><circle class="cls-27" cx="82.26" cy="77.94" r="48.53" transform="translate(-3.26 152.28) rotate(-84.45)"/><circle class="cls-6" cx="79.97" cy="71.15" r="48.53"/><g><path class="cls-6" d="m32.71,101.32c1.29-.77,1.28-1.77.73-2.7-.38-.63-.82-1.06-1.49-1.34l1.06-.64c.55.32,1.02.8,1.42,1.46,1.1,1.83.66,3.33-1.04,4.35l-.52.31c-1.7,1.02-3.22.69-4.32-1.14-.4-.66-.59-1.31-.62-1.94l1.06-.64c-.06.73.1,1.32.48,1.95.55.92,1.42,1.42,2.72.64l.52-.31Z"/><path class="cls-6" d="m23.86,98.12l7.03-3.39c.32-.15.37-.33.23-.62-.1-.22-.24-.44-.41-.64l.98-.47c.17.24.37.56.53.89.42.88.25,1.53-.73,2.01l-7.06,3.41-.57-1.18Z"/><path class="cls-6" d="m23.52,95.37l-.19.08c-.4.16-.68-.02-.86-.47-.18-.43-.11-.77.29-.94l.19-.08c.41-.17.68.04.86.47.18.45.12.77-.29.94Zm1.68-.79l-.49-1.22,6.06-2.46.49,1.22-6.06,2.46Z"/><path class="cls-6" d="m31.12,83.34l.38,1.26-2.88.87c.4.33.75.84.95,1.5.56,1.85-.26,2.95-2.19,3.54l-.59.18c-1.94.58-3.22.09-3.85-2.02-.31-1.03-.28-1.94,0-2.85l8.19-2.47Zm-4.11,5.9c1.22-.37,1.79-.96,1.44-2.15-.17-.58-.51-1.02-.91-1.3l-3.63,1.09c-.1.46-.07.95.07,1.42.39,1.29,1.2,1.49,2.42,1.12l.6-.18Z"/><path class="cls-6" d="m21.17,79.94l-.21-1.3,5.8-.96c.61.69,1.11,1.67,1.28,2.68.33,1.97-.44,2.85-2.26,3.15l-3.9.65-.21-1.3,3.79-.63c1.21-.2,1.65-.72,1.46-1.86-.08-.47-.25-.91-.56-1.3l-5.17.86Z"/><path class="cls-6" d="m24.61,75.37c1.26-.15,1.67-.96,1.62-2.1-.03-.67-.22-1.31-.67-1.98l1.21-.05c.34.63.52,1.31.55,2,.09,2.25-1.01,3.38-2.97,3.45l-.63.02c-1.97.08-3.15-.96-3.22-2.96-.08-1.93,1-2.76,2.19-2.8,1.25-.05,1.78.63,1.83,1.81l.1,2.6Zm-1.05.04l-.09-2.3c-.02-.56-.2-.85-.74-.83-.69.03-1.19.51-1.16,1.45.04,1.05.67,1.72,1.99,1.68Z"/><path class="cls-6" d="m25.27,66.74c-1.36-.19-1.95-1.02-1.71-2.72.1-.71.36-1.39.67-1.86l-.35-.04c-1.08-.11-1.59.22-1.77,1.49-.1.71.02,1.48.34,2.11l-1.21-.17c-.23-.64-.33-1.39-.19-2.32.27-1.93,1.27-2.67,2.96-2.43l3.43.48c.41.9.53,1.96.38,3.03-.29,2.06-1.16,2.62-2.54,2.42Zm1.35-4.24l-1.46-.21c-.29.43-.46.99-.54,1.53-.16,1.11.12,1.52.83,1.62.71.1,1.15-.26,1.3-1.32.08-.58.04-1.17-.13-1.63Z"/><path class="cls-6" d="m32.35,55.57l-.34,1.27-2.9-.79c.17.49.19,1.11.02,1.77-.51,1.87-1.78,2.37-3.73,1.84l-.6-.16c-1.95-.53-2.78-1.63-2.2-3.75.28-1.04.79-1.79,1.51-2.42l8.25,2.24Zm-6.61,2.83c1.23.33,2.03.13,2.36-1.06.16-.59.11-1.14-.08-1.58l-3.66-.99c-.33.34-.56.76-.69,1.24-.35,1.31.23,1.9,1.46,2.23l.61.17Z"/><path class="cls-6" d="m25.72,47.43l.5-1.21,5.42,2.25c.15.91.06,2-.34,2.95-.77,1.84-1.88,2.19-3.58,1.48l-3.65-1.52.5-1.21,3.54,1.47c1.13.47,1.78.26,2.22-.8.18-.44.27-.9.21-1.4l-4.84-2.01Z"/><path class="cls-6" d="m25.54,43.53l-.18-.09c-.38-.2-.42-.54-.19-.96.22-.41.52-.58.9-.38l.18.09c.39.21.41.55.19.96-.23.42-.51.59-.9.38Zm1.69.78l.62-1.16,5.78,3.07-.62,1.16-5.78-3.07Z"/><path class="cls-6" d="m31.24,38.75c.05-.95.33-1.82.98-2.68,1.32-1.77,2.69-1.79,4.31-.58l.5.37c1.62,1.21,2.01,2.52.85,4.07-.41.55-.92.91-1.4,1.08l2.41,1.8-.79,1.05-6.85-5.12Zm4.5-2.2c-1.02-.76-1.84-.87-2.66.22-.3.39-.48.84-.55,1.31l3.03,2.27c.47-.12.94-.43,1.29-.91.74-.99.41-1.75-.62-2.51l-.51-.38Z"/><path class="cls-6" d="m38.43,35.71c-1-.95-1-1.96.18-3.2.49-.52,1.1-.92,1.62-1.13l-.27-.23c-.82-.72-1.42-.74-2.3.19-.49.52-.84,1.22-.95,1.92l-.89-.84c.19-.66.53-1.32,1.19-2.01,1.34-1.41,2.58-1.44,3.82-.27l2.52,2.38c-.19.97-.71,1.91-1.44,2.69-1.43,1.51-2.46,1.46-3.47.51Zm3.55-2.67l-1.07-1.02c-.49.18-.95.54-1.32.94-.77.82-.79,1.31-.26,1.8.52.49,1.09.45,1.82-.33.4-.42.71-.93.84-1.4Z"/><path class="cls-6" d="m45.21,25.35c-.79.12-1.44.38-2.03.87-.36.3-.67.7-.84,1.14l3.35,4.03-1.01.84-3.75-4.52c.31-.88.87-1.79,1.66-2.45.59-.49,1.18-.77,1.83-.88l.8.96Z"/><path class="cls-6" d="m47.37,27.37c-.76-1.15-.53-2.13.9-3.08.6-.4,1.28-.65,1.84-.73l-.21-.29c-.63-.89-1.22-1.04-2.28-.34-.6.4-1.1,1-1.36,1.66l-.68-1.02c.33-.6.82-1.16,1.61-1.69,1.62-1.07,2.84-.82,3.78.61l1.91,2.89c-.4.9-1.12,1.7-2.02,2.29-1.74,1.15-2.73.86-3.5-.29Zm4.07-1.8l-.82-1.23c-.52.07-1.05.31-1.5.61-.94.62-1.06,1.1-.67,1.7.4.6.95.69,1.85.1.49-.32.9-.75,1.13-1.17Z"/><path class="cls-6" d="m56.72,20.83c.6,1.38,1.58,1.5,2.58,1.07.67-.29,1.15-.68,1.53-1.31l.49,1.14c-.39.5-.93.91-1.64,1.22-1.96.85-3.39.22-4.17-1.6l-.24-.56c-.79-1.82-.26-3.29,1.7-4.13.71-.31,1.38-.41,2.01-.36l.49,1.14c-.72-.16-1.33-.08-2,.22-.99.43-1.59,1.22-.99,2.62l.24.56Z"/><path class="cls-6" d="m61.12,18.32c-.56-1.89.12-3.29,2.06-3.86,1.94-.57,3.27.24,3.82,2.13l.17.58c.56,1.89-.12,3.29-2.06,3.86-1.94.57-3.27-.24-3.82-2.13l-.17-.58Zm4.62-1.37c-.39-1.33-1.24-1.72-2.26-1.42-1.01.3-1.5,1.09-1.11,2.41l.18.61c.39,1.33,1.24,1.71,2.26,1.41,1.01-.3,1.5-1.09,1.11-2.41l-.18-.6Z"/><path class="cls-6" d="m70.29,19.61l-1.3.2-.91-5.8c.7-.61,1.68-1.1,2.69-1.25,1.97-.31,2.87.46,3.16,2.28l.61,3.91-1.3.2-.6-3.79c-.19-1.21-.73-1.65-1.87-1.47-.48.07-.91.25-1.31.55l.81,5.18Z"/><path class="cls-6" d="m80.07,18.71l-.1-3.84c-.03-1.2-.35-1.73-1.51-1.7-.53.01-1.12.27-1.49.6l.13,5.03-1.31.04-.25-9.22,1.31-.04.08,3.07c.46-.32,1.15-.57,1.83-.59,1.76-.05,2.46.82,2.51,2.68l.11,3.95-1.31.03Z"/><path class="cls-6" d="m83.94,16.21c-.02,1.27.73,1.78,1.86,1.9.67.07,1.32-.03,2.06-.39l-.12,1.21c-.67.25-1.36.33-2.06.27-2.24-.22-3.21-1.46-3.01-3.42l.06-.63c.19-1.96,1.39-2.99,3.37-2.79,1.92.19,2.59,1.37,2.48,2.55-.12,1.24-.86,1.68-2.04,1.56l-2.59-.26Zm.1-1.04l2.29.23c.55.05.87-.08.92-.62.07-.69-.35-1.25-1.28-1.34-1.04-.1-1.79.43-1.94,1.74Z"/><path class="cls-6" d="m90.81,16.79c-.32,1.47.41,2.15,1.47,2.38.72.16,1.33.12,2-.17l-.26,1.21c-.61.18-1.28.2-2.04.03-2.08-.46-2.88-1.79-2.45-3.73l.13-.59c.42-1.94,1.7-2.82,3.79-2.36.75.16,1.36.47,1.84.88l-.26,1.21c-.49-.55-1.03-.83-1.75-.99-1.05-.23-2,.06-2.33,1.55l-.13.59Z"/><path class="cls-6" d="m96.79,18.65c-.32,1.23.29,1.91,1.36,2.28.63.22,1.3.28,2.09.1l-.4,1.15c-.71.09-1.41,0-2.06-.22-2.13-.74-2.78-2.17-2.13-4.03l.21-.6c.65-1.86,2.05-2.58,3.93-1.93,1.83.63,2.2,1.94,1.81,3.06-.41,1.18-1.23,1.43-2.35,1.04l-2.46-.85Zm.34-.99l2.17.75c.53.18.87.13,1.04-.39.23-.66-.04-1.3-.93-1.61-.99-.34-1.85,0-2.29,1.24Z"/><path class="cls-6" d="m107.55,20.66c-.43-.67-.94-1.16-1.64-1.49-.42-.2-.91-.31-1.39-.29l-2.28,4.73-1.19-.57,2.55-5.29c.93-.09,2,.05,2.92.49.7.33,1.19.76,1.56,1.3l-.54,1.13Z"/><path class="cls-6" d="m109.53,25.21c.8-1.12,1.8-1.26,3.2-.26.59.42,1.06.96,1.34,1.45l.2-.29c.6-.9.54-1.51-.5-2.25-.58-.42-1.32-.67-2.03-.68l.71-1c.68.1,1.38.35,2.15.9,1.58,1.13,1.78,2.36.78,3.74l-2.01,2.81c-.99-.05-1.98-.44-2.86-1.07-1.69-1.21-1.78-2.24-.97-3.37Zm3.13,3.16l.86-1.2c-.25-.46-.67-.87-1.11-1.18-.91-.65-1.4-.6-1.82-.02s-.3,1.14.57,1.76c.47.34,1.02.57,1.5.64Z"/><path class="cls-6" d="m117.39,31.29c.99-.96,2-.92,3.19.31.5.52.88,1.14,1.06,1.67l.24-.26c.75-.78.8-1.39-.09-2.31-.5-.52-1.18-.89-1.88-1.03l.88-.85c.65.21,1.3.59,1.96,1.27,1.36,1.4,1.33,2.64.11,3.82l-2.48,2.41c-.96-.23-1.87-.79-2.62-1.56-1.45-1.49-1.36-2.52-.36-3.49Zm2.52,3.66l1.06-1.03c-.16-.49-.5-.97-.88-1.36-.78-.81-1.27-.84-1.79-.34-.52.5-.5,1.06.25,1.83.41.42.9.75,1.36.89Zm5.47-5.53l-.54.02c-.7.03-1.54-.05-2.19-.25l-.02-.74,2.72-.12.04,1.09Z"/><path class="cls-6" d="m127.5,38.46c-.09-.79-.33-1.46-.8-2.07-.29-.37-.68-.69-1.11-.88l-4.15,3.2-.8-1.04,4.65-3.59c.87.34,1.76.94,2.39,1.75.47.61.73,1.21.81,1.86l-.99.76Z"/><path class="cls-6" d="m126.75,41.57c-1.03.74-1,1.65-.41,2.62.35.57.82,1.04,1.55,1.41l-1.04.63c-.6-.39-1.09-.89-1.44-1.49-1.16-1.92-.75-3.44.94-4.46l.54-.33c1.69-1.02,3.22-.68,4.25,1.03,1,1.65.45,2.9-.56,3.51-1.07.65-1.86.31-2.48-.7l-1.35-2.23Zm.9-.54l1.19,1.97c.29.48.58.65,1.05.37.59-.36.8-1.03.31-1.83-.54-.9-1.42-1.18-2.55-.51Z"/><path class="cls-6" d="m128.99,46.59c1.26-.56,2.19-.17,2.89,1.4.29.66.43,1.37.42,1.93l.32-.16c.98-.48,1.23-1.03.71-2.2-.29-.66-.8-1.25-1.41-1.61l1.12-.5c.54.43,1.01,1,1.4,1.87.79,1.78.34,2.93-1.22,3.63l-3.16,1.41c-.82-.55-1.49-1.38-1.92-2.37-.85-1.9-.4-2.84.87-3.4Zm1.1,4.31l1.35-.6c.02-.52-.14-1.09-.36-1.58-.46-1.03-.91-1.23-1.56-.94-.66.29-.83.83-.4,1.81.24.53.59,1.01.97,1.31Z"/><path class="cls-6" d="m132.74,61.78c-.7-.65-1.18-1.42-1.43-2.46-.51-2.14.35-3.22,2.31-3.69l.6-.14c1.97-.47,3.23.07,3.68,1.95.16.66.11,1.29-.07,1.77l2.93-.7.31,1.28-8.32,1.99Zm1.19-4.87c-1.24.3-1.85.87-1.53,2.19.11.48.33.91.65,1.26l3.69-.88c.21-.44.27-.99.13-1.58-.29-1.2-1.08-1.43-2.32-1.13l-.61.15Z"/><path class="cls-6" d="m134.27,62.66c1.37-.15,2.14.5,2.33,2.21.08.72,0,1.44-.19,1.96l.35-.05c1.08-.16,1.48-.61,1.34-1.88-.08-.72-.39-1.43-.85-1.96l1.22-.13c.38.57.66,1.26.76,2.2.21,1.93-.57,2.9-2.27,3.08l-3.44.38c-.62-.77-1-1.77-1.11-2.84-.23-2.07.48-2.82,1.86-2.97Zm-.26,4.44l1.47-.16c.17-.49.2-1.08.14-1.62-.12-1.12-.49-1.45-1.21-1.37-.72.08-1.05.54-.93,1.6.06.58.25,1.14.52,1.54Z"/><path class="cls-6" d="m136.24,76.47c-.52,1.21-1.01,1.49-1.88,1.43-1.22-.08-1.84-1.15-1.73-2.78.05-.74.27-1.78.68-2.49l1.25.08c-.51.75-.77,1.66-.82,2.42-.06.86.18,1.43.71,1.46.34.02.56-.1.82-.68l.74-1.7c.52-1.19.98-1.49,1.83-1.44,1.21.08,1.72,1.14,1.62,2.7-.05.73-.21,1.59-.53,2.23l-1.24-.08c.38-.63.6-1.49.65-2.16.06-.87-.1-1.35-.62-1.38-.29-.02-.51.11-.77.68l-.73,1.7Z"/><path class="cls-6" d="m134.52,78.89c1.35.25,1.9,1.1,1.58,2.79-.13.71-.42,1.37-.75,1.83l.35.05c1.07.16,1.6-.15,1.83-1.41.13-.71.05-1.48-.24-2.13l1.2.23c.2.65.26,1.4.09,2.33-.36,1.91-1.39,2.61-3.06,2.29l-3.4-.64c-.37-.92-.44-1.98-.24-3.04.38-2.05,1.28-2.56,2.64-2.31Zm-1.54,4.17l1.45.27c.31-.42.5-.97.6-1.51.21-1.11-.05-1.53-.76-1.66-.71-.13-1.16.21-1.36,1.26-.11.57-.09,1.17.06,1.63Z"/><path class="cls-6" d="m136.12,91.3l-.4,1.25-5.59-1.8c-.23-.9-.22-2,.09-2.97.61-1.9,1.69-2.33,3.45-1.77l3.76,1.21-.4,1.25-3.66-1.18c-1.17-.38-1.79-.11-2.15.98-.15.46-.19.92-.1,1.42l4.99,1.61Zm2.45.6l-.27-.47c-.35-.6-.68-1.39-.81-2.05l.65-.36,1.38,2.34-.94.54Z"/><path class="cls-6" d="m127.28,96.97c-.14-.95-.04-1.85.42-2.82.94-1.99,2.28-2.29,4.11-1.43l.56.27c1.83.86,2.47,2.08,1.65,3.82-.29.62-.72,1.07-1.16,1.34l2.72,1.28-.56,1.19-7.74-3.65Zm3.97-3.06c-1.15-.54-1.98-.48-2.56.75-.21.45-.31.92-.28,1.39l3.43,1.62c.44-.21.83-.6,1.09-1.15.53-1.12.05-1.79-1.1-2.34l-.57-.27Z"/><path class="cls-6" d="m127.73,100.07c-1.12-.59-1.92-.16-2.53.8-.36.56-.57,1.2-.58,2.01l-1.02-.65c.08-.71.32-1.37.69-1.96,1.21-1.9,2.75-2.2,4.41-1.14l.53.34c1.66,1.06,2.04,2.59.97,4.27-1.04,1.63-2.4,1.69-3.4,1.06-1.06-.67-1.11-1.53-.47-2.53l1.4-2.19Zm.88.56l-1.23,1.94c-.3.47-.32.81.14,1.1.59.37,1.27.26,1.78-.53.56-.88.42-1.8-.68-2.51Z"/></g><circle class="cls-4" cx="79.56" cy="70.7" r="42.31"/><path class="cls-1" d="m103.62,70.74c-.16-1.95-1.73-3.56-3.69-3.62-2.32-.07-4.13,1.9-3.95,4.15l-.25-2.96c-.16-1.95-1.73-3.56-3.69-3.62-2.32-.08-4.13,1.89-3.95,4.13l-.19-2.24c-.17-2.03-1.86-3.66-3.89-3.63-2.17.04-3.84,1.87-3.75,3.98l-.93-11.09c-.16-1.95-1.73-3.56-3.69-3.62-2.32-.07-4.13,1.9-3.95,4.15l2.35,27.86-8.95-8.69c-1.41-1.37-3.64-1.55-5.16-.31-1.8,1.47-1.87,4.15-.26,5.72l7.78,7.56,8.81,8.56.29,3.39.24,2.88c.03.36.19.69.42.93.07.07.14.13.22.19.08.06.16.1.25.14.13.06.28.1.43.12.1.01.2.01.31,0l21.62-1.82c.42-.04.78-.24,1.03-.53.05-.06.09-.12.13-.19l.06-.1c.03-.06.06-.12.08-.19l.04-.15c.04-.15.05-.31.04-.48l-.26-3.1s.5-.51,1.11-1.67l.05-.1c.07-.14.15-.3.23-.46.04-.08.08-.17.12-.25l.04-.08c.06-.13.12-.27.18-.41v-.02c.21-.49.41-1.04.6-1.65.32-1.05.54-2.12.68-3.2.01-.11.03-.22.04-.33.12-1.11.16-2.22.11-3.34l-.16-3.54-.46-10.44-.08-1.92Z"/><path class="cls-9" d="m100.85,68.11c-.16-1.95-1.73-3.56-3.69-3.62-2.32-.07-4.13,1.9-3.95,4.15l-.25-2.96c-.16-1.95-1.73-3.56-3.69-3.62-2.32-.08-4.13,1.89-3.95,4.14l-.19-2.24c-.17-2.03-1.86-3.66-3.89-3.63-2.17.04-3.84,1.87-3.75,3.98l-.93-11.09c-.16-1.95-1.73-3.56-3.69-3.62-2.32-.07-4.13,1.9-3.95,4.15l2.35,27.86-8.95-8.69c-1.41-1.37-3.64-1.55-5.16-.31-1.8,1.47-1.87,4.15-.26,5.72l7.78,7.56,8.81,8.56.29,3.39.24,2.88c.03.36.19.69.42.93.07.07.14.13.22.19.08.06.16.1.25.14.13.06.28.1.43.12.1.01.2.01.31,0l21.62-1.82c.42-.04.78-.24,1.03-.53.05-.06.09-.12.13-.19l.06-.1c.03-.06.06-.12.08-.19l.04-.15c.04-.15.05-.31.04-.48l-.26-3.1s.5-.51,1.11-1.67l.05-.1c.07-.14.15-.3.23-.46.04-.08.08-.17.12-.25l.04-.08c.06-.13.12-.27.17-.41v-.02c.21-.49.41-1.04.6-1.65.32-1.05.54-2.12.68-3.2.01-.11.03-.22.04-.33.12-1.11.16-2.22.11-3.34l-.16-3.54-.46-10.44-.08-1.92Z"/><path class="cls-6" d="m71.7,42.83c.43-.04.76-.42.72-.85l-.4-4.76c-.04-.43-.42-.76-.85-.72s-.76.42-.72.85l.4,4.76c.04.43.42.76.85.72Z"/><path class="cls-6" d="m81.2,50.86c.04.44.42.76.85.72l4.76-.4c.43-.04.76-.42.72-.85s-.42-.76-.85-.72l-4.76.4c-.43.04-.76.42-.72.85Z"/><path class="cls-6" d="m58.2,53.59l4.76-.4c.44-.04.76-.42.72-.85s-.42-.76-.85-.72l-4.76.4c-.44.04-.76.42-.72.85s.42.76.85.72Z"/><path class="cls-6" d="m78.11,44.88c.17.14.37.2.58.18s.4-.11.54-.28l3.08-3.65c.28-.33.24-.83-.09-1.11-.33-.28-.83-.24-1.11.09l-3.08,3.65c-.28.33-.24.83.09,1.11Z"/><path class="cls-6" d="m63.24,63.35c.2-.02.4-.11.54-.28l3.08-3.65c.28-.33.24-.83-.09-1.11-.33-.28-.83-.24-1.11.09l-3.08,3.65c-.28.33-.24.83.09,1.11.17.14.38.2.58.18Z"/><path class="cls-6" d="m64.6,46.01c.17.14.37.2.58.18s.4-.11.54-.28c.28-.33.24-.83-.09-1.11l-3.65-3.08c-.33-.28-.83-.24-1.11.09-.28.33-.24.83.09,1.11l3.65,3.08Z"/><path class="cls-6" d="m75.2,43.25c.1.03.21.05.31.04.31-.03.58-.23.68-.54l1.5-4.53c.14-.41-.09-.86-.5-1-.42-.14-.86.09-1,.5l-1.5,4.53c-.14.41.09.86.5,1Z"/><path class="cls-6" d="m81.78,53.85c-.41-.14-.86.09-1,.5-.14.41.09.86.5,1l4.53,1.5c.1.03.21.05.31.04.31-.03.58-.23.68-.54.14-.41-.09-.86-.5-1l-4.53-1.5Z"/><path class="cls-6" d="m58.56,47.84l4.53,1.5c.1.03.21.05.31.04.31-.03.58-.23.68-.54.14-.41-.09-.86-.5-1l-4.53-1.5c-.41-.14-.86.09-1,.5-.14.41.09.86.5,1Z"/><path class="cls-6" d="m80.29,47.64c.15.3.46.46.77.43.1,0,.2-.03.29-.08l4.26-2.15c.39-.2.55-.67.35-1.06-.2-.39-.67-.55-1.06-.35l-4.26,2.15c-.39.2-.55.67-.35,1.06Z"/><path class="cls-6" d="m64.58,55.55c-.2-.39-.67-.55-1.06-.35l-4.26,2.15c-.39.2-.55.67-.35,1.06.15.3.46.46.77.43.1,0,.2-.03.29-.08l4.26-2.15c.39-.2.55-.67.35-1.06Z"/><path class="cls-6" d="m67.42,43.39c.15.3.46.46.77.43.1,0,.2-.04.29-.08.39-.2.55-.67.35-1.06l-2.15-4.26c-.2-.39-.67-.55-1.06-.35-.39.2-.55.67-.35,1.06l2.15,4.26Z"/><path class="cls-6" d="m91.17,87.14c-4.33,2.31-9.61,3.61-14.82,3.19-4.5-.32-8.29-2.02-11.66-4.45l8.81,8.56.29,3.39.24,2.88c.03.36.19.69.42.93.07.07.14.13.22.19.08.06.16.1.25.14.13.06.28.1.43.12.1.01.2.01.31,0l21.62-1.82c.42-.04.78-.24,1.03-.53.05-.06.09-.12.13-.19l.06-.1c.03-.06.06-.12.08-.19.07-.19.1-.41.08-.63l-.26-3.1s.5-.51,1.11-1.67l.05-.1c.07-.14.15-.3.23-.46.04-.08.08-.17.12-.25l.04-.08c.06-.13.12-.27.17-.41v-.02c.21-.49.41-1.04.6-1.65.32-1.05.54-2.12.68-3.2.01-.11.03-.22.04-.33.12-1.11.16-2.22.11-3.34l-.16-3.54-.46-10.44c-1.34,6.82-3.52,13.75-9.76,17.12Z"/></g><path class="cls-6" d="m84.32,150.23l14.65-26.04c1.08-1.92-.32-4.28-2.52-4.26l-15.28,2.9-14.6-2.57c-2.2.02-3.55,2.42-2.43,4.31l15.22,25.71c1.12,1.89,3.87,1.86,4.95-.05Z"/></g></g></g></g></g></svg>