<svg xmlns="http://www.w3.org/2000/svg" xmlns:xlink="http://www.w3.org/1999/xlink" viewBox="0 0 689.38 400.05"><defs><style>.cls-1,.cls-10,.cls-33,.cls-57{fill:none;}.cls-2{isolation:isolate;}.cls-3{fill:#5b76ef;}.cls-4{fill:#ffd054;}.cls-5{fill:#6ae0f6;}.cls-13,.cls-6{fill:#fff;}.cls-7{fill:#ff867e;}.cls-8{fill:url(#linear-gradient);}.cls-9{fill:url(#linear-gradient-2);}.cls-10{stroke:#ffd054;stroke-width:2px;}.cls-10,.cls-33,.cls-57{stroke-linecap:round;stroke-linejoin:round;}.cls-11{fill:#dec3f7;}.cls-12{fill:#e6d1f9;}.cls-13{opacity:0.3;mix-blend-mode:overlay;}.cls-14{fill:#97abff;}.cls-15{fill:#8ca0ff;}.cls-16{fill:url(#linear-gradient-3);}.cls-17{fill:url(#linear-gradient-4);}.cls-18{fill:#e3e9ff;}.cls-19{fill:#69acff;}.cls-20{fill:#f1e6f7;}.cls-21{fill:#4bb6f6;}.cls-22{fill:#bab7f6;}.cls-23{fill:#a39ee9;}.cls-24{fill:#ff647e;}.cls-25{fill:#293267;}.cls-26{clip-path:url(#clip-path);}.cls-27{fill:#271055;}.cls-28{fill:#ffa9a7;}.cls-29{fill:url(#linear-gradient-5);}.cls-30{fill:#f3f0f3;}.cls-31{fill:#c34159;}.cls-32{fill:#e16c7a;}.cls-33{stroke:#fff;}.cls-33,.cls-57{stroke-width:0.6px;}.cls-34{clip-path:url(#clip-path-2);}.cls-35{fill:#2a3368;}.cls-36{fill:#2b3469;}.cls-37{fill:#2b356a;}.cls-38{fill:#2c366b;}.cls-39{fill:#2d376c;}.cls-40{fill:#2e376d;}.cls-41{fill:#2f386e;}.cls-42{fill:#30396f;}.cls-43{fill:#303a70;}.cls-44{fill:#313b71;}.cls-45{fill:#323c72;}.cls-46{fill:#333d74;}.cls-47{fill:#343e75;}.cls-48{fill:#343f76;}.cls-49{fill:#354077;}.cls-50{fill:#364178;}.cls-51{fill:#374179;}.cls-52{fill:#38427a;}.cls-53{fill:#39437b;}.cls-54{fill:#39447c;}.cls-55{fill:#3a457d;}.cls-56{fill:#3b467e;}.cls-57{stroke:#a39ee9;}.cls-58{fill:#384172;}</style><linearGradient id="linear-gradient" x1="110.97" y1="250.32" x2="110.97" y2="270.23" gradientUnits="userSpaceOnUse"><stop offset="0" stop-color="#293267"/><stop offset="1" stop-color="#3b467e"/></linearGradient><linearGradient id="linear-gradient-2" x1="110.45" y1="200.11" x2="110.45" y2="235.66" xlink:href="#linear-gradient"/><linearGradient id="linear-gradient-3" x1="341.37" y1="359.45" x2="341.37" y2="339.01" xlink:href="#linear-gradient"/><linearGradient id="linear-gradient-4" x1="341.37" y1="333.37" x2="341.37" y2="92.17" xlink:href="#linear-gradient"/><clipPath id="clip-path"><rect class="cls-1" x="173.88" y="113.89" width="110.33" height="112.54" transform="translate(399.21 -58.88) rotate(90)"/></clipPath><linearGradient id="linear-gradient-5" x1="191.76" y1="235.88" x2="218.92" y2="164.07" gradientUnits="userSpaceOnUse"><stop offset="0" stop-color="#ff647e"/><stop offset="1" stop-color="#ff8a7e"/></linearGradient><clipPath id="clip-path-2"><rect class="cls-1" x="490.67" y="170.64" width="89.35" height="122.44" rx="2.27"/></clipPath></defs><g class="cls-2"><g id="Layer_2" data-name="Layer 2"><g id="BACKGROUND"><ellipse class="cls-3" cx="344.69" cy="359.81" rx="344.69" ry="11.41"/><path class="cls-4" d="M216.9,296.61V294H39.3a6.24,6.24,0,0,0-6.25,6.24v19.52A6.25,6.25,0,0,0,39.3,326H216.9v-2.6h-1.7V296.61Z"/><path class="cls-5" d="M228.4,328.62V326H19.58a6.24,6.24,0,0,0-6.24,6.24v19.52A6.24,6.24,0,0,0,19.58,358H228.4v-2.59h-1.71V328.62Z"/><path class="cls-6" d="M20.94,351.79V332.27A6.24,6.24,0,0,1,27.18,326H24.09a6.24,6.24,0,0,0-6.24,6.24v19.52A6.24,6.24,0,0,0,24.09,358h3.09A6.24,6.24,0,0,1,20.94,351.79Z"/><path class="cls-6" d="M28.94,351.79V332.27A6.24,6.24,0,0,1,35.18,326H32.09a6.24,6.24,0,0,0-6.24,6.24v19.52A6.24,6.24,0,0,0,32.09,358h3.09A6.24,6.24,0,0,1,28.94,351.79Z"/><path class="cls-6" d="M68.12,296.61H215.2a0,0,0,0,1,0,0v26.81a0,0,0,0,1,0,0H68.12a5.23,5.23,0,0,1-5.23-5.23V301.84A5.23,5.23,0,0,1,68.12,296.61Z"/><path class="cls-6" d="M88.93,328.62H226.69a0,0,0,0,1,0,0v26.81a0,0,0,0,1,0,0H88.93a5.23,5.23,0,0,1-5.23-5.23V333.85A5.23,5.23,0,0,1,88.93,328.62Z"/><path class="cls-7" d="M13.34,280.21v-2.6H222.15a6.25,6.25,0,0,1,6.25,6.25v3.91a6.25,6.25,0,0,1-6.25,6.25H13.34v-2.6H15V280.21Z"/><path class="cls-6" d="M15,291.42H152.81a5.23,5.23,0,0,0,5.23-5.23v-.75a5.23,5.23,0,0,0-5.23-5.23H15Z"/><rect class="cls-6" x="38.21" y="299.65" width="7.27" height="20.75"/><rect class="cls-6" x="48.48" y="299.65" width="2" height="20.75"/><rect class="cls-8" x="65.35" y="221.62" width="91.25" height="55.99"/><polygon class="cls-9" points="110.45 193.42 22.06 221.62 110.45 249.82 198.83 221.62 110.45 193.42"/><polyline class="cls-10" points="110.45 215.55 52.34 231.28 52.34 254.4"/><path class="cls-4" d="M52.47,251.71h0a3.39,3.39,0,0,1,3.39,3.39v15a0,0,0,0,1,0,0H49.08a0,0,0,0,1,0,0v-15a3.39,3.39,0,0,1,3.39-3.39Z"/><polygon class="cls-11" points="495.19 25.01 543.26 4.14 497.8 15.52 495.19 25.01"/><polygon class="cls-6" points="495.19 11.87 543.26 4.14 486.69 0 495.19 11.87"/><polygon class="cls-6" points="497.8 15.52 507.19 28.63 543.26 4.14 497.8 15.52"/><polygon class="cls-12" points="495.19 11.87 495.19 25.01 497.8 15.52 543.26 4.14 495.19 11.87"/><path class="cls-13" d="M661.73,63.16a12.81,12.81,0,0,0-2.42.23,17.59,17.59,0,0,0-35,2.65,18.46,18.46,0,0,0,.12,2,11.27,11.27,0,0,0-2-.19,10.74,10.74,0,0,0,0,21.48h39.31a13.08,13.08,0,0,0,0-26.15Z"/><path class="cls-13" d="M135.23,21.56a16.3,16.3,0,0,0-3,.28,21.75,21.75,0,0,0-43.11,5.73,13.78,13.78,0,0,0-2.51-.24,13.29,13.29,0,0,0,0,26.57h48.61a16.17,16.17,0,1,0,0-32.34Z"/><path class="cls-14" d="M323.61,56.61h-.1a.48.48,0,0,1-.39-.58c.06-.33.13-.67.2-1a.5.5,0,0,1,.6-.38.49.49,0,0,1,.38.59c-.07.32-.14.65-.2,1A.5.5,0,0,1,323.61,56.61Z"/><path class="cls-14" d="M325.18,50.8a.45.45,0,0,1-.16,0,.51.51,0,0,1-.31-.64c.22-.64.46-1.28.71-1.91a.5.5,0,1,1,.93.37c-.25.62-.48,1.24-.7,1.87A.49.49,0,0,1,325.18,50.8ZM328,44.35a.53.53,0,0,1-.24-.06.5.5,0,0,1-.2-.68q.46-.9,1-1.77a.5.5,0,1,1,.86.5c-.34.58-.66,1.16-1,1.74A.5.5,0,0,1,328,44.35Zm3.74-6a.47.47,0,0,1-.3-.1.51.51,0,0,1-.11-.7c.4-.54.81-1.08,1.23-1.61a.5.5,0,0,1,.79.62c-.42.52-.82,1-1.21,1.58A.49.49,0,0,1,331.74,38.39Zm125.46-5h0c-.67,0-1.35-.08-2-.15a.5.5,0,0,1-.45-.55.51.51,0,0,1,.55-.45q1,.11,2,.15a.5.5,0,0,1,0,1Zm5,0a.5.5,0,0,1-.5-.47.51.51,0,0,1,.47-.53c.66-.05,1.32-.12,2-.2a.5.5,0,0,1,.56.44.49.49,0,0,1-.43.55c-.67.09-1.35.16-2,.21Zm-126-.35a.52.52,0,0,1-.35-.14.5.5,0,0,1,0-.71c.46-.49.94-1,1.43-1.44a.49.49,0,0,1,.7,0,.5.5,0,0,1,0,.71c-.47.46-.94.93-1.4,1.41A.48.48,0,0,1,336.26,33Zm114-.5h-.1l-2-.43a.5.5,0,0,1-.38-.6.51.51,0,0,1,.6-.38q1,.23,1.95.42a.5.5,0,0,1-.09,1Zm18.94-.3a.5.5,0,0,1-.12-1c.64-.16,1.28-.34,1.91-.54a.49.49,0,0,1,.62.33.49.49,0,0,1-.32.62c-.65.21-1.3.39-2,.56Zm-25.77-1.42a.35.35,0,0,1-.14,0c-.65-.19-1.29-.39-1.93-.6a.5.5,0,0,1-.33-.63.51.51,0,0,1,.63-.32c.64.21,1.28.4,1.92.6a.5.5,0,0,1-.15,1Zm32.41-.91a.5.5,0,0,1-.2-1c.6-.27,1.2-.55,1.8-.85a.5.5,0,0,1,.44.9c-.61.3-1.22.59-1.84.86A.46.46,0,0,1,475.8,29.87Zm-39.09-1.34-.17,0-1.89-.7a.5.5,0,0,1-.29-.65.51.51,0,0,1,.64-.29l1.88.71a.49.49,0,0,1,.3.64A.49.49,0,0,1,436.71,28.53Zm-95.28-.31A.5.5,0,0,1,341,28a.5.5,0,0,1,.07-.7c.52-.43,1.06-.85,1.59-1.26a.5.5,0,0,1,.61.79l-1.57,1.24A.45.45,0,0,1,341.43,28.22ZM482,26.59a.51.51,0,0,1-.43-.24.5.5,0,0,1,.17-.69c.56-.34,1.12-.7,1.69-1.06a.5.5,0,0,1,.69.14.51.51,0,0,1-.15.7c-.57.37-1.14.73-1.71,1.07A.5.5,0,0,1,482,26.59ZM430.14,26a.43.43,0,0,1-.19,0l-1.87-.74a.51.51,0,0,1-.28-.65.51.51,0,0,1,.65-.28l1.87.74a.5.5,0,0,1,.28.65A.48.48,0,0,1,430.14,26Zm-83-1.91a.51.51,0,0,1-.42-.23.5.5,0,0,1,.15-.69c.57-.37,1.15-.72,1.73-1.07a.51.51,0,0,1,.69.18.49.49,0,0,1-.18.68c-.57.34-1.14.69-1.7,1.05A.5.5,0,0,1,347.13,24.1Zm76.45-.68a.57.57,0,0,1-.18,0l-1.87-.72a.5.5,0,1,1,.35-.93l1.89.72a.5.5,0,0,1-.19,1ZM417,21l-.16,0c-.63-.22-1.27-.43-1.9-.63a.5.5,0,1,1,.3-1q1,.3,1.92.63a.5.5,0,0,1-.16,1Zm-63.69-.34a.5.5,0,0,1-.22-.95c.61-.3,1.22-.59,1.84-.86a.5.5,0,1,1,.4.91c-.6.27-1.21.55-1.81.85A.54.54,0,0,1,353.28,20.66Zm57-1.74a.3.3,0,0,1-.13,0l-1.94-.54a.5.5,0,0,1-.35-.61.49.49,0,0,1,.62-.35l1.94.54a.5.5,0,0,1-.14,1Zm-50.47-1a.5.5,0,0,1-.16-1c.64-.23,1.28-.44,1.92-.64a.5.5,0,1,1,.3,1q-.94.3-1.89.63A.51.51,0,0,1,359.77,17.94Zm43.66-.8h-.12l-1.95-.44a.5.5,0,0,1-.38-.6.49.49,0,0,1,.59-.38c.66.14,1.32.29,2,.45a.5.5,0,0,1-.11,1ZM366.54,16a.49.49,0,0,1-.49-.39.51.51,0,0,1,.38-.6c.66-.15,1.32-.28,2-.41a.5.5,0,1,1,.19,1c-.65.13-1.3.26-2,.41Zm30-.26h-.09l-2-.32a.49.49,0,0,1-.42-.57.51.51,0,0,1,.57-.42c.67.11,1.33.21,2,.33a.5.5,0,0,1-.08,1Zm-23-.91a.5.5,0,0,1-.06-1c.68-.08,1.35-.14,2-.2a.5.5,0,0,1,.54.46.51.51,0,0,1-.45.54c-.67.05-1.33.12-2,.19Zm16.07,0h-.05c-.66-.07-1.33-.13-2-.18a.5.5,0,0,1,.07-1c.68.06,1.35.11,2,.18a.5.5,0,0,1-.05,1Zm-9-.4a.5.5,0,0,1-.5-.5.49.49,0,0,1,.49-.5c.68,0,1.35,0,2,0a.49.49,0,0,1,.49.5.5.5,0,0,1-.5.5h0c-.66,0-1.33,0-2,0Z"/><path class="cls-14" d="M487.89,22.61a.51.51,0,0,1-.4-.2.5.5,0,0,1,.11-.7l.79-.59a.5.5,0,0,1,.61.79l-.81.61A.53.53,0,0,1,487.89,22.61Z"/><path class="cls-6" d="M655.58,294.93s19.74-12,29.87,1.84c11.18,15.24-15.34,66.17-32.9,47.15s0-12.73,0-12.73,7.84,12.95,17,.91c9.44-12.46,11.58-26.76,4.53-29.56s-16.51,4.12-16.51,4.12Z"/><path class="cls-6" d="M653.66,359.81H595.27a2,2,0,0,1-2-1.85l-6.74-81.69a2,2,0,0,1,2-2.18H660.4a2,2,0,0,1,2,2.18L655.67,358A2,2,0,0,1,653.66,359.81Z"/><path class="cls-15" d="M617.78,182.33a25.49,25.49,0,0,1,8.94,21.3c-.87,10.69-8.39,19.77-10.33,30.32a30.21,30.21,0,0,0,5.27,23c-3.32-5.6-2.79-11.71-1.27-18s4.44-12.21,6.86-18.25,4.34-12.49,3.7-19A24.49,24.49,0,0,0,617.78,182.33Z"/><path class="cls-15" d="M619.36,195.1a19.73,19.73,0,0,1-5-28.72A15.3,15.3,0,0,0,607,182.06,16.36,16.36,0,0,0,619.36,195.1Z"/><path class="cls-15" d="M639.44,224.63c-5.5,4.26-10.56,9.44-13.06,15.92s-2,14.48,2.71,19.62A51,51,0,0,1,639.44,224.63Z"/><path class="cls-5" d="M371.76,169.14a.72.72,0,0,1-.94-.37l-2.5-5.79-5.79,2.51a.72.72,0,0,1-.94-.38l-2.51-5.78-5.78,2.5a.73.73,0,0,1-.95-.37l-2.5-5.79-5.78,2.5a.72.72,0,0,1-.95-.37.71.71,0,0,1,.38-.94l6.44-2.79a.71.71,0,0,1,.94.37l2.51,5.79,5.78-2.51a.73.73,0,0,1,.95.38l2.5,5.78,5.78-2.5a.72.72,0,0,1,1,.37l2.79,6.45A.71.71,0,0,1,371.76,169.14Z"/><path class="cls-4" d="M112.25,173.75l-8.23-1.1a.72.72,0,0,1-.62-.81l1.1-8.23a.72.72,0,0,1,.81-.62l8.23,1.1a.71.71,0,0,1,.62.8l-1.1,8.24A.72.72,0,0,1,112.25,173.75Zm-7.33-2.43,6.81.91.91-6.81-6.81-.91Z"/><path class="cls-5" d="M251.44,60a.67.67,0,0,1-.36.12.71.71,0,0,1-.64-.31l-4.94-7.3a.74.74,0,0,1-.05-.72.72.72,0,0,1,.6-.4l8.79-.62a.71.71,0,0,1,.64.31.69.69,0,0,1,.05.72l-3.85,7.92A.73.73,0,0,1,251.44,60Zm-4.05-7.27L250.93,58l2.77-5.68Z"/><path class="cls-6" d="M588.82,236.35a.78.78,0,0,1-.37,0,.72.72,0,0,1-.46-.56l-1.47-8.69a.69.69,0,0,1,.25-.67.7.7,0,0,1,.71-.12l8.26,3.07a.71.71,0,0,1,.21,1.22l-6.79,5.63A.74.74,0,0,1,588.82,236.35Zm-.68-8.29,1.06,6.24,4.87-4Z"/><path class="cls-7" d="M386.2,161.69a.85.85,0,0,1-.24.29.74.74,0,0,1-.72.07l-8-3.68a.72.72,0,0,1-.41-.59.71.71,0,0,1,.3-.65l7.19-5.1A.72.72,0,0,1,385,152a.75.75,0,0,1,.42.59l.82,8.78A.74.74,0,0,1,386.2,161.69ZM379,157.58l5.75,2.64-.59-6.3Z"/><path class="cls-6" d="M391.8,26.48a.71.71,0,0,0-.89-.48l-2.91.86L387.13,24a.71.71,0,0,0-.89-.48.71.71,0,0,0-.48.89l.86,2.91-2.91.87a.71.71,0,0,0-.48.89.72.72,0,0,0,.89.49l2.91-.87.87,2.91a.72.72,0,1,0,1.37-.41l-.86-2.91,2.91-.86A.72.72,0,0,0,391.8,26.48Z"/><path class="cls-5" d="M485.73,308.18,483,306.77l1.41-2.69a.72.72,0,0,0-1.28-.66l-1.4,2.69-2.69-1.41a.72.72,0,0,0-1,.3.71.71,0,0,0,.3,1l2.69,1.41-1.41,2.69a.72.72,0,0,0,.31,1,.72.72,0,0,0,1-.3l1.4-2.69,2.69,1.4a.72.72,0,1,0,.67-1.27Z"/><path class="cls-4" d="M595.36,207.71,592.61,209l-1.28-2.75a.72.72,0,1,0-1.3.61l1.28,2.75-2.75,1.28a.72.72,0,0,0-.35,1,.71.71,0,0,0,.95.34l2.76-1.28,1.28,2.75a.72.72,0,1,0,1.3-.6l-1.28-2.75L596,209a.72.72,0,0,0,.35-1A.73.73,0,0,0,595.36,207.71Z"/><path class="cls-16" d="M108.78,341H573.95a0,0,0,0,1,0,0v5.69A11.37,11.37,0,0,1,562.58,358H120.15a11.37,11.37,0,0,1-11.37-11.37V341A0,0,0,0,1,108.78,341Z"/><path class="cls-17" d="M141.76,73.7H541a11.37,11.37,0,0,1,11.37,11.37V341a0,0,0,0,1,0,0h-422a0,0,0,0,1,0,0V85.07A11.37,11.37,0,0,1,141.76,73.7Z"/><rect class="cls-18" x="223.65" y="12.28" width="235.43" height="390.11" transform="translate(548.7 -134.03) rotate(90)"/><rect class="cls-6" x="355.57" y="41.28" width="239.35" height="153.28" rx="3.41"/><path class="cls-7" d="M370.2,52a3,3,0,1,1-3-3A3,3,0,0,1,370.2,52Z"/><path class="cls-4" d="M381.36,52a3,3,0,1,1-3-3A3,3,0,0,1,381.36,52Z"/><path class="cls-19" d="M392.52,52a3,3,0,1,1-3-3A3,3,0,0,1,392.52,52Z"/><rect class="cls-20" x="364.22" y="64.03" width="66.55" height="46.64" rx="2.27"/><rect class="cls-20" x="441.23" y="64.03" width="66.55" height="46.64" rx="2.27"/><rect class="cls-20" x="518.24" y="64.03" width="66.55" height="46.64" rx="2.27"/><path class="cls-20" d="M582.31,126.75H443.7a2.46,2.46,0,0,1-2.47-2.47h0a2.46,2.46,0,0,1,2.47-2.47H582.31a2.46,2.46,0,0,1,2.47,2.47h0A2.46,2.46,0,0,1,582.31,126.75Z"/><path class="cls-20" d="M582.31,139.59H443.7a2.47,2.47,0,0,1-2.47-2.47h0a2.46,2.46,0,0,1,2.47-2.47H582.31a2.46,2.46,0,0,1,2.47,2.47h0A2.47,2.47,0,0,1,582.31,139.59Z"/><path class="cls-20" d="M486.52,152.43H443.7a2.47,2.47,0,0,1-2.47-2.47h0a2.47,2.47,0,0,1,2.47-2.48h42.82A2.47,2.47,0,0,1,489,150h0A2.47,2.47,0,0,1,486.52,152.43Z"/><path class="cls-4" d="M402.37,178.42H374.05a1.63,1.63,0,0,1-1.63-1.64h0a1.63,1.63,0,0,1,1.63-1.63h28.32a1.63,1.63,0,0,1,1.63,1.63h0A1.63,1.63,0,0,1,402.37,178.42Z"/><path class="cls-7" d="M460,178.42H415a1.63,1.63,0,0,1-1.63-1.64h0a1.63,1.63,0,0,1,1.63-1.63h45a1.63,1.63,0,0,1,1.63,1.63h0A1.63,1.63,0,0,1,460,178.42Z"/><path class="cls-20" d="M480.43,178.42h-7.64a1.63,1.63,0,0,1-1.63-1.64h0a1.63,1.63,0,0,1,1.63-1.63h7.64a1.63,1.63,0,0,1,1.64,1.63h0A1.63,1.63,0,0,1,480.43,178.42Z"/><path class="cls-5" d="M406.41,118.84H316.34a3.06,3.06,0,0,0-3.06,3V139.5a3.06,3.06,0,0,0,3.06,3.05h8.36v7.9l7.9-7.9h73.81a3,3,0,0,0,3-3.05V121.89A3,3,0,0,0,406.41,118.84Z"/><path class="cls-21" d="M337.24,128.17H323.43a1.53,1.53,0,1,1,0-3h13.81a1.53,1.53,0,1,1,0,3Zm15.35,5.72a1.53,1.53,0,0,0-1.53-1.53H323.43a1.53,1.53,0,1,0,0,3h27.63A1.53,1.53,0,0,0,352.59,133.89Zm15,0a1.53,1.53,0,0,0-1.53-1.53h-8a1.53,1.53,0,1,0,0,3h8A1.53,1.53,0,0,0,367.6,133.89Zm21.09,0a1.53,1.53,0,0,0-1.53-1.53H373.05a1.53,1.53,0,0,0,0,3h14.11A1.53,1.53,0,0,0,388.69,133.89Zm12,0a1.53,1.53,0,0,0-1.53-1.53h-5.92a1.53,1.53,0,0,0,0,3h5.92A1.53,1.53,0,0,0,400.67,133.89ZM379,126.64a1.52,1.52,0,0,0-1.52-1.52H345.68a1.53,1.53,0,1,0,0,3h31.78A1.53,1.53,0,0,0,379,126.64Zm21.69,0a1.53,1.53,0,0,0-1.53-1.52H384.56a1.53,1.53,0,0,0,0,3h14.58A1.54,1.54,0,0,0,400.67,126.64Z"/><circle class="cls-4" cx="385.09" cy="228.51" r="15.98" transform="translate(-58.13 164.76) rotate(-22.5)"/><circle class="cls-4" cx="463.78" cy="228.51" r="15.98" transform="translate(-52.14 194.87) rotate(-22.5)"/><circle class="cls-4" cx="424.43" cy="228.51" r="15.98" transform="translate(-55.14 179.82) rotate(-22.5)"/><path class="cls-6" d="M470.86,227.63a1.7,1.7,0,0,1-1.67-1.38.62.62,0,0,0-1.21,0,1.71,1.71,0,1,1-3.35-.65,4,4,0,0,1,7.91,0,1.71,1.71,0,0,1-1.36,2A1.73,1.73,0,0,1,470.86,227.63Z"/><path class="cls-6" d="M461.24,227.63a1.71,1.71,0,0,1-1.67-1.38.62.62,0,0,0-1.21,0,1.71,1.71,0,0,1-3.35-.65,4,4,0,0,1,7.91,0,1.71,1.71,0,0,1-1.35,2A1.84,1.84,0,0,1,461.24,227.63Z"/><path class="cls-6" d="M463.77,238.9a10.32,10.32,0,0,1-8.87-5,1.71,1.71,0,1,1,2.92-1.77,6.95,6.95,0,0,0,11.91,0,1.71,1.71,0,1,1,2.92,1.77A10.32,10.32,0,0,1,463.77,238.9Z"/><circle class="cls-4" cx="108.78" cy="113.97" r="32.31" transform="translate(-48.73 110.3) rotate(-45)"/><path class="cls-6" d="M123.11,112.19a3.45,3.45,0,0,1-3.39-2.8,1.23,1.23,0,0,0-1.22-1,1.25,1.25,0,0,0-1.22,1,3.45,3.45,0,1,1-6.77-1.3,8.14,8.14,0,0,1,16,0,3.45,3.45,0,0,1-2.74,4A3.66,3.66,0,0,1,123.11,112.19Z"/><path class="cls-6" d="M94.45,112.19a3.66,3.66,0,0,1-.65-.06,3.45,3.45,0,0,1-2.74-4,8.14,8.14,0,0,1,16,0,3.45,3.45,0,1,1-6.77,1.3,1.25,1.25,0,0,0-1.22-1,1.24,1.24,0,0,0-1.22,1A3.45,3.45,0,0,1,94.45,112.19Z"/><path class="cls-6" d="M108.78,135a20.86,20.86,0,0,1-18-10.13,3.45,3.45,0,0,1,5.9-3.58,14.07,14.07,0,0,0,24.1,0,3.45,3.45,0,0,1,5.9,3.58A20.86,20.86,0,0,1,108.78,135Z"/><path class="cls-6" d="M422,225.33a2.7,2.7,0,1,1-2.7-2.7A2.7,2.7,0,0,1,422,225.33Z"/><circle class="cls-6" cx="429.53" cy="225.33" r="2.7"/><path class="cls-6" d="M392.5,237.19a1.69,1.69,0,0,1-1.45-.82,7,7,0,0,0-11.92,0,1.71,1.71,0,0,1-2.92-1.77,10.37,10.37,0,0,1,17.75,0,1.71,1.71,0,0,1-1.46,2.59Z"/><path class="cls-6" d="M382.69,225.33a2.7,2.7,0,1,1-2.7-2.7A2.7,2.7,0,0,1,382.69,225.33Z"/><circle class="cls-6" cx="390.18" cy="225.33" r="2.7"/><path class="cls-6" d="M430.87,235.85H418a1.71,1.71,0,0,1,0-3.42h12.88a1.71,1.71,0,1,1,0,3.42Z"/><path class="cls-22" d="M456.28,260.05H397.33a3.4,3.4,0,0,0-3.41,3.41v31.37a3.41,3.41,0,0,0,3.41,3.41h8.21v8.84l8.83-8.84h41.91a3.42,3.42,0,0,0,3.42-3.41V263.46A3.41,3.41,0,0,0,456.28,260.05Z"/><path class="cls-23" d="M448.43,278.83a4.18,4.18,0,1,1-4.17-4.17A4.17,4.17,0,0,1,448.43,278.83Zm-20.17-4.17a4.17,4.17,0,1,0,4.17,4.17A4.17,4.17,0,0,0,428.26,274.66Zm-16,0a4.17,4.17,0,1,0,4.17,4.17A4.17,4.17,0,0,0,412.26,274.66Z"/><path class="cls-14" d="M343.41,81.66a2.62,2.62,0,1,1-2.61-2.61A2.61,2.61,0,0,1,343.41,81.66Z"/><rect class="cls-6" x="159.13" y="101.35" width="139.84" height="207.53" rx="9.1"/><rect class="cls-18" x="173.88" y="113.89" width="110.33" height="112.54" transform="translate(399.21 -58.88) rotate(90)"/><path class="cls-22" d="M265.31,135.69H232.37a1,1,0,0,1,0-2h32.94a1,1,0,0,1,0,2Zm-12.55,5.6a1,1,0,0,0-1-1H232.37a1,1,0,0,0,0,2h19.39A1,1,0,0,0,252.76,141.29Zm15.14,6.6a1,1,0,0,0-1-1H232.37a1,1,0,0,0,0,2H266.9A1,1,0,0,0,267.9,147.89Zm-30.55,6.59a1,1,0,0,0-1-1h-4a1,1,0,0,0,0,2h4A1,1,0,0,0,237.35,154.48Zm21.86-13.19a1,1,0,0,0-1-1h-2.42a1,1,0,0,0,0,2h2.42A1,1,0,0,0,259.21,141.29Zm20.05,0a1,1,0,0,0-1-1H262.45a1,1,0,0,0,0,2h15.81A1,1,0,0,0,279.26,141.29Zm0-6.6a1,1,0,0,0-1-1h-8.84a1,1,0,0,0,0,2h8.84A1,1,0,0,0,279.26,134.69Zm-33.94,19.79a1,1,0,0,0-1-1h-4a1,1,0,0,0,0,2h4A1,1,0,0,0,245.32,154.48Z"/><path class="cls-20" d="M285.32,246.49H187.11a2,2,0,0,1,0-4h98.21a2,2,0,0,1,0,4Z"/><path class="cls-24" d="M187.11,246.49H172.78a2,2,0,1,1,0-4h14.33a2,2,0,0,1,0,4Z"/><path class="cls-25" d="M192,244.49a4.9,4.9,0,1,1-4.9-4.9A4.9,4.9,0,0,1,192,244.49Z"/><circle class="cls-20" cx="228.65" cy="276.18" r="16.88"/><circle class="cls-20" cx="189.65" cy="276.18" r="12.37" transform="translate(-139.74 215) rotate(-45)"/><circle class="cls-20" cx="267.65" cy="276.18" r="12.37" transform="translate(-56.04 68.48) rotate(-13.21)"/><g class="cls-26"><path class="cls-27" d="M179.54,226.39c-3.69,69.91,1.63,157.37,1.63,157.37l-5.6,5.85,22,2.62-.18-151.84a1.52,1.52,0,0,1,1.7-1.51h0a1.5,1.5,0,0,1,1.29,1.16l36.89,157,25.21,3L252,392,217.21,227.07Z"/><path class="cls-28" d="M255.09,179.68s1.79-6.3,2.87-7.55,3.92-1.48,4.47-1.41a6.33,6.33,0,0,1,1.9.67s1.64-1.16,2.51-.78c2,.87,0,2.56,0,2.56s1.69-.17,2.09.79-1.2,1.73-1.2,1.73a1.41,1.41,0,0,1,1.48.6c.43.82-1,2.35-1,2.35s1.7.15,1,1.92c-.6,1.43-8.66,5.71-8.66,5.71l-1.86.75Z"/><path class="cls-29" d="M255.09,179.68l-17.94,13.67-4.46-20.28a10.69,10.69,0,0,0-6.21-7.52,53.7,53.7,0,0,0-10.3-2.88c-3.75-.69-20.8-1.2-25.45-.72s-9.12,1.25-10.67,2.31c-5,3.45-24.88,33.64-24.74,35.83s21.18,32.06,21.18,32.06l4.91-5.35,37.46,8.13,4.31-47.88,3,17.35a7.6,7.6,0,0,0,4.67,5.76h0a7.61,7.61,0,0,0,8.43-1.89l21.27-22Zm-84.43,21L183,184.88l-2.58,31.38Z"/><path class="cls-30" d="M205.87,193.23l10.31-30.56a87.2,87.2,0,0,0-13.6-1.35,110.06,110.06,0,0,0-11.85.63Z"/><path class="cls-31" d="M215.42,231.06h0l-29.24-5.62a.24.24,0,0,1-.19-.29.24.24,0,0,1,.29-.2l29.23,5.62a.25.25,0,0,1,.2.3A.24.24,0,0,1,215.42,231.06Z"/><path class="cls-28" d="M187.2,221.26s-5.86-3.43-7.33-2.22-1.27,3.3-1.35,4-2.52,1.53-2.79,3.77-2.11,3.52-2,5.39,3.16,2.72,4,2.92,2.08-3.8,2.08-3.8,2,.24,2.44-.32,1.82-3.9,1.82-3.9a12.73,12.73,0,0,0,2.88-1.33,8,8,0,0,0,.69-1.78l-1.44-.89Z"/><path class="cls-25" d="M200.64,158.25s-1.87-.4-2.73.56-1.31,10.37.21,10.64,5.94-4.94,5.94-4.94,4.59,5.7,6.05,5.09-.41-11.14-3.42-11.14S200.64,158.25,200.64,158.25Z"/><path class="cls-25" d="M219.54,134.69s-.06,4.77-1.93,6.95l-.37-7.92Z"/><path class="cls-28" d="M204.05,163.77c-1.27-.13-2.35-.3-3.06-1.46-1.3-2.15-.6-4.9-1.94-7-.64-1-1.48-1.81-2.21-2.73a12.08,12.08,0,0,1-2-4.87c-1.94-7.83,1-24.26,12.61-22.68s10.79,14.63,9.69,20.54a21.12,21.12,0,0,1-2.27,6.78,8.68,8.68,0,0,1-2.41,2.74c-1.09.77-2.38.9-3.52,1.54-1.55.87-1.25,3.06-1.43,4.55C207.25,163.11,206,164,204.05,163.77Z"/><path class="cls-25" d="M223,137.43c-7,.09-19.47-6.34-19.47-6.34-.29,4.58-5.82,5.37-5.82,5.37l-.4,7.55-1.4-.41-1.51-3.81-.45.37s-4.29-4.94-3.73-7.26,3.45-4.85,3.45-4.85l-5.4,0,1.36-3,4.41,2.3c1-10.94,26.47-2.85,26.47-2.85a19.8,19.8,0,0,1,3.68-2.11,6,6,0,0,1,4-.29,3.71,3.71,0,0,1,2.63,2.84,5,5,0,0,1-1.26,3.61,13.52,13.52,0,0,1-5.17,4.13c1,.25,2.15,1,2.17,2a2.59,2.59,0,0,1-1.54,2.19A3.5,3.5,0,0,1,223,137.43Z"/><path class="cls-28" d="M196,143.06a3.34,3.34,0,1,1-3-3.66A3.34,3.34,0,0,1,196,143.06Z"/><path class="cls-28" d="M221.59,145.31a3.34,3.34,0,1,1-3-3.67A3.35,3.35,0,0,1,221.59,145.31Z"/><path class="cls-32" d="M209.32,147.34a3.41,3.41,0,0,1-1.19-.39,7,7,0,0,0-.74-.31.25.25,0,0,1-.17-.31.25.25,0,0,1,.32-.16,6.24,6.24,0,0,1,.79.32c.33.15.92.42,1,.34h0s0,0,0-.14a5.78,5.78,0,0,0-.79-2.14,4.78,4.78,0,0,1-.42-.9,3.63,3.63,0,0,1,0-1.43.24.24,0,0,1,.28-.21.26.26,0,0,1,.22.28,3.18,3.18,0,0,0,0,1.23,5.8,5.8,0,0,0,.38.8,6.06,6.06,0,0,1,.85,2.36.61.61,0,0,1-.23.56A.59.59,0,0,1,209.32,147.34Z"/><path class="cls-32" d="M207.43,149.71a4.64,4.64,0,0,1-4.33-3,.25.25,0,0,1,.14-.32.26.26,0,0,1,.33.14,4.14,4.14,0,0,0,1.8,2.09,4.19,4.19,0,0,0,2.71.49.25.25,0,0,1,.29.21.25.25,0,0,1-.21.28A4.4,4.4,0,0,1,207.43,149.71Z"/><path class="cls-32" d="M216.86,147h0a.25.25,0,0,1-.2-.29l.65-3.76a.24.24,0,0,1,.29-.2.25.25,0,0,1,.2.29l-.65,3.75A.26.26,0,0,1,216.86,147Z"/><path class="cls-32" d="M217.36,144.82a.25.25,0,0,1-.24-.18.24.24,0,0,1,.17-.31,6.68,6.68,0,0,1,1.88-.27h0a.26.26,0,0,1,.25.24.26.26,0,0,1-.25.26,6,6,0,0,0-1.75.25Z"/><path class="cls-32" d="M194.34,143.82a.22.22,0,0,1-.11,0,.25.25,0,0,1-.12-.33,1.43,1.43,0,0,0-2.36-1.56.25.25,0,0,1-.36,0,.25.25,0,0,1,0-.35,1.94,1.94,0,0,1,3.2,2.1A.27.27,0,0,1,194.34,143.82Z"/><path class="cls-32" d="M205.19,157.14a10.82,10.82,0,0,1-4.33-.91.26.26,0,0,1-.13-.33.25.25,0,0,1,.33-.13,10.24,10.24,0,0,0,5.18.82.26.26,0,0,1,.28.22.26.26,0,0,1-.23.28C205.93,157.12,205.56,157.14,205.19,157.14Z"/><path class="cls-25" d="M207.49,137.38a.27.27,0,0,1-.19-.08,3.23,3.23,0,0,0-4.86-.11.24.24,0,0,1-.35,0,.25.25,0,0,1,0-.35,3.85,3.85,0,0,1,2.84-1.21,3.81,3.81,0,0,1,2.77,1.33.25.25,0,0,1,0,.36A.28.28,0,0,1,207.49,137.38Z"/><path class="cls-25" d="M215.54,139.12a.25.25,0,0,1-.23-.14,3,3,0,0,0-2-1.59,3,3,0,0,0-2.48.48.26.26,0,0,1-.35-.06.25.25,0,0,1,0-.35,3.49,3.49,0,0,1,5.19,1.3.26.26,0,0,1-.11.34A.23.23,0,0,1,215.54,139.12Z"/><path class="cls-25" d="M206.87,141.43a1.17,1.17,0,1,1-1-1.3A1.16,1.16,0,0,1,206.87,141.43Z"/><path class="cls-25" d="M213.11,142.44a1.18,1.18,0,0,1-2.34-.28,1.18,1.18,0,1,1,2.34.28Z"/><path class="cls-32" d="M263.62,177.57h0c-.63-.07-1.4-2.05-1.81-3.22a.26.26,0,0,1,.16-.32.23.23,0,0,1,.31.15,10.51,10.51,0,0,0,1.34,2.85,17.63,17.63,0,0,0,.31-4.15.26.26,0,0,1,.25-.26h0a.25.25,0,0,1,.25.25c0,1.24,0,4.16-.52,4.6A.36.36,0,0,1,263.62,177.57Z"/><polygon class="cls-6" points="264.33 171.39 276.71 153.84 278.06 154.61 264.99 172.97 264.33 171.39"/><path class="cls-33" d="M207.61,142.62a3.37,3.37,0,1,1-1.33-4.57A3.38,3.38,0,0,1,207.61,142.62Z"/><path class="cls-33" d="M215.64,144.16a3.37,3.37,0,1,1-1.33-4.58A3.37,3.37,0,0,1,215.64,144.16Z"/><path class="cls-33" d="M208.13,141.25a.93.93,0,0,1,1.21.22"/><path class="cls-31" d="M201.73,228.36h0a.26.26,0,0,1-.21-.29l4.38-26.86,11.66-34.85a.23.23,0,0,1,.31-.15.24.24,0,0,1,.16.31l-11.65,34.81L202,228.15A.25.25,0,0,1,201.73,228.36Z"/><path class="cls-31" d="M199.28,224.78h0a.26.26,0,0,1-.21-.29L203,200.8l1.44-5.13a.24.24,0,0,1,.3-.17.25.25,0,0,1,.18.31l-1.43,5.1-3.93,23.66A.25.25,0,0,1,199.28,224.78Z"/><path class="cls-31" d="M200.89,188.91a.24.24,0,0,1-.22-.14l-12-24.33a.25.25,0,1,1,.45-.22l12,24.33a.25.25,0,0,1-.12.34Z"/></g><path class="cls-6" d="M224.78,268.79a2.24,2.24,0,0,0-2.24,2.24v10.3a2.24,2.24,0,1,0,4.48,0V271A2.24,2.24,0,0,0,224.78,268.79Z"/><path class="cls-6" d="M232.52,268.79a2.25,2.25,0,0,0-2.24,2.24v10.3a2.25,2.25,0,1,0,4.49,0V271A2.25,2.25,0,0,0,232.52,268.79Z"/><path class="cls-6" d="M193.34,271.38a1.14,1.14,0,0,0-1.24.24l-3.39,3.4v-2.59a1.13,1.13,0,0,0-.71-1.05,1.14,1.14,0,0,0-1.24.24L183,275.38a1.13,1.13,0,0,0,0,1.61l3.75,3.75a1.14,1.14,0,0,0,.81.34A1.07,1.07,0,0,0,188,281a1.14,1.14,0,0,0,.71-1.05v-2.59l3.39,3.39a1.14,1.14,0,0,0,.81.34,1.11,1.11,0,0,0,.43-.09,1.13,1.13,0,0,0,.7-1.05v-7.51A1.12,1.12,0,0,0,193.34,271.38Z"/><path class="cls-6" d="M274.3,275.38l-3.76-3.76a1.14,1.14,0,0,0-1.94.81V275l-3.4-3.4a1.14,1.14,0,0,0-1.94.81v7.51A1.15,1.15,0,0,0,264,281a1.12,1.12,0,0,0,.44.09,1.14,1.14,0,0,0,.8-.34l3.4-3.39v2.59a1.15,1.15,0,0,0,.7,1.05,1.12,1.12,0,0,0,.44.09,1.14,1.14,0,0,0,.8-.34L274.3,277A1.15,1.15,0,0,0,274.3,275.38Z"/><g class="cls-34"><rect class="cls-25" x="490.67" y="170.64" width="89.35" height="8.2"/><rect class="cls-25" x="490.67" y="178.84" width="89.35" height="4"/><rect class="cls-35" x="490.67" y="182.84" width="89.35" height="4"/><rect class="cls-36" x="490.67" y="186.84" width="89.35" height="4"/><rect class="cls-37" x="490.67" y="190.84" width="89.35" height="4"/><rect class="cls-38" x="490.67" y="194.84" width="89.35" height="4"/><rect class="cls-39" x="490.67" y="198.84" width="89.35" height="4"/><rect class="cls-40" x="490.67" y="202.84" width="89.35" height="4"/><rect class="cls-41" x="490.67" y="206.83" width="89.35" height="4"/><rect class="cls-42" x="490.67" y="210.83" width="89.35" height="4"/><rect class="cls-43" x="490.67" y="214.83" width="89.35" height="4"/><rect class="cls-44" x="490.67" y="218.83" width="89.35" height="4"/><rect class="cls-45" x="490.67" y="222.83" width="89.35" height="4"/><rect class="cls-46" x="490.67" y="226.83" width="89.35" height="4"/><rect class="cls-47" x="490.67" y="230.83" width="89.35" height="4"/><rect class="cls-48" x="490.67" y="234.83" width="89.35" height="4"/><rect class="cls-49" x="490.67" y="238.83" width="89.35" height="4"/><rect class="cls-50" x="490.67" y="242.83" width="89.35" height="4"/><rect class="cls-51" x="490.67" y="246.83" width="89.35" height="4"/><rect class="cls-52" x="490.67" y="250.83" width="89.35" height="4"/><rect class="cls-53" x="490.67" y="254.83" width="89.35" height="4"/><rect class="cls-54" x="490.67" y="258.82" width="89.35" height="4"/><rect class="cls-55" x="490.67" y="262.82" width="89.35" height="4"/><rect class="cls-56" x="490.67" y="266.82" width="89.35" height="4"/><rect class="cls-56" x="490.67" y="270.82" width="89.35" height="22.25"/></g><path class="cls-19" d="M552.06,185.18H517.15a1,1,0,0,1,0-2h34.91a1,1,0,0,1,0,2Z"/><path class="cls-6" d="M537.7,192.18H517.15a1,1,0,0,1,0-2H537.7a1,1,0,0,1,0,2Z"/><path class="cls-7" d="M553.75,199.17h-36.6a1,1,0,0,1,0-2h36.6a1,1,0,0,1,0,2Z"/><path class="cls-19" d="M521.37,206.16h-4.22a1,1,0,0,1,0-2h4.22a1,1,0,0,1,0,2Z"/><path class="cls-4" d="M544.55,192.18H542a1,1,0,0,1,0-2h2.57a1,1,0,0,1,0,2Z"/><path class="cls-19" d="M565.79,192.18H549a1,1,0,0,1,0-2h16.76a1,1,0,0,1,0,2Z"/><path class="cls-4" d="M565.79,185.18h-9.36a1,1,0,0,1,0-2h9.36a1,1,0,0,1,0,2Z"/><path class="cls-4" d="M507.13,184.91a2.93,2.93,0,1,1-2.92-2.93A2.92,2.92,0,0,1,507.13,184.91Z"/><path class="cls-4" d="M529.82,206.16H525.6a1,1,0,0,1,0-2h4.22a1,1,0,0,1,0,2Z"/><path class="cls-19" d="M552.06,222H517.15a1,1,0,0,1,0-2h34.91a1,1,0,0,1,0,2Z"/><path class="cls-6" d="M537.7,229H517.15a1,1,0,0,1,0-2H537.7a1,1,0,0,1,0,2Z"/><path class="cls-7" d="M553.75,236h-36.6a1,1,0,0,1,0-2h36.6a1,1,0,0,1,0,2Z"/><path class="cls-19" d="M521.37,243h-4.22a1,1,0,0,1,0-2h4.22a1,1,0,0,1,0,2Z"/><path class="cls-4" d="M544.55,229H542a1,1,0,0,1,0-2h2.57a1,1,0,0,1,0,2Z"/><path class="cls-19" d="M565.79,229H549a1,1,0,0,1,0-2h16.76a1,1,0,0,1,0,2Z"/><path class="cls-4" d="M565.79,222h-9.36a1,1,0,0,1,0-2h9.36a1,1,0,0,1,0,2Z"/><path class="cls-4" d="M507.13,221.76a2.93,2.93,0,1,1-2.92-2.93A2.93,2.93,0,0,1,507.13,221.76Z"/><path class="cls-4" d="M529.82,243H525.6a1,1,0,0,1,0-2h4.22a1,1,0,0,1,0,2Z"/><path class="cls-19" d="M552.06,258.89H517.15a1,1,0,0,1,0-2h34.91a1,1,0,0,1,0,2Z"/><path class="cls-6" d="M537.7,265.88H517.15a1,1,0,0,1,0-2H537.7a1,1,0,0,1,0,2Z"/><path class="cls-7" d="M553.75,272.87h-36.6a1,1,0,0,1,0-2h36.6a1,1,0,0,1,0,2Z"/><path class="cls-19" d="M521.37,279.87h-4.22a1,1,0,0,1,0-2h4.22a1,1,0,0,1,0,2Z"/><path class="cls-4" d="M544.55,265.88H542a1,1,0,0,1,0-2h2.57a1,1,0,0,1,0,2Z"/><path class="cls-19" d="M565.79,265.88H549a1,1,0,0,1,0-2h16.76a1,1,0,0,1,0,2Z"/><path class="cls-4" d="M565.79,258.89h-9.36a1,1,0,0,1,0-2h9.36a1,1,0,0,1,0,2Z"/><path class="cls-4" d="M507.13,258.61a2.93,2.93,0,1,1-2.92-2.92A2.93,2.93,0,0,1,507.13,258.61Z"/><path class="cls-4" d="M529.82,279.87H525.6a1,1,0,0,1,0-2h4.22a1,1,0,0,1,0,2Z"/><path class="cls-25" d="M333.55,158.29c2.84,2.76,4.79,6.75,6.48,10.79,1.33,3.19,2.58,6.63,2.48,10.26a16.13,16.13,0,0,1-3.28,9.17,20,20,0,0,1-6.73,5.5c-4.61,2.44-10.07,3.47-14.49.48-3.59-2.42-5.95-7.13-7.27-12.06a31.79,31.79,0,0,1-1.17-9.58,18.74,18.74,0,0,1,4.4-11.61C318.93,155.71,327.92,152.81,333.55,158.29Z"/><path class="cls-28" d="M326,188.54a2.81,2.81,0,0,0,2.69-2.9c-.08-1.72.23-3.33,3.05-4.63,5.92-2.72,6-24.71-4.86-24.21s-9.56,15.32-9.31,19.4,3.89,4.93,4.86,6.37a6.5,6.5,0,0,1,.58,3.13,2.85,2.85,0,0,0,3,2.84Z"/><path class="cls-28" d="M334.25,173.15a2.12,2.12,0,1,0,2-2.53A2.28,2.28,0,0,0,334.25,173.15Z"/><path class="cls-28" d="M314.59,172.26a2.12,2.12,0,1,0,2-2.52A2.29,2.29,0,0,0,314.59,172.26Z"/><path class="cls-25" d="M328.1,170.49a1.08,1.08,0,1,1-.05,2.16,1.08,1.08,0,0,1,.05-2.16Zm-7.67.92a1.08,1.08,0,1,0,1.1-1A1.08,1.08,0,0,0,320.43,171.41Z"/><path class="cls-25" d="M330.37,169a.26.26,0,0,1-.18-.07,2.57,2.57,0,0,0-2.6-.6.24.24,0,0,1-.32-.15.25.25,0,0,1,.15-.32,3,3,0,0,1,3.13.72.26.26,0,0,1,0,.35A.26.26,0,0,1,330.37,169Z"/><path class="cls-25" d="M321,168.62a.25.25,0,0,1-.21-.12.27.27,0,0,1,.08-.35,3.51,3.51,0,0,1,3.33-.14.25.25,0,1,1-.23.45,3,3,0,0,0-2.83.12A.25.25,0,0,1,321,168.62Z"/><path class="cls-32" d="M325.42,175.42l-.2,0a.89.89,0,0,1-.59-.53,1.86,1.86,0,0,1,0-1.15l.69-2.74a.25.25,0,0,1,.3-.19.25.25,0,0,1,.18.31l-.69,2.75a1.45,1.45,0,0,0-.05.84.42.42,0,0,0,.27.23.16.16,0,0,0,.15,0,.25.25,0,1,1,.31.39A.63.63,0,0,1,325.42,175.42Z"/><path class="cls-32" d="M325.37,177.42a4.71,4.71,0,0,1-2.86-1,.24.24,0,0,1,0-.35.25.25,0,0,1,.35-.05,4.12,4.12,0,0,0,5.56-.43.25.25,0,0,1,.36,0,.25.25,0,0,1,0,.35,4.63,4.63,0,0,1-3,1.45Z"/><path class="cls-32" d="M317.43,173.27a.24.24,0,0,1-.25-.23l-.1-1.83a.26.26,0,0,1,.24-.27.23.23,0,0,1,.26.24l.1,1.83a.25.25,0,0,1-.24.26Z"/><path class="cls-32" d="M335.3,174.21h-.1a.26.26,0,0,1-.13-.33l.54-1.34a.26.26,0,0,1,.33-.13.25.25,0,0,1,.14.32l-.55,1.34A.24.24,0,0,1,335.3,174.21Z"/><path class="cls-22" d="M309.62,192.11c-2.84,1.51-7.86,28.72-7.86,28.72l-9.32-.9s2.13,5,10.05,7.95c9.33,3.41,12.35-23.72,12.35-23.72Z"/><path class="cls-22" d="M316.51,184.05l.94,4.67s9.07,3.72,15.37-.21l.54-4.46Z"/><path class="cls-25" d="M327.67,245a1.88,1.88,0,0,0-3.63-.87l-41.43,109.4-9-.14,38.21-122.06c13.12-4.33,27.77.32,27.77.32s4.53,14.54,1.4,35.11-17.18,87.44-17.18,87.44L316,354Z"/><polygon class="cls-22" points="280.89 358.03 265.36 358.03 273.61 353.35 282.61 353.49 280.89 358.03"/><polygon class="cls-22" points="315.59 358.03 316.02 354.03 323.81 354.16 328.97 358.03 315.59 358.03"/><path class="cls-22" d="M340.64,190.84c2.24,1.78,21.24,25.43,21,27.37s-16.86,19.09-16.86,19.09l-3.31-6.15,10.16-12.4L338,204.64Z"/><path class="cls-22" d="M332.82,188.51s5.94,1.17,7.82,2.33c.73.45-1.59,29.14-1.59,29.14L344,239.85s-23.55,4.35-37.24-2.13l7.16-17.6s-4.45-27.53-4.29-28,7.83-3.39,7.83-3.39Z"/><path class="cls-57" d="M310.59,198.39a10.25,10.25,0,0,0-.37,6.05,7.19,7.19,0,0,0,2.36,4c.13,1.16.14,2.46.27,3.62"/><path class="cls-57" d="M340.73,197.64a7,7,0,0,1-.55,7.57"/><path class="cls-57" d="M331.09,188.37a17.7,17.7,0,0,1-11.81.72"/><path class="cls-25" d="M316.89,228.12h18.4a0,0,0,0,1,0,0v2.26a0,0,0,0,1,0,0H315.86a0,0,0,0,1,0,0v-1.23A1,1,0,0,1,316.89,228.12Z" transform="translate(651.16 458.49) rotate(180)"/><path class="cls-25" d="M283.18,230.38h34.23a.89.89,0,0,0,.9-1L315.42,205a2.37,2.37,0,0,0-2.3-2.05H281a1.79,1.79,0,0,0-1.81,2.05L282,229.35A1.19,1.19,0,0,0,283.18,230.38Z"/><path class="cls-58" d="M286.79,228.45h29.08a.34.34,0,0,0,0-.67H286.79a.34.34,0,0,0,0,.67Z"/><path class="cls-58" d="M294.84,215.32a2.06,2.06,0,1,0,2.06-2.06A2.05,2.05,0,0,0,294.84,215.32Z"/><path class="cls-28" d="M280.63,219.31s-4,2.29-3.79,3.56,1.51,1.87,1.9,2.15,0,2,1.27,2.92,1.35,2.44,2.49,3,2.67-.94,3.06-1.33S284,227.1,284,227.1s.82-1.11.63-1.54-1.67-2.4-1.67-2.4a8.5,8.5,0,0,0,.19-2.14,5.61,5.61,0,0,0-.81-1l-1,.55Z"/><path class="cls-28" d="M338.59,231.32s4.13-1.58,4.94-.65a3.43,3.43,0,0,1,.45,2.72c0,.46,1.46,1.25,1.39,2.72s1,2.49.72,3.68-2.32,1.42-2.85,1.46-.94-2.67-.94-2.67-1.32-.06-1.53-.46-.76-2.7-.76-2.7a8.32,8.32,0,0,1-1.71-1.16,5.37,5.37,0,0,1-.25-1.22l1-.42Z"/><path class="cls-25" d="M336.48,168.6a2.15,2.15,0,0,1-.43,2.45c-.43.41-1,.62-1.47,1a3.22,3.22,0,0,0-1,2,7.63,7.63,0,0,0,.14,2.33,4.26,4.26,0,0,1-1.23-4.09,12.83,12.83,0,0,1,1.83-4.11,5.13,5.13,0,0,1-4.4-3.78,32,32,0,0,1-12.76,2.81,25.32,25.32,0,0,1,2.35-6.86,8.2,8.2,0,0,1,5.48-4.22,9.57,9.57,0,0,1,5.89,1.34,12.45,12.45,0,0,1,5.19,4.63C337.2,164.19,337.7,166.58,336.48,168.6Z"/></g></g></g></svg>