<svg xmlns="http://www.w3.org/2000/svg" viewBox="0 0 320 113.78"><defs><style>.cls-1,.cls-3{fill:#fff;}.cls-2,.cls-4{fill:#ff6511;}.cls-3,.cls-4{fill-rule:evenodd;}</style></defs><g id="Layer_2" data-name="Layer 2"><g id="Camada_1" data-name="Camada 1"><path class="cls-1" d="M108.69,31.21h16.83c1.94,0,3.31-.39,4.1-1.16a4.09,4.09,0,0,0,1.19-3.12,4.41,4.41,0,0,0-1.22-3.25,5.25,5.25,0,0,0-3.87-1.22H114.19c-2,0-3.4.47-4.24,1.42a5.14,5.14,0,0,0-1.26,3.53v3.8Zm17.1-15.67q6.37,0,9.23,2.88t2.85,8.11q0,4.95-2.78,7.63t-9.37,2.68h-17v2.58A5.1,5.1,0,0,0,110,43c.84.93,2.25,1.39,4.24,1.39h18.42a3.49,3.49,0,0,1,3.49,3.49h0a3.5,3.5,0,0,1-3.49,3.5H114.19a16.28,16.28,0,0,1-5.73-.88A10.37,10.37,0,0,1,104.59,48a9.4,9.4,0,0,1-2.2-3.73,15.34,15.34,0,0,1-.68-4.72V27.34a15.4,15.4,0,0,1,.68-4.68,9.42,9.42,0,0,1,2.2-3.77,10.35,10.35,0,0,1,3.87-2.47,16.28,16.28,0,0,1,5.73-.88Z"/><path class="cls-1" d="M197.37,15.54a3.53,3.53,0,0,1,3.53,3.52V37a6.89,6.89,0,0,0,2.27,5.29c1.51,1.4,3.7,2.1,6.54,2.1h5.84q4.27,0,6.51-2.1A6.93,6.93,0,0,0,224.3,37V19.06a3.53,3.53,0,0,1,3.53-3.52h0a3.53,3.53,0,0,1,3.53,3.52V37.25a15.79,15.79,0,0,1-1,5.7,11.77,11.77,0,0,1-3,4.44,13.88,13.88,0,0,1-4.85,2.92,19.69,19.69,0,0,1-6.75,1h-6.65a19.69,19.69,0,0,1-6.75-1,13.88,13.88,0,0,1-4.85-2.92A11.89,11.89,0,0,1,194.62,43a15.79,15.79,0,0,1-1-5.7V19.06a3.53,3.53,0,0,1,3.52-3.52Z"/><path class="cls-1" d="M275.13,19h0a3.45,3.45,0,0,1-3.46,3.46H257.36q-4.68,0-6.82,2.57c-1.42,1.72-2.14,4.53-2.14,8.42s.72,6.68,2.14,8.38,3.7,2.54,6.82,2.54h14.28a3.49,3.49,0,0,1,3.49,3.49h0a3.5,3.5,0,0,1-3.49,3.5h-15q-7.19,0-11.36-4.41t-4.18-13.5q0-9.09,4.18-13.5t11.36-4.41h15A3.45,3.45,0,0,1,275.13,19Z"/><path class="cls-1" d="M308.7,44.37c1.31,0,2-.61,2-1.83V35.82H293.78c-1.9,0-3.24.37-4,1.12A4.11,4.11,0,0,0,288.62,40a4.32,4.32,0,0,0,1.15,3.15,5.21,5.21,0,0,0,3.87,1.19Zm-3.46-28.83a16.34,16.34,0,0,1,5.7.88,10.31,10.31,0,0,1,3.9,2.47,9.55,9.55,0,0,1,2.21,3.77,15.71,15.71,0,0,1,.67,4.68V44.17a15.61,15.61,0,0,1-.3,3.32,4.55,4.55,0,0,1-1.12,2.21A4.92,4.92,0,0,1,314,51a14.16,14.16,0,0,1-3.7.41H293.57q-6.37,0-9.19-2.92t-2.82-8a13.51,13.51,0,0,1,.65-4.34,7.72,7.72,0,0,1,2.07-3.22,9.45,9.45,0,0,1,3.73-2,19.08,19.08,0,0,1,5.63-.72h17V27.41a5.14,5.14,0,0,0-1.26-3.53c-.83-.95-2.25-1.42-4.24-1.42h-18A3.46,3.46,0,0,1,283.73,19h0a3.45,3.45,0,0,1,3.46-3.46Z"/><path class="cls-1" d="M168.33,44.37q4.33,0,6.17-2c1.23-1.35,1.84-3.57,1.84-6.64V22.46H161.21c-3.12,0-5.4.86-6.82,2.57s-2.14,4.53-2.14,8.42.71,6.68,2.14,8.38,3.7,2.54,6.82,2.54ZM180,0a3.63,3.63,0,0,1,3.63,3.63V36q0,7.81-3.36,11.57t-9.81,3.77h-9.9c-4.8,0-8.58-1.47-11.37-4.41S145,39.51,145,33.45s1.39-10.56,4.17-13.5,6.57-4.41,11.37-4.41h15.81V3.63A3.62,3.62,0,0,1,180,0Z"/><path class="cls-2" d="M135.74,66.76h0a3.46,3.46,0,0,1-3.46,3.46H115.93a5.16,5.16,0,0,0-3.6,1,4,4,0,0,0-1.09,3.05,3.78,3.78,0,0,0,1.06,2.89c.7.65,2,1,4,1h8.42a19.64,19.64,0,0,1,6.14.81,10,10,0,0,1,3.8,2.18,7.27,7.27,0,0,1,1.93,3.18,14,14,0,0,1,.54,3.94,14.27,14.27,0,0,1-.64,4.38,8.42,8.42,0,0,1-2.07,3.42,9.78,9.78,0,0,1-3.67,2.24,15.77,15.77,0,0,1-5.35.81H108.09a3.49,3.49,0,0,1-3.49-3.49h0a3.49,3.49,0,0,1,3.49-3.49h17.34a5.57,5.57,0,0,0,3.59-.92,3.77,3.77,0,0,0,1.09-3,3.68,3.68,0,0,0-1.19-3.09,6.47,6.47,0,0,0-3.9-.91h-8.48a18.33,18.33,0,0,1-6.11-.85A9.33,9.33,0,0,1,106.67,81a7.94,7.94,0,0,1-1.94-3.35,14.36,14.36,0,0,1-.54-3.94,10.53,10.53,0,0,1,2.71-7.63q2.71-2.82,9-2.82h16.42a3.46,3.46,0,0,1,3.46,3.46Z"/><path class="cls-2" d="M221.11,92.14c1.31,0,2-.61,2-1.83V83.59h-16.9c-1.9,0-3.23.37-4,1.12A4.07,4.07,0,0,0,201,87.79,4.32,4.32,0,0,0,202.18,91a5.26,5.26,0,0,0,3.87,1.19ZM217.65,63.3a16.57,16.57,0,0,1,5.7.88,10.33,10.33,0,0,1,3.9,2.48,9.35,9.35,0,0,1,2.2,3.77,15.35,15.35,0,0,1,.68,4.68V91.93a15.71,15.71,0,0,1-.3,3.33,4.61,4.61,0,0,1-1.12,2.2,4.84,4.84,0,0,1-2.27,1.26,14.21,14.21,0,0,1-3.7.4H206q-6.37,0-9.19-2.91a11.06,11.06,0,0,1-2.82-8,13.47,13.47,0,0,1,.65-4.34,7.66,7.66,0,0,1,2.07-3.22,9.46,9.46,0,0,1,3.73-2,19.39,19.39,0,0,1,5.63-.71h17V75.18a5.12,5.12,0,0,0-1.26-3.53c-.83-1-2.25-1.43-4.24-1.43h-18a3.46,3.46,0,0,1-3.46-3.46h0a3.46,3.46,0,0,1,3.46-3.46Z"/><path class="cls-2" d="M274.66,66.76h0a3.45,3.45,0,0,1-3.46,3.46H256.89c-3.12,0-5.4.86-6.82,2.58s-2.14,4.52-2.14,8.41.72,6.69,2.14,8.38,3.7,2.55,6.82,2.55h14.28a3.49,3.49,0,0,1,3.49,3.49h0a3.49,3.49,0,0,1-3.49,3.49h-15q-7.19,0-11.36-4.4t-4.18-13.51q0-9.09,4.18-13.5t11.36-4.41h15a3.45,3.45,0,0,1,3.46,3.46Z"/><path class="cls-2" d="M290.83,79h16.82c2,0,3.32-.38,4.11-1.15a4.15,4.15,0,0,0,1.18-3.12,4.39,4.39,0,0,0-1.22-3.26,5.29,5.29,0,0,0-3.86-1.22H296.32c-2,0-3.4.48-4.24,1.43a5.12,5.12,0,0,0-1.25,3.53V79ZM307.92,63.3q6.39,0,9.23,2.89t2.85,8.1c0,3.31-.93,5.85-2.78,7.64s-5,2.68-9.36,2.68h-17v2.57a5.12,5.12,0,0,0,1.25,3.57c.84.92,2.25,1.39,4.24,1.39h18.42a3.5,3.5,0,0,1,3.5,3.49h0a3.5,3.5,0,0,1-3.5,3.49H296.32a16.28,16.28,0,0,1-5.73-.88,10.23,10.23,0,0,1-3.87-2.47,9.47,9.47,0,0,1-2.2-3.73,15.34,15.34,0,0,1-.68-4.72V75.11a15.35,15.35,0,0,1,.68-4.68,9.35,9.35,0,0,1,2.2-3.77,10.37,10.37,0,0,1,3.87-2.48,16.51,16.51,0,0,1,5.73-.88Z"/><path class="cls-2" d="M152.7,92.14h15.13q4.68,0,6.82-2.55c1.42-1.69,2.13-4.49,2.13-8.38s-.71-6.69-2.13-8.41-3.7-2.58-6.82-2.58h-7.06q-4.41,0-6.24,2c-1.22,1.36-1.83,3.59-1.83,6.71V92.14ZM168.57,63.3q7.13,0,11.3,4.45T184,81.21q0,9.11-4.17,13.51t-11.3,4.4H152.7v10.79a3.6,3.6,0,0,1-3.6,3.6h0a3.6,3.6,0,0,1-3.59-3.6V78.64q0-7.8,3.32-11.57t9.84-3.77Z"/><path class="cls-1" d="M37.44,48.36,20.52,42.85a5.82,5.82,0,0,1-4.06-5.79A20.66,20.66,0,0,1,20.9,24.74c.17-.22.47-.58.89-1C11.14,21.11,2.46,23.28.32,32.93v0A38,38,0,0,0,2.53,49.05a5.7,5.7,0,0,0,3.79,3.61l11,3.41C13.83,48.71,12.36,41.4,14,34.94a.1.1,0,0,1,.19,0c-1.05,7.16,1.43,14.78,6,22L33.4,61.1a5.89,5.89,0,0,0,7.36-3.89c.15-.51.31-1,.47-1.54A5.88,5.88,0,0,0,37.44,48.36Z"/><path class="cls-1" d="M70.87,29.81a37,37,0,0,0-3.13-9.2A36.49,36.49,0,0,0,57.1,7.73,35.82,35.82,0,0,0,30.67,1,36.81,36.81,0,0,0,9,12.92c5.7-1.55,13.57.6,21.85,5.09a19,19,0,0,1,2.31-.56,20.56,20.56,0,0,1,20,7.92,19.47,19.47,0,0,1,3.13,6.83,5.79,5.79,0,0,0,5.46,4.49l3.17.13a5.88,5.88,0,0,0,6-7Z"/><path class="cls-3" d="M.24,33.9c5.23-23.55,49.43-2.53,66,23.57l2.91.91C53.36,24.75-4.15-9.71.24,33.9Z"/><path class="cls-2" d="M49,66.09l16.92,5.52a5.79,5.79,0,0,1,4,5.78,20.68,20.68,0,0,1-4.43,12.33c-.17.21-.47.58-.89,1,10.64,2.6,19.32.43,21.46-9.22v0A38,38,0,0,0,83.93,65.4a5.7,5.7,0,0,0-3.79-3.61l-11-3.41c3.46,7.36,4.93,14.68,3.31,21.13a.1.1,0,0,1-.2,0c1.06-7.16-1.42-14.77-6-22l-13.2-4.12a5.88,5.88,0,0,0-7.36,3.89c-.16.51-.31,1-.47,1.54A5.88,5.88,0,0,0,49,66.09Z"/><path class="cls-2" d="M55.66,96.44a19.51,19.51,0,0,1-2.31.56,20.55,20.55,0,0,1-20-7.92,19.29,19.29,0,0,1-3.13-6.83,5.8,5.8,0,0,0-5.46-4.49l-3.17-.13a5.88,5.88,0,0,0-6,7,37,37,0,0,0,3.13,9.2,36.49,36.49,0,0,0,10.64,12.88,35.85,35.85,0,0,0,26.43,6.7,36.9,36.9,0,0,0,21.72-11.89C71.81,103.08,63.94,100.94,55.66,96.44Z"/><path class="cls-4" d="M86.22,80.55C81,104.11,36.78,83.08,20.19,57l-2.9-.9C33.09,89.7,90.6,124.16,86.22,80.55Z"/></g></g></svg>